<?xml version="1.0" standalone="no"?>
<!DOCTYPE svg PUBLIC "-//W3C//DTD SVG 1.1//EN" "http://www.w3.org/Graphics/SVG/1.1/DTD/svg11.dtd" >
<svg xmlns="http://www.w3.org/2000/svg" xmlns:xlink="http://www.w3.org/1999/xlink" version="1.1">
<metadata>
Created by FontForge 20170731 at Wed Jul 27 20:33:06 2022
 By Aleksey,,,
Copyright (c) 1991-2018 Monotype GmbH. All rights reserved
</metadata>
<defs>
<font id="MetaPro-CondXbold" horiz-adv-x="1024" >
  <font-face 
    font-family="Meta Pro Cond Xbold"
    font-weight="750"
    font-stretch="condensed"
    units-per-em="2048"
    panose-1="2 0 5 6 3 0 0 2 0 4"
    ascent="1563"
    descent="-485"
    x-height="1049"
    cap-height="1423"
    bbox="-952 -672 2509 2284"
    underline-thickness="235"
    underline-position="-505"
    unicode-range="U+000D-FEFF"
  />
<missing-glyph horiz-adv-x="1032" 
d="M102 0v1423h828v-1423h-828zM201 98h630v1227h-630v-1227z" />
    <glyph glyph-name="IJ" unicode="IJ" horiz-adv-x="1095" 
d="M414 0h-281v1423h281v-1423zM963 1423v-1294q0 -189 -91 -317q-80 -113 -223 -170l-133 155q61 43 93 79.5t50 88.5q25 74 25 279v1179h279z" />
    <glyph glyph-name="ij" unicode="ij" horiz-adv-x="1077" 
d="M410 0h-275v1036l275 31v-1067zM438 1333q0 -68 -50 -117t-120 -49q-68 0 -118 49.5t-50 116.5q0 68 51 117t121 49q69 0 117.5 -49t48.5 -117zM946 31q0 -182 -37 -275q-28 -73 -82.5 -123t-148.5 -96l-115 156q63 50 87 116.5t24 192.5v1034l272 31v-1036zM973 1333
q0 -68 -51 -117t-121 -49q-68 0 -118 49.5t-50 116.5q0 68 51 117t121 49q69 0 118.5 -49t49.5 -117z" />
    <glyph glyph-name="f_f" unicode="ff" horiz-adv-x="1179" 
d="M1251 1460l-69 -180q-45 29 -103 29q-36 0 -59 -28t-23 -75v-157h207l-43 -205h-164v-844h-274v844h-315v-844h-275v844h-80v205h80q-6 60 -6 131q0 203 121 286q72 50 186 50q133 0 228 -56l-70 -180q-45 29 -103 29q-36 0 -58.5 -28t-22.5 -75v-157h315q-6 30 -6 131
q0 203 121 286q72 50 186 50q132 0 227 -56z" />
    <glyph glyph-name="f_f_i" unicode="ffi" horiz-adv-x="1681" 
d="M1552 0h-272v844h-283v-844h-274v844h-315v-844h-275v844h-80v205h80q-6 60 -6 131q0 203 121 286q72 50 186 50q133 0 228 -56l-70 -180q-45 29 -103 29q-36 0 -58.5 -28t-22.5 -75v-157h315q-6 48 -6 131q0 203 121 286q72 50 186 50q124 0 199 -41l-49 -191
q-45 25 -95 25q-36 0 -59 -28t-23 -75v-157h555v-1049zM1581 1333q0 -68 -49.5 -117t-118.5 -49q-67 0 -115.5 49t-48.5 117t49.5 117t118.5 49q67 0 115.5 -49t48.5 -117z" />
    <glyph glyph-name="f_i" unicode="fi" horiz-adv-x="1093" 
d="M963 0h-273v844h-282v-844h-275v844h-80v205h80q-6 60 -6 131q0 203 121 286q72 50 186 50q124 0 199 -41l-49 -191q-45 25 -95 25q-36 0 -58.5 -28t-22.5 -75v-157h555v-1049zM991 1333q0 -68 -49.5 -117t-118.5 -49q-67 0 -115.5 49t-48.5 117t49.5 117t118.5 49
q67 0 115.5 -49t48.5 -117z" />
    <glyph glyph-name=".notdef" horiz-adv-x="1032" 
d="M102 0v1423h828v-1423h-828zM201 98h630v1227h-630v-1227z" />
    <glyph glyph-name=".null" horiz-adv-x="0" 
 />
    <glyph glyph-name=".null" horiz-adv-x="0" 
 />
    <glyph glyph-name="nonmarkingreturn" horiz-adv-x="682" 
 />
    <glyph glyph-name="CR" unicode="&#xd;" horiz-adv-x="425" 
 />
    <glyph glyph-name="space" unicode=" " horiz-adv-x="425" 
 />
    <glyph glyph-name="exclam" unicode="!" horiz-adv-x="585" 
d="M446 1458l-55 -1040h-203l-61 995zM461 143q0 -70 -50 -121t-118 -51t-118 51t-50 121q0 69 50 119.5t118 50.5t118 -50.5t50 -119.5z" />
    <glyph glyph-name="quotedbl" unicode="&#x22;" horiz-adv-x="866" 
d="M356 850h-256v602h256v-602zM766 850h-252v602h252v-602z" />
    <glyph glyph-name="numbersign" unicode="#" horiz-adv-x="1003" 
d="M952 850h-166l-28 -246h143v-196h-164l-51 -408h-188l49 408h-162l-49 -408h-191l50 408h-144v196h166l29 246h-144v194h166l47 390h189l-45 -390h162l45 390h188l-43 -390h141v-194zM596 850h-162l-26 -246h159z" />
    <glyph glyph-name="dollar" unicode="$" horiz-adv-x="1091" 
d="M1010 444q0 -191 -111.5 -311.5t-298.5 -148.5v-166h-160v162q-215 11 -389 126l109 238q166 -123 340 -123q88 0 143 49t55 131q0 105 -125 156l-178 72q-65 26 -111.5 55t-85.5 73.5t-59 108t-20 146.5q0 168 98.5 285t263.5 145v180h162v-176q196 -17 354 -127
l-129 -209q-78 49 -140 74.5t-128 25.5q-71 0 -117.5 -42.5t-46.5 -110.5q0 -55 27 -90t86 -60l186 -78q136 -58 205.5 -147.5t69.5 -237.5z" />
    <glyph glyph-name="percent" unicode="%" horiz-adv-x="1454" 
d="M666 1096q0 -163 -82.5 -262t-229.5 -99q-144 0 -225.5 91t-81.5 261q0 159 86 259t225 100q144 0 226 -90.5t82 -259.5zM1407 336q0 -163 -83 -262t-230 -99q-143 0 -224.5 91t-81.5 262q0 158 87 258t225 100q143 0 225 -90.5t82 -259.5zM1194 1421l-721 -1421h-217
l719 1421h219zM1190 330q0 104 -19 150t-75 46q-55 0 -72.5 -42t-17.5 -152q0 -108 18.5 -151.5t73.5 -43.5q51 0 71.5 44t20.5 149zM449 1092q0 104 -18.5 149t-74.5 45q-55 0 -73.5 -42.5t-18.5 -151.5q0 -107 19.5 -150t74.5 -43q51 0 71 44t20 149z" />
    <glyph glyph-name="ampersand" unicode="&#x26;" horiz-adv-x="1273" 
d="M1268 0h-359l-73 88q-63 -54 -158.5 -84.5t-194.5 -30.5q-186 0 -298.5 100t-112.5 283q0 118 56 210.5t167 150.5l-66 65q-82 82 -82 238q0 155 106 252.5t273 97.5q165 0 269 -92.5t104 -233.5q0 -111 -54 -188.5t-186 -153.5l205 -233q39 77 66 223l219 -59
q-25 -180 -127 -348zM688 256l-254 293q-74 -61 -74 -166q0 -81 46.5 -137t130.5 -56q85 0 151 66zM623 1047q0 60 -24.5 95.5t-70.5 35.5q-53 0 -77.5 -35.5t-24.5 -93.5q0 -67 51 -131l45 -56q44 28 72.5 79.5t28.5 105.5z" />
    <glyph glyph-name="quotesingle" unicode="'" horiz-adv-x="454" 
d="M354 850h-254v602h254v-602z" />
    <glyph glyph-name="parenleft" unicode="(" horiz-adv-x="569" 
d="M610 -174l-67 -178q-274 101 -389 403q-82 216 -82 576q0 251 43.5 435t150.5 322q110 143 273 222l71 -183q-39 -31 -64 -55t-57.5 -64t-58 -93.5t-43.5 -120.5q-45 -161 -45 -424q0 -441 82 -629q32 -72 76.5 -121t109.5 -90z" />
    <glyph glyph-name="parenright" unicode=")" horiz-adv-x="569" 
d="M498 664q0 -276 -43.5 -465.5t-145.5 -323.5q-106 -139 -280 -227l-70 184q98 80 154 167t82 200q34 144 34 463q0 393 -92 573q-60 121 -174 192l70 181q62 -30 109.5 -59t101 -74.5t97 -110t75.5 -145.5q82 -209 82 -555z" />
    <glyph glyph-name="asterisk" unicode="*" horiz-adv-x="868" 
d="M825 1042l-227 -79l145 -224l-165 -123l-148 226l-143 -215l-162 125l151 211l-233 90l76 207l217 -86v262h203v-262l217 77z" />
    <glyph glyph-name="plus" unicode="+" horiz-adv-x="1185" 
d="M1114 524h-381v-456h-280v456h-381v262h381v451h280v-451h381v-262z" />
    <glyph glyph-name="comma" unicode="," horiz-adv-x="552" 
d="M461 84q0 -131 -78 -236q-30 -39 -84.5 -77t-114.5 -56l-112 117q61 17 97 49t36 68q0 17 -5 25t-23 19.5t-27 18.5q-66 55 -66 142q0 74 51 125t123 51q95 0 149 -66t54 -180z" />
    <glyph glyph-name="hyphen" unicode="-" horiz-adv-x="628" 
d="M541 442h-453v246h453v-246z" />
    <glyph glyph-name="period" unicode="." horiz-adv-x="540" 
d="M449 152q0 -75 -54.5 -130t-126.5 -55t-124 55t-52 130q0 74 52 127t124 53t126.5 -53.5t54.5 -126.5z" />
    <glyph glyph-name="slash" unicode="/" horiz-adv-x="802" 
d="M741 1569l-485 -1886h-195l482 1886h198z" />
    <glyph glyph-name="zero" unicode="0" horiz-adv-x="1077" 
d="M1006 537q0 -145 -36 -255t-101 -177.5t-150.5 -100.5t-190.5 -33q-221 0 -338.5 132.5t-117.5 424.5q0 272 130.5 415.5t344.5 143.5q220 0 339.5 -133.5t119.5 -416.5zM684 537q0 132 -16.5 205t-46 98.5t-80.5 25.5q-78 0 -114 -73.5t-36 -264.5q0 -129 18 -204
t48.5 -102t79.5 -27q80 0 113.5 75t33.5 267z" />
    <glyph glyph-name="one" unicode="1" horiz-adv-x="905" 
d="M803 0h-649v250h211v471q-76 -58 -201 -115l-86 182l368 283h193v-821h164v-250z" />
    <glyph glyph-name="two" unicode="2" horiz-adv-x="1030" 
d="M928 258l-37 -258h-780v246q26 14 137 92l207 145q151 105 151 234q0 58 -38.5 87.5t-106.5 29.5q-120 0 -258 -123l-131 192q219 191 444 191q177 0 283 -86.5t106 -241.5q0 -146 -63 -238t-195 -163q-182 -101 -227 -123q101 16 155 16h353z" />
    <glyph glyph-name="three" unicode="3" horiz-adv-x="974" 
d="M872 131q0 -127 -54 -223t-148 -156q-164 -106 -420 -106q-79 0 -141 10l-31 223q99 -6 131 -6q158 0 253 65.5t95 200.5q0 79 -51 123q-53 45 -146 45q-66 0 -122 -6v248q55 -6 112 -6q197 0 197 174q0 63 -34.5 101t-100.5 38q-75 0 -134 -26t-120 -78l-111 188
q75 65 178 108.5t221 43.5q180 0 290 -98.5t110 -260.5q0 -110 -44 -189t-130 -118q96 -29 148 -108.5t52 -186.5z" />
    <glyph glyph-name="four" unicode="4" horiz-adv-x="1007" 
d="M606 666l246 43v-258q0 -118 -8 -211q18 2 57 2h60v-242q-74 0 -113 4q4 -46 4 -67v-244l-272 -31v270q0 12 1 36t1 36q-40 -4 -62 -4h-473v195l369 876h278l-270 -643q-41 -95 -94 -190q6 1 16.5 2.5t19.5 2.5t17 1h170q19 0 29 -2q-2 16 -2 59q0 68 26 365z" />
    <glyph glyph-name="five" unicode="5" horiz-adv-x="925" 
d="M836 180q0 -102 -31.5 -188t-86.5 -147t-129.5 -104.5t-160.5 -64t-180 -20.5q-65 0 -129 12l-37 232q71 -23 137 -23q89 0 162 31t118.5 95t45.5 151q0 88 -52 138t-153 50q-123 0 -238 -41l56 760h620l-28 -248h-340l-23 -248q42 6 90 6q44 0 89.5 -11t95 -39.5
t87.5 -71t62.5 -112.5t24.5 -157z" />
    <glyph glyph-name="six" unicode="6" horiz-adv-x="1071" 
d="M983 438q0 -200 -121.5 -332.5t-312.5 -132.5q-220 0 -340.5 144.5t-120.5 404.5q0 358 176 586q57 74 128 130.5t145.5 90.5t145.5 53.5t144 26.5l52 -186q-234 -37 -363 -219q-13 -17 -24.5 -37.5t-22 -44t-17 -39t-16 -41.5t-12.5 -33q72 57 186 57q172 0 272.5 -115
t100.5 -313zM698 438q0 89 -33 145t-100 56q-77 0 -170 -55q-6 -43 -6 -133q0 -40 5.5 -77t20.5 -81t49.5 -71t84.5 -27q71 0 110 68t39 175z" />
    <glyph glyph-name="seven" unicode="7" horiz-adv-x="950" 
d="M905 1061l-33 -277q-135 -236 -249 -557q-100 -282 -146 -536l-313 -35q49 290 180 627q112 295 256 522q-60 -6 -80 -6h-469l35 262h819z" />
    <glyph glyph-name="eight" unicode="8" horiz-adv-x="1081" 
d="M1010 373q0 -187 -130 -293.5t-364 -106.5q-444 0 -444 398q0 103 57.5 192t149.5 142q-164 110 -164 301q0 169 120.5 272.5t315.5 103.5q197 0 311.5 -93t114.5 -261q0 -99 -51.5 -176.5t-153.5 -126.5q238 -124 238 -352zM713 338q0 68 -38.5 119t-121.5 94l-74 39
q-106 -75 -106 -213q0 -91 46 -142t134 -51q70 0 115 43t45 111zM684 1036q0 67 -36 106.5t-107 39.5t-112.5 -39.5t-41.5 -106.5q0 -59 38 -105.5t118 -88.5q74 46 107.5 91.5t33.5 102.5z" />
    <glyph glyph-name="nine" unicode="9" horiz-adv-x="1054" 
d="M969 553q0 -200 -60.5 -366.5t-167.5 -290.5q-107 -123 -254 -190.5t-294 -70.5l-58 193q177 15 320 141q64 55 108 125.5t64 141.5q-67 -48 -183 -48q-171 0 -270.5 118.5t-99.5 314.5q0 201 123 335t313 134q216 0 337.5 -141t121.5 -396zM666 633q0 32 -4 62t-15 62.5
t-27.5 56t-45.5 39t-66 15.5q-69 0 -110.5 -67t-41.5 -172q0 -91 35 -152t101 -61q78 0 165 57q9 76 9 160z" />
    <glyph glyph-name="colon" unicode=":" horiz-adv-x="571" 
d="M463 152q0 -76 -52 -129.5t-126 -53.5q-72 0 -124 54t-52 129q0 74 51.5 127t124.5 53q72 0 125 -53.5t53 -126.5zM463 752q0 -76 -52.5 -129.5t-125.5 -53.5q-72 0 -124 54t-52 129q0 74 51.5 127t124.5 53q72 0 125 -53.5t53 -126.5z" />
    <glyph glyph-name="semicolon" unicode=";" horiz-adv-x="600" 
d="M492 82q0 -136 -74 -232q-30 -40 -83.5 -77.5t-113.5 -55.5l-112 117q61 17 96 48t35 67q0 17 -5.5 25t-23.5 19t-27 19q-65 56 -65 140q0 73 51 124.5t123 51.5q93 0 146 -66.5t53 -179.5zM481 754q0 -76 -53 -130.5t-125 -54.5t-125 54.5t-53 130.5q0 72 52 126t124 54
t126 -53.5t54 -126.5z" />
    <glyph glyph-name="less" unicode="&#x3c;" horiz-adv-x="837" 
d="M756 164l-213 -162l-469 610l469 613l213 -166l-340 -447z" />
    <glyph glyph-name="equal" unicode="=" horiz-adv-x="1120" 
d="M1049 692h-977v283h977v-283zM1049 268h-977v283h977v-283z" />
    <glyph glyph-name="greater" unicode="&#x3e;" horiz-adv-x="837" 
d="M766 612l-471 -610l-213 162l340 448l-340 447l213 166z" />
    <glyph glyph-name="question" unicode="?" horiz-adv-x="892" 
d="M791 1110q0 -203 -168 -324q-81 -57 -111.5 -123.5t-30.5 -164.5q0 -45 2 -70h-229q-10 75 -10 123q0 211 153 342q67 55 92 89t25 89q0 60 -35.5 91.5t-95.5 31.5q-92 0 -184 -92l-121 192q158 158 352 158q154 0 257.5 -91t103.5 -251zM557 150q0 -73 -51.5 -125
t-122.5 -52t-120.5 52t-49.5 125q0 71 50 123.5t120 52.5t122 -52.5t52 -123.5z" />
    <glyph glyph-name="at" unicode="@" horiz-adv-x="1783" 
d="M1708 565q0 -267 -127.5 -437.5t-323.5 -170.5q-118 0 -175 50.5t-64 127.5q-129 -147 -266 -147q-126 0 -200.5 81.5t-74.5 231.5q0 125 41.5 241.5t113.5 205t176 141.5t222 53q126 0 295 -90q-21 -72 -49 -193l-78 -356q-10 -44 -10 -84q0 -44 19 -63t57 -19
q89 0 141.5 114t52.5 314q0 266 -145.5 405.5t-403.5 139.5q-122 0 -227.5 -46.5t-184.5 -134.5t-124 -224.5t-45 -305.5q0 -149 41 -264t115 -186.5t171.5 -107.5t216.5 -36q155 0 304 48l43 -185q-177 -59 -347 -59q-174 0 -319 51.5t-251.5 149.5t-166 248.5t-59.5 340.5
q0 186 62 353t170.5 288.5t264.5 193t336 71.5q230 0 409.5 -86t284.5 -255.5t105 -398.5zM1001 416l74 338q-32 12 -63 12q-94 0 -163.5 -72.5t-101.5 -178t-32 -222.5q0 -121 80 -121q56 0 119 66t87 178z" />
    <glyph glyph-name="A" unicode="A" horiz-adv-x="1069" 
d="M1083 0h-303l-78 319h-342l-81 -319h-293l401 1423h315zM649 543l-74 354q-21 99 -40 236q-5 -24 -21 -114t-22 -122l-74 -354h231z" />
    <glyph glyph-name="B" unicode="B" horiz-adv-x="1099" 
d="M1028 428q0 -117 -42.5 -209.5t-121.5 -146.5q-104 -72 -278 -72h-453v1423h432q170 0 266 -57q69 -40 110.5 -116.5t41.5 -178.5q0 -105 -52.5 -191.5t-152.5 -121.5q113 -32 181.5 -117.5t68.5 -212.5zM713 434q0 184 -174 184h-127v-368h139q81 0 121.5 50t40.5 134z
M694 1018q0 75 -41.5 117.5t-115.5 42.5h-125v-320h131q77 0 114 42.5t37 117.5z" />
    <glyph glyph-name="C" unicode="C" horiz-adv-x="1017" 
d="M987 111q-137 -134 -377 -134q-111 0 -209 43.5t-165 122.5q-164 194 -164 547q0 119 19 226.5t63 205.5t109 169t162.5 113t217.5 42q95 0 184 -30t134 -79l-127 -215q-90 78 -199 78q-252 0 -252 -442q0 -177 19.5 -278.5t60.5 -153.5q83 -103 176 -103q67 0 120 19.5
t105 68.5z" />
    <glyph glyph-name="D" unicode="D" horiz-adv-x="1122" 
d="M1051 731q0 -372 -148 -565q-129 -166 -354 -166h-416v1423h377q210 0 326 -88q113 -84 164 -234t51 -370zM743 735q0 102 -10.5 179t-35 138.5t-68.5 93.5t-107 32h-110v-932h118q73 0 118.5 45.5t70 154.5t24.5 289z" />
    <glyph glyph-name="E" unicode="E" horiz-adv-x="899" 
d="M858 0h-725v1423h717l-31 -245h-405v-318h336v-242h-336v-366h444v-252z" />
    <glyph glyph-name="F" unicode="F" horiz-adv-x="798" 
d="M819 1423l-31 -247h-374v-318h305v-237h-305v-621h-281v1423h686z" />
    <glyph glyph-name="G" unicode="G" horiz-adv-x="1177" 
d="M1063 1270l-158 -191q-117 117 -256 117q-75 0 -128.5 -37.5t-82.5 -107.5t-42 -156t-13 -197q0 -80 6.5 -145.5t24 -128.5t45.5 -106t74.5 -69t107.5 -26q73 0 141 33v293h-172l-37 244h488v-680q-197 -138 -445 -138q-238 0 -385 170q-159 187 -159 545
q0 120 19.5 227.5t63.5 205.5t109 169t162 112.5t217 41.5q117 0 227 -46t193 -130z" />
    <glyph glyph-name="H" unicode="H" horiz-adv-x="1138" 
d="M1006 0h-279v623h-315v-623h-279v1423h279v-542h315v542h279v-1423z" />
    <glyph glyph-name="I" unicode="I" horiz-adv-x="546" 
d="M414 0h-281v1423h281v-1423z" />
    <glyph glyph-name="J" unicode="J" horiz-adv-x="548" 
d="M416 1423v-1294q0 -191 -90 -317q-79 -112 -224 -170l-133 155q62 43 94 79.5t50 88.5q24 71 24 279v1179h279z" />
    <glyph glyph-name="K" unicode="K" horiz-adv-x="1095" 
d="M1126 0h-358l-348 756l321 667h338l-364 -661zM414 0h-281v1423h281v-1423z" />
    <glyph glyph-name="L" unicode="L" horiz-adv-x="839" 
d="M850 248l-51 -248h-666v1423h279v-1175h438z" />
    <glyph glyph-name="M" unicode="M" horiz-adv-x="1517" 
d="M1425 0h-276l-37 758q-8 188 -8 286q-1 -3 -10 -54t-21.5 -116.5t-19.5 -97.5l-174 -776h-256l-152 745q-4 22 -20 100.5t-25 126t-10 64.5q0 -215 -4 -295l-35 -741h-285l109 1423h370l148 -761q21 -109 41 -275q20 159 43 272l155 764h363z" />
    <glyph glyph-name="N" unicode="N" horiz-adv-x="1171" 
d="M1038 0h-290l-259 582q-26 58 -62 159t-46 136q0 -1 4.5 -58.5t9 -135.5t4.5 -130v-553h-266v1423h277l268 -587q36 -80 106 -289q0 1 -1.5 27.5t-3.5 68t-4 87.5t-3.5 95t-1.5 82v516h268v-1423z" />
    <glyph glyph-name="O" unicode="O" horiz-adv-x="1230" 
d="M1159 748q0 -122 -14.5 -227.5t-52 -208.5t-97 -175.5t-156 -117t-221.5 -44.5q-139 0 -245.5 56.5t-171 155.5t-97 225t-32.5 274q0 364 146 563t392 199q99 0 182.5 -29t142.5 -80.5t103 -118.5t70 -147t38.5 -160.5t12.5 -164.5zM848 711q0 79 -3.5 138.5t-12 120.5
t-25.5 103t-42.5 76t-64 51t-88.5 17q-227 0 -227 -488q0 -92 5 -163t20.5 -140.5t40.5 -115t68 -73.5t102 -28q57 0 98.5 26.5t66 69.5t39 111t19 136t4.5 159z" />
    <glyph glyph-name="P" unicode="P" horiz-adv-x="1032" 
d="M1008 989q0 -234 -142 -360q-119 -107 -344 -107h-110v-522h-279v1423h361q223 0 342 -77q172 -112 172 -357zM700 983q0 101 -46.5 149t-139.5 48h-102v-416h92q105 0 150.5 50.5t45.5 168.5z" />
    <glyph glyph-name="Q" unicode="Q" horiz-adv-x="1230" 
d="M1272 -51l-78 -205q-30 -6 -82 -6q-48 0 -91 16.5t-79.5 43.5t-71.5 55.5t-81 56.5t-95 43q-50 15 -137.5 31t-97.5 18q-106 25 -183.5 91t-120.5 161t-63 202t-20 230q0 365 144.5 563.5t393.5 198.5q120 0 216 -42t157 -110t102 -161t57.5 -188.5t16.5 -198.5
q0 -401 -155 -598q-40 -49 -82 -78q30 -5 66 -25.5t65 -42.5t74 -39.5t92 -17.5q28 0 53 2zM848 717q0 75 -3.5 133t-12 118.5t-26 103t-43 77.5t-64 52.5t-89.5 17.5q-58 0 -100.5 -31.5t-66 -79t-37 -118t-17.5 -131.5t-4 -138t3.5 -138t13 -122t26.5 -105t42.5 -79
t63.5 -52.5t87 -17.5q50 0 88.5 18t62.5 54.5t40 79.5t23.5 106t10 119t2.5 133z" />
    <glyph glyph-name="R" unicode="R" horiz-adv-x="1085" 
d="M1061 0h-330q-1 3 -25.5 67t-51.5 134t-55 139.5t-38 89.5q-43 95 -71 123.5t-78 28.5v-582h-279v1423h375q487 0 487 -403q0 -166 -78.5 -267.5t-195.5 -117.5q34 -16 68 -59.5t59 -96.5q160 -347 213 -479zM690 1006q0 94 -45.5 134t-138.5 40h-94v-373h98
q97 0 138.5 50.5t41.5 148.5z" />
    <glyph glyph-name="S" unicode="S" horiz-adv-x="1085" 
d="M1014 436q0 -144 -70 -250t-186.5 -158.5t-261.5 -52.5q-251 0 -445 134l121 225q150 -117 322 -117q95 0 151.5 45t56.5 127q0 60 -36.5 94.5t-114.5 71.5l-166 78q-46 22 -79 40.5t-72 51.5t-62.5 70.5t-40 94t-16.5 124.5q0 191 127.5 312.5t326.5 121.5
q243 0 422 -129l-129 -205q-76 48 -138.5 73t-129.5 25q-78 0 -126 -37t-48 -104q0 -57 31 -94.5t90 -63.5l207 -90q57 -24 101 -54t83.5 -75.5t60.5 -110.5t21 -147z" />
    <glyph glyph-name="T" unicode="T" horiz-adv-x="899" 
d="M936 1423l-33 -245h-299v-1178h-280v1178h-297v245h909z" />
    <glyph glyph-name="U" unicode="U" horiz-adv-x="1155" 
d="M1032 1423v-995q0 -100 -9.5 -153t-35.5 -99q-49 -88 -152.5 -144.5t-259.5 -56.5q-290 0 -397 183q-33 59 -44 111.5t-11 170.5v983h280v-964q0 -45 4 -80t15.5 -68t31 -54t51 -33.5t73.5 -12.5q101 0 137.5 56.5t36.5 178.5v977h280z" />
    <glyph glyph-name="V" unicode="V" horiz-adv-x="1050" 
d="M1073 1423l-395 -1423h-316l-385 1423h308l174 -794q14 -60 63 -320q27 150 66 318l192 796h293z" />
    <glyph glyph-name="W" unicode="W" horiz-adv-x="1548" 
d="M1546 1423l-291 -1423h-340l-102 711q-35 240 -41 305q-38 -281 -41 -303l-106 -713h-346l-277 1423h303l109 -700q19 -121 45 -365q26 236 45 355l112 710h320l117 -716q13 -83 41 -353q22 189 47 367l102 702h303z" />
    <glyph glyph-name="X" unicode="X" horiz-adv-x="1028" 
d="M1051 0h-336l-195 471l-192 -471h-351l381 745l-344 678h344l160 -399l154 399h336l-330 -659z" />
    <glyph glyph-name="Y" unicode="Y" horiz-adv-x="999" 
d="M1034 1423l-397 -901v-522h-287v520l-385 903h334l145 -454q42 -141 58 -205q7 33 28.5 112.5t26.5 92.5l148 454h329z" />
    <glyph glyph-name="Z" unicode="Z" horiz-adv-x="970" 
d="M909 248l-28 -248h-820v203l451 856q27 52 80 131q-88 -10 -133 -10h-363l27 243h780v-213l-450 -866q-21 -40 -66 -104q94 8 135 8h387z" />
    <glyph glyph-name="bracketleft" unicode="[" horiz-adv-x="571" 
d="M530 -319h-397v1818h397v-188h-157v-1440h157v-190z" />
    <glyph glyph-name="backslash" unicode="\" horiz-adv-x="763" 
d="M758 -35l-217 -84l-535 1608l219 82z" />
    <glyph glyph-name="bracketright" unicode="]" horiz-adv-x="573" 
d="M440 -319h-399v190h158v1440h-158v188h399v-1818z" />
    <glyph glyph-name="asciicircum" unicode="^" horiz-adv-x="1087" 
d="M995 743h-288l-162 426l-170 -426h-283l299 707h303z" />
    <glyph glyph-name="underscore" unicode="_" horiz-adv-x="894" 
d="M895 -389h-895v235h895v-235z" />
    <glyph glyph-name="grave" unicode="`" horiz-adv-x="589" 
d="M543 1282l-86 -145l-410 196l113 199z" />
    <glyph glyph-name="a" unicode="a" horiz-adv-x="940" 
d="M879 135l-156 -176q-34 13 -69.5 48t-47.5 67q-97 -101 -237 -101q-82 0 -143 26.5t-96 74t-52 105t-17 126.5q0 157 113.5 252.5t310.5 95.5q31 0 54 -2v78q0 82 -21 105q-22 28 -72 28q-142 0 -268 -112l-102 184q201 141 405 141q124 0 206 -47t108 -137
q16 -56 16 -178l-4 -383q0 -75 15 -120.5t57 -74.5zM537 256v199q-6 2 -15 2q-104 0 -148 -36.5t-44 -107.5q0 -58 25.5 -89t74.5 -31q32 0 63.5 18.5t43.5 44.5z" />
    <glyph glyph-name="b" unicode="b" horiz-adv-x="1009" 
d="M938 549q0 -72 -11.5 -146.5t-40 -153t-70 -139t-107 -99t-146.5 -38.5q-125 0 -198 103q-3 -41 -17 -76h-233q18 98 18 229v990q0 110 -18 221l270 49q18 -88 18 -148v-260q0 -26 -4 -84q75 78 183 78q82 0 146 -33t102.5 -85t63.5 -123.5t34.5 -140.5t9.5 -144z
M647 526q0 60 -3.5 104.5t-15.5 98.5t-40.5 83.5t-71.5 29.5q-71 0 -113 -66v-514q42 -51 109 -51q32 0 56 15.5t38 45.5t23 59t12.5 71t4.5 66t1 58z" />
    <glyph glyph-name="c" unicode="c" horiz-adv-x="815" 
d="M797 119q-127 -144 -320 -144q-202 0 -307 150q-98 137 -98 387q0 310 153 457q109 106 273 106q83 0 145.5 -28.5t128.5 -90.5l-127 -174q-67 74 -139 74q-77 0 -111 -92q-28 -83 -28 -242q0 -166 31.5 -245.5t105.5 -79.5q102 0 172 92z" />
    <glyph glyph-name="d" unicode="d" horiz-adv-x="1003" 
d="M891 0h-236q-12 28 -16 76q-77 -99 -199 -99q-176 0 -272 139.5t-96 391.5q0 107 22 204t66 179.5t121.5 132t177.5 49.5q41 0 83 -16.5t68 -40.5q-10 60 -10 162v315l272 -41v-1178q0 -179 19 -274zM600 266v533q-25 51 -100 51q-43 0 -71.5 -25.5t-41.5 -76.5
t-17.5 -103t-4.5 -127q0 -39 1.5 -68.5t5 -68t12.5 -66t23 -53t36.5 -38.5t52.5 -13q35 0 63.5 14.5t40.5 40.5z" />
    <glyph glyph-name="e" unicode="e" horiz-adv-x="929" 
d="M881 451h-525v-19q0 -100 31 -156q45 -83 143 -83q116 0 232 104l110 -176q-162 -146 -358 -146q-212 0 -327 143t-115 404q0 272 112 416q107 137 297 137q175 0 277 -108q65 -71 94 -182.5t29 -278.5v-55zM608 645q0 117 -20 166q-29 70 -101 70q-67 0 -98.5 -54.5
t-32.5 -181.5h252z" />
    <glyph glyph-name="f" unicode="f" horiz-adv-x="589" 
d="M662 1460l-70 -180q-45 29 -103 29q-36 0 -58.5 -28t-22.5 -75v-157h206l-43 -205h-163v-844h-275v844h-80v205h80q-6 123 -6 131q0 203 121 286q72 50 186 50q133 0 228 -56z" />
    <glyph glyph-name="g" unicode="g" horiz-adv-x="960" 
d="M967 879q-54 -37 -101 -37q-15 0 -43 4q47 -84 47 -141q0 -90 -33.5 -156t-93 -103.5t-131.5 -55t-157 -17.5q-43 0 -66 2q-27 -34 -27 -53q0 -37 93 -37q27 0 84 -2t84 -2q132 0 218.5 -78t86.5 -209q0 -102 -36 -178.5t-101 -121.5t-147 -67t-181 -22
q-72 0 -138.5 12.5t-131.5 40.5t-104.5 83.5t-39.5 131.5q0 65 12 127h250q-6 -40 -6 -80q0 -110 170 -110q76 0 127 34t51 105q0 26 -6.5 46t-20.5 32t-28.5 19.5t-37 11t-40 4.5t-43.5 1q-27 0 -81 1.5t-81 1.5q-99 0 -158 44.5t-59 139.5q0 60 37 106t96 72
q-161 76 -161 287q0 117 56.5 198.5t147 118.5t205.5 37q64 0 135 -22q9 -3 29.5 -11.5t36.5 -13t31 -4.5q113 0 176 31zM588 723q0 149 -121 149q-64 0 -93.5 -42t-29.5 -109t29.5 -108.5t93.5 -41.5q63 0 92 42.5t29 109.5z" />
    <glyph glyph-name="h" unicode="h" horiz-adv-x="1034" 
d="M903 0h-268v694q0 80 -21 107q-18 26 -71 26q-67 0 -137 -82v-745h-273v1219q0 115 -16 233l270 37q19 -131 19 -262v-152q0 -62 -3 -96q40 41 105 66.5t141 25.5q120 0 187 -70t67 -192v-809z" />
    <glyph glyph-name="i" unicode="i" horiz-adv-x="540" 
d="M410 0h-275v1036l275 31v-1067zM438 1333q0 -68 -50 -117t-120 -49q-68 0 -118 49.5t-50 116.5q0 68 51 117t121 49q69 0 117.5 -49t48.5 -117z" />
    <glyph glyph-name="j" unicode="j" horiz-adv-x="536" 
d="M406 1067v-1036q0 -182 -37 -275q-28 -73 -83 -123t-149 -96l-114 156q63 49 86.5 116t23.5 193v1034zM432 1333q0 -68 -51 -117t-121 -49q-68 0 -118 49.5t-50 116.5q0 68 51 117t121 49q69 0 118.5 -49t49.5 -117z" />
    <glyph glyph-name="k" unicode="k" horiz-adv-x="999" 
d="M408 0h-275v1217q0 128 -18 231l272 41q21 -111 21 -262v-1227zM1016 0h-330l-274 565l198 484h312l-244 -459z" />
    <glyph glyph-name="l" unicode="l" horiz-adv-x="538" 
d="M551 6q-71 -31 -178 -31q-127 0 -187 66q-33 39 -43 99t-10 161v913q0 116 -16 234l268 39q23 -170 23 -262v-828q0 -129 11 -166.5t56 -37.5q13 0 31 6z" />
    <glyph glyph-name="m" unicode="m" horiz-adv-x="1515" 
d="M1384 0h-272v700q0 80 -19.5 108t-66.5 28q-66 0 -133 -70v-766h-270v692q0 80 -15.5 112t-72.5 32q-56 0 -129 -70v-766h-273v752q0 115 -31 270l252 51q21 -66 23 -110q49 52 107 82t145 30q80 0 142.5 -33.5t86.5 -83.5q113 117 275 117q70 0 121 -23t78 -64.5
t39.5 -90.5t12.5 -109v-788z" />
    <glyph glyph-name="n" unicode="n" horiz-adv-x="1032" 
d="M901 0h-272v702q0 87 -25 115q-16 21 -65 21q-65 0 -133 -74v-764h-273v752q0 115 -31 270l252 51q23 -72 25 -115q43 50 118 81.5t152 31.5q120 0 187 -70q65 -68 65 -196v-805z" />
    <glyph glyph-name="o" unicode="o" horiz-adv-x="956" 
d="M899 541q0 -258 -114 -413t-312 -155q-85 0 -154.5 28.5t-117.5 78.5t-81 119.5t-48 150.5t-15 174q0 114 26 212.5t77 175t133 120t186 43.5q188 0 304 -135t116 -399zM604 547q0 57 -2 96t-9.5 84t-20.5 72t-38 45t-59 18q-40 0 -66 -25.5t-38.5 -76t-16.5 -104
t-4 -132.5q0 -43 0.5 -69t3 -66.5t7.5 -65t14 -53.5t22.5 -45.5t34.5 -27.5t47 -11q41 0 67.5 29t38.5 86t15.5 111.5t3.5 134.5z" />
    <glyph glyph-name="p" unicode="p" horiz-adv-x="1013" 
d="M942 567q0 -274 -95.5 -433t-285.5 -159q-88 0 -168 54q13 -89 13 -138v-292l-273 -56v1202q0 144 -27 279l252 49q19 -59 19 -104q26 43 86 74.5t127 31.5q352 0 352 -508zM653 539q0 32 -0.5 52t-2 51.5t-4.5 52.5t-8.5 47t-15 42.5t-21.5 32t-29.5 22.5t-39.5 7
q-77 0 -126 -72v-520q29 -53 92 -53q45 0 76 24t48 70.5t24 105t7 138.5z" />
    <glyph glyph-name="q" unicode="q" horiz-adv-x="1007" 
d="M895 1049q-18 -128 -18 -258v-1209l-271 -45v395q0 37 4 107q-64 -64 -182 -64q-70 0 -127 23t-95 65t-65 93.5t-41.5 114.5t-21 122.5t-6.5 122.5q0 251 104 399q111 160 270 160q126 0 193 -108q3 46 16 82h240zM606 272v506q-39 62 -104 62q-29 0 -52 -13t-38 -31
t-25.5 -48.5t-15.5 -55t-7.5 -60.5t-3 -55t-0.5 -49q0 -41 1 -68t4.5 -70.5t12.5 -73t23.5 -58.5t38.5 -44t56 -15q72 0 110 73z" />
    <glyph glyph-name="r" unicode="r" horiz-adv-x="665" 
d="M682 1053l-70 -256q-41 24 -80 24q-50 0 -88 -32.5t-38 -77.5v-711h-273v752q0 115 -31 270l252 51q23 -78 23 -121v-10q30 60 83 98.5t120 38.5q48 0 102 -26z" />
    <glyph glyph-name="s" unicode="s" horiz-adv-x="872" 
d="M811 338q0 -166 -107.5 -265.5t-283.5 -99.5q-189 0 -369 121l90 207q62 -48 141.5 -82.5t143.5 -34.5q49 0 83 30.5t34 72.5q0 37 -25 63.5t-64.5 43.5t-87.5 33.5t-95.5 39.5t-87 54t-64.5 84t-25 124q0 157 96.5 252.5t255.5 95.5q183 0 328 -88l-84 -192
q-117 71 -211 71q-44 0 -71 -22.5t-27 -57.5q0 -39 23.5 -66.5t61.5 -45t84 -33.5t92 -38.5t84 -54t61.5 -85.5t23.5 -127z" />
    <glyph glyph-name="t" unicode="t" horiz-adv-x="643" 
d="M618 27q-106 -56 -215 -56q-79 0 -141 21q-129 47 -129 229v625h-86v201h86q0 173 14 266l267 41q-8 -86 -8 -307h182l-39 -201h-146v-496q0 -104 20.5 -139t82.5 -35q43 0 78 21z" />
    <glyph glyph-name="u" unicode="u" 
d="M946 78l-229 -107q-37 41 -53 109q-94 -109 -242 -109q-57 0 -102.5 11.5t-76.5 30.5t-53.5 50t-35 62.5t-20 76.5t-9.5 84t-2 91v653l272 43v-743q0 -75 22 -105t77 -30q37 0 64 20t65 68v747l270 41v-758q0 -144 53 -235z" />
    <glyph glyph-name="v" unicode="v" horiz-adv-x="866" 
d="M889 1049l-314 -1051h-280l-318 1028l297 39l117 -487q23 -95 51 -261q21 118 52 263l110 469h285z" />
    <glyph glyph-name="w" unicode="w" horiz-adv-x="1306" 
d="M1300 1049l-249 -1051h-273l-94 469q-26 124 -37 242q-1 -6 -16.5 -101t-24.5 -145l-98 -465h-264l-238 1030l273 37l71 -424q18 -120 41 -317q9 50 27.5 151.5t27.5 151.5l80 422h258l90 -447q6 -32 15 -92.5t17.5 -121.5t8.5 -62q0 2 4.5 43t9.5 87t12 100.5t13 86.5
l68 406h278z" />
    <glyph glyph-name="x" unicode="x" horiz-adv-x="915" 
d="M938 0h-330l-84 182q-20 41 -61 154q-39 -97 -78 -180l-80 -156h-328l320 555l-266 465l284 57l80 -157q24 -49 66 -172q22 110 55 178l59 123h318l-275 -486z" />
    <glyph glyph-name="y" unicode="y" horiz-adv-x="901" 
d="M924 1049l-332 -1059q-68 -217 -168.5 -323t-267.5 -134l-95 199q131 36 186.5 87t102.5 181h-86q-18 110 -71 293l-216 743l277 33l129 -504q39 -158 49 -350q55 249 78 330l137 504h277z" />
    <glyph glyph-name="z" unicode="z" horiz-adv-x="774" 
d="M713 215l-33 -215h-619v201l353 637h-336v211h618v-215l-346 -619h363z" />
    <glyph glyph-name="braceleft" unicode="{" horiz-adv-x="589" 
d="M549 -319h-137q-112 0 -177 74.5t-65 236.5v330q0 90 -29.5 120.5t-99.5 30.5v238q71 0 100 33.5t29 115.5v330q0 165 62 237t180 72h137v-262h-53q-86 0 -86 -117v-329q0 -191 -136 -199v-4q136 -8 136 -195v-334q0 -46 19 -80t67 -34h53v-264z" />
    <glyph glyph-name="bar" unicode="|" horiz-adv-x="522" 
d="M389 -426h-256v1974h256v-1974z" />
    <glyph glyph-name="braceright" unicode="}" horiz-adv-x="589" 
d="M549 473q-70 0 -98.5 -30.5t-28.5 -120.5v-330q0 -162 -65.5 -236.5t-178.5 -74.5h-137v264h53q48 0 68 34.5t20 79.5v334q0 187 135 195v4q-135 8 -135 199v329q0 117 -88 117h-53v262h137q119 0 181.5 -72t62.5 -237v-330q0 -82 28.5 -115.5t98.5 -33.5v-238z" />
    <glyph glyph-name="asciitilde" unicode="~" horiz-adv-x="1017" 
d="M926 545q-81 -125 -230 -125q-58 0 -114 18.5t-92 41t-82.5 41t-88.5 18.5q-48 0 -85.5 -22t-75.5 -66l-66 262q92 112 223 112q52 0 105.5 -18.5t91 -40.5t87.5 -40.5t97 -18.5q101 0 170 102z" />
    <glyph glyph-name="uni00A0" unicode="&#xa0;" horiz-adv-x="425" 
 />
    <glyph glyph-name="exclamdown" unicode="&#xa1;" horiz-adv-x="585" 
d="M457 -354l-320 -52l58 1045h200zM461 911q0 -69 -50 -119.5t-118 -50.5t-118 50.5t-50 119.5q0 70 50 121t118 51t118 -51t50 -121z" />
    <glyph glyph-name="cent" unicode="&#xa2;" horiz-adv-x="821" 
d="M797 119q-93 -107 -217 -133v-230h-189v228q-146 28 -227 149q-92 139 -92 379q0 136 33.5 249t107 194.5t178.5 107.5v223h189v-219q96 -18 192 -111l-127 -178q-69 76 -139 76q-78 0 -113 -92q-26 -77 -26 -240q0 -165 31.5 -243t105.5 -78q102 0 174 94z" />
    <glyph glyph-name="sterling" unicode="&#xa3;" horiz-adv-x="1042" 
d="M1001 1358l-145 -207q-69 63 -162 63q-94 0 -137 -56.5t-43 -147.5v-152h264v-227h-264v-389h434v-242h-876v242h139v389h-135v227h135v141q0 74 15.5 140.5t51 127t87.5 105t131 70.5t176 26q103 0 181.5 -24.5t147.5 -85.5z" />
    <glyph glyph-name="currency" unicode="&#xa4;" 
d="M1010 184l-156 -188l-111 113q-103 -68 -227 -68q-130 0 -231 70l-113 -113l-156 186l115 115q-41 100 -41 209t45 215l-112 113l155 186l113 -113q101 64 225 64q125 0 223 -64l117 113l154 -186l-113 -113q43 -94 43 -215q0 -110 -43 -211zM684 508q0 41 -9 82t-27 79
t-52.5 61.5t-79.5 23.5t-79 -23.5t-53 -61.5t-28.5 -79t-9.5 -82t9 -82t28 -79.5t53.5 -62.5t79.5 -24t79.5 24t52.5 62.5t27 79.5t9 82z" />
    <glyph glyph-name="yen" unicode="&#xa5;" horiz-adv-x="1071" 
d="M1069 1423l-254 -577h148v-236h-252l-39 -88v-49h291v-235h-291v-238h-287v238h-285v235h285v47l-39 90h-246v236h146l-246 577h334l145 -454q6 -21 19.5 -68t25.5 -91t13 -46q39 155 55 205l147 454h330z" />
    <glyph glyph-name="brokenbar" unicode="&#xa6;" horiz-adv-x="522" 
d="M389 -426h-256v870h256v-870zM389 684h-256v864h256v-864z" />
    <glyph glyph-name="section" unicode="&#xa7;" horiz-adv-x="1067" 
d="M999 551q0 -79 -37 -149.5t-98 -116.5q88 -94 88 -230q0 -78 -27 -143.5t-71.5 -109t-103.5 -74t-121 -44.5t-125 -14q-72 0 -133.5 14.5t-118.5 47t-103.5 90.5t-80.5 139l260 139q20 -85 69.5 -122t112.5 -37q52 0 89.5 23t37.5 73q0 21 -8 38t-29.5 32.5t-36 24
t-52.5 26.5t-54 26l-156 80q-96 50 -147.5 135t-51.5 183q0 184 146 292q-103 90 -103 228q0 88 35 158.5t93 113.5t128.5 65.5t147.5 22.5q63 0 120 -12t114 -38.5t104.5 -77t77.5 -120.5l-254 -159q-47 135 -156 135q-42 0 -73 -22t-31 -68q0 -62 81 -103l195 -96
q60 -30 104.5 -60.5t85 -72.5t61.5 -96.5t21 -120.5zM721 504q0 46 -27.5 73.5t-77.5 53.5l-182 98q-53 -34 -53 -100q0 -28 10 -49.5t33.5 -40t37 -27t46.5 -25.5l164 -84q21 14 35 42.5t14 58.5z" />
    <glyph glyph-name="dieresis" unicode="&#xa8;" horiz-adv-x="874" 
d="M799 1319q0 -61 -44 -104.5t-104 -43.5q-62 0 -107.5 43.5t-45.5 104.5q0 62 43 104.5t104 42.5q64 0 109 -42.5t45 -104.5zM377 1319q0 -61 -44 -104.5t-104 -43.5q-62 0 -107.5 43.5t-45.5 104.5q0 62 43 104.5t104 42.5q64 0 109 -42.5t45 -104.5z" />
    <glyph glyph-name="copyright" unicode="&#xa9;" horiz-adv-x="1603" 
d="M1532 725q0 -154 -57 -294.5t-153.5 -243t-233 -163.5t-287.5 -61t-287 61t-232.5 163.5t-153 243t-56.5 294.5t56.5 294.5t153 243t232.5 163.5t287 61t287.5 -61t233 -163.5t153.5 -243t57 -294.5zM1309 725q0 150 -66.5 278t-183.5 203.5t-258 75.5
q-140 0 -256.5 -75.5t-183 -203.5t-66.5 -278t66.5 -278t183 -203.5t256.5 -75.5q141 0 258 75.5t183.5 203.5t66.5 278zM1065 422q-62 -54 -123 -79.5t-137 -25.5q-164 0 -262 107q-99 107 -99 285q0 141 60 243q48 82 128.5 127t182.5 45q137 0 229 -80l-100 -151
q-59 51 -125 51q-83 0 -110 -67q-19 -42 -19 -134q0 -93 10 -137q12 -54 42 -78t83 -24q73 0 129 59z" />
    <glyph glyph-name="ordfeminine" unicode="&#xaa;" horiz-adv-x="780" 
d="M698 870l-110 -131q-68 31 -92 88q-70 -82 -179 -82q-118 0 -180.5 69t-62.5 183q0 120 76.5 194.5t246.5 74.5h39v43q0 54 -14.5 72t-56.5 18q-82 0 -193 -86l-84 162q149 110 303 110q108 0 172 -53q68 -59 68 -182v-303q0 -72 12.5 -106.5t54.5 -70.5zM729 449h-678
v188h678v-188zM434 1116h-26q-65 -1 -91 -28t-26 -76q0 -92 67 -92q24 0 45 13t31 36v147z" />
    <glyph glyph-name="guillemotleft" unicode="&#xab;" horiz-adv-x="1015" 
d="M977 162l-182 -137l-293 491l293 492l182 -138l-207 -354zM514 162l-182 -137l-293 491l293 492l182 -138l-207 -354z" />
    <glyph glyph-name="logicalnot" unicode="&#xac;" horiz-adv-x="993" 
d="M905 109h-250v288h-567v244h817v-532z" />
    <glyph glyph-name="uni00AD" unicode="&#xad;" horiz-adv-x="628" 
d="M541 442h-453v246h453v-246z" />
    <glyph glyph-name="registered" unicode="&#xae;" horiz-adv-x="1603" 
d="M1532 725q0 -122 -35.5 -236.5t-102 -209t-155.5 -166t-202 -111t-236 -39.5q-153 0 -289.5 62t-232.5 165.5t-151.5 243.5t-55.5 291t55.5 291t151.5 243.5t232.5 165.5t289.5 62q123 0 236 -39.5t202 -111t155.5 -166t102 -209t35.5 -236.5zM1309 725q0 107 -37.5 208
t-103 178.5t-161.5 124t-206 46.5t-205.5 -47t-160.5 -124.5t-102.5 -178t-37.5 -207.5t37.5 -207.5t102.5 -178t160.5 -124.5t205.5 -47t206 46.5t161.5 124t103 178.5t37.5 208zM1124 358h-231q-4 13 -16 60t-22 76t-27 66.5t-41 59.5t-54 29v-291h-209v764h328
q102 0 172 -59t70 -160q0 -85 -42 -148t-122 -73q28 -7 49.5 -29t31.5 -40.5t25 -53.5zM862 883q0 34 -20.5 52.5t-55.5 18.5h-53v-145h53q76 0 76 74z" />
    <glyph glyph-name="macron" unicode="&#xaf;" horiz-adv-x="665" 
d="M625 1354h-584v174h584v-174z" />
    <glyph glyph-name="degree" unicode="&#xb0;" horiz-adv-x="765" 
d="M719 1108q0 -153 -91.5 -240.5t-248.5 -87.5q-154 0 -243 82t-89 242q0 154 93.5 243t244.5 89q152 0 243 -84.5t91 -243.5zM481 1110q0 88 -22.5 128t-75.5 40q-55 0 -76.5 -38.5t-21.5 -133.5q0 -87 23.5 -126.5t74.5 -39.5q54 0 76 38t22 132z" />
    <glyph glyph-name="plusminus" unicode="&#xb1;" horiz-adv-x="923" 
d="M852 575h-268v-294h-244v294h-268v254h268v285h244v-285h268v-254zM848 -20h-772v241h772v-241z" />
    <glyph glyph-name="twosuperior" unicode="&#xb2;" horiz-adv-x="614" 
d="M567 1114l-26 -186h-478v164q69 61 140 141q147 167 147 260q0 80 -61 80q-33 0 -66.5 -19t-81.5 -61l-94 137q74 64 139.5 95.5t137.5 31.5q104 0 167.5 -68t63.5 -178q0 -138 -133 -286q-40 -44 -117 -113q18 2 39 2h223z" />
    <glyph glyph-name="threesuperior" unicode="&#xb3;" horiz-adv-x="604" 
d="M557 1186q0 -76 -33 -135.5t-88 -96.5q-101 -67 -252 -67q-14 0 -96 10l-22 166q70 -4 96 -4q86 0 133 33.5t47 99.5q0 46 -43 63q-34 15 -66 15q-27 0 -73 -4v176q31 -2 92 -2q82 0 82 82q0 61 -58 61q-38 0 -70 -16t-77 -54l-82 140q120 104 250 104q108 0 176 -61.5
t68 -163.5q0 -111 -82 -174q45 -27 71.5 -73t26.5 -99z" />
    <glyph glyph-name="acute" unicode="&#xb4;" horiz-adv-x="591" 
d="M545 1335l-408 -198l-90 145l379 250z" />
    <glyph glyph-name="mu" unicode="&#xb5;" horiz-adv-x="1036" 
d="M954 84l-215 -113q-46 43 -59 105q-59 -49 -112 -75t-115 -26q-32 0 -60 17q10 -42 10 -105v-288l-270 -56v1485l270 45v-760q0 -72 35 -94q24 -18 66 -18q32 0 66 21.5t59 56.5v749l272 43v-754q0 -161 53 -233z" />
    <glyph glyph-name="paragraph" unicode="&#xb6;" horiz-adv-x="1087" 
d="M954 -158h-190v1409h-143v-1409h-191v838q-180 0 -284.5 101.5t-104.5 271.5q0 370 457 370h456v-1581z" />
    <glyph glyph-name="periodcentered" unicode="&#xb7;" horiz-adv-x="587" 
d="M479 557q0 -77 -55.5 -133.5t-134.5 -56.5q-76 0 -128 56t-52 136q0 79 54.5 137t131.5 58q78 0 131 -57.5t53 -139.5z" />
    <glyph glyph-name="cedilla" unicode="&#xb8;" horiz-adv-x="487" 
d="M426 -207q0 -83 -51.5 -142t-157.5 -59q-39 0 -83 12.5t-73 30.5l56 119q44 -24 88 -24q29 0 46 13.5t17 39.5q0 51 -63 51q-29 0 -49 -4l-17 33l47 172l131 -17l-24 -77q65 -7 99 -47t34 -101z" />
    <glyph glyph-name="onesuperior" unicode="&#xb9;" horiz-adv-x="548" 
d="M502 928h-404v174h119v389q-41 -28 -108 -61l-62 133l227 180h134v-641h94v-174z" />
    <glyph glyph-name="ordmasculine" unicode="&#xba;" horiz-adv-x="780" 
d="M721 1161q0 -85 -19.5 -158.5t-58.5 -132.5t-104.5 -93t-151.5 -34q-149 0 -239.5 115t-90.5 305t90.5 305t239.5 115q65 0 122 -22.5t106 -69.5t77.5 -132t28.5 -198zM729 449h-678v188h678v-188zM481 1161q0 129 -22.5 176t-69.5 47q-49 0 -70.5 -51t-21.5 -164
q0 -118 23.5 -172.5t76.5 -54.5q84 0 84 219z" />
    <glyph glyph-name="guillemotright" unicode="&#xbb;" horiz-adv-x="1015" 
d="M977 516l-293 -491l-182 137l209 354l-209 354l182 138zM514 516l-291 -491l-184 137l211 354l-211 354l184 138z" />
    <glyph glyph-name="onequarter" unicode="&#xbc;" horiz-adv-x="1728" 
d="M535 518h-404v174h119v389q-38 -26 -109 -61l-61 133l227 180h133v-641h95v-174zM1481 1542l-922 -1833h-227l919 1833h230zM1702 164h-47l-15 2q5 -20 5 -21v-145l-195 -23v164q0 9 4 25l-16 -2h-297v131l188 522h217q0 -3 -76 -194t-94 -232l-22 -53h98v29q0 14 2 29.5
t5.5 35t4.5 29.5q2 16 8.5 49t8.5 51l164 33v-156q0 -34 -7 -102l13 2h51v-174z" />
    <glyph glyph-name="onehalf" unicode="&#xbd;" horiz-adv-x="1728" 
d="M535 518h-404v174h119v389q-38 -26 -109 -61l-61 133l227 180h133v-641h95v-174zM1440 1542l-922 -1833h-227l919 1833h230zM1681 186l-26 -186h-477v164q65 57 139 141q147 167 147 260q0 80 -61 80q-33 0 -66.5 -19t-81.5 -61l-94 137q74 64 139.5 95.5t137.5 31.5
q104 0 167.5 -67.5t63.5 -177.5q0 -139 -133 -287q-40 -44 -117 -113q18 2 39 2h223z" />
    <glyph glyph-name="threequarters" unicode="&#xbe;" horiz-adv-x="1726" 
d="M559 776q0 -150 -121 -231q-103 -68 -252 -68q-14 0 -96 10l-22 166q70 -4 96 -4q86 0 133 33.5t47 99.5q0 47 -43 64q-31 14 -65 14q-28 0 -74 -4v176q31 -2 92 -2q82 0 82 82q0 62 -57 62q-39 0 -71.5 -16t-76.5 -54l-82 139q122 105 250 105q108 0 176 -62t68 -164
q0 -111 -82 -174q45 -27 71.5 -73t26.5 -99zM1438 1542l-922 -1833h-227l919 1833h230zM1700 164h-47l-15 2q4 -16 4 -21v-145l-194 -23v164q0 9 4 25l-16 -2h-297v131l188 522h217q0 -3 -76 -194t-94 -232l-22 -53h98v29q0 14 2 29.5t5.5 35t4.5 29.5q2 16 8.5 49t8.5 51
l163 33v-156q0 -44 -6 -102l13 2h51v-174z" />
    <glyph glyph-name="questiondown" unicode="&#xbf;" horiz-adv-x="890" 
d="M813 -242q-155 -155 -352 -155q-154 0 -256.5 90t-102.5 250q0 202 168 323q80 57 110 124t30 165q0 47 -2 72h229q10 -75 10 -125q0 -213 -151 -342q-51 -43 -70 -62t-34 -48.5t-15 -67.5q0 -60 35 -90.5t96 -30.5q94 0 184 90zM682 903q0 -72 -51 -125t-123 -53
t-124 53t-52 125q0 75 52 127.5t124 52.5t123 -52.5t51 -127.5z" />
    <glyph glyph-name="Agrave" unicode="&#xc0;" horiz-adv-x="1069" 
d="M1083 0h-303l-78 319h-342l-81 -319h-293l401 1423h315zM649 543l-74 354q-21 99 -40 236q-5 -24 -21 -114t-22 -122l-74 -354h231zM788 1651l-86 -146l-409 197l113 199z" />
    <glyph glyph-name="Aacute" unicode="&#xc1;" horiz-adv-x="1069" 
d="M1083 0h-303l-78 319h-342l-81 -319h-293l401 1423h315zM649 543l-74 354q-21 99 -40 236q-5 -24 -21 -114t-22 -122l-74 -354h231zM795 1704l-408 -199l-90 146l379 250z" />
    <glyph glyph-name="Acircumflex" unicode="&#xc2;" horiz-adv-x="1069" 
d="M1083 0h-303l-78 319h-342l-81 -319h-293l401 1423h315zM649 543l-74 354q-21 99 -40 236q-5 -24 -21 -114t-22 -122l-74 -354h231zM883 1657l-92 -158l-246 148l-242 -148l-82 158l334 252z" />
    <glyph glyph-name="Atilde" unicode="&#xc3;" horiz-adv-x="1069" 
d="M1083 0h-303l-78 319h-342l-81 -319h-293l401 1423h315zM649 543l-74 354q-21 99 -40 236q-5 -24 -21 -114t-22 -122l-74 -354h231zM846 1636q-41 -59 -93 -86.5t-128 -27.5q-55 0 -120.5 37.5t-115.5 37.5q-70 0 -125 -65l-71 172q44 62 93.5 91.5t116.5 29.5
q57 0 124 -36t116 -36q38 0 72.5 18t56.5 44z" />
    <glyph glyph-name="Adieresis" unicode="&#xc4;" horiz-adv-x="1069" 
d="M1083 0h-303l-78 319h-342l-81 -319h-293l401 1423h315zM649 543l-74 354q-21 99 -40 236q-5 -24 -21 -114t-22 -122l-74 -354h231zM483 1688q0 -61 -43.5 -104.5t-103.5 -43.5q-62 0 -108 43.5t-46 104.5q0 62 43.5 104.5t104.5 42.5q64 0 108.5 -42.5t44.5 -104.5z
M905 1688q0 -61 -43.5 -104.5t-103.5 -43.5q-62 0 -108 43.5t-46 104.5q0 62 43.5 104.5t104.5 42.5q64 0 108.5 -42.5t44.5 -104.5z" />
    <glyph glyph-name="Aring" unicode="&#xc5;" horiz-adv-x="1069" 
d="M1083 0h-303l-78 319h-342l-81 -319h-293l401 1423h315zM649 543l-74 354q-21 99 -40 236q-5 -24 -21 -114t-22 -122l-74 -354h231zM766 1677q0 -85 -66.5 -148t-152.5 -63q-94 0 -158.5 62t-64.5 149q0 86 66.5 148.5t156.5 62.5q89 0 154 -62.5t65 -148.5zM633 1677
q0 38 -26 65t-60 27q-39 0 -63.5 -26.5t-24.5 -65.5q0 -38 25 -64t61 -26q38 0 63 26t25 64z" />
    <glyph glyph-name="AE" unicode="&#xc6;" horiz-adv-x="1486" 
d="M1446 0h-741v313h-318l-147 -313h-312l729 1423h766l-34 -262h-404v-293h338v-256h-338v-346h461v-266zM709 1032l-211 -471h207v346q0 39 4 125z" />
    <glyph glyph-name="Ccedilla" unicode="&#xc7;" horiz-adv-x="1017" 
d="M987 111q-137 -134 -377 -134h-18l-12 -36q65 -7 99 -47t34 -101q0 -83 -51.5 -142t-157.5 -59q-39 0 -83 12.5t-73 30.5l55 119q43 -24 89 -24q29 0 46 13.5t17 39.5q0 51 -63 51q-30 0 -50 -4l-16 33l37 135q-140 42 -227 145q-164 194 -164 547q0 119 19 226.5
t63 205.5t109 169t162.5 113t217.5 42q95 0 184 -30t134 -79l-127 -215q-90 78 -199 78q-252 0 -252 -442q0 -177 19.5 -278.5t60.5 -153.5q83 -103 176 -103q67 0 120 19.5t105 68.5z" />
    <glyph glyph-name="Egrave" unicode="&#xc8;" horiz-adv-x="899" 
d="M858 0h-725v1423h717l-31 -245h-405v-318h336v-242h-336v-366h444v-252zM707 1651l-86 -146l-410 197l113 199z" />
    <glyph glyph-name="Eacute" unicode="&#xc9;" horiz-adv-x="899" 
d="M858 0h-725v1423h717l-31 -245h-405v-318h336v-242h-336v-366h444v-252zM725 1704l-408 -199l-90 146l379 250z" />
    <glyph glyph-name="Ecircumflex" unicode="&#xca;" horiz-adv-x="899" 
d="M858 0h-725v1423h717l-31 -245h-405v-318h336v-242h-336v-366h444v-252zM811 1657l-92 -158l-246 148l-242 -148l-81 158l333 252z" />
    <glyph glyph-name="Edieresis" unicode="&#xcb;" horiz-adv-x="899" 
d="M858 0h-725v1423h717l-31 -245h-405v-318h336v-242h-336v-366h444v-252zM424 1688q0 -61 -44 -104.5t-104 -43.5q-62 0 -107.5 43.5t-45.5 104.5q0 62 43 104.5t104 42.5q64 0 109 -42.5t45 -104.5zM846 1688q0 -61 -44 -104.5t-104 -43.5q-62 0 -107.5 43.5t-45.5 104.5
q0 62 43 104.5t104 42.5q64 0 109 -42.5t45 -104.5z" />
    <glyph glyph-name="Igrave" unicode="&#xcc;" horiz-adv-x="546" 
d="M414 0h-281v1423h281v-1423zM500 1651l-86 -146l-410 197l113 199z" />
    <glyph glyph-name="Iacute" unicode="&#xcd;" horiz-adv-x="546" 
d="M414 0h-281v1423h281v-1423zM541 1704l-408 -199l-90 146l379 250z" />
    <glyph glyph-name="Icircumflex" unicode="&#xce;" horiz-adv-x="546" 
d="M414 0h-281v1423h281v-1423zM604 1657l-92 -158l-246 148l-241 -148l-82 158l333 252z" />
    <glyph glyph-name="Idieresis" unicode="&#xcf;" horiz-adv-x="546" 
d="M414 0h-281v1423h281v-1423zM213 1688q0 -61 -43.5 -104.5t-103.5 -43.5q-62 0 -108 43.5t-46 104.5q0 62 43 104.5t104 42.5q64 0 109 -42.5t45 -104.5zM635 1688q0 -61 -44 -104.5t-104 -43.5q-62 0 -107.5 43.5t-45.5 104.5q0 62 43 104.5t104 42.5q64 0 109 -42.5
t45 -104.5z" />
    <glyph glyph-name="Eth" unicode="&#xd0;" horiz-adv-x="1122" 
d="M1051 731q0 -372 -148 -565q-129 -166 -354 -166h-416v606h-108v246h108v571h377q210 0 326 -88q113 -84 164 -234t51 -370zM743 735q0 102 -10.5 179t-35 138.5t-68.5 93.5t-107 32h-110v-326h190l-16 -246h-174v-360h118q73 0 118.5 45.5t70 154.5t24.5 289z" />
    <glyph glyph-name="Ntilde" unicode="&#xd1;" horiz-adv-x="1171" 
d="M1038 0h-290l-259 582q-26 58 -62 159t-46 136q0 -1 4.5 -58.5t9 -135.5t4.5 -130v-553h-266v1423h277l268 -587q36 -80 106 -289q0 1 -1.5 27.5t-3.5 68t-4 87.5t-3.5 95t-1.5 82v516h268v-1423zM891 1636q-41 -59 -93 -86.5t-128 -27.5q-55 0 -120.5 37.5t-115.5 37.5
q-70 0 -125 -65l-71 172q44 62 94 91.5t117 29.5q57 0 123.5 -36t115.5 -36q38 0 72.5 18t56.5 44z" />
    <glyph glyph-name="Ograve" unicode="&#xd2;" horiz-adv-x="1230" 
d="M1159 748q0 -122 -14.5 -227.5t-52 -208.5t-97 -175.5t-156 -117t-221.5 -44.5q-139 0 -245.5 56.5t-171 155.5t-97 225t-32.5 274q0 364 146 563t392 199q99 0 182.5 -29t142.5 -80.5t103 -118.5t70 -147t38.5 -160.5t12.5 -164.5zM848 711q0 79 -3.5 138.5t-12 120.5
t-25.5 103t-42.5 76t-64 51t-88.5 17q-227 0 -227 -488q0 -92 5 -163t20.5 -140.5t40.5 -115t68 -73.5t102 -28q57 0 98.5 26.5t66 69.5t39 111t19 136t4.5 159zM809 1651l-86 -146l-410 197l113 199z" />
    <glyph glyph-name="Oacute" unicode="&#xd3;" horiz-adv-x="1230" 
d="M1159 748q0 -122 -14.5 -227.5t-52 -208.5t-97 -175.5t-156 -117t-221.5 -44.5q-139 0 -245.5 56.5t-171 155.5t-97 225t-32.5 274q0 364 146 563t392 199q99 0 182.5 -29t142.5 -80.5t103 -118.5t70 -147t38.5 -160.5t12.5 -164.5zM848 711q0 79 -3.5 138.5t-12 120.5
t-25.5 103t-42.5 76t-64 51t-88.5 17q-227 0 -227 -488q0 -92 5 -163t20.5 -140.5t40.5 -115t68 -73.5t102 -28q57 0 98.5 26.5t66 69.5t39 111t19 136t4.5 159zM877 1704l-408 -199l-90 146l379 250z" />
    <glyph glyph-name="Ocircumflex" unicode="&#xd4;" horiz-adv-x="1230" 
d="M1159 748q0 -122 -14.5 -227.5t-52 -208.5t-97 -175.5t-156 -117t-221.5 -44.5q-139 0 -245.5 56.5t-171 155.5t-97 225t-32.5 274q0 364 146 563t392 199q99 0 182.5 -29t142.5 -80.5t103 -118.5t70 -147t38.5 -160.5t12.5 -164.5zM848 711q0 79 -3.5 138.5t-12 120.5
t-25.5 103t-42.5 76t-64 51t-88.5 17q-227 0 -227 -488q0 -92 5 -163t20.5 -140.5t40.5 -115t68 -73.5t102 -28q57 0 98.5 26.5t66 69.5t39 111t19 136t4.5 159zM948 1657l-92 -158l-246 148l-241 -148l-82 158l334 252z" />
    <glyph glyph-name="Otilde" unicode="&#xd5;" horiz-adv-x="1230" 
d="M1159 748q0 -122 -14.5 -227.5t-52 -208.5t-97 -175.5t-156 -117t-221.5 -44.5q-139 0 -245.5 56.5t-171 155.5t-97 225t-32.5 274q0 364 146 563t392 199q99 0 182.5 -29t142.5 -80.5t103 -118.5t70 -147t38.5 -160.5t12.5 -164.5zM848 711q0 79 -3.5 138.5t-12 120.5
t-25.5 103t-42.5 76t-64 51t-88.5 17q-227 0 -227 -488q0 -92 5 -163t20.5 -140.5t40.5 -115t68 -73.5t102 -28q57 0 98.5 26.5t66 69.5t39 111t19 136t4.5 159zM930 1636q-41 -59 -93 -86.5t-128 -27.5q-55 0 -120.5 37.5t-115.5 37.5q-70 0 -125 -65l-72 172
q44 62 94 91.5t117 29.5q57 0 124 -36t116 -36q38 0 72.5 18t56.5 44z" />
    <glyph glyph-name="Odieresis" unicode="&#xd6;" horiz-adv-x="1230" 
d="M1159 748q0 -122 -14.5 -227.5t-52 -208.5t-97 -175.5t-156 -117t-221.5 -44.5q-139 0 -245.5 56.5t-171 155.5t-97 225t-32.5 274q0 364 146 563t392 199q99 0 182.5 -29t142.5 -80.5t103 -118.5t70 -147t38.5 -160.5t12.5 -164.5zM848 711q0 79 -3.5 138.5t-12 120.5
t-25.5 103t-42.5 76t-64 51t-88.5 17q-227 0 -227 -488q0 -92 5 -163t20.5 -140.5t40.5 -115t68 -73.5t102 -28q57 0 98.5 26.5t66 69.5t39 111t19 136t4.5 159zM547 1688q0 -61 -44 -104.5t-104 -43.5q-62 0 -107.5 43.5t-45.5 104.5q0 62 43 104.5t104 42.5
q64 0 109 -42.5t45 -104.5zM969 1688q0 -61 -44 -104.5t-104 -43.5q-62 0 -107.5 43.5t-45.5 104.5q0 62 43 104.5t104 42.5q64 0 109 -42.5t45 -104.5z" />
    <glyph glyph-name="multiply" unicode="&#xd7;" horiz-adv-x="1159" 
d="M1069 371l-203 -203l-291 293l-288 -289l-189 188l289 287l-297 299l203 201l295 -297l289 289l188 -189l-287 -288z" />
    <glyph glyph-name="Oslash" unicode="&#xd8;" horiz-adv-x="1230" 
d="M1159 748q0 -123 -14.5 -229.5t-53 -209t-98 -174.5t-155.5 -116t-220 -44q-144 0 -256 62l-122 -232l-138 101l127 241q-157 189 -157 539q0 364 151.5 563t401.5 199q149 0 260 -68l108 201l142 -92l-119 -221q143 -188 143 -520zM758 1143q-50 53 -140 53
q-133 0 -192 -156q-41 -113 -41 -315q0 -138 21 -248zM848 709q0 121 -17 215l-344 -650q55 -49 138 -49q62 0 103.5 27t68.5 88q51 114 51 369z" />
    <glyph glyph-name="Ugrave" unicode="&#xd9;" horiz-adv-x="1155" 
d="M1032 1423v-995q0 -100 -9.5 -153t-35.5 -99q-49 -88 -152.5 -144.5t-259.5 -56.5q-290 0 -397 183q-33 59 -44 111.5t-11 170.5v983h280v-964q0 -45 4 -80t15.5 -68t31 -54t51 -33.5t73.5 -12.5q101 0 137.5 56.5t36.5 178.5v977h280zM829 1651l-86 -146l-409 197
l112 199z" />
    <glyph glyph-name="Uacute" unicode="&#xda;" horiz-adv-x="1155" 
d="M1032 1423v-995q0 -100 -9.5 -153t-35.5 -99q-49 -88 -152.5 -144.5t-259.5 -56.5q-290 0 -397 183q-33 59 -44 111.5t-11 170.5v983h280v-964q0 -45 4 -80t15.5 -68t31 -54t51 -33.5t73.5 -12.5q101 0 137.5 56.5t36.5 178.5v977h280zM815 1704l-407 -199l-91 146
l379 250z" />
    <glyph glyph-name="Ucircumflex" unicode="&#xdb;" horiz-adv-x="1155" 
d="M1032 1423v-995q0 -100 -9.5 -153t-35.5 -99q-49 -88 -152.5 -144.5t-259.5 -56.5q-290 0 -397 183q-33 59 -44 111.5t-11 170.5v983h280v-964q0 -45 4 -80t15.5 -68t31 -54t51 -33.5t73.5 -12.5q101 0 137.5 56.5t36.5 178.5v977h280zM915 1657l-92 -158l-245 148
l-242 -148l-82 158l334 252z" />
    <glyph glyph-name="Udieresis" unicode="&#xdc;" horiz-adv-x="1155" 
d="M1032 1423v-995q0 -100 -9.5 -153t-35.5 -99q-49 -88 -152.5 -144.5t-259.5 -56.5q-290 0 -397 183q-33 59 -44 111.5t-11 170.5v983h280v-964q0 -45 4 -80t15.5 -68t31 -54t51 -33.5t73.5 -12.5q101 0 137.5 56.5t36.5 178.5v977h280zM520 1688q0 -61 -43.5 -104.5
t-103.5 -43.5q-62 0 -108 43.5t-46 104.5q0 62 43.5 104.5t104.5 42.5q64 0 108.5 -42.5t44.5 -104.5zM942 1688q0 -61 -43.5 -104.5t-103.5 -43.5q-62 0 -108 43.5t-46 104.5q0 62 43 104.5t104 42.5q64 0 109 -42.5t45 -104.5z" />
    <glyph glyph-name="Yacute" unicode="&#xdd;" horiz-adv-x="999" 
d="M1034 1423l-397 -901v-522h-287v520l-385 903h334l145 -454q42 -141 58 -205q7 33 28.5 112.5t26.5 92.5l148 454h329zM733 1704l-407 -199l-90 146l378 250z" />
    <glyph glyph-name="Thorn" unicode="&#xde;" horiz-adv-x="1032" 
d="M1008 752q0 -235 -140 -359q-118 -106 -346 -106h-110v-287h-279v1423h279v-235h82q221 0 342 -78q172 -112 172 -358zM700 748q0 102 -46 148t-140 46h-102v-414h92q105 0 150.5 51t45.5 169z" />
    <glyph glyph-name="germandbls" unicode="&#xdf;" horiz-adv-x="1101" 
d="M1040 401q0 -192 -115.5 -309t-301.5 -117q-94 0 -154 29l41 225q36 -20 86 -20q73 0 113.5 50t40.5 134q0 31 -7.5 56.5t-16 42t-28.5 35.5t-31.5 27.5t-39.5 26t-39 25.5q-55 39 -82 80t-27 109q0 60 21 97t59 71q3 3 17 15t18 16t15 15.5t14.5 19.5t9.5 21t8 27t2 31
q0 67 -31.5 103t-85.5 36q-66 0 -92 -48.5t-26 -164.5v-801q0 -124 -25 -233h-272q24 129 24 274v533h-125v240h125v49q0 176 105.5 275t289.5 99q185 0 297.5 -97t112.5 -253q0 -83 -39.5 -153.5t-112.5 -114.5q-16 -10 -35.5 -19t-25.5 -14.5t-6 -15.5q0 -11 8.5 -17.5
t37 -20t46.5 -24.5q40 -22 61 -35.5t58 -45t56.5 -63.5t35.5 -83.5t16 -112.5z" />
    <glyph glyph-name="agrave" unicode="&#xe0;" horiz-adv-x="940" 
d="M879 135l-156 -176q-34 13 -69.5 48t-47.5 67q-97 -101 -237 -101q-82 0 -143 26.5t-96 74t-52 105t-17 126.5q0 157 113.5 252.5t310.5 95.5q31 0 54 -2v78q0 82 -21 105q-22 28 -72 28q-142 0 -268 -112l-102 184q201 141 405 141q124 0 206 -47t108 -137
q16 -56 16 -178l-4 -383q0 -75 15 -120.5t57 -74.5zM537 256v199q-6 2 -15 2q-104 0 -148 -36.5t-44 -107.5q0 -58 25.5 -89t74.5 -31q32 0 63.5 18.5t43.5 44.5zM686 1282l-86 -145l-410 196l113 199z" />
    <glyph glyph-name="aacute" unicode="&#xe1;" horiz-adv-x="940" 
d="M879 135l-156 -176q-34 13 -69.5 48t-47.5 67q-97 -101 -237 -101q-82 0 -143 26.5t-96 74t-52 105t-17 126.5q0 157 113.5 252.5t310.5 95.5q31 0 54 -2v78q0 82 -21 105q-22 28 -72 28q-142 0 -268 -112l-102 184q201 141 405 141q124 0 206 -47t108 -137
q16 -56 16 -178l-4 -383q0 -75 15 -120.5t57 -74.5zM537 256v199q-6 2 -15 2q-104 0 -148 -36.5t-44 -107.5q0 -58 25.5 -89t74.5 -31q32 0 63.5 18.5t43.5 44.5zM729 1335l-407 -198l-91 145l379 250z" />
    <glyph glyph-name="acircumflex" unicode="&#xe2;" horiz-adv-x="940" 
d="M879 135l-156 -176q-34 13 -69.5 48t-47.5 67q-97 -101 -237 -101q-82 0 -143 26.5t-96 74t-52 105t-17 126.5q0 157 113.5 252.5t310.5 95.5q31 0 54 -2v78q0 82 -21 105q-22 28 -72 28q-142 0 -268 -112l-102 184q201 141 405 141q124 0 206 -47t108 -137
q16 -56 16 -178l-4 -383q0 -75 15 -120.5t57 -74.5zM537 256v199q-6 2 -15 2q-104 0 -148 -36.5t-44 -107.5q0 -58 25.5 -89t74.5 -31q32 0 63.5 18.5t43.5 44.5zM784 1288l-92 -158l-246 148l-241 -148l-82 158l334 252z" />
    <glyph glyph-name="atilde" unicode="&#xe3;" horiz-adv-x="940" 
d="M879 135l-156 -176q-34 13 -69.5 48t-47.5 67q-97 -101 -237 -101q-82 0 -143 26.5t-96 74t-52 105t-17 126.5q0 157 113.5 252.5t310.5 95.5q31 0 54 -2v78q0 82 -21 105q-22 28 -72 28q-142 0 -268 -112l-102 184q201 141 405 141q124 0 206 -47t108 -137
q16 -56 16 -178l-4 -383q0 -75 15 -120.5t57 -74.5zM537 256v199q-6 2 -15 2q-104 0 -148 -36.5t-44 -107.5q0 -58 25.5 -89t74.5 -31q32 0 63.5 18.5t43.5 44.5zM772 1309q-41 -59 -93 -87t-128 -28q-55 0 -120.5 38t-115.5 38q-69 0 -125 -66l-71 172q44 62 94 91.5
t117 29.5q57 0 123.5 -36t115.5 -36q38 0 72.5 18t56.5 44z" />
    <glyph glyph-name="adieresis" unicode="&#xe4;" horiz-adv-x="940" 
d="M879 135l-156 -176q-34 13 -69.5 48t-47.5 67q-97 -101 -237 -101q-82 0 -143 26.5t-96 74t-52 105t-17 126.5q0 157 113.5 252.5t310.5 95.5q31 0 54 -2v78q0 82 -21 105q-22 28 -72 28q-142 0 -268 -112l-102 184q201 141 405 141q124 0 206 -47t108 -137
q16 -56 16 -178l-4 -383q0 -75 15 -120.5t57 -74.5zM537 256v199q-6 2 -15 2q-104 0 -148 -36.5t-44 -107.5q0 -58 25.5 -89t74.5 -31q32 0 63.5 18.5t43.5 44.5zM377 1319q0 -61 -44 -104.5t-104 -43.5q-62 0 -107.5 43.5t-45.5 104.5q0 62 43 104.5t104 42.5
q64 0 109 -42.5t45 -104.5zM799 1319q0 -61 -44 -104.5t-104 -43.5q-62 0 -107.5 43.5t-45.5 104.5q0 62 43 104.5t104 42.5q64 0 109 -42.5t45 -104.5z" />
    <glyph glyph-name="aring" unicode="&#xe5;" horiz-adv-x="940" 
d="M879 135l-156 -176q-34 13 -69.5 48t-47.5 67q-97 -101 -237 -101q-82 0 -143 26.5t-96 74t-52 105t-17 126.5q0 157 113.5 252.5t310.5 95.5q31 0 54 -2v78q0 82 -21 105q-22 28 -72 28q-142 0 -268 -112l-102 184q201 141 405 141q124 0 206 -47t108 -137
q16 -56 16 -178l-4 -383q0 -75 15 -120.5t57 -74.5zM537 256v199q-6 2 -15 2q-104 0 -148 -36.5t-44 -107.5q0 -58 25.5 -89t74.5 -31q32 0 63.5 18.5t43.5 44.5zM647 1350q0 -85 -66.5 -148t-152.5 -63q-94 0 -158.5 62t-64.5 149q0 86 66.5 148.5t156.5 62.5
q89 0 154 -62.5t65 -148.5zM514 1350q0 38 -26 65t-60 27q-39 0 -63.5 -26.5t-24.5 -65.5q0 -38 25 -64t61 -26q38 0 63 26t25 64z" />
    <glyph glyph-name="ae" unicode="&#xe6;" horiz-adv-x="1378" 
d="M1329 432h-524q0 -124 48.5 -179.5t125.5 -55.5q122 0 238 104l104 -182q-159 -144 -356 -144q-96 0 -180 33t-140 101q-41 -65 -116.5 -100.5t-157.5 -35.5q-151 0 -230.5 89t-79.5 243q0 89 36 157.5t98 109t137 61t160 20.5q8 0 24.5 -1t24.5 -1v68q0 60 -19 94.5
t-76 34.5q-134 0 -266 -115l-102 195q210 147 405 147q150 0 228 -82q82 82 219 82q399 0 399 -569v-74zM539 254v203q-6 2 -17 2q-90 0 -140 -32t-50 -116q0 -54 24 -88.5t76 -34.5q31 0 62.5 19t44.5 47zM1059 637q0 42 -3 72.5t-14 68.5t-38 59t-68 21q-126 0 -131 -221
h254z" />
    <glyph glyph-name="ccedilla" unicode="&#xe7;" horiz-adv-x="815" 
d="M797 119q-124 -141 -310 -144l-10 -34q65 -7 99 -47t34 -101q0 -83 -51.5 -142t-157.5 -59q-39 0 -82.5 12.5t-72.5 30.5l55 119q43 -24 88 -24q29 0 46.5 14t17.5 39q0 51 -64 51q-29 0 -49 -4l-16 33l34 127q-119 35 -188 135q-98 137 -98 387q0 310 153 457
q109 106 273 106q83 0 145.5 -28.5t128.5 -90.5l-127 -174q-67 74 -139 74q-77 0 -111 -92q-28 -83 -28 -242q0 -166 31.5 -245.5t105.5 -79.5q102 0 172 92z" />
    <glyph glyph-name="egrave" unicode="&#xe8;" horiz-adv-x="929" 
d="M881 451h-525v-19q0 -100 31 -156q45 -83 143 -83q116 0 232 104l110 -176q-162 -146 -358 -146q-212 0 -327 143t-115 404q0 272 112 416q107 137 297 137q175 0 277 -108q65 -71 94 -182.5t29 -278.5v-55zM608 645q0 117 -20 166q-29 70 -101 70q-67 0 -98.5 -54.5
t-32.5 -181.5h252zM686 1282l-86 -145l-410 196l113 199z" />
    <glyph glyph-name="eacute" unicode="&#xe9;" horiz-adv-x="929" 
d="M881 451h-525v-19q0 -100 31 -156q45 -83 143 -83q116 0 232 104l110 -176q-162 -146 -358 -146q-212 0 -327 143t-115 404q0 272 112 416q107 137 297 137q175 0 277 -108q65 -71 94 -182.5t29 -278.5v-55zM608 645q0 117 -20 166q-29 70 -101 70q-67 0 -98.5 -54.5
t-32.5 -181.5h252zM729 1335l-407 -198l-91 145l379 250z" />
    <glyph glyph-name="ecircumflex" unicode="&#xea;" horiz-adv-x="929" 
d="M881 451h-525v-19q0 -100 31 -156q45 -83 143 -83q116 0 232 104l110 -176q-162 -146 -358 -146q-212 0 -327 143t-115 404q0 272 112 416q107 137 297 137q175 0 277 -108q65 -71 94 -182.5t29 -278.5v-55zM608 645q0 117 -20 166q-29 70 -101 70q-67 0 -98.5 -54.5
t-32.5 -181.5h252zM819 1288l-92 -158l-246 148l-241 -148l-82 158l334 252z" />
    <glyph glyph-name="edieresis" unicode="&#xeb;" horiz-adv-x="929" 
d="M881 451h-525v-19q0 -100 31 -156q45 -83 143 -83q116 0 232 104l110 -176q-162 -146 -358 -146q-212 0 -327 143t-115 404q0 272 112 416q107 137 297 137q175 0 277 -108q65 -71 94 -182.5t29 -278.5v-55zM608 645q0 117 -20 166q-29 70 -101 70q-67 0 -98.5 -54.5
t-32.5 -181.5h252zM420 1319q0 -61 -44 -104.5t-104 -43.5q-62 0 -107.5 43.5t-45.5 104.5q0 62 43 104.5t104 42.5q64 0 109 -42.5t45 -104.5zM842 1319q0 -61 -44 -104.5t-104 -43.5q-62 0 -107.5 43.5t-45.5 104.5q0 62 43 104.5t104 42.5q64 0 109 -42.5t45 -104.5z" />
    <glyph glyph-name="igrave" unicode="&#xec;" horiz-adv-x="540" 
d="M408 0h-275v1036l275 31v-1067zM494 1282l-86 -145l-410 196l113 199z" />
    <glyph glyph-name="iacute" unicode="&#xed;" horiz-adv-x="540" 
d="M408 0h-275v1036l275 31v-1067zM541 1335l-408 -198l-90 145l379 250z" />
    <glyph glyph-name="icircumflex" unicode="&#xee;" horiz-adv-x="540" 
d="M408 0h-275v1036l275 31v-1067zM602 1288l-92 -158l-246 148l-241 -148l-82 158l333 252z" />
    <glyph glyph-name="idieresis" unicode="&#xef;" horiz-adv-x="540" 
d="M408 0h-275v1036l275 31v-1067zM209 1319q0 -61 -44 -104.5t-104 -43.5q-62 0 -107.5 43.5t-45.5 104.5q0 62 43 104.5t104 42.5q64 0 109 -42.5t45 -104.5zM631 1319q0 -61 -44 -104.5t-104 -43.5q-62 0 -107.5 43.5t-45.5 104.5q0 62 43 104.5t104 42.5q64 0 109 -42.5
t45 -104.5z" />
    <glyph glyph-name="eth" unicode="&#xf0;" horiz-adv-x="952" 
d="M881 496q0 -251 -113 -385t-295 -134q-178 0 -288.5 123.5t-110.5 341.5q0 172 85.5 286.5t235.5 127.5q14 2 43 2q34 0 80 -4q-34 79 -108 143l-76 -88l-160 82l92 103q-133 69 -282 90l151 188q140 -16 299 -94l82 92l148 -80l-86 -100q63 -48 102 -98
q201 -263 201 -596zM616 477q0 69 -8 131q-56 29 -125 29q-71 0 -106 -53.5t-35 -149.5t36.5 -153.5t104.5 -57.5t100.5 69.5t32.5 184.5z" />
    <glyph glyph-name="ntilde" unicode="&#xf1;" horiz-adv-x="1032" 
d="M901 0h-272v702q0 87 -25 115q-16 21 -65 21q-65 0 -133 -74v-764h-273v752q0 115 -31 270l252 51q23 -72 25 -115q43 50 118 81.5t152 31.5q120 0 187 -70q65 -68 65 -196v-805zM829 1309q-41 -59 -93 -87t-128 -28q-55 0 -120 38t-115 38q-69 0 -125 -66l-72 172
q44 62 94 91.5t117 29.5q57 0 124 -36t116 -36q38 0 72.5 18t56.5 44z" />
    <glyph glyph-name="ograve" unicode="&#xf2;" horiz-adv-x="956" 
d="M899 541q0 -258 -114 -413t-312 -155q-85 0 -154.5 28.5t-117.5 78.5t-81 119.5t-48 150.5t-15 174q0 114 26 212.5t77 175t133 120t186 43.5q188 0 304 -135t116 -399zM604 547q0 57 -2 96t-9.5 84t-20.5 72t-38 45t-59 18q-40 0 -66 -25.5t-38.5 -76t-16.5 -104
t-4 -132.5q0 -43 0.5 -69t3 -66.5t7.5 -65t14 -53.5t22.5 -45.5t34.5 -27.5t47 -11q41 0 67.5 29t38.5 86t15.5 111.5t3.5 134.5zM707 1282l-86 -145l-410 196l113 199z" />
    <glyph glyph-name="oacute" unicode="&#xf3;" horiz-adv-x="956" 
d="M899 541q0 -258 -114 -413t-312 -155q-85 0 -154.5 28.5t-117.5 78.5t-81 119.5t-48 150.5t-15 174q0 114 26 212.5t77 175t133 120t186 43.5q188 0 304 -135t116 -399zM604 547q0 57 -2 96t-9.5 84t-20.5 72t-38 45t-59 18q-40 0 -66 -25.5t-38.5 -76t-16.5 -104
t-4 -132.5q0 -43 0.5 -69t3 -66.5t7.5 -65t14 -53.5t22.5 -45.5t34.5 -27.5t47 -11q41 0 67.5 29t38.5 86t15.5 111.5t3.5 134.5zM729 1335l-407 -198l-91 145l379 250z" />
    <glyph glyph-name="ocircumflex" unicode="&#xf4;" horiz-adv-x="956" 
d="M899 541q0 -258 -114 -413t-312 -155q-85 0 -154.5 28.5t-117.5 78.5t-81 119.5t-48 150.5t-15 174q0 114 26 212.5t77 175t133 120t186 43.5q188 0 304 -135t116 -399zM604 547q0 57 -2 96t-9.5 84t-20.5 72t-38 45t-59 18q-40 0 -66 -25.5t-38.5 -76t-16.5 -104
t-4 -132.5q0 -43 0.5 -69t3 -66.5t7.5 -65t14 -53.5t22.5 -45.5t34.5 -27.5t47 -11q41 0 67.5 29t38.5 86t15.5 111.5t3.5 134.5zM817 1288l-92 -158l-246 148l-241 -148l-82 158l333 252z" />
    <glyph glyph-name="otilde" unicode="&#xf5;" horiz-adv-x="956" 
d="M899 541q0 -258 -114 -413t-312 -155q-85 0 -154.5 28.5t-117.5 78.5t-81 119.5t-48 150.5t-15 174q0 114 26 212.5t77 175t133 120t186 43.5q188 0 304 -135t116 -399zM604 547q0 57 -2 96t-9.5 84t-20.5 72t-38 45t-59 18q-40 0 -66 -25.5t-38.5 -76t-16.5 -104
t-4 -132.5q0 -43 0.5 -69t3 -66.5t7.5 -65t14 -53.5t22.5 -45.5t34.5 -27.5t47 -11q41 0 67.5 29t38.5 86t15.5 111.5t3.5 134.5zM811 1309q-41 -59 -93 -87t-128 -28q-55 0 -120.5 38t-115.5 38q-69 0 -125 -66l-71 172q44 62 94 91.5t117 29.5q57 0 123.5 -36t115.5 -36
q38 0 72.5 18t56.5 44z" />
    <glyph glyph-name="odieresis" unicode="&#xf6;" horiz-adv-x="956" 
d="M899 541q0 -258 -114 -413t-312 -155q-85 0 -154.5 28.5t-117.5 78.5t-81 119.5t-48 150.5t-15 174q0 114 26 212.5t77 175t133 120t186 43.5q188 0 304 -135t116 -399zM604 547q0 57 -2 96t-9.5 84t-20.5 72t-38 45t-59 18q-40 0 -66 -25.5t-38.5 -76t-16.5 -104
t-4 -132.5q0 -43 0.5 -69t3 -66.5t7.5 -65t14 -53.5t22.5 -45.5t34.5 -27.5t47 -11q41 0 67.5 29t38.5 86t15.5 111.5t3.5 134.5zM418 1319q0 -61 -44 -104.5t-104 -43.5q-62 0 -107.5 43.5t-45.5 104.5q0 62 43 104.5t104 42.5q64 0 109 -42.5t45 -104.5zM840 1319
q0 -61 -44 -104.5t-104 -43.5q-62 0 -107.5 43.5t-45.5 104.5q0 62 43 104.5t104 42.5q64 0 109 -42.5t45 -104.5z" />
    <glyph glyph-name="divide" unicode="&#xf7;" horiz-adv-x="1153" 
d="M1081 451h-1009v227h1009v-227zM760 967q0 -78 -56 -134.5t-133 -56.5t-132.5 56.5t-55.5 134.5q0 77 54.5 131.5t131.5 54.5t134 -55t57 -131zM760 174q0 -78 -56 -133t-133 -55t-132.5 55t-55.5 133q0 76 54.5 131t131.5 55t134 -55t57 -131z" />
    <glyph glyph-name="oslash" unicode="&#xf8;" horiz-adv-x="956" 
d="M899 541q0 -258 -114 -413t-312 -155q-98 0 -178 39l-70 -131l-112 72l75 141q-131 146 -131 430q0 114 26 212.5t77 175t133 120t186 43.5q115 0 203 -49l78 148l110 -74l-86 -162q115 -141 115 -397zM567 809q-29 53 -92 53q-40 0 -66 -25.5t-38.5 -76t-16.5 -104
t-4 -132.5t2 -118zM604 547v49l-201 -377q30 -33 76 -33q41 0 67.5 29t38.5 86t15.5 111.5t3.5 134.5z" />
    <glyph glyph-name="ugrave" unicode="&#xf9;" 
d="M946 78l-229 -107q-37 41 -53 109q-94 -109 -242 -109q-57 0 -102.5 11.5t-76.5 30.5t-53.5 50t-35 62.5t-20 76.5t-9.5 84t-2 91v653l272 43v-743q0 -75 22 -105t77 -30q37 0 64 20t65 68v747l270 41v-758q0 -144 53 -235zM727 1282l-86 -145l-410 196l113 199z" />
    <glyph glyph-name="uacute" unicode="&#xfa;" 
d="M946 78l-229 -107q-37 41 -53 109q-94 -109 -242 -109q-57 0 -102.5 11.5t-76.5 30.5t-53.5 50t-35 62.5t-20 76.5t-9.5 84t-2 91v653l272 43v-743q0 -75 22 -105t77 -30q37 0 64 20t65 68v747l270 41v-758q0 -144 53 -235zM791 1335l-408 -198l-90 145l379 250z" />
    <glyph glyph-name="ucircumflex" unicode="&#xfb;" 
d="M946 78l-229 -107q-37 41 -53 109q-94 -109 -242 -109q-57 0 -102.5 11.5t-76.5 30.5t-53.5 50t-35 62.5t-20 76.5t-9.5 84t-2 91v653l272 43v-743q0 -75 22 -105t77 -30q37 0 64 20t65 68v747l270 41v-758q0 -144 53 -235zM842 1288l-92 -158l-246 148l-242 -148
l-82 158l334 252z" />
    <glyph glyph-name="udieresis" unicode="&#xfc;" 
d="M946 78l-229 -107q-37 41 -53 109q-94 -109 -242 -109q-57 0 -102.5 11.5t-76.5 30.5t-53.5 50t-35 62.5t-20 76.5t-9.5 84t-2 91v653l272 43v-743q0 -75 22 -105t77 -30q37 0 64 20t65 68v747l270 41v-758q0 -144 53 -235zM449 1319q0 -61 -44 -104.5t-104 -43.5
q-62 0 -108 43.5t-46 104.5q0 62 43.5 104.5t104.5 42.5q64 0 109 -42.5t45 -104.5zM870 1319q0 -61 -43.5 -104.5t-103.5 -43.5q-62 0 -108 43.5t-46 104.5q0 62 43.5 104.5t104.5 42.5q64 0 108.5 -42.5t44.5 -104.5z" />
    <glyph glyph-name="yacute" unicode="&#xfd;" horiz-adv-x="901" 
d="M924 1049l-332 -1059q-68 -217 -168.5 -323t-267.5 -134l-95 199q131 36 186.5 87t102.5 181h-86q-18 110 -71 293l-216 743l277 33l129 -504q39 -158 49 -350q55 249 78 330l137 504h277zM709 1335l-408 -198l-90 145l379 250z" />
    <glyph glyph-name="thorn" unicode="&#xfe;" horiz-adv-x="1009" 
d="M938 549q0 -72 -11.5 -146.5t-40 -153t-70 -139t-107 -99t-146.5 -38.5q-37 0 -88 16t-72 42v-430l-270 -58v1676q0 88 -18 221l270 49q18 -106 18 -225v-195q0 -10 -4 -72q74 78 183 78q167 0 261.5 -136.5t94.5 -389.5zM647 535q0 148 -26 219q-34 88 -105 88
q-70 0 -113 -66v-514q40 -51 109 -51q32 0 56 16t38 46t23 60t12.5 73t4.5 68t1 61z" />
    <glyph glyph-name="ydieresis" unicode="&#xff;" horiz-adv-x="901" 
d="M924 1049l-332 -1059q-68 -217 -168.5 -323t-267.5 -134l-95 199q131 36 186.5 87t102.5 181h-86q-18 110 -71 293l-216 743l277 33l129 -504q39 -158 49 -350q55 249 78 330l137 504h277zM397 1319q0 -61 -43.5 -104.5t-103.5 -43.5q-62 0 -108 43.5t-46 104.5
q0 62 43.5 104.5t104.5 42.5q64 0 108.5 -42.5t44.5 -104.5zM819 1319q0 -61 -43.5 -104.5t-103.5 -43.5q-62 0 -108 43.5t-46 104.5q0 62 43.5 104.5t104.5 42.5q64 0 108.5 -42.5t44.5 -104.5z" />
    <glyph glyph-name="Amacron" unicode="&#x100;" horiz-adv-x="1069" 
d="M1083 0h-303l-78 319h-342l-81 -319h-293l401 1423h315zM649 543l-74 354q-21 99 -40 236q-5 -24 -21 -114t-22 -122l-74 -354h231zM838 1540h-584v174h584v-174z" />
    <glyph glyph-name="amacron" unicode="&#x101;" horiz-adv-x="940" 
d="M879 135l-156 -176q-34 13 -69.5 48t-47.5 67q-97 -101 -237 -101q-82 0 -143 26.5t-96 74t-52 105t-17 126.5q0 157 113.5 252.5t310.5 95.5q31 0 54 -2v78q0 82 -21 105q-22 28 -72 28q-142 0 -268 -112l-102 184q201 141 405 141q124 0 206 -47t108 -137
q16 -56 16 -178l-4 -383q0 -75 15 -120.5t57 -74.5zM537 256v199q-6 2 -15 2q-104 0 -148 -36.5t-44 -107.5q0 -58 25.5 -89t74.5 -31q32 0 63.5 18.5t43.5 44.5zM760 1171h-584v175h584v-175z" />
    <glyph glyph-name="Abreve" unicode="&#x102;" horiz-adv-x="1069" 
d="M1083 0h-303l-78 319h-342l-81 -319h-293l401 1423h315zM649 543l-74 354q-21 99 -40 236q-5 -24 -21 -114t-22 -122l-74 -354h231zM881 1823q-52 -77 -146 -150.5t-190 -73.5q-101 0 -202 76t-142 148l100 114q128 -118 250 -118q90 0 246 118z" />
    <glyph glyph-name="abreve" unicode="&#x103;" horiz-adv-x="940" 
d="M879 135l-156 -176q-34 13 -69.5 48t-47.5 67q-97 -101 -237 -101q-82 0 -143 26.5t-96 74t-52 105t-17 126.5q0 157 113.5 252.5t310.5 95.5q31 0 54 -2v78q0 82 -21 105q-22 28 -72 28q-142 0 -268 -112l-102 184q201 141 405 141q124 0 206 -47t108 -137
q16 -56 16 -178l-4 -383q0 -75 15 -120.5t57 -74.5zM537 256v199q-6 2 -15 2q-104 0 -148 -36.5t-44 -107.5q0 -58 25.5 -89t74.5 -31q32 0 63.5 18.5t43.5 44.5zM817 1454q-52 -77 -146 -150t-190 -73q-101 0 -202 75.5t-142 147.5l101 115q130 -119 249 -119q88 0 246 119
z" />
    <glyph glyph-name="Aogonek" unicode="&#x104;" horiz-adv-x="1069" 
d="M1083 -356q-118 -58 -215 -58q-82 0 -135 52t-53 141q0 121 100 221l-78 319h-342l-81 -319h-293l401 1423h315l381 -1423q-24 -6 -54.5 -21t-64.5 -38t-56.5 -57.5t-22.5 -71.5q0 -23 14 -37.5t39 -14.5q36 0 90 33zM649 543l-74 354q-10 45 -24 131.5t-16 104.5
q0 -1 -43 -236l-74 -354h231z" />
    <glyph glyph-name="aogonek" unicode="&#x105;" horiz-adv-x="940" 
d="M909 -356q-116 -58 -215 -58q-85 0 -136.5 53.5t-51.5 139.5q0 69 35 133.5t92 114.5q-20 28 -27 47q-96 -101 -237 -101q-151 0 -229.5 89.5t-78.5 242.5q0 88 35 156.5t95.5 109.5t134.5 61.5t159 20.5q36 0 54 -2v78q0 25 -1 41t-6.5 35.5t-15 30.5t-27 18.5
t-43.5 7.5q-142 0 -268 -112l-102 184q205 141 405 141q72 0 132 -15.5t111.5 -58.5t70.5 -110q16 -57 16 -178q0 -63 -2 -191t-2 -192q0 -40 2.5 -70t11 -68.5t29 -66.5t51.5 -43q-4 -4 -28 -24.5t-32.5 -28t-30.5 -28.5t-31.5 -33t-25.5 -32.5t-23 -36.5t-13 -36t-6 -39
q0 -64 53 -64q34 0 90 33zM537 256v199q-4 2 -15 2q-42 0 -73.5 -6t-60 -21t-43.5 -44.5t-15 -72.5q0 -54 24 -87t76 -33q31 0 62.5 18t44.5 45z" />
    <glyph glyph-name="Cacute" unicode="&#x106;" horiz-adv-x="1017" 
d="M987 111q-137 -134 -377 -134q-111 0 -209 43.5t-165 122.5q-164 194 -164 547q0 119 19 226.5t63 205.5t109 169t162.5 113t217.5 42q95 0 184 -30t134 -79l-127 -215q-90 78 -199 78q-252 0 -252 -442q0 -177 19.5 -278.5t60.5 -153.5q83 -103 176 -103q67 0 120 19.5
t105 68.5zM909 1704l-407 -199l-90 146l379 250z" />
    <glyph glyph-name="cacute" unicode="&#x107;" horiz-adv-x="815" 
d="M797 119q-127 -144 -320 -144q-202 0 -307 150q-98 137 -98 387q0 310 153 457q109 106 273 106q83 0 145.5 -28.5t128.5 -90.5l-127 -174q-67 74 -139 74q-77 0 -111 -92q-28 -83 -28 -242q0 -166 31.5 -245.5t105.5 -79.5q102 0 172 92zM748 1335l-408 -198l-90 145
l379 250z" />
    <glyph glyph-name="Ccircumflex" unicode="&#x108;" horiz-adv-x="1017" 
d="M987 111q-137 -134 -377 -134q-111 0 -209 43.5t-165 122.5q-164 194 -164 547q0 119 19 226.5t63 205.5t109 169t162.5 113t217.5 42q95 0 184 -30t134 -79l-127 -215q-90 78 -199 78q-252 0 -252 -442q0 -177 19.5 -278.5t60.5 -153.5q83 -103 176 -103q67 0 120 19.5
t105 68.5zM981 1657l-92 -158l-246 148l-242 -148l-82 158l334 252z" />
    <glyph glyph-name="ccircumflex" unicode="&#x109;" horiz-adv-x="815" 
d="M797 119q-127 -144 -320 -144q-202 0 -307 150q-98 137 -98 387q0 310 153 457q109 106 273 106q83 0 145.5 -28.5t128.5 -90.5l-127 -174q-67 74 -139 74q-77 0 -111 -92q-28 -83 -28 -242q0 -166 31.5 -245.5t105.5 -79.5q102 0 172 92zM836 1288l-93 -158l-245 148
l-242 -148l-82 158l334 252z" />
    <glyph glyph-name="Cdotaccent" unicode="&#x10a;" horiz-adv-x="1017" 
d="M987 111q-137 -134 -377 -134q-111 0 -209 43.5t-165 122.5q-164 194 -164 547q0 119 19 226.5t63 205.5t109 169t162.5 113t217.5 42q95 0 184 -30t134 -79l-127 -215q-90 78 -199 78q-252 0 -252 -442q0 -177 19.5 -278.5t60.5 -153.5q83 -103 176 -103q67 0 120 19.5
t105 68.5zM821 1722q0 -75 -52.5 -128.5t-125.5 -53.5q-72 0 -124 53.5t-52 128.5t52.5 130t125.5 55q72 0 124 -55t52 -130z" />
    <glyph glyph-name="cdotaccent" unicode="&#x10b;" horiz-adv-x="815" 
d="M797 119q-127 -144 -320 -144q-202 0 -307 150q-98 137 -98 387q0 310 153 457q109 106 273 106q83 0 145.5 -28.5t128.5 -90.5l-127 -174q-67 74 -139 74q-77 0 -111 -92q-28 -83 -28 -242q0 -166 31.5 -245.5t105.5 -79.5q102 0 172 92zM676 1315q0 -75 -52.5 -128.5
t-125.5 -53.5q-72 0 -124 53.5t-52 128.5t52.5 129.5t125.5 54.5q72 0 124 -54.5t52 -129.5z" />
    <glyph glyph-name="Ccaron" unicode="&#x10c;" horiz-adv-x="1017" 
d="M987 111q-137 -134 -377 -134q-111 0 -209 43.5t-165 122.5q-164 194 -164 547q0 119 19 226.5t63 205.5t109 169t162.5 113t217.5 42q95 0 184 -30t134 -79l-127 -215q-90 78 -199 78q-252 0 -252 -442q0 -177 19.5 -278.5t60.5 -153.5q83 -103 176 -103q67 0 120 19.5
t105 68.5zM965 1778l-328 -275l-334 275l86 159l248 -149l240 147z" />
    <glyph glyph-name="ccaron" unicode="&#x10d;" horiz-adv-x="815" 
d="M797 119q-127 -144 -320 -144q-202 0 -307 150q-98 137 -98 387q0 310 153 457q109 106 273 106q83 0 145.5 -28.5t128.5 -90.5l-127 -174q-67 74 -139 74q-77 0 -111 -92q-28 -83 -28 -242q0 -166 31.5 -245.5t105.5 -79.5q102 0 172 92zM834 1409l-328 -274l-334 274
l86 160l248 -150l239 148z" />
    <glyph glyph-name="Dcaron" unicode="&#x10e;" horiz-adv-x="1122" 
d="M1051 731q0 -372 -148 -565q-129 -166 -354 -166h-416v1423h377q210 0 326 -88q113 -84 164 -234t51 -370zM743 735q0 102 -10.5 179t-35 138.5t-68.5 93.5t-107 32h-110v-932h118q73 0 118.5 45.5t70 154.5t24.5 289zM883 1778l-328 -275l-334 275l86 159l248 -149
l240 147z" />
    <glyph glyph-name="dcaron" unicode="&#x10f;" horiz-adv-x="1177" 
d="M891 0h-236q-12 28 -16 76q-77 -99 -199 -99q-176 0 -272 139.5t-96 391.5q0 107 22 204t66 179.5t121.5 132t177.5 49.5q41 0 83 -16.5t68 -40.5q-10 60 -10 162v315l272 -41v-1178q0 -179 19 -274zM600 266v533q-25 51 -100 51q-43 0 -71.5 -25.5t-41.5 -76.5
t-17.5 -103t-4.5 -127q0 -39 1.5 -68.5t5 -68t12.5 -66t23 -53t36.5 -38.5t52.5 -13q35 0 63.5 14.5t40.5 40.5z" />
    <glyph glyph-name="Dcroat" unicode="&#x110;" horiz-adv-x="1122" 
d="M1051 731q0 -372 -148 -565q-129 -166 -354 -166h-416v606h-108v246h108v571h377q210 0 326 -88q113 -84 164 -234t51 -370zM743 735q0 102 -10.5 179t-35 138.5t-68.5 93.5t-107 32h-110v-326h190l-16 -246h-174v-360h118q73 0 118.5 45.5t70 154.5t24.5 289z" />
    <glyph glyph-name="dcroat" unicode="&#x111;" horiz-adv-x="1003" 
d="M983 1163h-111v-889q0 -179 19 -274h-236q-12 28 -16 76q-77 -99 -199 -99q-176 0 -272 139.5t-96 391.5q0 107 22 204t66 179.5t121.5 132t177.5 49.5q41 0 83 -16.5t68 -40.5q-10 82 -10 147h-201v174h201v156l272 -41v-115h111v-174zM600 266v533q-25 51 -100 51
q-43 0 -71.5 -25.5t-41.5 -76.5t-17.5 -103t-4.5 -127q0 -39 1.5 -68.5t5 -68t12.5 -66t23 -53t36.5 -38.5t52.5 -13q35 0 63.5 14.5t40.5 40.5z" />
    <glyph glyph-name="Emacron" unicode="&#x112;" horiz-adv-x="899" 
d="M858 0h-725v1423h717l-31 -245h-405v-318h336v-242h-336v-366h444v-252zM784 1540h-583v174h583v-174z" />
    <glyph glyph-name="emacron" unicode="&#x113;" horiz-adv-x="929" 
d="M881 451h-525v-19q0 -100 31 -156q45 -83 143 -83q116 0 232 104l110 -176q-162 -146 -358 -146q-212 0 -327 143t-115 404q0 272 112 416q107 137 297 137q175 0 277 -108q65 -71 94 -182.5t29 -278.5v-55zM608 645q0 117 -20 166q-29 70 -101 70q-67 0 -98.5 -54.5
t-32.5 -181.5h252zM774 1171h-584v175h584v-175z" />
    <glyph glyph-name="Ebreve" unicode="&#x114;" horiz-adv-x="899" 
d="M858 0h-725v1423h717l-31 -245h-405v-318h336v-242h-336v-366h444v-252zM827 1823q-22 -32 -54.5 -67.5t-76.5 -72.5t-98.5 -60.5t-105.5 -23.5q-101 0 -202.5 76t-142.5 148l101 114q128 -118 250 -118q89 0 245 118z" />
    <glyph glyph-name="ebreve" unicode="&#x115;" horiz-adv-x="929" 
d="M881 451h-525v-19q0 -100 31 -156q45 -83 143 -83q116 0 232 104l110 -176q-162 -146 -358 -146q-212 0 -327 143t-115 404q0 272 112 416q107 137 297 137q175 0 277 -108q65 -71 94 -182.5t29 -278.5v-55zM608 645q0 117 -20 166q-29 70 -101 70q-67 0 -98.5 -54.5
t-32.5 -181.5h252zM829 1454q-52 -77 -145.5 -150t-189.5 -73q-101 0 -202 75.5t-142 147.5l100 115q130 -119 250 -119q32 0 67 12t73 35.5t56 36t49 35.5z" />
    <glyph glyph-name="Edotaccent" unicode="&#x116;" horiz-adv-x="899" 
d="M858 0h-725v1423h717l-31 -245h-405v-318h336v-242h-336v-366h444v-252zM670 1722q0 -75 -52.5 -128.5t-125.5 -53.5q-72 0 -124.5 53.5t-52.5 128.5t53 130t126 55q72 0 124 -55t52 -130z" />
    <glyph glyph-name="edotaccent" unicode="&#x117;" horiz-adv-x="929" 
d="M881 451h-525v-19q0 -100 31 -156q45 -83 143 -83q116 0 232 104l110 -176q-162 -146 -358 -146q-212 0 -327 143t-115 404q0 272 112 416q107 137 297 137q175 0 277 -108q65 -71 94 -182.5t29 -278.5v-55zM608 645q0 117 -20 166q-29 70 -101 70q-67 0 -98.5 -54.5
t-32.5 -181.5h252zM659 1315q0 -75 -52.5 -128.5t-125.5 -53.5q-72 0 -124 53.5t-52 128.5t52.5 129.5t125.5 54.5q72 0 124 -54.5t52 -129.5z" />
    <glyph glyph-name="Eogonek" unicode="&#x118;" horiz-adv-x="899" 
d="M913 -356q-118 -58 -215 -58q-82 0 -135 52t-53 141q0 121 100 221h-477v1423h717l-31 -245h-405v-318h336v-242h-336v-366h444v-252q-50 -28 -96.5 -82t-46.5 -104q0 -23 13.5 -38.5t39.5 -15.5q36 0 90 33z" />
    <glyph glyph-name="eogonek" unicode="&#x119;" horiz-adv-x="929" 
d="M856 -356q-118 -58 -215 -58q-82 0 -135 52t-53 141q0 104 77 196h-16q-212 0 -327 143t-115 404q0 272 112 416q107 137 297 137q175 0 277 -108q65 -71 94 -182.5t29 -278.5v-55h-525v-19q0 -100 31 -156q45 -83 143 -83q116 0 232 104l110 -176q-25 -23 -50 -47.5
t-68.5 -72.5t-70 -98t-26.5 -91q0 -23 14.5 -37.5t39.5 -14.5q36 0 90 33zM608 645q0 117 -20 166q-29 70 -101 70q-67 0 -98.5 -54.5t-32.5 -181.5h252z" />
    <glyph glyph-name="Ecaron" unicode="&#x11a;" horiz-adv-x="899" 
d="M858 0h-725v1423h717l-31 -245h-405v-318h336v-242h-336v-366h444v-252zM813 1778l-328 -275l-333 275l86 159l247 -149l240 147z" />
    <glyph glyph-name="ecaron" unicode="&#x11b;" horiz-adv-x="929" 
d="M881 451h-525v-19q0 -100 31 -156q45 -83 143 -83q116 0 232 104l110 -176q-162 -146 -358 -146q-212 0 -327 143t-115 404q0 272 112 416q107 137 297 137q175 0 277 -108q65 -71 94 -182.5t29 -278.5v-55zM608 645q0 117 -20 166q-29 70 -101 70q-67 0 -98.5 -54.5
t-32.5 -181.5h252zM817 1409l-328 -274l-333 274l86 160l247 -150l240 148z" />
    <glyph glyph-name="Gcircumflex" unicode="&#x11c;" horiz-adv-x="1177" 
d="M1063 1270l-158 -191q-117 117 -256 117q-75 0 -128.5 -37.5t-82.5 -107.5t-42 -156t-13 -197q0 -80 6.5 -145.5t24 -128.5t45.5 -106t74.5 -69t107.5 -26q73 0 141 33v293h-172l-37 244h488v-680q-197 -138 -445 -138q-238 0 -385 170q-159 187 -159 545
q0 120 19.5 227.5t63.5 205.5t109 169t162 112.5t217 41.5q117 0 227 -46t193 -130zM981 1657l-92 -158l-246 148l-242 -148l-82 158l334 252z" />
    <glyph glyph-name="gcircumflex" unicode="&#x11d;" horiz-adv-x="960" 
d="M967 879q-54 -37 -101 -37q-15 0 -43 4q47 -84 47 -141q0 -90 -33.5 -156t-93 -103.5t-131.5 -55t-157 -17.5q-43 0 -66 2q-27 -34 -27 -53q0 -37 93 -37q27 0 84 -2t84 -2q132 0 218.5 -78t86.5 -209q0 -102 -36 -178.5t-101 -121.5t-147 -67t-181 -22
q-72 0 -138.5 12.5t-131.5 40.5t-104.5 83.5t-39.5 131.5q0 65 12 127h250q-6 -40 -6 -80q0 -110 170 -110q76 0 127 34t51 105q0 26 -6.5 46t-20.5 32t-28.5 19.5t-37 11t-40 4.5t-43.5 1q-27 0 -81 1.5t-81 1.5q-99 0 -158 44.5t-59 139.5q0 60 37 106t96 72
q-161 76 -161 287q0 117 56.5 198.5t147 118.5t205.5 37q64 0 135 -22q9 -3 29.5 -11.5t36.5 -13t31 -4.5q113 0 176 31zM588 723q0 149 -121 149q-64 0 -93.5 -42t-29.5 -109t29.5 -108.5t93.5 -41.5q63 0 92 42.5t29 109.5zM817 1288l-92 -158l-246 148l-241 -148l-82 158
l333 252z" />
    <glyph glyph-name="Gbreve" unicode="&#x11e;" horiz-adv-x="1177" 
d="M1063 1270l-158 -191q-117 117 -256 117q-75 0 -128.5 -37.5t-82.5 -107.5t-42 -156t-13 -197q0 -80 6.5 -145.5t24 -128.5t45.5 -106t74.5 -69t107.5 -26q73 0 141 33v293h-172l-37 244h488v-680q-197 -138 -445 -138q-238 0 -385 170q-159 187 -159 545
q0 120 19.5 227.5t63.5 205.5t109 169t162 112.5t217 41.5q117 0 227 -46t193 -130zM979 1823q-52 -77 -146 -150.5t-190 -73.5q-101 0 -202 76t-142 148l100 114q128 -118 250 -118q90 0 246 118z" />
    <glyph glyph-name="gbreve" unicode="&#x11f;" horiz-adv-x="960" 
d="M967 879q-54 -37 -101 -37q-15 0 -43 4q47 -84 47 -141q0 -90 -33.5 -156t-93 -103.5t-131.5 -55t-157 -17.5q-43 0 -66 2q-27 -34 -27 -53q0 -37 93 -37q27 0 84 -2t84 -2q132 0 218.5 -78t86.5 -209q0 -102 -36 -178.5t-101 -121.5t-147 -67t-181 -22
q-72 0 -138.5 12.5t-131.5 40.5t-104.5 83.5t-39.5 131.5q0 65 12 127h250q-6 -40 -6 -80q0 -110 170 -110q76 0 127 34t51 105q0 26 -6.5 46t-20.5 32t-28.5 19.5t-37 11t-40 4.5t-43.5 1q-27 0 -81 1.5t-81 1.5q-99 0 -158 44.5t-59 139.5q0 60 37 106t96 72
q-161 76 -161 287q0 117 56.5 198.5t147 118.5t205.5 37q64 0 135 -22q9 -3 29.5 -11.5t36.5 -13t31 -4.5q113 0 176 31zM588 723q0 149 -121 149q-64 0 -93.5 -42t-29.5 -109t29.5 -108.5t93.5 -41.5q63 0 92 42.5t29 109.5zM815 1454q-52 -77 -146 -150t-190 -73
q-101 0 -202 75.5t-142 147.5l101 115q130 -119 249 -119q88 0 246 119z" />
    <glyph glyph-name="Gdotaccent" unicode="&#x120;" horiz-adv-x="1177" 
d="M1063 1270l-158 -191q-117 117 -256 117q-75 0 -128.5 -37.5t-82.5 -107.5t-42 -156t-13 -197q0 -80 6.5 -145.5t24 -128.5t45.5 -106t74.5 -69t107.5 -26q73 0 141 33v293h-172l-37 244h488v-680q-197 -138 -445 -138q-238 0 -385 170q-159 187 -159 545
q0 120 19.5 227.5t63.5 205.5t109 169t162 112.5t217 41.5q117 0 227 -46t193 -130zM821 1722q0 -75 -52.5 -128.5t-125.5 -53.5q-72 0 -124 53.5t-52 128.5t52.5 130t125.5 55q72 0 124 -55t52 -130z" />
    <glyph glyph-name="gdotaccent" unicode="&#x121;" horiz-adv-x="960" 
d="M967 879q-54 -37 -101 -37q-15 0 -43 4q47 -84 47 -141q0 -90 -33.5 -156t-93 -103.5t-131.5 -55t-157 -17.5q-43 0 -66 2q-27 -34 -27 -53q0 -37 93 -37q27 0 84 -2t84 -2q132 0 218.5 -78t86.5 -209q0 -102 -36 -178.5t-101 -121.5t-147 -67t-181 -22
q-72 0 -138.5 12.5t-131.5 40.5t-104.5 83.5t-39.5 131.5q0 65 12 127h250q-6 -40 -6 -80q0 -110 170 -110q76 0 127 34t51 105q0 26 -6.5 46t-20.5 32t-28.5 19.5t-37 11t-40 4.5t-43.5 1q-27 0 -81 1.5t-81 1.5q-99 0 -158 44.5t-59 139.5q0 60 37 106t96 72
q-161 76 -161 287q0 117 56.5 198.5t147 118.5t205.5 37q64 0 135 -22q9 -3 29.5 -11.5t36.5 -13t31 -4.5q113 0 176 31zM588 723q0 149 -121 149q-64 0 -93.5 -42t-29.5 -109t29.5 -108.5t93.5 -41.5q63 0 92 42.5t29 109.5zM657 1315q0 -75 -52.5 -128.5t-125.5 -53.5
q-72 0 -124 53.5t-52 128.5t52.5 129.5t125.5 54.5q72 0 124 -54.5t52 -129.5z" />
    <glyph glyph-name="uni0122" unicode="&#x122;" horiz-adv-x="1177" 
d="M1063 1270l-158 -191q-117 117 -256 117q-75 0 -128.5 -37.5t-82.5 -107.5t-42 -156t-13 -197q0 -80 6.5 -145.5t24 -128.5t45.5 -106t74.5 -69t107.5 -26q73 0 141 33v293h-172l-37 244h488v-680q-197 -138 -445 -138q-238 0 -385 170q-159 187 -159 545
q0 120 19.5 227.5t63.5 205.5t109 169t162 112.5t217 41.5q117 0 227 -46t193 -130zM770 -250q0 -97 -59 -166q-22 -28 -63.5 -55.5t-88.5 -40.5l-84 84q45 10 72.5 33.5t27.5 50.5q0 9 -3 15t-7 9t-13.5 9.5t-16.5 11.5q-52 38 -52 100q0 54 38.5 89.5t94.5 35.5
q72 0 113 -47t41 -129z" />
    <glyph glyph-name="uni0123" unicode="&#x123;" horiz-adv-x="960" 
d="M967 879q-54 -37 -101 -37q-15 0 -43 4q47 -84 47 -141q0 -90 -33.5 -156t-93 -103.5t-131.5 -55t-157 -17.5q-43 0 -66 2q-27 -34 -27 -53q0 -37 93 -37q27 0 84 -2t84 -2q132 0 218.5 -78t86.5 -209q0 -102 -36 -178.5t-101 -121.5t-147 -67t-181 -22
q-72 0 -138.5 12.5t-131.5 40.5t-104.5 83.5t-39.5 131.5q0 65 12 127h250q-6 -40 -6 -80q0 -110 170 -110q76 0 127 34t51 105q0 26 -6.5 46t-20.5 32t-28.5 19.5t-37 11t-40 4.5t-43.5 1q-27 0 -81 1.5t-81 1.5q-99 0 -158 44.5t-59 139.5q0 60 37 106t96 72
q-161 76 -161 287q0 117 56.5 198.5t147 118.5t205.5 37q64 0 135 -22q9 -3 29.5 -11.5t36.5 -13t31 -4.5q113 0 176 31zM588 723q0 149 -121 149q-64 0 -93.5 -42t-29.5 -109t29.5 -108.5t93.5 -41.5q63 0 92 42.5t29 109.5zM326 1335q0 97 59 166q22 28 63.5 55.5
t88.5 40.5l84 -84q-45 -10 -73 -33.5t-28 -49.5q0 -12 3.5 -17.5t17.5 -14.5t20 -14q51 -37 51 -100q0 -54 -38.5 -89.5t-94.5 -35.5q-72 0 -112.5 47t-40.5 129z" />
    <glyph glyph-name="Hcircumflex" unicode="&#x124;" horiz-adv-x="1138" 
d="M1006 0h-279v623h-315v-623h-279v1423h279v-542h315v542h279v-1423zM907 1657l-92 -158l-246 148l-241 -148l-82 158l334 252z" />
    <glyph glyph-name="hcircumflex" unicode="&#x125;" horiz-adv-x="1034" 
d="M903 0h-268v694q0 80 -21 107q-18 26 -71 26q-67 0 -137 -82v-745h-273v1219q0 115 -16 233l270 37q19 -131 19 -262v-152q0 -62 -3 -96q40 41 105 66.5t141 25.5q120 0 187 -70t67 -192v-809zM588 1659l-92 -158l-246 148l-242 -148l-82 158l334 252z" />
    <glyph glyph-name="Hbar" unicode="&#x126;" horiz-adv-x="1138" 
d="M1006 0h-279v623h-315v-623h-279v1077h-108v246h108v100h279v-100h315v100h279v-100h106v-246h-106v-1077zM412 881h315v196h-315v-196z" />
    <glyph glyph-name="hbar" unicode="&#x127;" horiz-adv-x="1034" 
d="M670 1163h-264v-88q0 -35 -3 -96q40 41 105 66.5t141 25.5q120 0 187 -70t67 -192v-809h-268v694q0 80 -21 107q-18 26 -71 26q-67 0 -137 -82v-745h-273v1163h-110v174h106l-12 115l270 37q11 -97 14 -152h269v-174z" />
    <glyph glyph-name="Itilde" unicode="&#x128;" horiz-adv-x="546" 
d="M414 0h-281v1423h281v-1423zM592 1636q-41 -59 -93 -86.5t-128 -27.5q-55 0 -120.5 37.5t-115.5 37.5q-70 0 -125 -65l-71 172q44 62 94 91.5t117 29.5q57 0 123.5 -36t115.5 -36q38 0 72.5 18t56.5 44z" />
    <glyph glyph-name="itilde" unicode="&#x129;" horiz-adv-x="540" 
d="M408 0h-275v1036l275 31v-1067zM592 1309q-41 -59 -93 -87t-128 -28q-55 0 -120.5 38t-115.5 38q-69 0 -125 -66l-71 172q44 62 94 91.5t117 29.5q57 0 123.5 -36t115.5 -36q38 0 72.5 18t56.5 44z" />
    <glyph glyph-name="Imacron" unicode="&#x12a;" horiz-adv-x="546" 
d="M414 0h-281v1423h281v-1423zM565 1540h-583v174h583v-174z" />
    <glyph glyph-name="imacron" unicode="&#x12b;" horiz-adv-x="540" 
d="M408 0h-275v1036l275 31v-1067zM563 1171h-583v175h583v-175z" />
    <glyph glyph-name="Ibreve" unicode="&#x12c;" horiz-adv-x="546" 
d="M414 0h-281v1423h281v-1423zM608 1823q-52 -77 -146 -150.5t-190 -73.5q-101 0 -202 76t-142 148l101 114q128 -118 250 -118q89 0 245 118z" />
    <glyph glyph-name="ibreve" unicode="&#x12d;" horiz-adv-x="540" 
d="M408 0h-275v1036l275 31v-1067zM604 1454q-52 -77 -146 -150t-190 -73q-101 0 -202 75.5t-142 147.5l101 115q130 -119 249 -119q88 0 246 119z" />
    <glyph glyph-name="Iogonek" unicode="&#x12e;" horiz-adv-x="546" 
d="M436 -356q-118 -58 -215 -58q-82 0 -135 52t-53 141q0 121 100 221v1423h281v-1423q-26 -11 -53 -27t-56.5 -39.5t-48 -55.5t-18.5 -66q0 -23 14 -37.5t39 -14.5q36 0 90 33z" />
    <glyph glyph-name="iogonek" unicode="&#x12f;" horiz-adv-x="540" 
d="M438 -356q-118 -58 -215 -58q-82 0 -135 52t-53 141q0 121 100 221v1036l275 31v-1067q-59 -25 -114.5 -76.5t-55.5 -111.5q0 -23 14 -37.5t39 -14.5q36 0 90 33zM438 1333q0 -68 -50 -117t-120 -49q-68 0 -118 49.5t-50 116.5q0 68 51 117t121 49q69 0 117.5 -49
t48.5 -117z" />
    <glyph glyph-name="Idotaccent" unicode="&#x130;" horiz-adv-x="546" 
d="M414 0h-281v1423h281v-1423zM451 1722q0 -75 -52.5 -128.5t-126.5 -53.5q-72 0 -124 53.5t-52 128.5t52.5 130t125.5 55q72 0 124.5 -55t52.5 -130z" />
    <glyph glyph-name="dotlessi" unicode="&#x131;" horiz-adv-x="540" 
d="M408 0h-275v1036l275 31v-1067z" />
    <glyph glyph-name="Jcircumflex" unicode="&#x134;" horiz-adv-x="548" 
d="M416 1423v-1294q0 -191 -90 -317q-79 -112 -224 -170l-133 155q62 43 94 79.5t50 88.5q24 71 24 279v1179h279zM614 1657l-92 -158l-246 148l-241 -148l-82 158l334 252z" />
    <glyph glyph-name="jcircumflex" unicode="&#x135;" horiz-adv-x="536" 
d="M406 31q0 -182 -37 -275q-28 -73 -83 -123t-149 -96l-114 156q63 49 86.5 116t23.5 193v1034l273 31v-1036zM598 1288l-92 -158l-246 148l-242 -148l-81 158l333 252z" />
    <glyph glyph-name="uni0136" unicode="&#x136;" horiz-adv-x="1095" 
d="M1126 0h-358l-348 756l321 667h338l-364 -661zM414 0h-281v1423h281v-1423zM721 -250q0 -97 -59 -166q-22 -28 -63.5 -55.5t-88.5 -40.5l-84 84q45 10 72.5 33.5t27.5 50.5q0 11 -3.5 17t-17 14.5t-20.5 13.5q-51 37 -51 100q0 54 38.5 89.5t94.5 35.5q72 0 113 -47
t41 -129z" />
    <glyph glyph-name="uni0137" unicode="&#x137;" horiz-adv-x="999" 
d="M408 0h-275v1217q0 128 -18 231l272 41q21 -111 21 -262v-1227zM1016 0h-330l-274 565l198 484h312l-244 -459zM678 -250q0 -96 -60 -166q-22 -29 -63 -56t-88 -40l-84 84q45 10 72.5 33.5t27.5 50.5q0 11 -3.5 17t-17 14.5t-20.5 13.5q-51 37 -51 100q0 54 38.5 89.5
t94.5 35.5q72 0 113 -47t41 -129z" />
    <glyph glyph-name="kgreenlandic" unicode="&#x138;" horiz-adv-x="999" 
d="M1016 0h-330l-274 565l198 484h312l-244 -459zM133 817q0 129 -18 232l272 41q21 -111 21 -263v-827h-275v817z" />
    <glyph glyph-name="Lacute" unicode="&#x139;" horiz-adv-x="839" 
d="M850 248l-51 -248h-666v1423h279v-1175h438zM539 1704l-408 -199l-90 146l379 250z" />
    <glyph glyph-name="lacute" unicode="&#x13a;" horiz-adv-x="538" 
d="M551 6q-71 -31 -178 -31q-127 0 -187 66q-33 39 -43 99t-10 161v913q0 116 -16 234l268 39q23 -170 23 -262v-828q0 -129 11 -166.5t56 -37.5q13 0 31 6zM516 1704l-407 -199l-91 146l379 250z" />
    <glyph glyph-name="uni013B" unicode="&#x13b;" horiz-adv-x="839" 
d="M850 248l-51 -248h-666v1423h279v-1175h438zM618 -250q0 -97 -59 -166q-22 -29 -63 -56t-88 -40l-84 84q45 10 72.5 33.5t27.5 50.5q0 11 -3.5 17t-17 14.5t-20.5 13.5q-51 37 -51 100q0 54 38.5 89.5t94.5 35.5q72 0 112.5 -47t40.5 -129z" />
    <glyph glyph-name="uni013C" unicode="&#x13c;" horiz-adv-x="538" 
d="M551 6q-71 -31 -178 -31q-127 0 -187 66q-33 39 -43 99t-10 161v913q0 116 -16 234l268 39q23 -170 23 -262v-828q0 -129 11 -166.5t56 -37.5q13 0 31 6zM494 -250q0 -96 -60 -166q-22 -29 -63 -56t-88 -40l-84 84q45 10 72.5 33.5t27.5 50.5q0 11 -3.5 17t-17 14.5
t-20.5 13.5q-51 37 -51 100q0 54 38.5 89.5t94.5 35.5q72 0 113 -47t41 -129z" />
    <glyph glyph-name="Lcaron" unicode="&#x13d;" horiz-adv-x="839" 
d="M850 248l-51 -248h-666v1423h279v-1175h438z" />
    <glyph glyph-name="lcaron" unicode="&#x13e;" horiz-adv-x="706" 
d="M551 6q-71 -31 -178 -31q-127 0 -187 66q-33 39 -43 99t-10 161v913q0 116 -16 234l268 39q23 -170 23 -262v-828q0 -129 11 -166.5t56 -37.5q13 0 31 6z" />
    <glyph glyph-name="Ldot" unicode="&#x13f;" horiz-adv-x="839" 
d="M850 248l-51 -248h-666v1423h279v-1175h438zM848 705q0 -61 -44 -104.5t-104 -43.5q-62 0 -107.5 43.5t-45.5 104.5q0 62 43 104.5t104 42.5q64 0 109 -42.5t45 -104.5z" />
    <glyph glyph-name="ldot" unicode="&#x140;" horiz-adv-x="792" 
d="M551 6q-71 -31 -178 -31q-127 0 -187 66q-33 39 -43 99t-10 161v913q0 116 -16 234l268 39q23 -170 23 -262v-828q0 -129 11 -166.5t56 -37.5q13 0 31 6zM821 786q0 -61 -43.5 -104t-103.5 -43q-62 0 -108 43t-46 104q0 62 43.5 105t104.5 43q63 0 108 -42.5t45 -105.5z
" />
    <glyph glyph-name="Lslash" unicode="&#x141;" horiz-adv-x="839" 
d="M850 248l-51 -248h-666v588l-110 -37v229l110 37v606h279v-514l282 95v-230l-282 -94v-432h438z" />
    <glyph glyph-name="lslash" unicode="&#x142;" horiz-adv-x="538" 
d="M551 6q-71 -31 -178 -31q-47 0 -84 9t-62 23t-43 38.5t-27.5 48.5t-15 61.5t-7 68.5t-1.5 77v285l-106 -35v229l106 35v399q0 109 -16 234l268 39q23 -169 23 -262v-318l106 37v-229l-106 -37v-328q0 -124 26 -145q14 -12 41 -12q7 0 31 6z" />
    <glyph glyph-name="Nacute" unicode="&#x143;" horiz-adv-x="1171" 
d="M1038 0h-290l-259 582q-26 58 -62 159t-46 136q0 -1 4.5 -58.5t9 -135.5t4.5 -130v-553h-266v1423h277l268 -587q36 -80 106 -289q0 1 -1.5 27.5t-3.5 68t-4 87.5t-3.5 95t-1.5 82v516h268v-1423zM852 1704l-408 -199l-90 146l379 250z" />
    <glyph glyph-name="nacute" unicode="&#x144;" horiz-adv-x="1032" 
d="M901 0h-272v702q0 87 -25 115q-16 21 -65 21q-65 0 -133 -74v-764h-273v752q0 115 -31 270l252 51q23 -72 25 -115q43 50 118 81.5t152 31.5q120 0 187 -70q65 -68 65 -196v-805zM766 1335l-408 -198l-90 145l379 250z" />
    <glyph glyph-name="uni0145" unicode="&#x145;" horiz-adv-x="1171" 
d="M1038 0h-290l-259 582q-26 58 -62 159t-46 136q0 -1 4.5 -58.5t9 -135.5t4.5 -130v-553h-266v1423h277l268 -587q36 -80 106 -289q0 1 -1.5 27.5t-3.5 68t-4 87.5t-3.5 95t-1.5 82v516h268v-1423zM739 -250q0 -97 -59 -166q-22 -28 -63.5 -55.5t-88.5 -40.5l-84 84
q45 10 73 33.5t28 50.5q0 11 -3.5 17t-17 14.5t-20.5 13.5q-51 37 -51 100q0 54 38.5 89.5t94.5 35.5q72 0 112.5 -47t40.5 -129z" />
    <glyph glyph-name="uni0146" unicode="&#x146;" horiz-adv-x="1032" 
d="M901 0h-272v702q0 87 -25 115q-16 21 -65 21q-65 0 -133 -74v-764h-273v752q0 115 -31 270l252 51q23 -72 25 -115q43 50 118 81.5t152 31.5q120 0 187 -70q65 -68 65 -196v-805zM670 -250q0 -96 -60 -166q-22 -29 -63 -56t-88 -40l-84 84q45 10 72.5 33.5t27.5 50.5
q0 11 -3.5 17t-17 14.5t-20.5 13.5q-51 37 -51 100q0 54 38.5 89.5t94.5 35.5q72 0 113 -47t41 -129z" />
    <glyph glyph-name="Ncaron" unicode="&#x147;" horiz-adv-x="1171" 
d="M1038 0h-290l-259 582q-26 58 -62 159t-46 136q0 -1 4.5 -58.5t9 -135.5t4.5 -130v-553h-266v1423h277l268 -587q36 -80 106 -289q0 1 -1.5 27.5t-3.5 68t-4 87.5t-3.5 95t-1.5 82v516h268v-1423zM907 1778l-327 -275l-334 275l86 159l248 -149l239 147z" />
    <glyph glyph-name="ncaron" unicode="&#x148;" horiz-adv-x="1032" 
d="M901 0h-272v702q0 87 -25 115q-16 21 -65 21q-65 0 -133 -74v-764h-273v752q0 115 -31 270l252 51q23 -72 25 -115q43 50 118 81.5t152 31.5q120 0 187 -70q65 -68 65 -196v-805zM852 1409l-328 -274l-334 274l86 160l248 -150l240 148z" />
    <glyph glyph-name="napostrophe" unicode="&#x149;" horiz-adv-x="1224" 
d="M1094 0h-273v702q0 88 -24 115q-16 21 -66 21q-65 0 -133 -74v-764h-272v752q0 115 -31 270l252 51q22 -69 24 -115q43 50 118 81.5t153 31.5q119 0 186 -70q66 -69 66 -196v-805z" />
    <glyph glyph-name="Eng" unicode="&#x14a;" horiz-adv-x="1171" 
d="M1038 129q0 -184 -90 -317q-80 -113 -223 -170l-133 155q78 56 108.5 98t44.5 109l-256 578q-26 58 -62 159t-46 136q0 -1 4.5 -58.5t9 -135.5t4.5 -130v-553h-266v1423h277l268 -587q36 -80 106 -289q0 1 -1.5 27.5t-3.5 68t-4 87.5t-3.5 95t-1.5 82v516h268v-1294z" />
    <glyph glyph-name="eng" unicode="&#x14b;" horiz-adv-x="1032" 
d="M901 805l-2 -754q0 -157 -35 -246q-28 -73 -82.5 -123t-148.5 -96l-115 156q63 50 87 116.5t24 192.5v651q0 87 -25 115q-16 21 -65 21q-65 0 -133 -74v-764h-273v752q0 115 -31 270l252 51q23 -72 25 -115q43 50 118 81.5t152 31.5q120 0 187 -70q65 -68 65 -196z" />
    <glyph glyph-name="Omacron" unicode="&#x14c;" horiz-adv-x="1230" 
d="M1159 748q0 -122 -14.5 -227.5t-52 -208.5t-97 -175.5t-156 -117t-221.5 -44.5q-139 0 -245.5 56.5t-171 155.5t-97 225t-32.5 274q0 364 146 563t392 199q99 0 182.5 -29t142.5 -80.5t103 -118.5t70 -147t38.5 -160.5t12.5 -164.5zM848 711q0 79 -3.5 138.5t-12 120.5
t-25.5 103t-42.5 76t-64 51t-88.5 17q-227 0 -227 -488q0 -92 5 -163t20.5 -140.5t40.5 -115t68 -73.5t102 -28q57 0 98.5 26.5t66 69.5t39 111t19 136t4.5 159zM903 1540h-584v174h584v-174z" />
    <glyph glyph-name="omacron" unicode="&#x14d;" horiz-adv-x="956" 
d="M899 541q0 -258 -114 -413t-312 -155q-85 0 -154.5 28.5t-117.5 78.5t-81 119.5t-48 150.5t-15 174q0 114 26 212.5t77 175t133 120t186 43.5q188 0 304 -135t116 -399zM604 547q0 57 -2 96t-9.5 84t-20.5 72t-38 45t-59 18q-40 0 -66 -25.5t-38.5 -76t-16.5 -104
t-4 -132.5q0 -43 0.5 -69t3 -66.5t7.5 -65t14 -53.5t22.5 -45.5t34.5 -27.5t47 -11q41 0 67.5 29t38.5 86t15.5 111.5t3.5 134.5zM772 1171h-584v175h584v-175z" />
    <glyph glyph-name="Obreve" unicode="&#x14e;" horiz-adv-x="1230" 
d="M1159 748q0 -122 -14.5 -227.5t-52 -208.5t-97 -175.5t-156 -117t-221.5 -44.5q-139 0 -245.5 56.5t-171 155.5t-97 225t-32.5 274q0 364 146 563t392 199q99 0 182.5 -29t142.5 -80.5t103 -118.5t70 -147t38.5 -160.5t12.5 -164.5zM848 711q0 79 -3.5 138.5t-12 120.5
t-25.5 103t-42.5 76t-64 51t-88.5 17q-227 0 -227 -488q0 -92 5 -163t20.5 -140.5t40.5 -115t68 -73.5t102 -28q57 0 98.5 26.5t66 69.5t39 111t19 136t4.5 159zM946 1823q-52 -77 -146 -150.5t-190 -73.5q-101 0 -202 76t-142 148l101 114q128 -118 249 -118q90 0 246 118z
" />
    <glyph glyph-name="obreve" unicode="&#x14f;" horiz-adv-x="956" 
d="M899 541q0 -258 -114 -413t-312 -155q-85 0 -154.5 28.5t-117.5 78.5t-81 119.5t-48 150.5t-15 174q0 114 26 212.5t77 175t133 120t186 43.5q188 0 304 -135t116 -399zM604 547q0 57 -2 96t-9.5 84t-20.5 72t-38 45t-59 18q-40 0 -66 -25.5t-38.5 -76t-16.5 -104
t-4 -132.5q0 -43 0.5 -69t3 -66.5t7.5 -65t14 -53.5t22.5 -45.5t34.5 -27.5t47 -11q41 0 67.5 29t38.5 86t15.5 111.5t3.5 134.5zM819 1454q-52 -77 -146 -150t-190 -73q-101 0 -202 75.5t-142 147.5l101 115q130 -119 249 -119q88 0 246 119z" />
    <glyph glyph-name="Ohungarumlaut" unicode="&#x150;" horiz-adv-x="1230" 
d="M1159 748q0 -122 -14.5 -227.5t-52 -208.5t-97 -175.5t-156 -117t-221.5 -44.5q-139 0 -245.5 56.5t-171 155.5t-97 225t-32.5 274q0 364 146 563t392 199q99 0 182.5 -29t142.5 -80.5t103 -118.5t70 -147t38.5 -160.5t12.5 -164.5zM848 711q0 79 -3.5 138.5t-12 120.5
t-25.5 103t-42.5 76t-64 51t-88.5 17q-227 0 -227 -488q0 -92 5 -163t20.5 -140.5t40.5 -115t68 -73.5t102 -28q57 0 98.5 26.5t66 69.5t39 111t19 136t4.5 159zM834 1878l-314 -373l-160 109l252 405zM1247 1825l-366 -320l-140 133l314 361z" />
    <glyph glyph-name="ohungarumlaut" unicode="&#x151;" horiz-adv-x="956" 
d="M899 541q0 -258 -114 -413t-312 -155q-85 0 -154.5 28.5t-117.5 78.5t-81 119.5t-48 150.5t-15 174q0 114 26 212.5t77 175t133 120t186 43.5q188 0 304 -135t116 -399zM604 547q0 57 -2 96t-9.5 84t-20.5 72t-38 45t-59 18q-40 0 -66 -25.5t-38.5 -76t-16.5 -104
t-4 -132.5q0 -43 0.5 -69t3 -66.5t7.5 -65t14 -53.5t22.5 -45.5t34.5 -27.5t47 -11q41 0 67.5 29t38.5 86t15.5 111.5t3.5 134.5zM639 1561l-236 -424l-178 75l170 447zM1028 1524l-299 -383l-162 104l240 414z" />
    <glyph glyph-name="OE" unicode="&#x152;" horiz-adv-x="1495" 
d="M1454 0h-795q-120 0 -209 27.5t-165 89.5q-213 176 -213 567q0 358 164 553q158 186 417 186h779l-21 -264h-410v-291h334v-258h-334v-342h453v-268zM723 266v891q-45 10 -84 10q-144 0 -207 -143q-49 -116 -49 -305q0 -259 70 -369q61 -96 182 -96q45 0 88 12z" />
    <glyph glyph-name="oe" unicode="&#x153;" horiz-adv-x="1454" 
d="M1405 432h-524v-16q0 -83 32 -140q46 -77 142 -77q123 0 237 102l105 -180q-162 -146 -359 -146q-184 0 -288 113q-123 -117 -271 -117q-194 0 -306 145.5t-112 403.5q0 249 118 402t313 153q155 0 262 -104q97 104 252 104q167 0 268 -104q131 -137 131 -467v-72z
M610 545q0 70 -4 117.5t-16.5 95.5t-39.5 72t-69 24q-38 0 -64 -25t-39.5 -73t-18.5 -103.5t-5 -130.5q0 -49 1 -80t4.5 -74t12.5 -69.5t22.5 -52.5t36.5 -38.5t54 -12.5q33 0 56.5 20t36.5 50.5t20.5 79.5t9.5 93.5t2 106.5zM1135 637q0 98 -23 151q-28 68 -100 68
q-64 0 -97 -52t-34 -167h254z" />
    <glyph glyph-name="Racute" unicode="&#x154;" horiz-adv-x="1085" 
d="M1061 0h-330q-1 3 -25.5 67t-51.5 134t-55 139.5t-38 89.5q-43 95 -71 123.5t-78 28.5v-582h-279v1423h375q487 0 487 -403q0 -166 -78.5 -267.5t-195.5 -117.5q34 -16 68 -59.5t59 -96.5q160 -347 213 -479zM690 1006q0 94 -45.5 134t-138.5 40h-94v-373h98
q97 0 138.5 50.5t41.5 148.5zM809 1704l-408 -199l-90 146l379 250z" />
    <glyph glyph-name="racute" unicode="&#x155;" horiz-adv-x="665" 
d="M682 1053l-70 -256q-41 24 -80 24q-50 0 -88 -32.5t-38 -77.5v-711h-273v752q0 115 -31 270l252 51q23 -78 23 -121v-10q30 60 83 98.5t120 38.5q48 0 102 -26zM582 1335l-408 -198l-90 145l379 250z" />
    <glyph glyph-name="uni0156" unicode="&#x156;" horiz-adv-x="1085" 
d="M1061 0h-330q-1 3 -25.5 67t-51.5 134t-55 139.5t-38 89.5q-43 95 -71 123.5t-78 28.5v-582h-279v1423h375q487 0 487 -403q0 -166 -78.5 -267.5t-195.5 -117.5q34 -16 68 -59.5t59 -96.5q160 -347 213 -479zM690 1006q0 94 -45.5 134t-138.5 40h-94v-373h98
q97 0 138.5 50.5t41.5 148.5zM707 -250q0 -96 -60 -166q-22 -29 -63 -56t-88 -40l-84 84q45 10 72.5 33.5t27.5 50.5q0 11 -3.5 17t-17 14.5t-20.5 13.5q-51 37 -51 100q0 54 38.5 89.5t94.5 35.5q72 0 113 -47t41 -129z" />
    <glyph glyph-name="uni0157" unicode="&#x157;" horiz-adv-x="665" 
d="M682 1053l-70 -256q-41 24 -80 24q-50 0 -88 -32.5t-38 -77.5v-711h-273v752q0 115 -31 270l252 51q23 -78 23 -121v-10q30 60 83 98.5t120 38.5q48 0 102 -26zM414 -250q0 -96 -60 -166q-22 -29 -63 -56t-88 -40l-84 84q45 10 72.5 33.5t27.5 50.5q0 11 -3.5 17
t-17 14.5t-20.5 13.5q-51 37 -51 100q0 54 38.5 89.5t94.5 35.5q72 0 113 -47t41 -129z" />
    <glyph glyph-name="Rcaron" unicode="&#x158;" horiz-adv-x="1085" 
d="M1061 0h-330q-1 3 -25.5 67t-51.5 134t-55 139.5t-38 89.5q-43 95 -71 123.5t-78 28.5v-582h-279v1423h375q487 0 487 -403q0 -166 -78.5 -267.5t-195.5 -117.5q34 -16 68 -59.5t59 -96.5q160 -347 213 -479zM690 1006q0 94 -45.5 134t-138.5 40h-94v-373h98
q97 0 138.5 50.5t41.5 148.5zM864 1778l-327 -275l-334 275l86 159l248 -149l239 147z" />
    <glyph glyph-name="rcaron" unicode="&#x159;" horiz-adv-x="665" 
d="M682 1053l-70 -256q-41 24 -80 24q-50 0 -88 -32.5t-38 -77.5v-711h-273v752q0 115 -31 270l252 51q23 -78 23 -121v-10q30 60 83 98.5t120 38.5q48 0 102 -26zM668 1409l-328 -274l-334 274l86 160l248 -150l240 148z" />
    <glyph glyph-name="Sacute" unicode="&#x15a;" horiz-adv-x="1085" 
d="M1014 436q0 -144 -70 -250t-186.5 -158.5t-261.5 -52.5q-251 0 -445 134l121 225q150 -117 322 -117q95 0 151.5 45t56.5 127q0 60 -36.5 94.5t-114.5 71.5l-166 78q-46 22 -79 40.5t-72 51.5t-62.5 70.5t-40 94t-16.5 124.5q0 191 127.5 312.5t326.5 121.5
q243 0 422 -129l-129 -205q-76 48 -138.5 73t-129.5 25q-78 0 -126 -37t-48 -104q0 -57 31 -94.5t90 -63.5l207 -90q57 -24 101 -54t83.5 -75.5t60.5 -110.5t21 -147zM836 1704l-408 -199l-90 146l379 250z" />
    <glyph glyph-name="sacute" unicode="&#x15b;" horiz-adv-x="872" 
d="M811 338q0 -166 -107.5 -265.5t-283.5 -99.5q-189 0 -369 121l90 207q62 -48 141.5 -82.5t143.5 -34.5q49 0 83 30.5t34 72.5q0 37 -25 63.5t-64.5 43.5t-87.5 33.5t-95.5 39.5t-87 54t-64.5 84t-25 124q0 157 96.5 252.5t255.5 95.5q183 0 328 -88l-84 -192
q-117 71 -211 71q-44 0 -71 -22.5t-27 -57.5q0 -39 23.5 -66.5t61.5 -45t84 -33.5t92 -38.5t84 -54t61.5 -85.5t23.5 -127zM696 1335l-407 -198l-90 145l379 250z" />
    <glyph glyph-name="Scircumflex" unicode="&#x15c;" horiz-adv-x="1085" 
d="M1014 436q0 -144 -70 -250t-186.5 -158.5t-261.5 -52.5q-251 0 -445 134l121 225q150 -117 322 -117q95 0 151.5 45t56.5 127q0 60 -36.5 94.5t-114.5 71.5l-166 78q-46 22 -79 40.5t-72 51.5t-62.5 70.5t-40 94t-16.5 124.5q0 191 127.5 312.5t326.5 121.5
q243 0 422 -129l-129 -205q-76 48 -138.5 73t-129.5 25q-78 0 -126 -37t-48 -104q0 -57 31 -94.5t90 -63.5l207 -90q57 -24 101 -54t83.5 -75.5t60.5 -110.5t21 -147zM907 1657l-92 -158l-246 148l-241 -148l-82 158l334 252z" />
    <glyph glyph-name="scircumflex" unicode="&#x15d;" horiz-adv-x="872" 
d="M811 338q0 -166 -107.5 -265.5t-283.5 -99.5q-189 0 -369 121l90 207q62 -48 141.5 -82.5t143.5 -34.5q49 0 83 30.5t34 72.5q0 37 -25 63.5t-64.5 43.5t-87.5 33.5t-95.5 39.5t-87 54t-64.5 84t-25 124q0 157 96.5 252.5t255.5 95.5q183 0 328 -88l-84 -192
q-117 71 -211 71q-44 0 -71 -22.5t-27 -57.5q0 -39 23.5 -66.5t61.5 -45t84 -33.5t92 -38.5t84 -54t61.5 -85.5t23.5 -127zM784 1288l-92 -158l-246 148l-241 -148l-82 158l334 252z" />
    <glyph glyph-name="Scedilla" unicode="&#x15e;" horiz-adv-x="1085" 
d="M688 -207q0 -83 -51.5 -142t-157.5 -59q-39 0 -82.5 12.5t-72.5 30.5l55 119q43 -24 88 -24q29 0 46 13.5t17 39.5q0 51 -63 51q-29 0 -49 -4l-17 33l31 114q-211 14 -381 132l121 225q150 -117 322 -117q95 0 151.5 45t56.5 127q0 60 -36.5 94.5t-114.5 71.5l-166 78
q-46 22 -79 40.5t-72 51.5t-62.5 70.5t-40 94t-16.5 124.5q0 191 127.5 312.5t326.5 121.5q243 0 422 -129l-129 -205q-76 48 -138.5 73t-129.5 25q-78 0 -126 -37t-48 -104q0 -57 31 -94.5t90 -63.5l207 -90q57 -24 101 -54t83.5 -75.5t60.5 -110.5t21 -147
q0 -197 -125 -316.5t-322 -139.5l-12 -39q65 -7 99 -47t34 -101z" />
    <glyph glyph-name="scedilla" unicode="&#x15f;" horiz-adv-x="872" 
d="M811 338q0 -150 -87.5 -246t-236.5 -115l-10 -36q65 -7 99 -47t34 -101q0 -83 -51.5 -142t-157.5 -59q-39 0 -82.5 12.5t-72.5 30.5l55 119q43 -24 88 -24q29 0 46.5 14t17.5 39q0 51 -64 51q-29 0 -49 -4l-16 33l30 114q-157 18 -303 117l90 207q62 -48 141.5 -82.5
t143.5 -34.5q49 0 83 30.5t34 72.5q0 37 -25 63.5t-64.5 43.5t-87.5 33.5t-95.5 39.5t-87 54t-64.5 84t-25 124q0 157 96.5 252.5t255.5 95.5q183 0 328 -88l-84 -192q-117 71 -211 71q-44 0 -71 -22.5t-27 -57.5q0 -39 23.5 -66.5t61.5 -45t84 -33.5t92 -38.5t84 -54
t61.5 -85.5t23.5 -127z" />
    <glyph glyph-name="Scaron" unicode="&#x160;" horiz-adv-x="1085" 
d="M1014 436q0 -144 -70 -250t-186.5 -158.5t-261.5 -52.5q-251 0 -445 134l121 225q150 -117 322 -117q95 0 151.5 45t56.5 127q0 60 -36.5 94.5t-114.5 71.5l-166 78q-46 22 -79 40.5t-72 51.5t-62.5 70.5t-40 94t-16.5 124.5q0 191 127.5 312.5t326.5 121.5
q243 0 422 -129l-129 -205q-76 48 -138.5 73t-129.5 25q-78 0 -126 -37t-48 -104q0 -57 31 -94.5t90 -63.5l207 -90q57 -24 101 -54t83.5 -75.5t60.5 -110.5t21 -147zM868 1778l-327 -275l-334 275l86 159l248 -149l239 147z" />
    <glyph glyph-name="scaron" unicode="&#x161;" horiz-adv-x="872" 
d="M811 338q0 -166 -107.5 -265.5t-283.5 -99.5q-189 0 -369 121l90 207q62 -48 141.5 -82.5t143.5 -34.5q49 0 83 30.5t34 72.5q0 37 -25 63.5t-64.5 43.5t-87.5 33.5t-95.5 39.5t-87 54t-64.5 84t-25 124q0 157 96.5 252.5t255.5 95.5q183 0 328 -88l-84 -192
q-117 71 -211 71q-44 0 -71 -22.5t-27 -57.5q0 -39 23.5 -66.5t61.5 -45t84 -33.5t92 -38.5t84 -54t61.5 -85.5t23.5 -127zM748 1409l-328 -274l-334 274l86 160l248 -150l239 148z" />
    <glyph glyph-name="uni0162" unicode="&#x162;" horiz-adv-x="899" 
d="M635 -207q0 -83 -51.5 -142t-157.5 -59q-39 0 -83 12.5t-73 30.5l56 119q44 -24 88 -24q29 0 46 13.5t17 39.5q0 51 -63 51q-29 0 -49 -4l-17 33l37 137h-61v1178h-297v245h909l-33 -245h-299v-1178h-84l-18 -59q65 -7 99 -47t34 -101z" />
    <glyph glyph-name="uni0163" unicode="&#x163;" horiz-adv-x="643" 
d="M526 -207q0 -83 -51.5 -142t-157.5 -59q-39 0 -82.5 12.5t-72.5 30.5l55 119q43 -24 88 -24q29 0 46.5 14t17.5 39q0 51 -64 51q-29 0 -49 -4l-16 33l32 125q-8 4 -10 4q-129 47 -129 229v625h-86v201h86q0 173 14 266l267 41q-8 -86 -8 -307h182l-39 -201h-146v-496
q0 -104 20.5 -139t82.5 -35q43 0 78 21l34 -170q-106 -56 -215 -56h-2l-8 -30q65 -7 99 -47t34 -101z" />
    <glyph glyph-name="Tcaron" unicode="&#x164;" horiz-adv-x="899" 
d="M936 1423l-33 -245h-299v-1178h-280v1178h-297v245h909zM803 1778l-328 -275l-334 275l86 159l248 -149l240 147z" />
    <glyph glyph-name="tcaron" unicode="&#x165;" horiz-adv-x="727" 
d="M618 27q-106 -56 -215 -56q-79 0 -141 21q-129 47 -129 229v625h-86v201h86q0 173 14 266l267 41q-8 -86 -8 -307h182l-39 -201h-146v-496q0 -104 20.5 -139t82.5 -35q43 0 78 21z" />
    <glyph glyph-name="Tbar" unicode="&#x166;" horiz-adv-x="899" 
d="M809 674h-205v-674h-280v674h-205v174h205v330h-297v245h909l-33 -245h-299v-330h205v-174z" />
    <glyph glyph-name="tbar" unicode="&#x167;" horiz-adv-x="643" 
d="M588 694l-35 -174h-150v-170q0 -104 20.5 -139t82.5 -35q43 0 78 21l34 -170q-106 -56 -215 -56q-79 0 -141 21q-129 47 -129 229v299h-86v174h86v152h-86v201h86q0 173 14 266l267 41q-8 -86 -8 -307h182l-39 -201h-146v-152h185z" />
    <glyph glyph-name="Utilde" unicode="&#x168;" horiz-adv-x="1155" 
d="M1032 1423v-995q0 -100 -9.5 -153t-35.5 -99q-49 -88 -152.5 -144.5t-259.5 -56.5q-290 0 -397 183q-33 59 -44 111.5t-11 170.5v983h280v-964q0 -45 4 -80t15.5 -68t31 -54t51 -33.5t73.5 -12.5q101 0 137.5 56.5t36.5 178.5v977h280zM897 1636q-41 -59 -93 -86.5
t-128 -27.5q-55 0 -120.5 37.5t-115.5 37.5q-70 0 -125 -65l-71 172q44 62 94 91.5t117 29.5q57 0 123.5 -36t115.5 -36q38 0 72.5 18t56.5 44z" />
    <glyph glyph-name="utilde" unicode="&#x169;" 
d="M946 78l-229 -107q-37 41 -53 109q-94 -109 -242 -109q-57 0 -102.5 11.5t-76.5 30.5t-53.5 50t-35 62.5t-20 76.5t-9.5 84t-2 91v653l272 43v-743q0 -75 22 -105t77 -30q37 0 64 20t65 68v747l270 41v-758q0 -144 53 -235zM834 1309q-41 -59 -93.5 -87t-128.5 -28
q-55 0 -120 38t-115 38q-69 0 -125 -66l-72 172q44 62 94 91.5t117 29.5q57 0 124 -36t116 -36q38 0 72.5 18t56.5 44z" />
    <glyph glyph-name="Umacron" unicode="&#x16a;" horiz-adv-x="1155" 
d="M1032 1423v-995q0 -100 -9.5 -153t-35.5 -99q-49 -88 -152.5 -144.5t-259.5 -56.5q-290 0 -397 183q-33 59 -44 111.5t-11 170.5v983h280v-964q0 -45 4 -80t15.5 -68t31 -54t51 -33.5t73.5 -12.5q101 0 137.5 56.5t36.5 178.5v977h280zM870 1540h-583v174h583v-174z" />
    <glyph glyph-name="umacron" unicode="&#x16b;" 
d="M946 78l-229 -107q-37 41 -53 109q-94 -109 -242 -109q-57 0 -102.5 11.5t-76.5 30.5t-53.5 50t-35 62.5t-20 76.5t-9.5 84t-2 91v653l272 43v-743q0 -75 22 -105t77 -30q37 0 64 20t65 68v747l270 41v-758q0 -144 53 -235zM788 1171h-583v175h583v-175z" />
    <glyph glyph-name="Ubreve" unicode="&#x16c;" horiz-adv-x="1155" 
d="M1032 1423v-995q0 -100 -9.5 -153t-35.5 -99q-49 -88 -152.5 -144.5t-259.5 -56.5q-290 0 -397 183q-33 59 -44 111.5t-11 170.5v983h280v-964q0 -45 4 -80t15.5 -68t31 -54t51 -33.5t73.5 -12.5q101 0 137.5 56.5t36.5 178.5v977h280zM913 1823q-22 -32 -54.5 -67.5
t-76.5 -72.5t-98.5 -60.5t-105.5 -23.5q-101 0 -202.5 76t-142.5 148l101 114q128 -118 250 -118q89 0 245 118z" />
    <glyph glyph-name="ubreve" unicode="&#x16d;" 
d="M946 78l-229 -107q-37 41 -53 109q-94 -109 -242 -109q-57 0 -102.5 11.5t-76.5 30.5t-53.5 50t-35 62.5t-20 76.5t-9.5 84t-2 91v653l272 43v-743q0 -75 22 -105t77 -30q37 0 64 20t65 68v747l270 41v-758q0 -144 53 -235zM848 1454q-52 -77 -146 -150t-190 -73
q-101 0 -202 75.5t-142 147.5l100 115q130 -119 250 -119q88 0 246 119z" />
    <glyph glyph-name="Uring" unicode="&#x16e;" horiz-adv-x="1155" 
d="M1032 1423v-995q0 -100 -9.5 -153t-35.5 -99q-49 -88 -152.5 -144.5t-259.5 -56.5q-290 0 -397 183q-33 59 -44 111.5t-11 170.5v983h280v-964q0 -45 4 -80t15.5 -68t31 -54t51 -33.5t73.5 -12.5q101 0 137.5 56.5t36.5 178.5v977h280zM797 1677q0 -85 -66.5 -148
t-152.5 -63q-94 0 -159 62t-65 149q0 86 67 148.5t157 62.5q89 0 154 -62.5t65 -148.5zM664 1677q0 38 -26 65t-60 27q-39 0 -64 -26.5t-25 -65.5q0 -38 25 -64t61 -26q38 0 63.5 26t25.5 64z" />
    <glyph glyph-name="uring" unicode="&#x16f;" 
d="M946 78l-229 -107q-37 41 -53 109q-94 -109 -242 -109q-57 0 -102.5 11.5t-76.5 30.5t-53.5 50t-35 62.5t-20 76.5t-9.5 84t-2 91v653l272 43v-743q0 -75 22 -105t77 -30q37 0 64 20t65 68v747l270 41v-758q0 -144 53 -235zM717 1350q0 -85 -66.5 -148t-152.5 -63
q-94 0 -159 62t-65 149q0 86 67 148.5t157 62.5q89 0 154 -62.5t65 -148.5zM584 1350q0 38 -26 65t-60 27q-39 0 -63.5 -26.5t-24.5 -65.5q0 -38 25 -64t61 -26q38 0 63 26t25 64z" />
    <glyph glyph-name="Uhungarumlaut" unicode="&#x170;" horiz-adv-x="1155" 
d="M1032 1423v-995q0 -100 -9.5 -153t-35.5 -99q-49 -88 -152.5 -144.5t-259.5 -56.5q-290 0 -397 183q-33 59 -44 111.5t-11 170.5v983h280v-964q0 -45 4 -80t15.5 -68t31 -54t51 -33.5t73.5 -12.5q101 0 137.5 56.5t36.5 178.5v977h280zM758 1878l-314 -373l-159 109
l252 405zM1171 1825l-366 -320l-139 133l313 361z" />
    <glyph glyph-name="uhungarumlaut" unicode="&#x171;" 
d="M946 78l-229 -107q-37 41 -53 109q-94 -109 -242 -109q-57 0 -102.5 11.5t-76.5 30.5t-53.5 50t-35 62.5t-20 76.5t-9.5 84t-2 91v653l272 43v-743q0 -75 22 -105t77 -30q37 0 64 20t65 68v747l270 41v-758q0 -144 53 -235zM584 1561l-236 -424l-178 75l170 447z
M973 1524l-299 -383l-162 104l240 414z" />
    <glyph glyph-name="Uogonek" unicode="&#x172;" horiz-adv-x="1155" 
d="M821 -356q-118 -58 -215 -58q-82 0 -135 52t-53 141q0 105 80 201q-230 21 -320 178q-33 59 -44 111.5t-11 170.5v983h280v-964q0 -45 4 -80t15.5 -68t31 -54t51 -33.5t73.5 -12.5q101 0 137.5 56.5t36.5 178.5v977h280v-995q0 -100 -9.5 -153t-35.5 -99
q-78 -140 -258 -182q-42 -28 -74 -82t-32 -100q0 -23 14 -37.5t39 -14.5q36 0 90 33z" />
    <glyph glyph-name="uogonek" unicode="&#x173;" 
d="M961 -356q-118 -58 -216 -58q-82 0 -135 52t-53 141q0 135 125 246q-8 14 -18 55q-94 -109 -242 -109q-57 0 -102.5 11.5t-76.5 30.5t-53.5 50t-35 62.5t-20 76.5t-9.5 84t-2 91v653l272 43v-743q0 -75 22 -105t77 -30q37 0 64 20t65 68v747l270 41v-758q0 -144 53 -235
q-7 -6 -32.5 -28t-41 -36t-39 -39t-37 -45.5t-24 -48t-10.5 -53.5q0 -68 53 -68q36 0 90 33z" />
    <glyph glyph-name="Wcircumflex" unicode="&#x174;" horiz-adv-x="1548" 
d="M1546 1423l-291 -1423h-340l-102 711q-35 240 -41 305q-38 -281 -41 -303l-106 -713h-346l-277 1423h303l109 -700q19 -121 45 -365q26 236 45 355l112 710h320l117 -716q13 -83 41 -353q22 189 47 367l102 702h303zM1112 1657l-92 -158l-246 148l-242 -148l-81 158
l333 252z" />
    <glyph glyph-name="wcircumflex" unicode="&#x175;" horiz-adv-x="1306" 
d="M1300 1049l-249 -1051h-273l-94 469q-26 124 -37 242q-1 -6 -16.5 -101t-24.5 -145l-98 -465h-264l-238 1030l273 37l71 -424q18 -120 41 -317q9 50 27.5 151.5t27.5 151.5l80 422h258l90 -447q6 -32 15 -92.5t17.5 -121.5t8.5 -62q0 2 4.5 43t9.5 87t12 100.5t13 86.5
l68 406h278zM979 1288l-92 -158l-246 148l-242 -148l-82 158l334 252z" />
    <glyph glyph-name="Ycircumflex" unicode="&#x176;" horiz-adv-x="999" 
d="M1034 1423l-397 -901v-522h-287v520l-385 903h334l145 -454q42 -141 58 -205q7 33 28.5 112.5t26.5 92.5l148 454h329zM838 1657l-93 -158l-245 148l-242 -148l-82 158l334 252z" />
    <glyph glyph-name="ycircumflex" unicode="&#x177;" horiz-adv-x="901" 
d="M924 1049l-332 -1059q-68 -217 -168.5 -323t-267.5 -134l-95 199q131 36 186.5 87t102.5 181h-86q-18 110 -71 293l-216 743l277 33l129 -504q39 -158 49 -350q55 249 78 330l137 504h277zM782 1288l-92 -158l-246 148l-241 -148l-82 158l334 252z" />
    <glyph glyph-name="Ydieresis" unicode="&#x178;" horiz-adv-x="999" 
d="M1034 1423l-397 -901v-522h-287v520l-385 903h334l145 -454q42 -141 58 -205q7 33 28.5 112.5t26.5 92.5l148 454h329zM442 1688q0 -61 -43.5 -104.5t-103.5 -43.5q-62 0 -108 43.5t-46 104.5q0 62 43.5 104.5t104.5 42.5q64 0 108.5 -42.5t44.5 -104.5zM864 1688
q0 -61 -43.5 -104.5t-103.5 -43.5q-62 0 -108 43.5t-46 104.5q0 62 43.5 104.5t104.5 42.5q64 0 108.5 -42.5t44.5 -104.5z" />
    <glyph glyph-name="Zacute" unicode="&#x179;" horiz-adv-x="970" 
d="M909 248l-28 -248h-820v203l451 856q27 52 80 131q-88 -10 -133 -10h-363l27 243h780v-213l-450 -866q-21 -40 -66 -104q94 8 135 8h387zM778 1704l-407 -199l-90 146l378 250z" />
    <glyph glyph-name="zacute" unicode="&#x17a;" horiz-adv-x="774" 
d="M713 215l-33 -215h-619v201l353 637h-336v211h618v-215l-346 -619h363zM637 1335l-408 -198l-90 145l379 250z" />
    <glyph glyph-name="Zdotaccent" unicode="&#x17b;" horiz-adv-x="970" 
d="M909 248l-28 -248h-820v203l451 856q27 52 80 131q-88 -10 -133 -10h-363l27 243h780v-213l-450 -866q-21 -40 -66 -104q94 8 135 8h387zM690 1722q0 -75 -52.5 -128.5t-125.5 -53.5q-72 0 -124 53.5t-52 128.5t52.5 130t125.5 55q72 0 124 -55t52 -130z" />
    <glyph glyph-name="zdotaccent" unicode="&#x17c;" horiz-adv-x="774" 
d="M713 215l-33 -215h-619v201l353 637h-336v211h618v-215l-346 -619h363zM565 1315q0 -75 -52.5 -128.5t-125.5 -53.5q-72 0 -124 53.5t-52 128.5t52.5 129.5t125.5 54.5q72 0 124 -54.5t52 -129.5z" />
    <glyph glyph-name="Zcaron" unicode="&#x17d;" horiz-adv-x="970" 
d="M909 248l-28 -248h-820v203l451 856q27 52 80 131q-88 -10 -133 -10h-363l27 243h780v-213l-450 -866q-21 -40 -66 -104q94 8 135 8h387zM834 1778l-328 -275l-334 275l86 159l248 -149l239 147z" />
    <glyph glyph-name="zcaron" unicode="&#x17e;" horiz-adv-x="774" 
d="M713 215l-33 -215h-619v201l353 637h-336v211h618v-215l-346 -619h363zM723 1409l-328 -274l-334 274l86 160l248 -150l240 148z" />
    <glyph glyph-name="longs" unicode="&#x17f;" horiz-adv-x="589" 
d="M662 1460l-70 -180q-45 29 -103 29q-36 0 -58.5 -28t-22.5 -75v-1206h-275v844h-80v205h80q-6 123 -6 131q0 203 121 286q72 50 186 50q133 0 228 -56z" />
    <glyph glyph-name="uni018F" unicode="&#x18f;" horiz-adv-x="1167" 
d="M72 791h716v34q0 166 -70 272.5t-202 106.5q-145 0 -262 -114l-129 196q166 160 410 160q259 0 410 -198.5t151 -547.5q0 -348 -146 -535.5t-387 -187.5q-90 0 -162.5 25t-123 66.5t-88 103.5t-59.5 127.5t-35.5 147.5t-18 155t-4.5 158v31zM383 569q1 -37 2.5 -61.5
t6.5 -65.5t12 -69t21.5 -61t33.5 -53t48.5 -34t65.5 -14q98 0 152.5 97.5t62.5 260.5h-405z" />
    <glyph glyph-name="florin" unicode="&#x192;" horiz-adv-x="587" 
d="M684 1464l-61 -194q-54 26 -95 26q-40 0 -66.5 -31.5t-29.5 -93.5l-6 -124h203l-62 -205h-149l-49 -787q-6 -102 -19 -172.5t-31.5 -121t-54.5 -90t-74 -68t-104 -66.5l-121 201q82 46 111 99.5t35 158.5l49 846h-74v205h84l6 139q4 95 36.5 167.5t88.5 112.5
q74 52 174 52q109 0 209 -54z" />
    <glyph glyph-name="uni01B5" unicode="&#x1b5;" horiz-adv-x="970" 
d="M125 821h262l125 238q27 52 80 131q-88 -10 -133 -10h-363l27 243h780v-213l-203 -389h185v-174h-275l-157 -303q-21 -40 -66 -104q94 8 135 8h387l-28 -248h-820v203l234 444h-170v174z" />
    <glyph glyph-name="uni01B6" unicode="&#x1b6;" horiz-adv-x="774" 
d="M686 453h-203l-133 -238h363l-33 -215h-619v201l140 252h-113v174h209l117 211h-336v211h618v-215l-116 -207h106v-174z" />
    <glyph glyph-name="uni01C4" unicode="&#x1c4;" horiz-adv-x="2093" 
d="M1051 731q0 -372 -148 -565q-129 -166 -354 -166h-416v1423h377q210 0 326 -88q113 -84 164 -234t51 -370zM743 735q0 102 -10.5 179t-35 138.5t-68.5 93.5t-107 32h-110v-932h118q73 0 118.5 45.5t70 154.5t24.5 289zM2032 248l-29 -248h-819v203l450 856q27 52 80 131
q-88 -10 -133 -10h-362l26 243h780v-213l-450 -866q-21 -40 -66 -104q94 8 136 8h387zM1956 1778l-328 -275l-334 275l86 159l248 -149l240 147z" />
    <glyph glyph-name="uni01C5" unicode="&#x1c5;" horiz-adv-x="1896" 
d="M1051 731q0 -372 -148 -565q-129 -166 -354 -166h-416v1423h377q210 0 326 -88q113 -84 164 -234t51 -370zM743 735q0 102 -10.5 179t-35 138.5t-68.5 93.5t-107 32h-110v-932h118q73 0 118.5 45.5t70 154.5t24.5 289zM1835 215l-33 -215h-618v201l352 637h-336v211h619
v-215l-346 -619h362zM1845 1409l-327 -274l-334 274l86 160l248 -150l239 148z" />
    <glyph glyph-name="uni01C6" unicode="&#x1c6;" horiz-adv-x="1777" 
d="M891 0h-236q-12 28 -16 76q-77 -99 -199 -99q-176 0 -272 139.5t-96 391.5q0 107 22 204t66 179.5t121.5 132t177.5 49.5q41 0 83 -16.5t68 -40.5q-10 60 -10 162v315l272 -41v-1178q0 -179 19 -274zM600 266v533q-25 51 -100 51q-43 0 -71.5 -25.5t-41.5 -76.5
t-17.5 -103t-4.5 -127q0 -39 1.5 -68.5t5 -68t12.5 -66t23 -53t36.5 -38.5t52.5 -13q35 0 63.5 14.5t40.5 40.5zM1716 215l-33 -215h-618v201l352 637h-336v211h619v-215l-346 -619h362zM1726 1409l-327 -274l-334 274l86 160l248 -150l239 148z" />
    <glyph glyph-name="uni01C7" unicode="&#x1c7;" horiz-adv-x="1388" 
d="M850 248l-51 -248h-666v1423h279v-1175h438zM1255 1423v-1294q0 -191 -90 -317q-80 -113 -223 -170l-133 155q61 43 93 79.5t50 88.5q25 74 25 279v1179h278z" />
    <glyph glyph-name="uni01C8" unicode="&#x1c8;" horiz-adv-x="1376" 
d="M850 248l-51 -248h-666v1423h279v-1175h438zM1245 1067v-1036q0 -182 -37 -275q-28 -73 -82.5 -123t-148.5 -96l-115 156q63 50 87 116.5t24 192.5v1034zM1272 1333q0 -68 -51 -117t-121 -49q-68 0 -118 49.5t-50 116.5q0 68 51 117t121 49q69 0 118.5 -49t49.5 -117z
" />
    <glyph glyph-name="uni01C9" unicode="&#x1c9;" horiz-adv-x="1075" 
d="M551 6q-71 -31 -178 -31q-127 0 -187 66q-33 39 -43 99t-10 161v913q0 116 -16 234l268 39q23 -170 23 -262v-828q0 -129 11 -166.5t56 -37.5q13 0 31 6zM944 1067v-1036q0 -182 -37 -275q-28 -73 -82.5 -123t-148.5 -96l-115 156q63 50 87 116.5t24 192.5v1034z
M971 1333q0 -68 -51 -117t-121 -49q-68 0 -118 49.5t-50 116.5q0 68 51 117t121 49q69 0 118.5 -49t49.5 -117z" />
    <glyph glyph-name="uni01CA" unicode="&#x1ca;" horiz-adv-x="1720" 
d="M1038 0h-290l-259 582q-26 58 -62 159t-46 136q0 -1 4.5 -58.5t9 -135.5t4.5 -130v-553h-266v1423h277l268 -587q36 -80 106 -289q0 1 -1.5 27.5t-3.5 68t-4 87.5t-3.5 95t-1.5 82v516h268v-1423zM1587 1423v-1294q0 -191 -90 -317q-80 -113 -223 -170l-133 155
q61 43 93 79.5t50 88.5q25 74 25 279v1179h278z" />
    <glyph glyph-name="uni01CB" unicode="&#x1cb;" horiz-adv-x="1708" 
d="M1038 0h-290l-259 582q-26 58 -62 159t-46 136q0 -1 4.5 -58.5t9 -135.5t4.5 -130v-553h-266v1423h277l268 -587q36 -80 106 -289q0 1 -1.5 27.5t-3.5 68t-4 87.5t-3.5 95t-1.5 82v516h268v-1423zM1577 1067v-1036q0 -182 -37 -275q-28 -73 -82.5 -123t-148.5 -96
l-115 156q63 50 87 116.5t24 192.5v1034zM1604 1333q0 -68 -51 -117t-121 -49q-68 0 -118 49.5t-50 116.5q0 68 51 117t121 49q69 0 118.5 -49t49.5 -117z" />
    <glyph glyph-name="uni01CC" unicode="&#x1cc;" horiz-adv-x="1568" 
d="M901 0h-272v702q0 87 -25 115q-16 21 -65 21q-65 0 -133 -74v-764h-273v752q0 115 -31 270l252 51q23 -72 25 -115q43 50 118 81.5t152 31.5q120 0 187 -70q65 -68 65 -196v-805zM1438 1067v-1036q0 -182 -37 -275q-28 -73 -83 -123t-149 -96l-114 156q63 49 86.5 116
t23.5 193v1034zM1464 1333q0 -68 -51 -117t-121 -49q-68 0 -118 49.5t-50 116.5q0 68 51 117t121 49q69 0 118.5 -49t49.5 -117z" />
    <glyph glyph-name="uni01F1" unicode="&#x1f1;" horiz-adv-x="2093" 
d="M1051 731q0 -372 -148 -565q-129 -166 -354 -166h-416v1423h377q210 0 326 -88q113 -84 164 -234t51 -370zM743 735q0 102 -10.5 179t-35 138.5t-68.5 93.5t-107 32h-110v-932h118q73 0 118.5 45.5t70 154.5t24.5 289zM2032 248l-29 -248h-819v203l450 856q27 52 80 131
q-88 -10 -133 -10h-362l26 243h780v-213l-450 -866q-21 -40 -66 -104q94 8 136 8h387z" />
    <glyph glyph-name="uni01F2" unicode="&#x1f2;" horiz-adv-x="1896" 
d="M1051 731q0 -372 -148 -565q-129 -166 -354 -166h-416v1423h377q210 0 326 -88q113 -84 164 -234t51 -370zM743 735q0 102 -10.5 179t-35 138.5t-68.5 93.5t-107 32h-110v-932h118q73 0 118.5 45.5t70 154.5t24.5 289zM1835 215l-33 -215h-618v201l352 637h-336v211h619
v-215l-346 -619h362z" />
    <glyph glyph-name="uni01F3" unicode="&#x1f3;" horiz-adv-x="1777" 
d="M891 0h-236q-12 28 -16 76q-77 -99 -199 -99q-176 0 -272 139.5t-96 391.5q0 107 22 204t66 179.5t121.5 132t177.5 49.5q41 0 83 -16.5t68 -40.5q-10 60 -10 162v315l272 -41v-1178q0 -179 19 -274zM600 266v533q-25 51 -100 51q-43 0 -71.5 -25.5t-41.5 -76.5
t-17.5 -103t-4.5 -127q0 -39 1.5 -68.5t5 -68t12.5 -66t23 -53t36.5 -38.5t52.5 -13q35 0 63.5 14.5t40.5 40.5zM1716 215l-33 -215h-618v201l352 637h-336v211h619v-215l-346 -619h362z" />
    <glyph glyph-name="Aringacute" unicode="&#x1fa;" horiz-adv-x="1069" 
d="M1083 0h-303l-78 319h-342l-81 -319h-293l401 1423h315zM649 543l-74 354q-21 99 -40 236q-5 -24 -21 -114t-22 -122l-74 -354h231zM766 1677q0 -85 -66.5 -148t-152.5 -63q-94 0 -158.5 62t-64.5 149q0 86 66.5 148.5t156.5 62.5q89 0 154 -62.5t65 -148.5zM633 1677
q0 38 -26 65t-60 27q-39 0 -63.5 -26.5t-24.5 -65.5q0 -38 25 -64t61 -26q38 0 63 26t25 64zM788 2087l-407 -199l-90 146l379 250z" />
    <glyph glyph-name="aringacute" unicode="&#x1fb;" horiz-adv-x="940" 
d="M879 135l-156 -176q-34 13 -69.5 48t-47.5 67q-97 -101 -237 -101q-82 0 -143 26.5t-96 74t-52 105t-17 126.5q0 157 113.5 252.5t310.5 95.5q31 0 54 -2v78q0 82 -21 105q-22 28 -72 28q-142 0 -268 -112l-102 184q201 141 405 141q124 0 206 -47t108 -137
q16 -56 16 -178l-4 -383q0 -75 15 -120.5t57 -74.5zM537 256v199q-6 2 -15 2q-104 0 -148 -36.5t-44 -107.5q0 -58 25.5 -89t74.5 -31q32 0 63.5 18.5t43.5 44.5zM647 1350q0 -85 -66.5 -148t-152.5 -63q-94 0 -158.5 62t-64.5 149q0 86 66.5 148.5t156.5 62.5
q89 0 154 -62.5t65 -148.5zM514 1350q0 38 -26 65t-60 27q-39 0 -63.5 -26.5t-24.5 -65.5q0 -38 25 -64t61 -26q38 0 63 26t25 64zM690 1776l-407 -199l-90 145l378 250z" />
    <glyph glyph-name="AEacute" unicode="&#x1fc;" horiz-adv-x="1486" 
d="M1446 0h-741v313h-318l-147 -313h-312l729 1423h766l-34 -262h-404v-293h338v-256h-338v-346h461v-266zM709 1032l-211 -471h207v346q0 39 4 125zM1237 1704l-408 -199l-90 146l379 250z" />
    <glyph glyph-name="aeacute" unicode="&#x1fd;" horiz-adv-x="1378" 
d="M1329 432h-524q0 -124 48.5 -179.5t125.5 -55.5q122 0 238 104l104 -182q-159 -144 -356 -144q-96 0 -180 33t-140 101q-41 -65 -116.5 -100.5t-157.5 -35.5q-151 0 -230.5 89t-79.5 243q0 89 36 157.5t98 109t137 61t160 20.5q8 0 24.5 -1t24.5 -1v68q0 60 -19 94.5
t-76 34.5q-134 0 -266 -115l-102 195q210 147 405 147q150 0 228 -82q82 82 219 82q399 0 399 -569v-74zM539 254v203q-6 2 -17 2q-90 0 -140 -32t-50 -116q0 -54 24 -88.5t76 -34.5q31 0 62.5 19t44.5 47zM1059 637q0 42 -3 72.5t-14 68.5t-38 59t-68 21q-126 0 -131 -221
h254zM961 1335l-408 -198l-90 145l379 250z" />
    <glyph glyph-name="Oslashacute" unicode="&#x1fe;" horiz-adv-x="1230" 
d="M1159 748q0 -123 -14.5 -229.5t-53 -209t-98 -174.5t-155.5 -116t-220 -44q-144 0 -256 62l-122 -232l-138 101l127 241q-157 189 -157 539q0 364 151.5 563t401.5 199q149 0 260 -68l108 201l142 -92l-119 -221q143 -188 143 -520zM758 1143q-50 53 -140 53
q-133 0 -192 -156q-41 -113 -41 -315q0 -138 21 -248zM848 709q0 121 -17 215l-344 -650q55 -49 138 -49q62 0 103.5 27t68.5 88q51 114 51 369zM864 1704l-407 -199l-90 146l378 250z" />
    <glyph glyph-name="oslashacute" unicode="&#x1ff;" horiz-adv-x="956" 
d="M899 541q0 -258 -114 -413t-312 -155q-98 0 -178 39l-70 -131l-112 72l75 141q-131 146 -131 430q0 114 26 212.5t77 175t133 120t186 43.5q115 0 203 -49l78 148l110 -74l-86 -162q115 -141 115 -397zM567 809q-29 53 -92 53q-40 0 -66 -25.5t-38.5 -76t-16.5 -104
t-4 -132.5t2 -118zM604 547v49l-201 -377q30 -33 76 -33q41 0 67.5 29t38.5 86t15.5 111.5t3.5 134.5zM727 1335l-408 -198l-90 145l379 250z" />
    <glyph glyph-name="uni0218" unicode="&#x218;" horiz-adv-x="1085" 
d="M1014 436q0 -144 -70 -250t-186.5 -158.5t-261.5 -52.5q-251 0 -445 134l121 225q150 -117 322 -117q95 0 151.5 45t56.5 127q0 60 -36.5 94.5t-114.5 71.5l-166 78q-46 22 -79 40.5t-72 51.5t-62.5 70.5t-40 94t-16.5 124.5q0 191 127.5 312.5t326.5 121.5
q243 0 422 -129l-129 -205q-76 48 -138.5 73t-129.5 25q-78 0 -126 -37t-48 -104q0 -57 31 -94.5t90 -63.5l207 -90q57 -24 101 -54t83.5 -75.5t60.5 -110.5t21 -147zM649 -250q0 -97 -59 -166q-22 -28 -63.5 -55.5t-88.5 -40.5l-84 84q45 10 73 33.5t28 50.5q0 11 -3.5 17
t-17 14.5t-20.5 13.5q-52 38 -52 100q0 53 39 89t95 36q72 0 112.5 -47t40.5 -129z" />
    <glyph glyph-name="uni0219" unicode="&#x219;" horiz-adv-x="872" 
d="M811 338q0 -166 -107.5 -265.5t-283.5 -99.5q-189 0 -369 121l90 207q62 -48 141.5 -82.5t143.5 -34.5q49 0 83 30.5t34 72.5q0 37 -25 63.5t-64.5 43.5t-87.5 33.5t-95.5 39.5t-87 54t-64.5 84t-25 124q0 157 96.5 252.5t255.5 95.5q183 0 328 -88l-84 -192
q-117 71 -211 71q-44 0 -71 -22.5t-27 -57.5q0 -39 23.5 -66.5t61.5 -45t84 -33.5t92 -38.5t84 -54t61.5 -85.5t23.5 -127zM573 -250q0 -97 -59 -166q-22 -28 -63.5 -55.5t-88.5 -40.5l-83 84q45 10 72.5 33.5t27.5 50.5q0 11 -3.5 17t-17 14.5t-20.5 13.5q-51 37 -51 100
q0 54 38.5 89.5t94.5 35.5q72 0 112.5 -47t40.5 -129z" />
    <glyph glyph-name="uni021A" unicode="&#x21a;" horiz-adv-x="899" 
d="M936 1423l-33 -245h-299v-1178h-280v1178h-297v245h909zM610 -250q0 -97 -59 -166q-22 -28 -63.5 -55.5t-88.5 -40.5l-84 84q45 10 73 33.5t28 50.5q0 11 -3.5 17t-17 14.5t-20.5 13.5q-51 37 -51 100q0 54 38.5 89.5t94.5 35.5q72 0 112.5 -47t40.5 -129z" />
    <glyph glyph-name="uni021B" unicode="&#x21b;" horiz-adv-x="643" 
d="M618 27q-106 -56 -215 -56q-79 0 -141 21q-129 47 -129 229v625h-86v201h86q0 173 14 266l267 41q-8 -86 -8 -307h182l-39 -201h-146v-496q0 -104 20.5 -139t82.5 -35q43 0 78 21zM522 -250q0 -97 -59 -166q-22 -28 -63.5 -55.5t-88.5 -40.5l-84 84q45 10 73 33.5
t28 50.5q0 11 -3.5 17t-17 14.5t-20.5 13.5q-51 37 -51 100q0 54 38.5 89.5t94.5 35.5q72 0 112.5 -47t40.5 -129z" />
    <glyph glyph-name="uni0237" unicode="&#x237;" horiz-adv-x="536" 
d="M406 31q0 -182 -37 -275q-28 -73 -83 -123t-149 -96l-114 156q63 49 86.5 116t23.5 193v1034l273 31v-1036z" />
    <glyph glyph-name="uni0259" unicode="&#x259;" horiz-adv-x="929" 
d="M72 600h524v18q0 100 -31 156q-46 84 -143 84q-116 0 -232 -104l-110 176q161 145 358 145q212 0 327.5 -143t115.5 -404q0 -269 -113 -415q-108 -138 -297 -138q-173 0 -276 109q-65 71 -94 182.5t-29 278.5v55zM344 406q0 -115 21 -166q29 -70 100 -70q67 0 98.5 54.5
t32.5 181.5h-252z" />
    <glyph glyph-name="uni02BB" unicode="&#x2bb;" horiz-adv-x="524" 
d="M461 1356q-61 -17 -97 -50t-36 -69q0 -13 4 -22t9.5 -13t18 -12.5t21.5 -15.5q68 -56 68 -142q0 -74 -51 -125t-124 -51q-95 0 -148.5 66.5t-53.5 181.5q0 132 75 233q29 39 85 77t116 56z" />
    <glyph glyph-name="uni02BC" unicode="&#x2bc;" horiz-adv-x="524" 
d="M453 1219q0 -132 -76 -234q-29 -39 -85 -77t-116 -56l-113 115q61 17 97.5 49.5t36.5 68.5q0 13 -4.5 22t-9.5 13.5t-18 13t-22 15.5q-67 56 -67 141q0 74 51 125t123 51q95 0 149 -66.5t54 -180.5z" />
    <glyph glyph-name="circumflex" unicode="&#x2c6;" horiz-adv-x="743" 
d="M702 1288l-92 -158l-245 148l-242 -148l-82 158l334 252z" />
    <glyph glyph-name="caron" unicode="&#x2c7;" horiz-adv-x="743" 
d="M702 1409l-327 -274l-334 274l86 160l248 -150l239 148z" />
    <glyph glyph-name="breve" unicode="&#x2d8;" horiz-adv-x="761" 
d="M721 1423q-52 -77 -146 -150t-190 -73q-101 0 -202 75.5t-142 147.5l100 115q130 -119 250 -119q88 0 246 119z" />
    <glyph glyph-name="dotaccent" unicode="&#x2d9;" horiz-adv-x="436" 
d="M395 1341q0 -75 -52.5 -128.5t-125.5 -53.5q-72 0 -124 53.5t-52 128.5t52.5 130t125.5 55q72 0 124 -55t52 -130z" />
    <glyph glyph-name="ring" unicode="&#x2da;" horiz-adv-x="524" 
d="M483 1350q0 -85 -66.5 -148t-152.5 -63q-94 0 -158.5 62t-64.5 149q0 86 66.5 148.5t156.5 62.5q89 0 154 -62.5t65 -148.5zM350 1350q0 38 -26 65t-60 27q-39 0 -63.5 -26.5t-24.5 -65.5q0 -38 25 -64t61 -26q38 0 63 26t25 64z" />
    <glyph glyph-name="ogonek" unicode="&#x2db;" horiz-adv-x="526" 
d="M465 -356q-118 -58 -215 -58q-82 0 -135.5 52t-53.5 141q0 62 31.5 122.5t62.5 92.5t64 57l162 -84q-48 -31 -81.5 -71.5t-33.5 -83.5q0 -23 14 -37.5t39 -14.5q37 0 91 33z" />
    <glyph glyph-name="tilde" unicode="&#x2dc;" horiz-adv-x="735" 
d="M694 1309q-41 -59 -93 -87t-128 -28q-55 0 -120 38t-115 38q-69 0 -125 -66l-72 172q44 62 94 91.5t117 29.5q57 0 124 -36t116 -36q38 0 72.5 18t56.5 44z" />
    <glyph glyph-name="hungarumlaut" unicode="&#x2dd;" horiz-adv-x="884" 
d="M455 1497l-236 -424l-178 76l170 446zM844 1460l-299 -383l-162 105l240 413z" />
    <glyph glyph-name="gravecomb" unicode="&#x300;" horiz-adv-x="2" 
d="M-248 1282l-86 -145l-409 196l112 199z" />
    <glyph glyph-name="acutecomb" unicode="&#x301;" horiz-adv-x="2" 
d="M-225 1335l-408 -198l-90 145l379 250z" />
    <glyph glyph-name="uni0302" unicode="&#x302;" horiz-adv-x="2" 
d="M-137 1288l-92 -158l-246 148l-242 -148l-82 158l334 252z" />
    <glyph glyph-name="tildecomb" unicode="&#x303;" horiz-adv-x="2" 
d="M-143 1309q-41 -59 -93.5 -87t-128.5 -28q-55 0 -120 38t-115 38q-69 0 -125 -66l-72 172q44 62 94 91.5t117 29.5q57 0 124 -36t116 -36q38 0 72.5 18t56.5 44z" />
    <glyph glyph-name="uni0304" unicode="&#x304;" horiz-adv-x="2" 
d="M-39 1247h-584v174h584v-174z" />
    <glyph glyph-name="uni0306" unicode="&#x306;" horiz-adv-x="2" 
d="M-39 1358q-52 -77 -146 -150t-190 -73q-101 0 -202 75.5t-142 147.5l101 115q130 -119 249 -119q88 0 246 119z" />
    <glyph glyph-name="uni0307" unicode="&#x307;" horiz-adv-x="2" 
d="M-100 1333q0 -68 -50 -117t-120 -49q-68 0 -118 49.5t-50 116.5q0 68 51 117t121 49q69 0 117.5 -49t48.5 -117z" />
    <glyph glyph-name="uni0308" unicode="&#x308;" horiz-adv-x="2" 
d="M-74 1319q0 -61 -43.5 -104.5t-103.5 -43.5q-62 0 -108 43.5t-46 104.5q0 62 43.5 104.5t104.5 42.5q64 0 108.5 -42.5t44.5 -104.5zM-496 1319q0 -61 -43.5 -104.5t-103.5 -43.5q-62 0 -108 43.5t-46 104.5q0 62 43.5 104.5t104.5 42.5q64 0 108.5 -42.5t44.5 -104.5z
" />
    <glyph glyph-name="uni030A" unicode="&#x30a;" horiz-adv-x="2" 
d="M-39 1350q0 -85 -66.5 -148t-152.5 -63q-94 0 -158.5 62t-64.5 149q0 86 66.5 148.5t156.5 62.5q89 0 154 -62.5t65 -148.5zM-172 1350q0 38 -26 65t-60 27q-39 0 -63.5 -26.5t-24.5 -65.5q0 -38 25 -64t61 -26q38 0 63 26t25 64z" />
    <glyph glyph-name="uni030B" unicode="&#x30b;" horiz-adv-x="2" 
d="M-428 1561l-236 -424l-178 75l170 447zM-39 1524l-299 -383l-162 104l240 414z" />
    <glyph glyph-name="uni030C" unicode="&#x30c;" horiz-adv-x="2" 
d="M-49 1409l-328 -274l-334 274l86 160l248 -150l240 148z" />
    <glyph glyph-name="uni0312" unicode="&#x312;" horiz-adv-x="2" 
d="M-479 1413q0 131 78 236q30 40 84 77.5t114 55.5l113 -117q-61 -17 -97 -49t-36 -68q0 -17 5 -25t23 -19.5t27 -18.5q66 -55 66 -142q0 -75 -51 -125.5t-123 -50.5q-95 0 -149 66t-54 180z" />
    <glyph glyph-name="uni0313" unicode="&#x313;" horiz-adv-x="2" 
d="M-90 1178q0 -131 -78 -236q-30 -39 -84.5 -77t-114.5 -56l-112 117q61 17 97 48.5t36 67.5q0 17 -5 25.5t-23.5 20t-26.5 18.5q-66 55 -66 141q0 75 50.5 125.5t123.5 50.5q95 0 149 -65.5t54 -179.5z" />
    <glyph glyph-name="uni0326" unicode="&#x326;" horiz-adv-x="2" 
d="M-139 -250q0 -96 -60 -166q-22 -29 -63 -56t-88 -40l-84 84q45 10 72.5 33.5t27.5 50.5q0 11 -3.5 17t-17 14.5t-20.5 13.5q-51 37 -51 100q0 54 38.5 89.5t94.5 35.5q72 0 113 -47t41 -129z" />
    <glyph glyph-name="uni0327" unicode="&#x327;" horiz-adv-x="2" 
d="M-59 -207q0 -83 -51.5 -142t-157.5 -59q-39 0 -83 12.5t-73 30.5l55 119q43 -24 88 -24q29 0 46.5 14t17.5 39q0 51 -64 51q-29 0 -49 -4l-16 33l47 172l131 -17l-25 -77q65 -7 99.5 -47t34.5 -101z" />
    <glyph glyph-name="uni0328" unicode="&#x328;" horiz-adv-x="2" 
d="M-59 -350q-118 -58 -215 -58q-82 0 -135.5 52t-53.5 141q0 62 31.5 122.5t62.5 92.5t64 57l162 -84q-48 -31 -81.5 -71.5t-33.5 -83.5q0 -23 14 -37t39 -14q37 0 90 32z" />
    <glyph glyph-name="uni037E" unicode="&#x37e;" horiz-adv-x="600" 
d="M492 82q0 -136 -74 -232q-30 -40 -83.5 -77.5t-113.5 -55.5l-112 117q61 17 96 48t35 67q0 17 -5.5 25t-23.5 19t-27 19q-65 56 -65 140q0 73 51 124.5t123 51.5q93 0 146 -66.5t53 -179.5zM481 754q0 -76 -53 -130.5t-125 -54.5t-125 54.5t-53 130.5q0 72 52 126t124 54
t126 -53.5t54 -126.5z" />
    <glyph glyph-name="tonos" unicode="&#x384;" horiz-adv-x="477" 
d="M406 1528l-191 -391l-152 69l140 416z" />
    <glyph glyph-name="dieresistonos" unicode="&#x385;" horiz-adv-x="1079" 
d="M1004 1319q0 -61 -44 -104.5t-104 -43.5q-62 0 -108 43.5t-46 104.5q0 62 43.5 104.5t104.5 42.5q64 0 109 -42.5t45 -104.5zM768 1589l-190 -391l-152 70l139 415zM377 1319q0 -61 -44 -104.5t-104 -43.5q-62 0 -107.5 43.5t-45.5 104.5q0 62 43 104.5t104 42.5
q64 0 109 -42.5t45 -104.5z" />
    <glyph glyph-name="Alphatonos" unicode="&#x386;" horiz-adv-x="1069" 
d="M1083 0h-303l-78 319h-342l-81 -319h-293l401 1423h315zM649 543l-74 354q-21 99 -40 236q-5 -24 -21 -114t-22 -122l-74 -354h231zM178 1354l-190 -391l-152 69l139 416z" />
    <glyph glyph-name="anoteleia" unicode="&#x387;" horiz-adv-x="587" 
d="M479 557q0 -77 -55.5 -133.5t-134.5 -56.5q-76 0 -128 56t-52 136q0 79 54.5 137t131.5 58q78 0 131 -57.5t53 -139.5z" />
    <glyph glyph-name="Epsilontonos" unicode="&#x388;" horiz-adv-x="899" 
d="M858 0h-725v1423h717l-31 -245h-405v-318h336v-242h-336v-366h444v-252zM35 1354l-191 -391l-151 69l139 416z" />
    <glyph glyph-name="Etatonos" unicode="&#x389;" horiz-adv-x="1138" 
d="M1006 0h-279v623h-315v-623h-279v1423h279v-542h315v542h279v-1423zM35 1354l-191 -391l-151 69l139 416z" />
    <glyph glyph-name="Iotatonos" unicode="&#x38a;" horiz-adv-x="546" 
d="M414 0h-281v1423h281v-1423zM35 1354l-191 -391l-151 69l139 416z" />
    <glyph glyph-name="Omicrontonos" unicode="&#x38c;" horiz-adv-x="1230" 
d="M1159 748q0 -122 -14.5 -227.5t-52 -208.5t-97 -175.5t-156 -117t-221.5 -44.5q-139 0 -245.5 56.5t-171 155.5t-97 225t-32.5 274q0 364 146 563t392 199q99 0 182.5 -29t142.5 -80.5t103 -118.5t70 -147t38.5 -160.5t12.5 -164.5zM848 711q0 79 -3.5 138.5t-12 120.5
t-25.5 103t-42.5 76t-64 51t-88.5 17q-227 0 -227 -488q0 -92 5 -163t20.5 -140.5t40.5 -115t68 -73.5t102 -28q57 0 98.5 26.5t66 69.5t39 111t19 136t4.5 159zM117 1354l-191 -391l-151 69l139 416z" />
    <glyph glyph-name="Upsilontonos" unicode="&#x38e;" horiz-adv-x="999" 
d="M1034 1423l-397 -901v-522h-287v520l-385 903h334l145 -454q42 -141 58 -205q7 33 28.5 112.5t26.5 92.5l148 454h329zM-47 1354l-191 -391l-151 69l139 416z" />
    <glyph glyph-name="Omegatonos" unicode="&#x38f;" horiz-adv-x="1292" 
d="M1206 745q0 -136 -58 -276t-149 -225h191l-25 -244h-446v199q86 90 131 236.5t45 307.5q0 199 -45 320q-57 151 -201 151q-70 0 -122.5 -39t-80.5 -110q-49 -120 -49 -301q0 -171 45.5 -321.5t130.5 -243.5v-199h-473l25 244h164q-90 89 -146.5 230.5t-56.5 277.5
q0 359 184 546q145 148 379 148q131 0 238.5 -53t179.5 -148q139 -185 139 -500zM117 1354l-191 -391l-151 69l139 416z" />
    <glyph glyph-name="iotadieresistonos" unicode="&#x390;" horiz-adv-x="534" 
d="M547 6q-67 -31 -178 -31q-130 0 -185 64q-33 39 -43 99.5t-10 162.5v504q0 135 -16 229l274 33q14 -114 14 -252v-418q0 -129 9.5 -166.5t48.5 -37.5q29 0 41 6zM758 1319q0 -61 -44 -104.5t-104 -43.5q-62 0 -107.5 43.5t-45.5 104.5q0 62 43 104.5t104 42.5
q64 0 109 -42.5t45 -104.5zM522 1589l-190 -391l-152 70l139 415zM131 1319q0 -61 -43.5 -104.5t-103.5 -43.5q-62 0 -108 43.5t-46 104.5q0 62 43 104.5t104 42.5q64 0 109 -42.5t45 -104.5z" />
    <glyph glyph-name="Alpha" unicode="&#x391;" horiz-adv-x="1069" 
d="M1083 0h-303l-78 319h-342l-81 -319h-293l401 1423h315zM649 543l-74 354q-21 99 -40 236q-5 -24 -21 -114t-22 -122l-74 -354h231z" />
    <glyph glyph-name="Beta" unicode="&#x392;" horiz-adv-x="1099" 
d="M1028 428q0 -117 -42.5 -209.5t-121.5 -146.5q-104 -72 -278 -72h-453v1423h432q170 0 266 -57q69 -40 110.5 -116.5t41.5 -178.5q0 -105 -52.5 -191.5t-152.5 -121.5q113 -32 181.5 -117.5t68.5 -212.5zM713 434q0 184 -174 184h-127v-368h139q81 0 121.5 50t40.5 134z
M694 1018q0 75 -41.5 117.5t-115.5 42.5h-125v-320h131q77 0 114 42.5t37 117.5z" />
    <glyph glyph-name="Gamma" unicode="&#x393;" horiz-adv-x="768" 
d="M809 1423l-31 -247h-366v-1176h-279v1423h676z" />
    <glyph glyph-name="uni0394" unicode="&#x394;" horiz-adv-x="1083" 
d="M1069 233l-25 -233h-1032v213l383 1210h314zM772 248l-186 663q-9 32 -17.5 83t-15 96.5t-8.5 54.5h-4q-2 -31 -14.5 -105t-28.5 -131l-193 -661h467z" />
    <glyph glyph-name="Epsilon" unicode="&#x395;" horiz-adv-x="899" 
d="M858 0h-725v1423h717l-31 -245h-405v-318h336v-242h-336v-366h444v-252z" />
    <glyph glyph-name="Zeta" unicode="&#x396;" horiz-adv-x="970" 
d="M909 248l-28 -248h-820v203l451 856q27 52 80 131q-88 -10 -133 -10h-363l27 243h780v-213l-450 -866q-21 -40 -66 -104q94 8 135 8h387z" />
    <glyph glyph-name="Eta" unicode="&#x397;" horiz-adv-x="1138" 
d="M1006 0h-279v623h-315v-623h-279v1423h279v-542h315v542h279v-1423z" />
    <glyph glyph-name="Theta" unicode="&#x398;" horiz-adv-x="1277" 
d="M1206 748q0 -121 -17 -229.5t-59 -209.5t-105 -174t-161.5 -116.5t-222.5 -43.5q-135 0 -244 54.5t-179.5 150t-108 224.5t-37.5 280q0 181 42.5 326.5t117.5 240.5t177.5 145t223.5 50t220 -42.5t163.5 -112t108.5 -162t62.5 -187.5t18.5 -194zM889 854
q-15 188 -76.5 274t-177.5 86q-75 0 -128 -50t-79 -127t-37 -183h498zM891 621h-504q24 -412 256 -412q118 0 177.5 102.5t70.5 309.5z" />
    <glyph glyph-name="Iota" unicode="&#x399;" horiz-adv-x="546" 
d="M414 0h-281v1423h281v-1423z" />
    <glyph glyph-name="Kappa" unicode="&#x39a;" horiz-adv-x="1095" 
d="M1126 0h-358l-348 756l321 667h338l-364 -661zM414 0h-281v1423h281v-1423z" />
    <glyph glyph-name="Lambda" unicode="&#x39b;" horiz-adv-x="1026" 
d="M1036 0h-301l-188 877q-7 31 -18.5 129t-12.5 102h-2q0 -15 -13.5 -104.5t-21.5 -126.5l-196 -877h-293l375 1423h315z" />
    <glyph glyph-name="Mu" unicode="&#x39c;" horiz-adv-x="1517" 
d="M1425 0h-276l-37 758q-8 188 -8 286q-1 -3 -10 -54t-21.5 -116.5t-19.5 -97.5l-174 -776h-256l-152 745q-4 22 -20 100.5t-25 126t-10 64.5q0 -215 -4 -295l-35 -741h-285l109 1423h370l148 -761q21 -109 41 -275q20 159 43 272l155 764h363z" />
    <glyph glyph-name="Nu" unicode="&#x39d;" horiz-adv-x="1171" 
d="M1038 0h-290l-259 582q-26 58 -62 159t-46 136q0 -1 4.5 -58.5t9 -135.5t4.5 -130v-553h-266v1423h277l268 -587q36 -80 106 -289q0 1 -1.5 27.5t-3.5 68t-4 87.5t-3.5 95t-1.5 82v516h268v-1423z" />
    <glyph glyph-name="Xi" unicode="&#x39e;" horiz-adv-x="940" 
d="M889 1423l-33 -266h-772v266h805zM821 872l-33 -260h-661l33 260h661zM881 0h-830l35 270h795v-270z" />
    <glyph glyph-name="Omicron" unicode="&#x39f;" horiz-adv-x="1230" 
d="M1159 748q0 -122 -14.5 -227.5t-52 -208.5t-97 -175.5t-156 -117t-221.5 -44.5q-139 0 -245.5 56.5t-171 155.5t-97 225t-32.5 274q0 364 146 563t392 199q99 0 182.5 -29t142.5 -80.5t103 -118.5t70 -147t38.5 -160.5t12.5 -164.5zM848 711q0 79 -3.5 138.5t-12 120.5
t-25.5 103t-42.5 76t-64 51t-88.5 17q-227 0 -227 -488q0 -92 5 -163t20.5 -140.5t40.5 -115t68 -73.5t102 -28q57 0 98.5 26.5t66 69.5t39 111t19 136t4.5 159z" />
    <glyph glyph-name="Pi" unicode="&#x3a0;" horiz-adv-x="1124" 
d="M991 0h-278v1163h-301v-1163h-279v1423h858v-1423z" />
    <glyph glyph-name="Rho" unicode="&#x3a1;" horiz-adv-x="1032" 
d="M1008 989q0 -234 -142 -360q-119 -107 -344 -107h-110v-522h-279v1423h361q223 0 342 -77q172 -112 172 -357zM700 983q0 101 -46.5 149t-139.5 48h-102v-416h92q105 0 150.5 50.5t45.5 168.5z" />
    <glyph glyph-name="Sigma" unicode="&#x3a3;" horiz-adv-x="927" 
d="M887 248l-25 -248h-809v203l330 551l-307 471l22 198h779l-25 -243h-299q-111 0 -133 10q41 -36 96 -119l195 -307l-252 -420q-41 -67 -72 -106q42 10 133 10h367z" />
    <glyph glyph-name="Tau" unicode="&#x3a4;" horiz-adv-x="899" 
d="M936 1423l-33 -245h-299v-1178h-280v1178h-297v245h909z" />
    <glyph glyph-name="Upsilon" unicode="&#x3a5;" horiz-adv-x="999" 
d="M1034 1423l-397 -901v-522h-287v520l-385 903h334l145 -454q42 -141 58 -205q7 33 28.5 112.5t26.5 92.5l148 454h329z" />
    <glyph glyph-name="Phi" unicode="&#x3a6;" horiz-adv-x="1398" 
d="M1356 713q0 -81 -16.5 -155.5t-55.5 -145t-97 -125t-146.5 -92.5t-198.5 -50v-145h-281v145q-111 12 -200.5 50.5t-148 93.5t-97.5 126.5t-55.5 146.5t-16.5 157q0 104 29 196.5t88.5 172t162 132.5t238.5 66v137h281v-137q112 -10 201 -48t146.5 -93t96 -127.5
t54.5 -147.5t16 -157zM1044 713q0 65 -8 114.5t-28.5 97.5t-62 80t-103.5 46v-666q114 36 158 119t44 209zM561 385v664q-205 -54 -205 -322q0 -38 2 -67.5t8.5 -67.5t21 -67t36 -57.5t56.5 -49.5t81 -33z" />
    <glyph glyph-name="Chi" unicode="&#x3a7;" horiz-adv-x="1028" 
d="M1051 0h-336l-195 471l-192 -471h-351l381 745l-344 678h344l160 -399l154 399h336l-330 -659z" />
    <glyph glyph-name="Psi" unicode="&#x3a8;" horiz-adv-x="1335" 
d="M1272 829q0 -106 -23.5 -192.5t-75.5 -159t-144.5 -117t-221.5 -55.5v-305h-279v305q-127 11 -218 53.5t-144.5 113.5t-78 160t-24.5 202v589h275v-600q0 -125 41.5 -190.5t148.5 -87.5v878h279v-878q99 24 144.5 84t45.5 180v614h275v-594z" />
    <glyph glyph-name="uni03A9" unicode="&#x3a9;" horiz-adv-x="1292" 
d="M1206 745q0 -136 -58 -276t-149 -225h191l-25 -244h-446v199q86 90 131 236.5t45 307.5q0 199 -45 320q-57 151 -201 151q-70 0 -122.5 -39t-80.5 -110q-49 -120 -49 -301q0 -171 45.5 -321.5t130.5 -243.5v-199h-473l25 244h164q-90 89 -146.5 230.5t-56.5 277.5
q0 359 184 546q145 148 379 148q131 0 238.5 -53t179.5 -148q139 -185 139 -500z" />
    <glyph glyph-name="Iotadieresis" unicode="&#x3aa;" horiz-adv-x="546" 
d="M414 0h-281v1423h281v-1423zM635 1688q0 -61 -44 -104.5t-104 -43.5q-62 0 -107.5 43.5t-45.5 104.5q0 62 43 104.5t104 42.5q64 0 109 -42.5t45 -104.5zM213 1688q0 -61 -43.5 -104.5t-103.5 -43.5q-62 0 -108 43.5t-46 104.5q0 62 43 104.5t104 42.5q64 0 109 -42.5
t45 -104.5z" />
    <glyph glyph-name="Upsilondieresis" unicode="&#x3ab;" horiz-adv-x="999" 
d="M1034 1423l-397 -901v-522h-287v520l-385 903h334l145 -454q42 -141 58 -205q7 33 28.5 112.5t26.5 92.5l148 454h329zM864 1688q0 -61 -43.5 -104.5t-103.5 -43.5q-62 0 -108 43.5t-46 104.5q0 62 43.5 104.5t104.5 42.5q64 0 108.5 -42.5t44.5 -104.5zM442 1688
q0 -61 -43.5 -104.5t-103.5 -43.5q-62 0 -108 43.5t-46 104.5q0 62 43.5 104.5t104.5 42.5q64 0 108.5 -42.5t44.5 -104.5z" />
    <glyph glyph-name="alphatonos" unicode="&#x3ac;" horiz-adv-x="1007" 
d="M946 137l-155 -178q-40 15 -72.5 52t-50.5 85q-78 -121 -232 -121q-135 0 -221 80q-143 131 -143 455q0 253 102 405q54 77 124.5 118.5t147.5 41.5q128 0 191 -110q8 56 18 84h240q-18 -81 -18 -312v-383q0 -93 12 -139.5t57 -77.5zM606 272v498q-30 66 -104 66
q-85 0 -117 -99q-23 -77 -23 -205q0 -201 35 -270q31 -63 99 -63q37 0 67 22t43 51zM766 1528l-191 -391l-151 69l139 416z" />
    <glyph glyph-name="epsilontonos" unicode="&#x3ad;" horiz-adv-x="890" 
d="M870 113q-179 -146 -411 -146q-87 0 -156.5 18t-123 56t-82.5 102t-29 150q0 90 47.5 155.5t124.5 96.5q-138 69 -138 213q0 140 96.5 229.5t258.5 89.5q105 0 186 -28.5t188 -98.5l-83 -180q-68 50 -126 68t-126 18q-32 0 -56 -11t-36.5 -27.5t-18.5 -32.5t-6 -29
q0 -54 31.5 -83.5t87.5 -29.5h129v-192h-119q-64 0 -99.5 -37t-35.5 -99q0 -46 37 -80t102 -34q74 0 130 21t122 77zM766 1528l-191 -391l-151 69l139 416z" />
    <glyph glyph-name="etatonos" unicode="&#x3ae;" horiz-adv-x="1032" 
d="M973 135l-154 -178q-43 15 -84 52.5t-65 86.5q-41 81 -41 197v409q0 87 -25 115q-16 21 -65 21q-65 0 -133 -74v-764h-273v752q0 115 -31 270l252 51q23 -72 25 -115q43 50 118 81.5t152 31.5q120 0 187 -70q65 -68 65 -196v-461q0 -87 13.5 -132t58.5 -77zM786 1528
l-190 -391l-152 69l140 416z" />
    <glyph glyph-name="iotatonos" unicode="&#x3af;" horiz-adv-x="534" 
d="M547 6q-67 -31 -178 -31q-130 0 -185 64q-33 39 -43 99.5t-10 162.5v504q0 135 -16 229l274 33q14 -114 14 -252v-418q0 -129 9.5 -166.5t48.5 -37.5q29 0 41 6zM561 1528l-190 -391l-152 69l139 416z" />
    <glyph glyph-name="upsilondieresistonos" unicode="&#x3b0;" horiz-adv-x="944" 
d="M858 336q0 -171 -103 -268t-286 -97q-181 0 -282 92t-101 256v711l274 43v-756q0 -129 111 -129q57 0 86 37.5t29 98.5v704l272 43v-735zM936 1319q0 -61 -44 -104.5t-104 -43.5q-62 0 -107.5 43.5t-45.5 104.5q0 62 43 104.5t104 42.5q64 0 109 -42.5t45 -104.5z
M700 1589l-190 -391l-152 70l140 415zM309 1319q0 -61 -43.5 -104.5t-103.5 -43.5q-62 0 -108 43.5t-46 104.5q0 62 43.5 104.5t104.5 42.5q64 0 108.5 -42.5t44.5 -104.5z" />
    <glyph glyph-name="alpha" unicode="&#x3b1;" horiz-adv-x="1007" 
d="M946 137l-155 -178q-40 15 -72.5 52t-50.5 85q-78 -121 -232 -121q-135 0 -221 80q-143 131 -143 455q0 253 102 405q54 77 124.5 118.5t147.5 41.5q128 0 191 -110q8 56 18 84h240q-18 -81 -18 -312v-383q0 -93 12 -139.5t57 -77.5zM606 272v498q-30 66 -104 66
q-85 0 -117 -99q-23 -77 -23 -205q0 -201 35 -270q31 -63 99 -63q37 0 67 22t43 51z" />
    <glyph glyph-name="beta" unicode="&#x3b2;" horiz-adv-x="1054" 
d="M1004 403q0 -67 -15 -128t-48 -117t-81.5 -96.5t-121 -64.5t-160.5 -24q-35 0 -83.5 17.5t-91.5 50.5v-442l-274 -56v1391q0 520 408 520q177 0 281 -103t104 -276q0 -90 -45 -166.5t-123 -120.5q118 -44 184 -146.5t66 -238.5zM713 385q0 126 -44.5 187t-166.5 61h-31
l27 213h16q79 0 111 53.5t32 149.5q0 87 -33 134.5t-96 47.5q-65 0 -95 -58t-30 -184v-729q58 -82 148 -82q81 0 121.5 55.5t40.5 151.5z" />
    <glyph glyph-name="gamma" unicode="&#x3b3;" horiz-adv-x="884" 
d="M907 1049l-317 -1037v-413l-273 -56v469l-215 783q-5 18 -9 28t-12.5 18.5t-21.5 8.5q-15 0 -43 -12l-53 180q96 55 187 55q88 0 135 -40t67 -132l66 -311q18 -93 41 -248h4q26 166 45 244l108 463h291z" />
    <glyph glyph-name="delta" unicode="&#x3b4;" horiz-adv-x="958" 
d="M901 543q0 -224 -82 -369q-58 -101 -148 -151t-194 -50q-198 0 -309 148q-111 149 -111 399q0 132 41 244.5t118 185t175 84.5q-117 130 -227 180l20 207h650l-21 -217h-274q110 -84 221 -231q141 -193 141 -430zM606 547q0 140 -24 205q-29 77 -105 77
q-68 0 -96.5 -71.5t-28.5 -233.5q0 -174 23 -250q28 -88 106 -88q92 0 115 160q10 66 10 201z" />
    <glyph glyph-name="epsilon" unicode="&#x3b5;" horiz-adv-x="890" 
d="M870 113q-179 -146 -411 -146q-87 0 -156.5 18t-123 56t-82.5 102t-29 150q0 90 47.5 155.5t124.5 96.5q-138 69 -138 213q0 140 96.5 229.5t258.5 89.5q105 0 186 -28.5t188 -98.5l-83 -180q-68 50 -126 68t-126 18q-32 0 -56 -11t-36.5 -27.5t-18.5 -32.5t-6 -29
q0 -54 31.5 -83.5t87.5 -29.5h129v-192h-119q-64 0 -99.5 -37t-35.5 -99q0 -46 37 -80t102 -34q74 0 130 21t122 77z" />
    <glyph glyph-name="zeta" unicode="&#x3b6;" horiz-adv-x="821" 
d="M856 1421l-20 -217q-115 -67 -206.5 -163t-147.5 -200.5t-85.5 -210t-29.5 -202.5q0 -72 35.5 -113t111.5 -41h47q78 0 134.5 -25t87 -70t44 -98t13.5 -118q0 -99 -51 -202.5t-134 -217.5l-163 90q43 63 64.5 134t21.5 129q0 104 -99 104h-65q-161 0 -251.5 91.5
t-90.5 260.5q0 221 103.5 446.5t258.5 356.5l33 25h-332l23 241h698z" />
    <glyph glyph-name="eta" unicode="&#x3b7;" horiz-adv-x="1032" 
d="M973 135l-154 -178q-43 15 -84 52.5t-65 86.5q-41 81 -41 197v409q0 87 -25 115q-16 21 -65 21q-65 0 -133 -74v-764h-273v752q0 115 -31 270l252 51q23 -72 25 -115q43 50 118 81.5t152 31.5q120 0 187 -70q65 -68 65 -196v-461q0 -87 13.5 -132t58.5 -77z" />
    <glyph glyph-name="theta" unicode="&#x3b8;" horiz-adv-x="989" 
d="M915 711q0 -371 -110 -557q-109 -181 -311 -181q-205 0 -312 174q-108 178 -108 562q0 377 112 561q106 176 312 176q211 0 313 -172q104 -175 104 -563zM625 838q-3 155 -17 243q-24 156 -110 156q-79 0 -109 -125q-20 -83 -24 -274h260zM627 627h-262q3 -204 18 -293
q27 -148 111 -148q80 0 110 125q23 87 23 242v74z" />
    <glyph glyph-name="iota" unicode="&#x3b9;" horiz-adv-x="534" 
d="M547 6q-67 -31 -178 -31q-130 0 -185 64q-33 39 -43 99.5t-10 162.5v504q0 135 -16 229l274 33q14 -114 14 -252v-418q0 -129 9.5 -166.5t48.5 -37.5q29 0 41 6z" />
    <glyph glyph-name="kappa" unicode="&#x3ba;" horiz-adv-x="995" 
d="M997 0h-327l-264 543l210 506h312l-258 -482zM403 0h-270v805q0 123 -18 229l274 33q14 -114 14 -252v-815z" />
    <glyph glyph-name="lambda" unicode="&#x3bb;" horiz-adv-x="923" 
d="M944 14q-70 -39 -160 -39q-95 0 -142 46t-67 141l-81 389q-8 37 -20.5 124t-14.5 111h-2q-2 -27 -14.5 -109.5t-24.5 -133.5l-137 -557l-281 32l215 738q43 142 68 293h108l-20 104q-14 69 -48 116.5t-87 47.5q-38 0 -93 -25l-41 181q103 43 183 43q53 0 96.5 -12.5
t74 -38t52 -52t37.5 -65.5t24.5 -66.5t18.5 -67.5l233 -972q8 -32 17 -45t26 -13q13 0 39 15z" />
    <glyph glyph-name="uni03BC" unicode="&#x3bc;" horiz-adv-x="1036" 
d="M954 84l-215 -113q-46 43 -59 105q-59 -49 -112 -75t-115 -26q-32 0 -60 17q10 -42 10 -105v-288l-270 -56v1485l270 45v-760q0 -72 35 -94q24 -18 66 -18q32 0 66 21.5t59 56.5v749l272 43v-754q0 -161 53 -233z" />
    <glyph glyph-name="nu" unicode="&#x3bd;" horiz-adv-x="866" 
d="M889 1049l-314 -1051h-280l-318 1028l297 39l117 -487q23 -95 51 -261q21 118 52 263l110 469h285z" />
    <glyph glyph-name="xi" unicode="&#x3be;" horiz-adv-x="876" 
d="M877 1421l-23 -243h-281q-47 0 -79.5 -16t-48.5 -43t-22.5 -54.5t-6.5 -58.5q0 -61 39.5 -103.5t101.5 -42.5h211l-20 -233h-185q-99 0 -147.5 -57.5t-48.5 -143.5q0 -72 36.5 -114t112.5 -42h66q78 0 134.5 -24.5t87.5 -68.5t44.5 -96.5t13.5 -117.5q0 -99 -51 -203
t-133 -217l-166 90q43 63 64.5 134t21.5 129q0 104 -98 104h-82q-159 0 -252.5 92t-93.5 260q0 78 27 157t80 142.5t120 87.5q-77 34 -120.5 98.5t-43.5 147.5q0 58 30 117.5t68 85.5l25 16q-44 -6 -63 -6h-82l20 223h744z" />
    <glyph glyph-name="omicron" unicode="&#x3bf;" horiz-adv-x="956" 
d="M899 541q0 -258 -114 -413t-312 -155q-85 0 -154.5 28.5t-117.5 78.5t-81 119.5t-48 150.5t-15 174q0 114 26 212.5t77 175t133 120t186 43.5q188 0 304 -135t116 -399zM604 547q0 57 -2 96t-9.5 84t-20.5 72t-38 45t-59 18q-40 0 -66 -25.5t-38.5 -76t-16.5 -104
t-4 -132.5q0 -43 0.5 -69t3 -66.5t7.5 -65t14 -53.5t22.5 -45.5t34.5 -27.5t47 -11q41 0 67.5 29t38.5 86t15.5 111.5t3.5 134.5z" />
    <glyph glyph-name="pi" unicode="&#x3c0;" horiz-adv-x="1011" 
d="M989 1049l-39 -207h-73v-494q0 -86 14 -131.5t59 -77.5l-153 -178q-44 15 -86 53t-66 86q-39 77 -39 197v545h-196v-842h-273v842h-86v207h938z" />
    <glyph glyph-name="rho" unicode="&#x3c1;" horiz-adv-x="942" 
d="M881 557q0 -242 -76 -391q-102 -193 -313 -193q-68 0 -162 52q10 -42 10 -105v-323l-272 -54v1024q0 243 105 375.5t302 132.5q87 0 159.5 -30.5t128.5 -92t87 -162.5t31 -233zM588 537q0 54 -5 103.5t-17.5 104t-39.5 87t-65 32.5q-62 0 -91.5 -66t-29.5 -229v-315
q29 -53 94 -53q52 0 86.5 31.5t48.5 84.5q19 70 19 220z" />
    <glyph glyph-name="sigma1" unicode="&#x3c2;" horiz-adv-x="815" 
d="M795 -78q0 -51 -13.5 -100t-45 -104t-51.5 -84.5t-64 -90.5l-164 90q41 60 60.5 125.5t19.5 106.5q0 54 -47.5 89.5t-137.5 74.5q-61 25 -108 61.5t-87.5 92t-62.5 139t-22 190.5q0 307 153 457q109 106 273 106q83 0 144.5 -28t127.5 -91l-127 -176q-69 76 -139 76
q-80 0 -113 -98q-16 -42 -20 -90t-4 -150q0 -115 45 -177.5t125 -100.5q34 -16 54 -26t51 -28.5t49.5 -34.5t40.5 -41t34 -51t20.5 -61.5t8.5 -75.5z" />
    <glyph glyph-name="sigma" unicode="&#x3c3;" horiz-adv-x="972" 
d="M977 1049l-39 -207h-125q84 -123 84 -301q0 -144 -35.5 -256t-96 -178.5t-135 -100t-159.5 -33.5q-196 0 -307 145t-111 404q0 242 116.5 384.5t313.5 142.5h494zM602 547q0 155 -29 221t-100 66q-45 0 -71.5 -26t-41 -95t-14.5 -189q0 -167 25 -250q28 -88 106 -88
q46 0 73.5 38.5t39.5 121.5q12 79 12 201z" />
    <glyph glyph-name="tau" unicode="&#x3c4;" horiz-adv-x="745" 
d="M741 1049l-41 -222h-198v-477q0 -104 20.5 -139t81.5 -35q38 0 78 21l35 -170q-106 -56 -217 -56q-80 0 -142 21q-129 47 -129 229v606h-206v222h718z" />
    <glyph glyph-name="upsilon" unicode="&#x3c5;" horiz-adv-x="944" 
d="M858 336q0 -171 -103 -268t-286 -97q-181 0 -282 92t-101 256v711l274 43v-756q0 -129 111 -129q57 0 86 37.5t29 98.5v704l272 43v-735z" />
    <glyph glyph-name="phi" unicode="&#x3c6;" horiz-adv-x="1280" 
d="M1223 530q0 -221 -118.5 -372.5t-328.5 -184.5v-374l-268 -56v430q-205 27 -328 171.5t-123 375.5q0 123 39 230t126 190.5t212 112.5v-215q-54 -41 -73 -119.5t-19 -186.5q0 -139 43 -227q43 -87 123 -112v872q71 10 166 10q256 0 407 -151q142 -142 142 -394zM938 518
q0 125 -35 203q-21 48 -55 81.5t-72 45.5v-655q46 15 82.5 57t56.5 106q23 74 23 162z" />
    <glyph glyph-name="chi" unicode="&#x3c7;" horiz-adv-x="915" 
d="M938 0h-330l-84 182q-20 41 -61 154q-39 -97 -78 -180l-80 -156h-328l320 555l-266 465l284 57l80 -157q24 -49 66 -172q22 110 55 178l59 123h318l-275 -486z" />
    <glyph glyph-name="psi" unicode="&#x3c8;" horiz-adv-x="1220" 
d="M1135 492q0 -147 -40 -257t-129.5 -179t-222.5 -79v-378l-268 -56v434q-127 10 -211 61.5t-131 162t-47 282.5v545l264 45v-657q0 -104 26 -149t99 -64v1014q0 139 -16 233l266 37q18 -99 18 -260v-1024q71 18 99 62.5t28 146.5v616l265 45v-581z" />
    <glyph glyph-name="omega" unicode="&#x3c9;" horiz-adv-x="1284" 
d="M1227 403q0 -82 -20 -157t-59 -137t-104.5 -99t-148.5 -37q-182 0 -252 164q-76 -164 -256 -164q-83 0 -148.5 37t-104 99t-58 136.5t-19.5 157.5q0 404 265 672l176 -67q-148 -231 -148 -545q0 -244 86 -244q28 0 51 31.5t23 99.5v430h264v-430q0 -68 23.5 -99.5
t52.5 -31.5q86 0 86 244q0 306 -150 543l175 71q266 -272 266 -674z" />
    <glyph glyph-name="iotadieresis" unicode="&#x3ca;" horiz-adv-x="534" 
d="M547 6q-67 -31 -178 -31q-130 0 -185 64q-33 39 -43 99.5t-10 162.5v504q0 135 -16 229l274 33q14 -114 14 -252v-418q0 -129 9.5 -166.5t48.5 -37.5q29 0 41 6zM631 1319q0 -61 -44 -104.5t-104 -43.5q-62 0 -107.5 43.5t-45.5 104.5q0 62 43 104.5t104 42.5
q64 0 109 -42.5t45 -104.5zM209 1319q0 -61 -44 -104.5t-104 -43.5q-62 0 -107.5 43.5t-45.5 104.5q0 62 43 104.5t104 42.5q64 0 109 -42.5t45 -104.5z" />
    <glyph glyph-name="upsilondieresis" unicode="&#x3cb;" horiz-adv-x="944" 
d="M858 336q0 -171 -103 -268t-286 -97q-181 0 -282 92t-101 256v711l274 43v-756q0 -129 111 -129q57 0 86 37.5t29 98.5v704l272 43v-735zM844 1319q0 -61 -44 -104.5t-104 -43.5q-62 0 -107.5 43.5t-45.5 104.5q0 62 43 104.5t104 42.5q64 0 109 -42.5t45 -104.5z
M422 1319q0 -61 -44 -104.5t-104 -43.5q-62 0 -107.5 43.5t-45.5 104.5q0 62 43 104.5t104 42.5q64 0 109 -42.5t45 -104.5z" />
    <glyph glyph-name="omicrontonos" unicode="&#x3cc;" horiz-adv-x="956" 
d="M899 541q0 -258 -114 -413t-312 -155q-85 0 -154.5 28.5t-117.5 78.5t-81 119.5t-48 150.5t-15 174q0 114 26 212.5t77 175t133 120t186 43.5q188 0 304 -135t116 -399zM604 547q0 57 -2 96t-9.5 84t-20.5 72t-38 45t-59 18q-40 0 -66 -25.5t-38.5 -76t-16.5 -104
t-4 -132.5q0 -43 0.5 -69t3 -66.5t7.5 -65t14 -53.5t22.5 -45.5t34.5 -27.5t47 -11q41 0 67.5 29t38.5 86t15.5 111.5t3.5 134.5zM745 1528l-190 -391l-152 69l140 416z" />
    <glyph glyph-name="upsilontonos" unicode="&#x3cd;" horiz-adv-x="944" 
d="M858 336q0 -171 -103 -268t-286 -97q-181 0 -282 92t-101 256v711l274 43v-756q0 -129 111 -129q57 0 86 37.5t29 98.5v704l272 43v-735zM745 1528l-190 -391l-152 69l140 416z" />
    <glyph glyph-name="omegatonos" unicode="&#x3ce;" horiz-adv-x="1284" 
d="M1227 403q0 -82 -20 -157t-59 -137t-104.5 -99t-148.5 -37q-182 0 -252 164q-76 -164 -256 -164q-83 0 -148.5 37t-104 99t-58 136.5t-19.5 157.5q0 404 265 672l176 -67q-148 -231 -148 -545q0 -244 86 -244q28 0 51 31.5t23 99.5v430h264v-430q0 -68 23.5 -99.5
t52.5 -31.5q86 0 86 244q0 306 -150 543l175 71q266 -272 266 -674zM909 1528l-190 -391l-152 69l140 416z" />
    <glyph glyph-name="uni03D0" unicode="&#x3d0;" horiz-adv-x="1056" 
d="M1004 403q0 -67 -14.5 -128t-47.5 -117t-81 -96.5t-119.5 -64.5t-159.5 -24q-66 0 -128 29.5t-92 73.5q-4 -48 -16 -76h-235q20 113 20 229v705q0 520 408 520q177 0 281 -103t104 -276q0 -90 -45 -166.5t-123 -120.5q118 -44 183 -146.5t65 -238.5zM713 393
q0 125 -43.5 182.5t-165.5 57.5h-33l27 213h18q79 0 110 53.5t31 149.5q0 87 -32.5 134.5t-94.5 47.5q-65 0 -96 -58.5t-31 -183.5v-729q54 -82 150 -82q80 0 120 59t40 156z" />
    <glyph glyph-name="theta1" unicode="&#x3d1;" horiz-adv-x="1032" 
d="M174 365q0 119 -27 208l236 31q29 -114 29 -235q0 -96 30.5 -148.5t110.5 -52.5q91 0 130.5 84.5t43.5 298.5q0 31 -2 39q-94 15 -171 37.5t-155.5 63.5t-131.5 95.5t-86.5 137.5t-33.5 186q0 169 92.5 259.5t256.5 90.5q347 0 469 -368q55 -168 55 -424
q0 -355 -112 -525t-345 -170q-174 0 -281.5 109t-107.5 283zM530 1225q-54 0 -84 -41t-30 -109q0 -122 76 -185t229 -91q-6 123 -31 233q-46 193 -160 193z" />
    <glyph glyph-name="Upsilon1" unicode="&#x3d2;" horiz-adv-x="1003" 
d="M645 0h-287v485q0 122 -32 244q-77 291 -334 473l147 246q129 -87 223.5 -223t139.5 -307q45 172 139 308t223 222l148 -246q-257 -182 -334 -473q-33 -125 -33 -244v-485z" />
    <glyph glyph-name="uni03D3" unicode="&#x3d3;" horiz-adv-x="1003" 
d="M645 0h-287v485q0 122 -32 244q-77 291 -334 473l147 246q129 -87 223.5 -223t139.5 -307q45 172 139 308t223 222l148 -246q-257 -182 -334 -473q-33 -125 -33 -244v-485zM-102 1354l-191 -391l-151 69l139 416z" />
    <glyph glyph-name="uni03D4" unicode="&#x3d4;" horiz-adv-x="1003" 
d="M645 0h-287v485q0 122 -32 244q-77 291 -334 473l147 246q129 -87 223.5 -223t139.5 -307q45 172 139 308t223 222l148 -246q-257 -182 -334 -473q-33 -125 -33 -244v-485zM870 1688q0 -61 -43.5 -104.5t-103.5 -43.5q-62 0 -108 43.5t-46 104.5q0 62 43.5 104.5
t104.5 42.5q64 0 108.5 -42.5t44.5 -104.5zM449 1688q0 -61 -44 -104.5t-104 -43.5q-62 0 -108 43.5t-46 104.5q0 62 43.5 104.5t104.5 42.5q64 0 109 -42.5t45 -104.5z" />
    <glyph glyph-name="phi1" unicode="&#x3d5;" horiz-adv-x="1257" 
d="M1200 518q0 -108 -22.5 -196t-71.5 -163.5t-135.5 -124.5t-206.5 -65v-370l-268 -56v428q-121 16 -208 65t-136.5 125t-72 164.5t-22.5 196.5q0 107 23 196t72.5 164.5t136.5 125t207 65.5v144q0 133 -17 233l264 37q21 -115 21 -260v-154q222 -28 336 -178
q100 -132 100 -377zM915 512q0 140 -32 211q-40 93 -119 123v-651q95 39 131 155q20 64 20 162zM496 195v651q-85 -35 -121 -123q-33 -81 -33 -197q0 -145 43 -229q37 -72 111 -102z" />
    <glyph glyph-name="uni0400" unicode="&#x400;" horiz-adv-x="899" 
d="M858 0h-725v1423h717l-31 -245h-405v-318h336v-242h-336v-366h444v-252zM707 1651l-86 -146l-410 197l113 199z" />
    <glyph glyph-name="uni0401" unicode="&#x401;" horiz-adv-x="899" 
d="M858 0h-725v1423h717l-31 -245h-405v-318h336v-242h-336v-366h444v-252zM424 1688q0 -61 -44 -104.5t-104 -43.5q-62 0 -107.5 43.5t-45.5 104.5q0 62 43 104.5t104 42.5q64 0 109 -42.5t45 -104.5zM846 1688q0 -61 -44 -104.5t-104 -43.5q-62 0 -107.5 43.5t-45.5 104.5
q0 62 43 104.5t104 42.5q64 0 109 -42.5t45 -104.5z" />
    <glyph glyph-name="uni0402" unicode="&#x402;" horiz-adv-x="1187" 
d="M1135 453q0 -251 -103 -373q-87 -100 -223 -100q-95 0 -191 43l48 198q25 -14 65 -14q75 0 98 55q19 42 19 144q0 101 -4 138.5t-21 59.5q-29 39 -94 39q-84 0 -168 -65v-578h-278v1176h-258v247h927l-32 -247h-359v-373q114 80 242 80q72 0 139 -20.5t109 -61.5
q47 -47 65.5 -120.5t18.5 -227.5z" />
    <glyph glyph-name="uni0403" unicode="&#x403;" horiz-adv-x="768" 
d="M809 1423l-31 -247h-366v-1176h-279v1423h676zM737 1704l-407 -199l-90 146l378 250z" />
    <glyph glyph-name="uni0404" unicode="&#x404;" horiz-adv-x="1030" 
d="M967 1333l-125 -207q-101 72 -207 72q-114 0 -180 -82q-65 -81 -76 -270h352v-230h-352q4 -201 74 -297q68 -96 196 -96q123 0 225 86l123 -198q-74 -63 -147 -91q-103 -43 -213 -43q-58 0 -114 11t-120.5 38.5t-125 85t-105.5 138.5q-100 182 -100 481q0 184 42.5 320
t110.5 221q143 174 379 174q100 0 213 -37q83 -26 150 -76z" />
    <glyph glyph-name="uni0405" unicode="&#x405;" horiz-adv-x="1085" 
d="M1014 436q0 -144 -70 -250t-186.5 -158.5t-261.5 -52.5q-251 0 -445 134l121 225q150 -117 322 -117q95 0 151.5 45t56.5 127q0 60 -36.5 94.5t-114.5 71.5l-166 78q-46 22 -79 40.5t-72 51.5t-62.5 70.5t-40 94t-16.5 124.5q0 191 127.5 312.5t326.5 121.5
q243 0 422 -129l-129 -205q-76 48 -138.5 73t-129.5 25q-78 0 -126 -37t-48 -104q0 -57 31 -94.5t90 -63.5l207 -90q57 -24 101 -54t83.5 -75.5t60.5 -110.5t21 -147z" />
    <glyph glyph-name="uni0406" unicode="&#x406;" horiz-adv-x="546" 
d="M414 0h-281v1423h281v-1423z" />
    <glyph glyph-name="uni0407" unicode="&#x407;" horiz-adv-x="546" 
d="M414 0h-281v1423h281v-1423zM213 1688q0 -61 -43.5 -104.5t-103.5 -43.5q-62 0 -108 43.5t-46 104.5q0 62 43 104.5t104 42.5q64 0 109 -42.5t45 -104.5zM635 1688q0 -61 -44 -104.5t-104 -43.5q-62 0 -107.5 43.5t-45.5 104.5q0 62 43 104.5t104 42.5q64 0 109 -42.5
t45 -104.5z" />
    <glyph glyph-name="uni0408" unicode="&#x408;" horiz-adv-x="548" 
d="M416 1423v-1294q0 -191 -90 -317q-79 -112 -224 -170l-133 155q62 43 94 79.5t50 88.5q24 71 24 279v1179h279z" />
    <glyph glyph-name="uni0409" unicode="&#x409;" horiz-adv-x="1665" 
d="M1640 432q-3 -200 -118 -309q-128 -123 -406 -123h-350v1176h-225l-13 -215q-1 -14 -6.5 -123t-8 -160t-9 -133t-12.5 -133q-23 -217 -103 -306q-32 -38 -78.5 -63t-78.5 -33t-80 -16l-86 -14l-62 213l49 14q52 17 90 43q48 35 71 119t36 211q27 278 33 565l8 278h753
v-536h86q271 0 402 -144q108 -122 108 -311zM1333 432q0 110 -57 160q-51 43 -150 43h-82v-383h99q96 0 143 47t47 133z" />
    <glyph glyph-name="uni040A" unicode="&#x40a;" horiz-adv-x="1619" 
d="M1593 432q-3 -200 -118 -309q-128 -123 -406 -123h-350v635h-307v-635h-279v1423h279v-536h307v536h278v-536h86q271 0 402 -144q108 -122 108 -311zM1286 432q0 110 -57 160q-51 43 -150 43h-82v-383h99q96 0 143 47t47 133z" />
    <glyph glyph-name="uni040B" unicode="&#x40b;" horiz-adv-x="1226" 
d="M1128 0h-280v436q0 89 -6.5 125t-26.5 55q-31 27 -82 27q-81 0 -172 -65v-578h-278v1176h-258v247h927l-32 -247h-359v-373q111 80 242 80q163 0 246 -78q45 -43 62 -112t17 -216v-477z" />
    <glyph glyph-name="uni040C" unicode="&#x40c;" horiz-adv-x="1155" 
d="M1026 1442l68 -195l-76 -24q-42 -13 -55 -29q-21 -25 -35 -84l-37 -145q-31 -110 -60 -144q-42 -48 -94 -63v-4q56 -23 97 -80q31 -42 55 -127l63 -223q10 -39 20 -61t29 -38q29 -24 95 -39l34 -8l-63 -203l-100 11q-78 7 -132.5 26.5t-89.5 67.5q-37 48 -61 180l-35 184
q-14 93 -53 134q-37 45 -111 45h-73v-623h-279v1423h279v-544h92q77 0 114 47q34 39 48 121l28 159q21 110 76 160q51 49 170 66zM870 1704l-407 -199l-90 146l379 250z" />
    <glyph glyph-name="uni040D" unicode="&#x40d;" horiz-adv-x="1193" 
d="M1061 0h-279v680q0 121 11 268q-41 -133 -76 -221l-289 -727h-295v1423h279v-686q0 -125 -13 -258q46 139 82 234l279 710h301v-1423zM864 1651l-86 -146l-409 197l112 199z" />
    <glyph glyph-name="uni040E" unicode="&#x40e;" horiz-adv-x="1028" 
d="M1018 1423l-328 -1032q-56 -171 -85.5 -244t-63.5 -114q-40 -49 -89.5 -72.5t-121.5 -36.5l-82 -16l-98 201l71 18q80 21 123.5 71.5t77.5 149.5l14 39l-86 -10q-12 65 -74 252l-266 794h297l164 -555q45 -153 57 -245q48 230 54 251l153 549h283zM506 1520
q-54 0 -109 20.5t-97.5 51.5t-73 62.5t-48.5 59.5l101 115q33 -33 58.5 -54.5t73.5 -44t95 -22.5t95.5 23t73.5 43.5t60 54.5l99 -115q-18 -28 -48.5 -59.5t-73 -62.5t-97.5 -51.5t-109 -20.5z" />
    <glyph glyph-name="uni040F" unicode="&#x40f;" horiz-adv-x="1122" 
d="M991 0h-291v-350h-278v350h-289v1423h279v-1171h301v1171h278v-1423z" />
    <glyph glyph-name="uni0410" unicode="&#x410;" horiz-adv-x="1069" 
d="M1083 0h-303l-78 319h-342l-81 -319h-293l401 1423h315zM649 543l-74 354q-21 99 -40 236q-5 -24 -21 -114t-22 -122l-74 -354h231z" />
    <glyph glyph-name="uni0411" unicode="&#x411;" horiz-adv-x="1032" 
d="M1008 432q-3 -199 -119 -309q-128 -123 -406 -123h-350v1423h766l-37 -247h-450v-289h86q270 0 401 -144q109 -123 109 -311zM700 432q0 110 -57 160q-51 43 -149 43h-82v-383h98q96 0 143 47t47 133z" />
    <glyph glyph-name="uni0412" unicode="&#x412;" horiz-adv-x="1099" 
d="M1028 428q0 -117 -42.5 -209.5t-121.5 -146.5q-104 -72 -278 -72h-453v1423h432q170 0 266 -57q69 -40 110.5 -116.5t41.5 -178.5q0 -105 -52.5 -191.5t-152.5 -121.5q113 -32 181.5 -117.5t68.5 -212.5zM713 434q0 184 -174 184h-127v-368h139q81 0 121.5 50t40.5 134z
M694 1018q0 75 -41.5 117.5t-115.5 42.5h-125v-320h131q77 0 114 42.5t37 117.5z" />
    <glyph glyph-name="uni0413" unicode="&#x413;" horiz-adv-x="768" 
d="M809 1423l-31 -247h-366v-1176h-279v1423h676z" />
    <glyph glyph-name="uni0414" unicode="&#x414;" horiz-adv-x="1230" 
d="M18 252h125q83 225 133 563q31 225 37 387l9 221h757v-1171h125v-602h-276v350h-631v-350h-279v602zM412 252h389v924h-232l-6 -162q-9 -174 -39 -348q-40 -237 -112 -414z" />
    <glyph glyph-name="uni0415" unicode="&#x415;" horiz-adv-x="899" 
d="M858 0h-725v1423h717l-31 -245h-405v-318h336v-242h-336v-366h444v-252z" />
    <glyph glyph-name="uni0416" unicode="&#x416;" horiz-adv-x="1767" 
d="M61 1247l68 195l86 -10q119 -17 170 -66q55 -50 76 -160l28 -159q14 -82 48 -121q37 -47 114 -47h92v544h279v-544h92q78 0 115 47q33 37 47 121l29 159q21 111 75 160q51 49 170 66l86 10l68 -195l-76 -24q-42 -13 -55 -29q-21 -25 -35 -84l-37 -145q-31 -111 -59 -144
q-42 -48 -94 -63v-4q55 -23 96 -80q31 -42 55 -127l64 -223q10 -39 20 -61t29 -38q30 -24 94 -39l35 -8l-64 -203l-100 11q-78 7 -132 26.5t-89 67.5q-38 49 -62 180l-34 184q-13 85 -54 134q-40 45 -110 45h-74v-623h-279v623h-73q-74 0 -111 -45q-39 -41 -53 -134
l-35 -184q-24 -132 -61 -180q-35 -48 -89.5 -67.5t-132.5 -26.5l-100 -11l-63 203l34 8q66 15 95 39q19 16 29 38t20 61l63 223q23 83 56 127q41 57 96 80v4q-52 15 -94 63q-29 34 -60 144l-37 145q-14 61 -34 84q-13 15 -56 29z" />
    <glyph glyph-name="uni0417" unicode="&#x417;" horiz-adv-x="987" 
d="M287 623v225h92q44 0 88 12.5t65 34.5q41 47 41 129q0 84 -36 127q-42 49 -129 49q-135 0 -228 -76l-127 203q67 48 131 72q121 47 269 47q243 0 352 -152q65 -94 65 -225q0 -118 -51 -195q-48 -73 -143 -112q106 -30 178 -117q66 -92 66 -225q0 -200 -125 -322
q-133 -125 -369 -125q-146 0 -262 50q-82 36 -150 90l127 202q38 -29 117 -63q57 -23 137 -23q106 0 158 56q47 47 47 139q0 107 -51 156q-45 43 -156 43h-106z" />
    <glyph glyph-name="uni0418" unicode="&#x418;" horiz-adv-x="1193" 
d="M1061 0h-279v680q0 121 11 268q-41 -133 -76 -221l-289 -727h-295v1423h279v-686q0 -125 -13 -258q46 139 82 234l279 710h301v-1423z" />
    <glyph glyph-name="uni0419" unicode="&#x419;" horiz-adv-x="1193" 
d="M1061 0h-279v680q0 121 11 268q-41 -133 -76 -221l-289 -727h-295v1423h279v-686q0 -125 -13 -258q46 139 82 234l279 710h301v-1423zM596 1520q-54 0 -109 20.5t-97.5 51.5t-73 62.5t-48.5 59.5l101 115q33 -33 58.5 -54.5t73.5 -44t95 -22.5t95.5 23t73.5 43.5t60 54.5
l99 -115q-18 -28 -48.5 -59.5t-73 -62.5t-97.5 -51.5t-109 -20.5z" />
    <glyph glyph-name="uni041A" unicode="&#x41a;" horiz-adv-x="1155" 
d="M1026 1442l68 -195l-76 -24q-42 -13 -55 -29q-21 -25 -35 -84l-37 -145q-31 -110 -60 -144q-42 -48 -94 -63v-4q56 -23 97 -80q31 -42 55 -127l63 -223q10 -39 20 -61t29 -38q29 -24 95 -39l34 -8l-63 -203l-100 11q-78 7 -132.5 26.5t-89.5 67.5q-37 48 -61 180l-35 184
q-14 93 -53 134q-37 45 -111 45h-73v-623h-279v1423h279v-544h92q77 0 114 47q34 39 48 121l28 159q21 110 76 160q51 49 170 66z" />
    <glyph glyph-name="uni041B" unicode="&#x41b;" horiz-adv-x="1173" 
d="M1042 1423v-1423h-278v1176h-223l-13 -215q-1 -14 -6.5 -123t-8 -160t-9 -133t-12.5 -133q-23 -217 -103 -306q-32 -38 -78.5 -63t-78.5 -33t-80 -16l-86 -14l-62 213l49 14q52 17 90 43q47 34 70.5 119.5t36.5 210.5q26 239 33 565l8 278h751z" />
    <glyph glyph-name="uni041C" unicode="&#x41c;" horiz-adv-x="1517" 
d="M1425 0h-276l-37 758q-8 188 -8 286q-1 -3 -10 -54t-21.5 -116.5t-19.5 -97.5l-174 -776h-256l-152 745q-4 22 -20 100.5t-25 126t-10 64.5q0 -215 -4 -295l-35 -741h-285l109 1423h370l148 -761q21 -109 41 -275q20 159 43 272l155 764h363z" />
    <glyph glyph-name="uni041D" unicode="&#x41d;" horiz-adv-x="1138" 
d="M1006 0h-279v623h-315v-623h-279v1423h279v-542h315v542h279v-1423z" />
    <glyph glyph-name="uni041E" unicode="&#x41e;" horiz-adv-x="1230" 
d="M1159 748q0 -122 -14.5 -227.5t-52 -208.5t-97 -175.5t-156 -117t-221.5 -44.5q-139 0 -245.5 56.5t-171 155.5t-97 225t-32.5 274q0 364 146 563t392 199q99 0 182.5 -29t142.5 -80.5t103 -118.5t70 -147t38.5 -160.5t12.5 -164.5zM848 711q0 79 -3.5 138.5t-12 120.5
t-25.5 103t-42.5 76t-64 51t-88.5 17q-227 0 -227 -488q0 -92 5 -163t20.5 -140.5t40.5 -115t68 -73.5t102 -28q57 0 98.5 26.5t66 69.5t39 111t19 136t4.5 159z" />
    <glyph glyph-name="uni041F" unicode="&#x41f;" horiz-adv-x="1122" 
d="M991 0h-278v1176h-301v-1176h-279v1423h858v-1423z" />
    <glyph glyph-name="uni0420" unicode="&#x420;" horiz-adv-x="1032" 
d="M1008 989q0 -234 -142 -360q-119 -107 -344 -107h-110v-522h-279v1423h361q223 0 342 -77q172 -112 172 -357zM700 983q0 101 -46.5 149t-139.5 48h-102v-416h92q105 0 150.5 50.5t45.5 168.5z" />
    <glyph glyph-name="uni0421" unicode="&#x421;" horiz-adv-x="1017" 
d="M987 111q-137 -134 -377 -134q-111 0 -209 43.5t-165 122.5q-164 194 -164 547q0 119 19 226.5t63 205.5t109 169t162.5 113t217.5 42q95 0 184 -30t134 -79l-127 -215q-90 78 -199 78q-252 0 -252 -442q0 -177 19.5 -278.5t60.5 -153.5q83 -103 176 -103q67 0 120 19.5
t105 68.5z" />
    <glyph glyph-name="uni0422" unicode="&#x422;" horiz-adv-x="899" 
d="M936 1423l-33 -245h-299v-1178h-280v1178h-297v245h909z" />
    <glyph glyph-name="uni0423" unicode="&#x423;" horiz-adv-x="1028" 
d="M1018 1423l-328 -1032q-56 -171 -85.5 -244t-63.5 -114q-40 -49 -89.5 -72.5t-121.5 -36.5l-82 -16l-98 201l71 18q80 21 123.5 71.5t77.5 149.5l14 39l-86 -10q-12 65 -74 252l-266 794h297l164 -555q45 -153 57 -245q48 230 54 251l153 549h283z" />
    <glyph glyph-name="uni0424" unicode="&#x424;" horiz-adv-x="1507" 
d="M616 0v225h-43q-240 0 -374 148q-138 153 -138 387q0 101 34 206t104 183q133 147 374 147h43v205h275v-205h43q125 0 220 -40.5t155 -106.5q70 -78 103.5 -183t33.5 -206q0 -235 -137 -387q-60 -67 -155 -107.5t-220 -40.5h-43v-225h-275zM928 1061h-37v-598h33
q105 0 161 59q58 62 58 244q0 173 -58 235q-55 60 -157 60zM616 1061h-36q-103 0 -158 -60q-57 -61 -57 -235q0 -183 57 -244q56 -59 162 -59h32v598z" />
    <glyph glyph-name="uni0425" unicode="&#x425;" horiz-adv-x="1028" 
d="M1051 0h-336l-195 471l-192 -471h-351l381 745l-344 678h344l160 -399l154 399h336l-330 -659z" />
    <glyph glyph-name="uni0426" unicode="&#x426;" horiz-adv-x="1157" 
d="M991 1423v-1171h137v-602h-276v350h-719v1423h279v-1171h301v1171h278z" />
    <glyph glyph-name="uni0427" unicode="&#x427;" horiz-adv-x="1054" 
d="M922 0h-279v561q-102 -47 -213 -47q-174 0 -256 88q-88 90 -88 283v538h279v-465q0 -111 32 -155q34 -43 103 -43q67 0 143 28v635h279v-1423z" />
    <glyph glyph-name="uni0428" unicode="&#x428;" horiz-adv-x="1589" 
d="M1456 1423v-1423h-1323v1423h279v-1171h243v1171h279v-1171h244v1171h278z" />
    <glyph glyph-name="uni0429" unicode="&#x429;" horiz-adv-x="1589" 
d="M1456 1423v-1171h139v-602h-278v350h-1184v1423h279v-1171h243v1171h279v-1171h244v1171h278z" />
    <glyph glyph-name="uni042A" unicode="&#x42a;" horiz-adv-x="1220" 
d="M1196 432q-3 -199 -119 -309q-128 -123 -405 -123h-350v1178h-322v245h600v-536h86q270 0 401 -144q109 -123 109 -311zM889 432q0 109 -58 160q-51 43 -149 43h-82v-383h98q97 0 144 47t47 133z" />
    <glyph glyph-name="uni042B" unicode="&#x42b;" horiz-adv-x="1558" 
d="M1425 0h-280v1423h280v-1423zM1008 432q-3 -199 -119 -309q-128 -123 -406 -123h-350v1423h279v-536h86q270 0 401 -144q109 -123 109 -311zM700 432q0 110 -57 160q-51 43 -149 43h-82v-383h98q96 0 143 47t47 133z" />
    <glyph glyph-name="uni042C" unicode="&#x42c;" horiz-adv-x="1032" 
d="M1008 432q-3 -199 -119 -309q-128 -123 -406 -123h-350v1423h279v-536h86q270 0 401 -144q109 -123 109 -311zM700 432q0 110 -57 160q-51 43 -149 43h-82v-383h98q96 0 143 47t47 133z" />
    <glyph glyph-name="uni042D" unicode="&#x42d;" horiz-adv-x="1030" 
d="M186 1126l-125 207q67 50 150 76q113 37 213 37q236 0 379 -174q68 -85 110.5 -221t42.5 -320q0 -297 -98 -479q-44 -82 -104.5 -139t-125.5 -85t-121.5 -39.5t-115.5 -11.5q-110 0 -213 43q-73 28 -147 91l123 198q102 -86 225 -86q128 0 196 96q70 96 74 297h-352v230
h352q-11 189 -76 270q-66 82 -180 82q-106 0 -207 -72z" />
    <glyph glyph-name="uni042E" unicode="&#x42e;" horiz-adv-x="1665" 
d="M414 0h-281v1423h281v-542h166q36 273 167.5 420t329.5 147q111 0 201 -42t147.5 -110.5t96.5 -161.5t55 -188.5t16 -197.5q0 -122 -13.5 -227.5t-49 -208.5t-91.5 -175.5t-147 -117t-209 -44.5q-99 0 -181.5 33.5t-141 92t-100.5 140.5t-64 177.5t-27 204.5h-155v-623z
M1081 1214q-50 0 -87.5 -30t-58.5 -76t-33.5 -113.5t-16.5 -129t-4 -136.5q0 -76 3 -136.5t11 -122t22.5 -106.5t36 -80.5t54 -54t73.5 -18.5q61 0 102 39.5t61.5 116t28 161t7.5 201.5q0 485 -199 485z" />
    <glyph glyph-name="uni042F" unicode="&#x42f;" horiz-adv-x="1148" 
d="M1016 0h-281v569h-88q-71 0 -112 -41q-37 -39 -54 -133l-22 -135q-21 -123 -62 -180q-25 -34 -65.5 -54.5t-72 -27t-85.5 -12.5l-80 -11l-63 205l49 13q49 11 70 32q28 25 45 99l41 155q24 91 53 131q44 60 110 78v6q-46 8 -91 32.5t-77 59.5q-81 88 -81 236
q0 108 35.5 185.5t86.5 123.5q65 55 147.5 73.5t184.5 18.5h412v-1423zM735 1171h-104q-78 0 -121 -32q-55 -40 -55 -144q0 -98 57 -143q42 -33 121 -33h102v352z" />
    <glyph glyph-name="uni0430" unicode="&#x430;" horiz-adv-x="940" 
d="M879 135l-156 -176q-34 13 -69.5 48t-47.5 67q-97 -101 -237 -101q-82 0 -143 26.5t-96 74t-52 105t-17 126.5q0 157 113.5 252.5t310.5 95.5q31 0 54 -2v78q0 82 -21 105q-22 28 -72 28q-142 0 -268 -112l-102 184q201 141 405 141q124 0 206 -47t108 -137
q16 -56 16 -178l-4 -383q0 -75 15 -120.5t57 -74.5zM537 256v199q-6 2 -15 2q-104 0 -148 -36.5t-44 -107.5q0 -58 25.5 -89t74.5 -31q32 0 63.5 18.5t43.5 44.5z" />
    <glyph glyph-name="uni0431" unicode="&#x431;" horiz-adv-x="987" 
d="M819 1569l103 -238q-61 -47 -201 -102q-20 -8 -89.5 -33.5t-123 -46t-74.5 -31.5q-77 -38 -112 -119q-28 -69 -31 -145h6q35 65 90 104q78 56 174 56q148 0 250 -113q117 -134 117 -391q0 -266 -113 -401q-52 -62 -131.5 -99t-175.5 -37q-111 0 -193 45.5t-129 112.5
q-66 91 -87 207.5t-21 251.5q0 337 61 497q81 221 336 328l127 51q125 47 217 103zM631 500q0 181 -35 235q-31 56 -94 56q-51 0 -86 -50q-23 -27 -32 -83t-9 -160q0 -145 20 -215q26 -86 109 -86q72 0 102 79q25 77 25 224z" />
    <glyph glyph-name="uni0432" unicode="&#x432;" horiz-adv-x="974" 
d="M133 1049h449q139 0 212.5 -68.5t73.5 -196.5q0 -83 -33.5 -144.5t-105.5 -84.5q87 -17 133.5 -87t46.5 -169q0 -150 -87 -224.5t-230 -74.5h-459v1049zM408 457v-273h102q121 0 121 140q0 58 -28.5 95.5t-86.5 37.5h-108zM408 862v-227h86q54 0 80 26.5t26 86.5
q0 62 -25 88t-79 26h-88z" />
    <glyph glyph-name="uni0433" unicode="&#x433;" horiz-adv-x="763" 
d="M408 0h-275v1049h619l-37 -234h-307v-815z" />
    <glyph glyph-name="uni0434" unicode="&#x434;" horiz-adv-x="1042" 
d="M2 215h123q68 139 95 295.5t32 396.5l4 142h641v-834h129v-510h-256v295h-512v-295h-256v510zM373 215h268v610h-166l-2 -75q-10 -213 -35 -332q-23 -107 -65 -203z" />
    <glyph glyph-name="uni0435" unicode="&#x435;" horiz-adv-x="929" 
d="M881 451h-525v-19q0 -100 31 -156q45 -83 143 -83q116 0 232 104l110 -176q-162 -146 -358 -146q-212 0 -327 143t-115 404q0 272 112 416q107 137 297 137q175 0 277 -108q65 -71 94 -182.5t29 -278.5v-55zM608 645q0 117 -20 166q-29 70 -101 70q-67 0 -98.5 -54.5
t-32.5 -181.5h252z" />
    <glyph glyph-name="uni0436" unicode="&#x436;" horiz-adv-x="1423" 
d="M848 0h-275v449h-43q-40 0 -67 -27q-27 -29 -35 -86l-29 -146q-16 -88 -53 -139q-52 -62 -176 -69l-98 -7l-47 197l55 10q33 7 51 21q21 18 37 73l39 134q15 52 39 88q26 38 73 55v6q-43 8 -71 43q-24 32 -37 84l-29 98q-13 45 -25 60.5t-42 21.5l-56 13l47 194l93 -8
q55 -5 87 -17t56 -40q42 -45 57 -129l23 -113q10 -62 31 -86q26 -29 84 -29h36v385l275 31v-416h37q58 0 84 29q20 23 30 86l23 113q15 84 57 129q24 28 56.5 40t87.5 17l92 8l47 -194l-55 -13q-31 -6 -43 -22t-25 -60l-29 -98q-14 -54 -36 -84q-28 -34 -72 -43v-6
q48 -17 74 -55q22 -34 38 -88l39 -134q16 -55 37 -73q18 -14 51 -21l56 -10l-47 -197l-99 7q-124 7 -176 69q-37 51 -53 139l-29 146q-8 57 -35 86q-27 27 -67 27h-43v-449z" />
    <glyph glyph-name="uni0437" unicode="&#x437;" horiz-adv-x="829" 
d="M270 637l64 2q79 0 110 33q29 29 29 80q0 46 -29 75q-24 27 -86 27q-54 0 -92.5 -16t-79.5 -56l-131 172q43 43 125 80q93 41 213 41q163 0 252 -71q98 -81 98 -226q0 -80 -34 -137q-42 -64 -111 -88q77 -20 123 -78q49 -62 49 -168q0 -147 -102 -241q-102 -93 -283 -93
q-115 0 -199 37q-90 40 -159 109l125 172q40 -44 81 -66q54 -28 115 -28q60 0 98 28q37 33 37 94q0 69 -39 103q-43 35 -106 35h-68v180z" />
    <glyph glyph-name="uni0438" unicode="&#x438;" horiz-adv-x="1089" 
d="M956 0h-274v391q0 88 8 252h-4q-43 -118 -72 -182l-208 -461h-273v1034l275 33v-432q0 -25 -11 -250h6q35 99 91 229l188 422l274 31v-1067z" />
    <glyph glyph-name="uni0439" unicode="&#x439;" horiz-adv-x="1089" 
d="M956 0h-274v391q0 88 8 252h-4q-43 -118 -72 -182l-208 -461h-273v1034l275 33v-432q0 -25 -11 -250h6q35 99 91 229l188 422l274 31v-1067zM545 1157q-54 0 -109 20.5t-97.5 52.5t-73 63t-48.5 59l98 116q34 -33 60 -54t74.5 -43.5t95.5 -22.5q107 0 227 120l100 -116
q-26 -39 -69 -80.5t-115 -78t-143 -36.5z" />
    <glyph glyph-name="uni043A" unicode="&#x43a;" horiz-adv-x="1005" 
d="M408 0h-275v1036l275 31v-416h57q58 0 84 29q21 24 31 86l22 113q15 84 57 129q24 28 56.5 40t87.5 17l92 8l47 -194l-55 -13q-31 -6 -43 -22t-25 -60l-28 -98q-13 -52 -37 -84q-28 -34 -72 -43v-6q48 -17 74 -55q24 -36 39 -88l39 -134q17 -56 36 -73q18 -14 52 -21
l55 -10l-47 -197l-99 7q-124 7 -176 69q-37 51 -53 139l-29 146q-9 58 -34 86q-27 27 -68 27h-63v-449z" />
    <glyph glyph-name="uni043B" unicode="&#x43b;" horiz-adv-x="1034" 
d="M903 0h-274v825h-166l-19 -336q-17 -277 -67 -366q-61 -116 -225 -133l-99 -10l-53 192l63 23q69 24 95.5 78.5t38.5 191.5q19 194 34 584h672v-1049z" />
    <glyph glyph-name="uni043C" unicode="&#x43c;" horiz-adv-x="1247" 
d="M1169 0h-247l-27 547l-6 123l-31 -121l-141 -549h-205l-129 539l-29 131q-3 -106 -4 -127l-24 -543h-246l96 1049h297l117 -506q15 -52 35 -172q5 38 12 75.5t13.5 68.5t8.5 40l123 494h293z" />
    <glyph glyph-name="uni043D" unicode="&#x43d;" horiz-adv-x="1032" 
d="M133 0v1036l275 31v-405h217v374l274 31v-1067h-274v428h-217v-428h-275z" />
    <glyph glyph-name="uni043E" unicode="&#x43e;" horiz-adv-x="956" 
d="M899 541q0 -258 -114 -413t-312 -155q-85 0 -154.5 28.5t-117.5 78.5t-81 119.5t-48 150.5t-15 174q0 114 26 212.5t77 175t133 120t186 43.5q188 0 304 -135t116 -399zM604 547q0 57 -2 96t-9.5 84t-20.5 72t-38 45t-59 18q-40 0 -66 -25.5t-38.5 -76t-16.5 -104
t-4 -132.5q0 -43 0.5 -69t3 -66.5t7.5 -65t14 -53.5t22.5 -45.5t34.5 -27.5t47 -11q41 0 67.5 29t38.5 86t15.5 111.5t3.5 134.5z" />
    <glyph glyph-name="uni043F" unicode="&#x43f;" horiz-adv-x="1019" 
d="M133 0v1049h754v-1049h-275v825h-204v-825h-275z" />
    <glyph glyph-name="uni0440" unicode="&#x440;" horiz-adv-x="1013" 
d="M942 567q0 -274 -95.5 -433t-285.5 -159q-88 0 -168 54q13 -89 13 -138v-292l-273 -56v1202q0 144 -27 279l252 49q19 -59 19 -104q26 43 86 74.5t127 31.5q352 0 352 -508zM653 539q0 32 -0.5 52t-2 51.5t-4.5 52.5t-8.5 47t-15 42.5t-21.5 32t-29.5 22.5t-39.5 7
q-77 0 -126 -72v-520q29 -53 92 -53q45 0 76 24t48 70.5t24 105t7 138.5z" />
    <glyph glyph-name="uni0441" unicode="&#x441;" horiz-adv-x="815" 
d="M797 119q-127 -144 -320 -144q-202 0 -307 150q-98 137 -98 387q0 310 153 457q109 106 273 106q83 0 145.5 -28.5t128.5 -90.5l-127 -174q-67 74 -139 74q-77 0 -111 -92q-28 -83 -28 -242q0 -166 31.5 -245.5t105.5 -79.5q102 0 172 92z" />
    <glyph glyph-name="uni0442" unicode="&#x442;" horiz-adv-x="782" 
d="M248 0v825h-225v224h755l-35 -224h-221v-825h-274z" />
    <glyph glyph-name="uni0443" unicode="&#x443;" horiz-adv-x="901" 
d="M924 1049l-332 -1059q-68 -217 -168.5 -323t-267.5 -134l-95 199q131 36 186.5 87t102.5 181h-86q-18 110 -71 293l-216 743l277 33l129 -504q39 -158 49 -350q55 249 78 330l137 504h277z" />
    <glyph glyph-name="uni0444" unicode="&#x444;" horiz-adv-x="1370" 
d="M821 1503v-485q66 57 156 57q156 0 235 -137q48 -82 66 -198.5t18 -215.5q0 -266 -88 -403q-94 -148 -264 -148q-76 0 -123 39v-413l-272 -56v469q-47 -39 -123 -39q-170 0 -264 148q-88 137 -88 403q0 99 18 215.5t66 198.5q79 137 235 137q90 0 156 -57v438zM821 803
v-559q30 -27 66 -27q50 0 82 35q51 58 51 274q0 218 -43 273q-30 37 -74 37q-36 0 -82 -33zM549 244v559q-46 33 -82 33q-44 0 -74 -37q-43 -55 -43 -273q0 -216 51 -274q32 -35 82 -35q36 0 66 27z" />
    <glyph glyph-name="uni0445" unicode="&#x445;" horiz-adv-x="915" 
d="M938 0h-330l-84 182q-20 41 -61 154q-39 -97 -78 -180l-80 -156h-328l320 555l-266 465l284 57l80 -157q24 -49 66 -172q22 110 55 178l59 123h318l-275 -486z" />
    <glyph glyph-name="uni0446" unicode="&#x446;" horiz-adv-x="1030" 
d="M133 1036l275 31v-852h200v821l275 31v-852h129v-510h-256v295h-623v1036z" />
    <glyph glyph-name="uni0447" unicode="&#x447;" horiz-adv-x="940" 
d="M61 1036l277 31v-391q0 -57 27 -84q24 -21 69 -21q50 0 98 23v442l275 31v-1067h-275v406q-93 -37 -182 -37q-149 0 -219 82q-70 84 -70 227v358z" />
    <glyph glyph-name="uni0448" unicode="&#x448;" horiz-adv-x="1445" 
d="M133 0v1036l275 31v-852h178v821l274 31v-852h178v821l275 31v-1067h-1180z" />
    <glyph glyph-name="uni0449" unicode="&#x449;" horiz-adv-x="1458" 
d="M133 0v1036l275 31v-852h178v821l274 31v-852h178v821l275 31v-852h129v-510h-256v295h-1053z" />
    <glyph glyph-name="uni044A" unicode="&#x44a;" horiz-adv-x="1099" 
d="M1077 334q0 -162 -100 -246q-104 -88 -318 -88h-374v825h-240v224h514v-383h84q217 0 324 -80q110 -81 110 -252zM803 334q0 54 -27 88q-23 27 -62 35t-104 8h-51v-262h55q128 0 162 41q27 35 27 90z" />
    <glyph glyph-name="uni044B" unicode="&#x44b;" horiz-adv-x="1427" 
d="M926 334q0 -161 -101 -246q-104 -88 -317 -88h-375v1038l275 29v-401h84q216 0 323 -80q111 -82 111 -252zM651 334q0 56 -26 88q-23 27 -62 35t-104 8h-51v-262h55q128 0 162 41q26 33 26 90zM1296 0h-274v1036l274 31v-1067z" />
    <glyph glyph-name="uni044C" unicode="&#x44c;" horiz-adv-x="948" 
d="M926 334q0 -161 -101 -246q-104 -88 -317 -88h-375v1038l275 29v-401h84q216 0 323 -80q111 -82 111 -252zM651 334q0 56 -26 88q-23 27 -62 35t-104 8h-51v-262h55q128 0 162 41q26 33 26 90z" />
    <glyph glyph-name="uni044D" unicode="&#x44d;" horiz-adv-x="833" 
d="M27 121l123 160q68 -95 184 -95q51 0 86 33q49 46 49 191v36h-213v201h213v29q0 105 -41 151q-28 35 -84 35q-98 0 -160 -69l-135 159q120 123 309 123q185 0 291 -139q113 -145 113 -414q0 -108 -23.5 -220t-79.5 -187q-106 -142 -303 -142q-202 0 -329 148z" />
    <glyph glyph-name="uni044E" unicode="&#x44e;" horiz-adv-x="1398" 
d="M1346 541q0 -257 -110 -411.5t-300 -154.5q-95 0 -169 36t-122 101t-75 149.5t-35 187.5h-127v-449h-275v1036l275 31v-412h133q28 189 129 304.5t268 115.5q183 0 295.5 -135t112.5 -399zM1061 543q0 72 -3.5 119.5t-15 96t-36.5 73t-64 24.5q-30 0 -52 -18t-35 -46.5
t-20 -74.5t-9.5 -91t-2.5 -106q0 -42 0.5 -66.5t3 -63.5t7 -62.5t13 -51.5t21.5 -43.5t32 -26.5t44 -11q38 0 62.5 28t36 82.5t15 107.5t3.5 130z" />
    <glyph glyph-name="uni044F" unicode="&#x44f;" horiz-adv-x="1017" 
d="M887 1049v-1049h-275v399h-65q-43 0 -64 -28.5t-32 -77.5l-27 -107q-23 -96 -57 -137q-50 -60 -174 -67l-95 -7l-45 203l41 8q34 6 58 25q23 16 38 70l27 88q29 100 109 129v8q-68 12 -115 65q-59 63 -59 183q0 158 102 235q71 60 195 60h438zM612 588v276h-59
q-60 0 -90 -28q-37 -33 -37 -111q0 -76 35 -109q30 -28 96 -28h55z" />
    <glyph glyph-name="uni0450" unicode="&#x450;" horiz-adv-x="929" 
d="M881 451h-525v-19q0 -100 31 -156q45 -83 143 -83q116 0 232 104l110 -176q-162 -146 -358 -146q-212 0 -327 143t-115 404q0 272 112 416q107 137 297 137q175 0 277 -108q65 -71 94 -182.5t29 -278.5v-55zM608 645q0 117 -20 166q-29 70 -101 70q-67 0 -98.5 -54.5
t-32.5 -181.5h252zM686 1282l-86 -145l-410 196l113 199z" />
    <glyph glyph-name="uni0451" unicode="&#x451;" horiz-adv-x="929" 
d="M881 451h-525v-19q0 -100 31 -156q45 -83 143 -83q116 0 232 104l110 -176q-162 -146 -358 -146q-212 0 -327 143t-115 404q0 272 112 416q107 137 297 137q175 0 277 -108q65 -71 94 -182.5t29 -278.5v-55zM608 645q0 117 -20 166q-29 70 -101 70q-67 0 -98.5 -54.5
t-32.5 -181.5h252zM420 1319q0 -61 -44 -104.5t-104 -43.5q-62 0 -107.5 43.5t-45.5 104.5q0 62 43 104.5t104 42.5q64 0 109 -42.5t45 -104.5zM842 1319q0 -61 -44 -104.5t-104 -43.5q-62 0 -107.5 43.5t-45.5 104.5q0 62 43 104.5t104 42.5q64 0 109 -42.5t45 -104.5z" />
    <glyph glyph-name="uni0452" unicode="&#x452;" horiz-adv-x="1036" 
d="M903 61q0 -145 -17 -238t-73 -159q-31 -39 -82 -77t-100 -58l-111 166q40 31 64.5 69.5t35 85.5t13 81.5t2.5 86.5v676q0 80 -21 107q-18 26 -71 26q-67 0 -137 -82v-745h-273v1167h-102v148h100q0 2 -14 137l270 37q10 -71 16 -174h304l-50 -148h-251v-92q0 -62 -3 -96
q40 41 105 66.5t141 25.5q120 0 187 -70t67 -192v-748z" />
    <glyph glyph-name="uni0453" unicode="&#x453;" horiz-adv-x="763" 
d="M408 0h-275v1049h619l-37 -234h-307v-815zM707 1335l-408 -198l-90 145l379 250z" />
    <glyph glyph-name="uni0454" unicode="&#x454;" horiz-adv-x="833" 
d="M684 281l123 -160q-127 -148 -330 -148q-197 0 -303 142q-55 75 -78.5 187t-23.5 220q0 270 112 414q106 139 291 139q189 0 309 -123l-135 -159q-62 69 -160 69q-55 0 -83 -35q-41 -46 -41 -151v-29h213v-201h-213v-36q0 -145 49 -191q35 -33 86 -33q116 0 184 95z" />
    <glyph glyph-name="uni0455" unicode="&#x455;" horiz-adv-x="872" 
d="M811 338q0 -166 -107.5 -265.5t-283.5 -99.5q-189 0 -369 121l90 207q62 -48 141.5 -82.5t143.5 -34.5q49 0 83 30.5t34 72.5q0 37 -25 63.5t-64.5 43.5t-87.5 33.5t-95.5 39.5t-87 54t-64.5 84t-25 124q0 157 96.5 252.5t255.5 95.5q183 0 328 -88l-84 -192
q-117 71 -211 71q-44 0 -71 -22.5t-27 -57.5q0 -39 23.5 -66.5t61.5 -45t84 -33.5t92 -38.5t84 -54t61.5 -85.5t23.5 -127z" />
    <glyph glyph-name="uni0456" unicode="&#x456;" horiz-adv-x="540" 
d="M410 0h-275v1036l275 31v-1067zM438 1333q0 -68 -50 -117t-120 -49q-68 0 -118 49.5t-50 116.5q0 68 51 117t121 49q69 0 117.5 -49t48.5 -117z" />
    <glyph glyph-name="uni0457" unicode="&#x457;" horiz-adv-x="540" 
d="M408 0h-275v1036l275 31v-1067zM209 1319q0 -61 -44 -104.5t-104 -43.5q-62 0 -107.5 43.5t-45.5 104.5q0 62 43 104.5t104 42.5q64 0 109 -42.5t45 -104.5zM631 1319q0 -61 -44 -104.5t-104 -43.5q-62 0 -107.5 43.5t-45.5 104.5q0 62 43 104.5t104 42.5q64 0 109 -42.5
t45 -104.5z" />
    <glyph glyph-name="uni0458" unicode="&#x458;" horiz-adv-x="536" 
d="M406 1067v-1036q0 -182 -37 -275q-28 -73 -83 -123t-149 -96l-114 156q63 49 86.5 116t23.5 193v1034zM432 1333q0 -68 -51 -117t-121 -49q-68 0 -118 49.5t-50 116.5q0 68 51 117t121 49q69 0 118.5 -49t49.5 -117z" />
    <glyph glyph-name="uni0459" unicode="&#x459;" horiz-adv-x="1441" 
d="M1417 334q0 -162 -100 -246q-104 -88 -318 -88h-374v825h-168q-8 -343 -39 -530q-20 -123 -76 -191q-48 -59 -108 -84.5t-173 -39.5l-67 190l57 23q48 18 71 47t38 88q28 101 39 268q17 214 26 453h674v-383h84q217 0 324 -80q110 -81 110 -252zM1143 334q0 54 -27 88
q-23 27 -62 35t-104 8h-51v-262h55q128 0 162 41q27 35 27 90z" />
    <glyph glyph-name="uni045A" unicode="&#x45a;" horiz-adv-x="1439" 
d="M1417 334q0 -162 -100 -246q-104 -88 -318 -88h-374v465h-217v-465h-275v1036l275 31v-377h217v348l274 29v-401h84q217 0 324 -80q110 -81 110 -252zM1143 334q0 54 -27 88q-23 27 -62 35t-104 8h-51v-262h55q128 0 162 41q27 35 27 90z" />
    <glyph glyph-name="uni045B" unicode="&#x45b;" horiz-adv-x="1036" 
d="M903 0h-268v694q0 80 -21 107q-18 26 -71 26q-67 0 -137 -82v-745h-273v1167h-102v148h100q0 2 -14 137l270 37q10 -71 16 -174h304l-50 -148h-251v-92q0 -62 -3 -96q40 41 105 66.5t141 25.5q120 0 187 -70t67 -192v-809z" />
    <glyph glyph-name="uni045C" unicode="&#x45c;" horiz-adv-x="1005" 
d="M408 0h-275v1036l275 31v-416h57q58 0 84 29q21 24 31 86l22 113q15 84 57 129q24 28 56.5 40t87.5 17l92 8l47 -194l-55 -13q-31 -6 -43 -22t-25 -60l-28 -98q-13 -52 -37 -84q-28 -34 -72 -43v-6q48 -17 74 -55q24 -36 39 -88l39 -134q17 -56 36 -73q18 -14 52 -21
l55 -10l-47 -197l-99 7q-124 7 -176 69q-37 51 -53 139l-29 146q-9 58 -34 86q-27 27 -68 27h-63v-449zM807 1335l-408 -198l-90 145l379 250z" />
    <glyph glyph-name="uni045D" unicode="&#x45d;" horiz-adv-x="1089" 
d="M956 0h-274v391q0 88 8 252h-4q-43 -118 -72 -182l-208 -461h-273v1034l275 33v-432q0 -25 -11 -250h6q35 99 91 229l188 422l274 31v-1067zM793 1282l-86 -145l-410 196l113 199z" />
    <glyph glyph-name="uni045E" unicode="&#x45e;" horiz-adv-x="901" 
d="M924 1049l-332 -1059q-68 -217 -168.5 -323t-267.5 -134l-95 199q131 36 186.5 87t102.5 181h-86q-18 110 -71 293l-216 743l277 33l129 -504q39 -158 49 -350q55 249 78 330l137 504h277zM442 1157q-71 0 -143 36.5t-115 78t-69 80.5l98 116q35 -33 60 -54t73.5 -43.5
t95.5 -22.5q108 0 228 120l100 -116q-18 -28 -48.5 -59t-73 -63t-97.5 -52.5t-109 -20.5z" />
    <glyph glyph-name="uni045F" unicode="&#x45f;" horiz-adv-x="1011" 
d="M897 0h-254v-295h-256v295h-254v1036l275 31v-852h215v821l274 31v-1067z" />
    <glyph glyph-name="uni0462" unicode="&#x462;" horiz-adv-x="1032" 
d="M1008 432q-3 -199 -119 -309q-128 -123 -406 -123h-350v1102h-108v176h108v145h279v-145h213v-176h-213v-215h86q270 0 401 -144q109 -123 109 -311zM700 432q0 110 -57 160q-51 43 -149 43h-82v-383h98q96 0 143 47t47 133z" />
    <glyph glyph-name="uni0463" unicode="&#x463;" horiz-adv-x="948" 
d="M20 778v174h113v84l275 31v-115h196v-174h-196v-88h129q192 0 274 -82q96 -96 96 -270q0 -168 -92 -260q-46 -46 -99.5 -62t-125.5 -16h-457v778h-113zM633 348q0 71 -35 109q-30 35 -94 35h-96v-289h96q64 0 94 35q35 38 35 110z" />
    <glyph glyph-name="uni0472" unicode="&#x472;" horiz-adv-x="1277" 
d="M1206 748q0 -121 -17 -229.5t-59 -209.5t-105 -174t-161.5 -116.5t-222.5 -43.5q-135 0 -244 54.5t-179.5 150t-108 224.5t-37.5 280q0 181 42.5 326.5t117.5 240.5t177.5 145t223.5 50t220 -42.5t163.5 -112t108.5 -162t62.5 -187.5t18.5 -194zM889 854
q-15 188 -76.5 274t-177.5 86q-75 0 -128 -50t-79 -127t-37 -183h498zM891 621h-504q24 -412 256 -412q118 0 177.5 102.5t70.5 309.5z" />
    <glyph glyph-name="uni0473" unicode="&#x473;" horiz-adv-x="960" 
d="M899 541q0 -258 -114 -413t-312 -155q-85 0 -154.5 28.5t-117.5 78.5t-81 119.5t-48 150.5t-15 174q0 114 26 212.5t77 175t133 120t186 43.5q188 0 304 -135t116 -399zM479 186q44 0 71.5 36.5t38 88.5t13.5 129h-252q2 -55 7.5 -96t19 -79t39.5 -58.5t63 -20.5z
M475 862q-63 0 -90.5 -62.5t-32.5 -176.5h250q-2 72 -12.5 121.5t-39 83.5t-75.5 34z" />
    <glyph glyph-name="uni0474" unicode="&#x474;" horiz-adv-x="1202" 
d="M1202 1237q-63 -26 -100.5 -48.5t-69.5 -58.5q-32 -37 -57.5 -99t-59.5 -181l-239 -850h-314l-387 1423h310l172 -776q39 -161 61 -293l4 2q6 37 14.5 77t15 66.5t18.5 72.5t18 71l96 391q41 167 143 262q113 105 289 125z" />
    <glyph glyph-name="uni0475" unicode="&#x475;" horiz-adv-x="966" 
d="M969 879q-82 -31 -128 -90.5t-83 -180.5l-183 -610h-280l-320 1028l297 39l117 -475q40 -164 51 -248l4 -2q14 116 48 244q38 137 59 194q38 108 90 162q82 89 260 119z" />
    <glyph glyph-name="uni0490" unicode="&#x490;" horiz-adv-x="768" 
d="M809 1622v-446h-397v-1176h-279v1423h422v199h254z" />
    <glyph glyph-name="uni0491" unicode="&#x491;" horiz-adv-x="763" 
d="M408 0h-275v1049h344v155l275 31v-420h-344v-815z" />
    <glyph glyph-name="uni0492" unicode="&#x492;" horiz-adv-x="823" 
d="M864 1423l-30 -247h-367v-359h201v-213h-201v-604h-279v604h-163v213h163v606h676z" />
    <glyph glyph-name="uni0493" unicode="&#x493;" horiz-adv-x="788" 
d="M430 0h-274v426h-127v209h127v414h618l-37 -234h-307v-180h176l-47 -209h-129v-426z" />
    <glyph glyph-name="uni0496" unicode="&#x496;" horiz-adv-x="1767" 
d="M61 1247l68 195l86 -10q119 -17 170 -66q55 -50 76 -160l28 -159q14 -82 48 -121q37 -47 114 -47h92v544h279v-544h92q78 0 115 47q33 37 47 121l29 159q21 111 75 160q51 49 170 66l86 10l68 -195l-76 -24q-42 -13 -55 -29q-21 -25 -35 -84l-37 -145q-31 -111 -59 -144
q-42 -48 -94 -63v-4q55 -23 96 -80q31 -42 55 -127l64 -223q14 -54 24 -72h154v-602h-279v356q-71 23 -106 74q-38 49 -62 180l-34 184q-13 85 -54 134q-40 45 -110 45h-74v-623h-279v623h-73q-74 0 -111 -45q-39 -41 -53 -134l-35 -184q-24 -132 -61 -180
q-35 -48 -89.5 -67.5t-132.5 -26.5l-100 -11l-63 203l34 8q66 15 95 39q19 16 29 38t20 61l63 223q23 83 56 127q41 57 96 80v4q-52 15 -94 63q-29 34 -60 144l-37 145q-14 61 -34 84q-13 15 -56 29z" />
    <glyph glyph-name="uni0497" unicode="&#x497;" horiz-adv-x="1423" 
d="M848 0h-275v449h-43q-40 0 -67 -27q-27 -29 -35 -86l-29 -146q-16 -88 -53 -139q-52 -62 -176 -69l-98 -7l-47 197l55 10q33 7 51 21q21 18 37 73l39 134q15 52 39 88q26 38 73 55v6q-43 8 -71 43q-24 32 -37 84l-29 98q-13 45 -25 60.5t-42 21.5l-56 13l47 194l93 -8
q55 -5 87 -17t56 -40q42 -45 57 -129l23 -113q10 -62 31 -86q26 -29 84 -29h36v385l275 31v-416h37q58 0 84 29q20 23 30 86l23 113q15 84 57 129q24 28 56.5 40t87.5 17l92 8l47 -194l-55 -13q-31 -6 -43 -22t-25 -60l-29 -98q-14 -54 -36 -84q-28 -34 -72 -43v-6
q48 -17 74 -55q22 -34 38 -88l39 -134q9 -38 25 -61h119v-510h-256v299q-43 17 -66 47q-37 51 -53 139l-29 146q-8 57 -35 86q-27 27 -67 27h-43v-449z" />
    <glyph glyph-name="uni049A" unicode="&#x49a;" horiz-adv-x="1155" 
d="M1026 1442l68 -195l-76 -24q-42 -13 -55 -29q-21 -25 -35 -84l-37 -145q-31 -110 -60 -144q-42 -48 -94 -63v-4q56 -23 97 -80q31 -42 55 -127l63 -223q13 -50 25 -72h153v-602h-278v356q-72 23 -107 74q-37 48 -61 180l-35 184q-14 93 -53 134q-37 45 -111 45h-73v-623
h-279v1423h279v-544h92q77 0 114 47q34 39 48 121l28 159q21 110 76 160q51 49 170 66z" />
    <glyph glyph-name="uni049B" unicode="&#x49b;" horiz-adv-x="1005" 
d="M408 0h-275v1036l275 31v-416h57q58 0 84 29q21 24 31 86l22 113q15 84 57 129q24 28 56.5 40t87.5 17l92 8l47 -194l-55 -13q-31 -6 -43 -22t-25 -60l-28 -98q-13 -52 -37 -84q-28 -34 -72 -43v-6q48 -17 74 -55q24 -36 39 -88l39 -134q10 -40 24 -61h119v-510h-256v299
q-43 17 -66 47q-37 51 -53 139l-29 146q-9 58 -34 86q-27 27 -68 27h-63v-449z" />
    <glyph glyph-name="uni049C" unicode="&#x49c;" horiz-adv-x="1226" 
d="M475 389v234h-63v-623h-279v1423h279v-544h63v233h129v-233q54 7 86 47q33 37 47 121l29 159q21 110 76 160q51 49 170 66l86 10l67 -195l-75 -24q-43 -14 -56 -29q-21 -25 -35 -84l-36 -145q-31 -110 -60 -144q-42 -48 -94 -63v-4q55 -23 96 -80q33 -44 56 -127l63 -223
q10 -39 20 -61t29 -38q30 -24 94 -39l35 -8l-63 -203l-101 11q-78 7 -132 26.5t-89 67.5q-37 48 -61 180l-35 184q-14 93 -53 134q-25 28 -64 38v-227h-129z" />
    <glyph glyph-name="uni049D" unicode="&#x49d;" horiz-adv-x="1077" 
d="M471 246v203h-63v-449h-275v1036l275 31v-416h63v183h111v-179q23 6 39 25q20 23 30 86l23 113q15 84 57 129q24 28 56 40t87 17l93 8l47 -194l-56 -13q-30 -6 -42 -21.5t-25 -60.5l-29 -98q-13 -52 -37 -84q-28 -35 -71 -43v-6q47 -17 73 -55q24 -36 39 -88l39 -134
q16 -55 37 -73q18 -14 51 -21l56 -10l-48 -197l-98 7q-124 7 -176 69q-37 51 -53 139l-29 146q-8 57 -35 86q-11 11 -28 18v-194h-111z" />
    <glyph glyph-name="uni04A2" unicode="&#x4a2;" horiz-adv-x="1138" 
d="M1006 1423v-1171h139v-602h-279v350h-139v623h-315v-623h-279v1423h279v-542h315v542h279z" />
    <glyph glyph-name="uni04A3" unicode="&#x4a3;" horiz-adv-x="1032" 
d="M133 0v1036l275 31v-405h217v374l274 31v-852h129v-510h-256v295h-147v428h-217v-428h-275z" />
    <glyph glyph-name="uni04AE" unicode="&#x4ae;" horiz-adv-x="999" 
d="M1034 1423l-397 -901v-522h-287v520l-385 903h334l145 -454q42 -141 58 -205q7 33 28.5 112.5t26.5 92.5l148 454h329z" />
    <glyph glyph-name="uni04AF" unicode="&#x4af;" horiz-adv-x="835" 
d="M860 1049l-315 -1037v-399l-271 -70v469q-17 77 -77 281l-222 747l279 27l104 -397q42 -177 54 -279h4q16 144 55 289l98 369h291z" />
    <glyph glyph-name="uni04B0" unicode="&#x4b0;" horiz-adv-x="999" 
d="M1034 1423l-321 -729h172v-196h-248v-498h-287v498h-233v196h159l-311 729h334l145 -454q42 -141 58 -205q7 33 28.5 112.5t26.5 92.5l148 454h329z" />
    <glyph glyph-name="uni04B1" unicode="&#x4b1;" horiz-adv-x="835" 
d="M860 1049l-258 -848h170l-45 -197h-182v-391l-271 -70v461h-206v197h155q-4 13 -26 92l-222 747l279 27l104 -397q42 -177 54 -279h4q16 144 55 289l98 369h291z" />
    <glyph glyph-name="uni04B2" unicode="&#x4b2;" horiz-adv-x="1028" 
d="M1008 1423l-330 -659l250 -512h123v-602h-279v350h-57l-195 471l-192 -471h-351l381 745l-344 678h344l160 -399l154 399h336z" />
    <glyph glyph-name="uni04B3" unicode="&#x4b3;" horiz-adv-x="915" 
d="M893 1049l-275 -486l197 -348h125v-510h-256v295h-76l-84 182q-20 41 -61 154q-39 -97 -78 -180l-80 -156h-328l320 555l-266 465l284 57l80 -157q24 -49 66 -172q22 110 55 178l59 123h318z" />
    <glyph glyph-name="uni04B6" unicode="&#x4b6;" horiz-adv-x="1054" 
d="M922 1423v-1171h139v-602h-279v350h-139v561q-102 -47 -213 -47q-174 0 -256 88q-88 90 -88 283v538h279v-465q0 -111 32 -155q34 -43 103 -43q67 0 143 28v635h279z" />
    <glyph glyph-name="uni04B7" unicode="&#x4b7;" horiz-adv-x="940" 
d="M61 1036l277 31v-391q0 -57 27 -84q24 -21 69 -21q50 0 98 23v442l275 31v-852h129v-510h-256v295h-148v406q-93 -37 -182 -37q-149 0 -219 82q-70 84 -70 227v358z" />
    <glyph glyph-name="uni04B8" unicode="&#x4b8;" horiz-adv-x="1054" 
d="M922 0h-279v561q-29 -14 -61 -24v-285h-154v262q-172 0 -254 88q-88 90 -88 283v538h279v-465q0 -111 32 -155q11 -17 31 -27v271h154v-277q32 6 61 18v635h279v-1423z" />
    <glyph glyph-name="uni04B9" unicode="&#x4b9;" horiz-adv-x="940" 
d="M61 1036l277 31v-391q0 -57 27 -84q8 -8 12 -10v223h119v-225q24 8 36 14v442l275 31v-1067h-275v406q-6 -3 -36 -15v-241h-119v219h-27q-149 0 -219 82q-70 84 -70 227v358z" />
    <glyph glyph-name="uni04BA" unicode="&#x4ba;" horiz-adv-x="1052" 
d="M133 1423h281v-563q99 47 219 47q170 0 252 -86q86 -91 86 -282v-539h-279v469q0 103 -33 147q-30 43 -104 43q-67 0 -141 -30v-629h-281v1423z" />
    <glyph glyph-name="uni04BB" unicode="&#x4bb;" horiz-adv-x="1034" 
d="M903 0h-268v694q0 80 -21 107q-18 26 -71 26q-67 0 -137 -82v-745h-273v1219q0 115 -16 233l270 37q19 -131 19 -262v-152q0 -62 -3 -96q40 41 105 66.5t141 25.5q120 0 187 -70t67 -192v-809z" />
    <glyph glyph-name="uni04C0" unicode="&#x4c0;" horiz-adv-x="546" 
d="M414 0h-281v1423h281v-1423z" />
    <glyph glyph-name="uni04CF" unicode="&#x4cf;" horiz-adv-x="538" 
d="M408 0h-275v1214q0 116 -16 234l268 39q23 -170 23 -262v-1225z" />
    <glyph glyph-name="uni04D8" unicode="&#x4d8;" horiz-adv-x="1167" 
d="M72 791h716v34q0 166 -70 272.5t-202 106.5q-145 0 -262 -114l-129 196q166 160 410 160q259 0 410 -198.5t151 -547.5q0 -348 -146 -535.5t-387 -187.5q-90 0 -162.5 25t-123 66.5t-88 103.5t-59.5 127.5t-35.5 147.5t-18 155t-4.5 158v31zM383 569q1 -37 2.5 -61.5
t6.5 -65.5t12 -69t21.5 -61t33.5 -53t48.5 -34t65.5 -14q98 0 152.5 97.5t62.5 260.5h-405z" />
    <glyph glyph-name="uni04D9" unicode="&#x4d9;" horiz-adv-x="929" 
d="M72 600h524v18q0 100 -31 156q-46 84 -143 84q-116 0 -232 -104l-110 176q161 145 358 145q212 0 327.5 -143t115.5 -404q0 -269 -113 -415q-108 -138 -297 -138q-173 0 -276 109q-65 71 -94 182.5t-29 278.5v55zM344 406q0 -115 21 -166q29 -70 100 -70q67 0 98.5 54.5
t32.5 181.5h-252z" />
    <glyph glyph-name="uni04E2" unicode="&#x4e2;" horiz-adv-x="1193" 
d="M1061 0h-279v680q0 121 11 268q-41 -133 -76 -221l-289 -727h-295v1423h279v-686q0 -125 -13 -258q46 139 82 234l279 710h301v-1423zM889 1540h-584v174h584v-174z" />
    <glyph glyph-name="uni04E3" unicode="&#x4e3;" horiz-adv-x="1089" 
d="M956 0h-274v391q0 88 8 252h-4q-43 -118 -72 -182l-208 -461h-273v1034l275 33v-432q0 -25 -11 -250h6q35 99 91 229l188 422l274 31v-1067zM838 1171h-584v175h584v-175z" />
    <glyph glyph-name="uni04E8" unicode="&#x4e8;" horiz-adv-x="1277" 
d="M1206 748q0 -121 -17 -229.5t-59 -209.5t-105 -174t-161.5 -116.5t-222.5 -43.5q-135 0 -244 54.5t-179.5 150t-108 224.5t-37.5 280q0 181 42.5 326.5t117.5 240.5t177.5 145t223.5 50t220 -42.5t163.5 -112t108.5 -162t62.5 -187.5t18.5 -194zM889 854
q-15 188 -76.5 274t-177.5 86q-75 0 -128 -50t-79 -127t-37 -183h498zM891 621h-504q24 -412 256 -412q118 0 177.5 102.5t70.5 309.5z" />
    <glyph glyph-name="uni04E9" unicode="&#x4e9;" horiz-adv-x="960" 
d="M899 541q0 -258 -114 -413t-312 -155q-85 0 -154.5 28.5t-117.5 78.5t-81 119.5t-48 150.5t-15 174q0 114 26 212.5t77 175t133 120t186 43.5q188 0 304 -135t116 -399zM479 186q44 0 71.5 36.5t38 88.5t13.5 129h-252q2 -55 7.5 -96t19 -79t39.5 -58.5t63 -20.5z
M475 862q-63 0 -90.5 -62.5t-32.5 -176.5h250q-2 72 -12.5 121.5t-39 83.5t-75.5 34z" />
    <glyph glyph-name="uni04EE" unicode="&#x4ee;" horiz-adv-x="1028" 
d="M1018 1423l-328 -1032q-56 -171 -85.5 -244t-63.5 -114q-40 -49 -89.5 -72.5t-121.5 -36.5l-82 -16l-98 201l71 18q80 21 123.5 71.5t77.5 149.5l14 39l-86 -10q-12 65 -74 252l-266 794h297l164 -555q45 -153 57 -245q48 230 54 251l153 549h283zM823 1540h-583v174h583
v-174z" />
    <glyph glyph-name="uni04EF" unicode="&#x4ef;" horiz-adv-x="901" 
d="M924 1049l-332 -1059q-68 -217 -168.5 -323t-267.5 -134l-95 199q131 36 186.5 87t102.5 181h-86q-18 110 -71 293l-216 743l277 33l129 -504q39 -158 49 -350q55 249 78 330l137 504h277zM727 1171h-584v175h584v-175z" />
    <glyph glyph-name="Wgrave" unicode="&#x1e80;" horiz-adv-x="1548" 
d="M1546 1423l-291 -1423h-340l-102 711q-35 240 -41 305q-38 -281 -41 -303l-106 -713h-346l-277 1423h303l109 -700q19 -121 45 -365q26 236 45 355l112 710h320l117 -716q13 -83 41 -353q22 189 47 367l102 702h303zM973 1651l-86 -146l-410 197l113 199z" />
    <glyph glyph-name="wgrave" unicode="&#x1e81;" horiz-adv-x="1306" 
d="M1300 1049l-249 -1051h-273l-94 469q-26 124 -37 242q-1 -6 -16.5 -101t-24.5 -145l-98 -465h-264l-238 1030l273 37l71 -424q18 -120 41 -317q9 50 27.5 151.5t27.5 151.5l80 422h258l90 -447q6 -32 15 -92.5t17.5 -121.5t8.5 -62q0 2 4.5 43t9.5 87t12 100.5t13 86.5
l68 406h278zM909 1282l-86 -145l-409 196l112 199z" />
    <glyph glyph-name="Wacute" unicode="&#x1e82;" horiz-adv-x="1548" 
d="M1546 1423l-291 -1423h-340l-102 711q-35 240 -41 305q-38 -281 -41 -303l-106 -713h-346l-277 1423h303l109 -700q19 -121 45 -365q26 236 45 355l112 710h320l117 -716q13 -83 41 -353q22 189 47 367l102 702h303zM1040 1704l-407 -199l-90 146l379 250z" />
    <glyph glyph-name="wacute" unicode="&#x1e83;" horiz-adv-x="1306" 
d="M1300 1049l-249 -1051h-273l-94 469q-26 124 -37 242q-1 -6 -16.5 -101t-24.5 -145l-98 -465h-264l-238 1030l273 37l71 -424q18 -120 41 -317q9 50 27.5 151.5t27.5 151.5l80 422h258l90 -447q6 -32 15 -92.5t17.5 -121.5t8.5 -62q0 2 4.5 43t9.5 87t12 100.5t13 86.5
l68 406h278zM893 1335l-408 -198l-90 145l379 250z" />
    <glyph glyph-name="Wdieresis" unicode="&#x1e84;" horiz-adv-x="1548" 
d="M1546 1423l-291 -1423h-340l-102 711q-35 240 -41 305q-38 -281 -41 -303l-106 -713h-346l-277 1423h303l109 -700q19 -121 45 -365q26 236 45 355l112 710h320l117 -716q13 -83 41 -353q22 189 47 367l102 702h303zM1133 1688q0 -61 -44 -104.5t-104 -43.5
q-62 0 -108 43.5t-46 104.5q0 62 43.5 104.5t104.5 42.5q64 0 109 -42.5t45 -104.5zM711 1688q0 -61 -44 -104.5t-104 -43.5q-62 0 -107.5 43.5t-45.5 104.5q0 62 43 104.5t104 42.5q64 0 109 -42.5t45 -104.5z" />
    <glyph glyph-name="wdieresis" unicode="&#x1e85;" horiz-adv-x="1306" 
d="M1300 1049l-249 -1051h-273l-94 469q-26 124 -37 242q-1 -6 -16.5 -101t-24.5 -145l-98 -465h-264l-238 1030l273 37l71 -424q18 -120 41 -317q9 50 27.5 151.5t27.5 151.5l80 422h258l90 -447q6 -32 15 -92.5t17.5 -121.5t8.5 -62q0 2 4.5 43t9.5 87t12 100.5t13 86.5
l68 406h278zM1010 1319q0 -61 -44 -104.5t-104 -43.5q-62 0 -107.5 43.5t-45.5 104.5q0 62 43 104.5t104 42.5q64 0 109 -42.5t45 -104.5zM588 1319q0 -61 -44 -104.5t-104 -43.5q-62 0 -107.5 43.5t-45.5 104.5q0 62 43 104.5t104 42.5q64 0 109 -42.5t45 -104.5z" />
    <glyph glyph-name="uni1E8A" unicode="&#x1e8a;" horiz-adv-x="1028" 
d="M1051 0h-336l-195 471l-192 -471h-351l381 745l-344 678h344l160 -399l154 399h336l-330 -659zM694 1688q0 -75 -52.5 -129t-125.5 -54q-72 0 -124 54t-52 129t52.5 129.5t125.5 54.5q72 0 124 -54.5t52 -129.5z" />
    <glyph glyph-name="uni1E8B" unicode="&#x1e8b;" horiz-adv-x="915" 
d="M938 0h-330l-84 182q-20 41 -61 154q-39 -97 -78 -180l-80 -156h-328l320 555l-266 465l284 57l80 -157q24 -49 66 -172q22 110 55 178l59 123h318l-275 -486zM633 1333q0 -68 -50 -117t-120 -49q-68 0 -118 49.5t-50 116.5q0 68 51 117t121 49q69 0 117.5 -49t48.5 -117
z" />
    <glyph glyph-name="uni1E9E" unicode="&#x1e9e;" horiz-adv-x="2088" 
d="M1014 436q0 -144 -70 -250t-186.5 -158.5t-261.5 -52.5q-251 0 -445 134l121 225q150 -117 322 -117q95 0 151.5 45t56.5 127q0 60 -36.5 94.5t-114.5 71.5l-166 78q-46 22 -79 40.5t-72 51.5t-62.5 70.5t-40 94t-16.5 124.5q0 191 127.5 312.5t326.5 121.5
q243 0 422 -129l-129 -205q-76 48 -138.5 73t-129.5 25q-78 0 -126 -37t-48 -104q0 -57 31 -94.5t90 -63.5l207 -90q57 -24 101 -54t83.5 -75.5t60.5 -110.5t21 -147zM2017 436q0 -144 -70 -250t-186.5 -158.5t-261.5 -52.5q-250 0 -444 134l121 225q150 -117 321 -117
q96 0 152.5 45t56.5 127q0 60 -37 94.5t-115 71.5l-165 78q-46 22 -79 40.5t-72 51.5t-63 70.5t-40.5 94t-16.5 124.5q0 191 128 312.5t327 121.5q243 0 422 -129l-129 -205q-76 48 -139 73t-130 25q-78 0 -126 -37t-48 -104q0 -57 31 -94.5t90 -63.5l207 -90
q57 -24 101 -54t83.5 -75.5t60.5 -110.5t21 -147z" />
    <glyph glyph-name="Ygrave" unicode="&#x1ef2;" horiz-adv-x="999" 
d="M1034 1423l-397 -901v-522h-287v520l-385 903h334l145 -454q42 -141 58 -205q7 33 28.5 112.5t26.5 92.5l148 454h329zM698 1651l-86 -146l-409 197l112 199z" />
    <glyph glyph-name="ygrave" unicode="&#x1ef3;" horiz-adv-x="901" 
d="M924 1049l-332 -1059q-68 -217 -168.5 -323t-267.5 -134l-95 199q131 36 186.5 87t102.5 181h-86q-18 110 -71 293l-216 743l277 33l129 -504q39 -158 49 -350q55 249 78 330l137 504h277zM666 1282l-86 -145l-410 196l113 199z" />
    <glyph glyph-name="uni2007" unicode="&#x2007;" horiz-adv-x="1077" 
 />
    <glyph glyph-name="uni2008" unicode="&#x2008;" horiz-adv-x="540" 
 />
    <glyph glyph-name="uni200B" unicode="&#x200b;" horiz-adv-x="0" 
 />
    <glyph glyph-name="endash" unicode="&#x2013;" horiz-adv-x="1138" 
d="M1051 442h-963v238h963v-238z" />
    <glyph glyph-name="emdash" unicode="&#x2014;" horiz-adv-x="1916" 
d="M1829 442h-1741v238h1741v-238z" />
    <glyph glyph-name="uni2015" unicode="&#x2015;" horiz-adv-x="1916" 
d="M1829 442h-1741v238h1741v-238z" />
    <glyph glyph-name="quoteleft" unicode="&#x2018;" horiz-adv-x="524" 
d="M461 1356q-61 -17 -97 -50t-36 -69q0 -13 4 -22t9.5 -13t18 -12.5t21.5 -15.5q68 -56 68 -142q0 -74 -51 -125t-124 -51q-95 0 -148.5 66.5t-53.5 181.5q0 132 75 233q29 39 85 77t116 56z" />
    <glyph glyph-name="quoteright" unicode="&#x2019;" horiz-adv-x="524" 
d="M453 1219q0 -132 -76 -234q-29 -39 -85 -77t-116 -56l-113 115q61 17 97.5 49.5t36.5 68.5q0 13 -4.5 22t-9.5 13.5t-18 13t-22 15.5q-67 56 -67 141q0 74 51 125t123 51q95 0 149 -66.5t54 -180.5z" />
    <glyph glyph-name="quotesinglbase" unicode="&#x201a;" horiz-adv-x="542" 
d="M471 78q0 -134 -82 -244q-32 -42 -87.5 -80.5t-117.5 -56.5l-121 121q64 19 102 51.5t38 69.5q0 17 -6 26t-24 21t-28 20q-67 56 -67 148q0 76 53 129t129 53q98 0 154.5 -69t56.5 -189z" />
    <glyph glyph-name="quotedblleft" unicode="&#x201c;" horiz-adv-x="980" 
d="M918 1354q-61 -17 -97.5 -49t-36.5 -68q0 -13 4.5 -22.5t9.5 -14t18.5 -13.5t21.5 -16q67 -56 67 -139q0 -74 -50.5 -125t-123.5 -51q-95 0 -149 66t-54 180q0 128 78 233q30 40 84 78.5t113 56.5zM461 1354q-61 -17 -97 -49t-36 -68q0 -13 4.5 -22.5t9 -14t18 -13.5
t21.5 -16q65 -54 65 -139q0 -75 -50 -125.5t-122 -50.5q-95 0 -148.5 66t-53.5 180q0 132 75 233q30 39 85.5 78t115.5 57z" />
    <glyph glyph-name="quotedblright" unicode="&#x201d;" horiz-adv-x="980" 
d="M453 1219q0 -131 -78 -236q-30 -39 -84.5 -77t-114.5 -56l-113 117q61 17 97.5 49t36.5 67q0 13 -4.5 22.5t-10.5 14t-19 13.5t-22 16q-65 54 -65 139q0 74 51 125t123 51q95 0 149 -65.5t54 -179.5zM909 1219q0 -133 -75 -234q-30 -40 -84 -78.5t-113 -56.5l-115 117
q61 17 97 48.5t36 67.5q0 13 -4.5 22.5t-9 14t-18 13.5t-21.5 16q-67 56 -67 141q0 74 50.5 124t123.5 50q95 0 147.5 -65t52.5 -180z" />
    </font>
</defs>
</svg>
