<?xml version="1.0" standalone="no"?>
<!DOCTYPE svg PUBLIC "-//W3C//DTD SVG 1.1//EN" "http://www.w3.org/Graphics/SVG/1.1/DTD/svg11.dtd" >
<svg xmlns="http://www.w3.org/2000/svg" xmlns:xlink="http://www.w3.org/1999/xlink" version="1.1">
<metadata>
Created by FontForge 20170731 at Wed Jul 27 20:33:14 2022
 By Aleksey,,,
Copyright (c) 1991-2018 Monotype GmbH. All rights reserved
</metadata>
<defs>
<font id="MetaPro" horiz-adv-x="1167" >
  <font-face 
    font-family="Meta Pro"
    font-weight="400"
    font-stretch="normal"
    units-per-em="2048"
    panose-1="2 0 5 3 4 0 0 2 0 4"
    ascent="1563"
    descent="-485"
    x-height="1020"
    cap-height="1405"
    bbox="-1049 -575 2787 2257"
    underline-thickness="200"
    underline-position="-444"
    unicode-range="U+000D-FEFF"
  />
<missing-glyph horiz-adv-x="1138" 
d="M156 0v1405h827v-1405h-827zM258 102h623v1201h-623v-1201z" />
    <glyph glyph-name="IJ" unicode="IJ" horiz-adv-x="1103" 
d="M358 0h-163v1405h163v-1405zM909 240q0 -137 -10 -201.5t-41 -120.5q-69 -123 -237 -180l-82 104q55 23 99.5 60t68.5 78q20 34 27 90t7 166v1169h168v-1165z" />
    <glyph glyph-name="ij" unicode="ij" horiz-adv-x="1107" 
d="M360 0h-165v1016l165 26v-1042zM406 1335q0 -53 -36 -89t-89 -36q-52 0 -88.5 36t-36.5 87q0 53 36.5 90t88.5 37q53 0 89 -36t36 -89zM913 20q0 -158 -28 -225q-55 -132 -209 -201l-80 107q35 15 60.5 33t42.5 41.5t27 48t15.5 60t7 68.5t1.5 83v977l163 32v-1024z
M956 1335q0 -53 -36 -89t-89 -36q-52 0 -88 36t-36 89t36 89t88 36q53 0 89 -36t36 -89z" />
    <glyph glyph-name="f_b" unicode="fb" horiz-adv-x="1744" 
d="M1612 524q0 -246 -111.5 -397.5t-294.5 -151.5q-78 0 -157.5 39t-122.5 97q-6 -64 -29 -111h-160q31 66 31 254v1036q-37 23 -111 45.5t-149 22.5q-68 0 -107 -46.5t-39 -133.5v-158h283l-49 -121h-234v-899h-167v899h-99v121h99v160q0 164 112 250q75 57 187 57
q230 0 434 -115v-354q0 -27 -2 -69t-2 -44q75 73 143 105t150 32q183 0 289 -139.5t106 -378.5zM1434 535q0 192 -60 274q-29 41 -80.5 64.5t-111.5 23.5q-73 0 -143.5 -37.5t-112.5 -95.5v-524q40 -53 110.5 -88t141.5 -35q53 0 104.5 25t79.5 65q72 107 72 328z" />
    <glyph glyph-name="f_f" unicode="ff" horiz-adv-x="1191" 
d="M1284 1423l-59 -112q-80 47 -152 47q-68 0 -103.5 -46t-35.5 -134v-158h283l-50 -121h-233v-899h-168v899h-404v-899h-167v899h-99v121h99v160q0 164 112 250q70 53 180 53q135 0 226 -60l-60 -112q-80 47 -151 47q-68 0 -104 -46t-36 -134v-158h404v160q0 163 113 250
q70 53 180 53q134 0 225 -60z" />
    <glyph glyph-name="f_f_i" unicode="ffi" horiz-adv-x="1730" 
d="M1536 0h-170v899h-432v-899h-168v899h-404v-899h-167v899h-99v121h99v160q0 164 112 250q70 53 180 53q135 0 226 -60l-60 -112q-80 47 -151 47q-68 0 -104 -46t-36 -134v-158h404v160q0 163 113 250q70 53 180 53q134 0 225 -60l-59 -112q-80 47 -152 47
q-68 0 -103.5 -46t-35.5 -134v-158h602v-1020zM1577 1335q0 -53 -36.5 -89t-88.5 -36t-88.5 36t-36.5 87q0 53 36.5 90t88.5 37t88.5 -36t36.5 -89z" />
    <glyph glyph-name="f_f_j" unicode="ffj" horiz-adv-x="1767" 
d="M1573 20q0 -156 -29 -225q-55 -132 -209 -201l-80 107q35 15 60.5 33t42.5 41.5t27 48t15.5 60t7 68.5t1.5 83v864h-457v-899h-168v899h-422v-899h-167v899h-99v121h99v160q0 164 112 250q70 53 180 53q135 0 226 -60l-60 -112q-80 47 -151 47q-68 0 -104 -46t-36 -134
v-158h422v160q0 163 113 250q70 53 180 53q135 0 226 -60l-60 -112q-80 47 -151 47q-68 0 -104 -46t-36 -134v-158h621v-1000zM1614 1335q0 -53 -36 -89t-89 -36q-52 0 -88.5 36t-36.5 87q0 53 36.5 90t88.5 37q53 0 89 -36t36 -89z" />
    <glyph glyph-name="f_f_t" unicode="fft" horiz-adv-x="1845" 
d="M952 1020h432q0 118 17 258l168 37q-21 -173 -21 -295h256l-49 -121h-213v-657q0 -85 28.5 -118.5t102.5 -33.5q58 0 101 21l22 -103q-77 -41 -180 -41q-70 0 -133 29q-53 26 -76 75t-23 128v700h-432v-899h-168v899h-422v-899h-167v899h-99v121h99v160q0 164 112 250
q70 53 180 53q135 0 226 -60l-60 -112q-80 47 -151 47q-68 0 -104 -46t-36 -134v-158h422v160q0 163 113 250q70 53 180 53q135 0 226 -60l-60 -112q-80 47 -151 47q-68 0 -104 -46t-36 -134v-158z" />
    <glyph glyph-name="f_h" unicode="fh" horiz-adv-x="1734" 
d="M1540 0h-158v705q0 112 -39 151q-41 41 -118 41q-74 0 -152.5 -45.5t-144.5 -126.5v-725h-160v1290q-37 23 -111 45.5t-149 22.5q-68 0 -107 -46.5t-39 -133.5v-158h283l-49 -121h-234v-899h-167v899h-99v121h99v160q0 164 112 250q75 57 187 57q230 0 434 -115v-354
q0 -97 -6 -139q172 161 340 161q92 0 166 -45.5t96 -115.5q16 -55 16 -148v-731z" />
    <glyph glyph-name="f_i" unicode="fi" horiz-adv-x="1159" 
d="M965 0h-170v899h-433v-899h-167v899h-99v121h99v160q0 164 112 250q70 53 180 53q135 0 226 -60l-60 -112q-80 47 -151 47q-68 0 -104 -46t-36 -134v-158h603v-1020zM1006 1333q0 -53 -36 -89t-89 -36q-52 0 -88.5 36t-36.5 87q0 53 36.5 90t88.5 37q53 0 89 -36t36 -89z
" />
    <glyph glyph-name="f_j" unicode="fj" horiz-adv-x="1179" 
d="M195 899h-99v121h99v160q0 164 112 250q70 53 180 53q135 0 226 -60l-60 -112q-80 47 -151 47q-68 0 -104 -46t-36 -134v-158h623v-1000q0 -156 -29 -225q-55 -132 -208 -201l-80 107q42 18 70 42t44.5 50t25 66t11 78t2.5 98v864h-459v-899h-167v899zM1026 1335
q0 -53 -36 -89t-89 -36q-52 0 -88.5 36t-36.5 87q0 53 36.5 90t88.5 37q53 0 89 -36t36 -89z" />
    <glyph glyph-name="f_k" unicode="fk" horiz-adv-x="1626" 
d="M768 0v1290q-37 23 -111 45.5t-149 22.5q-68 0 -107 -46.5t-39 -133.5v-158h283l-49 -121h-234v-899h-167v899h-99v121h99v160q0 164 112 250q75 57 187 57q230 0 434 -115v-1372h-160zM1616 0h-213l-469 578l389 442h201l-402 -442z" />
    <glyph glyph-name="f_t" unicode="ft" horiz-adv-x="1249" 
d="M1208 1020l-49 -121h-213v-657q0 -85 28.5 -118.5t102.5 -33.5q57 0 101 21l22 -103q-77 -41 -180 -41q-70 0 -133 29q-53 26 -76 75t-23 128v700h-426v-899h-167v899h-99v121h99v160q0 164 112 250q70 53 180 53q135 0 226 -60l-60 -112q-80 47 -151 47q-68 0 -104 -46
t-36 -134v-158h426q0 118 17 258l168 37q-21 -173 -21 -295h256z" />
    <glyph glyph-name=".notdef" horiz-adv-x="1138" 
d="M156 0v1405h827v-1405h-827zM258 102h623v1201h-623v-1201z" />
    <glyph glyph-name=".null" horiz-adv-x="0" 
 />
    <glyph glyph-name=".null" horiz-adv-x="0" 
 />
    <glyph glyph-name="nonmarkingreturn" horiz-adv-x="682" 
 />
    <glyph glyph-name="CR" unicode="&#xd;" horiz-adv-x="471" 
 />
    <glyph glyph-name="space" unicode=" " horiz-adv-x="471" 
 />
    <glyph glyph-name="exclam" unicode="!" horiz-adv-x="598" 
d="M397 1432l-39 -1026h-122l-39 999zM424 115q0 -54 -36.5 -91.5t-88.5 -37.5t-88.5 37t-36.5 90t36 89t89 36q52 0 88.5 -36t36.5 -87z" />
    <glyph glyph-name="quotedbl" unicode="&#x22;" horiz-adv-x="837" 
d="M643 958h-147v492h147v-492zM342 958h-147v492h147v-492z" />
    <glyph glyph-name="numbersign" unicode="#" horiz-adv-x="1159" 
d="M1087 883h-219l-43 -312h201v-135h-221l-62 -436h-137l62 436h-258l-62 -436h-137l61 436h-200v135h221l41 312h-201v135h221l62 432h137l-61 -432h258l61 432h137l-61 -432h200v-135zM731 883h-258l-43 -312h258z" />
    <glyph glyph-name="dollar" unicode="$" horiz-adv-x="1185" 
d="M1073 397q0 -152 -117 -273t-290 -144v-199h-121v192q-226 0 -432 127l73 131q170 -120 359 -120v551l-51 16q-103 33 -157.5 59.5t-92.5 65.5q-88 94 -88 229q0 164 106 272.5t283 127.5v172h121v-170q194 -15 368 -134l-73 -120q-88 57 -155 83.5t-140 32.5v-489
l67 -21q95 -30 150.5 -61t97.5 -80q43 -50 67.5 -116t24.5 -132zM887 373q0 173 -221 250v-504q98 17 159.5 88t61.5 166zM545 844v448q-98 -15 -152.5 -74t-54.5 -151q0 -79 48.5 -131t158.5 -92z" />
    <glyph glyph-name="percent" unicode="%" horiz-adv-x="1757" 
d="M1665 319q0 -157 -88.5 -248t-241.5 -91t-241 94.5t-88 257.5t86.5 255.5t240.5 92.5q165 0 248.5 -97.5t83.5 -263.5zM752 1055q0 -157 -88.5 -248.5t-241.5 -91.5t-241.5 94.5t-88.5 257.5t87 255.5t241 92.5q165 0 248.5 -97t83.5 -263zM1292 1395l-682 -1395h-135
l682 1395h135zM614 1047q0 41 -3.5 73.5t-15.5 68.5t-32.5 59.5t-57.5 39t-87 15.5q-187 0 -187 -220q0 -130 45.5 -193t151.5 -63q88 0 137 57t49 163zM1528 311q0 53 -7 92.5t-26 79.5t-60.5 62t-103.5 22q-186 0 -186 -219q0 -130 45 -193t151 -63q89 0 138 56.5
t49 162.5z" />
    <glyph glyph-name="ampersand" unicode="&#x26;" horiz-adv-x="1400" 
d="M1360 0h-213l-137 133q-62 -75 -170.5 -119.5t-231.5 -44.5q-218 0 -346.5 104.5t-128.5 274.5q0 126 71 206.5t216 150.5q-103 92 -151 166t-48 149q0 138 108.5 230.5t256.5 92.5q103 0 187.5 -35.5t137 -108.5t52.5 -171q0 -58 -18 -104.5t-59 -87t-90 -73t-126 -73.5
l329 -325q40 90 35 315h142q0 -170 -18.5 -258t-57.5 -164zM922 225l-406 396q-207 -98 -207 -285q0 -109 82 -175.5t221 -66.5q99 0 184 37.5t126 93.5zM786 1030q0 86 -55 141.5t-143 55.5q-80 0 -137.5 -47.5t-57.5 -139.5q0 -60 36 -112t149 -150q115 55 161.5 114.5
t46.5 137.5z" />
    <glyph glyph-name="quotesingle" unicode="'" horiz-adv-x="536" 
d="M342 958h-147v492h147v-492z" />
    <glyph glyph-name="parenleft" unicode="(" horiz-adv-x="665" 
d="M717 -236l-45 -81q-129 50 -233.5 160.5t-162.5 260.5q-42 110 -61.5 261.5t-19.5 291.5q0 254 49 420t145 285q57 71 132.5 128.5t150.5 86.5l39 -78q-114 -68 -188.5 -153.5t-110.5 -212.5q-54 -193 -54 -471q0 -453 123 -668q84 -148 236 -230z" />
    <glyph glyph-name="parenright" unicode=")" horiz-adv-x="665" 
d="M471 606q0 -253 -49.5 -418.5t-145.5 -285.5q-57 -71 -132.5 -128.5t-149.5 -86.5l-39 77q114 68 188.5 153.5t110.5 213.5q53 189 53 471q0 453 -123 668q-43 76 -98.5 130.5t-136.5 98.5l45 82q129 -49 232.5 -160t162.5 -262q42 -111 62 -262.5t20 -290.5z" />
    <glyph glyph-name="asterisk" unicode="*" horiz-adv-x="966" 
d="M874 1124l-288 -98l182 -244l-100 -77l-185 251l-178 -251l-102 77l178 244l-289 98l39 119l291 -98v305h123v-305l291 98z" />
    <glyph glyph-name="plus" unicode="+" horiz-adv-x="1101" 
d="M989 438h-364v-364h-148v364h-364v148h364v364h148v-364h364v-148z" />
    <glyph glyph-name="comma" unicode="," horiz-adv-x="593" 
d="M440 59q0 -106 -78 -211q-62 -80 -172 -141l-57 90q122 59 137 183q-9 -3 -22 -3q-46 0 -79.5 39t-33.5 93q0 61 42 104t102 43q70 0 115.5 -55.5t45.5 -141.5z" />
    <glyph glyph-name="hyphen" unicode="-" horiz-adv-x="616" 
d="M504 469h-391v156h391v-156z" />
    <glyph glyph-name="period" unicode="." horiz-adv-x="581" 
d="M428 115q0 -58 -39.5 -100t-95.5 -42q-58 0 -98.5 41.5t-40.5 100.5q0 57 39 96t96 39q59 0 99 -39t40 -96z" />
    <glyph glyph-name="slash" unicode="/" horiz-adv-x="931" 
d="M799 1550l-531 -1853h-135l531 1853h135z" />
    <glyph glyph-name="zero" unicode="0" horiz-adv-x="1183" 
d="M1051 520q0 -247 -124.5 -390.5t-332.5 -143.5q-218 0 -339.5 144t-121.5 398q0 247 124.5 391t332.5 144q218 0 339.5 -144.5t121.5 -398.5zM883 494q0 230 -70 333t-225 103q-287 0 -287 -375q0 -230 70 -333t225 -103q287 0 287 375z" />
    <glyph glyph-name="one" unicode="1" horiz-adv-x="888" 
d="M776 0h-538v129h188v715q-21 -14 -46 -27.5t-42.5 -22.5t-49 -23t-44.5 -19t-50.5 -20.5t-46.5 -18.5l-34 88l350 237h125v-909h188v-129z" />
    <glyph glyph-name="two" unicode="2" horiz-adv-x="1130" 
d="M977 131l-33 -131h-782v129q64 43 157 123l248 207q99 83 135.5 145t36.5 139q0 86 -56.5 132.5t-160.5 46.5q-74 0 -147.5 -29.5t-175.5 -104.5l-66 82q116 101 217 146t213 45q162 0 264.5 -79t102.5 -216q0 -123 -92 -233.5t-322 -276.5l-184 -133q98 8 211 8h434z
" />
    <glyph glyph-name="three" unicode="3" horiz-adv-x="1077" 
d="M944 104q0 -110 -65 -208t-166 -158q-188 -111 -465 -111q-77 0 -101 6l-36 109q24 -6 127 -6q138 0 243.5 35.5t165 93t88.5 122t29 132.5q0 64 -26 112t-64 76q-50 36 -107 49t-147 13h-94v114q184 0 225 6q92 13 137 69t45 142q0 100 -67.5 161t-176.5 61
q-76 0 -149.5 -25.5t-175.5 -95.5l-72 84q207 170 426 170q171 0 280 -93.5t109 -240.5q0 -109 -66.5 -190t-181.5 -113q131 -30 208 -116.5t77 -197.5z" />
    <glyph glyph-name="four" unicode="4" horiz-adv-x="1116" 
d="M1024 0h-113q-12 0 -33 1t-22 1q0 -1 1 -22.5t1 -36.5v-303l-158 -48v328q0 13 1 45t1 37q-3 0 -35 -1t-46 -1h-529v127l471 922h178l-391 -766q-15 -29 -34.5 -64t-37 -65.5t-18.5 -32.5q24 6 80 6h362v59q0 57 9 185l20 286l127 39v-411q0 -42 -0.5 -79t-1 -58
t-0.5 -23q2 0 27 2t41 2h100v-129z" />
    <glyph glyph-name="five" unicode="5" horiz-adv-x="1028" 
d="M895 109q0 -144 -82 -257t-216.5 -172t-293.5 -59q-71 0 -151 21l-29 122q68 -28 153 -28q186 0 314.5 108t128.5 265q0 127 -81 196.5t-224 69.5q-162 0 -260 -45l65 690h606l-24 -135h-436l-35 -398q77 11 139 11q120 0 215 -43.5t153 -133t58 -212.5z" />
    <glyph glyph-name="six" unicode="6" horiz-adv-x="1177" 
d="M1044 412q0 -191 -129 -319t-321 -128q-209 0 -335 152.5t-126 404.5q0 157 48 287.5t149 251.5q118 140 254.5 224t298.5 132l39 -102q-159 -50 -289 -147t-199 -207q-66 -106 -96 -252q52 49 133.5 77.5t165.5 28.5q75 0 147 -26.5t130.5 -76t94 -127.5t35.5 -173z
M860 408q0 136 -72 210t-184 74q-140 0 -276 -108q-6 -30 -6 -105q0 -194 71 -289q73 -100 201 -100q123 0 194.5 86t71.5 232z" />
    <glyph glyph-name="seven" unicode="7" horiz-adv-x="1034" 
d="M963 1020l-39 -162q-210 -288 -367 -592q-67 -129 -133 -296.5t-92 -291.5l-197 -51q32 224 287 703q202 372 379 559q-7 0 -80 -2t-109 -2h-540l39 135h852z" />
    <glyph glyph-name="eight" unicode="8" horiz-adv-x="1183" 
d="M1051 369q0 -166 -128 -282t-335 -116q-212 0 -333.5 107t-121.5 266q0 72 26 134t71 105t92 72.5t100 49.5q-116 54 -179 136.5t-63 180.5q0 154 114.5 247t317.5 93q177 0 285.5 -85.5t108.5 -225.5q0 -63 -22 -116t-63.5 -92.5t-86.5 -67.5t-105 -54q44 -19 68 -30.5
t60 -30t56 -33t46 -35.5t40 -42.5t27.5 -49t19 -60.5t5.5 -71zM883 330q0 99 -49 151q-34 35 -100.5 71.5t-211.5 102.5q-55 -30 -89.5 -54t-68.5 -59.5t-50.5 -82t-16.5 -105.5q0 -121 83 -194.5t220 -73.5q126 0 204.5 68t78.5 176zM850 1038q0 94 -70 150.5t-188 56.5
q-117 0 -186.5 -57t-69.5 -152q0 -35 10 -64t37.5 -63.5t85.5 -69.5t145 -69q124 66 180 130t56 138z" />
    <glyph glyph-name="nine" unicode="9" horiz-adv-x="1173" 
d="M1040 551q0 -170 -68.5 -342t-189.5 -311q-77 -89 -186.5 -161.5t-212.5 -112t-188 -48.5l-82 98q106 10 234.5 75t230.5 153q164 142 237 348q-48 -35 -122 -60.5t-140 -25.5q-179 0 -294.5 120.5t-115.5 307.5q0 195 132.5 327t326.5 132q189 0 313.5 -136t124.5 -364z
M864 549q0 168 -74.5 271.5t-197.5 103.5q-121 0 -195.5 -90.5t-74.5 -237.5q0 -146 67 -227.5t184 -81.5q143 0 275 112q16 75 16 150z" />
    <glyph glyph-name="colon" unicode=":" horiz-adv-x="622" 
d="M449 115q0 -59 -40.5 -99.5t-99.5 -40.5q-57 0 -96 40.5t-39 97.5q0 59 40 99t99 40q56 0 96 -40t40 -97zM449 762q0 -58 -40.5 -98.5t-97.5 -40.5t-97 39t-40 96q0 59 40.5 100t98.5 41q56 0 96 -40t40 -97z" />
    <glyph glyph-name="semicolon" unicode=";" horiz-adv-x="655" 
d="M481 59q0 -106 -78 -211q-62 -80 -172 -141l-57 90q122 59 137 183q-18 -3 -22 -3q-46 0 -79.5 39t-33.5 93q0 62 41.5 104.5t101.5 42.5q71 0 116.5 -55.5t45.5 -141.5zM451 762q0 -58 -40.5 -99.5t-97.5 -41.5t-98 42.5t-41 102.5q0 54 40 92.5t97 38.5t98.5 -40
t41.5 -95z" />
    <glyph glyph-name="less" unicode="&#x3c;" horiz-adv-x="669" 
d="M578 176l-136 -88l-391 526l391 527l136 -88l-328 -439z" />
    <glyph glyph-name="equal" unicode="=" horiz-adv-x="1294" 
d="M1182 713h-1069v135h1069v-135zM1182 393h-1069v135h1069v-135z" />
    <glyph glyph-name="greater" unicode="&#x3e;" horiz-adv-x="671" 
d="M621 614l-394 -526l-135 88l328 438l-328 439l135 88z" />
    <glyph glyph-name="question" unicode="?" horiz-adv-x="897" 
d="M784 1122q0 -48 -14.5 -93t-33.5 -76t-47.5 -62t-48.5 -46.5t-44.5 -33.5t-26.5 -20q-102 -83 -102 -230q0 -51 12 -106h-137q-18 74 -18 139q0 166 114 272q20 19 61 50t63 50.5t41.5 59t19.5 88.5q0 75 -52.5 122.5t-132.5 47.5q-70 0 -134 -22.5t-144 -71.5l-68 113
q72 55 174.5 87.5t202.5 32.5q141 0 228 -82.5t87 -218.5zM563 113q0 -59 -40 -100.5t-97 -41.5t-98 42t-41 100q0 57 40 97t97 40t98 -40t41 -97z" />
    <glyph glyph-name="at" unicode="@" horiz-adv-x="1886" 
d="M1753 567q0 -132 -36 -245t-97.5 -189t-142 -119t-168.5 -43q-54 0 -96 14.5t-65.5 38.5t-38.5 55.5t-16 65t3 66.5q-49 -88 -140 -151.5t-190 -63.5q-91 0 -159 76.5t-68 216.5q0 125 35.5 238.5t101 203.5t170.5 143.5t233 53.5q130 0 252 -66q-32 -116 -47 -188
l-78 -371q-26 -123 -1 -173t110 -50q82 0 149 65t105.5 177t38.5 245q0 126 -47 236.5t-131 191.5t-205.5 127.5t-263.5 46.5q-151 0 -280.5 -63t-215.5 -167.5t-135 -240t-49 -280.5q0 -187 86.5 -335t233 -228t323.5 -80q165 0 280 39l27 -111q-121 -41 -307 -41
q-160 0 -302.5 50.5t-251.5 144t-173 239t-64 322.5q0 179 62.5 338t171.5 274.5t263.5 182.5t330.5 67q166 0 311.5 -51t252 -143t167.5 -226t61 -293zM1169 793q-47 28 -104 28q-99 0 -175.5 -51t-120 -132.5t-65.5 -173t-22 -183.5q0 -87 31 -125.5t96 -38.5
q37 0 78.5 18.5t81 52.5t71.5 91t47 127z" />
    <glyph glyph-name="A" unicode="A" horiz-adv-x="1193" 
d="M1174 0h-191l-133 432h-524l-136 -432h-170l469 1405h220zM807 569l-215 688l-221 -688h436z" />
    <glyph glyph-name="B" unicode="B" horiz-adv-x="1247" 
d="M1114 385q0 -117 -58.5 -211t-160.5 -133q-62 -24 -126 -32.5t-212 -8.5h-362v1405h202q206 0 284.5 -6t133.5 -25q107 -37 173.5 -125.5t66.5 -195.5q0 -109 -66 -189.5t-186 -118.5q120 -22 184 -73q65 -49 96 -126t31 -161zM938 399q0 93 -47.5 163t-122.5 85
q-73 15 -164 15h-248v-525h299q151 0 217 65.5t66 196.5zM868 1030q0 83 -43.5 142.5t-115.5 78.5q-51 13 -154 13h-199v-463h244q114 0 164.5 25t81.5 96q22 52 22 108z" />
    <glyph glyph-name="C" unicode="C" horiz-adv-x="1173" 
d="M1102 92q-176 -115 -391 -115q-116 0 -222.5 48t-187.5 139q-168 191 -168 534q0 206 76 372t211 259.5t303 93.5q206 0 354 -114l-90 -109q-121 88 -266 88q-242 0 -346 -241q-60 -138 -60 -373q0 -185 45 -297q52 -128 152.5 -195t224.5 -67q146 0 275 90z" />
    <glyph glyph-name="D" unicode="D" horiz-adv-x="1296" 
d="M1163 700q0 -348 -159 -524q-90 -100 -190 -138t-253 -38h-366v1405h280q173 0 263.5 -19.5t187.5 -89.5q237 -170 237 -596zM981 680q0 165 -26.5 271t-94.5 188q-65 77 -138 103t-192 26h-168v-1129h168q130 0 217.5 29.5t139.5 118.5q94 163 94 393z" />
    <glyph glyph-name="E" unicode="E" horiz-adv-x="1064" 
d="M983 0h-788v1405h768l-23 -139h-575v-461h481v-146h-481v-514h618v-145z" />
    <glyph glyph-name="F" unicode="F" horiz-adv-x="903" 
d="M934 1405l-27 -139h-542v-461h450v-137h-450v-668h-170v1405h739z" />
    <glyph glyph-name="G" unicode="G" horiz-adv-x="1310" 
d="M1137 84q-75 -49 -182 -78t-214 -29q-269 0 -432 177q-174 189 -174 544q0 394 217 590q148 133 367 133q225 0 385 -139l-76 -104q-87 59 -155.5 83.5t-149.5 24.5q-126 0 -217 -59t-133 -178q-56 -157 -56 -357q0 -281 99 -426q46 -67 142 -108t198 -41q135 0 223 55
v428h-283l-32 139h473v-655z" />
    <glyph glyph-name="H" unicode="H" horiz-adv-x="1312" 
d="M1118 0h-168v680h-592v-680h-163v1405h163v-588h592v588h168v-1405z" />
    <glyph glyph-name="I" unicode="I" horiz-adv-x="552" 
d="M358 0h-163v1405h163v-1405z" />
    <glyph glyph-name="J" unicode="J" horiz-adv-x="571" 
d="M377 240q0 -137 -10 -201.5t-41 -120.5q-69 -123 -238 -180l-82 104q55 23 99.5 60t68.5 78q20 35 27.5 91t7.5 165v1169h168v-1165z" />
    <glyph glyph-name="K" unicode="K" horiz-adv-x="1138" 
d="M1128 1405l-565 -660l561 -745h-215l-536 743l540 662h215zM365 0h-170v1405h170v-1405z" />
    <glyph glyph-name="L" unicode="L" horiz-adv-x="948" 
d="M918 141l-23 -141h-700v1405h167v-1264h556z" />
    <glyph glyph-name="M" unicode="M" horiz-adv-x="1650" 
d="M1507 0h-168l-82 1030q-10 147 -10 238q-1 -4 -9.5 -40.5t-21.5 -88.5t-24 -90l-301 -1049h-143l-279 997q-62 216 -70 269q-1 -8 -3.5 -57.5t-6 -112.5t-6.5 -97l-78 -999h-162l123 1405h246l256 -918q38 -139 55 -243q31 156 51 227l265 934h247z" />
    <glyph glyph-name="N" unicode="N" horiz-adv-x="1323" 
d="M1128 0h-176l-450 860q-127 242 -160 338q15 -156 18 -383l9 -815h-174v1405h194l467 -897q20 -37 40 -79.5t35 -78.5t27 -64.5t20 -50t9 -22.5l-1 26q-2 26 -4.5 69.5t-5 95.5t-4.5 116.5t-3 120.5l-6 764h165v-1405z" />
    <glyph glyph-name="O" unicode="O" horiz-adv-x="1394" 
d="M1262 680q0 -202 -48.5 -337t-156.5 -234q-78 -71 -163.5 -103.5t-193.5 -32.5q-245 0 -399 179q-168 192 -168 557q0 335 150 528t409 193q287 0 443 -230q127 -189 127 -520zM1073 655q0 307 -67 447q-40 85 -120 138.5t-194 53.5q-98 0 -179.5 -44.5t-121.5 -119.5
q-72 -135 -72 -387q0 -157 24.5 -287.5t66.5 -201.5q39 -66 125 -109t174 -43q167 0 262 121q54 68 78 165.5t24 266.5z" />
    <glyph glyph-name="P" unicode="P" horiz-adv-x="1122" 
d="M1071 1004q0 -110 -30 -191t-97 -143q-68 -61 -148.5 -86t-191.5 -25h-246v-559h-163v1405h389q114 0 182 -14.5t125 -51.5q180 -118 180 -335zM885 971q0 153 -82 223q-43 37 -105 53.5t-161 16.5h-179v-568h236q87 0 135 17.5t84 58.5q72 81 72 199z" />
    <glyph glyph-name="Q" unicode="Q" horiz-adv-x="1394" 
d="M1427 -102l-55 -134q-38 -18 -121 -18q-91 0 -268 107q-100 62 -154 83t-143 37q-226 0 -383 179q-170 195 -170 557q0 335 150 528t409 193q155 0 266.5 -64.5t176.5 -165.5q129 -203 129 -520q0 -201 -49.5 -335.5t-157.5 -235.5q-46 -43 -90 -68q20 -6 48 -19.5
t44 -22t53.5 -30t42.5 -24.5q98 -58 188 -58q57 0 84 11zM1075 655q0 303 -69 447q-92 192 -314 192q-96 0 -175.5 -45t-121.5 -119q-76 -137 -76 -387q0 -155 25.5 -286t67.5 -203q39 -68 123 -110t176 -42q167 0 260 121q54 70 79 169t25 263z" />
    <glyph glyph-name="R" unicode="R" horiz-adv-x="1138" 
d="M1087 0h-210q-35 78 -132 228.5t-227 316.5q-41 52 -74 70t-86 20v-635h-163v1405h327q137 0 218.5 -22.5t136.5 -67.5q139 -113 139 -295q0 -173 -103 -279t-270 -106h-20q61 -48 141 -158q70 -95 323 -477zM840 1022q0 69 -39 128.5t-99 84.5q-73 29 -176 29h-168v-525
h156q176 0 254 72q72 66 72 211z" />
    <glyph glyph-name="S" unicode="S" horiz-adv-x="1185" 
d="M1073 397q0 -100 -50.5 -189.5t-143.5 -148.5q-134 -86 -316 -86q-245 0 -450 127l73 131q167 -120 377 -120q79 0 129 13.5t94 47.5q101 76 101 201q0 186 -252 262l-141 43q-101 31 -156 57.5t-94 67.5q-88 94 -88 229q0 180 125 292t329 112q223 0 424 -136l-73 -120
q-101 66 -176.5 92t-166.5 26q-132 0 -206 -61.5t-74 -169.5q0 -84 54 -136.5t179 -92.5l162 -52q95 -30 150.5 -61t97.5 -80q43 -50 67.5 -116t24.5 -132z" />
    <glyph glyph-name="T" unicode="T" horiz-adv-x="950" 
d="M981 1405l-10 -141h-381v-1264h-162v1264h-377v141h930z" />
    <glyph glyph-name="U" unicode="U" horiz-adv-x="1300" 
d="M1116 406q0 -130 -22 -199.5t-84 -122.5q-127 -109 -369 -109q-161 0 -259.5 49t-156.5 154q-41 75 -41 219v1008h166v-946q0 -143 25 -203q25 -56 91 -96.5t183 -40.5q182 0 248 88q33 44 43 92t10 127v979h166v-999z" />
    <glyph glyph-name="V" unicode="V" horiz-adv-x="1181" 
d="M1151 1405l-481 -1405h-166l-473 1405h182l297 -905q28 -84 52.5 -180.5t29.5 -133.5q21 90 86 293l301 926h172z" />
    <glyph glyph-name="W" unicode="W" horiz-adv-x="1683" 
d="M1632 1405l-321 -1405h-219l-174 780q-66 303 -74 396q-1 -4 -10.5 -60t-26.5 -148t-35 -175l-172 -793h-217l-332 1405h180l179 -821q13 -61 27.5 -138t23 -132t16.5 -104.5t8 -51.5q27 165 80 405l187 842h190l195 -873q50 -229 71 -374q0 1 4.5 28t12 69.5t17.5 94.5
t22.5 116.5t25.5 123.5l174 815h168z" />
    <glyph glyph-name="X" unicode="X" horiz-adv-x="1118" 
d="M1098 0h-203l-348 645l-330 -645h-197l416 754l-373 651h199l281 -520l268 520h197l-353 -639z" />
    <glyph glyph-name="Y" unicode="Y" horiz-adv-x="1062" 
d="M1073 1405l-457 -858v-547h-174v557l-452 848h207l266 -537q15 -30 39.5 -84.5t32.5 -72.5q15 41 75 157l271 537h192z" />
    <glyph glyph-name="Z" unicode="Z" horiz-adv-x="1060" 
d="M969 143l-43 -143h-834v129l600 1001q57 95 90 136q-3 0 -24 -0.5t-54.5 -1t-66.5 -0.5h-524l47 141h801v-143l-584 -986q-54 -95 -86 -135l43 1q44 1 78 1h557z" />
    <glyph glyph-name="bracketleft" unicode="[" horiz-adv-x="583" 
d="M532 -319h-337v1818h337v-123h-190v-1573h190v-122z" />
    <glyph glyph-name="backslash" unicode="\" horiz-adv-x="847" 
d="M797 -37l-129 -51l-617 1575l129 49z" />
    <glyph glyph-name="bracketright" unicode="]" horiz-adv-x="583" 
d="M389 -319h-338v122h191v1573h-191v123h338v-1818z" />
    <glyph glyph-name="asciicircum" unicode="^" horiz-adv-x="1302" 
d="M1169 563h-151l-367 715l-366 -715h-152l457 887h123z" />
    <glyph glyph-name="underscore" unicode="_" horiz-adv-x="1044" 
d="M1034 -268h-1024v121h1024v-121z" />
    <glyph glyph-name="grave" unicode="`" horiz-adv-x="737" 
d="M625 1253l-54 -96l-458 205l88 158z" />
    <glyph glyph-name="a" unicode="a" horiz-adv-x="1083" 
d="M967 76l-82 -115q-53 17 -90 56.5t-50 93.5q-75 -75 -141 -106.5t-153 -31.5q-90 0 -156.5 25.5t-102.5 69t-52.5 92.5t-16.5 104q0 173 142.5 270t398.5 97q38 0 71 -2v71q0 71 -6 103.5t-27 56.5q-49 55 -137 55q-83 0 -178 -36.5t-147 -83.5l-80 114q207 138 428 138
q216 0 282 -160q27 -63 23 -225l-8 -336q-3 -127 11.5 -173.5t70.5 -76.5zM731 518q-40 4 -80 4q-187 0 -268.5 -60.5t-81.5 -182.5q0 -91 44.5 -139t131.5 -48q78 0 145.5 44t102.5 116z" />
    <glyph glyph-name="b" unicode="b" horiz-adv-x="1171" 
d="M1038 524q0 -246 -111 -397.5t-294 -151.5q-78 0 -158 39t-123 97q-6 -66 -28 -111h-160q31 66 31 254v1003q0 54 -6 103t-11.5 72.5t-9.5 33.5l160 31q4 -11 9.5 -38t11 -84t5.5 -120v-237q0 -27 -2 -69t-2 -44q75 73 143 105t150 32q183 0 289 -139.5t106 -378.5z
M860 535q0 102 -13.5 166t-45.5 108q-29 41 -81 64.5t-112 23.5q-73 0 -143.5 -37.5t-112.5 -95.5v-524q40 -53 110.5 -88t141.5 -35q53 0 104.5 25t79.5 65q72 107 72 328z" />
    <glyph glyph-name="c" unicode="c" horiz-adv-x="960" 
d="M868 113q-71 -72 -143.5 -104t-167.5 -32q-217 0 -326 154q-98 141 -98 363q0 156 40.5 258.5t113.5 175.5q119 119 276 119q88 0 150.5 -28.5t128.5 -82.5l-88 -111q-56 46 -97 64t-98 18q-60 0 -112 -31t-80 -83q-58 -107 -58 -334q0 -172 64.5 -263.5t187.5 -91.5
q128 0 219 111z" />
    <glyph glyph-name="d" unicode="d" horiz-adv-x="1169" 
d="M1006 0h-164q-21 52 -23 104q-56 -63 -118.5 -90.5t-151.5 -27.5q-198 0 -307 135.5t-109 380.5q0 327 211 473q92 63 197 63q86 0 158 -33.5t118 -95.5q0 2 -1 60.5t-1 97.5v428l160 -27v-1138q0 -250 31 -330zM813 260v541q-75 106 -248 106q-125 0 -190 -106
q-37 -59 -51.5 -123.5t-14.5 -171.5q0 -193 41 -266q35 -62 84.5 -90.5t120.5 -28.5q62 0 104 14.5t93 50.5q42 29 61 74z" />
    <glyph glyph-name="e" unicode="e" horiz-adv-x="1067" 
d="M954 483h-637v-24q0 -150 48 -223q81 -125 253 -125q145 0 250 96l62 -103q-139 -127 -344 -127q-212 0 -332.5 144.5t-120.5 398.5q0 128 29 218t94 167q121 142 305 142q169 0 277 -111q67 -68 91.5 -158.5t24.5 -271.5v-23zM784 604q-3 157 -47 227q-26 41 -76 66
t-108 25q-109 0 -169.5 -80.5t-66.5 -237.5h467z" />
    <glyph glyph-name="f" unicode="f" horiz-adv-x="620" 
d="M713 1423l-60 -112q-80 47 -151 47q-68 0 -104 -46t-36 -134v-158h283l-49 -121h-234v-899h-167v899h-99v121h99v160q0 164 112 250q70 53 180 53q135 0 226 -60z" />
    <glyph glyph-name="g" unicode="g" horiz-adv-x="1052" 
d="M1053 930q-87 -62 -172 -62q-41 0 -70 13q61 -76 61 -174q0 -86 -40.5 -161.5t-110.5 -119.5q-70 -45 -191 -45q-100 -36 -142 -64t-42 -55q0 -23 22 -36t60 -13h164q90 0 145.5 -12.5t100.5 -44.5q112 -77 112 -215q0 -161 -106.5 -241.5t-298.5 -80.5q-227 0 -335 71.5
t-108 188.5q0 47 21 109l168 14q-29 -48 -29 -92q0 -82 60 -119q79 -47 206 -47q248 0 248 178q0 86 -55 123q-53 37 -201 37q-22 0 -82 -1t-76 -1q-91 0 -141.5 39t-50.5 108q0 63 41 102.5t143 71.5q-103 32 -166 113t-63 182q0 153 104.5 248.5t272.5 95.5
q82 0 167 -28.5t144 -28.5q74 0 141 45zM686 705q0 106 -44 155t-144 49q-193 0 -193 -211q0 -98 50 -150t147 -52q184 0 184 209z" />
    <glyph glyph-name="h" unicode="h" horiz-adv-x="1161" 
d="M967 0h-158v705q0 112 -39 151q-41 41 -119 41q-74 0 -152.5 -45.5t-144.5 -126.5v-725h-159v1257q0 54 -6 103t-11.5 72.5t-9.5 33.5l160 31q4 -11 9.5 -38t11 -84t5.5 -120v-237q0 -97 -6 -139q172 161 340 161q92 0 166 -45.5t96 -115.5q17 -58 17 -148v-731z" />
    <glyph glyph-name="i" unicode="i" horiz-adv-x="555" 
d="M360 0h-165v1016l165 26v-1042zM406 1335q0 -53 -36 -89t-89 -36q-52 0 -88.5 36t-36.5 87q0 53 36.5 90t88.5 37q53 0 89 -36t36 -89z" />
    <glyph glyph-name="j" unicode="j" horiz-adv-x="552" 
d="M358 20q0 -158 -28 -225q-55 -132 -209 -201l-80 107q35 15 60.5 33t42.5 41.5t27 48t15.5 60t7 68.5t1.5 83v977l163 32v-1024zM401 1335q0 -53 -36.5 -89t-88.5 -36t-88 36t-36 89t36 89t88 36t88.5 -36t36.5 -89z" />
    <glyph glyph-name="k" unicode="k" horiz-adv-x="1052" 
d="M354 0h-159v1257q0 54 -6 103t-11.5 72.5t-9.5 33.5l160 31q4 -11 9.5 -38t11 -84t5.5 -120v-1255zM1042 0h-213l-469 578l390 442h200l-401 -442z" />
    <glyph glyph-name="l" unicode="l" horiz-adv-x="550" 
d="M467 2q-50 -22 -102 -22q-75 0 -121 43q-49 43 -49 145v1081q0 121 -25 209l160 31q4 -11 9.5 -38t11 -84t5.5 -120v-1042q0 -60 12 -81.5t46 -21.5q4 0 20 4z" />
    <glyph glyph-name="m" unicode="m" horiz-adv-x="1662" 
d="M1468 0h-163v754q0 149 -131 149q-64 0 -122 -37t-149 -121v-745h-162v725q0 96 -28 131q-35 41 -105 41q-59 0 -120 -31.5t-140 -103.5v-762h-153v791q0 59 -8 110.5t-15.5 73.5t-13.5 33l155 36q11 -21 24 -65.5t13 -85.5q55 62 139 108t158 46q78 0 144.5 -45.5
t93.5 -124.5q74 78 161.5 124t165.5 46q114 0 185 -77.5t71 -199.5v-770z" />
    <glyph glyph-name="n" unicode="n" horiz-adv-x="1138" 
d="M944 0h-162v690q0 80 -7.5 111.5t-29.5 58.5q-37 43 -112 43q-61 0 -144 -42t-139 -101v-760h-155v786q0 58 -8.5 109.5t-16.5 73t-14 32.5l155 43q10 -18 23.5 -64.5t13.5 -94.5q157 157 322 157q83 0 151 -40.5t99 -108.5q24 -56 24 -119v-774z" />
    <glyph glyph-name="o" unicode="o" horiz-adv-x="1124" 
d="M1001 494q0 -249 -120 -385t-318 -136q-209 0 -324.5 144.5t-115.5 398.5q0 249 116.5 392t317.5 143q225 0 350 -179q94 -137 94 -378zM819 481q0 210 -47 307q-31 64 -90.5 98t-126.5 34q-68 0 -125.5 -30t-83.5 -81q-49 -94 -49 -266q0 -107 17 -197t46 -137
q28 -46 84.5 -74.5t122.5 -28.5q79 0 137 40t84 114q31 85 31 221z" />
    <glyph glyph-name="p" unicode="p" horiz-adv-x="1165" 
d="M1032 512q0 -120 -19 -200t-63 -152q-116 -187 -315 -187q-78 0 -152.5 31.5t-128.5 87.5v-487l-159 -31v1225q0 150 -23 219l164 29q10 -40 10 -156q128 149 301 149q79 0 151.5 -33t121.5 -94q112 -139 112 -401zM862 492q0 193 -47 292q-25 52 -75.5 82.5t-112.5 30.5
q-154 0 -273 -143v-514q118 -134 250 -134q70 0 129.5 35t85.5 92q43 92 43 259z" />
    <glyph glyph-name="q" unicode="q" horiz-adv-x="1165" 
d="M1001 1020q-30 -90 -30 -262v-1141l-154 -33v531q-115 -133 -287 -133q-136 0 -233 81q-164 138 -164 416q0 151 22.5 244.5t73.5 163.5q57 78 136.5 121t169.5 43q159 0 288 -144q6 78 21 113h157zM817 276v486q-41 65 -113.5 105t-146.5 40q-67 0 -122 -33t-85 -92
q-27 -52 -37 -109t-10 -157q0 -152 25 -224t71 -114q62 -59 170 -59q78 0 143 41t105 116z" />
    <glyph glyph-name="r" unicode="r" horiz-adv-x="663" 
d="M694 1040l-65 -174q-20 8 -45 8q-97 0 -170 -73q-36 -36 -48 -68t-12 -94v-639h-159v786q0 136 -35 218l159 43q6 -13 13.5 -33.5t15 -59.5t4.5 -73q56 78 132.5 124t154.5 46q22 0 55 -11z" />
    <glyph glyph-name="s" unicode="s" horiz-adv-x="985" 
d="M872 303q0 -149 -106.5 -241.5t-278.5 -92.5q-96 0 -195.5 27.5t-178.5 75.5l61 118q158 -96 324 -96q94 0 150.5 47.5t56.5 128.5q0 69 -40 109t-128 59l-127 27q-125 26 -191.5 99.5t-66.5 180.5q0 138 101 226t261 88q78 0 162 -22.5t149 -59.5l-59 -119
q-78 37 -136 55.5t-120 18.5q-87 0 -140 -46.5t-53 -121.5q0 -60 34 -95.5t114 -52.5l135 -28q272 -58 272 -285z" />
    <glyph glyph-name="t" unicode="t" horiz-adv-x="655" 
d="M614 1020l-49 -121h-213v-657q0 -85 28.5 -118.5t102.5 -33.5q57 0 101 21l22 -103q-77 -41 -180 -41q-70 0 -133 29q-53 26 -75.5 75t-22.5 128v700h-134v121h134q0 126 16 258l168 37q-21 -173 -21 -295h256z" />
    <glyph glyph-name="u" unicode="u" horiz-adv-x="1140" 
d="M1016 66l-103 -109q-51 41 -75.5 77t-34.5 87q-117 -156 -324 -156q-96 0 -165.5 39t-102.5 107q-27 58 -27 151v750l158 30v-733q0 -73 13 -110t48 -62q50 -35 125 -35t147 51t113 134v723l158 26v-743q0 -95 15.5 -143t54.5 -84z" />
    <glyph glyph-name="v" unicode="v" horiz-adv-x="968" 
d="M938 1020l-383 -1030h-158l-366 1022l164 35l237 -703q30 -89 49 -174h4q26 104 50 172l233 678h170z" />
    <glyph glyph-name="w" unicode="w" horiz-adv-x="1423" 
d="M1382 1020l-288 -1028h-158l-203 717l-28 112h-5q-7 -50 -22 -104l-205 -725h-149l-283 1020l160 35l164 -674q29 -123 36 -170h7q7 47 34 147l183 670h174l178 -678q24 -98 41 -149h4q5 24 15.5 71t15.5 70l161 686h168z" />
    <glyph glyph-name="x" unicode="x" horiz-adv-x="956" 
d="M946 0h-194l-277 434l-276 -434h-189l381 565l-315 455h196l203 -340l197 340h186l-303 -455z" />
    <glyph glyph-name="y" unicode="y" horiz-adv-x="940" 
d="M909 1020l-350 -1057q-55 -167 -129.5 -260t-200.5 -123l-47 109q99 31 147 94.5t89 218.5l-66 -10q-9 50 -42.5 170t-59.5 196l-219 639l157 54l209 -662q33 -107 62 -254h4q10 36 31.5 107.5t31.5 107.5l201 670h182z" />
    <glyph glyph-name="z" unicode="z" horiz-adv-x="940" 
d="M848 123l-76 -123h-680v123l555 770h-512v127h680v-131l-530 -766h563z" />
    <glyph glyph-name="braceleft" unicode="{" horiz-adv-x="677" 
d="M627 -319h-144q-83 0 -149 69.5t-66 186.5v358q0 105 -53.5 169t-122.5 64v123q68 0 122 65.5t54 166.5v360q0 116 67.5 186t147.5 70h144v-123h-111q-31 0 -51.5 -13t-30.5 -38t-14 -50.5t-4 -60.5v-360q0 -52 -14 -96.5t-34 -72t-46 -48.5t-45.5 -31t-36.5 -14v-4
q17 -2 36.5 -10t45.5 -27.5t46 -47.5t34 -74.5t14 -104.5v-359q0 -73 21 -117.5t79 -44.5h111v-122z" />
    <glyph glyph-name="bar" unicode="|" horiz-adv-x="524" 
d="M330 -426h-135v1974h135v-1974z" />
    <glyph glyph-name="braceright" unicode="}" horiz-adv-x="677" 
d="M586 528q-69 0 -122.5 -64t-53.5 -169v-358q0 -117 -66 -186.5t-149 -69.5h-144v122h111q58 0 79 44.5t21 117.5v359q0 58 14 104.5t34 74.5t46 47.5t45.5 27.5t36.5 10v4q-17 4 -36.5 14t-45.5 31t-46 48.5t-34 72t-14 96.5v360q0 35 -4 60.5t-14 50.5t-30.5 38
t-51.5 13h-111v123h144q80 0 147.5 -70t67.5 -186v-360q0 -101 54 -166.5t122 -65.5v-123z" />
    <glyph glyph-name="asciitilde" unicode="~" horiz-adv-x="1208" 
d="M1075 664q-26 -36 -39.5 -53t-41.5 -46.5t-50.5 -43.5t-56 -26t-70.5 -12q-53 0 -115 22t-110 48t-108.5 48t-110.5 22q-106 0 -172 -144l-68 99q30 43 49.5 66.5t52.5 54t71 45t83 14.5q53 0 115.5 -22t111 -48t109 -48t109.5 -22q61 0 101.5 39t72.5 105z" />
    <glyph glyph-name="uni00A0" unicode="&#xa0;" horiz-adv-x="471" 
 />
    <glyph glyph-name="exclamdown" unicode="&#xa1;" horiz-adv-x="598" 
d="M401 -348l-200 -27l39 1026h122zM424 944q0 -52 -36 -88.5t-89 -36.5q-52 0 -88.5 36t-36.5 87q0 54 36.5 91.5t88.5 37.5t88.5 -37t36.5 -90z" />
    <glyph glyph-name="cent" unicode="&#xa2;" horiz-adv-x="960" 
d="M868 113q-114 -117 -250 -131v-156h-112v154q-183 15 -275 151q-98 141 -98 363q0 156 40.5 258.5t113.5 175.5q98 98 219 112v160h112v-160q113 -14 224 -104l-88 -111q-80 66 -136 76v-790q94 21 162 104zM506 109v792q-94 -26 -139 -108q-58 -107 -58 -334
q0 -152 50 -241t147 -109z" />
    <glyph glyph-name="sterling" unicode="&#xa3;" horiz-adv-x="1153" 
d="M1102 1348l-113 -121q-103 100 -221 100q-74 0 -126 -25t-81.5 -73.5t-42 -111t-12.5 -146.5v-160h332v-135h-332v-516h504v-160h-897v160h221v516h-197v135h197v164q0 254 120 377t318 123q203 0 330 -127z" />
    <glyph glyph-name="currency" unicode="&#xa4;" horiz-adv-x="935" 
d="M811 178l-131 -84l-84 129q-56 -20 -135 -20q-70 0 -131 22l-84 -131l-127 84l88 133q-76 92 -76 244q0 159 82 250l-90 129l139 82l78 -129q56 16 119 16q65 0 123 -20l75 133l131 -82l-86 -129q36 -26 62.5 -96t26.5 -166q0 -152 -72 -232zM653 535q0 127 -43 191.5
t-153 64.5q-98 0 -142.5 -56t-44.5 -164q0 -134 47 -195t150 -61q186 0 186 220z" />
    <glyph glyph-name="yen" unicode="&#xa5;" horiz-adv-x="1103" 
d="M1094 1405l-340 -639h305v-121h-369l-53 -98v-98h422v-121h-422v-328h-174v328h-397v121h397v108l-47 88h-350v121h284l-340 639h207l266 -537q18 -35 72 -157q36 80 76 157l270 537h193z" />
    <glyph glyph-name="brokenbar" unicode="&#xa6;" horiz-adv-x="524" 
d="M330 709h-135v839h135v-839zM330 -426h-135v840h135v-840z" />
    <glyph glyph-name="section" unicode="&#xa7;" horiz-adv-x="1122" 
d="M989 578q0 -90 -47.5 -159t-128.5 -114q141 -91 141 -252q0 -69 -23.5 -126.5t-63 -98t-93 -68.5t-113.5 -41.5t-124 -13.5q-139 0 -247 63.5t-157 188.5l158 74q27 -90 94.5 -134t163.5 -44q94 0 157.5 47t63.5 141q0 29 -9.5 53t-21.5 40t-44 37.5t-54.5 34t-75.5 40.5
l-250 131q-71 37 -110 102.5t-39 147.5q0 187 207 286q-158 89 -158 242q0 79 33.5 143.5t89.5 105t125.5 62t144.5 21.5q74 0 142 -19t127.5 -64t89.5 -110l-154 -84q-23 64 -81.5 96.5t-129.5 32.5q-87 0 -151 -45t-64 -131q0 -100 90 -147l201 -101q44 -22 62 -31.5
t59 -33.5t61 -40t49.5 -44t43.5 -53.5t25 -61t11 -73.5zM817 553q0 33 -13.5 63t-31 50.5t-48 42t-51.5 33t-55 28.5l-118 59q-32 -13 -49.5 -21t-45 -25t-42 -33t-26 -41.5t-11.5 -55.5q0 -31 11.5 -57.5t26 -43.5t42 -36t45.5 -28t51 -25l182 -88q54 23 93.5 72.5
t39.5 105.5z" />
    <glyph glyph-name="dieresis" unicode="&#xa8;" horiz-adv-x="860" 
d="M748 1272q0 -44 -31 -76.5t-74 -32.5q-44 0 -76 32.5t-32 76.5q0 43 31 73.5t75 30.5q43 0 75 -31t32 -73zM324 1272q0 -45 -30.5 -77t-74.5 -32t-75 32t-31 77q0 43 30.5 73.5t73.5 30.5q44 0 75.5 -30.5t31.5 -73.5z" />
    <glyph glyph-name="copyright" unicode="&#xa9;" horiz-adv-x="1789" 
d="M1657 725q0 -212 -104 -388t-278.5 -275t-379.5 -99q-206 0 -380.5 99t-278 275t-103.5 388t103.5 388t278 275t380.5 99q205 0 379.5 -99t278.5 -275t104 -388zM1522 725q0 136 -49.5 257t-133.5 207t-199.5 136.5t-244.5 50.5q-173 0 -316.5 -85t-227 -235t-83.5 -331
t83.5 -331t227 -235t316.5 -85q129 0 244.5 50.5t199.5 136.5t133.5 207t49.5 257zM1153 354q-100 -71 -227 -71q-164 0 -264 127q-93 123 -93 303q0 140 56 252q48 91 127.5 142.5t177.5 51.5q128 0 207 -67l-58 -78q-66 49 -149 49q-128 0 -189 -121q-41 -80 -41 -227
q0 -123 31 -199q30 -68 84.5 -102.5t124.5 -34.5q90 0 156 51z" />
    <glyph glyph-name="ordfeminine" unicode="&#xaa;" horiz-adv-x="878" 
d="M766 838l-66 -90q-40 12 -67.5 41t-38.5 69q-52 -57 -104.5 -78.5t-116.5 -21.5q-69 0 -119.5 19.5t-77.5 52.5t-39 70t-12 79q0 132 105.5 204t297.5 72q29 0 54 -2v74q0 135 -123 135q-60 0 -126 -25.5t-120 -66.5l-61 94q159 105 325 105q140 0 197 -84
q18 -27 27 -64.5t10 -67t0 -77.5l-9 -275q-2 -69 11 -105t53 -58zM582 1169q-34 5 -60 5q-138 0 -201 -45t-63 -138q0 -141 133 -141q58 0 108.5 33t78.5 88zM754 492h-641v110h641v-110z" />
    <glyph glyph-name="guillemotleft" unicode="&#xab;" horiz-adv-x="1032" 
d="M920 127l-113 -74l-293 439l293 438l113 -74l-240 -364zM539 127l-113 -74l-293 439l293 438l113 -74l-240 -364z" />
    <glyph glyph-name="logicalnot" unicode="&#xac;" horiz-adv-x="1021" 
d="M909 158h-145v286h-651v146h796v-432z" />
    <glyph glyph-name="uni00AD" unicode="&#xad;" horiz-adv-x="616" 
d="M504 469h-391v156h391v-156z" />
    <glyph glyph-name="registered" unicode="&#xae;" horiz-adv-x="1789" 
d="M1657 725q0 -212 -104 -388t-278.5 -275t-379.5 -99q-206 0 -380.5 99t-278 275t-103.5 388t103.5 388t278 275t380.5 99q205 0 379.5 -99t278.5 -275t104 -388zM1522 725q0 136 -49.5 257t-133.5 207t-199.5 136.5t-244.5 50.5q-173 0 -316.5 -85t-227 -235t-83.5 -331
t83.5 -331t227 -235t316.5 -85q129 0 244.5 50.5t199.5 136.5t133.5 207t49.5 257zM1214 307h-143q-27 50 -70 125q-40 67 -56 91.5t-38.5 55.5t-52.5 64q-34 37 -76 39v-375h-119v846h238q137 0 201 -61q76 -68 76 -174q0 -101 -62.5 -169t-165.5 -65q44 -35 74 -78
q28 -36 72 -104zM1049 915q0 43 -22 77t-56 48q-42 17 -105 17h-88v-295h82q103 0 148 39q41 41 41 114z" />
    <glyph glyph-name="macron" unicode="&#xaf;" horiz-adv-x="663" 
d="M612 1399h-561v110h561v-110z" />
    <glyph glyph-name="degree" unicode="&#xb0;" horiz-adv-x="843" 
d="M752 1055q0 -150 -83 -245t-247 -95q-153 0 -241.5 94.5t-88.5 257.5t87 255.5t241 92.5q156 0 244 -94t88 -266zM614 1047q0 127 -44 191.5t-152 64.5q-96 0 -141.5 -54.5t-45.5 -165.5q0 -135 48 -195.5t149 -60.5q186 0 186 220z" />
    <glyph glyph-name="plusminus" unicode="&#xb1;" horiz-adv-x="985" 
d="M872 602h-307v-287h-145v287h-307v146h307v272h145v-272h307v-146zM868 74h-751v145h751v-145z" />
    <glyph glyph-name="twosuperior" unicode="&#xb2;" horiz-adv-x="733" 
d="M641 647l-31 -115h-506v82q88 59 191 170q99 104 141.5 179t42.5 135q0 58 -35.5 95.5t-91.5 37.5q-21 0 -41 -4t-43 -14.5t-35 -17t-39 -23.5t-34 -21l-68 72q154 127 293 127q104 0 176 -68t72 -168q0 -64 -32 -131t-67.5 -109t-93.5 -102q-94 -94 -129 -127
q7 0 21.5 1t21.5 1h287z" />
    <glyph glyph-name="threesuperior" unicode="&#xb3;" horiz-adv-x="743" 
d="M651 784q0 -83 -56 -149.5t-142 -102.5q-94 -40 -240 -40q-39 0 -76 6l-35 104q55 -8 93 -8q84 0 143.5 16t107.5 58q58 49 58 127q0 41 -24 71t-64 41q-45 11 -144 11h-32v104h32q126 0 156 12q25 11 41 35.5t16 56.5q0 47 -34.5 77t-92.5 30q-54 0 -99.5 -19.5
t-98.5 -56.5l-68 76q58 52 134.5 84.5t150.5 32.5q110 0 182 -59t72 -152q0 -57 -29 -101.5t-82 -70.5q131 -59 131 -183z" />
    <glyph glyph-name="acute" unicode="&#xb4;" horiz-adv-x="737" 
d="M625 1362l-459 -205l-53 96l424 267z" />
    <glyph glyph-name="mu" unicode="&#xb5;" horiz-adv-x="1142" 
d="M1018 66l-103 -109q-51 41 -75.5 77t-34.5 87q-117 -156 -324 -156q-92 0 -137 39v-399l-160 -31v1438l160 32v-735q0 -75 12 -109t47 -59q56 -39 127 -39q75 0 147.5 51t113.5 134v723l157 26v-723q0 -109 12.5 -158.5t57.5 -88.5z" />
    <glyph glyph-name="paragraph" unicode="&#xb6;" horiz-adv-x="1230" 
d="M1036 -258h-147v1573h-242v-1573h-147v905q-186 0 -307 110t-121 271q0 198 125 310t342 112h497v-1708z" />
    <glyph glyph-name="periodcentered" unicode="&#xb7;" horiz-adv-x="616" 
d="M442 571q0 -56 -39 -95.5t-94 -39.5t-95 40t-40 95q0 57 38.5 96.5t94.5 39.5t95.5 -39.5t39.5 -96.5z" />
    <glyph glyph-name="cedilla" unicode="&#xb8;" horiz-adv-x="593" 
d="M481 -233q0 -65 -54 -117.5t-146 -52.5q-81 0 -168 49l43 96q70 -33 125 -33q29 0 51 17t22 45t-24 43.5t-54 15.5q-33 0 -53 -4l-18 20l41 154h125l-23 -86q133 -18 133 -147z" />
    <glyph glyph-name="onesuperior" unicode="&#xb9;" horiz-adv-x="665" 
d="M573 532h-389v113h127v524q-41 -27 -184 -88l-35 84l254 170h105v-690h122v-113z" />
    <glyph glyph-name="ordmasculine" unicode="&#xba;" horiz-adv-x="884" 
d="M772 1141q0 -186 -88 -287.5t-242 -101.5q-152 0 -240.5 109t-88.5 298q0 187 87 293.5t238 106.5q164 0 249 -110.5t85 -307.5zM625 1135q0 174 -48.5 242.5t-140.5 68.5q-94 0 -138 -67.5t-44 -202.5q0 -161 47 -235.5t145 -74.5q89 0 134 65t45 204zM764 492h-641v110
h641v-110z" />
    <glyph glyph-name="guillemotright" unicode="&#xbb;" horiz-adv-x="1032" 
d="M899 492l-293 -439l-112 74l239 365l-239 364l112 74zM518 492l-293 -439l-112 74l239 365l-239 364l112 74z" />
    <glyph glyph-name="onequarter" unicode="&#xbc;" horiz-adv-x="1945" 
d="M1640 1563l-1079 -1878h-135l1079 1878h135zM1853 145h-100q0 -4 1 -12t1 -12v-123l-137 -37v158q0 4 1 13t1 13h-367v97l299 563h154q-221 -425 -297 -551l14 2h197l-2 12q-1 14 -1 20t2 21.5t3 24.5l16 221l117 35v-318l-2 -16h100v-111zM573 532h-389v113h127v524
q-41 -27 -184 -88l-35 84l254 170h105v-690h122v-113z" />
    <glyph glyph-name="onehalf" unicode="&#xbd;" horiz-adv-x="1894" 
d="M1520 1563l-1080 -1878h-135l1079 1878h136zM1802 115l-30 -115h-506v82q86 58 190 170q99 105 141.5 179t42.5 134q0 58 -35.5 95.5t-91.5 37.5q-21 0 -41 -4t-43 -14.5t-35 -17t-39 -23.5t-34 -21l-68 72q154 127 293 127q104 0 176 -67.5t72 -167.5q0 -49 -16 -96.5
t-47 -92.5t-59 -77.5t-70 -75.5q-94 -94 -129 -127q7 0 21.5 1t21.5 1h286zM573 532h-389v113h127v524q-41 -27 -184 -88l-35 84l254 170h105v-690h122v-113z" />
    <glyph glyph-name="threequarters" unicode="&#xbe;" horiz-adv-x="2033" 
d="M1624 1563l-1079 -1878h-135l1079 1878h135zM1942 145h-101q0 -4 1 -12t1 -12v-123l-137 -37v158q0 4 1 13t1 13h-367v97l299 563h154q-221 -425 -297 -551l14 2h197l-2 12q-1 14 -1 20t2 21.5t3 24.5l16 221l117 35v-318l-2 -16h101v-111zM651 784q0 -83 -56 -149.5
t-142 -102.5q-94 -40 -240 -40q-39 0 -76 6l-35 104q55 -8 93 -8q84 0 143.5 16t107.5 58q58 49 58 127q0 41 -24 71t-64 41q-45 11 -144 11h-32v104h32q126 0 156 12q25 11 41 35.5t16 56.5q0 47 -34.5 77t-92.5 30q-54 0 -99.5 -19.5t-98.5 -56.5l-68 76q58 52 134.5 84.5
t150.5 32.5q110 0 182 -59t72 -152q0 -57 -29 -101.5t-82 -70.5q131 -59 131 -183z" />
    <glyph glyph-name="questiondown" unicode="&#xbf;" horiz-adv-x="897" 
d="M805 -260q-72 -55 -174.5 -88t-202.5 -33q-141 0 -228 82.5t-87 218.5q0 48 14.5 93t33.5 76t48 62.5t48 47t44 33.5t27 20q102 82 102 229q0 51 -12 107h137q18 -74 18 -139q0 -167 -114 -273q-20 -19 -61 -50t-63 -50.5t-41.5 -59t-19.5 -88.5q0 -75 52.5 -122.5
t132.5 -47.5q131 0 278 95zM610 930q0 -57 -40 -97t-97 -40t-98 40t-41 97q0 59 40 100t97 41t98 -41.5t41 -99.5z" />
    <glyph glyph-name="Agrave" unicode="&#xc0;" horiz-adv-x="1193" 
d="M1174 0h-191l-133 432h-524l-136 -432h-170l469 1405h220zM807 569l-215 688l-221 -688h436zM776 1581l-53 -96l-459 205l88 157z" />
    <glyph glyph-name="Aacute" unicode="&#xc1;" horiz-adv-x="1193" 
d="M1174 0h-191l-133 432h-524l-136 -432h-170l469 1405h220zM807 569l-215 688l-221 -688h436zM932 1690l-459 -205l-53 96l424 266z" />
    <glyph glyph-name="Acircumflex" unicode="&#xc2;" horiz-adv-x="1193" 
d="M1174 0h-191l-133 432h-524l-136 -432h-170l469 1405h220zM807 569l-215 688l-221 -688h436zM948 1567l-74 -90l-284 174l-277 -174l-63 90l348 276z" />
    <glyph glyph-name="Atilde" unicode="&#xc3;" horiz-adv-x="1193" 
d="M1174 0h-191l-133 432h-524l-136 -432h-170l469 1405h220zM807 569l-215 688l-221 -688h436zM942 1671q-55 -68 -108.5 -98.5t-139.5 -30.5q-63 0 -132 38t-128 38q-31 0 -58 -12.5t-41 -25t-42 -42.5l-57 92q56 69 108 99t137 30q63 0 132 -38t128 -38q45 0 74.5 19
t69.5 61z" />
    <glyph glyph-name="Adieresis" unicode="&#xc4;" horiz-adv-x="1193" 
d="M1174 0h-191l-133 432h-524l-136 -432h-170l469 1405h220zM807 569l-215 688l-221 -688h436zM494 1599q0 -45 -30.5 -76.5t-74.5 -31.5t-75 32t-31 76q0 43 30.5 74t73.5 31q44 0 75.5 -31t31.5 -74zM918 1599q0 -45 -30.5 -76.5t-74.5 -31.5t-75 32t-31 76q0 43 30.5 74
t73.5 31q44 0 75.5 -31t31.5 -74z" />
    <glyph glyph-name="Aring" unicode="&#xc5;" horiz-adv-x="1193" 
d="M1174 0h-191l-133 432h-524l-136 -432h-170l469 1405h220zM807 569l-215 688l-221 -688h436zM811 1677q0 -89 -62.5 -153t-150.5 -64q-89 0 -153 64t-64 153t62.5 153t150.5 64t152.5 -64t64.5 -153zM719 1677q0 50 -37.5 86.5t-89.5 36.5q-47 0 -82 -36.5t-35 -86.5
q0 -49 36.5 -86t86.5 -37q48 0 84.5 37t36.5 86z" />
    <glyph glyph-name="AE" unicode="&#xc6;" horiz-adv-x="1812" 
d="M1731 0h-789v436h-483l-266 -436h-183l869 1405h831l-22 -141h-576v-459h481v-146h-481v-514h619v-145zM942 573v670l-399 -670h399z" />
    <glyph glyph-name="Ccedilla" unicode="&#xc7;" horiz-adv-x="1173" 
d="M1102 92q-173 -112 -385 -115l-17 -63q134 -18 134 -147q0 -65 -54.5 -117.5t-146.5 -52.5q-81 0 -168 49l43 96q70 -33 125 -33q29 0 51.5 17t22.5 45t-24 43.5t-54 15.5q-34 0 -54 -4l-18 20l39 144q-179 40 -295 174q-168 191 -168 534q0 206 76 372t211 259.5
t303 93.5q206 0 354 -114l-90 -109q-121 88 -266 88q-242 0 -346 -241q-60 -138 -60 -373q0 -185 45 -297q52 -128 152.5 -195t224.5 -67q146 0 275 90z" />
    <glyph glyph-name="Egrave" unicode="&#xc8;" horiz-adv-x="1064" 
d="M983 0h-788v1405h768l-23 -139h-575v-461h481v-146h-481v-514h618v-145zM813 1581l-53 -96l-459 205l88 157z" />
    <glyph glyph-name="Eacute" unicode="&#xc9;" horiz-adv-x="1064" 
d="M983 0h-788v1405h768l-23 -139h-575v-461h481v-146h-481v-514h618v-145zM874 1690l-458 -205l-54 96l424 266z" />
    <glyph glyph-name="Ecircumflex" unicode="&#xca;" horiz-adv-x="1064" 
d="M983 0h-788v1405h768l-23 -139h-575v-461h481v-146h-481v-514h618v-145zM936 1567l-74 -90l-284 174l-277 -174l-63 90l348 276z" />
    <glyph glyph-name="Edieresis" unicode="&#xcb;" horiz-adv-x="1064" 
d="M983 0h-788v1405h768l-23 -139h-575v-461h481v-146h-481v-514h618v-145zM477 1599q0 -45 -30 -76.5t-74 -31.5t-75.5 32t-31.5 76q0 43 31 74t74 31q44 0 75 -31t31 -74zM901 1599q0 -45 -30 -76.5t-74 -31.5t-75.5 32t-31.5 76q0 43 31 74t74 31q44 0 75 -31t31 -74z
" />
    <glyph glyph-name="Igrave" unicode="&#xcc;" horiz-adv-x="552" 
d="M358 0h-163v1405h163v-1405zM428 1581l-53 -96l-459 205l88 157z" />
    <glyph glyph-name="Iacute" unicode="&#xcd;" horiz-adv-x="552" 
d="M358 0h-163v1405h163v-1405zM649 1690l-459 -205l-53 96l424 266z" />
    <glyph glyph-name="Icircumflex" unicode="&#xce;" horiz-adv-x="552" 
d="M358 0h-163v1405h163v-1405zM627 1567l-74 -90l-285 174l-276 -174l-64 90l348 276z" />
    <glyph glyph-name="Idieresis" unicode="&#xcf;" horiz-adv-x="552" 
d="M358 0h-163v1405h163v-1405zM168 1599q0 -45 -30.5 -76.5t-74.5 -31.5t-75 32t-31 76q0 43 30.5 74t73.5 31q44 0 75.5 -31t31.5 -74zM592 1599q0 -45 -30.5 -76.5t-74.5 -31.5t-75 32t-31 76q0 43 30.5 74t73.5 31q44 0 75.5 -31t31.5 -74z" />
    <glyph glyph-name="Eth" unicode="&#xd0;" horiz-adv-x="1296" 
d="M1163 700q0 -348 -159 -524q-90 -100 -190 -138t-253 -38h-366v657h-172v121h172v627h280q173 0 263.5 -19.5t187.5 -89.5q237 -170 237 -596zM981 680q0 165 -26.5 271t-94.5 188q-65 77 -138 103t-192 26h-168v-490h326l-18 -121h-308v-518h168q130 0 217.5 29.5
t139.5 118.5q94 163 94 393z" />
    <glyph glyph-name="Ntilde" unicode="&#xd1;" horiz-adv-x="1323" 
d="M1128 0h-176l-450 860q-127 242 -160 338q15 -156 18 -383l9 -815h-174v1405h194l467 -897q20 -37 40 -79.5t35 -78.5t27 -64.5t20 -50t9 -22.5l-1 26q-2 26 -4.5 69.5t-5 95.5t-4.5 116.5t-3 120.5l-6 764h165v-1405zM1006 1671q-55 -68 -108.5 -98.5t-139.5 -30.5
q-63 0 -132 38t-128 38q-31 0 -58 -12.5t-41.5 -25.5t-42.5 -42l-57 92q56 69 108.5 99t137.5 30q63 0 132 -38t128 -38q31 0 58 12t42.5 25.5t42.5 42.5z" />
    <glyph glyph-name="Ograve" unicode="&#xd2;" horiz-adv-x="1394" 
d="M1262 680q0 -202 -48.5 -337t-156.5 -234q-78 -71 -163.5 -103.5t-193.5 -32.5q-245 0 -399 179q-168 192 -168 557q0 335 150 528t409 193q287 0 443 -230q127 -189 127 -520zM1073 655q0 307 -67 447q-40 85 -120 138.5t-194 53.5q-98 0 -179.5 -44.5t-121.5 -119.5
q-72 -135 -72 -387q0 -157 24.5 -287.5t66.5 -201.5q39 -66 125 -109t174 -43q167 0 262 121q54 68 78 165.5t24 266.5zM909 1581l-53 -96l-459 205l88 157z" />
    <glyph glyph-name="Oacute" unicode="&#xd3;" horiz-adv-x="1394" 
d="M1262 680q0 -202 -48.5 -337t-156.5 -234q-78 -71 -163.5 -103.5t-193.5 -32.5q-245 0 -399 179q-168 192 -168 557q0 335 150 528t409 193q287 0 443 -230q127 -189 127 -520zM1073 655q0 307 -67 447q-40 85 -120 138.5t-194 53.5q-98 0 -179.5 -44.5t-121.5 -119.5
q-72 -135 -72 -387q0 -157 24.5 -287.5t66.5 -201.5q39 -66 125 -109t174 -43q167 0 262 121q54 68 78 165.5t24 266.5zM1038 1690l-458 -205l-54 96l424 266z" />
    <glyph glyph-name="Ocircumflex" unicode="&#xd4;" horiz-adv-x="1394" 
d="M1262 680q0 -202 -48.5 -337t-156.5 -234q-78 -71 -163.5 -103.5t-193.5 -32.5q-245 0 -399 179q-168 192 -168 557q0 335 150 528t409 193q287 0 443 -230q127 -189 127 -520zM1073 655q0 307 -67 447q-40 85 -120 138.5t-194 53.5q-98 0 -179.5 -44.5t-121.5 -119.5
q-72 -135 -72 -387q0 -157 24.5 -287.5t66.5 -201.5q39 -66 125 -109t174 -43q167 0 262 121q54 68 78 165.5t24 266.5zM1051 1567l-74 -90l-285 174l-276 -174l-64 90l348 276z" />
    <glyph glyph-name="Otilde" unicode="&#xd5;" horiz-adv-x="1394" 
d="M1262 680q0 -202 -48.5 -337t-156.5 -234q-78 -71 -163.5 -103.5t-193.5 -32.5q-245 0 -399 179q-168 192 -168 557q0 335 150 528t409 193q287 0 443 -230q127 -189 127 -520zM1073 655q0 307 -67 447q-40 85 -120 138.5t-194 53.5q-98 0 -179.5 -44.5t-121.5 -119.5
q-72 -135 -72 -387q0 -157 24.5 -287.5t66.5 -201.5q39 -66 125 -109t174 -43q167 0 262 121q54 68 78 165.5t24 266.5zM1051 1671q-55 -68 -108.5 -98.5t-139.5 -30.5q-63 0 -132 38t-128 38q-31 0 -58 -12.5t-41.5 -25.5t-42.5 -42l-57 92q56 69 108.5 99t137.5 30
q63 0 132 -38t128 -38q31 0 58 12t42.5 25.5t42.5 42.5z" />
    <glyph glyph-name="Odieresis" unicode="&#xd6;" horiz-adv-x="1394" 
d="M1262 680q0 -202 -48.5 -337t-156.5 -234q-78 -71 -163.5 -103.5t-193.5 -32.5q-245 0 -399 179q-168 192 -168 557q0 335 150 528t409 193q287 0 443 -230q127 -189 127 -520zM1073 655q0 307 -67 447q-40 85 -120 138.5t-194 53.5q-98 0 -179.5 -44.5t-121.5 -119.5
q-72 -135 -72 -387q0 -157 24.5 -287.5t66.5 -201.5q39 -66 125 -109t174 -43q167 0 262 121q54 68 78 165.5t24 266.5zM584 1599q0 -45 -30.5 -76.5t-74.5 -31.5t-75 32t-31 76q0 43 30.5 74t73.5 31q44 0 75.5 -31t31.5 -74zM1006 1599q0 -45 -30.5 -76.5t-74.5 -31.5
t-75 32t-31 76q0 43 30.5 74t73.5 31q44 0 75.5 -31t31.5 -74z" />
    <glyph glyph-name="multiply" unicode="&#xd7;" horiz-adv-x="1114" 
d="M920 254l-105 -104l-258 258l-258 -258l-104 104l258 258l-258 258l104 104l258 -258l258 258l105 -104l-258 -258z" />
    <glyph glyph-name="Oslash" unicode="&#xd8;" horiz-adv-x="1394" 
d="M1262 680q0 -202 -48.5 -337t-156.5 -234q-78 -71 -163.5 -103.5t-193.5 -32.5q-171 0 -305 93l-139 -232l-106 66l151 252q-168 192 -168 557q0 335 150 528t409 193q179 0 318 -97l131 219l108 -65l-145 -244q158 -193 158 -563zM932 1204q-97 90 -240 90
q-98 0 -179.5 -44.5t-121.5 -119.5q-72 -135 -72 -387q0 -277 68 -446zM1073 655q0 289 -61 435l-543 -904q47 -38 112 -61t128 -23q167 0 262 121q54 68 78 165.5t24 266.5z" />
    <glyph glyph-name="Ugrave" unicode="&#xd9;" horiz-adv-x="1300" 
d="M1116 406q0 -130 -22 -199.5t-84 -122.5q-127 -109 -369 -109q-161 0 -259.5 49t-156.5 154q-41 75 -41 219v1008h166v-946q0 -143 25 -203q25 -56 91 -96.5t183 -40.5q182 0 248 88q33 44 43 92t10 127v979h166v-999zM829 1581l-53 -96l-459 205l89 157z" />
    <glyph glyph-name="Uacute" unicode="&#xda;" horiz-adv-x="1300" 
d="M1116 406q0 -130 -22 -199.5t-84 -122.5q-127 -109 -369 -109q-161 0 -259.5 49t-156.5 154q-41 75 -41 219v1008h166v-946q0 -143 25 -203q25 -56 91 -96.5t183 -40.5q182 0 248 88q33 44 43 92t10 127v979h166v-999zM905 1690l-459 -205l-53 96l424 266z" />
    <glyph glyph-name="Ucircumflex" unicode="&#xdb;" horiz-adv-x="1300" 
d="M1116 406q0 -130 -22 -199.5t-84 -122.5q-127 -109 -369 -109q-161 0 -259.5 49t-156.5 154q-41 75 -41 219v1008h166v-946q0 -143 25 -203q25 -56 91 -96.5t183 -40.5q182 0 248 88q33 44 43 92t10 127v979h166v-999zM999 1567l-73 -90l-285 174l-276 -174l-64 90
l348 276z" />
    <glyph glyph-name="Udieresis" unicode="&#xdc;" horiz-adv-x="1300" 
d="M1116 406q0 -130 -22 -199.5t-84 -122.5q-127 -109 -369 -109q-161 0 -259.5 49t-156.5 154q-41 75 -41 219v1008h166v-946q0 -143 25 -203q25 -56 91 -96.5t183 -40.5q182 0 248 88q33 44 43 92t10 127v979h166v-999zM543 1599q0 -45 -30.5 -76.5t-74.5 -31.5t-75 32
t-31 76q0 43 30.5 74t73.5 31q44 0 75.5 -31t31.5 -74zM965 1599q0 -45 -30.5 -76.5t-74.5 -31.5t-75 32t-31 76q0 43 30.5 74t73.5 31q44 0 75.5 -31t31.5 -74z" />
    <glyph glyph-name="Yacute" unicode="&#xdd;" horiz-adv-x="1062" 
d="M1073 1405l-457 -858v-547h-174v557l-452 848h207l266 -537q15 -30 39.5 -84.5t32.5 -72.5q15 41 75 157l271 537h192zM838 1692l-459 -205l-53 96l424 266z" />
    <glyph glyph-name="Thorn" unicode="&#xde;" horiz-adv-x="1122" 
d="M1071 737q0 -110 -30 -191t-97 -143q-68 -61 -148 -85.5t-192 -24.5h-246v-293h-163v1405h163v-266h226q114 0 182 -14.5t125 -51.5q180 -118 180 -336zM885 705q0 153 -82 223q-43 37 -104.5 53t-161.5 16h-179v-567h236q87 0 135 17.5t84 58.5q72 81 72 199z" />
    <glyph glyph-name="germandbls" unicode="&#xdf;" horiz-adv-x="1181" 
d="M1069 356q0 -160 -108.5 -270.5t-276.5 -110.5q-131 0 -203 37l47 107q62 -27 134 -27q101 0 169 75t68 183q0 46 -9.5 81.5t-24 59.5t-43 46t-54 36t-70.5 35q-125 58 -170 94.5t-45 98.5q0 28 10.5 51.5t22 38.5t38.5 32.5t40 24.5t47 23l18 10q54 27 84.5 63.5
t30.5 104.5q0 82 -57.5 133t-151.5 51q-101 0 -157 -71t-56 -220v-835q0 -131 -24 -207h-154q21 86 21 240v659h-152v121h152q0 117 15 182t66 123q112 127 302 127q158 0 262 -90t104 -225q0 -162 -172 -242q-24 -11 -67 -26t-58.5 -26.5t-15.5 -31.5q0 -17 36.5 -35.5
t115.5 -53.5t141 -71q67 -40 106 -119t39 -176z" />
    <glyph glyph-name="agrave" unicode="&#xe0;" horiz-adv-x="1083" 
d="M967 76l-82 -115q-53 17 -90 56.5t-50 93.5q-75 -75 -141 -106.5t-153 -31.5q-90 0 -156.5 25.5t-102.5 69t-52.5 92.5t-16.5 104q0 173 142.5 270t398.5 97q38 0 71 -2v71q0 71 -6 103.5t-27 56.5q-49 55 -137 55q-83 0 -178 -36.5t-147 -83.5l-80 114q207 138 428 138
q216 0 282 -160q27 -63 23 -225l-8 -336q-3 -127 11.5 -173.5t70.5 -76.5zM731 518q-40 4 -80 4q-187 0 -268.5 -60.5t-81.5 -182.5q0 -91 44.5 -139t131.5 -48q78 0 145.5 44t102.5 116zM772 1253l-53 -96l-459 205l88 158z" />
    <glyph glyph-name="aacute" unicode="&#xe1;" horiz-adv-x="1083" 
d="M967 76l-82 -115q-53 17 -90 56.5t-50 93.5q-75 -75 -141 -106.5t-153 -31.5q-90 0 -156.5 25.5t-102.5 69t-52.5 92.5t-16.5 104q0 173 142.5 270t398.5 97q38 0 71 -2v71q0 71 -6 103.5t-27 56.5q-49 55 -137 55q-83 0 -178 -36.5t-147 -83.5l-80 114q207 138 428 138
q216 0 282 -160q27 -63 23 -225l-8 -336q-3 -127 11.5 -173.5t70.5 -76.5zM731 518q-40 4 -80 4q-187 0 -268.5 -60.5t-81.5 -182.5q0 -91 44.5 -139t131.5 -48q78 0 145.5 44t102.5 116zM842 1362l-459 -205l-53 96l424 267z" />
    <glyph glyph-name="acircumflex" unicode="&#xe2;" horiz-adv-x="1083" 
d="M967 76l-82 -115q-53 17 -90 56.5t-50 93.5q-75 -75 -141 -106.5t-153 -31.5q-90 0 -156.5 25.5t-102.5 69t-52.5 92.5t-16.5 104q0 173 142.5 270t398.5 97q38 0 71 -2v71q0 71 -6 103.5t-27 56.5q-49 55 -137 55q-83 0 -178 -36.5t-147 -83.5l-80 114q207 138 428 138
q216 0 282 -160q27 -63 23 -225l-8 -336q-3 -127 11.5 -173.5t70.5 -76.5zM731 518q-40 4 -80 4q-187 0 -268.5 -60.5t-81.5 -182.5q0 -91 44.5 -139t131.5 -48q78 0 145.5 44t102.5 116zM895 1239l-74 -90l-284 174l-277 -174l-63 90l348 277z" />
    <glyph glyph-name="atilde" unicode="&#xe3;" horiz-adv-x="1083" 
d="M967 76l-82 -115q-53 17 -90 56.5t-50 93.5q-75 -75 -141 -106.5t-153 -31.5q-90 0 -156.5 25.5t-102.5 69t-52.5 92.5t-16.5 104q0 173 142.5 270t398.5 97q38 0 71 -2v71q0 71 -6 103.5t-27 56.5q-49 55 -137 55q-83 0 -178 -36.5t-147 -83.5l-80 114q207 138 428 138
q216 0 282 -160q27 -63 23 -225l-8 -336q-3 -127 11.5 -173.5t70.5 -76.5zM731 518q-40 4 -80 4q-187 0 -268.5 -60.5t-81.5 -182.5q0 -91 44.5 -139t131.5 -48q78 0 145.5 44t102.5 116zM901 1343q-55 -68 -108.5 -98.5t-139.5 -30.5q-63 0 -132 38t-128 38
q-31 0 -58 -12.5t-41 -25t-42 -42.5l-57 93q56 69 108 99t137 30q63 0 132 -38t128 -38q45 0 74.5 19t69.5 61z" />
    <glyph glyph-name="adieresis" unicode="&#xe4;" horiz-adv-x="1083" 
d="M967 76l-82 -115q-53 17 -90 56.5t-50 93.5q-75 -75 -141 -106.5t-153 -31.5q-90 0 -156.5 25.5t-102.5 69t-52.5 92.5t-16.5 104q0 173 142.5 270t398.5 97q38 0 71 -2v71q0 71 -6 103.5t-27 56.5q-49 55 -137 55q-83 0 -178 -36.5t-147 -83.5l-80 114q207 138 428 138
q216 0 282 -160q27 -63 23 -225l-8 -336q-3 -127 11.5 -173.5t70.5 -76.5zM731 518q-40 4 -80 4q-187 0 -268.5 -60.5t-81.5 -182.5q0 -91 44.5 -139t131.5 -48q78 0 145.5 44t102.5 116zM453 1272q0 -45 -30.5 -77t-74.5 -32t-75 32t-31 77q0 43 30.5 73.5t73.5 30.5
q44 0 75.5 -30.5t31.5 -73.5zM877 1272q0 -45 -30.5 -77t-74.5 -32t-75 32t-31 77q0 43 30.5 73.5t73.5 30.5q44 0 75.5 -30.5t31.5 -73.5z" />
    <glyph glyph-name="aring" unicode="&#xe5;" horiz-adv-x="1083" 
d="M967 76l-82 -115q-53 17 -90 56.5t-50 93.5q-75 -75 -141 -106.5t-153 -31.5q-90 0 -156.5 25.5t-102.5 69t-52.5 92.5t-16.5 104q0 173 142.5 270t398.5 97q38 0 71 -2v71q0 71 -6 103.5t-27 56.5q-49 55 -137 55q-83 0 -178 -36.5t-147 -83.5l-80 114q207 138 428 138
q216 0 282 -160q27 -63 23 -225l-8 -336q-3 -127 11.5 -173.5t70.5 -76.5zM731 518q-40 4 -80 4q-187 0 -268.5 -60.5t-81.5 -182.5q0 -91 44.5 -139t131.5 -48q78 0 145.5 44t102.5 116zM784 1350q0 -89 -62.5 -153t-150.5 -64q-89 0 -153 64t-64 153t62.5 153t150.5 64
t152.5 -64t64.5 -153zM692 1350q0 50 -37.5 86.5t-89.5 36.5q-47 0 -81.5 -36.5t-34.5 -86.5t36.5 -86.5t85.5 -36.5q48 0 84.5 37t36.5 86z" />
    <glyph glyph-name="ae" unicode="&#xe6;" horiz-adv-x="1628" 
d="M1516 483h-637v-34q0 -72 16.5 -131t51 -106.5t94 -74t139.5 -26.5q145 0 250 96l61 -103q-139 -127 -344 -127q-116 0 -209 50.5t-141 124.5q-65 -81 -161 -130t-185 -49q-74 0 -132.5 18.5t-94.5 47.5t-59.5 68t-32.5 77.5t-9 79.5q0 173 142.5 270t398.5 97
q16 0 42.5 -1t28.5 -1v71q0 71 -6 103.5t-27 56.5q-49 55 -137 55q-79 0 -166 -32t-159 -88l-80 114q207 138 428 138q168 0 248 -134q133 136 286 136q169 0 277 -111q67 -68 92 -159.5t25 -272.5v-23zM731 518q-3 0 -34.5 2t-45.5 2q-185 0 -267.5 -60t-82.5 -183
q0 -91 44.5 -139t131.5 -48q78 0 145.5 44t102.5 116zM1346 604q0 161 -55.5 239.5t-176.5 78.5q-109 0 -169 -80.5t-66 -237.5h467z" />
    <glyph glyph-name="ccedilla" unicode="&#xe7;" horiz-adv-x="960" 
d="M868 113q-69 -71 -139.5 -103t-161.5 -33l-16 -63q133 -18 133 -147q0 -65 -54.5 -117.5t-146.5 -52.5q-81 0 -168 49l43 96q70 -33 125 -33q29 0 51.5 17t22.5 45t-24 43.5t-54 15.5q-33 0 -53 -4l-18 20l38 144q-139 31 -215 141q-98 141 -98 363q0 156 40.5 258.5
t113.5 175.5q119 119 276 119q88 0 150.5 -28.5t128.5 -82.5l-88 -111q-56 46 -97 64t-98 18q-60 0 -112 -31t-80 -83q-58 -107 -58 -334q0 -172 64.5 -263.5t187.5 -91.5q128 0 219 111z" />
    <glyph glyph-name="egrave" unicode="&#xe8;" horiz-adv-x="1067" 
d="M954 483h-637v-24q0 -150 48 -223q81 -125 253 -125q145 0 250 96l62 -103q-139 -127 -344 -127q-212 0 -332.5 144.5t-120.5 398.5q0 128 29 218t94 167q121 142 305 142q169 0 277 -111q67 -68 91.5 -158.5t24.5 -271.5v-23zM784 604q-3 157 -47 227q-26 41 -76 66
t-108 25q-109 0 -169.5 -80.5t-66.5 -237.5h467zM784 1253l-53 -96l-459 205l88 158z" />
    <glyph glyph-name="eacute" unicode="&#xe9;" horiz-adv-x="1067" 
d="M954 483h-637v-24q0 -150 48 -223q81 -125 253 -125q145 0 250 96l62 -103q-139 -127 -344 -127q-212 0 -332.5 144.5t-120.5 398.5q0 128 29 218t94 167q121 142 305 142q169 0 277 -111q67 -68 91.5 -158.5t24.5 -271.5v-23zM784 604q-3 157 -47 227q-26 41 -76 66
t-108 25q-109 0 -169.5 -80.5t-66.5 -237.5h467zM840 1362l-459 -205l-53 96l424 267z" />
    <glyph glyph-name="ecircumflex" unicode="&#xea;" horiz-adv-x="1067" 
d="M954 483h-637v-24q0 -150 48 -223q81 -125 253 -125q145 0 250 96l62 -103q-139 -127 -344 -127q-212 0 -332.5 144.5t-120.5 398.5q0 128 29 218t94 167q121 142 305 142q169 0 277 -111q67 -68 91.5 -158.5t24.5 -271.5v-23zM784 604q-3 157 -47 227q-26 41 -76 66
t-108 25q-109 0 -169.5 -80.5t-66.5 -237.5h467zM909 1239l-73 -90l-285 174l-277 -174l-63 90l348 277z" />
    <glyph glyph-name="edieresis" unicode="&#xeb;" horiz-adv-x="1067" 
d="M954 483h-637v-24q0 -150 48 -223q81 -125 253 -125q145 0 250 96l62 -103q-139 -127 -344 -127q-212 0 -332.5 144.5t-120.5 398.5q0 128 29 218t94 167q121 142 305 142q169 0 277 -111q67 -68 91.5 -158.5t24.5 -271.5v-23zM784 604q-3 157 -47 227q-26 41 -76 66
t-108 25q-109 0 -169.5 -80.5t-66.5 -237.5h467zM446 1272q0 -45 -30 -77t-74 -32t-75 32t-31 77q0 43 30.5 73.5t73.5 30.5q44 0 75 -30.5t31 -73.5zM870 1272q0 -45 -30 -77t-74 -32t-75.5 32.5t-31.5 76.5q0 43 31 73.5t74 30.5q44 0 75 -30.5t31 -73.5z" />
    <glyph glyph-name="igrave" unicode="&#xec;" horiz-adv-x="555" 
d="M360 0h-165v1016l165 26v-1042zM483 1253l-53 -96l-459 205l88 158z" />
    <glyph glyph-name="iacute" unicode="&#xed;" horiz-adv-x="555" 
d="M360 0h-165v1016l165 26v-1042zM586 1362l-459 -205l-53 96l424 267z" />
    <glyph glyph-name="icircumflex" unicode="&#xee;" horiz-adv-x="555" 
d="M360 0h-165v1016l165 26v-1042zM629 1239l-74 -90l-285 174l-276 -174l-64 90l349 277z" />
    <glyph glyph-name="idieresis" unicode="&#xef;" horiz-adv-x="555" 
d="M360 0h-165v1016l165 26v-1042zM193 1272q0 -45 -30.5 -77t-74.5 -32t-75 32t-31 77q0 43 30.5 73.5t73.5 30.5q44 0 75.5 -30.5t31.5 -73.5zM573 1272q0 -45 -30 -77t-74 -32t-75.5 32.5t-31.5 76.5q0 43 31 73.5t74 30.5q44 0 75 -30.5t31 -73.5z" />
    <glyph glyph-name="eth" unicode="&#xf0;" horiz-adv-x="1150" 
d="M844 514q0 43 -11 134t-16 112q-46 29 -116 48t-138 19q-114 0 -183 -104.5t-69 -255.5q0 -150 76 -256.5t195 -106.5q130 0 196 107.5t66 302.5zM774 1372l-78 -86q168 -124 245 -319.5t77 -434.5q0 -257 -129 -409t-320 -152q-121 0 -222 70.5t-157.5 185.5t-56.5 244
q0 127 52.5 236.5t150.5 177t219 67.5q130 0 229 -45q-22 75 -82 156.5t-100 110.5l-106 -121l-105 73l101 113q-106 56 -256 98l81 99q149 -38 265 -93l88 103z" />
    <glyph glyph-name="ntilde" unicode="&#xf1;" horiz-adv-x="1138" 
d="M944 0h-162v690q0 80 -7.5 111.5t-29.5 58.5q-37 43 -112 43q-61 0 -144 -42t-139 -101v-760h-155v786q0 58 -8.5 109.5t-16.5 73t-14 32.5l155 43q10 -18 23.5 -64.5t13.5 -94.5q157 157 322 157q83 0 151 -40.5t99 -108.5q24 -56 24 -119v-774zM911 1343
q-55 -69 -108 -99t-139 -30q-63 0 -132.5 38t-128.5 38q-31 0 -58 -12.5t-41 -25t-42 -42.5l-57 93q56 69 108.5 99t137.5 30q63 0 132 -38t128 -38q31 0 58 12t42.5 25.5t42.5 42.5z" />
    <glyph glyph-name="ograve" unicode="&#xf2;" horiz-adv-x="1124" 
d="M1001 494q0 -249 -120 -385t-318 -136q-209 0 -324.5 144.5t-115.5 398.5q0 249 116.5 392t317.5 143q225 0 350 -179q94 -137 94 -378zM819 481q0 210 -47 307q-31 64 -90.5 98t-126.5 34q-68 0 -125.5 -30t-83.5 -81q-49 -94 -49 -266q0 -107 17 -197t46 -137
q28 -46 84.5 -74.5t122.5 -28.5q79 0 137 40t84 114q31 85 31 221zM778 1253l-53 -96l-459 205l88 158z" />
    <glyph glyph-name="oacute" unicode="&#xf3;" horiz-adv-x="1124" 
d="M1001 494q0 -249 -120 -385t-318 -136q-209 0 -324.5 144.5t-115.5 398.5q0 249 116.5 392t317.5 143q225 0 350 -179q94 -137 94 -378zM819 481q0 210 -47 307q-31 64 -90.5 98t-126.5 34q-68 0 -125.5 -30t-83.5 -81q-49 -94 -49 -266q0 -107 17 -197t46 -137
q28 -46 84.5 -74.5t122.5 -28.5q79 0 137 40t84 114q31 85 31 221zM868 1362l-458 -205l-54 96l424 267z" />
    <glyph glyph-name="ocircumflex" unicode="&#xf4;" horiz-adv-x="1124" 
d="M1001 494q0 -249 -120 -385t-318 -136q-209 0 -324.5 144.5t-115.5 398.5q0 249 116.5 392t317.5 143q225 0 350 -179q94 -137 94 -378zM819 481q0 210 -47 307q-31 64 -90.5 98t-126.5 34q-68 0 -125.5 -30t-83.5 -81q-49 -94 -49 -266q0 -107 17 -197t46 -137
q28 -46 84.5 -74.5t122.5 -28.5q79 0 137 40t84 114q31 85 31 221zM913 1239l-73 -90l-285 174l-276 -174l-64 90l348 277z" />
    <glyph glyph-name="otilde" unicode="&#xf5;" horiz-adv-x="1124" 
d="M1001 494q0 -249 -120 -385t-318 -136q-209 0 -324.5 144.5t-115.5 398.5q0 249 116.5 392t317.5 143q225 0 350 -179q94 -137 94 -378zM819 481q0 210 -47 307q-31 64 -90.5 98t-126.5 34q-68 0 -125.5 -30t-83.5 -81q-49 -94 -49 -266q0 -107 17 -197t46 -137
q28 -46 84.5 -74.5t122.5 -28.5q79 0 137 40t84 114q31 85 31 221zM922 1343q-55 -68 -108.5 -98.5t-139.5 -30.5q-63 0 -132 38t-128 38q-31 0 -58 -12.5t-41.5 -25.5t-42.5 -42l-57 93q56 69 108.5 99t137.5 30q63 0 132 -38t128 -38q31 0 58 12t42.5 25.5t42.5 42.5z" />
    <glyph glyph-name="odieresis" unicode="&#xf6;" horiz-adv-x="1124" 
d="M1001 494q0 -249 -120 -385t-318 -136q-209 0 -324.5 144.5t-115.5 398.5q0 249 116.5 392t317.5 143q225 0 350 -179q94 -137 94 -378zM819 481q0 210 -47 307q-31 64 -90.5 98t-126.5 34q-68 0 -125.5 -30t-83.5 -81q-49 -94 -49 -266q0 -107 17 -197t46 -137
q28 -46 84.5 -74.5t122.5 -28.5q79 0 137 40t84 114q31 85 31 221zM449 1272q0 -45 -30.5 -77t-74.5 -32t-75 32t-31 77q0 43 30.5 73.5t73.5 30.5q44 0 75.5 -30.5t31.5 -73.5zM874 1272q0 -45 -30 -77t-74 -32t-75 32t-31 77q0 43 30.5 73.5t73.5 30.5q44 0 75 -30.5
t31 -73.5z" />
    <glyph glyph-name="divide" unicode="&#xf7;" horiz-adv-x="1249" 
d="M1137 481h-1024v133h1024v-133zM766 115q0 -59 -40.5 -99.5t-98.5 -40.5q-57 0 -96 40.5t-39 97.5q0 59 40 99t99 40q56 0 95.5 -40t39.5 -97zM766 967q0 -58 -40 -99t-97 -41t-97 39.5t-40 96.5q0 59 40.5 100t98.5 41q56 0 95.5 -40t39.5 -97z" />
    <glyph glyph-name="oslash" unicode="&#xf8;" horiz-adv-x="1124" 
d="M1001 485q0 -150 -37.5 -249.5t-121.5 -172.5q-59 -52 -125.5 -75t-153.5 -23q-132 0 -227 62l-98 -162l-99 61l107 178q-123 145 -123 404q0 249 116.5 391.5t317.5 142.5q126 0 219 -55l103 170l100 -61l-111 -183q70 -80 101.5 -181t31.5 -247zM819 473q0 196 -41 289
l-368 -612q69 -52 157 -52q79 0 137 40t84 114q31 85 31 221zM702 864q-61 47 -147 47q-68 0 -125.5 -30t-83.5 -80q-49 -94 -49 -266t39 -281z" />
    <glyph glyph-name="ugrave" unicode="&#xf9;" horiz-adv-x="1140" 
d="M1016 66l-103 -109q-51 41 -75.5 77t-34.5 87q-117 -156 -324 -156q-96 0 -165.5 39t-102.5 107q-27 58 -27 151v750l158 30v-733q0 -73 13 -110t48 -62q50 -35 125 -35t147 51t113 134v723l158 26v-743q0 -95 15.5 -143t54.5 -84zM813 1253l-53 -96l-459 205l88 158z
" />
    <glyph glyph-name="uacute" unicode="&#xfa;" horiz-adv-x="1140" 
d="M1016 66l-103 -109q-51 41 -75.5 77t-34.5 87q-117 -156 -324 -156q-96 0 -165.5 39t-102.5 107q-27 58 -27 151v750l158 30v-733q0 -73 13 -110t48 -62q50 -35 125 -35t147 51t113 134v723l158 26v-743q0 -95 15.5 -143t54.5 -84zM915 1362l-458 -205l-54 96l424 267z
" />
    <glyph glyph-name="ucircumflex" unicode="&#xfb;" horiz-adv-x="1140" 
d="M1016 66l-103 -109q-51 41 -75.5 77t-34.5 87q-117 -156 -324 -156q-96 0 -165.5 39t-102.5 107q-27 58 -27 151v750l158 30v-733q0 -73 13 -110t48 -62q50 -35 125 -35t147 51t113 134v723l158 26v-743q0 -95 15.5 -143t54.5 -84zM918 1239l-74 -90l-285 174l-276 -174
l-64 90l348 277z" />
    <glyph glyph-name="udieresis" unicode="&#xfc;" horiz-adv-x="1140" 
d="M1016 66l-103 -109q-51 41 -75.5 77t-34.5 87q-117 -156 -324 -156q-96 0 -165.5 39t-102.5 107q-27 58 -27 151v750l158 30v-733q0 -73 13 -110t48 -62q50 -35 125 -35t147 51t113 134v723l158 26v-743q0 -95 15.5 -143t54.5 -84zM457 1272q0 -45 -30.5 -77t-74.5 -32
t-75 32t-31 77q0 43 30.5 73.5t73.5 30.5q44 0 75.5 -30.5t31.5 -73.5zM881 1272q0 -45 -30.5 -77t-74.5 -32t-75 32t-31 77q0 43 30.5 73.5t73.5 30.5q44 0 75.5 -30.5t31.5 -73.5z" />
    <glyph glyph-name="yacute" unicode="&#xfd;" horiz-adv-x="940" 
d="M909 1020l-350 -1057q-55 -167 -129.5 -260t-200.5 -123l-47 109q99 31 147 94.5t89 218.5l-66 -10q-9 50 -42.5 170t-59.5 196l-219 639l157 54l209 -662q33 -107 62 -254h4q10 36 31.5 107.5t31.5 107.5l201 670h182zM848 1356l-459 -205l-53 96l424 266z" />
    <glyph glyph-name="thorn" unicode="&#xfe;" horiz-adv-x="1161" 
d="M1028 512q0 -116 -22 -194t-68 -154q-116 -187 -315 -187q-161 0 -273 115v-487l-160 -31v1675q0 126 -26 217l160 31q26 -114 26 -233v-205q0 -47 -4 -97.5t-4 -62.5q121 141 301 141q79 0 151 -33t121 -94q113 -140 113 -401zM858 492q0 193 -47 292q-25 52 -75.5 82.5
t-112.5 30.5q-161 0 -273 -135v-522q114 -129 242 -129q70 0 129.5 35t85.5 92q51 109 51 254z" />
    <glyph glyph-name="ydieresis" unicode="&#xff;" horiz-adv-x="940" 
d="M909 1020l-350 -1057q-55 -167 -129.5 -260t-200.5 -123l-47 109q99 31 147 94.5t89 218.5l-66 -10q-9 50 -42.5 170t-59.5 196l-219 639l157 54l209 -662q33 -107 62 -254h4q10 36 31.5 107.5t31.5 107.5l201 670h182zM365 1272q0 -45 -30.5 -77t-74.5 -32t-75 32
t-31 77q0 43 30.5 73.5t73.5 30.5q44 0 75.5 -30.5t31.5 -73.5zM788 1272q0 -45 -30 -77t-74 -32t-75 32t-31 77q0 43 30.5 73.5t73.5 30.5q44 0 75 -30.5t31 -73.5z" />
    <glyph glyph-name="Amacron" unicode="&#x100;" horiz-adv-x="1193" 
d="M1174 0h-191l-133 432h-524l-136 -432h-170l469 1405h220zM807 569l-215 688l-221 -688h436zM870 1538h-561v111h561v-111z" />
    <glyph glyph-name="amacron" unicode="&#x101;" horiz-adv-x="1083" 
d="M967 76l-82 -115q-53 17 -90 56.5t-50 93.5q-75 -75 -141 -106.5t-153 -31.5q-90 0 -156.5 25.5t-102.5 69t-52.5 92.5t-16.5 104q0 173 142.5 270t398.5 97q38 0 71 -2v71q0 71 -6 103.5t-27 56.5q-49 55 -137 55q-83 0 -178 -36.5t-147 -83.5l-80 114q207 138 428 138
q216 0 282 -160q27 -63 23 -225l-8 -336q-3 -127 11.5 -173.5t70.5 -76.5zM731 518q-40 4 -80 4q-187 0 -268.5 -60.5t-81.5 -182.5q0 -91 44.5 -139t131.5 -48q78 0 145.5 44t102.5 116zM838 1212h-562v111h562v-111z" />
    <glyph glyph-name="Abreve" unicode="&#x102;" horiz-adv-x="1193" 
d="M1174 0h-191l-133 432h-524l-136 -432h-170l469 1405h220zM807 569l-215 688l-221 -688h436zM938 1702q-14 -18 -43 -47t-75 -68t-104.5 -65.5t-111.5 -26.5t-112 26.5t-106.5 66t-75 67t-44.5 47.5l72 78q43 -38 117.5 -76.5t154.5 -38.5q48 0 110.5 26t95.5 47t61 42z
" />
    <glyph glyph-name="abreve" unicode="&#x103;" horiz-adv-x="1083" 
d="M967 76l-82 -115q-53 17 -90 56.5t-50 93.5q-75 -75 -141 -106.5t-153 -31.5q-90 0 -156.5 25.5t-102.5 69t-52.5 92.5t-16.5 104q0 173 142.5 270t398.5 97q38 0 71 -2v71q0 71 -6 103.5t-27 56.5q-49 55 -137 55q-83 0 -178 -36.5t-147 -83.5l-80 114q207 138 428 138
q216 0 282 -160q27 -63 23 -225l-8 -336q-3 -127 11.5 -173.5t70.5 -76.5zM731 518q-40 4 -80 4q-187 0 -268.5 -60.5t-81.5 -182.5q0 -91 44.5 -139t131.5 -48q78 0 145.5 44t102.5 116zM891 1370q-13 -18 -42.5 -46.5t-75.5 -65.5t-104.5 -63t-111.5 -26t-112 25.5
t-105.5 63.5t-74.5 65.5t-44 46.5l70 80q43 -38 118.5 -76.5t155.5 -38.5q109 0 264 115z" />
    <glyph glyph-name="Aogonek" unicode="&#x104;" horiz-adv-x="1193" 
d="M1235 -354q-87 -49 -168 -49q-94 0 -147.5 51.5t-53.5 126.5q0 61 31.5 115t85.5 112l-133 430h-524l-136 -432h-170l469 1405h220l465 -1405q-47 0 -114 -70t-67 -143q0 -31 19.5 -52.5t54.5 -21.5q64 0 125 29zM807 569l-215 688l-221 -688h436z" />
    <glyph glyph-name="aogonek" unicode="&#x105;" horiz-adv-x="1083" 
d="M997 -354q-87 -49 -168 -49q-94 0 -147 51.5t-53 126.5q0 51 25.5 102.5t51 81t72.5 76.5q-20 29 -33 76q-75 -75 -141 -106.5t-153 -31.5q-90 0 -156.5 25.5t-102.5 69t-52.5 92.5t-16.5 104q0 173 142.5 270t398.5 97q17 0 33.5 -0.5t26 -1t11.5 -0.5v71q0 71 -6 103.5
t-27 56.5q-49 55 -137 55q-83 0 -178 -36.5t-147 -83.5l-80 114q207 138 428 138q216 0 282 -160q27 -63 23 -225l-8 -336q-3 -119 12 -169t57 -91q-46 -41 -76.5 -71t-61 -67t-45.5 -72t-15 -69q0 -31 19 -52.5t54 -21.5q64 0 125 29zM731 518q-43 4 -80 4
q-187 0 -268.5 -60.5t-81.5 -182.5q0 -91 44.5 -139t131.5 -48q78 0 145.5 44t102.5 116z" />
    <glyph glyph-name="Cacute" unicode="&#x106;" horiz-adv-x="1173" 
d="M1102 92q-176 -115 -391 -115q-116 0 -222.5 48t-187.5 139q-168 191 -168 534q0 206 76 372t211 259.5t303 93.5q206 0 354 -114l-90 -109q-121 88 -266 88q-242 0 -346 -241q-60 -138 -60 -373q0 -185 45 -297q52 -128 152.5 -195t224.5 -67q146 0 275 90zM1034 1690
l-459 -205l-53 96l424 266z" />
    <glyph glyph-name="cacute" unicode="&#x107;" horiz-adv-x="960" 
d="M868 113q-71 -72 -143.5 -104t-167.5 -32q-217 0 -326 154q-98 141 -98 363q0 156 40.5 258.5t113.5 175.5q119 119 276 119q88 0 150.5 -28.5t128.5 -82.5l-88 -111q-56 46 -97 64t-98 18q-60 0 -112 -31t-80 -83q-58 -107 -58 -334q0 -172 64.5 -263.5t187.5 -91.5
q128 0 219 111zM846 1362l-459 -205l-53 96l424 267z" />
    <glyph glyph-name="Ccircumflex" unicode="&#x108;" horiz-adv-x="1173" 
d="M1102 92q-176 -115 -391 -115q-116 0 -222.5 48t-187.5 139q-168 191 -168 534q0 206 76 372t211 259.5t303 93.5q206 0 354 -114l-90 -109q-121 88 -266 88q-242 0 -346 -241q-60 -138 -60 -373q0 -185 45 -297q52 -128 152.5 -195t224.5 -67q146 0 275 90zM1063 1567
l-74 -90l-284 174l-277 -174l-63 90l348 276z" />
    <glyph glyph-name="ccircumflex" unicode="&#x109;" horiz-adv-x="960" 
d="M868 113q-71 -72 -143.5 -104t-167.5 -32q-217 0 -326 154q-98 141 -98 363q0 156 40.5 258.5t113.5 175.5q119 119 276 119q88 0 150.5 -28.5t128.5 -82.5l-88 -111q-56 46 -97 64t-98 18q-60 0 -112 -31t-80 -83q-58 -107 -58 -334q0 -172 64.5 -263.5t187.5 -91.5
q128 0 219 111zM920 1239l-74 -90l-285 174l-276 -174l-64 90l348 277z" />
    <glyph glyph-name="Cdotaccent" unicode="&#x10a;" horiz-adv-x="1173" 
d="M1102 92q-176 -115 -391 -115q-116 0 -222.5 48t-187.5 139q-168 191 -168 534q0 206 76 372t211 259.5t303 93.5q206 0 354 -114l-90 -109q-121 88 -266 88q-242 0 -346 -241q-60 -138 -60 -373q0 -185 45 -297q52 -128 152.5 -195t224.5 -67q146 0 275 90zM836 1616
q0 -52 -36 -88.5t-89 -36.5q-52 0 -88.5 36t-36.5 87q0 53 36.5 90t88.5 37q53 0 89 -36.5t36 -88.5z" />
    <glyph glyph-name="cdotaccent" unicode="&#x10b;" horiz-adv-x="960" 
d="M868 113q-71 -72 -143.5 -104t-167.5 -32q-217 0 -326 154q-98 141 -98 363q0 156 40.5 258.5t113.5 175.5q119 119 276 119q88 0 150.5 -28.5t128.5 -82.5l-88 -111q-56 46 -97 64t-98 18q-60 0 -112 -31t-80 -83q-58 -107 -58 -334q0 -172 64.5 -263.5t187.5 -91.5
q128 0 219 111zM688 1335q0 -53 -36 -89t-89 -36q-52 0 -88.5 36t-36.5 87q0 53 36.5 90t88.5 37q53 0 89 -36t36 -89z" />
    <glyph glyph-name="Ccaron" unicode="&#x10c;" horiz-adv-x="1173" 
d="M1102 92q-176 -115 -391 -115q-116 0 -222.5 48t-187.5 139q-168 191 -168 534q0 206 76 372t211 259.5t303 93.5q206 0 354 -114l-90 -109q-121 88 -266 88q-242 0 -346 -241q-60 -138 -60 -373q0 -185 45 -297q52 -128 152.5 -195t224.5 -67q146 0 275 90zM1059 1761
l-348 -276l-351 276l74 90l285 -174l276 174z" />
    <glyph glyph-name="ccaron" unicode="&#x10d;" horiz-adv-x="960" 
d="M868 113q-71 -72 -143.5 -104t-167.5 -32q-217 0 -326 154q-98 141 -98 363q0 156 40.5 258.5t113.5 175.5q119 119 276 119q88 0 150.5 -28.5t128.5 -82.5l-88 -111q-56 46 -97 64t-98 18q-60 0 -112 -31t-80 -83q-58 -107 -58 -334q0 -172 64.5 -263.5t187.5 -91.5
q128 0 219 111zM913 1434l-348 -277l-350 277l74 90l284 -174l277 174z" />
    <glyph glyph-name="Dcaron" unicode="&#x10e;" horiz-adv-x="1296" 
d="M1163 700q0 -348 -159 -524q-90 -100 -190 -138t-253 -38h-366v1405h280q173 0 263.5 -19.5t187.5 -89.5q237 -170 237 -596zM981 680q0 165 -26.5 271t-94.5 188q-65 77 -138 103t-192 26h-168v-1129h168q130 0 217.5 29.5t139.5 118.5q94 163 94 393zM946 1761
l-348 -276l-350 276l74 90l284 -174l277 174z" />
    <glyph glyph-name="dcaron" unicode="&#x10f;" horiz-adv-x="1159" 
d="M1006 0h-164q-21 52 -23 104q-56 -63 -118.5 -90.5t-151.5 -27.5q-198 0 -307 135.5t-109 380.5q0 327 211 473q92 63 197 63q86 0 158 -33.5t118 -95.5q0 2 -1 60.5t-1 97.5v428l160 -27v-1138q0 -250 31 -330zM813 260v541q-75 106 -248 106q-125 0 -190 -106
q-37 -59 -51.5 -123.5t-14.5 -171.5q0 -193 41 -266q35 -62 84.5 -90.5t120.5 -28.5q62 0 104 14.5t93 50.5q42 29 61 74zM1335 1329q0 -89 -63 -170q-49 -64 -139 -115l-48 72q101 47 113 150q-12 -2 -20 -2q-38 0 -64.5 31.5t-26.5 74.5q0 51 34 86t83 35q58 0 94.5 -45.5
t36.5 -116.5z" />
    <glyph glyph-name="Dcroat" unicode="&#x110;" horiz-adv-x="1296" 
d="M1163 700q0 -348 -159 -524q-90 -100 -190 -138t-253 -38h-366v657h-172v121h172v627h280q173 0 263.5 -19.5t187.5 -89.5q237 -170 237 -596zM981 680q0 165 -26.5 271t-94.5 188q-65 77 -138 103t-192 26h-168v-490h326l-18 -121h-308v-518h168q130 0 217.5 29.5
t139.5 118.5q94 163 94 393z" />
    <glyph glyph-name="dcroat" unicode="&#x111;" horiz-adv-x="1169" 
d="M1157 1167h-182v-837q0 -250 31 -330h-164q-21 52 -23 104q-56 -63 -118.5 -90.5t-151.5 -27.5q-198 0 -307 135.5t-109 380.5q0 327 211 473q92 63 197 63q86 0 158 -33.5t118 -95.5q0 2 -1 60.5t-1 97.5v100h-219v111h219v217l160 -27v-190h182v-111zM813 260v541
q-75 106 -248 106q-125 0 -190 -106q-37 -59 -51.5 -123.5t-14.5 -171.5q0 -193 41 -266q35 -62 84.5 -90.5t120.5 -28.5q62 0 104 14.5t93 50.5q23 16 39.5 39t21.5 35z" />
    <glyph glyph-name="Emacron" unicode="&#x112;" horiz-adv-x="1064" 
d="M983 0h-788v1405h768l-23 -139h-575v-461h481v-146h-481v-514h618v-145zM862 1538h-561v111h561v-111z" />
    <glyph glyph-name="emacron" unicode="&#x113;" horiz-adv-x="1067" 
d="M954 483h-637v-24q0 -150 48 -223q81 -125 253 -125q145 0 250 96l62 -103q-139 -127 -344 -127q-212 0 -332.5 144.5t-120.5 398.5q0 128 29 218t94 167q121 142 305 142q169 0 277 -111q67 -68 91.5 -158.5t24.5 -271.5v-23zM784 604q-3 157 -47 227q-26 41 -76 66
t-108 25q-109 0 -169.5 -80.5t-66.5 -237.5h467zM838 1212h-562v111h562v-111z" />
    <glyph glyph-name="Ebreve" unicode="&#x114;" horiz-adv-x="1064" 
d="M983 0h-788v1405h768l-23 -139h-575v-461h481v-146h-481v-514h618v-145zM928 1704q-14 -18 -43 -47t-75 -68t-104.5 -65.5t-111.5 -26.5t-112 26.5t-106.5 66t-75 67t-44.5 47.5l72 78q43 -38 117.5 -76.5t154.5 -38.5q111 0 266 115z" />
    <glyph glyph-name="ebreve" unicode="&#x115;" horiz-adv-x="1067" 
d="M954 483h-637v-24q0 -150 48 -223q81 -125 253 -125q145 0 250 96l62 -103q-139 -127 -344 -127q-212 0 -332.5 144.5t-120.5 398.5q0 128 29 218t94 167q121 142 305 142q169 0 277 -111q67 -68 91.5 -158.5t24.5 -271.5v-23zM784 604q-3 157 -47 227q-26 41 -76 66
t-108 25q-109 0 -169.5 -80.5t-66.5 -237.5h467zM905 1380q-13 -17 -42.5 -46t-75.5 -65.5t-104.5 -62.5t-111.5 -26t-111.5 25.5t-105 63.5t-74.5 65t-44 46l69 80q42 -37 118.5 -75.5t156.5 -38.5q110 0 264 114z" />
    <glyph glyph-name="Edotaccent" unicode="&#x116;" horiz-adv-x="1064" 
d="M983 0h-788v1405h768l-23 -139h-575v-461h481v-146h-481v-514h618v-145zM709 1616q0 -52 -36.5 -88.5t-88.5 -36.5t-88.5 36t-36.5 87q0 53 36.5 90t88.5 37t88.5 -36.5t36.5 -88.5z" />
    <glyph glyph-name="edotaccent" unicode="&#x117;" horiz-adv-x="1067" 
d="M954 483h-637v-24q0 -150 48 -223q81 -125 253 -125q145 0 250 96l62 -103q-139 -127 -344 -127q-212 0 -332.5 144.5t-120.5 398.5q0 128 29 218t94 167q121 142 305 142q169 0 277 -111q67 -68 91.5 -158.5t24.5 -271.5v-23zM784 604q-3 157 -47 227q-26 41 -76 66
t-108 25q-109 0 -169.5 -80.5t-66.5 -237.5h467zM678 1335q0 -53 -36 -89t-89 -36q-52 0 -88.5 36t-36.5 87q0 53 36.5 90t88.5 37q53 0 89 -36t36 -89z" />
    <glyph glyph-name="Eogonek" unicode="&#x118;" horiz-adv-x="1064" 
d="M1044 -354q-87 -49 -167 -49q-94 0 -147.5 51.5t-53.5 126.5q0 61 30.5 114.5t84.5 110.5h-596v1405h768l-23 -139h-575v-461h481v-146h-481v-514h618v-145q-47 0 -113.5 -70t-66.5 -143q0 -31 19.5 -52.5t54.5 -21.5q63 0 124 29z" />
    <glyph glyph-name="eogonek" unicode="&#x119;" horiz-adv-x="1067" 
d="M954 483h-637v-24q0 -150 48 -223q81 -125 253 -125q145 0 250 96l62 -103q-47 -38 -79.5 -67t-76 -74t-67 -90t-23.5 -86q0 -31 19.5 -52.5t54.5 -21.5q64 0 125 29l43 -96q-87 -49 -168 -49q-94 0 -147.5 51.5t-53.5 126.5q0 102 98 207q-57 -5 -69 -5
q-212 0 -332.5 144.5t-120.5 398.5q0 128 29 218t94 167q121 142 305 142q169 0 277 -111q67 -68 91.5 -158.5t24.5 -271.5v-23zM784 604q-3 157 -47 227q-26 41 -76 66t-108 25q-109 0 -169.5 -80.5t-66.5 -237.5h467z" />
    <glyph glyph-name="Ecaron" unicode="&#x11a;" horiz-adv-x="1064" 
d="M983 0h-788v1405h768l-23 -139h-575v-461h481v-146h-481v-514h618v-145zM934 1761l-348 -276l-350 276l73 90l285 -174l276 174z" />
    <glyph glyph-name="ecaron" unicode="&#x11b;" horiz-adv-x="1067" 
d="M954 483h-637v-24q0 -150 48 -223q81 -125 253 -125q145 0 250 96l62 -103q-139 -127 -344 -127q-212 0 -332.5 144.5t-120.5 398.5q0 128 29 218t94 167q121 142 305 142q169 0 277 -111q67 -68 91.5 -158.5t24.5 -271.5v-23zM784 604q-3 157 -47 227q-26 41 -76 66
t-108 25q-109 0 -169.5 -80.5t-66.5 -237.5h467zM913 1434l-348 -277l-350 277l74 90l284 -174l277 174z" />
    <glyph glyph-name="Gcircumflex" unicode="&#x11c;" horiz-adv-x="1310" 
d="M1137 84q-75 -49 -182 -78t-214 -29q-269 0 -432 177q-174 189 -174 544q0 394 217 590q148 133 367 133q225 0 385 -139l-76 -104q-87 59 -155.5 83.5t-149.5 24.5q-126 0 -217 -59t-133 -178q-56 -157 -56 -357q0 -281 99 -426q46 -67 142 -108t198 -41q135 0 223 55
v428h-283l-32 139h473v-655zM1071 1567l-74 -90l-284 174l-277 -174l-63 90l348 276z" />
    <glyph glyph-name="gcircumflex" unicode="&#x11d;" horiz-adv-x="1052" 
d="M1053 930q-87 -62 -172 -62q-41 0 -70 13q61 -76 61 -174q0 -86 -40.5 -161.5t-110.5 -119.5q-70 -45 -191 -45q-100 -36 -142 -64t-42 -55q0 -23 22 -36t60 -13h164q90 0 145.5 -12.5t100.5 -44.5q112 -77 112 -215q0 -161 -106.5 -241.5t-298.5 -80.5q-227 0 -335 71.5
t-108 188.5q0 47 21 109l168 14q-29 -48 -29 -92q0 -82 60 -119q79 -47 206 -47q248 0 248 178q0 86 -55 123q-53 37 -201 37q-22 0 -82 -1t-76 -1q-91 0 -141.5 39t-50.5 108q0 63 41 102.5t143 71.5q-103 32 -166 113t-63 182q0 153 104.5 248.5t272.5 95.5
q82 0 167 -28.5t144 -28.5q74 0 141 45zM686 705q0 106 -44 155t-144 49q-193 0 -193 -211q0 -98 50 -150t147 -52q184 0 184 209zM860 1239l-74 -90l-284 174l-277 -174l-63 90l348 277z" />
    <glyph glyph-name="Gbreve" unicode="&#x11e;" horiz-adv-x="1310" 
d="M1137 84q-75 -49 -182 -78t-214 -29q-269 0 -432 177q-174 189 -174 544q0 394 217 590q148 133 367 133q225 0 385 -139l-76 -104q-87 59 -155.5 83.5t-149.5 24.5q-126 0 -217 -59t-133 -178q-56 -157 -56 -357q0 -281 99 -426q46 -67 142 -108t198 -41q135 0 223 55
v428h-283l-32 139h473v-655zM1053 1704q-14 -18 -43 -47t-75 -68t-104.5 -65.5t-111.5 -26.5t-112 26.5t-106.5 66t-75 67t-44.5 47.5l72 78q43 -38 117.5 -76.5t154.5 -38.5q111 0 266 115z" />
    <glyph glyph-name="gbreve" unicode="&#x11f;" horiz-adv-x="1052" 
d="M1053 930q-87 -62 -172 -62q-41 0 -70 13q61 -76 61 -174q0 -86 -40.5 -161.5t-110.5 -119.5q-70 -45 -191 -45q-100 -36 -142 -64t-42 -55q0 -23 22 -36t60 -13h164q90 0 145.5 -12.5t100.5 -44.5q112 -77 112 -215q0 -161 -106.5 -241.5t-298.5 -80.5q-227 0 -335 71.5
t-108 188.5q0 47 21 109l168 14q-29 -48 -29 -92q0 -82 60 -119q79 -47 206 -47q248 0 248 178q0 86 -55 123q-53 37 -201 37q-22 0 -82 -1t-76 -1q-91 0 -141.5 39t-50.5 108q0 63 41 102.5t143 71.5q-103 32 -166 113t-63 182q0 153 104.5 248.5t272.5 95.5
q82 0 167 -28.5t144 -28.5q74 0 141 45zM686 705q0 106 -44 155t-144 49q-193 0 -193 -211q0 -98 50 -150t147 -52q184 0 184 209zM854 1368q-13 -18 -42.5 -46.5t-75.5 -65.5t-104.5 -63t-111.5 -26t-112 25.5t-105.5 63.5t-74.5 65.5t-44 46.5l70 80q43 -38 118.5 -76.5
t155.5 -38.5q110 0 265 115z" />
    <glyph glyph-name="Gdotaccent" unicode="&#x120;" horiz-adv-x="1310" 
d="M1137 84q-75 -49 -182 -78t-214 -29q-269 0 -432 177q-174 189 -174 544q0 394 217 590q148 133 367 133q225 0 385 -139l-76 -104q-87 59 -155.5 83.5t-149.5 24.5q-126 0 -217 -59t-133 -178q-56 -157 -56 -357q0 -281 99 -426q46 -67 142 -108t198 -41q135 0 223 55
v428h-283l-32 139h473v-655zM844 1616q0 -52 -36 -88.5t-89 -36.5q-52 0 -88.5 36t-36.5 87q0 53 36.5 90t88.5 37q53 0 89 -36.5t36 -88.5z" />
    <glyph glyph-name="gdotaccent" unicode="&#x121;" horiz-adv-x="1052" 
d="M1053 930q-87 -62 -172 -62q-41 0 -70 13q61 -76 61 -174q0 -86 -40.5 -161.5t-110.5 -119.5q-70 -45 -191 -45q-100 -36 -142 -64t-42 -55q0 -23 22 -36t60 -13h164q90 0 145.5 -12.5t100.5 -44.5q112 -77 112 -215q0 -161 -106.5 -241.5t-298.5 -80.5q-227 0 -335 71.5
t-108 188.5q0 47 21 109l168 14q-29 -48 -29 -92q0 -82 60 -119q79 -47 206 -47q248 0 248 178q0 86 -55 123q-53 37 -201 37q-22 0 -82 -1t-76 -1q-91 0 -141.5 39t-50.5 108q0 63 41 102.5t143 71.5q-103 32 -166 113t-63 182q0 153 104.5 248.5t272.5 95.5
q82 0 167 -28.5t144 -28.5q74 0 141 45zM686 705q0 106 -44 155t-144 49q-193 0 -193 -211q0 -98 50 -150t147 -52q184 0 184 209zM627 1335q0 -53 -36.5 -89t-88.5 -36t-88.5 36t-36.5 87q0 53 36.5 90t88.5 37t88.5 -36t36.5 -89z" />
    <glyph glyph-name="uni0122" unicode="&#x122;" horiz-adv-x="1310" 
d="M1137 84q-75 -49 -182 -78t-214 -29q-269 0 -432 177q-174 189 -174 544q0 394 217 590q148 133 367 133q225 0 385 -139l-76 -104q-87 59 -155.5 83.5t-149.5 24.5q-126 0 -217 -59t-133 -178q-56 -157 -56 -357q0 -281 99 -426q46 -67 142 -108t198 -41q135 0 223 55
v428h-283l-32 139h473v-655zM821 -283q0 -89 -63 -170q-47 -61 -140 -114l-47 71q101 47 113 150q-8 -2 -20 -2q-38 0 -64.5 31.5t-26.5 74.5q0 51 34 86t83 35q58 0 94.5 -45.5t36.5 -116.5z" />
    <glyph glyph-name="uni0123" unicode="&#x123;" horiz-adv-x="1052" 
d="M1053 930q-87 -62 -172 -62q-41 0 -70 13q61 -76 61 -174q0 -86 -40.5 -161.5t-110.5 -119.5q-70 -45 -191 -45q-100 -36 -142 -64t-42 -55q0 -23 22 -36t60 -13h164q90 0 145.5 -12.5t100.5 -44.5q112 -77 112 -215q0 -161 -106.5 -241.5t-298.5 -80.5q-227 0 -335 71.5
t-108 188.5q0 47 21 109l168 14q-29 -48 -29 -92q0 -82 60 -119q79 -47 206 -47q248 0 248 178q0 86 -55 123q-53 37 -201 37q-22 0 -82 -1t-76 -1q-91 0 -141.5 39t-50.5 108q0 63 41 102.5t143 71.5q-103 32 -166 113t-63 182q0 153 104.5 248.5t272.5 95.5
q82 0 167 -28.5t144 -28.5q74 0 141 45zM686 705q0 106 -44 155t-144 49q-193 0 -193 -211q0 -98 50 -150t147 -52q184 0 184 209zM383 1327q0 89 63 170q48 63 140 115l47 -72q-101 -47 -113 -149q10 2 21 2q38 0 64 -32t26 -75q0 -51 -34 -86t-83 -35q-58 0 -94.5 45.5
t-36.5 116.5z" />
    <glyph glyph-name="Hcircumflex" unicode="&#x124;" horiz-adv-x="1312" 
d="M1118 0h-168v680h-592v-680h-163v1405h163v-588h592v588h168v-1405zM1014 1567l-74 -90l-285 174l-276 -174l-64 90l349 276z" />
    <glyph glyph-name="hcircumflex" unicode="&#x125;" horiz-adv-x="1161" 
d="M967 0h-158v705q0 112 -39 151q-41 41 -119 41q-74 0 -152.5 -45.5t-144.5 -126.5v-725h-159v1257q0 54 -6 103t-11.5 72.5t-9.5 33.5l160 31q4 -11 9.5 -38t11 -84t5.5 -120v-237q0 -97 -6 -139q172 161 340 161q92 0 166 -45.5t96 -115.5q17 -58 17 -148v-731z
M623 1593l-74 -90l-285 174l-276 -174l-64 90l348 277z" />
    <glyph glyph-name="Hbar" unicode="&#x126;" horiz-adv-x="1312" 
d="M1118 0h-168v680h-592v-680h-163v1034h-185v135h185v236h163v-236h592v236h168v-236h185v-135h-185v-1034zM358 817h592v217h-592v-217z" />
    <glyph glyph-name="hbar" unicode="&#x127;" horiz-adv-x="1161" 
d="M967 0h-158v705q0 112 -39 151q-41 41 -119 41q-74 0 -152.5 -45.5t-144.5 -126.5v-725h-159v1171h-134v107h134q-1 69 -10.5 120t-16.5 68l160 31q23 -63 26 -219h394v-107h-394v-153q0 -97 -6 -139q172 161 340 161q92 0 166 -45.5t96 -115.5q17 -58 17 -148v-731z" />
    <glyph glyph-name="Itilde" unicode="&#x128;" horiz-adv-x="552" 
d="M358 0h-163v1405h163v-1405zM639 1694q-55 -68 -108.5 -98.5t-139.5 -30.5q-63 0 -132 37.5t-128 37.5q-31 0 -57.5 -12t-41 -25t-42.5 -42l-58 92q56 69 108.5 99t137.5 30q63 0 132 -38t128 -38q45 0 74.5 19t69.5 61z" />
    <glyph glyph-name="itilde" unicode="&#x129;" horiz-adv-x="555" 
d="M360 0h-165v1016l165 26v-1042zM635 1354q-55 -68 -108.5 -98.5t-139.5 -30.5q-63 0 -132 37.5t-128 37.5q-31 0 -57.5 -12t-41 -25t-42.5 -42l-58 92q56 69 108.5 99t137.5 30q63 0 132 -38t128 -38q45 0 74.5 19t69.5 61z" />
    <glyph glyph-name="Imacron" unicode="&#x12a;" horiz-adv-x="552" 
d="M358 0h-163v1405h163v-1405zM555 1538h-561v111h561v-111z" />
    <glyph glyph-name="imacron" unicode="&#x12b;" horiz-adv-x="555" 
d="M360 0h-165v1016l165 26v-1042zM549 1212h-543v121h543v-121z" />
    <glyph glyph-name="Ibreve" unicode="&#x12c;" horiz-adv-x="552" 
d="M358 0h-163v1405h163v-1405zM621 1704q-14 -18 -43 -47t-75 -68t-104.5 -65.5t-111.5 -26.5t-112 26.5t-106.5 66t-75 67t-44.5 47.5l71 78q43 -38 118 -76.5t155 -38.5q111 0 266 115z" />
    <glyph glyph-name="ibreve" unicode="&#x12d;" horiz-adv-x="555" 
d="M360 0h-165v1016l165 26v-1042zM616 1380q-13 -18 -42.5 -46t-75 -65.5t-104 -63t-111.5 -25.5t-112 25.5t-105.5 63.5t-74.5 65t-44 46l69 80q42 -37 118.5 -75.5t156.5 -38.5q110 0 264 114z" />
    <glyph glyph-name="Iogonek" unicode="&#x12e;" horiz-adv-x="552" 
d="M446 -354q-87 -49 -167 -49q-94 0 -147.5 51.5t-53.5 126.5q0 62 31 115t86 112v1403h163v-1405q-34 -8 -93.5 -77.5t-59.5 -135.5q0 -31 19.5 -52.5t54.5 -21.5q63 0 124 29z" />
    <glyph glyph-name="iogonek" unicode="&#x12f;" horiz-adv-x="555" 
d="M446 -354q-87 -49 -167 -49q-94 0 -147.5 51.5t-53.5 126.5q0 62 31 115t86 112v1014l165 26v-1042q-36 -9 -95.5 -76t-59.5 -137q0 -31 19.5 -52.5t54.5 -21.5q63 0 124 29zM406 1335q0 -53 -36 -89t-89 -36q-52 0 -88.5 36t-36.5 87q0 53 36.5 90t88.5 37q53 0 89 -36
t36 -89z" />
    <glyph glyph-name="Idotaccent" unicode="&#x130;" horiz-adv-x="552" 
d="M358 0h-163v1405h163v-1405zM401 1616q0 -52 -36.5 -88.5t-88.5 -36.5t-88 36t-36 87q0 53 36 90t88 37t88.5 -36.5t36.5 -88.5z" />
    <glyph glyph-name="dotlessi" unicode="&#x131;" horiz-adv-x="555" 
d="M360 0h-165v1016l165 26v-1042z" />
    <glyph glyph-name="Jcircumflex" unicode="&#x134;" horiz-adv-x="571" 
d="M377 240q0 -137 -10 -201.5t-41 -120.5q-69 -123 -238 -180l-82 104q55 23 99.5 60t68.5 78q20 35 27.5 91t7.5 165v1169h168v-1165zM639 1567l-74 -90l-284 174l-277 -174l-63 90l348 276z" />
    <glyph glyph-name="jcircumflex" unicode="&#x135;" horiz-adv-x="552" 
d="M631 1239l-74 -90l-285 174l-276 -174l-64 90l349 277zM358 180q0 -132 -18 -190q-48 -152 -244 -217l-80 96q47 19 86 51t60 66q33 51 33 196v908h163v-910z" />
    <glyph glyph-name="uni0136" unicode="&#x136;" horiz-adv-x="1138" 
d="M1128 1405l-565 -660l561 -745h-215l-536 743l540 662h215zM365 0h-170v1405h170v-1405zM719 -283q0 -87 -64 -170q-48 -62 -139 -114l-47 71q101 47 113 150q-8 -2 -21 -2q-38 0 -64 31.5t-26 74.5q0 51 34 86t83 35q58 0 94.5 -45.5t36.5 -116.5z" />
    <glyph glyph-name="uni0137" unicode="&#x137;" horiz-adv-x="1052" 
d="M354 0h-159v1257q0 54 -6 103t-11.5 72.5t-9.5 33.5l160 31q4 -11 9.5 -38t11 -84t5.5 -120v-1255zM1042 0h-213l-469 578l390 442h200l-401 -442zM688 -283q0 -89 -63 -170q-47 -61 -140 -114l-47 71q101 47 113 150q-8 -2 -21 -2q-38 0 -64 31.5t-26 74.5q0 51 34 86
t83 35q58 0 94.5 -45.5t36.5 -116.5z" />
    <glyph glyph-name="kgreenlandic" unicode="&#x138;" horiz-adv-x="1052" 
d="M354 0h-159v811q0 54 -6 103t-11.5 72.5t-9.5 33.5l160 31q4 -11 9.5 -38t11 -84t5.5 -120v-809zM1042 0h-213l-469 578l390 442h200l-401 -442z" />
    <glyph glyph-name="Lacute" unicode="&#x139;" horiz-adv-x="948" 
d="M918 141l-23 -141h-700v1405h167v-1264h556zM651 1690l-458 -205l-54 96l424 266z" />
    <glyph glyph-name="lacute" unicode="&#x13a;" horiz-adv-x="550" 
d="M467 2q-50 -22 -102 -22q-75 0 -121 43q-49 43 -49 145v1081q0 121 -25 209l160 31q4 -11 9.5 -38t11 -84t5.5 -120v-1042q0 -60 12 -81.5t46 -21.5q4 0 20 4zM596 1743l-459 -205l-53 96l424 267z" />
    <glyph glyph-name="uni013B" unicode="&#x13b;" horiz-adv-x="948" 
d="M918 141l-23 -141h-700v1405h167v-1264h556zM670 -283q0 -87 -64 -170q-48 -62 -139 -114l-47 71q99 47 112 150q-8 -2 -20 -2q-38 0 -64 31.5t-26 74.5q0 51 34 86t83 35q58 0 94.5 -45.5t36.5 -116.5z" />
    <glyph glyph-name="uni013C" unicode="&#x13c;" horiz-adv-x="550" 
d="M467 2q-50 -22 -102 -22q-75 0 -121 43q-49 43 -49 145v1081q0 121 -25 209l160 31q4 -11 9.5 -38t11 -84t5.5 -120v-1042q0 -60 12 -81.5t46 -21.5q4 0 20 4zM459 -283q0 -87 -64 -170q-48 -62 -139 -114l-47 71q101 47 113 150q-8 -2 -21 -2q-38 0 -64 31.5t-26 74.5
q0 51 34 86t83 35q58 0 94.5 -45.5t36.5 -116.5z" />
    <glyph glyph-name="Lcaron" unicode="&#x13d;" horiz-adv-x="948" 
d="M918 141l-23 -141h-700v1405h167v-1264h556zM829 1243q0 -89 -63 -170q-49 -64 -139 -115l-47 72q99 47 112 150q-12 -2 -20 -2q-38 0 -64 31.5t-26 74.5q0 51 33.5 86t82.5 35q58 0 94.5 -45.5t36.5 -116.5z" />
    <glyph glyph-name="lcaron" unicode="&#x13e;" horiz-adv-x="550" 
d="M467 2q-50 -22 -102 -22q-75 0 -121 43q-49 43 -49 145v1081q0 121 -25 209l160 31q4 -11 9.5 -38t11 -84t5.5 -120v-1042q0 -60 12 -81.5t46 -21.5q4 0 20 4zM717 1329q0 -87 -64 -170q-49 -64 -139 -115l-47 72q101 47 113 150q-12 -2 -21 -2q-38 0 -64 31.5t-26 74.5
q0 51 34 86t83 35q58 0 94.5 -45.5t36.5 -116.5z" />
    <glyph glyph-name="Ldot" unicode="&#x13f;" horiz-adv-x="948" 
d="M918 141l-23 -141h-700v1405h167v-1264h556zM864 735q0 -53 -36 -89t-89 -36q-52 0 -88.5 36t-36.5 87q0 53 36.5 90t88.5 37q53 0 89 -36t36 -89z" />
    <glyph glyph-name="ldot" unicode="&#x140;" horiz-adv-x="673" 
d="M467 2q-50 -22 -102 -22q-75 0 -121 43q-49 43 -49 145v1081q0 121 -25 209l160 31q4 -11 9.5 -38t11 -84t5.5 -120v-1042q0 -60 12 -81.5t46 -21.5q4 0 20 4zM729 731q0 -53 -36.5 -89t-88.5 -36t-88.5 36t-36.5 87q0 53 36.5 90t88.5 37t88.5 -36t36.5 -89z" />
    <glyph glyph-name="Lslash" unicode="&#x141;" horiz-adv-x="948" 
d="M918 141l-23 -141h-700v631l-138 -45v147l138 45v627h167v-574l365 117v-147l-365 -117v-543h556z" />
    <glyph glyph-name="lslash" unicode="&#x142;" horiz-adv-x="550" 
d="M506 733l-150 -53v-475q0 -60 12 -81.5t46 -21.5q4 0 20 4l33 -104q-50 -22 -102 -22q-75 0 -121 43q-49 43 -49 145v459l-121 -41v147l121 41v475q0 121 -25 209l160 31q4 -11 9.5 -38t11 -84t5.5 -120v-420l150 54v-148z" />
    <glyph glyph-name="Nacute" unicode="&#x143;" horiz-adv-x="1323" 
d="M1128 0h-176l-450 860q-127 242 -160 338q15 -156 18 -383l9 -815h-174v1405h194l467 -897q20 -37 40 -79.5t35 -78.5t27 -64.5t20 -50t9 -22.5l-1 26q-2 26 -4.5 69.5t-5 95.5t-4.5 116.5t-3 120.5l-6 764h165v-1405zM936 1690l-459 -205l-53 96l424 266z" />
    <glyph glyph-name="nacute" unicode="&#x144;" horiz-adv-x="1138" 
d="M944 0h-162v690q0 80 -7.5 111.5t-29.5 58.5q-37 43 -112 43q-61 0 -144 -42t-139 -101v-760h-155v786q0 58 -8.5 109.5t-16.5 73t-14 32.5l155 43q10 -18 23.5 -64.5t13.5 -94.5q157 157 322 157q83 0 151 -40.5t99 -108.5q24 -56 24 -119v-774zM829 1362l-458 -205
l-54 96l424 267z" />
    <glyph glyph-name="uni0145" unicode="&#x145;" horiz-adv-x="1323" 
d="M1128 0h-176l-450 860q-127 242 -160 338q15 -156 18 -383l9 -815h-174v1405h194l467 -897q20 -37 40 -79.5t35 -78.5t27 -64.5t20 -50t9 -22.5l-1 26q-2 26 -4.5 69.5t-5 95.5t-4.5 116.5t-3 120.5l-6 764h165v-1405zM788 -283q0 -89 -63 -170q-48 -62 -139 -114l-47 71
q99 47 112 150q-8 -2 -20 -2q-38 0 -64 31.5t-26 74.5q0 51 33.5 86t82.5 35q58 0 94.5 -45.5t36.5 -116.5z" />
    <glyph glyph-name="uni0146" unicode="&#x146;" horiz-adv-x="1138" 
d="M944 0h-162v690q0 80 -7.5 111.5t-29.5 58.5q-37 43 -112 43q-61 0 -144 -42t-139 -101v-760h-155v786q0 58 -8.5 109.5t-16.5 73t-14 32.5l155 43q10 -18 23.5 -64.5t13.5 -94.5q157 157 322 157q83 0 151 -40.5t99 -108.5q24 -56 24 -119v-774zM698 -283
q0 -89 -63 -170q-48 -62 -139 -114l-47 71q99 47 112 150q-8 -2 -20 -2q-38 0 -64 31.5t-26 74.5q0 51 33.5 86t82.5 35q58 0 94.5 -45.5t36.5 -116.5z" />
    <glyph glyph-name="Ncaron" unicode="&#x147;" horiz-adv-x="1323" 
d="M1128 0h-176l-450 860q-127 242 -160 338q15 -156 18 -383l9 -815h-174v1405h194l467 -897q20 -37 40 -79.5t35 -78.5t27 -64.5t20 -50t9 -22.5l-1 26q-2 26 -4.5 69.5t-5 95.5t-4.5 116.5t-3 120.5l-6 764h165v-1405zM1010 1761l-348 -276l-351 276l74 90l285 -174
l276 174z" />
    <glyph glyph-name="ncaron" unicode="&#x148;" horiz-adv-x="1138" 
d="M944 0h-162v690q0 80 -7.5 111.5t-29.5 58.5q-37 43 -112 43q-61 0 -144 -42t-139 -101v-760h-155v786q0 58 -8.5 109.5t-16.5 73t-14 32.5l155 43q10 -18 23.5 -64.5t13.5 -94.5q157 157 322 157q83 0 151 -40.5t99 -108.5q24 -56 24 -119v-774zM909 1434l-348 -277
l-350 277l74 90l284 -174l277 174z" />
    <glyph glyph-name="napostrophe" unicode="&#x149;" horiz-adv-x="1138" 
d="M944 0h-162v690q0 80 -7.5 111.5t-29.5 58.5q-37 43 -112 43q-61 0 -144 -42t-139 -101v-760h-155v786q0 58 -8.5 109.5t-16.5 73t-14 32.5l155 43q10 -18 23.5 -64.5t13.5 -94.5q157 157 322 157q83 0 151 -40.5t99 -108.5q24 -56 24 -119v-774zM156 1305
q0 -87 -64 -170q-49 -64 -139 -115l-47 72q100 47 112 149q-12 -2 -20 -2q-38 0 -64 32t-26 75q0 51 33.5 85.5t83.5 34.5q58 0 94.5 -45t36.5 -116z" />
    <glyph glyph-name="Eng" unicode="&#x14a;" horiz-adv-x="1323" 
d="M1128 0q-4 -143 -28 -205q-55 -132 -209 -201l-74 99q84 36 120 98t36 119q0 52 -21 90l-450 860q-103 196 -160 338q15 -156 18 -383l9 -815h-174v1405h194l467 -897q20 -37 40 -79.5t35 -78.5t27 -64.5t20 -50t9 -22.5l-1 26q-2 26 -4.5 69.5t-5 95.5t-4.5 116.5
t-3 120.5l-6 764h165v-1405z" />
    <glyph glyph-name="eng" unicode="&#x14b;" horiz-adv-x="1138" 
d="M944 774v-774q0 -126 -31 -205q-55 -132 -208 -201l-76 105q93 40 123 107t30 194v690q0 80 -7.5 111.5t-29.5 58.5q-37 43 -112 43q-61 0 -144 -42t-139 -101v-760h-155v786q0 58 -8.5 109.5t-16.5 73t-14 32.5l155 43q10 -18 23.5 -64.5t13.5 -94.5q157 157 322 157
q83 0 151 -40.5t99 -108.5q24 -56 24 -119z" />
    <glyph glyph-name="Omacron" unicode="&#x14c;" horiz-adv-x="1394" 
d="M1262 680q0 -202 -48.5 -337t-156.5 -234q-78 -71 -163.5 -103.5t-193.5 -32.5q-245 0 -399 179q-168 192 -168 557q0 335 150 528t409 193q287 0 443 -230q127 -189 127 -520zM1073 655q0 307 -67 447q-40 85 -120 138.5t-194 53.5q-98 0 -179.5 -44.5t-121.5 -119.5
q-72 -135 -72 -387q0 -157 24.5 -287.5t66.5 -201.5q39 -66 125 -109t174 -43q167 0 262 121q54 68 78 165.5t24 266.5zM981 1538h-561v111h561v-111z" />
    <glyph glyph-name="omacron" unicode="&#x14d;" horiz-adv-x="1124" 
d="M1001 494q0 -249 -120 -385t-318 -136q-209 0 -324.5 144.5t-115.5 398.5q0 249 116.5 392t317.5 143q225 0 350 -179q94 -137 94 -378zM819 481q0 210 -47 307q-31 64 -90.5 98t-126.5 34q-68 0 -125.5 -30t-83.5 -81q-49 -94 -49 -266q0 -107 17 -197t46 -137
q28 -46 84.5 -74.5t122.5 -28.5q79 0 137 40t84 114q31 85 31 221zM840 1212h-561v111h561v-111z" />
    <glyph glyph-name="Obreve" unicode="&#x14e;" horiz-adv-x="1394" 
d="M1262 680q0 -202 -48.5 -337t-156.5 -234q-78 -71 -163.5 -103.5t-193.5 -32.5q-245 0 -399 179q-168 192 -168 557q0 335 150 528t409 193q287 0 443 -230q127 -189 127 -520zM1073 655q0 307 -67 447q-40 85 -120 138.5t-194 53.5q-98 0 -179.5 -44.5t-121.5 -119.5
q-72 -135 -72 -387q0 -157 24.5 -287.5t66.5 -201.5q39 -66 125 -109t174 -43q167 0 262 121q54 68 78 165.5t24 266.5zM1038 1726q-14 -18 -42.5 -47t-74.5 -67.5t-104.5 -65t-111.5 -26.5t-112 26.5t-106.5 65.5t-75.5 66.5t-44 47.5l71 78q43 -38 118 -76t155 -38
q112 0 266 114z" />
    <glyph glyph-name="obreve" unicode="&#x14f;" horiz-adv-x="1124" 
d="M1001 494q0 -249 -120 -385t-318 -136q-209 0 -324.5 144.5t-115.5 398.5q0 249 116.5 392t317.5 143q225 0 350 -179q94 -137 94 -378zM819 481q0 210 -47 307q-31 64 -90.5 98t-126.5 34q-68 0 -125.5 -30t-83.5 -81q-49 -94 -49 -266q0 -107 17 -197t46 -137
q28 -46 84.5 -74.5t122.5 -28.5q79 0 137 40t84 114q31 85 31 221zM891 1380q-13 -17 -42.5 -46t-75.5 -65.5t-104.5 -62.5t-111.5 -26t-112 25.5t-105.5 63.5t-74.5 65t-44 46l70 80q42 -37 118 -75.5t156 -38.5q110 0 264 114z" />
    <glyph glyph-name="Ohungarumlaut" unicode="&#x150;" horiz-adv-x="1394" 
d="M1262 680q0 -202 -48.5 -337t-156.5 -234q-78 -71 -163.5 -103.5t-193.5 -32.5q-245 0 -399 179q-168 192 -168 557q0 335 150 528t409 193q287 0 443 -230q127 -189 127 -520zM1073 655q0 307 -67 447q-40 85 -120 138.5t-194 53.5q-98 0 -179.5 -44.5t-121.5 -119.5
q-72 -135 -72 -387q0 -157 24.5 -287.5t66.5 -201.5q39 -66 125 -109t174 -43q167 0 262 121q54 68 78 165.5t24 266.5zM858 1847l-301 -362l-94 59l242 398zM1298 1794l-366 -301l-80 78l311 342z" />
    <glyph glyph-name="ohungarumlaut" unicode="&#x151;" horiz-adv-x="1124" 
d="M1001 494q0 -249 -120 -385t-318 -136q-209 0 -324.5 144.5t-115.5 398.5q0 249 116.5 392t317.5 143q225 0 350 -179q94 -137 94 -378zM819 481q0 210 -47 307q-31 64 -90.5 98t-126.5 34q-68 0 -125.5 -30t-83.5 -81q-49 -94 -49 -266q0 -107 17 -197t46 -137
q28 -46 84.5 -74.5t122.5 -28.5q79 0 137 40t84 114q31 85 31 221zM666 1563l-240 -406l-102 43l176 430zM1057 1524l-316 -355l-90 64l254 387z" />
    <glyph glyph-name="OE" unicode="&#x152;" horiz-adv-x="1804" 
d="M1722 0h-901q-176 0 -264.5 18.5t-185.5 87.5q-238 171 -238 594q0 348 160 525q87 96 185 138t257 42h967l-23 -141h-575v-459h481v-146h-481v-514h618v-145zM934 147v1098q-118 15 -180 15q-130 0 -212 -32.5t-132 -113.5q-95 -153 -95 -393q0 -167 26 -273t95 -186
q109 -127 264 -127q152 0 234 12z" />
    <glyph glyph-name="oe" unicode="&#x153;" horiz-adv-x="1738" 
d="M1626 483h-637v-24q0 -152 47 -223q81 -125 254 -125q145 0 250 96l62 -103q-67 -61 -156.5 -94t-188.5 -33q-113 0 -206.5 46t-135.5 120q-74 -93 -155.5 -135.5t-196.5 -42.5q-204 0 -322 145.5t-118 397.5q0 249 116.5 391.5t317.5 142.5q226 0 344 -174
q123 181 332 181q166 0 276 -113q67 -68 92 -158.5t25 -271.5v-23zM819 473q0 210 -47 307q-31 64 -90.5 97.5t-126.5 33.5q-68 0 -125.5 -30t-83.5 -80q-49 -94 -49 -266q0 -107 17 -197t46 -137q28 -46 84.5 -74.5t122.5 -28.5q79 0 137 40t84 114q31 85 31 221zM1456 604
q-3 157 -47 227q-26 41 -76 66t-108 25q-109 0 -169.5 -80.5t-66.5 -237.5h467z" />
    <glyph glyph-name="Racute" unicode="&#x154;" horiz-adv-x="1138" 
d="M1087 0h-210q-35 78 -132 228.5t-227 316.5q-41 52 -74 70t-86 20v-635h-163v1405h327q137 0 218.5 -22.5t136.5 -67.5q139 -113 139 -295q0 -173 -103 -279t-270 -106h-20q61 -48 141 -158q70 -95 323 -477zM840 1022q0 69 -39 128.5t-99 84.5q-73 29 -176 29h-168v-525
h156q176 0 254 72q72 66 72 211zM872 1690l-458 -205l-54 96l424 266z" />
    <glyph glyph-name="racute" unicode="&#x155;" horiz-adv-x="663" 
d="M694 1040l-65 -174q-20 8 -45 8q-97 0 -170 -73q-36 -36 -48 -68t-12 -94v-639h-159v786q0 136 -35 218l159 43q6 -13 13.5 -33.5t15 -59.5t4.5 -73q56 78 132.5 124t154.5 46q22 0 55 -11zM686 1362l-459 -205l-53 96l424 267z" />
    <glyph glyph-name="uni0156" unicode="&#x156;" horiz-adv-x="1138" 
d="M1087 0h-210q-35 78 -132 228.5t-227 316.5q-41 52 -74 70t-86 20v-635h-163v1405h327q137 0 218.5 -22.5t136.5 -67.5q139 -113 139 -295q0 -173 -103 -279t-270 -106h-20q61 -48 141 -158q70 -95 323 -477zM840 1022q0 69 -39 128.5t-99 84.5q-73 29 -176 29h-168v-525
h156q176 0 254 72q72 66 72 211zM721 -283q0 -87 -64 -170q-48 -62 -139 -114l-47 71q101 47 113 150q-8 -2 -21 -2q-38 0 -64 31.5t-26 74.5q0 51 34 86t83 35q58 0 94.5 -45.5t36.5 -116.5z" />
    <glyph glyph-name="uni0157" unicode="&#x157;" horiz-adv-x="663" 
d="M694 1040l-65 -174q-20 8 -45 8q-97 0 -170 -73q-36 -36 -48 -68t-12 -94v-639h-159v786q0 136 -35 218l159 43q6 -13 13.5 -33.5t15 -59.5t4.5 -73q56 78 132.5 124t154.5 46q22 0 55 -11zM406 -283q0 -87 -64 -170q-48 -62 -139 -114l-47 71q99 47 112 150
q-8 -2 -20 -2q-38 0 -64 31.5t-26 74.5q0 51 33.5 86t82.5 35q58 0 95 -45.5t37 -116.5z" />
    <glyph glyph-name="Rcaron" unicode="&#x158;" horiz-adv-x="1138" 
d="M1087 0h-210q-35 78 -132 228.5t-227 316.5q-41 52 -74 70t-86 20v-635h-163v1405h327q137 0 218.5 -22.5t136.5 -67.5q139 -113 139 -295q0 -173 -103 -279t-270 -106h-20q61 -48 141 -158q70 -95 323 -477zM840 1022q0 69 -39 128.5t-99 84.5q-73 29 -176 29h-168v-525
h156q176 0 254 72q72 66 72 211zM911 1761l-348 -276l-350 276l74 90l284 -174l277 174z" />
    <glyph glyph-name="rcaron" unicode="&#x159;" horiz-adv-x="663" 
d="M694 1040l-65 -174q-20 8 -45 8q-97 0 -170 -73q-36 -36 -48 -68t-12 -94v-639h-159v786q0 136 -35 218l159 43q6 -13 13.5 -33.5t15 -59.5t4.5 -73q56 78 132.5 124t154.5 46q22 0 55 -11zM762 1434l-348 -277l-351 277l74 90l285 -174l276 174z" />
    <glyph glyph-name="Sacute" unicode="&#x15a;" horiz-adv-x="1185" 
d="M1073 397q0 -100 -50.5 -189.5t-143.5 -148.5q-134 -86 -316 -86q-245 0 -450 127l73 131q167 -120 377 -120q79 0 129 13.5t94 47.5q101 76 101 201q0 186 -252 262l-141 43q-101 31 -156 57.5t-94 67.5q-88 94 -88 229q0 180 125 292t329 112q223 0 424 -136l-73 -120
q-101 66 -176.5 92t-166.5 26q-132 0 -206 -61.5t-74 -169.5q0 -84 54 -136.5t179 -92.5l162 -52q95 -30 150.5 -61t97.5 -80q43 -50 67.5 -116t24.5 -132zM938 1690l-459 -205l-53 96l424 266z" />
    <glyph glyph-name="sacute" unicode="&#x15b;" horiz-adv-x="985" 
d="M872 303q0 -149 -106.5 -241.5t-278.5 -92.5q-96 0 -195.5 27.5t-178.5 75.5l61 118q158 -96 324 -96q94 0 150.5 47.5t56.5 128.5q0 69 -40 109t-128 59l-127 27q-125 26 -191.5 99.5t-66.5 180.5q0 138 101 226t261 88q78 0 162 -22.5t149 -59.5l-59 -119
q-78 37 -136 55.5t-120 18.5q-87 0 -140 -46.5t-53 -121.5q0 -60 34 -95.5t114 -52.5l135 -28q272 -58 272 -285zM811 1362l-459 -205l-53 96l424 267z" />
    <glyph glyph-name="Scircumflex" unicode="&#x15c;" horiz-adv-x="1185" 
d="M1073 397q0 -100 -50.5 -189.5t-143.5 -148.5q-134 -86 -316 -86q-245 0 -450 127l73 131q167 -120 377 -120q79 0 129 13.5t94 47.5q101 76 101 201q0 186 -252 262l-141 43q-101 31 -156 57.5t-94 67.5q-88 94 -88 229q0 180 125 292t329 112q223 0 424 -136l-73 -120
q-101 66 -176.5 92t-166.5 26q-132 0 -206 -61.5t-74 -169.5q0 -84 54 -136.5t179 -92.5l162 -52q95 -30 150.5 -61t97.5 -80q43 -50 67.5 -116t24.5 -132zM969 1567l-74 -90l-285 174l-276 -174l-64 90l348 276z" />
    <glyph glyph-name="scircumflex" unicode="&#x15d;" horiz-adv-x="985" 
d="M872 303q0 -149 -106.5 -241.5t-278.5 -92.5q-96 0 -195.5 27.5t-178.5 75.5l61 118q158 -96 324 -96q94 0 150.5 47.5t56.5 128.5q0 69 -40 109t-128 59l-127 27q-125 26 -191.5 99.5t-66.5 180.5q0 138 101 226t261 88q78 0 162 -22.5t149 -59.5l-59 -119
q-78 37 -136 55.5t-120 18.5q-87 0 -140 -46.5t-53 -121.5q0 -60 34 -95.5t114 -52.5l135 -28q272 -58 272 -285zM858 1239l-74 -90l-284 174l-277 -174l-63 90l348 277z" />
    <glyph glyph-name="Scedilla" unicode="&#x15e;" horiz-adv-x="1185" 
d="M1073 397q0 -100 -50.5 -189.5t-143.5 -148.5q-116 -73 -256 -84l-17 -61q133 -18 133 -147q0 -65 -54 -117.5t-146 -52.5q-81 0 -168 49l43 96q70 -33 125 -33q29 0 51 17t22 45t-23.5 43.5t-53.5 15.5q-34 0 -54 -4l-18 20l35 129q-204 14 -385 125l73 131
q167 -120 377 -120q79 0 129 13.5t94 47.5q101 76 101 201q0 186 -252 262l-141 43q-101 31 -156 57.5t-94 67.5q-88 94 -88 229q0 180 125 292t329 112q223 0 424 -136l-73 -120q-101 66 -176.5 92t-166.5 26q-132 0 -206 -61.5t-74 -169.5q0 -84 54 -136.5t179 -92.5
l162 -52q95 -30 150.5 -61t97.5 -80q43 -50 67.5 -116t24.5 -132z" />
    <glyph glyph-name="scedilla" unicode="&#x15f;" horiz-adv-x="985" 
d="M872 303q0 -137 -92 -227.5t-243 -104.5l-15 -57q133 -18 133 -147q0 -65 -54 -117.5t-146 -52.5q-81 0 -168 49l43 96q70 -33 125 -33q29 0 51 17t22 45t-23.5 43.5t-53.5 15.5q-34 0 -54 -4l-18 20l35 127q-170 19 -301 99l61 118q158 -96 324 -96q94 0 150.5 47.5
t56.5 128.5q0 69 -40 109t-128 59l-127 27q-125 26 -191.5 99.5t-66.5 180.5q0 138 101 226t261 88q78 0 162 -22.5t149 -59.5l-59 -119q-78 37 -136 55.5t-120 18.5q-87 0 -140 -46.5t-53 -121.5q0 -60 34 -95.5t114 -52.5l135 -28q272 -58 272 -285z" />
    <glyph glyph-name="Scaron" unicode="&#x160;" horiz-adv-x="1185" 
d="M1073 397q0 -100 -50.5 -189.5t-143.5 -148.5q-134 -86 -316 -86q-245 0 -450 127l73 131q167 -120 377 -120q79 0 129 13.5t94 47.5q101 76 101 201q0 186 -252 262l-141 43q-101 31 -156 57.5t-94 67.5q-88 94 -88 229q0 180 125 292t329 112q223 0 424 -136l-73 -120
q-101 66 -176.5 92t-166.5 26q-132 0 -206 -61.5t-74 -169.5q0 -84 54 -136.5t179 -92.5l162 -52q95 -30 150.5 -61t97.5 -80q43 -50 67.5 -116t24.5 -132zM956 1757l-348 -276l-350 276l74 90l284 -174l277 174z" />
    <glyph glyph-name="scaron" unicode="&#x161;" horiz-adv-x="985" 
d="M872 303q0 -149 -106.5 -241.5t-278.5 -92.5q-96 0 -195.5 27.5t-178.5 75.5l61 118q158 -96 324 -96q94 0 150.5 47.5t56.5 128.5q0 69 -40 109t-128 59l-127 27q-125 26 -191.5 99.5t-66.5 180.5q0 138 101 226t261 88q78 0 162 -22.5t149 -59.5l-59 -119
q-78 37 -136 55.5t-120 18.5q-87 0 -140 -46.5t-53 -121.5q0 -60 34 -95.5t114 -52.5l135 -28q272 -58 272 -285zM856 1419l-348 -276l-350 276l73 90l285 -174l277 174z" />
    <glyph glyph-name="uni0162" unicode="&#x162;" horiz-adv-x="950" 
d="M682 -233q0 -65 -54.5 -117.5t-146.5 -52.5q-81 0 -168 49l43 96q70 -33 125 -33q29 0 51.5 17t22.5 45t-24 43.5t-54 15.5q-33 0 -53 -4l-18 20l40 154h-18v1264h-377v141h930l-10 -141h-381v-1264h-19l-22 -86q133 -18 133 -147z" />
    <glyph glyph-name="uni0163" unicode="&#x163;" horiz-adv-x="655" 
d="M616 -233q0 -65 -54 -117.5t-146 -52.5q-81 0 -168 49l43 96q70 -33 125 -33q29 0 51 17t22 45t-23.5 43.5t-53.5 15.5q-34 0 -54 -4l-18 20l33 125q-38 5 -80 25q-53 26 -75.5 75t-22.5 128v700h-134v121h134q0 126 16 258l168 37q-21 -173 -21 -295h256l-49 -121h-213
v-657q0 -85 28.5 -118.5t102.5 -33.5q57 0 101 21l22 -103q-57 -27 -108 -35l-15 -59q133 -18 133 -147z" />
    <glyph glyph-name="Tcaron" unicode="&#x164;" horiz-adv-x="950" 
d="M981 1405l-10 -141h-381v-1264h-162v1264h-377v141h930zM848 1761l-348 -276l-350 276l73 90l285 -174l276 174z" />
    <glyph glyph-name="tcaron" unicode="&#x165;" horiz-adv-x="655" 
d="M614 1020l-49 -121h-213v-657q0 -85 28.5 -118.5t102.5 -33.5q57 0 101 21l22 -103q-77 -41 -180 -41q-70 0 -133 29q-53 26 -75.5 75t-22.5 128v700h-134v121h134q0 126 16 258l168 37q-21 -173 -21 -295h256zM739 1370q0 -89 -63 -170q-49 -64 -139 -115l-48 72
q101 47 113 150q-12 -2 -20 -2q-38 0 -64 31.5t-26 74.5q0 51 33.5 86t82.5 35q58 0 94.5 -45.5t36.5 -116.5z" />
    <glyph glyph-name="Tbar" unicode="&#x166;" horiz-adv-x="950" 
d="M981 1405l-10 -141h-381v-426h225v-142h-225v-696h-162v696h-209v142h209v426h-377v141h930z" />
    <glyph glyph-name="tbar" unicode="&#x167;" horiz-adv-x="655" 
d="M614 1020l-49 -121h-213v-309h262l-49 -121h-213v-227q0 -85 28.5 -118.5t102.5 -33.5q57 0 101 21l22 -103q-77 -41 -180 -41q-70 0 -133 29q-53 26 -75.5 75t-22.5 128v270h-134v121h134v309h-134v121h134q0 126 16 258l168 37q-21 -173 -21 -295h256z" />
    <glyph glyph-name="Utilde" unicode="&#x168;" horiz-adv-x="1300" 
d="M1116 406q0 -130 -22 -199.5t-84 -122.5q-127 -109 -369 -109q-161 0 -259.5 49t-156.5 154q-41 75 -41 219v1008h166v-946q0 -143 25 -203q25 -56 91 -96.5t183 -40.5q182 0 248 88q33 44 43 92t10 127v979h166v-999zM1014 1694q-55 -68 -108.5 -98.5t-139.5 -30.5
q-63 0 -132 37.5t-128 37.5q-31 0 -57.5 -12t-41 -25t-42.5 -42l-58 92q56 69 108.5 99t137.5 30q63 0 132 -38t128 -38q31 0 58 12t42.5 25.5t42.5 42.5z" />
    <glyph glyph-name="utilde" unicode="&#x169;" horiz-adv-x="1140" 
d="M1016 66l-103 -109q-51 41 -75.5 77t-34.5 87q-117 -156 -324 -156q-96 0 -165.5 39t-102.5 107q-27 58 -27 151v750l158 30v-733q0 -73 13 -110t48 -62q50 -35 125 -35t147 51t113 134v723l158 26v-743q0 -95 15.5 -143t54.5 -84zM926 1354q-55 -68 -108.5 -98.5
t-139.5 -30.5q-63 0 -132 37.5t-128 37.5q-31 0 -57.5 -12t-42 -25t-42.5 -42l-57 92q56 69 108.5 99t137.5 30q63 0 132 -38t128 -38q31 0 58 12t42.5 25.5t42.5 42.5z" />
    <glyph glyph-name="Umacron" unicode="&#x16a;" horiz-adv-x="1300" 
d="M1116 406q0 -130 -22 -199.5t-84 -122.5q-127 -109 -369 -109q-161 0 -259.5 49t-156.5 154q-41 75 -41 219v1008h166v-946q0 -143 25 -203q25 -56 91 -96.5t183 -40.5q182 0 248 88q33 44 43 92t10 127v979h166v-999zM936 1538h-561v111h561v-111z" />
    <glyph glyph-name="umacron" unicode="&#x16b;" horiz-adv-x="1140" 
d="M1016 66l-103 -109q-51 41 -75.5 77t-34.5 87q-117 -156 -324 -156q-96 0 -165.5 39t-102.5 107q-27 58 -27 151v750l158 30v-733q0 -73 13 -110t48 -62q50 -35 125 -35t147 51t113 134v723l158 26v-743q0 -95 15.5 -143t54.5 -84zM852 1212h-561v111h561v-111z" />
    <glyph glyph-name="Ubreve" unicode="&#x16c;" horiz-adv-x="1300" 
d="M1116 406q0 -130 -22 -199.5t-84 -122.5q-127 -109 -369 -109q-161 0 -259.5 49t-156.5 154q-41 75 -41 219v1008h166v-946q0 -143 25 -203q25 -56 91 -96.5t183 -40.5q182 0 248 88q33 44 43 92t10 127v979h166v-999zM981 1704q-14 -18 -43 -47t-75 -68t-104.5 -65.5
t-111.5 -26.5t-112 26.5t-106.5 66t-75 67t-44.5 47.5l72 78q43 -38 117.5 -76.5t154.5 -38.5q48 0 110.5 26t95.5 47t61 42z" />
    <glyph glyph-name="ubreve" unicode="&#x16d;" horiz-adv-x="1140" 
d="M1016 66l-103 -109q-51 41 -75.5 77t-34.5 87q-117 -156 -324 -156q-96 0 -165.5 39t-102.5 107q-27 58 -27 151v750l158 30v-733q0 -73 13 -110t48 -62q50 -35 125 -35t147 51t113 134v723l158 26v-743q0 -95 15.5 -143t54.5 -84zM903 1370q-13 -18 -42.5 -46.5
t-75.5 -65.5t-104.5 -63t-111.5 -26t-112 25.5t-105.5 63.5t-74.5 65.5t-44 46.5l70 80q43 -38 119 -76.5t156 -38.5q109 0 264 115z" />
    <glyph glyph-name="Uring" unicode="&#x16e;" horiz-adv-x="1300" 
d="M1116 406q0 -130 -22 -199.5t-84 -122.5q-127 -109 -369 -109q-161 0 -259.5 49t-156.5 154q-41 75 -41 219v1008h166v-946q0 -143 25 -203q25 -56 91 -96.5t183 -40.5q182 0 248 88q33 44 43 92t10 127v979h166v-999zM860 1677q0 -89 -62.5 -153t-150.5 -64
q-89 0 -153 64t-64 153t62.5 153t150.5 64t152.5 -64t64.5 -153zM768 1677q0 50 -37.5 86.5t-89.5 36.5q-47 0 -82 -36.5t-35 -86.5q0 -49 37 -86t86 -37q48 0 84.5 37t36.5 86z" />
    <glyph glyph-name="uring" unicode="&#x16f;" horiz-adv-x="1140" 
d="M1016 66l-103 -109q-51 41 -75.5 77t-34.5 87q-117 -156 -324 -156q-96 0 -165.5 39t-102.5 107q-27 58 -27 151v750l158 30v-733q0 -73 13 -110t48 -62q50 -35 125 -35t147 51t113 134v723l158 26v-743q0 -95 15.5 -143t54.5 -84zM788 1350q0 -89 -62.5 -153t-150.5 -64
q-89 0 -153 64t-64 153t62.5 153t150.5 64t152.5 -64t64.5 -153zM696 1350q0 50 -37.5 86.5t-89.5 36.5q-47 0 -81.5 -36.5t-34.5 -86.5t36.5 -86.5t85.5 -36.5q48 0 84.5 37t36.5 86z" />
    <glyph glyph-name="Uhungarumlaut" unicode="&#x170;" horiz-adv-x="1300" 
d="M1116 406q0 -130 -22 -199.5t-84 -122.5q-127 -109 -369 -109q-161 0 -259.5 49t-156.5 154q-41 75 -41 219v1008h166v-946q0 -143 25 -203q25 -56 91 -96.5t183 -40.5q182 0 248 88q33 44 43 92t10 127v979h166v-999zM770 1847l-301 -362l-94 59l241 398zM1210 1794
l-366 -301l-80 78l311 342z" />
    <glyph glyph-name="uhungarumlaut" unicode="&#x171;" horiz-adv-x="1140" 
d="M1016 66l-103 -109q-51 41 -75.5 77t-34.5 87q-117 -156 -324 -156q-96 0 -165.5 39t-102.5 107q-27 58 -27 151v750l158 30v-733q0 -73 13 -110t48 -62q50 -35 125 -35t147 51t113 134v723l158 26v-743q0 -95 15.5 -143t54.5 -84zM674 1563l-240 -406l-102 43l176 430z
M1065 1524l-315 -355l-91 64l254 387z" />
    <glyph glyph-name="Uogonek" unicode="&#x172;" horiz-adv-x="1300" 
d="M1116 406q0 -130 -22 -199.5t-84 -122.5q-77 -65 -195 -92q-59 -14 -114.5 -73t-55.5 -132q0 -31 19.5 -52.5t54.5 -21.5q64 0 125 29l43 -96q-87 -49 -168 -49q-94 0 -147.5 51.5t-53.5 126.5q0 97 92 200q-148 4 -239 53t-146 150q-41 75 -41 219v1008h166v-946
q0 -143 25 -203q25 -56 91 -96.5t183 -40.5q182 0 248 88q33 44 43 92t10 127v979h166v-999z" />
    <glyph glyph-name="uogonek" unicode="&#x173;" horiz-adv-x="1140" 
d="M1059 -354q-87 -49 -168 -49q-94 0 -147.5 51.5t-53.5 126.5q0 39 12 75t38 71.5t45.5 57t54.5 56.5q-29 40 -37 86q-117 -156 -324 -156q-96 0 -165.5 39t-102.5 107q-27 58 -27 151v750l158 30v-733q0 -73 13 -110t48 -62q50 -35 125 -35t147 51t113 134v723l158 26
v-743q0 -95 15.5 -143t54.5 -84q-104 -93 -151.5 -155.5t-47.5 -123.5q0 -31 19.5 -52.5t54.5 -21.5q64 0 125 29z" />
    <glyph glyph-name="Wcircumflex" unicode="&#x174;" horiz-adv-x="1683" 
d="M1632 1405l-321 -1405h-219l-174 780q-66 303 -74 396q-1 -4 -10.5 -60t-26.5 -148t-35 -175l-172 -793h-217l-332 1405h180l179 -821q13 -61 27.5 -138t23 -132t16.5 -104.5t8 -51.5q27 165 80 405l187 842h190l195 -873q50 -229 71 -374q0 1 4.5 28t12 69.5t17.5 94.5
t22.5 116.5t25.5 123.5l174 815h168zM1200 1589l-74 -90l-284 174l-277 -174l-63 90l348 277z" />
    <glyph glyph-name="wcircumflex" unicode="&#x175;" horiz-adv-x="1423" 
d="M1382 1020l-288 -1028h-158l-203 717l-28 112h-5q-7 -50 -22 -104l-205 -725h-149l-283 1020l160 35l164 -674q29 -123 36 -170h7q7 47 34 147l183 670h174l178 -678q24 -98 41 -149h4q5 24 15.5 71t15.5 70l161 686h168zM1051 1249l-74 -90l-285 174l-276 -174l-64 90
l348 277z" />
    <glyph glyph-name="Ycircumflex" unicode="&#x176;" horiz-adv-x="1062" 
d="M1073 1405l-457 -858v-547h-174v557l-452 848h207l266 -537q15 -30 39.5 -84.5t32.5 -72.5q15 41 75 157l271 537h192zM889 1589l-74 -90l-285 174l-276 -174l-64 90l349 277z" />
    <glyph glyph-name="ycircumflex" unicode="&#x177;" horiz-adv-x="940" 
d="M909 1020l-350 -1057q-55 -167 -129.5 -260t-200.5 -123l-47 109q99 31 147 94.5t89 218.5l-66 -10q-9 50 -42.5 170t-59.5 196l-219 639l157 54l209 -662q33 -107 62 -254h4q10 36 31.5 107.5t31.5 107.5l201 670h182zM827 1249l-73 -90l-285 174l-276 -174l-64 90
l348 277z" />
    <glyph glyph-name="Ydieresis" unicode="&#x178;" horiz-adv-x="1062" 
d="M1073 1405l-457 -858v-547h-174v557l-452 848h207l266 -537q15 -30 39.5 -84.5t32.5 -72.5q15 41 75 157l271 537h192zM422 1599q0 -45 -30.5 -76.5t-74.5 -31.5t-75 32t-31 76q0 43 30.5 74t73.5 31q44 0 75.5 -31t31.5 -74zM846 1599q0 -45 -30.5 -76.5t-74.5 -31.5
t-75 32t-31 76q0 43 30.5 74t73.5 31q44 0 75.5 -31t31.5 -74z" />
    <glyph glyph-name="Zacute" unicode="&#x179;" horiz-adv-x="1060" 
d="M969 143l-43 -143h-834v129l600 1001q57 95 90 136q-3 0 -24 -0.5t-54.5 -1t-66.5 -0.5h-524l47 141h801v-143l-584 -986q-54 -95 -86 -135l43 1q44 1 78 1h557zM825 1690l-458 -205l-54 96l424 266z" />
    <glyph glyph-name="zacute" unicode="&#x17a;" horiz-adv-x="940" 
d="M848 123l-76 -123h-680v123l555 770h-512v127h680v-131l-530 -766h563zM754 1362l-459 -205l-53 96l424 267z" />
    <glyph glyph-name="Zdotaccent" unicode="&#x17b;" horiz-adv-x="1060" 
d="M969 143l-43 -143h-834v129l600 1001q57 95 90 136q-3 0 -24 -0.5t-54.5 -1t-66.5 -0.5h-524l47 141h801v-143l-584 -986q-54 -95 -86 -135l43 1q44 1 78 1h557zM678 1616q0 -52 -36 -88.5t-89 -36.5q-52 0 -88.5 36t-36.5 87q0 53 36.5 90t88.5 37q53 0 89 -36.5
t36 -88.5z" />
    <glyph glyph-name="zdotaccent" unicode="&#x17c;" horiz-adv-x="940" 
d="M848 123l-76 -123h-680v123l555 770h-512v127h680v-131l-530 -766h563zM596 1335q0 -53 -36 -89t-89 -36q-52 0 -88.5 36t-36.5 87q0 53 36.5 90t88.5 37q53 0 89 -36t36 -89z" />
    <glyph glyph-name="Zcaron" unicode="&#x17d;" horiz-adv-x="1060" 
d="M969 143l-43 -143h-834v129l600 1001q57 95 90 136q-3 0 -24 -0.5t-54.5 -1t-66.5 -0.5h-524l47 141h801v-143l-584 -986q-54 -95 -86 -135l43 1q44 1 78 1h557zM889 1757l-348 -276l-351 276l74 90l285 -174l276 174z" />
    <glyph glyph-name="zcaron" unicode="&#x17e;" horiz-adv-x="940" 
d="M848 123l-76 -123h-680v123l555 770h-512v127h680v-131l-530 -766h563zM831 1419l-348 -276l-350 276l74 90l285 -174l276 174z" />
    <glyph glyph-name="longs" unicode="&#x17f;" horiz-adv-x="671" 
d="M778 1430l-63 -121q-88 51 -150 51q-101 0 -157 -71t-56 -220v-1069h-157v899h-152v121h152v27q0 119 15.5 188.5t65.5 126.5q108 123 302 123q99 0 200 -55z" />
    <glyph glyph-name="uni018F" unicode="&#x18f;" horiz-adv-x="1314" 
d="M119 727h862v64q0 86 -12.5 158t-43.5 136.5t-78.5 109.5t-121 71t-168.5 26q-89 0 -181.5 -35.5t-162.5 -97.5l-68 113q174 160 445 160q279 0 435.5 -188t156.5 -535q0 -121 -20 -229t-64 -201.5t-108.5 -161t-157.5 -106t-207 -38.5q-112 0 -199.5 33t-145 90
t-94.5 139.5t-53 175.5t-16 203q0 41 1 74t1 39zM981 584h-678q0 -84 6.5 -148.5t28 -130t57 -108t97 -69t145.5 -26.5q153 0 245.5 123t98.5 359z" />
    <glyph glyph-name="florin" unicode="&#x192;" horiz-adv-x="663" 
d="M756 1423l-68 -112q-72 47 -141 47q-65 0 -103.5 -46.5t-44.5 -133.5l-10 -158h275l-58 -121h-225l-53 -786q-12 -189 -26 -249q-25 -106 -105 -179q-49 -43 -131 -91l-76 115q49 30 81 60.5t49.5 55t27.5 66t13 68t7 86.5l53 854h-94v121h102l11 160q6 98 37.5 153
t89.5 97q74 53 176 53q56 0 119.5 -21t93.5 -39z" />
    <glyph glyph-name="uni01B5" unicode="&#x1b5;" horiz-adv-x="1060" 
d="M872 651h-274l-221 -375q-54 -95 -86 -135l43 1q44 1 78 1h557l-43 -143h-834v129l314 522h-201v131h278l209 348q57 95 90 136q-3 0 -24 -0.5t-54.5 -1t-66.5 -0.5h-524l47 141h801v-143l-285 -480h196v-131z" />
    <glyph glyph-name="uni01B6" unicode="&#x1b6;" horiz-adv-x="940" 
d="M754 471h-230l-239 -348h563l-76 -123h-680v123l250 348h-149v111h229l225 311h-512v127h680v-131l-213 -307h152v-111z" />
    <glyph glyph-name="uni01C4" unicode="&#x1c4;" horiz-adv-x="2357" 
d="M1163 700q0 -348 -159 -524q-90 -100 -190 -138t-253 -38h-366v1405h280q173 0 263.5 -19.5t187.5 -89.5q237 -170 237 -596zM981 680q0 165 -26.5 271t-94.5 188q-65 77 -138 103t-192 26h-168v-1129h168q130 0 217.5 29.5t139.5 118.5q94 163 94 393zM2265 143
l-43 -143h-833v129l600 1001q57 95 90 136q-3 0 -24 -0.5t-55 -1t-67 -0.5h-524l47 141h801v-143l-584 -986q-54 -95 -86 -135l43 1q44 1 78 1h557zM2185 1757l-348 -276l-350 276l74 90l284 -174l277 174z" />
    <glyph glyph-name="uni01C5" unicode="&#x1c5;" horiz-adv-x="2236" 
d="M1163 700q0 -348 -159 -524q-90 -100 -190 -138t-253 -38h-366v1405h280q173 0 263.5 -19.5t187.5 -89.5q237 -170 237 -596zM981 680q0 165 -26.5 271t-94.5 188q-65 77 -138 103t-192 26h-168v-1129h168q130 0 217.5 29.5t139.5 118.5q94 163 94 393zM2144 123
l-76 -123h-679v123l555 770h-512v127h679v-131l-530 -766h563zM2128 1419l-348 -276l-350 276l73 90l285 -174l276 174z" />
    <glyph glyph-name="uni01C6" unicode="&#x1c6;" horiz-adv-x="2109" 
d="M1006 0h-164q-21 52 -23 104q-56 -63 -118.5 -90.5t-151.5 -27.5q-198 0 -307 135.5t-109 380.5q0 327 211 473q92 63 197 63q86 0 158 -33.5t118 -95.5q0 2 -1 60.5t-1 97.5v428l160 -27v-1138q0 -250 31 -330zM813 260v541q-75 106 -248 106q-125 0 -190 -106
q-37 -59 -51.5 -123.5t-14.5 -171.5q0 -193 41 -266q35 -62 84.5 -90.5t120.5 -28.5q62 0 104 14.5t93 50.5q42 29 61 74zM2017 123l-75 -123h-680v123l555 770h-512v127h680v-131l-531 -766h563zM2001 1419l-348 -276l-350 276l73 90l285 -174l276 174z" />
    <glyph glyph-name="uni01C7" unicode="&#x1c7;" horiz-adv-x="1519" 
d="M918 141l-23 -141h-700v1405h167v-1264h556zM1325 240q0 -137 -10 -201.5t-41 -120.5q-69 -123 -238 -180l-82 104q55 23 99.5 60t68.5 78q20 35 27.5 91t7.5 165v1169h168v-1165z" />
    <glyph glyph-name="uni01C8" unicode="&#x1c8;" horiz-adv-x="1501" 
d="M918 141l-23 -141h-700v1405h167v-1264h556zM1307 20q0 -156 -29 -225q-55 -132 -209 -201l-80 107q35 15 60.5 33t42.5 41.5t27 48t15.5 60t7 68.5t1.5 83v977l164 32v-1024zM1350 1335q0 -53 -36 -89t-89 -36t-89 36t-36 89t36 89t89 36t89 -36t36 -89z" />
    <glyph glyph-name="uni01C9" unicode="&#x1c9;" horiz-adv-x="1103" 
d="M467 2q-50 -22 -102 -22q-75 0 -121 43q-49 43 -49 145v1081q0 121 -25 209l160 31q4 -11 9.5 -38t11 -84t5.5 -120v-1042q0 -60 12 -81.5t46 -21.5q4 0 20 4zM909 20q0 -158 -28 -225q-55 -132 -209 -201l-80 107q42 18 70 42t44.5 50t25 66t11 78t2.5 98v977l164 32
v-1024zM952 1335q0 -53 -36 -89t-89 -36t-89 36t-36 89t36 89t89 36t89 -36t36 -89z" />
    <glyph glyph-name="uni01CA" unicode="&#x1ca;" horiz-adv-x="1894" 
d="M1128 0h-176l-450 860q-127 242 -160 338q15 -156 18 -383l9 -815h-174v1405h194l467 -897q20 -37 40 -79.5t35 -78.5t27 -64.5t20 -50t9 -22.5l-1 26q-2 26 -4.5 69.5t-5 95.5t-4.5 116.5t-3 120.5l-6 764h165v-1405zM1700 240q0 -137 -10 -201.5t-41 -120.5
q-69 -123 -238 -180l-82 104q55 23 99.5 60t68.5 78q20 35 27.5 91t7.5 165v1169h168v-1165z" />
    <glyph glyph-name="uni01CB" unicode="&#x1cb;" horiz-adv-x="1875" 
d="M1128 0h-176l-450 860q-127 242 -160 338q15 -156 18 -383l9 -815h-174v1405h194l467 -897q20 -37 40 -79.5t35 -78.5t27 -64.5t20 -50t9 -22.5l-1 26q-2 26 -4.5 69.5t-5 95.5t-4.5 116.5t-3 120.5l-6 764h165v-1405zM1681 20q0 -158 -28 -225q-55 -132 -209 -201
l-80 107q35 15 60.5 33t42.5 41.5t27 48t15.5 60t7 68.5t1.5 83v977l163 32v-1024zM1724 1335q0 -53 -36 -89t-89 -36q-52 0 -88 36t-36 89t36 89t88 36q53 0 89 -36t36 -89z" />
    <glyph glyph-name="uni01CC" unicode="&#x1cc;" horiz-adv-x="1691" 
d="M944 0h-162v690q0 80 -7.5 111.5t-29.5 58.5q-37 43 -112 43q-61 0 -144 -42t-139 -101v-760h-155v786q0 58 -8.5 109.5t-16.5 73t-14 32.5l155 43q10 -18 23.5 -64.5t13.5 -94.5q157 157 322 157q83 0 151 -40.5t99 -108.5q24 -56 24 -119v-774zM1497 20
q0 -156 -29 -225q-55 -132 -208 -201l-80 107q42 18 70 42t44.5 50t25 66t11 78t2.5 98v977l164 32v-1024zM1540 1335q0 -53 -36 -89t-89 -36t-89 36t-36 89t36 89t89 36t89 -36t36 -89z" />
    <glyph glyph-name="uni01F1" unicode="&#x1f1;" horiz-adv-x="2357" 
d="M1163 700q0 -348 -159 -524q-90 -100 -190 -138t-253 -38h-366v1405h280q173 0 263.5 -19.5t187.5 -89.5q237 -170 237 -596zM981 680q0 165 -26.5 271t-94.5 188q-65 77 -138 103t-192 26h-168v-1129h168q130 0 217.5 29.5t139.5 118.5q94 163 94 393zM2265 143
l-43 -143h-833v129l600 1001q57 95 90 136q-3 0 -24 -0.5t-55 -1t-67 -0.5h-524l47 141h801v-143l-584 -986q-54 -95 -86 -135l43 1q44 1 78 1h557z" />
    <glyph glyph-name="uni01F2" unicode="&#x1f2;" horiz-adv-x="2236" 
d="M1163 700q0 -348 -159 -524q-90 -100 -190 -138t-253 -38h-366v1405h280q173 0 263.5 -19.5t187.5 -89.5q237 -170 237 -596zM981 680q0 165 -26.5 271t-94.5 188q-65 77 -138 103t-192 26h-168v-1129h168q130 0 217.5 29.5t139.5 118.5q94 163 94 393zM2144 123
l-76 -123h-679v123l555 770h-512v127h679v-131l-530 -766h563z" />
    <glyph glyph-name="uni01F3" unicode="&#x1f3;" horiz-adv-x="2109" 
d="M1006 0h-164q-21 52 -23 104q-56 -63 -118.5 -90.5t-151.5 -27.5q-198 0 -307 135.5t-109 380.5q0 327 211 473q92 63 197 63q86 0 158 -33.5t118 -95.5q0 2 -1 60.5t-1 97.5v428l160 -27v-1138q0 -250 31 -330zM813 260v541q-75 106 -248 106q-125 0 -190 -106
q-37 -59 -51.5 -123.5t-14.5 -171.5q0 -193 41 -266q35 -62 84.5 -90.5t120.5 -28.5q62 0 104 14.5t93 50.5q42 29 61 74zM2017 123l-75 -123h-680v123l555 770h-512v127h680v-131l-531 -766h563z" />
    <glyph glyph-name="Aringacute" unicode="&#x1fa;" horiz-adv-x="1193" 
d="M1174 0h-191l-133 432h-524l-136 -432h-170l469 1405h220zM807 569l-215 688l-221 -688h436zM811 1677q0 -89 -62.5 -153t-150.5 -64q-89 0 -153 64t-64 153t62.5 153t150.5 64t152.5 -64t64.5 -153zM719 1677q0 50 -37.5 86.5t-89.5 36.5q-47 0 -82 -36.5t-35 -86.5
q0 -49 36.5 -86t86.5 -37q48 0 84.5 37t36.5 86zM932 2099l-459 -205l-53 97l424 266z" />
    <glyph glyph-name="aringacute" unicode="&#x1fb;" horiz-adv-x="1083" 
d="M967 76l-82 -115q-53 17 -90 56.5t-50 93.5q-75 -75 -141 -106.5t-153 -31.5q-90 0 -156.5 25.5t-102.5 69t-52.5 92.5t-16.5 104q0 173 142.5 270t398.5 97q38 0 71 -2v71q0 71 -6 103.5t-27 56.5q-49 55 -137 55q-83 0 -178 -36.5t-147 -83.5l-80 114q207 138 428 138
q216 0 282 -160q27 -63 23 -225l-8 -336q-3 -127 11.5 -173.5t70.5 -76.5zM731 518q-40 4 -80 4q-187 0 -268.5 -60.5t-81.5 -182.5q0 -91 44.5 -139t131.5 -48q78 0 145.5 44t102.5 116zM784 1350q0 -89 -62.5 -153t-150.5 -64q-89 0 -153 64t-64 153t62.5 153t150.5 64
t152.5 -64t64.5 -153zM692 1350q0 50 -37.5 86.5t-89.5 36.5q-47 0 -81.5 -36.5t-34.5 -86.5t36.5 -86.5t85.5 -36.5q48 0 84.5 37t36.5 86zM842 1772l-459 -205l-53 96l424 266z" />
    <glyph glyph-name="AEacute" unicode="&#x1fc;" horiz-adv-x="1812" 
d="M1731 0h-789v436h-483l-266 -436h-183l869 1405h831l-22 -141h-576v-459h481v-146h-481v-514h619v-145zM942 573v670l-399 -670h399zM1491 1690l-459 -205l-53 96l424 266z" />
    <glyph glyph-name="aeacute" unicode="&#x1fd;" horiz-adv-x="1628" 
d="M1516 483h-637v-34q0 -72 16.5 -131t51 -106.5t94 -74t139.5 -26.5q145 0 250 96l61 -103q-139 -127 -344 -127q-116 0 -209 50.5t-141 124.5q-65 -81 -161 -130t-185 -49q-74 0 -132.5 18.5t-94.5 47.5t-59.5 68t-32.5 77.5t-9 79.5q0 173 142.5 270t398.5 97
q16 0 42.5 -1t28.5 -1v71q0 71 -6 103.5t-27 56.5q-49 55 -137 55q-79 0 -166 -32t-159 -88l-80 114q207 138 428 138q168 0 248 -134q133 136 286 136q169 0 277 -111q67 -68 92 -159.5t25 -272.5v-23zM731 518q-3 0 -34.5 2t-45.5 2q-185 0 -267.5 -60t-82.5 -183
q0 -91 44.5 -139t131.5 -48q78 0 145.5 44t102.5 116zM1346 604q0 161 -55.5 239.5t-176.5 78.5q-109 0 -169 -80.5t-66 -237.5h467zM1092 1362l-459 -205l-53 96l424 267z" />
    <glyph glyph-name="Oslashacute" unicode="&#x1fe;" horiz-adv-x="1394" 
d="M1262 680q0 -202 -48.5 -337t-156.5 -234q-78 -71 -163.5 -103.5t-193.5 -32.5q-171 0 -305 93l-139 -232l-106 66l151 252q-168 192 -168 557q0 335 150 528t409 193q179 0 318 -97l131 219l108 -65l-145 -244q158 -193 158 -563zM932 1204q-97 90 -240 90
q-98 0 -179.5 -44.5t-121.5 -119.5q-72 -135 -72 -387q0 -277 68 -446zM1073 655q0 289 -61 435l-543 -904q47 -38 112 -61t128 -23q167 0 262 121q54 68 78 165.5t24 266.5zM1049 1690l-459 -205l-53 96l424 266z" />
    <glyph glyph-name="oslashacute" unicode="&#x1ff;" horiz-adv-x="1124" 
d="M1001 485q0 -150 -37.5 -249.5t-121.5 -172.5q-59 -52 -125.5 -75t-153.5 -23q-132 0 -227 62l-98 -162l-99 61l107 178q-123 145 -123 404q0 249 116.5 391.5t317.5 142.5q126 0 219 -55l103 170l100 -61l-111 -183q70 -80 101.5 -181t31.5 -247zM819 473q0 196 -41 289
l-368 -612q69 -52 157 -52q79 0 137 40t84 114q31 85 31 221zM702 864q-61 47 -147 47q-68 0 -125.5 -30t-83.5 -80q-49 -94 -49 -266t39 -281zM879 1362l-459 -205l-53 96l424 267z" />
    <glyph glyph-name="uni0218" unicode="&#x218;" horiz-adv-x="1185" 
d="M1073 397q0 -100 -50.5 -189.5t-143.5 -148.5q-134 -86 -316 -86q-245 0 -450 127l73 131q167 -120 377 -120q79 0 129 13.5t94 47.5q101 76 101 201q0 186 -252 262l-141 43q-101 31 -156 57.5t-94 67.5q-88 94 -88 229q0 180 125 292t329 112q223 0 424 -136l-73 -120
q-101 66 -176.5 92t-166.5 26q-132 0 -206 -61.5t-74 -169.5q0 -84 54 -136.5t179 -92.5l162 -52q95 -30 150.5 -61t97.5 -80q43 -50 67.5 -116t24.5 -132zM719 -283q0 -87 -64 -170q-48 -62 -139 -114l-47 71q101 47 113 150q-8 -2 -21 -2q-38 0 -64 31.5t-26 74.5
q0 51 34 86t83 35q58 0 94.5 -45.5t36.5 -116.5z" />
    <glyph glyph-name="uni0219" unicode="&#x219;" horiz-adv-x="985" 
d="M872 303q0 -149 -106.5 -241.5t-278.5 -92.5q-96 0 -195.5 27.5t-178.5 75.5l61 118q158 -96 324 -96q94 0 150.5 47.5t56.5 128.5q0 69 -40 109t-128 59l-127 27q-125 26 -191.5 99.5t-66.5 180.5q0 138 101 226t261 88q78 0 162 -22.5t149 -59.5l-59 -119
q-78 37 -136 55.5t-120 18.5q-87 0 -140 -46.5t-53 -121.5q0 -60 34 -95.5t114 -52.5l135 -28q272 -58 272 -285zM621 -283q0 -87 -64 -170q-48 -62 -139 -114l-47 71q99 47 112 150q-8 -2 -20 -2q-38 0 -64 31.5t-26 74.5q0 51 33.5 86t82.5 35q58 0 95 -45.5t37 -116.5z
" />
    <glyph glyph-name="uni021A" unicode="&#x21a;" horiz-adv-x="950" 
d="M981 1405l-10 -141h-381v-1264h-162v1264h-377v141h930zM641 -283q0 -89 -63 -170q-47 -61 -140 -114l-47 71q101 47 113 150q-8 -2 -21 -2q-38 0 -64 31.5t-26 74.5q0 51 34 86t83 35q58 0 94.5 -45.5t36.5 -116.5z" />
    <glyph glyph-name="uni021B" unicode="&#x21b;" horiz-adv-x="655" 
d="M614 1020l-49 -121h-213v-657q0 -85 28.5 -118.5t102.5 -33.5q57 0 101 21l22 -103q-77 -41 -180 -41q-70 0 -133 29q-53 26 -75.5 75t-22.5 128v700h-134v121h134q0 126 16 258l168 37q-21 -173 -21 -295h256zM504 -283q0 -87 -64 -170q-48 -62 -139 -114l-47 71
q101 47 113 150q-8 -2 -21 -2q-38 0 -64 31.5t-26 74.5q0 51 34 86t83 35q58 0 94.5 -45.5t36.5 -116.5z" />
    <glyph glyph-name="uni0237" unicode="&#x237;" horiz-adv-x="552" 
d="M358 20q0 -158 -28 -225q-55 -132 -209 -201l-80 107q35 15 60.5 33t42.5 41.5t27 48t15.5 60t7 68.5t1.5 83v977l163 32v-1024z" />
    <glyph glyph-name="uni0259" unicode="&#x259;" horiz-adv-x="1052" 
d="M109 541h636v24q0 152 -47 223q-81 125 -254 125q-144 0 -249 -96l-62 103q139 127 344 127q212 0 332.5 -144.5t120.5 -398.5q0 -128 -29 -218t-94 -167q-121 -142 -305 -142q-169 0 -277 111q-67 68 -91.5 158.5t-24.5 271.5v23zM745 420h-466q3 -157 47 -227
q26 -41 76 -66t108 -25q109 0 169 80.5t66 237.5z" />
    <glyph glyph-name="uni02BB" unicode="&#x2bb;" horiz-adv-x="552" 
d="M440 1366q-122 -59 -137 -182q10 2 23 2q46 0 79 -38.5t33 -92.5q0 -62 -41.5 -105t-101.5 -43q-71 0 -116.5 55.5t-45.5 141.5q0 106 78 211q62 80 172 141z" />
    <glyph glyph-name="uni02BC" unicode="&#x2bc;" horiz-adv-x="552" 
d="M420 1233q0 -106 -78 -211q-62 -80 -172 -141l-57 90q122 59 137 182q-10 -2 -23 -2q-46 0 -79 38.5t-33 92.5q0 62 41.5 105t101.5 43q71 0 116.5 -55.5t45.5 -141.5z" />
    <glyph glyph-name="circumflex" unicode="&#x2c6;" horiz-adv-x="841" 
d="M770 1239l-74 -90l-284 174l-277 -174l-63 90l348 277z" />
    <glyph glyph-name="caron" unicode="&#x2c7;" horiz-adv-x="841" 
d="M770 1419l-348 -276l-350 276l73 90l285 -174l277 174z" />
    <glyph glyph-name="breve" unicode="&#x2d8;" horiz-adv-x="841" 
d="M770 1419q-11 -16 -31.5 -40t-57.5 -59.5t-76 -64.5t-88.5 -50t-94.5 -21q-56 0 -116.5 30t-109.5 74.5t-78 75.5t-46 55l73 90q27 -26 62 -51.5t99.5 -53.5t123.5 -28q114 0 277 133z" />
    <glyph glyph-name="dotaccent" unicode="&#x2d9;" horiz-adv-x="516" 
d="M383 1335q0 -53 -36.5 -89t-88.5 -36t-88.5 36t-36.5 87q0 53 36.5 90t88.5 37t88.5 -36t36.5 -89z" />
    <glyph glyph-name="ring" unicode="&#x2da;" horiz-adv-x="614" 
d="M522 1350q0 -89 -62.5 -153t-150.5 -64q-89 0 -153 64t-64 153t62.5 153t150.5 64t152.5 -64t64.5 -153zM430 1350q0 50 -37.5 86.5t-89.5 36.5q-47 0 -82 -36.5t-35 -86.5t37 -86.5t86 -36.5q48 0 84.5 37t36.5 86z" />
    <glyph glyph-name="ogonek" unicode="&#x2db;" horiz-adv-x="593" 
d="M481 -354q-87 -49 -168 -49q-94 0 -147 51.5t-53 126.5q0 83 42.5 152.5t90.5 107.5l104 -60q-31 -22 -70.5 -76t-39.5 -112q0 -31 19 -52.5t54 -21.5q64 0 125 29z" />
    <glyph glyph-name="tilde" unicode="&#x2dc;" horiz-adv-x="808" 
d="M758 1343q-55 -68 -108.5 -98.5t-139.5 -30.5q-63 0 -132 38t-128 38q-31 0 -58 -12.5t-41 -25t-42 -42.5l-58 93q56 69 108.5 99t137.5 30q63 0 132 -38t128 -38q31 0 58 12t42.5 25.5t42.5 42.5z" />
    <glyph glyph-name="hungarumlaut" unicode="&#x2dd;" horiz-adv-x="876" 
d="M414 1479l-240 -406l-102 43l176 430zM805 1440l-316 -355l-90 64l254 387z" />
    <glyph glyph-name="gravecomb" unicode="&#x300;" horiz-adv-x="2" 
d="M-344 1253l-53 -96l-459 205l88 158z" />
    <glyph glyph-name="acutecomb" unicode="&#x301;" horiz-adv-x="2" 
d="M-254 1362l-459 -205l-53 96l424 267z" />
    <glyph glyph-name="uni0302" unicode="&#x302;" horiz-adv-x="2" 
d="M-209 1239l-74 -90l-284 174l-277 -174l-63 90l348 277z" />
    <glyph glyph-name="tildecomb" unicode="&#x303;" horiz-adv-x="2" 
d="M-201 1343q-55 -68 -108.5 -98.5t-139.5 -30.5q-63 0 -132 38t-128 38q-31 0 -58 -12.5t-41 -25t-42 -42.5l-57 93q56 69 108 99t137 30q63 0 132.5 -38t128.5 -38q31 0 58 12t42.5 25.5t42.5 42.5z" />
    <glyph glyph-name="uni0304" unicode="&#x304;" horiz-adv-x="2" 
d="M-49 1163h-561v111h561v-111z" />
    <glyph glyph-name="uni0306" unicode="&#x306;" horiz-adv-x="2" 
d="M-70 1378q-11 -16 -31.5 -40t-57.5 -59.5t-76 -64.5t-88.5 -50t-94.5 -21q-56 0 -116.5 30t-109.5 74.5t-78 75.5t-46 55l74 90q27 -26 61.5 -51.5t99 -53.5t123.5 -28q114 0 277 133z" />
    <glyph glyph-name="uni0307" unicode="&#x307;" horiz-adv-x="2" 
d="M-131 1335q0 -53 -36.5 -89t-88.5 -36t-88.5 36t-36.5 87q0 53 36.5 90t88.5 37t88.5 -36t36.5 -89z" />
    <glyph glyph-name="uni0308" unicode="&#x308;" horiz-adv-x="2" 
d="M-111 1272q0 -44 -30.5 -76.5t-73.5 -32.5q-44 0 -76.5 32.5t-32.5 76.5q0 43 31.5 73.5t75.5 30.5q43 0 74.5 -30.5t31.5 -73.5zM-535 1272q0 -45 -30 -77t-74 -32t-75 32t-31 77q0 43 30.5 73.5t73.5 30.5q44 0 75 -30.5t31 -73.5z" />
    <glyph glyph-name="uni030A" unicode="&#x30a;" horiz-adv-x="2" 
d="M-297 1350q0 -89 -62.5 -153t-150.5 -64q-89 0 -153 64t-64 153t62.5 153t150.5 64t152.5 -64t64.5 -153zM-389 1350q0 50 -37.5 86.5t-89.5 36.5q-47 0 -82 -36.5t-35 -86.5t36.5 -86.5t86.5 -36.5q48 0 84.5 37t36.5 86z" />
    <glyph glyph-name="uni030B" unicode="&#x30b;" horiz-adv-x="2" 
d="M-461 1563l-239 -406l-103 43l176 430zM-70 1524l-315 -355l-90 64l254 387z" />
    <glyph glyph-name="uni030C" unicode="&#x30c;" horiz-adv-x="2" 
d="M-106 1419l-349 -276l-350 276l74 90l285 -174l276 174z" />
    <glyph glyph-name="uni0312" unicode="&#x312;" horiz-adv-x="2" 
d="M-432 1374q0 89 63 170q48 63 140 115l47 -72q-101 -47 -113 -149q10 2 21 2q38 0 64 -32t26 -75q0 -51 -34 -86t-83 -35q-58 0 -94.5 45.5t-36.5 116.5z" />
    <glyph glyph-name="uni0313" unicode="&#x313;" horiz-adv-x="2" 
d="M-8 1243q0 -87 -64 -170q-49 -64 -139 -115l-47 72q101 47 113 150q-6 -2 -21 -2q-38 0 -64 31.5t-26 74.5q0 51 34 86t83 35q58 0 94.5 -45.5t36.5 -116.5z" />
    <glyph glyph-name="uni0326" unicode="&#x326;" horiz-adv-x="2" 
d="M-182 -283q0 -87 -64 -170q-48 -62 -139 -114l-47 71q101 47 113 150q-12 -2 -21 -2q-38 0 -64 31.5t-26 74.5q0 51 34 86t83 35q58 0 94.5 -45.5t36.5 -116.5z" />
    <glyph glyph-name="uni0327" unicode="&#x327;" horiz-adv-x="2" 
d="M-111 -233q0 -65 -54 -117.5t-146 -52.5q-81 0 -168 49l43 96q70 -33 125 -33q29 0 51 17t22 45t-23.5 43.5t-53.5 15.5q-34 0 -54 -4l-18 20l41 154h125l-23 -86q133 -18 133 -147z" />
    <glyph glyph-name="uni0328" unicode="&#x328;" horiz-adv-x="2" 
d="M-111 -354q-87 -49 -168 -49q-94 0 -147 51.5t-53 126.5q0 83 42.5 152.5t90.5 107.5l104 -60q-31 -22 -70.5 -76t-39.5 -112q0 -31 19 -52.5t54 -21.5q64 0 125 29z" />
    <glyph glyph-name="uni037E" unicode="&#x37e;" horiz-adv-x="655" 
d="M492 59q0 -106 -78 -211q-62 -80 -172 -141l-58 90q123 60 138 183q-18 -3 -23 -3q-46 0 -79.5 39t-33.5 93q0 61 42 104t102 43q71 0 116.5 -55.5t45.5 -141.5zM461 762q0 -59 -40 -100t-97 -41t-98.5 42.5t-41.5 102.5q0 54 40.5 92.5t97.5 38.5t98 -40t41 -95z" />
    <glyph glyph-name="tonos" unicode="&#x384;" horiz-adv-x="634" 
d="M461 1556l-211 -401l-76 33l143 430z" />
    <glyph glyph-name="dieresistonos" unicode="&#x385;" horiz-adv-x="942" 
d="M829 1272q0 -44 -30.5 -76.5t-73.5 -32.5q-44 0 -76.5 32.5t-32.5 76.5q0 43 31.5 73.5t75.5 30.5q43 0 74.5 -30.5t31.5 -73.5zM682 1593l-211 -401l-76 33l144 430zM324 1272q0 -45 -30.5 -77t-74.5 -32t-75 32t-31 77q0 43 30.5 73.5t73.5 30.5q44 0 75.5 -30.5
t31.5 -73.5z" />
    <glyph glyph-name="Alphatonos" unicode="&#x386;" horiz-adv-x="1193" 
d="M1174 0h-191l-133 432h-524l-136 -432h-170l469 1405h220zM807 569l-215 688l-221 -688h436zM211 1368l-211 -401l-76 32l144 431z" />
    <glyph glyph-name="anoteleia" unicode="&#x387;" horiz-adv-x="616" 
d="M442 571q0 -56 -39 -95.5t-94 -39.5t-95 40t-40 95q0 57 38.5 96.5t94.5 39.5t95.5 -39.5t39.5 -96.5z" />
    <glyph glyph-name="Epsilontonos" unicode="&#x388;" horiz-adv-x="1064" 
d="M983 0h-788v1405h768l-23 -139h-575v-461h481v-146h-481v-514h618v-145zM27 1368l-211 -401l-76 32l143 431z" />
    <glyph glyph-name="Etatonos" unicode="&#x389;" horiz-adv-x="1312" 
d="M1118 0h-168v680h-592v-680h-163v1405h163v-588h592v588h168v-1405zM27 1368l-211 -401l-76 32l143 431z" />
    <glyph glyph-name="Iotatonos" unicode="&#x38a;" horiz-adv-x="552" 
d="M358 0h-163v1405h163v-1405zM27 1368l-211 -401l-76 32l143 431z" />
    <glyph glyph-name="Omicrontonos" unicode="&#x38c;" horiz-adv-x="1394" 
d="M1262 680q0 -202 -48.5 -337t-156.5 -234q-78 -71 -163.5 -103.5t-193.5 -32.5q-245 0 -399 179q-168 192 -168 557q0 335 150 528t409 193q287 0 443 -230q127 -189 127 -520zM1073 655q0 307 -67 447q-40 85 -120 138.5t-194 53.5q-98 0 -179.5 -44.5t-121.5 -119.5
q-72 -135 -72 -387q0 -157 24.5 -287.5t66.5 -201.5q39 -66 125 -109t174 -43q167 0 262 121q54 68 78 165.5t24 266.5zM129 1368l-211 -401l-76 32l144 431z" />
    <glyph glyph-name="Upsilontonos" unicode="&#x38e;" horiz-adv-x="1062" 
d="M1073 1405l-457 -858v-547h-174v557l-452 848h207l266 -537q15 -30 39.5 -84.5t32.5 -72.5q15 41 75 157l271 537h192zM-35 1368l-211 -401l-76 32l144 431z" />
    <glyph glyph-name="Omegatonos" unicode="&#x38f;" horiz-adv-x="1431" 
d="M1298 698q0 -181 -69 -329t-191 -224h250l-26 -145h-404v145q57 32 99.5 73t78.5 102.5t55 150.5t19 203q0 265 -78 428q-40 84 -122 138t-197 54q-99 0 -183 -44.5t-124 -119.5q-42 -79 -64.5 -163.5t-22.5 -204.5q0 -113 15 -205.5t38 -155t58.5 -114t68.5 -82.5
t76 -60v-145h-438l27 145h225q-121 94 -188.5 250t-67.5 332q0 336 180 535q151 168 400 168q70 0 133.5 -14.5t110 -37t87.5 -54.5t67.5 -61.5t49.5 -62.5q69 -103 103 -221t34 -281zM129 1368l-211 -401l-76 32l144 431z" />
    <glyph glyph-name="iotadieresistonos" unicode="&#x390;" horiz-adv-x="536" 
d="M455 2q-50 -22 -103 -22q-75 0 -121 43q-49 43 -49 145v637q0 125 -24 209l159 30q4 -11 9.5 -37.5t11.5 -83.5t6 -120v-598q0 -60 11.5 -81.5t45.5 -21.5q9 0 21 4zM498 1593l-211 -401l-76 33l143 430zM604 1272q0 -45 -30 -77t-74 -32t-75.5 32.5t-31.5 76.5
q0 43 31 73.5t74 30.5q44 0 75 -30.5t31 -73.5zM160 1272q0 -45 -30.5 -77t-74.5 -32t-75 32t-31 77q0 43 30.5 73.5t73.5 30.5q44 0 75.5 -30.5t31.5 -73.5z" />
    <glyph glyph-name="Alpha" unicode="&#x391;" horiz-adv-x="1193" 
d="M1174 0h-191l-133 432h-524l-136 -432h-170l469 1405h220zM807 569l-215 688l-221 -688h436z" />
    <glyph glyph-name="Beta" unicode="&#x392;" horiz-adv-x="1247" 
d="M1114 385q0 -117 -58.5 -211t-160.5 -133q-62 -24 -126 -32.5t-212 -8.5h-362v1405h202q206 0 284.5 -6t133.5 -25q107 -37 173.5 -125.5t66.5 -195.5q0 -109 -66 -189.5t-186 -118.5q120 -22 184 -73q65 -49 96 -126t31 -161zM938 399q0 93 -47.5 163t-122.5 85
q-73 15 -164 15h-248v-525h299q151 0 217 65.5t66 196.5zM868 1030q0 83 -43.5 142.5t-115.5 78.5q-51 13 -154 13h-199v-463h244q114 0 164.5 25t81.5 96q22 52 22 108z" />
    <glyph glyph-name="Gamma" unicode="&#x393;" horiz-adv-x="851" 
d="M903 1405l-26 -139h-512v-1266h-170v1405h708z" />
    <glyph glyph-name="uni0394" unicode="&#x394;" horiz-adv-x="1236" 
d="M1194 143l-33 -143h-1124v119l479 1286h211zM1004 143l-390 1114l-399 -1114h789z" />
    <glyph glyph-name="Epsilon" unicode="&#x395;" horiz-adv-x="1064" 
d="M983 0h-788v1405h768l-23 -139h-575v-461h481v-146h-481v-514h618v-145z" />
    <glyph glyph-name="Zeta" unicode="&#x396;" horiz-adv-x="1060" 
d="M969 143l-43 -143h-834v129l600 1001q57 95 90 136q-3 0 -24 -0.5t-54.5 -1t-66.5 -0.5h-524l47 141h801v-143l-584 -986q-54 -95 -86 -135l43 1q44 1 78 1h557z" />
    <glyph glyph-name="Eta" unicode="&#x397;" horiz-adv-x="1312" 
d="M1118 0h-168v680h-592v-680h-163v1405h163v-588h592v588h168v-1405z" />
    <glyph glyph-name="Theta" unicode="&#x398;" horiz-adv-x="1431" 
d="M1298 680q0 -102 -21 -200.5t-67.5 -190.5t-113 -162t-164.5 -112t-215 -42q-120 0 -220 44.5t-167 118t-113.5 170.5t-67 198.5t-20.5 204.5q0 325 160 523t420 198q125 0 227 -46.5t168 -121t111 -174.5t64 -201.5t19 -206.5zM1104 805q-50 489 -395 489
q-85 0 -152.5 -30t-110 -77t-71 -113t-41.5 -131t-17 -138h787zM1110 659h-793q3 -65 12.5 -125t27.5 -125.5t49 -118.5t73.5 -96.5t105.5 -67.5t140 -24q76 0 137.5 24.5t102.5 68.5t70.5 97.5t45 119t22.5 125t7 122.5z" />
    <glyph glyph-name="Iota" unicode="&#x399;" horiz-adv-x="552" 
d="M358 0h-163v1405h163v-1405z" />
    <glyph glyph-name="Kappa" unicode="&#x39a;" horiz-adv-x="1138" 
d="M1128 1405l-565 -660l561 -745h-215l-536 743l540 662h215zM365 0h-170v1405h170v-1405z" />
    <glyph glyph-name="Lambda" unicode="&#x39b;" horiz-adv-x="1157" 
d="M1130 0h-190l-367 1257l-378 -1257h-168l444 1405h219z" />
    <glyph glyph-name="Mu" unicode="&#x39c;" horiz-adv-x="1650" 
d="M1507 0h-168l-82 1030q-10 147 -10 238q-1 -4 -9.5 -40.5t-21.5 -88.5t-24 -90l-301 -1049h-143l-279 997q-62 216 -70 269q-1 -8 -3.5 -57.5t-6 -112.5t-6.5 -97l-78 -999h-162l123 1405h246l256 -918q38 -139 55 -243q31 156 51 227l265 934h247z" />
    <glyph glyph-name="Nu" unicode="&#x39d;" horiz-adv-x="1323" 
d="M1128 0h-176l-450 860q-127 242 -160 338q15 -156 18 -383l9 -815h-174v1405h194l467 -897q20 -37 40 -79.5t35 -78.5t27 -64.5t20 -50t9 -22.5l-1 26q-2 26 -4.5 69.5t-5 95.5t-4.5 116.5t-3 120.5l-6 764h165v-1405z" />
    <glyph glyph-name="Xi" unicode="&#x39e;" horiz-adv-x="1064" 
d="M963 1405l-25 -152h-825v152h850zM864 813l-26 -154h-639l26 154h639zM983 0h-895l27 154h868v-154z" />
    <glyph glyph-name="Omicron" unicode="&#x39f;" horiz-adv-x="1394" 
d="M1262 680q0 -202 -48.5 -337t-156.5 -234q-78 -71 -163.5 -103.5t-193.5 -32.5q-245 0 -399 179q-168 192 -168 557q0 335 150 528t409 193q287 0 443 -230q127 -189 127 -520zM1073 655q0 307 -67 447q-40 85 -120 138.5t-194 53.5q-98 0 -179.5 -44.5t-121.5 -119.5
q-72 -135 -72 -387q0 -157 24.5 -287.5t66.5 -201.5q39 -66 125 -109t174 -43q167 0 262 121q54 68 78 165.5t24 266.5z" />
    <glyph glyph-name="Pi" unicode="&#x3a0;" horiz-adv-x="1292" 
d="M1098 0h-168v1266h-572v-1266h-163v1405h903v-1405z" />
    <glyph glyph-name="Rho" unicode="&#x3a1;" horiz-adv-x="1122" 
d="M1071 1004q0 -110 -30 -191t-97 -143q-68 -61 -148.5 -86t-191.5 -25h-246v-559h-163v1405h389q114 0 182 -14.5t125 -51.5q180 -118 180 -335zM885 971q0 153 -82 223q-43 37 -105 53.5t-161 16.5h-179v-568h236q87 0 135 17.5t84 58.5q72 81 72 199z" />
    <glyph glyph-name="Sigma" unicode="&#x3a3;" horiz-adv-x="1013" 
d="M932 1405l-47 -139h-572l389 -484l-426 -637h650v-145h-834v129l422 641l-403 494l47 141h774z" />
    <glyph glyph-name="Tau" unicode="&#x3a4;" horiz-adv-x="950" 
d="M981 1405l-10 -141h-381v-1264h-162v1264h-377v141h930z" />
    <glyph glyph-name="Upsilon" unicode="&#x3a5;" horiz-adv-x="1062" 
d="M1073 1405l-457 -858v-547h-174v557l-452 848h207l266 -537q15 -30 39.5 -84.5t32.5 -72.5q15 41 75 157l271 537h192z" />
    <glyph glyph-name="Phi" unicode="&#x3a6;" horiz-adv-x="1488" 
d="M1391 694q0 -148 -51.5 -249.5t-159.5 -174.5q-153 -102 -351 -102v-168h-163v168q-251 0 -406 135q-162 140 -162 414q0 249 153.5 393.5t414.5 144.5v150h163v-150q285 0 441 -174q64 -71 92.5 -164.5t28.5 -222.5zM1202 680q0 213 -61 299q-40 57 -118.5 92t-193.5 35
v-793q166 0 265 80q56 47 82 111.5t26 175.5zM666 313v793q-99 0 -181.5 -29t-122.5 -78q-77 -99 -77 -258q0 -229 84 -325q39 -45 124 -74t173 -29z" />
    <glyph glyph-name="Chi" unicode="&#x3a7;" horiz-adv-x="1118" 
d="M1098 0h-203l-348 645l-330 -645h-197l416 754l-373 651h199l281 -520l268 520h197l-353 -639z" />
    <glyph glyph-name="Psi" unicode="&#x3a8;" horiz-adv-x="1515" 
d="M1382 842q0 -240 -147.5 -382t-394.5 -145v-315h-164v315q-86 1 -162 18.5t-147 58t-122 102t-81.5 156t-30.5 214.5v541h164v-516q0 -73 8.5 -131t33.5 -115t65.5 -95t109.5 -62t162 -25v944h164v-944q178 3 278.5 96.5t100.5 271.5v576h163v-563z" />
    <glyph glyph-name="uni03A9" unicode="&#x3a9;" horiz-adv-x="1431" 
d="M1298 698q0 -181 -69 -329t-191 -224h250l-26 -145h-404v145q57 32 99.5 73t78.5 102.5t55 150.5t19 203q0 265 -78 428q-40 84 -122 138t-197 54q-99 0 -183 -44.5t-124 -119.5q-42 -79 -64.5 -163.5t-22.5 -204.5q0 -113 15 -205.5t38 -155t58.5 -114t68.5 -82.5
t76 -60v-145h-438l27 145h225q-121 94 -188.5 250t-67.5 332q0 336 180 535q151 168 400 168q70 0 133.5 -14.5t110 -37t87.5 -54.5t67.5 -61.5t49.5 -62.5q69 -103 103 -221t34 -281z" />
    <glyph glyph-name="Iotadieresis" unicode="&#x3aa;" horiz-adv-x="552" 
d="M358 0h-163v1405h163v-1405zM592 1599q0 -44 -31 -76t-74 -32q-44 0 -76 32t-32 76q0 43 31 74t75 31q43 0 75 -31t32 -74zM170 1599q0 -45 -30 -76.5t-74 -31.5t-75.5 32t-31.5 76q0 43 30.5 74t73.5 31q44 0 75.5 -31t31.5 -74z" />
    <glyph glyph-name="Upsilondieresis" unicode="&#x3ab;" horiz-adv-x="1062" 
d="M1073 1405l-457 -858v-547h-174v557l-452 848h207l266 -537q15 -30 39.5 -84.5t32.5 -72.5q15 41 75 157l271 537h192zM846 1599q0 -44 -31 -76t-74 -32q-44 0 -76 32t-32 76q0 43 31 74t75 31q43 0 75 -31t32 -74zM424 1599q0 -45 -30.5 -76.5t-74.5 -31.5t-75 32
t-31 76q0 43 30.5 74t73.5 31q44 0 75.5 -31t31.5 -74z" />
    <glyph glyph-name="alphatonos" unicode="&#x3ac;" horiz-adv-x="1175" 
d="M1053 86l-82 -115q-53 17 -90 56.5t-50 93.5q-75 -75 -145 -109.5t-156 -34.5q-133 0 -233 84q-164 138 -164 418q0 151 22.5 244.5t73.5 163.5q57 78 136.5 121t169.5 43q159 0 288 -144q6 78 21 113h157q-30 -90 -30 -262v-422q0 -130 13.5 -175t68.5 -75zM817 270v492
q-41 65 -113.5 105t-146.5 40q-67 0 -122 -33t-85 -92q-27 -52 -37 -109t-10 -157q0 -152 25 -225t71 -115q64 -61 170 -61q79 0 144 40.5t104 114.5zM809 1556l-211 -401l-76 33l144 430z" />
    <glyph glyph-name="epsilontonos" unicode="&#x3ad;" horiz-adv-x="1034" 
d="M940 100q-152 -127 -422 -127q-52 0 -101.5 7.5t-103.5 28t-94 52.5t-66 86.5t-26 124.5q0 108 66 177.5t176 93.5q-100 26 -152.5 84t-52.5 139q0 120 106 203.5t265 83.5q231 0 385 -142l-70 -92q-143 107 -309 107q-93 0 -150 -44.5t-57 -111.5q0 -47 19.5 -82
t52.5 -54.5t70.5 -28.5t78.5 -9h119v-117h-115q-50 0 -92.5 -8.5t-81.5 -28t-61.5 -57.5t-22.5 -92q0 -65 39 -109t92.5 -61t114.5 -17q214 0 332 97zM788 1556l-210 -401l-76 33l143 430z" />
    <glyph glyph-name="etatonos" unicode="&#x3ae;" horiz-adv-x="1138" 
d="M1026 82l-82 -115q-94 31 -131 109q-31 61 -31 160v454q0 80 -7.5 111.5t-29.5 58.5q-37 43 -112 43q-61 0 -144 -42t-139 -101v-760h-155v786q0 58 -8.5 109.5t-16.5 73t-14 32.5l155 43q10 -18 23.5 -64.5t13.5 -94.5q157 157 322 157q83 0 151 -40.5t99 -108.5
q24 -56 24 -119v-442q0 -130 13.5 -175t68.5 -75zM809 1556l-211 -401l-76 33l144 430z" />
    <glyph glyph-name="iotatonos" unicode="&#x3af;" horiz-adv-x="536" 
d="M455 2q-50 -22 -103 -22q-75 0 -121 43q-49 43 -49 145v637q0 125 -24 209l159 30q4 -11 9.5 -37.5t11.5 -83.5t6 -120v-598q0 -60 11.5 -81.5t45.5 -21.5q9 0 21 4zM502 1556l-211 -401l-76 33l143 430z" />
    <glyph glyph-name="upsilondieresistonos" unicode="&#x3b0;" horiz-adv-x="1114" 
d="M938 324q0 -154 -106.5 -255.5t-288.5 -101.5q-184 0 -275.5 87t-91.5 243v715l158 30v-712q0 -122 46.5 -181t170.5 -59q229 0 229 242v678l158 26v-712zM915 1272q0 -44 -30.5 -76.5t-73.5 -32.5q-44 0 -76.5 32.5t-32.5 76.5q0 43 31.5 73.5t75.5 30.5
q43 0 74.5 -30.5t31.5 -73.5zM768 1593l-211 -401l-76 33l144 430zM410 1272q0 -45 -30.5 -77t-74.5 -32t-75 32t-31 77q0 43 30.5 73.5t73.5 30.5q44 0 75.5 -30.5t31.5 -73.5z" />
    <glyph glyph-name="alpha" unicode="&#x3b1;" horiz-adv-x="1175" 
d="M1053 86l-82 -115q-53 17 -90 56.5t-50 93.5q-75 -75 -145 -109.5t-156 -34.5q-133 0 -233 84q-164 138 -164 418q0 151 22.5 244.5t73.5 163.5q57 78 136.5 121t169.5 43q159 0 288 -144q6 78 21 113h157q-30 -90 -30 -262v-422q0 -130 13.5 -175t68.5 -75zM817 270v492
q-41 65 -113.5 105t-146.5 40q-67 0 -122 -33t-85 -92q-27 -52 -37 -109t-10 -157q0 -152 25 -225t71 -115q64 -61 170 -61q79 0 144 40.5t104 114.5z" />
    <glyph glyph-name="beta" unicode="&#x3b2;" horiz-adv-x="1157" 
d="M1040 418q0 -59 -16 -120t-51.5 -120t-85 -104t-122 -73t-157.5 -28q-67 0 -140 32t-126 87v-487l-158 -31v1425q0 218 93.5 324.5t310.5 106.5q168 0 272.5 -100.5t104.5 -250.5q0 -112 -55.5 -190t-168.5 -109q148 -34 223.5 -130.5t75.5 -231.5zM860 393
q0 157 -84.5 230t-259.5 73h-29l31 119q132 0 202.5 61.5t70.5 182.5q0 108 -57.5 180t-168.5 72q-223 0 -223 -289v-782q118 -134 252 -134q66 0 118.5 26t84 68.5t47.5 92t16 100.5z" />
    <glyph glyph-name="gamma" unicode="&#x3b3;" horiz-adv-x="995" 
d="M944 1020l-358 -1020v-395l-162 -31v426l-264 817q-26 84 -64 84q-29 0 -51 -14l-45 106q70 45 141 45q125 0 166 -141l164 -545q27 -86 39 -151h4q23 94 41 151l221 668h168z" />
    <glyph glyph-name="delta" unicode="&#x3b4;" horiz-adv-x="1124" 
d="M1001 494q0 -249 -120 -385t-318 -136q-209 0 -324.5 144.5t-115.5 398.5q0 232 115 368t315 136q-187 166 -315 242l24 143h651l-22 -137h-422q180 -113 319 -267q213 -230 213 -507zM819 481q0 64 -4.5 113.5t-20.5 107.5t-43 96.5t-77.5 64.5t-118.5 26
q-65 0 -113 -21.5t-75 -54.5t-43.5 -81.5t-21.5 -92t-5 -96.5q0 -107 17 -197t46 -137q28 -46 84.5 -74.5t122.5 -28.5q79 0 137 40t84 114q31 85 31 221z" />
    <glyph glyph-name="epsilon" unicode="&#x3b5;" horiz-adv-x="1034" 
d="M940 100q-152 -127 -422 -127q-52 0 -101.5 7.5t-103.5 28t-94 52.5t-66 86.5t-26 124.5q0 108 66 177.5t176 93.5q-100 26 -152.5 84t-52.5 139q0 120 106 203.5t265 83.5q231 0 385 -142l-70 -92q-143 107 -309 107q-93 0 -150 -44.5t-57 -111.5q0 -47 19.5 -82
t52.5 -54.5t70.5 -28.5t78.5 -9h119v-117h-115q-50 0 -92.5 -8.5t-81.5 -28t-61.5 -57.5t-22.5 -92q0 -65 39 -109t92.5 -61t114.5 -17q214 0 332 97z" />
    <glyph glyph-name="zeta" unicode="&#x3b6;" horiz-adv-x="917" 
d="M907 1405l-22 -135q-262 -174 -418 -405.5t-156 -479.5q0 -48 10.5 -85t36.5 -69.5t75.5 -50.5t121.5 -18h102q120 0 183 -69.5t63 -188.5q0 -87 -34.5 -154.5t-116.5 -175.5l-99 68q55 77 74.5 119t20.5 106q0 52 -28.5 92.5t-94.5 40.5h-117q-183 0 -279 99t-96 253
q0 270 146.5 505.5t394.5 410.5h-508l22 137h719z" />
    <glyph glyph-name="eta" unicode="&#x3b7;" horiz-adv-x="1138" 
d="M1026 82l-82 -115q-94 31 -131 109q-31 61 -31 160v454q0 80 -7.5 111.5t-29.5 58.5q-37 43 -112 43q-61 0 -144 -42t-139 -101v-760h-155v786q0 58 -8.5 109.5t-16.5 73t-14 32.5l155 43q10 -18 23.5 -64.5t13.5 -94.5q157 157 322 157q83 0 151 -40.5t99 -108.5
q24 -56 24 -119v-442q0 -130 13.5 -175t68.5 -75z" />
    <glyph glyph-name="theta" unicode="&#x3b8;" horiz-adv-x="1146" 
d="M1004 694q0 -350 -109 -530q-56 -91 -141.5 -141t-180.5 -50q-98 0 -181 50t-140 145q-60 100 -84.5 229t-24.5 310q0 352 109 532q55 91 139.5 141t179.5 50q99 0 182.5 -50t141.5 -145q60 -100 84.5 -229.5t24.5 -311.5zM825 805q-8 212 -45 315q-64 178 -209 178
q-125 0 -194 -141q-54 -110 -60 -352h508zM829 659v19h-512q3 -260 50 -395q64 -179 206 -179q130 0 199 142q33 67 45 162.5t12 250.5z" />
    <glyph glyph-name="iota" unicode="&#x3b9;" horiz-adv-x="536" 
d="M455 2q-50 -22 -103 -22q-75 0 -121 43q-49 43 -49 145v637q0 125 -24 209l159 30q4 -11 9.5 -37.5t11.5 -83.5t6 -120v-598q0 -60 11.5 -81.5t45.5 -21.5q9 0 21 4z" />
    <glyph glyph-name="kappa" unicode="&#x3ba;" horiz-adv-x="1024" 
d="M1014 0h-213l-447 549v-549h-159v805q0 54 -6 101t-11.5 68t-9.5 30l160 40q4 -11 9.5 -38t11 -83.5t5.5 -119.5v-252l412 469h203l-426 -469z" />
    <glyph glyph-name="lambda" unicode="&#x3bb;" horiz-adv-x="1009" 
d="M999 2q-50 -22 -102 -22q-30 0 -53.5 5.5t-48 19.5t-43 42.5t-31.5 71.5l-166 551l-63 215h-5q-30 -156 -61 -254l-209 -662l-158 54l220 639q76 220 102 366l65 -10l-40 127q-71 215 -207 215q-58 0 -105 -21l-22 103q74 41 168 41q66 0 114.5 -22.5t87 -74t67 -115.5
t62.5 -167l322 -969q11 -33 53 -33q9 0 21 4z" />
    <glyph glyph-name="uni03BC" unicode="&#x3bc;" horiz-adv-x="1142" 
d="M1018 66l-103 -109q-51 41 -75.5 77t-34.5 87q-117 -156 -324 -156q-92 0 -137 39v-399l-160 -31v1438l160 32v-735q0 -75 12 -109t47 -59q56 -39 127 -39q75 0 147.5 51t113.5 134v723l157 26v-723q0 -109 12.5 -158.5t57.5 -88.5z" />
    <glyph glyph-name="nu" unicode="&#x3bd;" horiz-adv-x="968" 
d="M938 1020l-383 -1030h-158l-366 1022l164 35l237 -703q30 -89 49 -174h4q26 104 50 172l233 678h170z" />
    <glyph glyph-name="xi" unicode="&#x3be;" horiz-adv-x="987" 
d="M946 1405l-22 -137h-301q-76 0 -132 -43t-80 -99.5t-24 -113.5q0 -89 67.5 -152t176.5 -63h203l-19 -115h-168q-160 0 -248 -82t-88 -205q0 -46 14 -87.5t43 -76.5t81.5 -56t121.5 -21h123q121 0 183.5 -66t62.5 -184q0 -46 -9 -85.5t-34 -83.5t-45 -73t-64 -88l-98 68
q55 76 74 118t20 107q0 52 -28 92.5t-94 40.5h-138q-169 0 -280 107t-111 255q0 130 85 238t204 143q-99 25 -155 100.5t-56 164.5q0 73 42.5 144.5t113.5 115.5h-201l22 137h758z" />
    <glyph glyph-name="omicron" unicode="&#x3bf;" horiz-adv-x="1124" 
d="M1001 494q0 -249 -120 -385t-318 -136q-209 0 -324.5 144.5t-115.5 398.5q0 249 116.5 392t317.5 143q225 0 350 -179q94 -137 94 -378zM819 481q0 210 -47 307q-31 64 -90.5 98t-126.5 34q-68 0 -125.5 -30t-83.5 -81q-49 -94 -49 -266q0 -107 17 -197t46 -137
q28 -46 84.5 -74.5t122.5 -28.5q79 0 137 40t84 114q31 85 31 221z" />
    <glyph glyph-name="pi" unicode="&#x3c0;" horiz-adv-x="1126" 
d="M1065 1020l-49 -127h-103v-561q0 -130 13.5 -175t68.5 -75l-82 -115q-87 28 -125 109q-30 59 -30 160v657h-375v-893h-156v893h-135v127h973z" />
    <glyph glyph-name="rho" unicode="&#x3c1;" horiz-adv-x="1103" 
d="M981 512q0 -120 -19 -200t-63 -152q-116 -187 -315 -187q-78 0 -152.5 31.5t-128.5 87.5v-487l-160 -31v1001q0 225 104.5 348.5t315.5 123.5q204 0 311 -139.5t107 -395.5zM811 492q0 430 -270 430q-108 0 -173 -85t-65 -237v-360q118 -134 250 -134q70 0 129.5 35
t85.5 92q43 92 43 259z" />
    <glyph glyph-name="sigma1" unicode="&#x3c2;" horiz-adv-x="933" 
d="M862 -96q0 -87 -33.5 -152.5t-117.5 -177.5l-99 68q57 78 76 120t19 105q0 80 -49 114.5t-134 45.5q-198 27 -294.5 135.5t-96.5 322.5q0 162 40.5 266t113.5 177q119 119 276 119q88 0 150.5 -28.5t128.5 -82.5l-88 -111q-56 46 -97 64t-98 18q-60 0 -112 -31t-80 -83
q-58 -107 -58 -308q0 -82 18.5 -139.5t55.5 -91t77 -51t99 -29.5q48 -10 74.5 -16t64.5 -17.5t57.5 -23.5t43.5 -32t35.5 -44.5t19.5 -59t8 -77.5z" />
    <glyph glyph-name="sigma" unicode="&#x3c3;" horiz-adv-x="1157" 
d="M1100 1020l-49 -127h-187q137 -140 137 -399q0 -249 -120 -385t-318 -136q-209 0 -324.5 144.5t-115.5 398.5q0 230 116.5 367t319.5 137h541zM819 481q0 67 -3.5 115t-19 108t-42 98t-77.5 64.5t-122 26.5q-65 0 -113 -20t-75.5 -51t-43.5 -79t-21 -94t-5 -106
q0 -107 17 -197t46 -137q28 -46 84.5 -74.5t122.5 -28.5q79 0 137 40t84 114q31 85 31 221z" />
    <glyph glyph-name="tau" unicode="&#x3c4;" horiz-adv-x="829" 
d="M772 1020l-49 -121h-254v-657q0 -85 28.5 -118.5t102.5 -33.5q56 0 100 21l23 -103q-77 -41 -180 -41q-70 0 -133 29q-53 26 -76 75t-23 128v700h-270v121h731z" />
    <glyph glyph-name="upsilon" unicode="&#x3c5;" horiz-adv-x="1114" 
d="M938 324q0 -154 -106.5 -255.5t-288.5 -101.5q-184 0 -275.5 87t-91.5 243v715l158 30v-712q0 -122 46.5 -181t170.5 -59q229 0 229 242v678l158 26v-712z" />
    <glyph glyph-name="phi" unicode="&#x3c6;" horiz-adv-x="1429" 
d="M1309 494q0 -246 -138 -382t-370 -139v-368l-162 -31v399q-250 0 -384 143.5t-134 399.5q0 214 99 349.5t278 170.5v-135q-112 -33 -157.5 -117t-45.5 -241q0 -107 23 -196.5t61 -137.5q38 -46 106 -74t154 -29v941q82 4 145 4q262 0 412 -179q113 -137 113 -378z
M1128 481q0 211 -61 307q-40 62 -113 97t-153 35v-814q105 0 178.5 40t107.5 114q41 83 41 221z" />
    <glyph glyph-name="chi" unicode="&#x3c7;" horiz-adv-x="956" 
d="M946 0h-194l-277 434l-276 -434h-189l381 565l-315 455h196l203 -340l197 340h186l-303 -455z" />
    <glyph glyph-name="psi" unicode="&#x3c8;" horiz-adv-x="1398" 
d="M1231 412q0 -196 -117 -311.5t-334 -127.5v-368l-162 -31v399q-232 10 -341 126.5t-109 338.5v574l158 30v-620q0 -146 67 -223.5t225 -87.5v1138q0 125 -24 209l160 31q4 -11 9.5 -38t11 -84t5.5 -120v-1136q154 8 223.5 75.5t69.5 216.5v609l158 30v-630z" />
    <glyph glyph-name="omega" unicode="&#x3c9;" horiz-adv-x="1419" 
d="M1296 393q0 -198 -89.5 -309t-254.5 -111q-75 0 -143 54.5t-98 146.5q-33 -93 -100.5 -147t-143.5 -54q-165 0 -254.5 111t-89.5 309q0 199 72 371.5t188 292.5l84 -45q-79 -118 -126.5 -264.5t-47.5 -301.5q0 -159 46.5 -246t133.5 -87q70 0 113 70t43 175v402h162v-402
q0 -106 40.5 -175.5t114.5 -69.5q87 0 133.5 87t46.5 246q0 151 -50 299.5t-122 262.5l76 55q116 -122 191 -297.5t75 -372.5z" />
    <glyph glyph-name="iotadieresis" unicode="&#x3ca;" horiz-adv-x="536" 
d="M455 2q-50 -22 -103 -22q-75 0 -121 43q-49 43 -49 145v637q0 125 -24 209l159 30q4 -11 9.5 -37.5t11.5 -83.5t6 -120v-598q0 -60 11.5 -81.5t45.5 -21.5q9 0 21 4zM215 1272q0 -45 -30 -77t-74 -32t-75.5 32.5t-31.5 76.5q0 43 31 73.5t74 30.5q44 0 75 -30.5t31 -73.5
zM535 1272q0 -45 -30.5 -77t-74.5 -32t-75 32t-31 77q0 43 30.5 73.5t73.5 30.5q44 0 75.5 -30.5t31.5 -73.5z" />
    <glyph glyph-name="upsilondieresis" unicode="&#x3cb;" horiz-adv-x="1114" 
d="M938 324q0 -154 -106.5 -255.5t-288.5 -101.5q-184 0 -275.5 87t-91.5 243v715l158 30v-712q0 -122 46.5 -181t170.5 -59q229 0 229 242v678l158 26v-712zM874 1272q0 -44 -30.5 -76.5t-73.5 -32.5q-44 0 -76 32.5t-32 76.5q0 43 31 73.5t75 30.5q43 0 74.5 -30.5
t31.5 -73.5zM449 1272q0 -45 -30.5 -77t-74.5 -32t-75 32t-31 77q0 43 30.5 73.5t73.5 30.5q44 0 75.5 -30.5t31.5 -73.5z" />
    <glyph glyph-name="omicrontonos" unicode="&#x3cc;" horiz-adv-x="1124" 
d="M1001 494q0 -249 -120 -385t-318 -136q-209 0 -324.5 144.5t-115.5 398.5q0 249 116.5 392t317.5 143q225 0 350 -179q94 -137 94 -378zM819 481q0 210 -47 307q-31 64 -90.5 98t-126.5 34q-68 0 -125.5 -30t-83.5 -81q-49 -94 -49 -266q0 -107 17 -197t46 -137
q28 -46 84.5 -74.5t122.5 -28.5q79 0 137 40t84 114q31 85 31 221zM809 1556l-211 -401l-76 33l144 430z" />
    <glyph glyph-name="upsilontonos" unicode="&#x3cd;" horiz-adv-x="1114" 
d="M938 324q0 -154 -106.5 -255.5t-288.5 -101.5q-184 0 -275.5 87t-91.5 243v715l158 30v-712q0 -122 46.5 -181t170.5 -59q229 0 229 242v678l158 26v-712zM788 1556l-210 -401l-76 33l143 430z" />
    <glyph glyph-name="omegatonos" unicode="&#x3ce;" horiz-adv-x="1419" 
d="M1296 393q0 -198 -89.5 -309t-254.5 -111q-75 0 -143 54.5t-98 146.5q-33 -93 -100.5 -147t-143.5 -54q-165 0 -254.5 111t-89.5 309q0 199 72 371.5t188 292.5l84 -45q-79 -118 -126.5 -264.5t-47.5 -301.5q0 -159 46.5 -246t133.5 -87q70 0 113 70t43 175v402h162v-402
q0 -106 40.5 -175.5t114.5 -69.5q87 0 133.5 87t46.5 246q0 151 -50 299.5t-122 262.5l76 55q116 -122 191 -297.5t75 -372.5zM952 1556l-211 -401l-75 33l143 430z" />
    <glyph glyph-name="uni03D0" unicode="&#x3d0;" horiz-adv-x="1157" 
d="M184 254v745q0 218 93.5 324.5t310.5 106.5q168 0 272.5 -100.5t104.5 -250.5q0 -112 -55.5 -190t-168.5 -109q148 -34 223.5 -130.5t75.5 -231.5q0 -59 -16 -120t-51.5 -120t-85 -104t-122 -73t-157.5 -28q-67 0 -140 32t-126 87q-10 -55 -29 -92h-159q30 64 30 254z
M860 393q0 157 -84.5 230t-259.5 73h-29l31 119q132 0 202.5 61.5t70.5 182.5q0 108 -57.5 180t-168.5 72q-223 0 -223 -289v-782q118 -134 252 -134q66 0 118.5 26t84 68.5t47.5 92t16 100.5z" />
    <glyph glyph-name="theta1" unicode="&#x3d1;" horiz-adv-x="1091" 
d="M147 362q0 125 -24 209l151 31q4 -11 9.5 -38t11.5 -84t6 -120q0 -121 60 -187.5t169 -66.5q73 0 124 34.5t80 104t42.5 155t18.5 206.5q-74 11 -135.5 23t-132.5 32t-126 44.5t-108.5 61t-88.5 80t-56 102.5t-21 128q0 155 104.5 254t264.5 99q104 0 187 -40t135.5 -106
t87 -157.5t49 -188.5t14.5 -205q0 -385 -113.5 -572.5t-325.5 -187.5q-187 0 -285 108t-98 281zM301 1057q0 -66 26 -118t67.5 -86.5t108 -61t133.5 -41.5t157 -29q0 51 -2.5 98.5t-10 108.5t-20 112.5t-35.5 103t-53.5 87t-76 58t-101.5 22.5q-79 0 -136 -70t-57 -184z" />
    <glyph glyph-name="Upsilon1" unicode="&#x3d2;" horiz-adv-x="985" 
d="M559 485v-485h-174v485q0 572 -395 813l104 134q318 -188 383 -578q97 388 418 578l100 -129q-217 -133 -326.5 -350t-109.5 -468z" />
    <glyph glyph-name="uni03D3" unicode="&#x3d3;" horiz-adv-x="985" 
d="M559 485v-485h-174v485q0 572 -395 813l104 134q318 -188 383 -578q97 388 418 578l100 -129q-217 -133 -326.5 -350t-109.5 -468zM-160 1368l-211 -401l-75 32l143 431z" />
    <glyph glyph-name="uni03D4" unicode="&#x3d4;" horiz-adv-x="985" 
d="M559 485v-485h-174v485q0 572 -395 813l104 134q318 -188 383 -578q97 388 418 578l100 -129q-217 -133 -326.5 -350t-109.5 -468zM793 1657q0 -44 -31 -76.5t-74 -32.5q-44 0 -76 32.5t-32 76.5q0 43 31 73.5t75 30.5q43 0 75 -31t32 -73zM369 1657q0 -45 -30.5 -77
t-74.5 -32t-75 32t-31 77q0 43 30.5 73.5t73.5 30.5q44 0 75.5 -30.5t31.5 -73.5z" />
    <glyph glyph-name="phi1" unicode="&#x3d5;" horiz-adv-x="1441" 
d="M1296 494q0 -239 -134.5 -375.5t-358.5 -145.5v-368l-162 -31v401q-232 12 -359.5 154.5t-127.5 386.5q0 238 129 379.5t358 153.5v200q0 121 -25 209l160 31q4 -11 9.5 -38t11.5 -84t6 -120v-196q116 -4 215 -51.5t166 -127.5q112 -136 112 -378zM1116 481
q0 211 -61 307q-37 58 -106.5 92.5t-145.5 39.5v-814q98 4 169 44.5t103 109.5q41 83 41 221zM641 109v809q-84 -6 -151 -35t-97 -74q-65 -95 -65 -266q0 -107 23 -196.5t61 -137.5q32 -40 93 -66t136 -34z" />
    <glyph glyph-name="uni0400" unicode="&#x400;" horiz-adv-x="1064" 
d="M983 0h-788v1405h768l-23 -139h-575v-461h481v-146h-481v-514h618v-145zM813 1581l-53 -96l-459 205l88 157z" />
    <glyph glyph-name="uni0401" unicode="&#x401;" horiz-adv-x="1064" 
d="M983 0h-788v1405h768l-23 -139h-575v-461h481v-146h-481v-514h618v-145zM895 1622q0 -44 -30.5 -76.5t-73.5 -32.5q-44 0 -76.5 32.5t-32.5 76.5q0 43 31 73.5t75 30.5q43 0 75 -31t32 -73zM471 1622q0 -45 -30 -77t-74 -32t-75.5 32.5t-31.5 76.5q0 43 31 73.5t74 30.5
q44 0 75 -30.5t31 -73.5z" />
    <glyph glyph-name="uni0402" unicode="&#x402;" horiz-adv-x="1351" 
d="M924 1405l-9 -135h-399v-457q84 38 149.5 56t139.5 18q166 0 266 -96q119 -112 119 -345q0 -116 -23 -202.5t-90 -159.5q-100 -109 -248 -109q-100 0 -196 52l39 129l28 -17q55 -33 134 -33q93 0 137 78q19 32 28.5 76.5t11 73.5t1.5 80q0 60 -2 96.5t-12.5 81
t-30.5 74.5q-59 88 -195 88q-129 0 -256 -68v-686h-168v1270h-358v135h934z" />
    <glyph glyph-name="uni0403" unicode="&#x403;" horiz-adv-x="851" 
d="M903 1405l-26 -139h-512v-1266h-170v1405h708zM842 1690l-459 -205l-53 96l424 266z" />
    <glyph glyph-name="uni0404" unicode="&#x404;" horiz-adv-x="1202" 
d="M850 797v-131h-526v-33q0 -287 108 -408q45 -50 120 -84.5t179 -34.5q166 0 322 121l73 -127q-54 -38 -129 -71q-131 -54 -258 -54q-117 0 -222 39t-179 109q-89 84 -147 233t-58 357q0 358 178 549q154 168 408 168q220 0 383 -127l-68 -111q-80 57 -154.5 81.5
t-162.5 24.5q-180 0 -281 -110q-52 -58 -82 -157t-30 -197v-37h526z" />
    <glyph glyph-name="uni0405" unicode="&#x405;" horiz-adv-x="1185" 
d="M1073 397q0 -100 -50.5 -189.5t-143.5 -148.5q-134 -86 -316 -86q-245 0 -450 127l73 131q167 -120 377 -120q79 0 129 13.5t94 47.5q101 76 101 201q0 186 -252 262l-141 43q-101 31 -156 57.5t-94 67.5q-88 94 -88 229q0 180 125 292t329 112q223 0 424 -136l-73 -120
q-101 66 -176.5 92t-166.5 26q-132 0 -206 -61.5t-74 -169.5q0 -84 54 -136.5t179 -92.5l162 -52q95 -30 150.5 -61t97.5 -80q43 -50 67.5 -116t24.5 -132z" />
    <glyph glyph-name="uni0406" unicode="&#x406;" horiz-adv-x="552" 
d="M358 0h-163v1405h163v-1405z" />
    <glyph glyph-name="uni0407" unicode="&#x407;" horiz-adv-x="552" 
d="M588 1608q0 -44 -31 -76.5t-74 -32.5q-44 0 -76 32.5t-32 76.5q0 43 31 73.5t75 30.5q43 0 75 -31t32 -73zM182 1608q0 -45 -30 -77t-74 -32t-75.5 32.5t-31.5 76.5q0 43 31 73.5t74 30.5q44 0 75 -30.5t31 -73.5zM358 0h-163v1405h163v-1405z" />
    <glyph glyph-name="uni0408" unicode="&#x408;" horiz-adv-x="571" 
d="M377 240q0 -137 -10 -201.5t-41 -120.5q-69 -123 -238 -180l-82 104q55 23 99.5 60t68.5 78q20 35 27.5 91t7.5 165v1169h168v-1165z" />
    <glyph glyph-name="uni0409" unicode="&#x409;" horiz-adv-x="1830" 
d="M1022 1405v-569h207q237 0 356 -82q69 -47 116.5 -131t47.5 -203q0 -103 -38.5 -188t-102.5 -138q-118 -94 -359 -94h-395v1274h-350l-19 -338q-11 -194 -20.5 -305.5t-27 -234t-45.5 -196.5t-70 -118q-41 -45 -90.5 -63t-114.5 -25l-70 -8l-31 116l41 13q45 13 82 32
q65 33 102.5 121.5t61.5 275t41 525.5l16 336h662zM1022 133h252q64 0 114.5 11.5t94.5 48.5q90 78 90 223q0 166 -119 243q-33 20 -73 30t-66.5 11.5t-75.5 1.5h-217v-569z" />
    <glyph glyph-name="uni040A" unicode="&#x40a;" horiz-adv-x="1902" 
d="M1094 1405v-580h206q238 0 357 -82q69 -48 116.5 -129.5t47.5 -193.5q0 -102 -39 -188.5t-103 -137.5q-117 -94 -358 -94h-395v692h-564v-692h-167v1405h167v-580h564v580h168zM1094 133h252q64 0 113.5 11.5t94.5 48.5q10 9 21 21.5t29 40t29.5 70t11.5 91.5
q0 155 -119 233q-33 20 -73 30t-66.5 11.5t-75.5 1.5h-217v-559z" />
    <glyph glyph-name="uni040B" unicode="&#x40b;" horiz-adv-x="1343" 
d="M924 1405l-9 -139h-399v-455q76 39 144.5 57.5t152.5 18.5q163 0 260 -76q107 -89 107 -258v-553h-168v553q0 55 -19.5 95.5t-44 60t-59.5 30.5t-55 13t-41 2q-119 0 -277 -68v-686h-168v1266h-358v139h934z" />
    <glyph glyph-name="uni040C" unicode="&#x40c;" horiz-adv-x="1236" 
d="M1108 1421l33 -116l-68 -17q-50 -15 -65 -28q-36 -28 -52 -93l-55 -200q-25 -92 -61 -140q-41 -55 -97 -79v-5q50 -20 84 -61q45 -55 70 -150l80 -282q0 -1 4.5 -17.5t5.5 -20t6.5 -17t11 -19t15.5 -14t22 -15.5q21 -12 82 -32l41 -13l-30 -116l-115 12q-121 12 -168 76
q-37 48 -61 178l-46 227q-18 103 -67 150q-49 49 -139 49h-177v-678h-167v1405h167v-590h197q90 0 135 45q45 43 66 144l41 202q19 102 65 148q48 46 152 57zM879 1690l-459 -205l-53 96l424 266z" />
    <glyph glyph-name="uni040D" unicode="&#x40d;" horiz-adv-x="1366" 
d="M1171 0h-167v975q0 138 10 268q-19 -76 -56 -147l-589 -1096h-174v1405h167v-993q0 -93 -16 -224q32 101 82 195l543 1022h200v-1405zM905 1581l-53 -96l-459 205l88 157z" />
    <glyph glyph-name="uni040E" unicode="&#x40e;" horiz-adv-x="980" 
d="M147 1405l281 -707q46 -112 74 -206q65 204 69 215l232 698h164l-357 -1038l-17 -51t-25.5 -73.5t-28.5 -70.5q-45 -101 -101 -141q-59 -44 -190 -62l-60 -8l-30 119l41 10q39 12 88 33q56 27 88 74q35 48 61 135l21 65l-78 -6l-414 1014h182zM698 1763l86 -61
q-39 -78 -96 -123q-83 -63 -199 -63q-115 0 -198 63q-57 45 -96 123l86 61q42 -57 92 -84q48 -28 116 -28q69 0 117 28q50 27 92 84z" />
    <glyph glyph-name="uni040F" unicode="&#x40f;" horiz-adv-x="1265" 
d="M1071 1405v-1405h-354v-373h-168v373h-354v1405h167v-1274h541v1274h168z" />
    <glyph glyph-name="uni0410" unicode="&#x410;" horiz-adv-x="1193" 
d="M1174 0h-191l-133 432h-524l-136 -432h-170l469 1405h220zM807 569l-215 688l-221 -688h436z" />
    <glyph glyph-name="uni0411" unicode="&#x411;" horiz-adv-x="1226" 
d="M557 0h-362v1405h792l-22 -139h-603v-443h232q245 0 364 -84q72 -52 114 -139.5t42 -200.5q0 -178 -110 -284q-33 -33 -74.5 -55.5t-78 -34t-92.5 -17.5t-94 -7t-108 -1zM362 137h293q143 0 209 64q74 71 74 200q0 75 -24.5 135.5t-67.5 94.5q-33 26 -78.5 38.5
t-76.5 14.5t-87 2h-242v-549z" />
    <glyph glyph-name="uni0412" unicode="&#x412;" horiz-adv-x="1247" 
d="M1114 385q0 -117 -58.5 -211t-160.5 -133q-62 -24 -126 -32.5t-212 -8.5h-362v1405h202q206 0 284.5 -6t133.5 -25q107 -37 173.5 -125.5t66.5 -195.5q0 -109 -66 -189.5t-186 -118.5q120 -22 184 -73q65 -49 96 -126t31 -161zM938 399q0 93 -47.5 163t-122.5 85
q-73 15 -164 15h-248v-525h299q151 0 217 65.5t66 196.5zM868 1030q0 83 -43.5 142.5t-115.5 78.5q-51 13 -154 13h-199v-463h244q114 0 164.5 25t81.5 96q22 52 22 108z" />
    <glyph glyph-name="uni0413" unicode="&#x413;" horiz-adv-x="851" 
d="M903 1405l-26 -139h-512v-1266h-170v1405h708z" />
    <glyph glyph-name="uni0414" unicode="&#x414;" horiz-adv-x="1255" 
d="M1036 1405v-1274h144v-504h-168v373h-828v-373h-164v504h89q110 229 167 455q67 263 82 606l11 213h667zM510 1274l-12 -191q-3 -56 -10 -130t-27.5 -204.5t-48.5 -230.5q-46 -161 -146 -387h602v1143h-358z" />
    <glyph glyph-name="uni0415" unicode="&#x415;" horiz-adv-x="1064" 
d="M983 0h-788v1405h768l-23 -139h-575v-461h481v-146h-481v-514h618v-145z" />
    <glyph glyph-name="uni0416" unicode="&#x416;" horiz-adv-x="1822" 
d="M1700 1421l33 -116l-68 -17q-51 -15 -66 -28q-34 -27 -51 -93l-55 -200q-25 -92 -61 -140q-41 -55 -97 -79v-5q50 -20 84 -61q45 -55 70 -150l80 -282q0 -1 4.5 -17.5t5.5 -20t6.5 -17t11 -19t15.5 -14t22 -15.5q21 -12 82 -32l41 -13l-31 -116l-114 12q-115 12 -168 76
q-21 27 -32.5 60.5t-29.5 117.5l-45 227q-18 103 -67 150q-49 49 -140 49h-135v-678h-168v678h-135q-90 0 -139 -49q-50 -48 -68 -150l-45 -227q-17 -83 -29 -117.5t-32 -60.5q-53 -64 -168 -76l-115 -12l-30 116l40 13q61 20 82 32q11 6 19 12t14.5 14.5t10.5 13.5t8 16
t5 14.5t5 17t4 15.5l80 282q26 97 69 150q34 41 84 61v5q-55 24 -96 79q-36 48 -61 140l-56 200q-17 66 -51 93q-15 13 -65 28l-68 17l33 116l90 -10q104 -11 152 -57q46 -46 65 -148l41 -202q21 -101 66 -144q45 -45 135 -45h155v590h168v-590h156q90 0 135 45
q45 43 66 144l41 202q19 102 65 148q48 46 152 57z" />
    <glyph glyph-name="uni0417" unicode="&#x417;" horiz-adv-x="1120" 
d="M496 662h-181v131h154q146 0 215 65q68 63 68 186t-64 187q-67 67 -196 67q-185 0 -318 -116l-74 112q74 58 162 92q116 44 232 44q173 0 284 -76q148 -103 148 -289q0 -149 -97 -240q-66 -59 -153 -84q15 -2 38 -7.5t67 -23t77 -42.5q63 -46 96 -118t33 -153
q0 -212 -180 -334q-130 -88 -318 -88q-103 0 -201.5 27t-144.5 51t-82 49l74 123q157 -119 354 -119q175 0 254 103q56 72 56 178q0 74 -20 127.5t-74 93.5q-34 25 -73 37.5t-65 14.5t-71 2z" />
    <glyph glyph-name="uni0418" unicode="&#x418;" horiz-adv-x="1366" 
d="M1171 0h-167v975q0 138 10 268q-19 -76 -56 -147l-589 -1096h-174v1405h167v-993q0 -93 -16 -224q32 101 82 195l543 1022h200v-1405z" />
    <glyph glyph-name="uni0419" unicode="&#x419;" horiz-adv-x="1366" 
d="M1171 0h-167v975q0 138 10 268q-19 -76 -56 -147l-589 -1096h-174v1405h167v-993q0 -93 -16 -224q32 101 82 195l543 1022h200v-1405zM893 1763l86 -61q-39 -78 -96 -123q-83 -63 -199 -63t-199 63q-57 45 -96 123l86 61q42 -57 92 -84q48 -28 117 -28t117 28
q50 27 92 84z" />
    <glyph glyph-name="uni041A" unicode="&#x41a;" horiz-adv-x="1236" 
d="M1108 1421l33 -116l-68 -17q-50 -15 -65 -28q-36 -28 -52 -93l-55 -200q-25 -92 -61 -140q-41 -55 -97 -79v-5q50 -20 84 -61q45 -55 70 -150l80 -282q0 -1 4.5 -17.5t5.5 -20t6.5 -17t11 -19t15.5 -14t22 -15.5q21 -12 82 -32l41 -13l-30 -116l-115 12q-121 12 -168 76
q-37 48 -61 178l-46 227q-18 103 -67 150q-49 49 -139 49h-177v-678h-167v1405h167v-590h197q90 0 135 45q45 43 66 144l41 202q19 102 65 148q48 46 152 57z" />
    <glyph glyph-name="uni041B" unicode="&#x41b;" horiz-adv-x="1226" 
d="M504 1274l-19 -338q-11 -194 -20.5 -305.5t-27 -234t-45.5 -196.5t-70 -118q-41 -45 -90.5 -63t-114.5 -25l-70 -8l-31 116l41 13q45 13 82 32q65 33 102.5 121.5t61.5 275t41 525.5l16 336h672v-1405h-168v1274h-360z" />
    <glyph glyph-name="uni041C" unicode="&#x41c;" horiz-adv-x="1650" 
d="M1507 0h-168l-82 1030q-10 147 -10 238q-1 -4 -9.5 -40.5t-21.5 -88.5t-24 -90l-301 -1049h-143l-279 997q-62 216 -70 269q-1 -8 -3.5 -57.5t-6 -112.5t-6.5 -97l-78 -999h-162l123 1405h246l256 -918q38 -139 55 -243q31 156 51 227l265 934h247z" />
    <glyph glyph-name="uni041D" unicode="&#x41d;" horiz-adv-x="1312" 
d="M1118 0h-168v680h-592v-680h-163v1405h163v-588h592v588h168v-1405z" />
    <glyph glyph-name="uni041E" unicode="&#x41e;" horiz-adv-x="1394" 
d="M1262 680q0 -202 -48.5 -337t-156.5 -234q-78 -71 -163.5 -103.5t-193.5 -32.5q-245 0 -399 179q-168 192 -168 557q0 335 150 528t409 193q287 0 443 -230q127 -189 127 -520zM1073 655q0 307 -67 447q-40 85 -120 138.5t-194 53.5q-98 0 -179.5 -44.5t-121.5 -119.5
q-72 -135 -72 -387q0 -157 24.5 -287.5t66.5 -201.5q39 -66 125 -109t174 -43q167 0 262 121q54 68 78 165.5t24 266.5z" />
    <glyph glyph-name="uni041F" unicode="&#x41f;" horiz-adv-x="1282" 
d="M1087 0h-167v1274h-558v-1274h-167v1405h892v-1405z" />
    <glyph glyph-name="uni0420" unicode="&#x420;" horiz-adv-x="1122" 
d="M1071 1004q0 -110 -30 -191t-97 -143q-68 -61 -148.5 -86t-191.5 -25h-246v-559h-163v1405h389q114 0 182 -14.5t125 -51.5q180 -118 180 -335zM885 971q0 153 -82 223q-43 37 -105 53.5t-161 16.5h-179v-568h236q87 0 135 17.5t84 58.5q72 81 72 199z" />
    <glyph glyph-name="uni0421" unicode="&#x421;" horiz-adv-x="1173" 
d="M1102 92q-176 -115 -391 -115q-116 0 -222.5 48t-187.5 139q-168 191 -168 534q0 206 76 372t211 259.5t303 93.5q206 0 354 -114l-90 -109q-121 88 -266 88q-242 0 -346 -241q-60 -138 -60 -373q0 -185 45 -297q52 -128 152.5 -195t224.5 -67q146 0 275 90z" />
    <glyph glyph-name="uni0422" unicode="&#x422;" horiz-adv-x="950" 
d="M981 1405l-10 -141h-381v-1264h-162v1264h-377v141h930z" />
    <glyph glyph-name="uni0423" unicode="&#x423;" horiz-adv-x="980" 
d="M147 1405l281 -707q46 -112 74 -206q65 204 69 215l232 698h164l-357 -1038l-17 -51t-25.5 -73.5t-28.5 -70.5q-45 -101 -101 -141q-59 -44 -190 -62l-60 -8l-30 119l41 10q39 12 88 33q56 27 88 74q35 48 61 135l21 65l-78 -6l-414 1014h182z" />
    <glyph glyph-name="uni0424" unicode="&#x424;" horiz-adv-x="1478" 
d="M823 0h-168v227h-32q-204 0 -334 107q-156 132 -156 420t156 420q129 106 334 106h32v207h168v-207h33q205 0 334 -106q156 -132 156 -420t-156 -420q-130 -107 -334 -107h-33v-227zM819 1163v-819h33q151 0 229 76q61 58 77 132.5t16 201.5q0 73 -3.5 119.5t-25.5 110
t-64 103.5q-78 76 -229 76h-33zM659 1163h-32q-152 0 -230 -76q-32 -31 -52 -70.5t-28 -89t-10 -83.5t-2 -88q0 -60 2 -95.5t10 -84.5t28 -87t52 -69q78 -76 230 -76h32v819z" />
    <glyph glyph-name="uni0425" unicode="&#x425;" horiz-adv-x="1118" 
d="M1098 0h-203l-348 645l-330 -645h-197l416 754l-373 651h199l281 -520l268 520h197l-353 -639z" />
    <glyph glyph-name="uni0426" unicode="&#x426;" horiz-adv-x="1323" 
d="M1004 -373v373h-809v1405h167v-1272h558v1272h167v-1272h84v-506h-167z" />
    <glyph glyph-name="uni0427" unicode="&#x427;" horiz-adv-x="1228" 
d="M1034 0h-168v631q-148 -68 -319 -68q-194 0 -293 99q-90 90 -90 241v502h168v-481q0 -125 67 -181q59 -49 176 -49q131 0 291 62v649h168v-1405z" />
    <glyph glyph-name="uni0428" unicode="&#x428;" horiz-adv-x="1736" 
d="M195 1405h163v-1272h428v1272h164v-1272h428v1272h164v-1405h-1347v1405z" />
    <glyph glyph-name="uni0429" unicode="&#x429;" horiz-adv-x="1736" 
d="M1458 -373v373h-1263v1405h163v-1272h428v1272h164v-1272h428v1272h164v-1272h84v-506h-168z" />
    <glyph glyph-name="uni042A" unicode="&#x42a;" horiz-adv-x="1384" 
d="M571 836h211q238 0 357 -82q69 -47 116.5 -131t47.5 -203q0 -103 -39 -188t-103 -138q-117 -94 -358 -94h-400v1272h-401v133h569v-569zM571 133h256q64 0 114.5 11.5t94.5 48.5q90 78 90 223q0 167 -118 243q-33 20 -73 30t-66.5 11.5t-75.5 1.5h-222v-569z" />
    <glyph glyph-name="uni042B" unicode="&#x42b;" horiz-adv-x="1656" 
d="M362 1405v-569h211q238 0 357 -82q69 -47 116.5 -131t47.5 -203q0 -103 -39 -188t-103 -138q-118 -94 -358 -94h-399v1405h167zM362 133h256q64 0 114.5 11.5t94.5 48.5q91 79 91 223q0 166 -119 243q-33 20 -73 30t-66.5 11.5t-75.5 1.5h-222v-569zM1462 0h-164v1405
h164v-1405z" />
    <glyph glyph-name="uni042C" unicode="&#x42c;" horiz-adv-x="1175" 
d="M362 1405v-569h211q238 0 357 -82q69 -47 116.5 -131t47.5 -203q0 -103 -39 -188t-103 -138q-118 -94 -358 -94h-399v1405h167zM362 133h256q64 0 114.5 11.5t94.5 48.5q91 79 91 223q0 166 -119 243q-33 20 -73 30t-66.5 11.5t-75.5 1.5h-222v-569z" />
    <glyph glyph-name="uni042D" unicode="&#x42d;" horiz-adv-x="1202" 
d="M352 797h527v37q0 98 -30.5 197t-82.5 157q-101 110 -281 110q-88 0 -162.5 -24.5t-154.5 -81.5l-68 111q163 127 383 127q254 0 408 -168q178 -191 178 -549q0 -208 -58 -357t-147 -233q-74 -70 -179 -109t-222 -39q-127 0 -258 54q-75 33 -129 71l74 127
q156 -121 321 -121q104 0 179 34.5t120 84.5q109 123 109 408v33h-527v131z" />
    <glyph glyph-name="uni042E" unicode="&#x42e;" horiz-adv-x="1824" 
d="M362 817h242q7 91 41.5 208.5t110.5 215.5q145 189 387 189q246 0 393 -189q156 -198 156 -539q0 -340 -156 -538q-147 -189 -393 -189q-242 0 -387 189q-74 96 -116 235t-40 281h-238v-680h-167v1405h167v-588zM1143 1298q-58 0 -107.5 -15.5t-83.5 -41.5t-56.5 -52
t-39.5 -56q-74 -135 -74 -431q0 -295 74 -430q17 -30 39.5 -56t56.5 -52.5t83.5 -42t107.5 -15.5t107.5 15.5t83.5 42t56.5 52.5t39.5 56q73 133 73 430q0 298 -73 431q-17 30 -39.5 56t-56.5 52t-83.5 41.5t-107.5 15.5z" />
    <glyph glyph-name="uni042F" unicode="&#x42f;" horiz-adv-x="1261" 
d="M1067 0h-168v635h-219q-90 0 -139 -49q-45 -43 -68 -150l-37 -184q-13 -73 -25.5 -111t-35.5 -67q-53 -63 -168 -76l-115 -12l-31 116l41 13q61 20 82 32q25 13 39 33.5t27 67.5l61 229q26 101 72 150q52 56 127 73v5q-103 12 -176 71q-55 44 -85 109.5t-30 138.5
q0 82 35 163t102 132q66 50 147.5 68t209.5 18h354v-1405zM897 1274h-188q-119 0 -197 -45q-117 -68 -117 -219q0 -120 97 -191q35 -24 81 -37t74 -14.5t74 -1.5h176v508z" />
    <glyph glyph-name="uni0430" unicode="&#x430;" horiz-adv-x="1083" 
d="M967 76l-82 -115q-53 17 -90 56.5t-50 93.5q-75 -75 -141 -106.5t-153 -31.5q-90 0 -156.5 25.5t-102.5 69t-52.5 92.5t-16.5 104q0 173 142.5 270t398.5 97q38 0 71 -2v71q0 71 -6 103.5t-27 56.5q-49 55 -137 55q-83 0 -178 -36.5t-147 -83.5l-80 114q207 138 428 138
q216 0 282 -160q27 -63 23 -225l-8 -336q-3 -127 11.5 -173.5t70.5 -76.5zM731 518q-40 4 -80 4q-187 0 -268.5 -60.5t-81.5 -182.5q0 -91 44.5 -139t131.5 -48q78 0 145.5 44t102.5 116z" />
    <glyph glyph-name="uni0431" unicode="&#x431;" horiz-adv-x="1136" 
d="M913 1581l66 -133q-37 -21 -69.5 -37.5t-49.5 -24t-45 -20t-41 -18.5l-295 -134q-49 -22 -83.5 -50.5t-61.5 -76.5q-48 -78 -58 -180l-6 -63l11 -2q39 71 112 119q91 59 197 59q109 0 188 -40.5t125 -100.5q54 -68 82.5 -171.5t28.5 -211.5q0 -110 -29 -212t-88 -169
q-52 -62 -137.5 -101t-186.5 -39q-103 0 -186 39.5t-137 104.5q-40 48 -65.5 106.5t-35.5 126.5t-13 115t-3 115q0 355 68 516q78 194 299 293l274 122zM573 889q-84 0 -136.5 -39t-78.5 -88q-47 -84 -47 -266q0 -181 47 -265q30 -53 84.5 -89t130.5 -36t130.5 36t84.5 89
q48 86 48 265q0 180 -48 266q-26 49 -78.5 88t-136.5 39z" />
    <glyph glyph-name="uni0432" unicode="&#x432;" horiz-adv-x="1062" 
d="M180 1020h404q129 0 204 -49q105 -69 105 -213q0 -91 -57 -154q-38 -43 -101 -63q88 -17 142 -74q63 -63 63 -176q0 -130 -84 -209q-89 -82 -262 -82h-414v1020zM340 473v-354h252q94 0 141 47q45 45 45 131q0 94 -59 139q-50 37 -127 37h-252zM340 901v-313h240
q33 0 67 13t55 36q37 41 37 106q0 80 -47 121q-40 37 -108 37h-244z" />
    <glyph glyph-name="uni0433" unicode="&#x433;" horiz-adv-x="790" 
d="M340 897v-897h-160v1020h580l-19 -123h-401z" />
    <glyph glyph-name="uni0434" unicode="&#x434;" horiz-adv-x="1060" 
d="M995 123v-416h-155v293h-639v-293h-156v416h74q85 155 126 326t46 382l4 189h573v-897h127zM709 897h-275l-6 -147q-15 -342 -156 -627h437v774z" />
    <glyph glyph-name="uni0435" unicode="&#x435;" horiz-adv-x="1067" 
d="M954 483h-637v-24q0 -150 48 -223q81 -125 253 -125q145 0 250 96l62 -103q-139 -127 -344 -127q-212 0 -332.5 144.5t-120.5 398.5q0 128 29 218t94 167q121 142 305 142q169 0 277 -111q67 -68 91.5 -158.5t24.5 -271.5v-23zM784 604q-3 157 -47 227q-26 41 -76 66
t-108 25q-109 0 -169.5 -80.5t-66.5 -237.5h467z" />
    <glyph glyph-name="uni0436" unicode="&#x436;" horiz-adv-x="1380" 
d="M770 592h100q34 0 54 6t39 25q33 33 45 96l30 155q15 72 47 107q38 42 123 49l90 8l29 -102l-61 -14q-30 -8 -45 -23q-25 -25 -31 -57l-43 -154q-20 -74 -47 -102q-28 -31 -76 -49v-7q41 -15 66 -43q37 -39 55 -110l53 -193q13 -50 43 -67q9 -7 59 -23l39 -12l-26 -100
l-111 8q-87 5 -131 61q-31 41 -47 131l-27 154q-5 35 -14.5 57.5t-32.5 44.5q-36 31 -90 31h-90v-469h-160v469h-98q-48 0 -82 -31q-23 -22 -32.5 -44.5t-14.5 -57.5l-27 -154q-16 -90 -47 -131q-44 -56 -131 -61l-110 -8l-27 100l39 12q50 16 59 23q30 17 43 67l54 193
q18 71 55 110q25 28 65 43v7q-46 17 -75 49q-28 30 -48 102l-43 154q-7 34 -30 57q-15 15 -45 23l-62 14l29 102l90 -8q85 -7 123 -49q32 -35 47 -107l31 -155q12 -63 45 -96q19 -19 39 -25t53 -6h100v420l160 30v-450z" />
    <glyph glyph-name="uni0437" unicode="&#x437;" horiz-adv-x="913" 
d="M291 600h88q47 0 97 11t75 30q24 19 39.5 53.5t15.5 73.5q0 71 -53 109q-49 36 -145 36q-82 0 -150 -22q-56 -19 -102 -49l-60 112q61 38 140 62q100 28 192 28q156 0 244 -65q47 -35 73.5 -88t26.5 -113q0 -85 -53 -147q-51 -57 -139 -84q87 -19 151 -80q70 -70 70 -172
q0 -169 -144 -258q-102 -62 -251 -62q-188 0 -355 107l62 119q139 -95 284 -95q116 0 174 54q54 50 54 133q0 103 -68 147q-56 37 -162 37h-104v123z" />
    <glyph glyph-name="uni0438" unicode="&#x438;" horiz-adv-x="1146" 
d="M174 0v1012l160 30v-630l-6 -222h6q51 123 104 209l371 621l164 22v-1042h-160v608l6 217h-6q-46 -105 -104 -202l-371 -623h-164z" />
    <glyph glyph-name="uni0439" unicode="&#x439;" horiz-adv-x="1146" 
d="M174 0v1012l160 30v-630l-6 -222h6q51 123 104 209l371 621l164 22v-1042h-160v608l6 217h-6q-46 -105 -104 -202l-371 -623h-164zM797 1483l92 -68q-40 -90 -119.5 -146.5t-196.5 -56.5q-219 0 -315 203l92 68q41 -67 99 -101q48 -28 124 -28q77 0 125 28q28 17 56 46
t43 55z" />
    <glyph glyph-name="uni043A" unicode="&#x43a;" horiz-adv-x="1026" 
d="M174 0v1012l160 30v-450h172q33 0 53 6t39 25q33 33 45 96l31 155q15 72 47 107q38 42 123 49l90 8l29 -102l-62 -14q-31 -9 -45 -23q-24 -25 -31 -57l-43 -154q-20 -74 -47 -102q-28 -31 -76 -49v-7q41 -15 66 -43q37 -39 55 -110l54 -193q13 -50 43 -67q9 -7 59 -23
l39 -12l-27 -100l-110 8q-87 5 -131 61q-33 43 -48 131l-26 154q-5 35 -14.5 57.5t-32.5 44.5q-35 31 -86 31h-166v-469h-160z" />
    <glyph glyph-name="uni043B" unicode="&#x43b;" horiz-adv-x="1036" 
d="M305 1020h557v-1020h-160v897h-264l-12 -158q-3 -58 -33 -301q-10 -88 -31 -196q-19 -93 -35.5 -133t-47.5 -66q-54 -47 -148 -55l-68 -6l-26 100l39 12q25 8 59 27q33 20 50.5 46t31 82t27.5 163q27 217 39 366z" />
    <glyph glyph-name="uni043C" unicode="&#x43c;" horiz-adv-x="1366" 
d="M219 1020h213l189 -586q46 -141 61 -229q36 141 57 211l193 604h213l98 -1020h-162l-59 692q-6 71 -6 172h-8q-8 -69 -35 -155l-228 -709h-133l-223 700q-33 114 -43 164h-8q-1 -43 -2 -73.5t-1.5 -42t-0.5 -13.5l-58 -735h-153z" />
    <glyph glyph-name="uni043D" unicode="&#x43d;" horiz-adv-x="1110" 
d="M334 483v-483h-160v1012l160 30v-436h442v406l160 30v-1042h-160v483h-442z" />
    <glyph glyph-name="uni043E" unicode="&#x43e;" horiz-adv-x="1124" 
d="M1001 494q0 -249 -120 -385t-318 -136q-209 0 -324.5 144.5t-115.5 398.5q0 249 116.5 392t317.5 143q225 0 350 -179q94 -137 94 -378zM819 481q0 210 -47 307q-31 64 -90.5 98t-126.5 34q-68 0 -125.5 -30t-83.5 -81q-49 -94 -49 -266q0 -107 17 -197t46 -137
q28 -46 84.5 -74.5t122.5 -28.5q79 0 137 40t84 114q31 85 31 221z" />
    <glyph glyph-name="uni043F" unicode="&#x43f;" horiz-adv-x="1087" 
d="M334 897v-897h-160v1020h739v-1020h-159v897h-420z" />
    <glyph glyph-name="uni0440" unicode="&#x440;" horiz-adv-x="1165" 
d="M1032 512q0 -120 -19 -200t-63 -152q-116 -187 -315 -187q-78 0 -152.5 31.5t-128.5 87.5v-487l-159 -31v1225q0 150 -23 219l164 29q10 -40 10 -156q128 149 301 149q79 0 151.5 -33t121.5 -94q112 -139 112 -401zM862 492q0 193 -47 292q-25 52 -75.5 82.5t-112.5 30.5
q-154 0 -273 -143v-514q118 -134 250 -134q70 0 129.5 35t85.5 92q43 92 43 259z" />
    <glyph glyph-name="uni0441" unicode="&#x441;" horiz-adv-x="960" 
d="M868 113q-71 -72 -143.5 -104t-167.5 -32q-217 0 -326 154q-98 141 -98 363q0 156 40.5 258.5t113.5 175.5q119 119 276 119q88 0 150.5 -28.5t128.5 -82.5l-88 -111q-56 46 -97 64t-98 18q-60 0 -112 -31t-80 -83q-58 -107 -58 -334q0 -172 64.5 -263.5t187.5 -91.5
q128 0 219 111z" />
    <glyph glyph-name="uni0442" unicode="&#x442;" horiz-adv-x="763" 
d="M455 889v-889h-160v889h-295v131h764l-14 -131h-295z" />
    <glyph glyph-name="uni0443" unicode="&#x443;" horiz-adv-x="940" 
d="M909 1020l-350 -1057q-55 -167 -129.5 -260t-200.5 -123l-47 109q99 31 147 94.5t89 218.5l-66 -10q-9 50 -42.5 170t-59.5 196l-219 639l157 54l209 -662q33 -107 62 -254h4q10 36 31.5 107.5t31.5 107.5l201 670h182z" />
    <glyph glyph-name="uni0444" unicode="&#x444;" horiz-adv-x="1482" 
d="M821 1499v-532q42 39 94.5 60.5t96.5 21.5q69 0 135.5 -34t114.5 -100q98 -138 98 -399q0 -246 -94 -391q-98 -154 -271 -154q-95 0 -174 66v-432l-159 -31v463q-79 -66 -175 -66q-172 0 -270 154q-94 145 -94 391q0 261 98 399q48 66 114.5 100t135.5 34
q44 0 96.5 -21.5t94.5 -60.5v501zM817 850v-694q73 -62 162 -62q96 0 149 66q22 28 36 66.5t19.5 88t7 84t1.5 90.5q0 157 -10 236.5t-49 130.5q-54 70 -146 70q-43 0 -89 -20.5t-81 -55.5zM666 156v694q-35 35 -81 55.5t-89 20.5q-92 0 -146 -70q-39 -51 -49 -130.5
t-10 -236.5q0 -78 2 -122t17 -107t44 -100q53 -66 150 -66q89 0 162 62z" />
    <glyph glyph-name="uni0445" unicode="&#x445;" horiz-adv-x="956" 
d="M946 0h-194l-277 434l-276 -434h-189l381 565l-315 455h196l203 -340l197 340h186l-303 -455z" />
    <glyph glyph-name="uni0446" unicode="&#x446;" horiz-adv-x="1089" 
d="M174 1012l160 30v-919h405v889l160 30v-919h78v-416h-156v293h-647v1012z" />
    <glyph glyph-name="uni0447" unicode="&#x447;" horiz-adv-x="1030" 
d="M293 1042v-387q0 -74 53 -114q51 -37 146 -37q123 0 204 41v467l160 30v-1042h-160v424q-71 -26 -117.5 -34.5t-113.5 -8.5q-181 0 -268 96q-28 32 -43 71t-18 66.5t-3 67.5v330z" />
    <glyph glyph-name="uni0448" unicode="&#x448;" horiz-adv-x="1511" 
d="M174 1012l160 30v-919h342v889l160 30v-919h342v889l159 30v-1042h-1163v1012z" />
    <glyph glyph-name="uni0449" unicode="&#x449;" horiz-adv-x="1511" 
d="M174 1012l160 30v-919h342v889l160 30v-919h342v889l159 30v-919h78v-416h-155v293h-1086v1012z" />
    <glyph glyph-name="uni044A" unicode="&#x44a;" horiz-adv-x="1120" 
d="M471 627h154q49 0 81.5 -2t81.5 -9.5t92 -27.5t78 -51q95 -80 95 -228t-105 -233q-95 -76 -250 -76h-387v897h-297v123h457v-393zM471 504v-381h205q91 0 149 49q62 53 62 139q0 97 -58 146q-24 21 -56.5 32t-56 13t-61.5 2h-184z" />
    <glyph glyph-name="uni044B" unicode="&#x44b;" horiz-adv-x="1386" 
d="M334 1042v-415h153q49 0 82 -2t82 -9.5t92 -27.5t78 -51q94 -80 94 -228q0 -149 -104 -233q-95 -76 -250 -76h-387v1012zM334 504v-381h205q91 0 149 49q62 53 62 139q0 97 -58 146q-24 21 -56.5 32t-56 13t-61.5 2h-184zM1219 0h-166v1016l166 26v-1042z" />
    <glyph glyph-name="uni044C" unicode="&#x44c;" horiz-adv-x="997" 
d="M334 1042v-415h153q49 0 82 -2t82 -9.5t92 -27.5t78 -51q94 -80 94 -228q0 -149 -104 -233q-95 -76 -250 -76h-387v1012zM334 504v-381h205q91 0 149 49q62 53 62 139q0 97 -58 146q-24 21 -56.5 32t-56 13t-61.5 2h-184z" />
    <glyph glyph-name="uni044D" unicode="&#x44d;" horiz-adv-x="978" 
d="M98 111l84 96q96 -113 250 -113q108 0 170 64q39 41 57.5 110t18.5 140v71h-346v123h346v37q0 58 -17.5 116.5t-50.5 96.5q-66 74 -186 74t-213 -86l-86 94q119 110 307 110q173 0 285 -114q139 -143 139 -395q0 -290 -125 -429q-116 -131 -307 -131q-196 0 -326 136z
" />
    <glyph glyph-name="uni044E" unicode="&#x44e;" horiz-adv-x="1474" 
d="M340 596h172q6 82 34 166.5t70 138.5q49 64 130.5 103.5t179.5 39.5q99 0 180 -39t133 -104q113 -160 113 -391q0 -232 -113 -391q-52 -65 -133.5 -104.5t-179.5 -39.5q-97 0 -178.5 40t-131.5 104q-47 61 -76.5 160.5t-31.5 193.5h-168v-473h-160v1012l160 30v-446z
M926 922q-72 0 -123 -36t-80 -89q-45 -87 -45 -287q0 -195 45 -285q25 -48 74 -87.5t129 -39.5q134 0 202 125q46 89 46 287q0 226 -60 313q-28 42 -76 70.5t-112 28.5z" />
    <glyph glyph-name="uni044F" unicode="&#x44f;" horiz-adv-x="1056" 
d="M522 1020h340v-1020h-160v440h-139q-23 0 -34.5 -1t-31.5 -8t-36 -21q-35 -30 -55 -101l-41 -139q-24 -88 -58 -127q-44 -48 -145 -55l-84 -6l-27 100l39 12q30 7 62 29q27 18 47 76l57 149q20 60 53 101q31 35 74 49v4q-100 11 -162 73q-30 30 -47.5 74t-17.5 88
q0 130 100 211q40 33 90 49.5t84.5 19.5t91.5 3zM702 563v334h-178q-37 0 -60 -2t-53 -13t-49 -32q-38 -41 -38 -119q0 -84 51 -125q52 -43 166 -43h161z" />
    <glyph glyph-name="uni0450" unicode="&#x450;" horiz-adv-x="1067" 
d="M954 483h-637v-24q0 -150 48 -223q81 -125 253 -125q145 0 250 96l62 -103q-139 -127 -344 -127q-212 0 -332.5 144.5t-120.5 398.5q0 128 29 218t94 167q121 142 305 142q169 0 277 -111q67 -68 91.5 -158.5t24.5 -271.5v-23zM784 604q-3 157 -47 227q-26 41 -76 66
t-108 25q-109 0 -169.5 -80.5t-66.5 -237.5h467zM784 1253l-53 -96l-459 205l88 158z" />
    <glyph glyph-name="uni0451" unicode="&#x451;" horiz-adv-x="1067" 
d="M954 483h-637v-24q0 -150 48 -223q81 -125 253 -125q145 0 250 96l62 -103q-139 -127 -344 -127q-212 0 -332.5 144.5t-120.5 398.5q0 128 29 218t94 167q121 142 305 142q169 0 277 -111q67 -68 91.5 -158.5t24.5 -271.5v-23zM784 604q-3 157 -47 227q-26 41 -76 66
t-108 25q-109 0 -169.5 -80.5t-66.5 -237.5h467zM446 1272q0 -45 -30 -77t-74 -32t-75 32t-31 77q0 43 30.5 73.5t73.5 30.5q44 0 75 -30.5t31 -73.5zM870 1272q0 -45 -30 -77t-74 -32t-75.5 32.5t-31.5 76.5q0 43 31 73.5t74 30.5q44 0 75 -30.5t31 -73.5z" />
    <glyph glyph-name="uni0452" unicode="&#x452;" horiz-adv-x="1163" 
d="M809 705q0 112 -39 151q-41 41 -119 41q-74 0 -152.5 -45.5t-144.5 -126.5v-725h-159v1133h-123v118h123v6q0 54 -6 103t-11.5 72.5t-9.5 33.5l160 31q4 -11 9.5 -38t11 -84t5.5 -120v-4h385l-47 -118h-338v-115q0 -97 -6 -139q172 161 340 161q92 0 166 -45.5t96 -115.5
q17 -58 17 -148v-557q0 -306 -52 -410q-26 -52 -76 -99t-118 -71l-80 107q55 21 90.5 56.5t51.5 86.5t21 98t5 117v646z" />
    <glyph glyph-name="uni0453" unicode="&#x453;" horiz-adv-x="790" 
d="M340 897v-897h-160v1020h580l-19 -123h-401zM743 1362l-458 -205l-54 96l424 267z" />
    <glyph glyph-name="uni0454" unicode="&#x454;" horiz-adv-x="989" 
d="M807 207l84 -96q-130 -136 -326 -136q-191 0 -307 131q-125 139 -125 429q0 252 139 395q112 114 285 114q188 0 307 -110l-86 -94q-93 86 -213 86t-186 -74q-33 -38 -50.5 -96.5t-17.5 -116.5v-37h346v-123h-346v-71q0 -71 18.5 -140t57.5 -110q62 -64 170 -64
q154 0 250 113z" />
    <glyph glyph-name="uni0455" unicode="&#x455;" horiz-adv-x="985" 
d="M872 303q0 -149 -106.5 -241.5t-278.5 -92.5q-96 0 -195.5 27.5t-178.5 75.5l61 118q158 -96 324 -96q94 0 150.5 47.5t56.5 128.5q0 69 -40 109t-128 59l-127 27q-125 26 -191.5 99.5t-66.5 180.5q0 138 101 226t261 88q78 0 162 -22.5t149 -59.5l-59 -119
q-78 37 -136 55.5t-120 18.5q-87 0 -140 -46.5t-53 -121.5q0 -60 34 -95.5t114 -52.5l135 -28q272 -58 272 -285z" />
    <glyph glyph-name="uni0456" unicode="&#x456;" horiz-adv-x="555" 
d="M360 0h-165v1016l165 26v-1042zM406 1335q0 -53 -36 -89t-89 -36q-52 0 -88.5 36t-36.5 87q0 53 36.5 90t88.5 37q53 0 89 -36t36 -89z" />
    <glyph glyph-name="uni0457" unicode="&#x457;" horiz-adv-x="555" 
d="M172 1272q0 -44 -30.5 -76.5t-73.5 -32.5t-76 32.5t-33 76.5q0 41 32.5 72.5t74.5 31.5q43 0 74.5 -31.5t31.5 -72.5zM596 1272q0 -44 -31.5 -76.5t-72.5 -32.5q-43 0 -76 33t-33 76q0 42 31 73t75 31q43 0 75 -31.5t32 -72.5zM360 0h-165v1016l165 26v-1042z" />
    <glyph glyph-name="uni0458" unicode="&#x458;" horiz-adv-x="552" 
d="M358 20q0 -158 -28 -225q-55 -132 -209 -201l-80 107q35 15 60.5 33t42.5 41.5t27 48t15.5 60t7 68.5t1.5 83v977l163 32v-1024zM401 1335q0 -53 -36.5 -89t-88.5 -36t-88 36t-36 89t36 89t88 36t88.5 -36t36.5 -89z" />
    <glyph glyph-name="uni0459" unicode="&#x459;" horiz-adv-x="1501" 
d="M850 627h154q49 0 81.5 -2t81.5 -9.5t92 -27.5t78 -51q95 -80 95 -228t-105 -233q-95 -76 -250 -76h-387v897h-252l-14 -158q-14 -156 -31 -301q-12 -98 -31 -196q-19 -95 -34.5 -132.5t-48.5 -66.5q-54 -47 -148 -55l-68 -6l-26 100l39 12q25 8 59 27q33 20 50.5 46
t31 82t27.5 163q27 217 39 366l22 242h545v-393zM850 504v-381h205q91 0 149 49q62 53 62 139q0 97 -58 146q-24 21 -56.5 32t-56 13t-61.5 2h-184z" />
    <glyph glyph-name="uni045A" unicode="&#x45a;" horiz-adv-x="1574" 
d="M924 616h141q121 0 197.5 -18.5t136.5 -69.5q52 -43 73 -95t21 -124q0 -149 -104 -233q-95 -76 -250 -76h-375v494h-430v-494h-160v1012l160 30v-426h430v396l160 30v-426zM924 494v-371h192q92 0 150 49q61 52 61 139q0 92 -57 138q-56 45 -174 45h-172z" />
    <glyph glyph-name="uni045B" unicode="&#x45b;" horiz-adv-x="1163" 
d="M967 0h-158v705q0 112 -39 151q-41 41 -119 41q-74 0 -152.5 -45.5t-144.5 -126.5v-725h-159v1133h-123v118h123v6q0 54 -6 103t-11.5 72.5t-9.5 33.5l160 31q4 -11 9.5 -38t11 -84t5.5 -120v-4h385l-47 -118h-338v-115q0 -97 -6 -139q172 161 340 161q92 0 166 -45.5
t96 -115.5q17 -58 17 -148v-731z" />
    <glyph glyph-name="uni045C" unicode="&#x45c;" horiz-adv-x="1026" 
d="M174 0v1012l160 30v-450h172q33 0 53 6t39 25q33 33 45 96l31 155q15 72 47 107q38 42 123 49l90 8l29 -102l-62 -14q-31 -9 -45 -23q-24 -25 -31 -57l-43 -154q-20 -74 -47 -102q-28 -31 -76 -49v-7q41 -15 66 -43q37 -39 55 -110l54 -193q13 -50 43 -67q9 -7 59 -23
l39 -12l-27 -100l-110 8q-87 5 -131 61q-33 43 -48 131l-26 154q-5 35 -14.5 57.5t-32.5 44.5q-35 31 -86 31h-166v-469h-160zM768 1362l-459 -205l-53 96l424 267z" />
    <glyph glyph-name="uni045D" unicode="&#x45d;" horiz-adv-x="1146" 
d="M174 0v1012l160 30v-630l-6 -222h6q51 123 104 209l371 621l164 22v-1042h-160v608l6 217h-6q-46 -105 -104 -202l-371 -623h-164zM821 1253l-53 -96l-459 205l88 158z" />
    <glyph glyph-name="uni045E" unicode="&#x45e;" horiz-adv-x="940" 
d="M909 1020l-350 -1057q-55 -167 -129.5 -260t-200.5 -123l-47 109q99 31 147 94.5t89 218.5l-66 -10q-9 50 -42.5 170t-59.5 196l-219 639l157 54l209 -662q33 -107 62 -254h4q10 36 31.5 107.5t31.5 107.5l201 670h182zM694 1483l92 -68q-40 -90 -119 -146.5t-196 -56.5
q-219 0 -315 203l92 68q42 -68 98 -101q48 -28 125 -28t125 28q62 39 98 101z" />
    <glyph glyph-name="uni045F" unicode="&#x45f;" horiz-adv-x="1077" 
d="M334 123h409v897h160v-1020h-287v-293h-155v293h-287v1020h160v-897z" />
    <glyph glyph-name="uni0462" unicode="&#x462;" horiz-adv-x="1175" 
d="M362 1405v-197h220v-114h-220v-258h211q238 0 357 -82q69 -47 116.5 -131t47.5 -203q0 -103 -39 -188t-103 -138q-118 -94 -358 -94h-399v1094h-144v114h144v197h167zM362 133h256q64 0 114.5 11.5t94.5 48.5q91 79 91 223q0 166 -119 243q-33 20 -73 30t-66.5 11.5
t-75.5 1.5h-222v-569z" />
    <glyph glyph-name="uni0463" unicode="&#x463;" horiz-adv-x="997" 
d="M334 1042v-135h207v-110h-209v-170h155q49 0 82 -2t82 -9.5t92 -27.5t78 -51q94 -80 94 -228q0 -149 -104 -233q-95 -76 -250 -76h-387v797h-123v110h123v105zM332 504v-381h207q91 0 149 49q62 53 62 139q0 97 -58 146q-24 21 -56.5 32t-56 13t-61.5 2h-186z" />
    <glyph glyph-name="uni0472" unicode="&#x472;" horiz-adv-x="1431" 
d="M1298 680q0 -102 -21 -200.5t-67.5 -190.5t-113 -162t-164.5 -112t-215 -42q-120 0 -220 44.5t-167 118t-113.5 170.5t-67 198.5t-20.5 204.5q0 325 160 523t420 198q125 0 227 -46.5t168 -121t111 -174.5t64 -201.5t19 -206.5zM1104 805q-50 489 -395 489
q-85 0 -152.5 -30t-110 -77t-71 -113t-41.5 -131t-17 -138h787zM1110 659h-793q3 -65 12.5 -125t27.5 -125.5t49 -118.5t73.5 -96.5t105.5 -67.5t140 -24q76 0 137.5 24.5t102.5 68.5t70.5 97.5t45 119t22.5 125t7 122.5z" />
    <glyph glyph-name="uni0473" unicode="&#x473;" horiz-adv-x="1124" 
d="M1001 494q0 -249 -120 -385t-318 -136q-209 0 -324.5 144.5t-115.5 398.5q0 249 116.5 392t317.5 143q225 0 350 -179q94 -137 94 -378zM788 260q28 84 31 201h-520q13 -178 61 -252q28 -46 84.5 -74.5t122.5 -28.5q79 0 137 40t84 114zM346 809q-46 -91 -49 -227h518
q-9 137 -43 206q-31 64 -90.5 98t-126.5 34q-68 0 -125.5 -30t-83.5 -81z" />
    <glyph glyph-name="uni0474" unicode="&#x474;" horiz-adv-x="1181" 
d="M678 479l178 545q34 108 72 195q46 102 100 141q57 42 191 61l59 9l31 -119l-41 -11q-46 -14 -88 -32q-56 -27 -88 -74q-27 -36 -62 -139l-360 -1055h-166l-473 1405h182l297 -905q28 -84 52.5 -180.5t29.5 -133.5q21 90 86 293z" />
    <glyph glyph-name="uni0475" unicode="&#x475;" horiz-adv-x="968" 
d="M535 342l124 363q52 150 103 206q104 116 266 142l45 -111q-61 -11 -100.5 -29t-69 -54.5t-47.5 -73.5t-45 -109l-256 -686h-158l-366 1022l164 35l237 -703q30 -89 49 -174h4q26 104 50 172z" />
    <glyph glyph-name="uni0490" unicode="&#x490;" horiz-adv-x="976" 
d="M195 1405h596v215h155v-354h-584v-1266h-167v1405z" />
    <glyph glyph-name="uni0491" unicode="&#x491;" horiz-adv-x="819" 
d="M340 897v-897h-160v1020h459v182l149 21v-326h-448z" />
    <glyph glyph-name="uni0492" unicode="&#x492;" horiz-adv-x="851" 
d="M903 1405l-26 -139h-512v-435h231v-131h-231v-700h-170v700h-195v131h195v574h708z" />
    <glyph glyph-name="uni0493" unicode="&#x493;" horiz-adv-x="790" 
d="M340 897v-305h197l-43 -123h-154v-469h-160v469h-147v123h147v428h580l-19 -123h-401z" />
    <glyph glyph-name="uni0496" unicode="&#x496;" horiz-adv-x="1822" 
d="M1589 -373v373q-96 14 -145 74q-21 27 -32.5 60.5t-29.5 117.5l-45 227q-18 103 -67 150q-49 49 -140 49h-135v-678h-168v678h-135q-90 0 -139 -49q-50 -48 -68 -150l-45 -227q-17 -83 -29 -117.5t-32 -60.5q-53 -64 -168 -76l-115 -12l-30 116l40 13q61 20 82 32
q11 6 19 12t14.5 14.5t10.5 13.5t8 16t5 14.5t5 17t4 15.5l80 282q26 97 69 150q34 41 84 61v5q-55 24 -96 79q-36 48 -61 140l-56 200q-17 66 -51 93q-15 13 -65 28l-68 17l33 116l90 -10q104 -11 152 -57q46 -46 65 -148l41 -202q21 -101 66 -144q45 -45 135 -45h155v590
h168v-590h156q90 0 135 45q45 43 66 144l41 202q19 102 65 148q48 46 152 57l90 10l33 -116l-68 -17q-51 -15 -66 -28q-34 -27 -51 -93l-55 -200q-25 -92 -61 -140q-41 -55 -97 -79v-5q50 -20 84 -61q45 -55 70 -150l80 -282q0 -1 4.5 -17.5t5.5 -20t6.5 -17t11 -19
t15.5 -14t22 -15.5q11 -7 31 -14h92v-506h-168z" />
    <glyph glyph-name="uni0497" unicode="&#x497;" horiz-adv-x="1380" 
d="M770 592h100q34 0 54 6t39 25q33 33 45 96l30 155q15 72 47 107q38 42 123 49l90 8l29 -102l-61 -14q-30 -8 -45 -23q-25 -25 -31 -57l-43 -154q-20 -74 -47 -102q-28 -31 -76 -49v-7q41 -15 66 -43q37 -39 55 -110l53 -193q8 -42 33 -61h108v-416h-155v285
q-78 13 -113 59q-31 41 -47 131l-27 154q-5 35 -14.5 57.5t-32.5 44.5q-36 31 -90 31h-90v-469h-160v469h-98q-48 0 -82 -31q-23 -22 -32.5 -44.5t-14.5 -57.5l-27 -154q-16 -90 -47 -131q-44 -56 -131 -61l-110 -8l-27 100l39 12q50 16 59 23q30 17 43 67l54 193
q18 71 55 110q25 28 65 43v7q-46 17 -75 49q-28 30 -48 102l-43 154q-7 34 -30 57q-15 15 -45 23l-62 14l29 102l90 -8q85 -7 123 -49q32 -35 47 -107l31 -155q12 -63 45 -96q19 -19 39 -25t53 -6h100v420l160 30v-450z" />
    <glyph glyph-name="uni049A" unicode="&#x49a;" horiz-adv-x="1236" 
d="M997 -373v373q-106 18 -145 74q-37 48 -61 178l-46 227q-18 103 -67 150q-49 49 -139 49h-177v-678h-167v1405h167v-590h197q90 0 135 45q45 43 66 144l41 202q19 102 65 148q48 46 152 57l90 10l33 -116l-68 -17q-50 -15 -65 -28q-36 -28 -52 -93l-55 -200
q-25 -92 -61 -140q-41 -55 -97 -79v-5q50 -20 84 -61q45 -55 70 -150l80 -282q0 -1 4.5 -17.5t5.5 -20t6.5 -17t11 -19t15.5 -14t22 -15.5q11 -7 31 -14h92v-506h-168z" />
    <glyph glyph-name="uni049B" unicode="&#x49b;" horiz-adv-x="1026" 
d="M174 0v1012l160 30v-450h172q33 0 53 6t39 25q33 33 45 96l31 155q15 72 47 107q38 42 123 49l90 8l29 -102l-62 -14q-31 -9 -45 -23q-24 -25 -31 -57l-43 -154q-20 -74 -47 -102q-28 -31 -76 -49v-7q41 -15 66 -43q37 -39 55 -110l54 -193q9 -43 32 -61h109v-416h-156
v285q-77 12 -112 59q-33 43 -48 131l-26 154q-5 35 -14.5 57.5t-32.5 44.5q-35 31 -86 31h-166v-469h-160z" />
    <glyph glyph-name="uni049C" unicode="&#x49c;" horiz-adv-x="1298" 
d="M508 1077h147v-260q65 7 101 43q44 42 65 144l41 202q19 101 66 148q48 46 151 57l90 10l33 -116l-67 -17q-51 -15 -66 -28q-34 -27 -51 -93l-55 -200q-25 -90 -62 -140q-41 -55 -96 -79v-5q50 -20 84 -61q43 -53 69 -150l80 -282q0 -2 4 -15.5t5 -17t5 -14.5t8 -16
t10.5 -13.5t14.5 -14.5t19 -12q21 -12 82 -32l41 -13l-31 -116l-115 12q-121 12 -168 76q-37 48 -61 178l-45 227q-18 102 -68 150q-38 33 -84 43v-277h-147v283h-146v-678h-167v1405h167v-590h146v262z" />
    <glyph glyph-name="uni049D" unicode="&#x49d;" horiz-adv-x="1050" 
d="M426 825h125v-233q44 3 72 31q33 33 45 96l30 155q15 72 47 107q38 42 123 49l90 8l29 -102l-61 -14q-31 -9 -45 -23q-25 -25 -31 -57l-43 -154q-20 -74 -47 -102q-28 -31 -76 -49v-7q41 -15 66 -43q37 -39 55 -110l53 -193q13 -50 43 -67q8 -6 60 -23l38 -12l-26 -100
l-111 8q-87 5 -131 61q-31 41 -47 131l-27 154q-5 35 -14.5 57.5t-32.5 44.5q-33 26 -59 29v-240h-125v242h-92v-469h-160v1012l160 30v-450h92v233z" />
    <glyph glyph-name="uni04A2" unicode="&#x4a2;" horiz-adv-x="1312" 
d="M1034 -373v373h-84v680h-592v-680h-163v1405h163v-588h592v588h168v-1272h84v-506h-168z" />
    <glyph glyph-name="uni04A3" unicode="&#x4a3;" horiz-adv-x="1110" 
d="M334 483v-483h-160v1012l160 30v-436h442v406l160 30v-919h78v-416h-156v293h-82v483h-442z" />
    <glyph glyph-name="uni04AE" unicode="&#x4ae;" horiz-adv-x="1062" 
d="M1073 1405l-457 -858v-547h-174v557l-452 848h207l266 -537q15 -30 39.5 -84.5t32.5 -72.5q15 41 75 157l271 537h192z" />
    <glyph glyph-name="uni04AF" unicode="&#x4af;" horiz-adv-x="913" 
d="M397 389q42 -133 52 -188h4q23 94 41 151l221 668h168l-359 -1020v-395l-162 -31v426q-23 100 -112 358l-219 639l157 54z" />
    <glyph glyph-name="uni04B0" unicode="&#x4b0;" horiz-adv-x="1062" 
d="M1073 1405l-409 -768h245v-137h-293v-500h-174v500h-288v137h245l-409 768h207l266 -537q15 -30 39.5 -84.5t32.5 -72.5q15 41 75 157l271 537h192z" />
    <glyph glyph-name="uni04B1" unicode="&#x4b1;" horiz-adv-x="913" 
d="M397 389q42 -133 52 -188h4q23 94 41 151l221 668h168l-318 -901h242l-47 -119h-236v-395l-162 -31v426h-251v119h217q-15 49 -44 136.5t-34 102.5l-219 639l157 54z" />
    <glyph glyph-name="uni04B2" unicode="&#x4b2;" horiz-adv-x="1118" 
d="M930 -373v373h-35l-348 645l-330 -645h-197l416 754l-373 651h199l281 -520l268 520h197l-353 -639l365 -633h78v-506h-168z" />
    <glyph glyph-name="uni04B3" unicode="&#x4b3;" horiz-adv-x="956" 
d="M858 1020l-303 -455l305 -442h86v-416h-155v293h-39l-277 434l-276 -434h-189l381 565l-315 455h196l203 -340l197 340h186z" />
    <glyph glyph-name="uni04B6" unicode="&#x4b6;" horiz-adv-x="1228" 
d="M950 -373v373h-84v631q-148 -68 -319 -68q-194 0 -293 99q-90 90 -90 241v502h168v-481q0 -125 67 -181q59 -49 176 -49q131 0 291 62v649h168v-1272h84v-506h-168z" />
    <glyph glyph-name="uni04B7" unicode="&#x4b7;" horiz-adv-x="1030" 
d="M293 1042v-387q0 -74 53 -114q51 -37 146 -37q123 0 204 41v467l160 30v-919h78v-416h-156v293h-82v424q-71 -26 -117.5 -34.5t-113.5 -8.5q-181 0 -268 96q-28 32 -43 71t-18 66.5t-3 67.5v330z" />
    <glyph glyph-name="uni04B8" unicode="&#x4b8;" horiz-adv-x="1228" 
d="M1034 0h-168v631q-96 -45 -198 -60v-276h-148v268q-174 5 -266 99q-90 90 -90 241v502h168v-481q0 -125 67 -181q40 -35 121 -47v281h148v-277q82 10 198 56v649h168v-1405z" />
    <glyph glyph-name="uni04B9" unicode="&#x4b9;" horiz-adv-x="1030" 
d="M293 1042v-387q0 -74 53 -114q34 -24 86 -33v244h125v-246q76 10 139 39v467l160 30v-1042h-160v424q-91 -32 -139 -39v-231h-125v227q-158 8 -235 96q-28 32 -43 71t-18 66.5t-3 67.5v330z" />
    <glyph glyph-name="uni04BA" unicode="&#x4ba;" horiz-adv-x="1228" 
d="M195 1405h167v-631q148 68 320 68q194 0 293 -99q90 -90 90 -241v-502h-168v481q0 124 -68 181q-59 49 -176 49q-131 0 -291 -62v-649h-167v1405z" />
    <glyph glyph-name="uni04BB" unicode="&#x4bb;" horiz-adv-x="1161" 
d="M967 0h-158v705q0 112 -39 151q-41 41 -119 41q-74 0 -152.5 -45.5t-144.5 -126.5v-725h-159v1257q0 54 -6 103t-11.5 72.5t-9.5 33.5l160 31q4 -11 9.5 -38t11 -84t5.5 -120v-237q0 -97 -6 -139q172 161 340 161q92 0 166 -45.5t96 -115.5q17 -58 17 -148v-731z" />
    <glyph glyph-name="uni04C0" unicode="&#x4c0;" horiz-adv-x="557" 
d="M358 0h-163v1405h163v-1405z" />
    <glyph glyph-name="uni04CF" unicode="&#x4cf;" horiz-adv-x="550" 
d="M356 0h-161v1249q0 121 -25 209l160 31q4 -11 9.5 -38t11 -84t5.5 -120v-1247z" />
    <glyph glyph-name="uni04D8" unicode="&#x4d8;" horiz-adv-x="1314" 
d="M119 727h862v64q0 86 -12.5 158t-43.5 136.5t-78.5 109.5t-121 71t-168.5 26q-89 0 -181.5 -35.5t-162.5 -97.5l-68 113q174 160 445 160q279 0 435.5 -188t156.5 -535q0 -121 -20 -229t-64 -201.5t-108.5 -161t-157.5 -106t-207 -38.5q-112 0 -199.5 33t-145 90
t-94.5 139.5t-53 175.5t-16 203q0 41 1 74t1 39zM981 584h-678q0 -84 6.5 -148.5t28 -130t57 -108t97 -69t145.5 -26.5q153 0 245.5 123t98.5 359z" />
    <glyph glyph-name="uni04D9" unicode="&#x4d9;" horiz-adv-x="1052" 
d="M109 541h636v24q0 152 -47 223q-81 125 -254 125q-144 0 -249 -96l-62 103q139 127 344 127q212 0 332.5 -144.5t120.5 -398.5q0 -128 -29 -218t-94 -167q-121 -142 -305 -142q-169 0 -277 111q-67 68 -91.5 158.5t-24.5 271.5v23zM745 420h-466q3 -157 47 -227
q26 -41 76 -66t108 -25q109 0 169 80.5t66 237.5z" />
    <glyph glyph-name="uni04E2" unicode="&#x4e2;" horiz-adv-x="1366" 
d="M1171 0h-167v975q0 138 10 268q-19 -76 -56 -147l-589 -1096h-174v1405h167v-993q0 -93 -16 -224q32 101 82 195l543 1022h200v-1405zM967 1538h-561v111h561v-111z" />
    <glyph glyph-name="uni04E3" unicode="&#x4e3;" horiz-adv-x="1146" 
d="M174 0v1012l160 30v-630l-6 -222h6q51 123 104 209l371 621l164 22v-1042h-160v608l6 217h-6q-46 -105 -104 -202l-371 -623h-164zM856 1212h-561v111h561v-111z" />
    </font>
</defs>
</svg>
