<?xml version="1.0" standalone="no"?>
<!DOCTYPE svg PUBLIC "-//W3C//DTD SVG 1.1//EN" "http://www.w3.org/Graphics/SVG/1.1/DTD/svg11.dtd" >
<svg xmlns="http://www.w3.org/2000/svg" xmlns:xlink="http://www.w3.org/1999/xlink" version="1.1">
<metadata>
Created by FontForge 20170731 at Wed Jul 27 20:33:02 2022
 By Aleksey,,,
Copyright (c) 1991-2018 Monotype GmbH. All rights reserved
</metadata>
<defs>
<font id="MetaPro-CondBlack" horiz-adv-x="1024" >
  <font-face 
    font-family="Meta Pro Cond Black"
    font-weight="900"
    font-stretch="condensed"
    units-per-em="2048"
    panose-1="2 0 5 6 4 0 0 2 0 4"
    ascent="1563"
    descent="-485"
    x-height="1057"
    cap-height="1427"
    bbox="-958 -711 2593 2333"
    underline-thickness="272"
    underline-position="-560"
    unicode-range="U+000D-FEFF"
  />
<missing-glyph horiz-adv-x="1048" 
d="M94 0v1427h860v-1427h-860zM197 102h655v1223h-655v-1223z" />
    <glyph glyph-name="IJ" unicode="IJ" horiz-adv-x="1134" 
d="M444 0h-321v1427h321v-1427zM1012 1427v-1179q0 -141 -1 -175.5t-7 -70.5q-23 -143 -112.5 -242t-213.5 -149l-152 174q60 46 92.5 83t49.5 83q16 43 20 105.5t4 189.5v1181h320z" />
    <glyph glyph-name="ij" unicode="ij" horiz-adv-x="1116" 
d="M436 0h-313v1040l313 33v-1073zM463 1335q0 -74 -55.5 -127t-131.5 -53q-74 0 -128 53.5t-54 126.5t56 127t133 54q75 0 127.5 -53.5t52.5 -127.5zM991 1073v-1038q0 -130 -18.5 -215.5t-61.5 -145.5q-61 -82 -209 -155l-124 176q56 52 79 119t23 188v1038zM1014 1335
q0 -74 -55.5 -127t-131.5 -53q-74 0 -128 53.5t-54 126.5t56 127t133 54q75 0 127.5 -53.5t52.5 -127.5z" />
    <glyph glyph-name="f_f" unicode="ff" horiz-adv-x="1228" 
d="M1290 1468l-76 -204q-43 26 -94 26q-29 0 -49 -21t-20 -55v-157h194l-43 -234h-151v-823h-314v823h-301v-823h-313v823h-78v234h78q-6 37 -6 106q0 198 114 283q82 59 207 59q136 0 238 -57l-76 -205q-44 27 -94 27q-29 0 -49.5 -21t-20.5 -55v-137h301q-6 37 -6 127
q0 201 119 286q79 56 203 56q133 0 237 -58z" />
    <glyph glyph-name="f_f_i" unicode="ffi" horiz-adv-x="1732" 
d="M1610 0h-310v823h-251v-823h-312v823h-301v-823h-313v823h-78v234h78q-6 37 -6 106q0 187 100 273q82 69 221 69q136 0 238 -57l-76 -205q-44 27 -94 27q-29 0 -49.5 -21t-20.5 -55v-137h301q-6 37 -6 127q0 172 86 258q84 84 236 84q103 0 180 -29l-35 -225
q-34 18 -78 18q-29 0 -50 -21t-21 -55v-157h561v-1057zM1636 1335q0 -74 -53.5 -127t-128.5 -53q-72 0 -124 53t-52 127t53.5 127.5t128.5 53.5q73 0 124.5 -53.5t51.5 -127.5z" />
    <glyph glyph-name="f_i" unicode="fi" horiz-adv-x="1118" 
d="M995 0h-309v823h-252v-823h-311v823h-78v234h78q-6 37 -6 127q0 186 100 272q83 70 221 70q103 0 180 -29l-34 -225q-35 18 -78 18q-29 0 -50.5 -21t-21.5 -55v-157h561v-1057zM1022 1335q0 -74 -53.5 -127t-128.5 -53q-72 0 -124 53t-52 127t53.5 127.5t128.5 53.5
q73 0 124.5 -53.5t51.5 -127.5z" />
    <glyph glyph-name=".notdef" horiz-adv-x="1048" 
d="M94 0v1427h860v-1427h-860zM197 102h655v1223h-655v-1223z" />
    <glyph glyph-name=".null" horiz-adv-x="0" 
 />
    <glyph glyph-name=".null" horiz-adv-x="0" 
 />
    <glyph glyph-name="nonmarkingreturn" horiz-adv-x="682" 
 />
    <glyph glyph-name="CR" unicode="&#xd;" horiz-adv-x="430" 
 />
    <glyph glyph-name="space" unicode=" " horiz-adv-x="430" 
 />
    <glyph glyph-name="exclam" unicode="!" horiz-adv-x="616" 
d="M485 1466l-61 -1046h-231l-70 993zM494 156q0 -78 -55 -134.5t-130 -56.5q-74 0 -129 56.5t-55 134.5q0 75 54.5 130.5t129.5 55.5q74 0 129.5 -55.5t55.5 -130.5z" />
    <glyph glyph-name="quotedbl" unicode="&#x22;" horiz-adv-x="911" 
d="M375 817h-293v635h293v-635zM829 817h-290v635h290v-635z" />
    <glyph glyph-name="numbersign" unicode="#" horiz-adv-x="1007" 
d="M956 840h-157l-27 -228h133v-217h-155l-50 -395h-208l49 395h-146l-47 -395h-211l47 395h-133v217h158l27 228h-136v217h158l45 370h209l-41 -370h143l43 370h209l-41 -370h131v-217zM588 840h-146l-22 -228h141z" />
    <glyph glyph-name="dollar" unicode="$" horiz-adv-x="1116" 
d="M1055 473q0 -206 -127 -337t-338 -156v-152h-189v154q-191 19 -360 122l111 283q198 -127 360 -127q84 0 135 46.5t51 119.5q0 85 -125 123l-151 45q-82 24 -136 51.5t-98.5 72.5t-65 112.5t-20.5 162.5q0 174 106 297t277 154v170h189v-166q205 -21 360 -123l-143 -242
q-159 95 -264 95q-64 0 -109 -40.5t-45 -101.5q0 -47 29.5 -77t95.5 -50l131 -39q165 -49 245.5 -142t80.5 -255z" />
    <glyph glyph-name="percent" unicode="%" horiz-adv-x="1452" 
d="M428 1104q0 96 -15.5 135t-54.5 39q-43 0 -56 -38t-13 -146q0 -100 13.5 -136t55.5 -36q40 0 55 39t15 143zM674 1108q0 -164 -86.5 -265.5t-233.5 -101.5q-144 0 -228.5 90.5t-84.5 262.5q0 156 91.5 258t229.5 102q142 0 227 -88.5t85 -257.5zM1225 1427l-758 -1427
h-248l756 1427h250zM1165 336q0 97 -15 135.5t-54 38.5q-43 0 -56.5 -38t-13.5 -146q0 -99 14 -135.5t56 -36.5q40 0 54.5 39t14.5 143zM1411 340q0 -164 -86 -265.5t-233 -101.5q-145 0 -229.5 90t-84.5 263q0 156 91.5 258t228.5 102q142 0 227.5 -88.5t85.5 -257.5z" />
    <glyph glyph-name="ampersand" unicode="&#x26;" horiz-adv-x="1296" 
d="M1296 0h-409l-62 74q-65 -48 -161.5 -74.5t-190.5 -26.5q-184 0 -298 102t-114 290q0 114 54 206.5t161 147.5l-6 4q-133 107 -133 297q0 160 109.5 259t288.5 99q174 0 280.5 -94.5t106.5 -234.5q0 -112 -52 -190.5t-182 -153.5l178 -205q25 49 39 86q23 60 37 110
l246 -82q-44 -174 -144 -323zM657 264l-223 260q-43 -49 -43 -127q0 -72 40.5 -123t111.5 -51q60 0 114 41zM608 1051q0 106 -71 106q-82 0 -82 -106q0 -54 39 -111l36 -51q28 21 53 68t25 94z" />
    <glyph glyph-name="quotesingle" unicode="'" horiz-adv-x="454" 
d="M373 817h-291v635h291v-635z" />
    <glyph glyph-name="parenleft" unicode="(" horiz-adv-x="585" 
d="M627 -154l-78 -211q-253 91 -375 338q-38 77 -63 165.5t-35 181.5t-12.5 154t-2.5 142q0 261 49 458.5t175 342.5q104 120 258 197l84 -217q-117 -96 -170 -209q-86 -186 -86 -522q0 -270 26 -428t82 -248q46 -78 148 -144z" />
    <glyph glyph-name="parenright" unicode=")" horiz-adv-x="585" 
d="M524 680q0 -254 -32.5 -434t-114.5 -314q-110 -180 -338 -297l-80 220q168 144 221 338q24 87 30.5 193.5t6.5 291.5q0 194 -21 327t-71 226q-60 111 -162 172l80 213q37 -18 49 -24t47.5 -25t50.5 -29.5t46.5 -32t48.5 -39t43 -45t43 -55t36.5 -63.5t34.5 -76
q82 -216 82 -547z" />
    <glyph glyph-name="asterisk" unicode="*" horiz-adv-x="894" 
d="M854 1020l-221 -78l141 -227l-190 -140l-144 228l-139 -213l-182 141l149 211l-227 92l88 236l205 -86v262h231v-262l207 76z" />
    <glyph glyph-name="plus" unicode="+" horiz-adv-x="1249" 
d="M1188 547h-400v-498h-327v498h-400v303h400v489h327v-489h400v-303z" />
    <glyph glyph-name="comma" unicode="," horiz-adv-x="561" 
d="M479 90q0 -139 -78 -244q-31 -41 -87 -79t-121 -54l-132 125q61 13 97.5 42t36.5 59q0 21 -7 32.5t-26.5 25.5t-30.5 26q-32 33 -42.5 65.5t-10.5 79.5q0 79 53.5 132.5t130.5 53.5q102 0 159.5 -70.5t57.5 -193.5z" />
    <glyph glyph-name="hyphen" unicode="-" horiz-adv-x="651" 
d="M569 430h-487v281h487v-281z" />
    <glyph glyph-name="period" unicode="." horiz-adv-x="550" 
d="M469 166q0 -83 -58 -142t-137 -59q-78 0 -135 59t-57 142q0 80 57 138t135 58t136.5 -58.5t58.5 -137.5z" />
    <glyph glyph-name="slash" unicode="/" horiz-adv-x="831" 
d="M770 1575l-491 -1899h-218l488 1899h221z" />
    <glyph glyph-name="zero" unicode="0" horiz-adv-x="1097" 
d="M1036 547q0 -152 -37.5 -264.5t-106.5 -179t-158 -98.5t-199 -32q-114 0 -198.5 28.5t-148 93t-95.5 174.5t-32 266q0 142 38 251t105.5 177t157.5 102.5t199 34.5q229 0 352 -131t123 -422zM662 555q0 125 -13 191.5t-34.5 86t-61.5 19.5q-42 0 -67.5 -26t-39.5 -98.5
t-14 -201.5q0 -120 16 -189.5t39 -91.5t58 -22q66 0 91.5 70t25.5 262z" />
    <glyph glyph-name="one" unicode="1" horiz-adv-x="952" 
d="M850 0h-690v291h213v391q-74 -57 -189 -111l-102 213l387 295h219v-788h162v-291z" />
    <glyph glyph-name="two" unicode="2" horiz-adv-x="1056" 
d="M954 299l-39 -299h-811v285l93 53q185 107 264 168q137 108 137 203q0 94 -131 94q-115 0 -252 -123l-154 231q230 191 465 191q184 0 298 -88.5t114 -247.5q0 -56 -9.5 -102.5t-25.5 -83.5t-45.5 -70.5t-60.5 -59.5t-80 -53.5t-96 -49t-115 -50.5l-39 -16q99 18 143 18
h344z" />
    <glyph glyph-name="three" unicode="3" horiz-adv-x="995" 
d="M893 137q0 -248 -199 -377q-166 -110 -430 -110q-81 0 -155 12l-31 262q129 -6 137 -6q66 0 117 9t98.5 32t73.5 70t26 116q0 64 -38 99q-44 41 -123 41q-81 0 -142 -6v290q41 -4 123 -4q87 0 130.5 40t43.5 114q0 50 -30 81t-82 31q-133 0 -244 -100l-127 223
q78 65 186.5 106.5t223.5 41.5q186 0 300.5 -100.5t114.5 -266.5q0 -226 -161 -307q90 -28 139 -108t49 -183z" />
    <glyph glyph-name="four" unicode="4" horiz-adv-x="1028" 
d="M987 4h-45q-11 0 -57 4q4 -36 4 -69v-226l-314 -26v252q0 16 1 43l2 26q-28 -4 -58 -4h-479v217l360 862h318l-254 -608q-41 -100 -96 -194q32 4 45 4h141q15 0 23 -2q-3 15 -3 24q0 119 19 291l8 74l287 47v-215q0 -137 -8 -223l16 2h90v-279z" />
    <glyph glyph-name="five" unicode="5" horiz-adv-x="940" 
d="M858 201q0 -105 -33.5 -194t-91.5 -151t-135.5 -105.5t-165.5 -64t-182 -20.5q-57 0 -129 10l-39 267q72 -21 137 -21q59 0 112 14t97.5 42t71 76.5t26.5 111.5q0 75 -50 120.5t-136 45.5q-112 0 -240 -41l54 782h649l-31 -285h-328l-20 -196q25 4 82 4q37 0 79 -9.5
t92 -37t89 -69.5t65.5 -114.5t26.5 -164.5z" />
    <glyph glyph-name="six" unicode="6" horiz-adv-x="1091" 
d="M1010 446q0 -201 -128 -336t-321 -135q-226 0 -352.5 143t-126.5 404q0 411 217 645q113 120 260 177.5t291 62.5l55 -215q-175 -12 -289 -117q-94 -85 -151 -233q55 41 166 41q176 0 277.5 -119t101.5 -318zM688 446q0 74 -27 125.5t-81 51.5q-71 0 -148 -39
q-6 -37 -6 -144q0 -23 2 -46t10.5 -54.5t22.5 -54.5t40 -39.5t60 -16.5q56 0 91.5 62.5t35.5 154.5z" />
    <glyph glyph-name="seven" unicode="7" horiz-adv-x="960" 
d="M920 1073l-33 -313q-106 -192 -203 -475q-109 -312 -156 -590l-358 -31q66 368 199 705q94 237 194 405q-35 -6 -53 -6h-469l35 305h844z" />
    <glyph glyph-name="eight" unicode="8" horiz-adv-x="1103" 
d="M1042 379q0 -195 -138 -300.5t-382 -105.5q-129 0 -220 29.5t-143 85.5t-75 127.5t-23 165.5q0 93 51.5 181t137.5 140q-146 105 -146 293q0 178 128 286t327 108q211 0 331 -95t120 -276q0 -203 -193 -289q225 -118 225 -350zM698 344q0 112 -145 188l-66 35
q-40 -34 -58.5 -83t-18.5 -97q0 -82 39.5 -125t115.5 -43q61 0 97 33.5t36 91.5zM672 1030q0 127 -121 127q-61 0 -96 -33t-35 -94q0 -53 32 -90.5t95 -73.5q125 79 125 164z" />
    <glyph glyph-name="nine" unicode="9" horiz-adv-x="1073" 
d="M991 553q0 -369 -186 -608q-111 -143 -268.5 -217t-331.5 -76l-55 221q164 15 284 107q65 50 109 115t59 132q-53 -37 -168 -37q-173 0 -273 119.5t-100 319.5q0 201 128 336t321 135q227 0 354 -143t127 -404zM645 653q0 29 -4.5 57t-17 62t-42 55t-71.5 21
q-56 0 -91.5 -61.5t-35.5 -153.5q0 -73 28 -125.5t83 -52.5q68 0 145 39q6 51 6 159z" />
    <glyph glyph-name="colon" unicode=":" horiz-adv-x="591" 
d="M489 166q0 -83 -57.5 -142t-136.5 -59q-78 0 -135.5 59t-57.5 142q0 79 57.5 137.5t135.5 58.5t136 -58.5t58 -137.5zM489 754q0 -83 -57.5 -142t-136.5 -59q-78 0 -135.5 59t-57.5 142q0 79 57.5 137.5t135.5 58.5t136 -58.5t58 -137.5z" />
    <glyph glyph-name="semicolon" unicode=";" horiz-adv-x="620" 
d="M518 90q0 -142 -76 -244q-31 -40 -87.5 -78.5t-121.5 -54.5l-131 125q61 13 97.5 42t36.5 59q0 21 -7 32.5t-26.5 25.5t-30.5 26q-32 33 -43.5 66t-11.5 79q0 79 54.5 132.5t131.5 53.5q102 0 158.5 -70t56.5 -194zM512 754q0 -83 -58 -142t-137 -59q-78 0 -135 59
t-57 142q0 80 57 138t135 58t136.5 -58.5t58.5 -137.5z" />
    <glyph glyph-name="less" unicode="&#x3c;" horiz-adv-x="892" 
d="M811 160l-236 -185l-493 637l493 637l236 -188l-344 -449z" />
    <glyph glyph-name="equal" unicode="=" horiz-adv-x="1132" 
d="M1071 682h-1010v332h1010v-332zM1071 227h-1010v332h1010v-332z" />
    <glyph glyph-name="greater" unicode="&#x3e;" horiz-adv-x="892" 
d="M811 612l-494 -637l-235 185l344 452l-344 449l235 188z" />
    <glyph glyph-name="question" unicode="?" horiz-adv-x="929" 
d="M827 1106q0 -215 -163 -326q-92 -61 -125 -132t-33 -179q0 -29 2 -49h-262q-10 75 -10 123q0 120 42.5 204t127.5 154q59 48 81.5 80t22.5 76q0 106 -121 106q-95 0 -168 -90l-139 219q77 80 161 123t199 43q164 0 274.5 -92.5t110.5 -259.5zM582 164q0 -81 -57 -139
t-134 -58t-132.5 58t-55.5 139q0 78 56 135t132 57q77 0 134 -57t57 -135z" />
    <glyph glyph-name="at" unicode="@" horiz-adv-x="1783" 
d="M1722 563q0 -176 -60.5 -316t-166.5 -217t-238 -77q-191 0 -239 125q-6 15 -10 35q-63 -63 -120.5 -96t-125.5 -33q-135 0 -212 83t-77 236q0 169 70.5 316t199 237t285.5 90q124 0 309 -98q-30 -100 -51 -193l-76 -352q-10 -48 -10 -78q0 -40 16.5 -55.5t47.5 -15.5
q79 0 127.5 106t48.5 303q0 529 -531 529q-119 0 -219.5 -42t-178 -125t-121.5 -219t-44 -313q0 -152 38.5 -265t110 -181t165.5 -100.5t212 -32.5q149 0 310 51l47 -209q-195 -64 -357 -64q-180 0 -328 52t-256 151t-167.5 251.5t-59.5 346.5q0 188 62.5 356.5t172 292.5
t269 196.5t344.5 72.5q175 0 323.5 -50t257.5 -143t170.5 -235.5t61.5 -319.5zM1059 741q-32 9 -49 9q-88 0 -151 -68.5t-91.5 -169t-28.5 -217.5q0 -107 66 -107q47 0 102.5 61.5t79.5 168.5z" />
    <glyph glyph-name="A" unicode="A" horiz-adv-x="1085" 
d="M1106 0h-344l-68 285h-307l-70 -285h-337l401 1427h348zM637 535l-66 327q-21 103 -24 201h-4q-3 -79 -27 -201l-65 -327h186z" />
    <glyph glyph-name="B" unicode="B" horiz-adv-x="1107" 
d="M1047 440q0 -221 -129 -338q-111 -102 -302 -102h-493v1427h510q196 0 293 -108q78 -88 78 -242q0 -105 -49 -192t-146 -123q96 -29 160 -105q78 -91 78 -217zM682 444q0 101 -57 140q-30 20 -76 20h-107v-317h111q64 0 96.5 43.5t32.5 113.5zM676 1012q0 48 -21 82
q-32 53 -102 53h-111v-270h115q79 0 105 61q14 28 14 74z" />
    <glyph glyph-name="C" unicode="C" horiz-adv-x="1021" 
d="M1001 121q-139 -146 -389 -146q-254 0 -401 189q-150 192 -150 522q0 118 18 224.5t61.5 207.5t109.5 173.5t169 116.5t232 44q97 0 188.5 -29t131.5 -75l-140 -250q-80 71 -190 71q-117 0 -170 -94.5t-53 -292.5q0 -396 92 -473q60 -51 131 -51q134 0 223 92z" />
    <glyph glyph-name="D" unicode="D" horiz-adv-x="1124" 
d="M1063 739q0 -183 -31.5 -321t-113.5 -246q-67 -88 -161 -130t-196 -42h-438v1427h414q209 0 319 -88q207 -166 207 -600zM711 752q0 273 -76 356q-39 41 -100 41h-93v-866h101q29 0 52 10.5t45.5 41t37.5 81.5t24 136t9 200z" />
    <glyph glyph-name="E" unicode="E" horiz-adv-x="901" 
d="M860 0h-737v1427h733l-33 -280h-381v-268h312v-275h-312v-317h418v-287z" />
    <glyph glyph-name="F" unicode="F" horiz-adv-x="802" 
d="M823 1427l-32 -282h-349v-268h281v-273h-281v-604h-319v1427h700z" />
    <glyph glyph-name="G" unicode="G" horiz-adv-x="1196" 
d="M1094 1270l-185 -223q-111 118 -250 118q-79 0 -130 -39.5t-81 -145t-30 -282.5q0 -225 53.5 -332.5t169.5 -107.5q73 0 125 25v247h-150l-41 279h510v-692q-106 -74 -220 -108t-253 -34q-216 0 -364 148q-187 187 -187 563q0 305 117 502q73 126 192 195t281 69
q124 0 239.5 -47t203.5 -135z" />
    <glyph glyph-name="H" unicode="H" horiz-adv-x="1140" 
d="M1018 0h-320v602h-256v-602h-319v1427h319v-526h256v526h320v-1427z" />
    <glyph glyph-name="I" unicode="I" horiz-adv-x="567" 
d="M444 0h-321v1427h321v-1427z" />
    <glyph glyph-name="J" unicode="J" horiz-adv-x="567" 
d="M444 1427v-1179q0 -141 -1 -175.5t-7 -70.5q-23 -143 -112 -242t-213 -149l-152 174q60 45 92 82.5t49 83.5q16 44 20.5 108t4.5 187v1181h319z" />
    <glyph glyph-name="K" unicode="K" horiz-adv-x="1130" 
d="M1171 0h-411l-314 760l277 667h385l-326 -661zM442 0h-319v1427h319v-1427z" />
    <glyph glyph-name="L" unicode="L" horiz-adv-x="845" 
d="M866 283l-61 -283h-682v1427h319v-1144h424z" />
    <glyph glyph-name="M" unicode="M" horiz-adv-x="1540" 
d="M1458 0h-313l-29 662q-10 225 -10 286h-2q-19 -163 -41 -268l-154 -680h-295l-131 657q-30 152 -41 287h-2q0 -205 -4 -295l-26 -649h-328l108 1427h418l123 -665q35 -199 41 -270h2q11 119 41 266l133 669h408z" />
    <glyph glyph-name="N" unicode="N" horiz-adv-x="1177" 
d="M1055 0h-330l-219 496q-39 88 -96 268q16 -110 16 -289v-475h-303v1427h307l227 -489q51 -110 103 -272q-10 105 -10 319v442h305v-1427z" />
    <glyph glyph-name="O" unicode="O" horiz-adv-x="1243" 
d="M1182 768q0 -435 -170 -633q-140 -160 -387 -160q-228 0 -371 140q-94 91 -143.5 235t-49.5 328q0 372 151 573t404 201q222 0 367 -135q101 -97 150 -244t49 -305zM825 727q0 172 -18 268.5t-57 141.5q-43 51 -132 51q-72 0 -114 -58q-84 -117 -84 -407q0 -291 61 -395
q47 -82 144 -82q105 0 149 94q51 108 51 387z" />
    <glyph glyph-name="P" unicode="P" horiz-adv-x="1050" 
d="M1030 983q0 -188 -92 -309q-128 -166 -414 -166h-82v-508h-319v1427h383q289 0 420 -137q104 -110 104 -307zM682 987q0 78 -35 119q-37 43 -115 43h-90v-365h70q84 0 123 39q47 47 47 164z" />
    <glyph glyph-name="Q" unicode="Q" horiz-adv-x="1243" 
d="M1284 -39l-84 -227q-23 -4 -78 -4q-56 0 -104.5 18t-88.5 47.5t-78 61t-91.5 65t-110.5 53.5q-300 0 -444 184.5t-144 518.5q0 373 149.5 573.5t405.5 200.5q105 0 192 -28.5t147.5 -79.5t105.5 -116t70.5 -143.5t38 -156.5t12.5 -160q0 -274 -65 -443.5t-165 -244.5
q33 -7 65.5 -28t55.5 -40.5t63.5 -35t90.5 -15.5h57zM825 727q0 244 -41 346q-24 63 -65 91t-103 28q-96 0 -145 -107q-51 -116 -51 -362q0 -332 76 -426q44 -55 129 -55q93 0 137 67q63 98 63 418z" />
    <glyph glyph-name="R" unicode="R" horiz-adv-x="1116" 
d="M1096 0h-375l-127 395q-34 105 -65 136.5t-87 31.5v-563h-319v1427h401q268 0 391 -110q115 -101 115 -297q0 -165 -71.5 -261t-174.5 -124l-8 -2q32 -10 67.5 -54t59.5 -100q122 -297 193 -479zM680 999q0 84 -41 119q-36 31 -119 31h-78v-322h80q83 0 121 41
q37 42 37 131z" />
    <glyph glyph-name="S" unicode="S" horiz-adv-x="1103" 
d="M1042 455q0 -151 -73.5 -261.5t-194 -164.5t-272.5 -54q-264 0 -461 136l135 256q156 -117 324 -117q86 0 136 40t50 111q0 57 -43.5 89.5t-132.5 66.5l-23 8q-141 53 -199 90q-149 94 -171 273q-4 34 -4 71q0 202 133.5 327.5t339.5 125.5q124 0 238 -34t198 -93
l-145 -235q-157 94 -263 94q-67 0 -110 -31t-43 -90q0 -30 12.5 -55t28.5 -40.5t49.5 -32t56 -25t68.5 -23.5l31 -10q40 -14 69.5 -25.5t66.5 -31.5t63.5 -41.5t53.5 -53.5t44 -69.5t27.5 -89t10.5 -111.5z" />
    <glyph glyph-name="T" unicode="T" horiz-adv-x="919" 
d="M961 1427l-41 -278h-287v-1149h-324v1149h-289v278h941z" />
    <glyph glyph-name="U" unicode="U" horiz-adv-x="1163" 
d="M1051 1427v-987q0 -94 -6.5 -143.5t-24.5 -91.5q-42 -99 -153.5 -164.5t-284.5 -65.5q-297 0 -408 179q-38 63 -49.5 115.5t-11.5 187.5v970h321v-964q0 -125 41 -174q36 -45 109 -45q75 0 108 39q39 44 39 174v970h320z" />
    <glyph glyph-name="V" unicode="V" horiz-adv-x="1071" 
d="M1102 1427l-391 -1427h-363l-379 1427h355l147 -735q2 -11 22.5 -107t34.5 -169h4q12 73 35.5 166.5t26.5 109.5l170 735h338z" />
    <glyph glyph-name="W" unicode="W" horiz-adv-x="1593" 
d="M1593 1427l-295 -1427h-383l-92 682q-27 197 -30 244h-2q-2 -41 -6 -76.5t-12 -90.5t-11 -77l-98 -682h-392l-272 1427h346l96 -657q29 -192 37 -289h2q11 131 33 287l102 659h363l104 -663q23 -160 33 -287h2q6 68 20.5 172t16.5 117l88 661h350z" />
    <glyph glyph-name="X" unicode="X" horiz-adv-x="1052" 
d="M1083 0h-387l-157 401l-164 -401h-406l387 741l-348 686h395l134 -346l129 346h385l-336 -663z" />
    <glyph glyph-name="Y" unicode="Y" horiz-adv-x="1026" 
d="M1067 1427l-397 -913v-514h-328v508l-383 919h381l121 -403q28 -90 53 -207q5 20 53 207l121 403h379z" />
    <glyph glyph-name="Z" unicode="Z" horiz-adv-x="997" 
d="M936 283l-27 -283h-848v227l428 809q65 118 76 129q-32 -14 -129 -14h-336l23 276h807v-235l-434 -827q-7 -14 -28.5 -46t-29.5 -49q50 13 137 13h361z" />
    <glyph glyph-name="bracketleft" unicode="[" horiz-adv-x="591" 
d="M551 -319h-428v1818h428v-213h-156v-1392h156v-213z" />
    <glyph glyph-name="backslash" unicode="\" horiz-adv-x="784" 
d="M784 -35l-247 -96l-537 1620l254 92z" />
    <glyph glyph-name="bracketright" unicode="]" horiz-adv-x="593" 
d="M471 -319h-430v213h156v1392h-156v213h430v-1818z" />
    <glyph glyph-name="asciicircum" unicode="^" horiz-adv-x="1067" 
d="M985 797h-336l-114 333l-121 -333h-332l270 653h363z" />
    <glyph glyph-name="underscore" unicode="_" horiz-adv-x="894" 
d="M895 -426h-895v272h895v-272z" />
    <glyph glyph-name="grave" unicode="`" horiz-adv-x="593" 
d="M553 1290l-98 -164l-414 197l125 215z" />
    <glyph glyph-name="a" unicode="a" horiz-adv-x="946" 
d="M893 156l-180 -199q-31 12 -66.5 45t-48.5 59q-88 -88 -231 -88q-83 0 -145.5 27t-99 75t-54 108.5t-17.5 133.5q0 153 110.5 249t299.5 96q5 0 17.5 -1t22.5 -1.5t11 -0.5v80q0 49 -10 72q-17 31 -66 31q-133 0 -264 -111l-111 207q208 145 416 145q132 0 221 -50
t113 -142q14 -55 14 -164l-4 -365q0 -76 14.5 -125t57.5 -81zM512 258v178h-14q-144 0 -144 -112q0 -46 22.5 -73.5t61.5 -27.5q21 0 43.5 11t30.5 24z" />
    <glyph glyph-name="b" unicode="b" horiz-adv-x="1013" 
d="M952 555q0 -342 -178 -500q-91 -82 -205 -82q-58 0 -106 26t-78 67q-4 -44 -14 -66h-260q14 104 14 221v985q0 122 -16 226l309 53q18 -108 18 -266v-127q0 -50 -6 -68q59 59 160 59q166 0 264 -135t98 -393zM621 535q0 170 -33 235q-25 51 -74 51q-48 0 -78 -45v-504
q30 -30 76 -30q53 0 76 51q33 67 33 242z" />
    <glyph glyph-name="c" unicode="c" horiz-adv-x="821" 
d="M811 123q-130 -150 -332 -150q-172 0 -280 111q-138 141 -138 434q0 284 134 434q116 131 309 131q84 0 147.5 -29t134.5 -96l-143 -198q-27 33 -62.5 54.5t-66.5 21.5q-39 0 -61 -25q-52 -55 -52 -270q0 -170 23 -242t88 -72q96 0 166 90z" />
    <glyph glyph-name="d" unicode="d" horiz-adv-x="1005" 
d="M899 0h-262q-12 30 -16 66q-74 -93 -189 -93q-176 0 -273.5 141t-97.5 394q0 180 55.5 321.5t162.5 206.5q77 47 178 47q32 0 69 -11t58 -25q-13 67 -13 167v279l312 -47v-1188q0 -159 16 -258zM571 272v521q-13 36 -65 36q-59 0 -82 -53q-29 -65 -29 -254
q0 -186 43 -246q24 -34 66 -34q50 0 67 30z" />
    <glyph glyph-name="e" unicode="e" horiz-adv-x="940" 
d="M899 438h-516q0 -112 47 -170q37 -47 100 -47q116 0 238 107l127 -203q-91 -80 -181.5 -116t-195.5 -36q-221 0 -339 143t-118 406q0 293 134 443q106 118 286 118q186 0 285 -102q133 -136 133 -477v-66zM590 659q0 106 -23 156q-21 47 -73 47q-58 0 -83.5 -43.5
t-25.5 -159.5h205z" />
    <glyph glyph-name="f" unicode="f" horiz-adv-x="614" 
d="M676 1468l-76 -204q-43 26 -94 26q-29 0 -49.5 -21t-20.5 -55v-157h195l-43 -234h-152v-823h-313v823h-78v234h78q-6 37 -6 127q0 175 90 262q82 80 231 80q134 0 238 -58z" />
    <glyph glyph-name="g" unicode="g" horiz-adv-x="987" 
d="M987 862q-53 -31 -110 -31h-13q13 -11 28 -50.5t15 -80.5q0 -97 -57.5 -172.5t-143 -113t-178.5 -37.5h-112q-19 -24 -19 -39t23.5 -24t60.5 -9h144q164 0 254 -84q84 -78 84 -213q0 -187 -123.5 -298t-376.5 -111q-213 0 -317.5 77.5t-104.5 194.5q0 55 12 129h281
q-2 -20 -2 -78q0 -88 153 -88q79 0 122.5 33.5t43.5 87.5q0 57 -35 77.5t-135 20.5h-162q-114 0 -176.5 52t-62.5 151q0 59 30.5 115t84.5 82q-134 79 -134 268q0 167 114 264.5t306 97.5q87 0 166.5 -16t112.5 -16q113 0 164 41zM590 727q0 61 -29 95t-80 34t-79.5 -34
t-28.5 -95q0 -62 27.5 -96.5t78.5 -34.5q52 0 81.5 34.5t29.5 96.5z" />
    <glyph glyph-name="h" unicode="h" horiz-adv-x="1046" 
d="M924 0h-310v692q0 79 -22 101q-14 14 -55 14q-42 0 -101 -62v-745h-313v1206q0 149 -14 240l309 39q18 -108 18 -266v-129q0 -55 -2 -86q32 34 96 56.5t136 22.5q103 0 168 -49q90 -69 90 -203v-831z" />
    <glyph glyph-name="i" unicode="i" horiz-adv-x="559" 
d="M436 0h-313v1040l313 33v-1073zM463 1335q0 -74 -55.5 -127t-131.5 -53q-74 0 -128 53.5t-54 126.5t56 127t133 54q75 0 127.5 -53.5t52.5 -127.5z" />
    <glyph glyph-name="j" unicode="j" horiz-adv-x="557" 
d="M434 1073v-1038q0 -130 -18.5 -215.5t-61.5 -145.5q-61 -82 -209 -155l-125 176q57 52 80 119t23 188v1038zM457 1335q0 -74 -55.5 -127t-131.5 -53q-74 0 -128 53.5t-54 126.5q0 74 56 127.5t132 53.5q75 0 128 -53.5t53 -127.5z" />
    <glyph glyph-name="k" unicode="k" horiz-adv-x="1028" 
d="M438 0h-315v1206q0 145 -14 236l311 43q18 -108 18 -266v-1219zM1049 0h-375l-234 561l158 496h352l-213 -465z" />
    <glyph glyph-name="l" unicode="l" horiz-adv-x="559" 
d="M594 6q-75 -33 -203 -33q-142 0 -203 64q-43 45 -54 113.5t-11 189.5v864q0 149 -14 240l309 41q18 -108 18 -266v-762q0 -148 12 -192t62 -44q15 0 33 6z" />
    <glyph glyph-name="m" unicode="m" horiz-adv-x="1540" 
d="M1417 0h-311v678q0 82 -17 107.5t-61 25.5q-51 0 -102 -53v-758h-310v676q0 86 -14 108q-16 27 -65 27q-50 0 -101 -53v-758h-313v739q0 156 -29 287l285 55q14 -48 20 -102q30 27 45.5 39t47.5 30.5t70 26.5t87 8q83 0 147.5 -33.5t88.5 -76.5q110 110 272 110
q260 0 260 -290v-793z" />
    <glyph glyph-name="n" unicode="n" horiz-adv-x="1048" 
d="M926 0h-312v702q0 74 -20 97q-14 14 -53 14q-51 0 -105 -57v-756h-313v739q0 156 -29 287l285 55q18 -56 20 -92q109 94 267 94q107 0 170 -47q90 -65 90 -223v-813z" />
    <glyph glyph-name="o" unicode="o" horiz-adv-x="968" 
d="M918 555q0 -243 -99 -397q-60 -93 -150 -139t-190 -46q-226 0 -340 183q-88 142 -88 368q0 260 119 410q118 149 319 149q225 0 336 -163q93 -137 93 -365zM582 565q0 197 -37 248q-20 29 -62 29t-63 -43q-33 -65 -33 -281q0 -136 10 -202t43 -89q18 -12 45 -12
q30 0 50 23q47 55 47 327z" />
    <glyph glyph-name="p" unicode="p" horiz-adv-x="1017" 
d="M956 584q0 -609 -391 -609q-70 0 -145 35q16 -46 16 -162v-251l-313 -64v1196q0 164 -29 295l285 57q16 -53 20 -92q16 35 75.5 65.5t123.5 30.5q159 0 248 -96q110 -121 110 -405zM625 551q0 199 -39 250q-20 26 -58 26q-63 0 -92 -53v-512q2 -12 17.5 -20.5t38.5 -8.5
q51 0 79 33q54 64 54 285z" />
    <glyph glyph-name="q" unicode="q" horiz-adv-x="1011" 
d="M905 1057q-16 -99 -16 -258v-1229l-311 -47v389q0 75 6 104q-50 -43 -162 -43q-179 0 -270 143.5t-91 409.5q0 170 54 296t143 194q85 67 186 67q120 0 174 -102q3 34 17 76h270zM578 279v493q-20 41 -68 41q-40 0 -64 -27q-53 -56 -53 -256q0 -214 39 -268
q24 -35 68 -35q28 0 48.5 17t29.5 35z" />
    <glyph glyph-name="r" unicode="r" horiz-adv-x="686" 
d="M707 1057l-72 -287q-48 29 -92 29q-36 0 -64 -21q-29 -22 -43 -55v-723h-313v739q0 156 -29 287l285 55q20 -62 20 -125q17 27 32 45.5t39 40.5t54.5 33.5t65.5 11.5q56 0 117 -30z" />
    <glyph glyph-name="s" unicode="s" horiz-adv-x="882" 
d="M831 350q0 -171 -112.5 -274t-296.5 -103q-189 0 -381 127l100 234q60 -47 142.5 -85t144.5 -38q39 0 67.5 25t28.5 55q0 42 -31.5 69t-91.5 48l-18 6q-33 11 -47.5 16t-46 17t-46.5 20.5t-40.5 24.5t-38.5 30.5t-30 36t-25.5 45t-14.5 54t-6 65.5q0 163 99 261.5
t264 98.5q109 0 186 -22t158 -70l-93 -215q-115 72 -208 72q-35 0 -56.5 -17t-21.5 -43q0 -18 4.5 -32t17.5 -26t22.5 -19.5t33.5 -17.5t34.5 -14t40.5 -15l19 -7q42 -15 70 -27.5t64 -38t57.5 -55.5t36.5 -78t15 -108z" />
    <glyph glyph-name="t" unicode="t" horiz-adv-x="667" 
d="M647 33q-115 -62 -233 -62q-145 0 -215 56q-76 60 -76 200v600h-76v226h76q0 184 12 268l307 45q-8 -86 -8 -221v-92h170l-39 -226h-131v-442q0 -110 19 -145t79 -35q45 0 78 20z" />
    <glyph glyph-name="u" unicode="u" horiz-adv-x="1038" 
d="M965 80l-271 -107q-24 30 -41 95q-92 -95 -229 -95q-129 0 -198 46t-93 139q-20 76 -20 260v614l313 49v-737q0 -92 37 -108q14 -7 41 -7t46.5 13t53.5 49v741l311 49v-762q0 -144 50 -239z" />
    <glyph glyph-name="v" unicode="v" horiz-adv-x="886" 
d="M918 1057l-308 -1057h-321l-320 1030l342 41l90 -407q46 -207 54 -265h4q4 36 11 76.5t12.5 66.5t14 66t11.5 54l82 395h328z" />
    <glyph glyph-name="w" unicode="w" horiz-adv-x="1333" 
d="M1333 1057l-248 -1057h-315l-74 395q-31 168 -34 273q-16 -147 -44 -283l-77 -385h-305l-236 1032l315 39l47 -328q5 -34 15.5 -104.5t19 -133t13.5 -116.5h2q7 118 57 377l55 291h291l74 -379q29 -152 39 -283h2q19 221 39 363l45 299h319z" />
    <glyph glyph-name="x" unicode="x" horiz-adv-x="944" 
d="M975 0h-381l-68 164q-36 86 -47 135h-4q-19 -81 -72 -188l-55 -111h-379l318 551l-264 469l319 74l70 -140q49 -96 67 -180h2q16 123 49 193l43 90h365l-279 -496z" />
    <glyph glyph-name="y" unicode="y" horiz-adv-x="940" 
d="M971 1057l-348 -1059q-28 -86 -50.5 -143.5t-52 -114t-62.5 -92t-77.5 -65t-101 -45.5t-129.5 -23l-111 229q142 37 200.5 84.5t112.5 171.5h-94q-20 126 -65 272l-224 775l322 26l135 -559q38 -170 43 -217h2q24 185 64 328l122 432h314z" />
    <glyph glyph-name="z" unicode="z" horiz-adv-x="772" 
d="M711 244l-25 -244h-625v227l312 592h-301v238h624v-242l-305 -571h320z" />
    <glyph glyph-name="braceleft" unicode="{" horiz-adv-x="602" 
d="M561 -319h-141q-258 0 -258 327v320q0 81 -25 104t-96 23v274q72 0 96.5 25.5t24.5 97.5v322q0 178 64 251.5t194 73.5h141v-309h-41q-86 0 -86 -109v-309q0 -50 -10 -86t-23 -53.5t-32.5 -27.5t-31.5 -11.5t-28 -1.5h-4v-4q15 0 26.5 -1.5t32.5 -10.5t34.5 -26t24.5 -52
t11 -84v-316q0 -16 3.5 -32.5t12 -34.5t27 -29.5t43.5 -11.5h41v-309z" />
    <glyph glyph-name="bar" unicode="|" horiz-adv-x="544" 
d="M422 -426h-299v1974h299v-1974z" />
    <glyph glyph-name="braceright" unicode="}" horiz-adv-x="602" 
d="M561 455q-71 0 -95 -23t-24 -104v-320q0 -327 -260 -327h-141v309h41q25 0 43.5 11.5t27 29.5t12 34.5t3.5 32.5v316q0 49 11 84t25 52t35 26t33 10.5t27 1.5v4h-4q-16 0 -28 1.5t-32 11.5t-33.5 27.5t-23.5 53.5t-10 86v309q0 109 -86 109h-41v309h141q131 0 195.5 -74
t64.5 -251v-322q0 -73 24 -98t95 -25v-274z" />
    <glyph glyph-name="asciitilde" unicode="~" horiz-adv-x="1001" 
d="M920 508q-35 -55 -95 -85t-135 -30q-62 0 -118 18.5t-91 41t-79.5 41t-86.5 18.5q-89 0 -165 -76l-68 316q90 98 225 98q54 0 106.5 -18.5t88 -40t85 -40t97.5 -18.5q107 0 176 94z" />
    <glyph glyph-name="uni00A0" unicode="&#xa0;" horiz-adv-x="430" 
 />
    <glyph glyph-name="exclamdown" unicode="&#xa1;" horiz-adv-x="614" 
d="M492 -350l-363 -60l64 1049h229zM489 903q0 -75 -53.5 -130.5t-128.5 -55.5q-74 0 -129 55.5t-55 130.5q0 78 54.5 134.5t129.5 56.5q74 0 128 -56.5t54 -134.5z" />
    <glyph glyph-name="cent" unicode="&#xa2;" horiz-adv-x="831" 
d="M811 123q-91 -105 -215 -135v-256h-221v254q-148 34 -231 170t-83 362q0 219 82 361.5t232 185.5v248h221v-240q90 -21 192 -115l-143 -215q-27 33 -63.5 55.5t-67.5 22.5q-40 0 -63 -20t-36.5 -82.5t-13.5 -177.5q0 -168 23 -235.5t88 -67.5q97 0 170 94z" />
    <glyph glyph-name="sterling" unicode="&#xa3;" horiz-adv-x="1054" 
d="M1014 1358l-160 -236q-31 26 -74.5 41t-79.5 15q-83 0 -124 -45.5t-41 -112.5v-148h256v-258h-256v-344h432v-270h-906v270h123v344h-123v258h123v134q0 64 15 126t51 123.5t90 107.5t139 74.5t191 28.5q108 0 190.5 -24t153.5 -84z" />
    <glyph glyph-name="currency" unicode="&#xa4;" 
d="M1020 193l-172 -213l-107 108q-101 -61 -225 -61q-136 0 -231 63l-109 -108l-172 211l109 108q-37 98 -37 207q0 115 41 211l-107 106l172 211l109 -108q98 59 225 59q118 0 221 -59l113 108l170 -211l-107 -106q41 -93 41 -211q0 -109 -41 -209zM668 508q0 38 -7.5 76
t-24 74.5t-47.5 59.5t-73 23t-73.5 -22.5t-48.5 -59t-24.5 -74.5t-7.5 -77q0 -38 8 -76.5t24.5 -75.5t48.5 -60.5t73 -23.5t72.5 23.5t48 60.5t24 75.5t7.5 76.5z" />
    <glyph glyph-name="yen" unicode="&#xa5;" horiz-adv-x="1107" 
d="M1108 1427l-270 -557h143v-272h-270v-117h270v-272h-270v-209h-328v209h-274v272h274v117h-274v272h147l-256 557h381l108 -303q29 -81 62 -198l67 192l111 309h379z" />
    <glyph glyph-name="brokenbar" unicode="&#xa6;" horiz-adv-x="544" 
d="M422 -426h-299v864h299v-864zM422 676h-299v872h299v-872z" />
    <glyph glyph-name="section" unicode="&#xa7;" horiz-adv-x="1112" 
d="M1051 545q0 -76 -35.5 -146.5t-93.5 -115.5q77 -92 77 -226q0 -81 -29 -149t-77 -113.5t-110.5 -77t-128 -45.5t-130.5 -14q-76 0 -140.5 14.5t-125 48t-111 94.5t-86.5 148l299 162q20 -84 67 -119t103 -35q107 0 107 64q0 19 -9 34.5t-29.5 28.5t-38 21.5t-51.5 23
t-52 23.5l-144 67q-104 49 -158.5 141t-54.5 193q0 181 131 293q-88 88 -88 223q0 91 37.5 164t98.5 117t134 67t150 23q66 0 127 -12.5t122.5 -41t113.5 -82.5t86 -130l-291 -184q-47 137 -148 137q-32 0 -55.5 -16t-23.5 -48q0 -28 21.5 -48t62.5 -40l180 -84
q63 -30 110 -60t91.5 -73t68 -100.5t23.5 -126.5zM733 489q0 31 -21 54.5t-65 46.5l-198 102q-29 -23 -29 -69q0 -18 6 -34t12.5 -26t23 -21.5t23.5 -15.5t29.5 -15t26.5 -13l164 -82q28 25 28 73z" />
    <glyph glyph-name="dieresis" unicode="&#xa8;" horiz-adv-x="892" 
d="M393 1331q0 -67 -47.5 -113.5t-114.5 -46.5q-70 0 -120 46.5t-50 113.5q0 69 47.5 116.5t114.5 47.5q71 0 120.5 -47.5t49.5 -116.5zM831 1331q0 -67 -47.5 -113.5t-113.5 -46.5q-70 0 -120 46.5t-50 113.5q0 69 48 116.5t114 47.5q71 0 120 -47.5t49 -116.5z" />
    <glyph glyph-name="copyright" unicode="&#xa9;" horiz-adv-x="1601" 
d="M1540 725q0 -203 -98 -378t-268.5 -279.5t-372.5 -104.5q-151 0 -288.5 62t-236 165t-157 243.5t-58.5 291.5t58.5 291.5t157 243.5t236 165t288.5 62q202 0 372.5 -104.5t268.5 -279.5t98 -378zM1290 725q0 139 -65.5 261t-179 194.5t-244.5 72.5q-130 0 -243.5 -72.5
t-180 -194.5t-66.5 -261t66.5 -261t180 -194.5t243.5 -72.5q131 0 244.5 72.5t179 194.5t65.5 261zM1071 440q-65 -58 -127.5 -85t-142.5 -27q-147 0 -244 84q-117 99 -117 295q0 191 111 305q102 102 264 102q139 0 236 -84l-115 -174q-56 51 -117 51q-56 0 -76 -28
q-24 -33 -24 -127q0 -147 29 -183q22 -28 77 -28q69 0 121 61z" />
    <glyph glyph-name="ordfeminine" unicode="&#xaa;" horiz-adv-x="796" 
d="M711 883l-127 -148q-68 38 -92 82q-66 -76 -173 -76q-119 0 -185 71t-66 192q0 55 15.5 100t49.5 84t98.5 60.5t153.5 21.5h35v30q0 49 -11.5 62.5t-50.5 13.5q-73 0 -186 -86l-94 185q161 114 309 114q97 0 158 -35q96 -54 96 -178v-313q0 -70 13 -104.5t57 -75.5z
M418 1098h-6q-57 -1 -78 -22t-21 -58q0 -35 15.5 -55.5t40.5 -20.5q30 0 49 29v127zM756 430h-715v217h715v-217z" />
    <glyph glyph-name="guillemotleft" unicode="&#xab;" horiz-adv-x="1050" 
d="M528 174l-204 -158l-304 506l304 508l204 -160l-204 -348zM1030 174l-205 -158l-305 506l305 508l205 -160l-205 -348z" />
    <glyph glyph-name="logicalnot" unicode="&#xac;" horiz-adv-x="1017" 
d="M936 92h-287v287h-567v276h854v-563z" />
    <glyph glyph-name="uni00AD" unicode="&#xad;" horiz-adv-x="651" 
d="M569 430h-487v281h487v-281z" />
    <glyph glyph-name="registered" unicode="&#xae;" horiz-adv-x="1601" 
d="M1540 725q0 -203 -98 -378t-268.5 -279.5t-372.5 -104.5q-151 0 -288.5 62t-236 165t-157 243.5t-58.5 291.5t58.5 291.5t157 243.5t236 165t288.5 62q202 0 372.5 -104.5t268.5 -279.5t98 -378zM1290 725q0 139 -65.5 261t-179 194.5t-244.5 72.5q-130 0 -243.5 -72.5
t-180 -194.5t-66.5 -261t66.5 -261t180 -194.5t243.5 -72.5q131 0 244.5 72.5t179 194.5t65.5 261zM1124 373h-258l-24 100q-22 89 -43 133q-17 33 -43 33h-8v-266h-236v739h354q83 0 144 -43q86 -59 86 -172q0 -90 -38.5 -143t-96.5 -70l-9 -2q37 -6 62 -31q30 -30 55 -106
zM834 872q0 20 -11 37q-11 15 -32 15h-43v-103h43q24 0 34 17q9 15 9 34z" />
    <glyph glyph-name="macron" unicode="&#xaf;" horiz-adv-x="694" 
d="M653 1339h-612v195h612v-195z" />
    <glyph glyph-name="degree" unicode="&#xb0;" horiz-adv-x="786" 
d="M745 1118q0 -160 -94.5 -248t-261.5 -88q-164 0 -256 81t-92 251q0 161 98.5 250.5t257.5 89.5q160 0 254 -84t94 -252zM471 1120q0 88 -17 123t-61 35q-47 0 -62.5 -32.5t-15.5 -129.5q0 -87 18 -120t60 -33q45 0 61.5 31t16.5 126z" />
    <glyph glyph-name="plusminus" unicode="&#xb1;" horiz-adv-x="940" 
d="M879 565h-269v-297h-280v297h-269v289h269v287h280v-287h269v-289zM874 -49h-808v274h808v-274z" />
    <glyph glyph-name="twosuperior" unicode="&#xb2;" horiz-adv-x="614" 
d="M573 1133l-26 -211h-488v190q275 252 275 375q0 61 -49 61q-30 0 -61 -18.5t-77 -61.5l-106 162q73 64 140 94.5t143 30.5q107 0 172 -68.5t65 -179.5q0 -46 -15.5 -92t-35 -80.5t-56 -76.5t-60.5 -65.5t-66 -62.5q4 0 15 1.5t17 1.5h213z" />
    <glyph glyph-name="threesuperior" unicode="&#xb3;" horiz-adv-x="614" 
d="M565 1182q0 -66 -23 -118.5t-59.5 -85.5t-85.5 -55t-98.5 -31t-101.5 -9q-33 0 -105 10l-20 188q47 -4 98 -4q74 0 115 24t41 87q0 28 -19.5 45.5t-52.5 17.5q-32 0 -96 -6v203q43 -4 86 -4q78 0 78 72q0 45 -43 45q-69 0 -140 -66l-90 160q119 100 252 100
q110 0 180 -62.5t70 -166.5q0 -113 -74 -174q41 -26 64.5 -71.5t23.5 -98.5z" />
    <glyph glyph-name="acute" unicode="&#xb4;" horiz-adv-x="595" 
d="M555 1325l-410 -197l-104 162l383 248z" />
    <glyph glyph-name="mu" unicode="&#xb5;" horiz-adv-x="1048" 
d="M975 90l-254 -119q-37 34 -49 90q-125 -84 -209 -84q-21 0 -35 9l-2 2v-391l-303 -64v1499l309 49v-762q0 -47 21 -66.5t63 -19.5q38 0 94 48v751l312 49v-762q0 -144 53 -229z" />
    <glyph glyph-name="paragraph" unicode="&#xb6;" horiz-adv-x="1099" 
d="M977 -205h-209v1448h-125v-1448h-209v903q-185 0 -289 97.5t-104 269.5q0 82 23 145t63.5 104t101 66.5t129 36t154.5 10.5h465v-1632z" />
    <glyph glyph-name="periodcentered" unicode="&#xb7;" horiz-adv-x="618" 
d="M516 551q0 -87 -62 -149t-151 -62q-84 0 -142.5 62.5t-58.5 152.5q0 89 61 153t148 64q86 0 145.5 -65t59.5 -156z" />
    <glyph glyph-name="cedilla" unicode="&#xb8;" horiz-adv-x="497" 
d="M436 -201q0 -86 -52.5 -147.5t-164.5 -61.5q-40 0 -85 12t-73 29l60 127q39 -22 84 -22q28 0 43.5 13t15.5 36q0 49 -59 49q-25 0 -49 -4l-19 35l49 176l140 -21l-27 -71q63 -6 100 -47.5t37 -102.5z" />
    <glyph glyph-name="onesuperior" unicode="&#xb9;" horiz-adv-x="614" 
d="M539 922h-418v198h117v342q-46 -28 -95 -53l-69 150l229 182h146v-621h90v-198z" />
    <glyph glyph-name="ordmasculine" unicode="&#xba;" horiz-adv-x="796" 
d="M756 430h-715v217h715v-217zM471 1169q0 113 -18 153t-54 40q-37 0 -54 -46t-17 -149q0 -105 18 -152.5t60 -47.5q65 0 65 202zM743 1167q0 -82 -20 -156t-60 -135.5t-109 -98t-159 -36.5q-154 0 -248 116t-94 306q0 191 94 308.5t248 117.5q49 0 95 -11.5t93 -41.5
t81.5 -76t56.5 -121.5t22 -171.5z" />
    <glyph glyph-name="guillemotright" unicode="&#xbb;" horiz-adv-x="1050" 
d="M528 522l-301 -506l-207 158l207 348l-207 348l207 160zM1030 522l-303 -506l-207 158l207 348l-207 348l207 160z" />
    <glyph glyph-name="onequarter" unicode="&#xbc;" horiz-adv-x="1779" 
d="M539 512h-418v199h117v342q-56 -34 -95 -54l-69 150l229 182h146v-620h90v-199zM1513 1567l-944 -1882h-262l944 1882h262zM1757 166h-37q-6 0 -14 2q4 -20 4 -21v-147l-215 -18v165q0 5 4 21q-8 -2 -14 -2h-297v147l168 508h239l-170 -456h70q1 43 11 112t12 86l192 33
v-125q0 -52 -4 -106h51v-199z" />
    <glyph glyph-name="onehalf" unicode="&#xbd;" horiz-adv-x="1779" 
d="M539 512h-418v199h117v342q-56 -34 -95 -54l-69 150l229 182h146v-620h90v-199zM1493 1567l-944 -1882h-262l944 1882h262zM1739 211l-27 -211h-487v190q274 251 274 375q0 62 -49 62q-30 0 -60.5 -18.5t-76.5 -61.5l-107 162q73 64 140 94.5t143 30.5q107 0 172 -68.5
t65 -179.5q0 -46 -15.5 -92t-35 -80.5t-56 -76.5t-60.5 -65.5t-66 -62.5q3 0 15 1t18 1h213z" />
    <glyph glyph-name="threequarters" unicode="&#xbe;" horiz-adv-x="1779" 
d="M565 772q0 -66 -23 -118.5t-59.5 -85.5t-85.5 -55t-98.5 -31t-101.5 -9q-33 0 -105 10l-20 189q47 -4 98 -4q74 0 115 23.5t41 86.5q0 28 -19.5 46t-52.5 18q-32 0 -96 -6v202q43 -4 86 -4q78 0 78 72q0 45 -43 45q-69 0 -140 -66l-90 160q120 101 252 101q110 0 180 -63
t70 -167q0 -113 -74 -174q41 -26 64.5 -71.5t23.5 -98.5zM1493 1567l-944 -1882h-262l944 1882h262zM1757 166h-37q-6 0 -14 2q4 -20 4 -21v-147l-215 -18v165q0 5 4 21q-8 -2 -14 -2h-297v147l168 508h239l-170 -456h70q1 43 11 112t12 86l192 33v-125q0 -52 -4 -106h51
v-199z" />
    <glyph glyph-name="questiondown" unicode="&#xbf;" horiz-adv-x="927" 
d="M846 -236q-77 -80 -161.5 -122.5t-199.5 -42.5q-164 0 -273.5 92.5t-109.5 259.5q0 215 162 325q92 61 125 132.5t33 179.5q0 9 -1 27t-1 22h262q10 -75 10 -123q0 -120 -42.5 -204t-127.5 -154q-59 -48 -81.5 -80t-22.5 -76q0 -106 121 -106q95 0 168 90zM729 893
q0 -80 -57 -138.5t-135 -58.5t-136.5 59t-58.5 138q0 83 58 142t137 59q78 0 135 -59t57 -142z" />
    <glyph glyph-name="Agrave" unicode="&#xc0;" horiz-adv-x="1085" 
d="M1106 0h-344l-68 285h-307l-70 -285h-337l401 1427h348zM637 535l-66 327q-21 103 -24 201h-4q-3 -79 -27 -201l-65 -327h186zM827 1659l-98 -164l-414 197l125 215z" />
    <glyph glyph-name="Aacute" unicode="&#xc1;" horiz-adv-x="1085" 
d="M1106 0h-344l-68 285h-307l-70 -285h-337l401 1427h348zM637 535l-66 327q-21 103 -24 201h-4q-3 -79 -27 -201l-65 -327h186zM791 1694l-410 -197l-105 162l383 248z" />
    <glyph glyph-name="Acircumflex" unicode="&#xc2;" horiz-adv-x="1085" 
d="M1106 0h-344l-68 285h-307l-70 -285h-337l401 1427h348zM637 535l-66 327q-21 103 -24 201h-4q-3 -79 -27 -201l-65 -327h186zM891 1671l-100 -184l-248 143l-242 -143l-88 184l342 244z" />
    <glyph glyph-name="Atilde" unicode="&#xc3;" horiz-adv-x="1085" 
d="M1106 0h-344l-68 285h-307l-70 -285h-337l401 1427h348zM637 535l-66 327q-21 103 -24 201h-4q-3 -79 -27 -201l-65 -327h186zM872 1626q-78 -113 -221 -113q-53 0 -121 38t-118 38q-71 0 -125 -61l-78 198q85 121 209 121q57 0 126 -35.5t118 -35.5q36 0 73.5 18
t57.5 41z" />
    <glyph glyph-name="Adieresis" unicode="&#xc4;" horiz-adv-x="1085" 
d="M1106 0h-344l-68 285h-307l-70 -285h-337l401 1427h348zM637 535l-66 327q-21 103 -24 201h-4q-3 -79 -27 -201l-65 -327h186zM500 1700q0 -67 -47.5 -113.5t-114.5 -46.5q-70 0 -120 46.5t-50 113.5q0 68 48 116t114 48q71 0 120.5 -47.5t49.5 -116.5zM938 1700
q0 -67 -47.5 -113.5t-114.5 -46.5q-70 0 -120 46.5t-50 113.5q0 68 48 116t114 48q71 0 120.5 -47.5t49.5 -116.5z" />
    <glyph glyph-name="Aring" unicode="&#xc5;" horiz-adv-x="1085" 
d="M1106 0h-344l-68 285h-307l-70 -285h-337l401 1427h348zM637 535l-66 327q-21 103 -24 201h-4q-3 -79 -27 -201l-65 -327h186zM782 1698q0 -88 -70 -152.5t-159 -64.5q-99 0 -166.5 63.5t-67.5 153.5q0 89 70 153t164 64t161.5 -64t67.5 -153zM633 1698q0 36 -24 61
t-54 25q-39 0 -62.5 -24.5t-23.5 -61.5q0 -36 23.5 -61t56.5 -25q37 0 60.5 24.5t23.5 61.5z" />
    <glyph glyph-name="AE" unicode="&#xc6;" horiz-adv-x="1484" 
d="M1444 0h-758v274h-289l-121 -274h-358l729 1427h772l-39 -301h-374v-239h313v-291h-313v-291h438v-305zM686 557v291q0 55 2 86h-4q-42 -150 -156 -377h158z" />
    <glyph glyph-name="Ccedilla" unicode="&#xc7;" horiz-adv-x="1021" 
d="M1001 121q-139 -146 -389 -146h-16l-10 -26q63 -6 100 -47.5t37 -102.5q0 -86 -52.5 -147.5t-164.5 -61.5q-40 0 -85 12t-73 29l60 127q39 -22 84 -22q28 0 43.5 13t15.5 36q0 49 -59 49q-26 0 -50 -4l-18 35l37 131q-75 20 -141.5 65.5t-108.5 102.5q-150 197 -150 522
q0 118 18 224.5t61.5 207.5t109.5 173.5t169 116.5t232 44q97 0 188.5 -29t131.5 -75l-140 -250q-80 71 -190 71q-117 0 -170 -94.5t-53 -292.5q0 -396 92 -473q60 -51 131 -51q134 0 223 92z" />
    <glyph glyph-name="Egrave" unicode="&#xc8;" horiz-adv-x="901" 
d="M860 0h-737v1427h733l-33 -280h-381v-268h312v-275h-312v-317h418v-287zM696 1659l-98 -164l-414 197l125 215z" />
    <glyph glyph-name="Eacute" unicode="&#xc9;" horiz-adv-x="901" 
d="M860 0h-737v1427h733l-33 -280h-381v-268h312v-275h-312v-317h418v-287zM737 1694l-409 -197l-105 162l383 248z" />
    <glyph glyph-name="Ecircumflex" unicode="&#xca;" horiz-adv-x="901" 
d="M860 0h-737v1427h733l-33 -280h-381v-268h312v-275h-312v-317h418v-287zM838 1671l-101 -184l-248 143l-241 -143l-88 184l342 244z" />
    <glyph glyph-name="Edieresis" unicode="&#xcb;" horiz-adv-x="901" 
d="M860 0h-737v1427h733l-33 -280h-381v-268h312v-275h-312v-317h418v-287zM434 1700q0 -67 -47.5 -113.5t-114.5 -46.5q-70 0 -120 46.5t-50 113.5q0 68 48 116t114 48q71 0 120.5 -47.5t49.5 -116.5zM872 1700q0 -67 -47.5 -113.5t-113.5 -46.5q-70 0 -120 46.5t-50 113.5
q0 69 47.5 116.5t113.5 47.5q71 0 120.5 -47.5t49.5 -116.5z" />
    <glyph glyph-name="Igrave" unicode="&#xcc;" horiz-adv-x="567" 
d="M444 0h-321v1427h321v-1427zM541 1659l-99 -164l-413 197l125 215z" />
    <glyph glyph-name="Iacute" unicode="&#xcd;" horiz-adv-x="567" 
d="M444 0h-321v1427h321v-1427zM535 1694l-410 -197l-105 162l383 248z" />
    <glyph glyph-name="Icircumflex" unicode="&#xce;" horiz-adv-x="567" 
d="M444 0h-321v1427h321v-1427zM623 1671l-101 -184l-248 143l-241 -143l-88 184l342 244z" />
    <glyph glyph-name="Idieresis" unicode="&#xcf;" horiz-adv-x="567" 
d="M444 0h-321v1427h321v-1427zM229 1700q0 -67 -47.5 -113.5t-113.5 -46.5q-70 0 -120 46.5t-50 113.5q0 69 47.5 116.5t113.5 47.5q71 0 120.5 -47.5t49.5 -116.5zM668 1700q0 -67 -47.5 -113.5t-114.5 -46.5q-70 0 -120 46.5t-50 113.5q0 68 48 116t114 48
q71 0 120.5 -47.5t49.5 -116.5z" />
    <glyph glyph-name="Eth" unicode="&#xd0;" horiz-adv-x="1124" 
d="M1063 739q0 -183 -31.5 -321t-113.5 -246q-67 -88 -161 -130t-196 -42h-438v594h-103v280h103v553h414q209 0 319 -88q207 -166 207 -600zM711 752q0 273 -76 356q-39 41 -100 41h-93v-275h168l-20 -280h-148v-311h101q29 0 52 10.5t45.5 41t37.5 81.5t24 136t9 200z" />
    <glyph glyph-name="Ntilde" unicode="&#xd1;" horiz-adv-x="1177" 
d="M1055 0h-330l-219 496q-39 88 -96 268q16 -110 16 -289v-475h-303v1427h307l227 -489q51 -110 103 -272q-10 105 -10 319v442h305v-1427zM903 1626q-78 -113 -221 -113q-54 0 -121.5 38t-118.5 38q-71 0 -125 -61l-77 198q85 121 209 121q57 0 125.5 -35.5t117.5 -35.5
q36 0 73.5 18t57.5 41z" />
    <glyph glyph-name="Ograve" unicode="&#xd2;" horiz-adv-x="1243" 
d="M1182 768q0 -435 -170 -633q-140 -160 -387 -160q-228 0 -371 140q-94 91 -143.5 235t-49.5 328q0 372 151 573t404 201q222 0 367 -135q101 -97 150 -244t49 -305zM825 727q0 172 -18 268.5t-57 141.5q-43 51 -132 51q-72 0 -114 -58q-84 -117 -84 -407q0 -291 61 -395
q47 -82 144 -82q105 0 149 94q51 108 51 387zM840 1659l-99 -164l-413 197l125 215z" />
    <glyph glyph-name="Oacute" unicode="&#xd3;" horiz-adv-x="1243" 
d="M1182 768q0 -435 -170 -633q-140 -160 -387 -160q-228 0 -371 140q-94 91 -143.5 235t-49.5 328q0 372 151 573t404 201q222 0 367 -135q101 -97 150 -244t49 -305zM825 727q0 172 -18 268.5t-57 141.5q-43 51 -132 51q-72 0 -114 -58q-84 -117 -84 -407q0 -291 61 -395
q47 -82 144 -82q105 0 149 94q51 108 51 387zM895 1694l-410 -197l-104 162l383 248z" />
    <glyph glyph-name="Ocircumflex" unicode="&#xd4;" horiz-adv-x="1243" 
d="M1182 768q0 -435 -170 -633q-140 -160 -387 -160q-228 0 -371 140q-94 91 -143.5 235t-49.5 328q0 372 151 573t404 201q222 0 367 -135q101 -97 150 -244t49 -305zM825 727q0 172 -18 268.5t-57 141.5q-43 51 -132 51q-72 0 -114 -58q-84 -117 -84 -407q0 -291 61 -395
q47 -82 144 -82q105 0 149 94q51 108 51 387zM969 1671l-101 -184l-247 143l-242 -143l-88 184l342 244z" />
    <glyph glyph-name="Otilde" unicode="&#xd5;" horiz-adv-x="1243" 
d="M1182 768q0 -435 -170 -633q-140 -160 -387 -160q-228 0 -371 140q-94 91 -143.5 235t-49.5 328q0 372 151 573t404 201q222 0 367 -135q101 -97 150 -244t49 -305zM825 727q0 172 -18 268.5t-57 141.5q-43 51 -132 51q-72 0 -114 -58q-84 -117 -84 -407q0 -291 61 -395
q47 -82 144 -82q105 0 149 94q51 108 51 387zM946 1626q-78 -113 -221 -113q-53 0 -121 38t-119 38q-71 0 -125 -61l-77 198q85 121 209 121q57 0 125.5 -35.5t117.5 -35.5q36 0 73.5 18t57.5 41z" />
    <glyph glyph-name="Odieresis" unicode="&#xd6;" horiz-adv-x="1243" 
d="M1182 768q0 -435 -170 -633q-140 -160 -387 -160q-228 0 -371 140q-94 91 -143.5 235t-49.5 328q0 372 151 573t404 201q222 0 367 -135q101 -97 150 -244t49 -305zM825 727q0 172 -18 268.5t-57 141.5q-43 51 -132 51q-72 0 -114 -58q-84 -117 -84 -407q0 -291 61 -395
q47 -82 144 -82q105 0 149 94q51 108 51 387zM565 1700q0 -67 -47.5 -113.5t-114.5 -46.5q-70 0 -120 46.5t-50 113.5q0 68 47.5 116t114.5 48q71 0 120.5 -47.5t49.5 -116.5zM1004 1700q0 -67 -47.5 -113.5t-114.5 -46.5q-70 0 -120 46.5t-50 113.5q0 68 48 116t114 48
q71 0 120.5 -47.5t49.5 -116.5z" />
    <glyph glyph-name="multiply" unicode="&#xd7;" horiz-adv-x="1177" 
d="M1116 406l-231 -232l-301 301l-297 -297l-215 213l297 297l-308 309l232 232l307 -309l297 297l215 -213l-297 -297z" />
    <glyph glyph-name="Oslash" unicode="&#xd8;" horiz-adv-x="1243" 
d="M1182 768q0 -793 -557 -793q-140 0 -252 56l-125 -234l-152 113l127 237q-162 188 -162 531q0 186 43.5 334.5t120.5 244t181.5 145.5t228.5 50q150 0 256 -59l106 198l154 -102l-115 -215q75 -97 110.5 -230t35.5 -276zM745 1122q-40 43 -118 43q-86 0 -138 -80
q-69 -107 -69 -366q0 -102 10 -187zM825 723q0 61 -4 147l-305 -569q45 -37 115 -37q99 0 143 82q51 99 51 377z" />
    <glyph glyph-name="Ugrave" unicode="&#xd9;" horiz-adv-x="1163" 
d="M1051 1427v-987q0 -94 -6.5 -143.5t-24.5 -91.5q-42 -99 -153.5 -164.5t-284.5 -65.5q-297 0 -408 179q-38 63 -49.5 115.5t-11.5 187.5v970h321v-964q0 -125 41 -174q36 -45 109 -45q75 0 108 39q39 44 39 174v970h320zM821 1659l-98 -164l-414 197l125 215z" />
    <glyph glyph-name="Uacute" unicode="&#xda;" horiz-adv-x="1163" 
d="M1051 1427v-987q0 -94 -6.5 -143.5t-24.5 -91.5q-42 -99 -153.5 -164.5t-284.5 -65.5q-297 0 -408 179q-38 63 -49.5 115.5t-11.5 187.5v970h321v-964q0 -125 41 -174q36 -45 109 -45q75 0 108 39q39 44 39 174v970h320zM834 1694l-410 -197l-105 162l383 248z" />
    <glyph glyph-name="Ucircumflex" unicode="&#xdb;" horiz-adv-x="1163" 
d="M1051 1427v-987q0 -94 -6.5 -143.5t-24.5 -91.5q-42 -99 -153.5 -164.5t-284.5 -65.5q-297 0 -408 179q-38 63 -49.5 115.5t-11.5 187.5v970h321v-964q0 -125 41 -174q36 -45 109 -45q75 0 108 39q39 44 39 174v970h320zM928 1671l-101 -184l-247 143l-242 -143l-88 184
l342 244z" />
    <glyph glyph-name="Udieresis" unicode="&#xdc;" horiz-adv-x="1163" 
d="M1051 1427v-987q0 -94 -6.5 -143.5t-24.5 -91.5q-42 -99 -153.5 -164.5t-284.5 -65.5q-297 0 -408 179q-38 63 -49.5 115.5t-11.5 187.5v970h321v-964q0 -125 41 -174q36 -45 109 -45q75 0 108 39q39 44 39 174v970h320zM524 1700q0 -67 -47.5 -113.5t-114.5 -46.5
q-70 0 -119.5 46.5t-49.5 113.5q0 69 47.5 116.5t113.5 47.5q71 0 120.5 -47.5t49.5 -116.5zM963 1700q0 -67 -47.5 -113.5t-114.5 -46.5q-70 0 -120 46.5t-50 113.5q0 68 47.5 116t114.5 48q71 0 120.5 -47.5t49.5 -116.5z" />
    <glyph glyph-name="Yacute" unicode="&#xdd;" horiz-adv-x="1026" 
d="M1067 1427l-397 -913v-514h-328v508l-383 919h381l121 -403q28 -90 53 -207q5 20 53 207l121 403h379zM752 1694l-410 -197l-104 162l383 248z" />
    <glyph glyph-name="Thorn" unicode="&#xde;" horiz-adv-x="1050" 
d="M1030 758q0 -199 -100 -320q-131 -155 -406 -155h-82v-283h-319v1427h319v-225h64q308 0 436 -155q88 -108 88 -289zM682 762q0 70 -29 110q-38 52 -121 52h-90v-365h70q84 0 123 39q47 47 47 164z" />
    <glyph glyph-name="germandbls" unicode="&#xdf;" horiz-adv-x="1122" 
d="M1071 414q0 -197 -123.5 -318t-318.5 -121q-87 0 -146 25l39 264q30 -18 78 -18q66 0 101.5 42t35.5 118q0 61 -27.5 95t-101.5 83q-53 35 -82.5 81.5t-29.5 127.5q0 54 12.5 91.5t26.5 54t47 48.5q27 27 39 49t12 60q0 61 -27.5 91t-70.5 30q-58 0 -78.5 -40.5
t-20.5 -144.5v-792q0 -122 -28 -240h-314q29 151 29 285v491h-123v281h123v49q0 161 115.5 265t298.5 104q196 0 316 -99.5t120 -261.5q0 -81 -38 -154t-114 -122q-12 -8 -24 -14.5t-16.5 -9t-7.5 -6t-3 -9.5q0 -7 2.5 -10.5t6 -5.5t14.5 -6.5t20 -8.5q33 -16 47.5 -24
t47.5 -28.5t50.5 -36.5t42.5 -45t37.5 -59t22.5 -72t10 -89z" />
    <glyph glyph-name="agrave" unicode="&#xe0;" horiz-adv-x="946" 
d="M893 156l-180 -199q-31 12 -66.5 45t-48.5 59q-88 -88 -231 -88q-83 0 -145.5 27t-99 75t-54 108.5t-17.5 133.5q0 153 110.5 249t299.5 96q5 0 17.5 -1t22.5 -1.5t11 -0.5v80q0 49 -10 72q-17 31 -66 31q-133 0 -264 -111l-111 207q208 145 416 145q132 0 221 -50
t113 -142q14 -55 14 -164l-4 -365q0 -76 14.5 -125t57.5 -81zM512 258v178h-14q-144 0 -144 -112q0 -46 22.5 -73.5t61.5 -27.5q21 0 43.5 11t30.5 24zM676 1290l-98 -164l-414 197l125 215z" />
    <glyph glyph-name="aacute" unicode="&#xe1;" horiz-adv-x="946" 
d="M893 156l-180 -199q-31 12 -66.5 45t-48.5 59q-88 -88 -231 -88q-83 0 -145.5 27t-99 75t-54 108.5t-17.5 133.5q0 153 110.5 249t299.5 96q5 0 17.5 -1t22.5 -1.5t11 -0.5v80q0 49 -10 72q-17 31 -66 31q-133 0 -264 -111l-111 207q208 145 416 145q132 0 221 -50
t113 -142q14 -55 14 -164l-4 -365q0 -76 14.5 -125t57.5 -81zM512 258v178h-14q-144 0 -144 -112q0 -46 22.5 -73.5t61.5 -27.5q21 0 43.5 11t30.5 24zM739 1325l-409 -197l-105 162l383 248z" />
    <glyph glyph-name="acircumflex" unicode="&#xe2;" horiz-adv-x="946" 
d="M893 156l-180 -199q-31 12 -66.5 45t-48.5 59q-88 -88 -231 -88q-83 0 -145.5 27t-99 75t-54 108.5t-17.5 133.5q0 153 110.5 249t299.5 96q5 0 17.5 -1t22.5 -1.5t11 -0.5v80q0 49 -10 72q-17 31 -66 31q-133 0 -264 -111l-111 207q208 145 416 145q132 0 221 -50
t113 -142q14 -55 14 -164l-4 -365q0 -76 14.5 -125t57.5 -81zM512 258v178h-14q-144 0 -144 -112q0 -46 22.5 -73.5t61.5 -27.5q21 0 43.5 11t30.5 24zM788 1303l-100 -185l-248 144l-241 -144l-88 185l342 243z" />
    <glyph glyph-name="atilde" unicode="&#xe3;" horiz-adv-x="946" 
d="M893 156l-180 -199q-31 12 -66.5 45t-48.5 59q-88 -88 -231 -88q-83 0 -145.5 27t-99 75t-54 108.5t-17.5 133.5q0 153 110.5 249t299.5 96q5 0 17.5 -1t22.5 -1.5t11 -0.5v80q0 49 -10 72q-17 31 -66 31q-133 0 -264 -111l-111 207q208 145 416 145q132 0 221 -50
t113 -142q14 -55 14 -164l-4 -365q0 -76 14.5 -125t57.5 -81zM512 258v178h-14q-144 0 -144 -112q0 -46 22.5 -73.5t61.5 -27.5q21 0 43.5 11t30.5 24zM772 1298q-77 -112 -221 -112q-54 0 -121.5 38t-118.5 38q-70 0 -125 -62l-77 199q85 121 208 121q57 0 126 -36t118 -36
q36 0 73.5 18t57.5 41z" />
    <glyph glyph-name="adieresis" unicode="&#xe4;" horiz-adv-x="946" 
d="M893 156l-180 -199q-31 12 -66.5 45t-48.5 59q-88 -88 -231 -88q-83 0 -145.5 27t-99 75t-54 108.5t-17.5 133.5q0 153 110.5 249t299.5 96q5 0 17.5 -1t22.5 -1.5t11 -0.5v80q0 49 -10 72q-17 31 -66 31q-133 0 -264 -111l-111 207q208 145 416 145q132 0 221 -50
t113 -142q14 -55 14 -164l-4 -365q0 -76 14.5 -125t57.5 -81zM512 258v178h-14q-144 0 -144 -112q0 -46 22.5 -73.5t61.5 -27.5q21 0 43.5 11t30.5 24zM399 1331q0 -67 -47.5 -113.5t-113.5 -46.5q-70 0 -120 46.5t-50 113.5q0 69 47.5 116.5t113.5 47.5q71 0 120.5 -47.5
t49.5 -116.5zM838 1331q0 -67 -47.5 -113.5t-114.5 -46.5q-70 0 -120 46.5t-50 113.5q0 69 48 116.5t114 47.5q71 0 120.5 -47.5t49.5 -116.5z" />
    <glyph glyph-name="aring" unicode="&#xe5;" horiz-adv-x="946" 
d="M893 156l-180 -199q-31 12 -66.5 45t-48.5 59q-88 -88 -231 -88q-83 0 -145.5 27t-99 75t-54 108.5t-17.5 133.5q0 153 110.5 249t299.5 96q5 0 17.5 -1t22.5 -1.5t11 -0.5v80q0 49 -10 72q-17 31 -66 31q-133 0 -264 -111l-111 207q208 145 416 145q132 0 221 -50
t113 -142q14 -55 14 -164l-4 -365q0 -76 14.5 -125t57.5 -81zM512 258v178h-14q-144 0 -144 -112q0 -46 22.5 -73.5t61.5 -27.5q21 0 43.5 11t30.5 24zM682 1350q0 -88 -70 -152.5t-159 -64.5q-99 0 -166.5 63.5t-67.5 153.5q0 89 70 153t164 64t161.5 -64t67.5 -153z
M532 1350q0 36 -23.5 61t-53.5 25q-39 0 -62.5 -24.5t-23.5 -61.5q0 -36 23.5 -61t56.5 -25q36 0 59.5 24.5t23.5 61.5z" />
    <glyph glyph-name="ae" unicode="&#xe6;" horiz-adv-x="1374" 
d="M1333 416h-514q0 -30 5.5 -59t19.5 -61.5t46 -52.5t77 -20q124 0 243 107l119 -205q-91 -81 -180 -116.5t-193 -35.5q-211 0 -323 121q-30 -49 -99.5 -85t-166.5 -36q-83 0 -145.5 27t-99 75t-54 108.5t-17.5 133.5q0 154 112 249.5t306 95.5q31 0 43 -3v66q0 57 -14 76
q-16 22 -62 22q-133 0 -262 -110l-113 221q214 149 416 149q150 0 232 -67q74 67 209 67q204 0 309 -139q106 -140 106 -432v-96zM512 254v184h-2q-88 0 -122 -31t-34 -85q0 -46 22.5 -74.5t61.5 -28.5q21 0 43.5 11t30.5 24zM1026 647q0 95 -21.5 142t-76.5 47
q-109 0 -109 -189h207z" />
    <glyph glyph-name="ccedilla" unicode="&#xe7;" horiz-adv-x="821" 
d="M811 123q-130 -150 -332 -150h-8l-8 -24q63 -6 100 -47.5t37 -102.5q0 -86 -52.5 -147.5t-164.5 -61.5q-40 0 -85 12t-73 29l60 127q39 -22 84 -22q28 0 43.5 13t15.5 36q0 49 -59 49q-26 0 -50 -4l-18 35l37 131q-78 23 -139 88q-138 141 -138 434q0 284 134 434
q116 131 309 131q84 0 147.5 -29t134.5 -96l-143 -198q-27 33 -62.5 54.5t-66.5 21.5q-39 0 -61 -25q-52 -55 -52 -270q0 -170 23 -242t88 -72q96 0 166 90z" />
    <glyph glyph-name="egrave" unicode="&#xe8;" horiz-adv-x="940" 
d="M899 438h-516q0 -112 47 -170q37 -47 100 -47q116 0 238 107l127 -203q-91 -80 -181.5 -116t-195.5 -36q-221 0 -339 143t-118 406q0 293 134 443q106 118 286 118q186 0 285 -102q133 -136 133 -477v-66zM590 659q0 106 -23 156q-21 47 -73 47q-58 0 -83.5 -43.5
t-25.5 -159.5h205zM696 1290l-98 -164l-414 197l125 215z" />
    <glyph glyph-name="eacute" unicode="&#xe9;" horiz-adv-x="940" 
d="M899 438h-516q0 -112 47 -170q37 -47 100 -47q116 0 238 107l127 -203q-91 -80 -181.5 -116t-195.5 -36q-221 0 -339 143t-118 406q0 293 134 443q106 118 286 118q186 0 285 -102q133 -136 133 -477v-66zM590 659q0 106 -23 156q-21 47 -73 47q-58 0 -83.5 -43.5
t-25.5 -159.5h205zM739 1325l-409 -197l-105 162l383 248z" />
    <glyph glyph-name="ecircumflex" unicode="&#xea;" horiz-adv-x="940" 
d="M899 438h-516q0 -112 47 -170q37 -47 100 -47q116 0 238 107l127 -203q-91 -80 -181.5 -116t-195.5 -36q-221 0 -339 143t-118 406q0 293 134 443q106 118 286 118q186 0 285 -102q133 -136 133 -477v-66zM590 659q0 106 -23 156q-21 47 -73 47q-58 0 -83.5 -43.5
t-25.5 -159.5h205zM821 1303l-100 -185l-248 144l-242 -144l-88 185l342 243z" />
    <glyph glyph-name="edieresis" unicode="&#xeb;" horiz-adv-x="940" 
d="M899 438h-516q0 -112 47 -170q37 -47 100 -47q116 0 238 107l127 -203q-91 -80 -181.5 -116t-195.5 -36q-221 0 -339 143t-118 406q0 293 134 443q106 118 286 118q186 0 285 -102q133 -136 133 -477v-66zM590 659q0 106 -23 156q-21 47 -73 47q-58 0 -83.5 -43.5
t-25.5 -159.5h205zM420 1331q0 -67 -47.5 -113.5t-114.5 -46.5q-70 0 -120 46.5t-50 113.5q0 69 48 116.5t114 47.5q71 0 120.5 -47.5t49.5 -116.5zM858 1331q0 -67 -47.5 -113.5t-114.5 -46.5q-70 0 -120 46.5t-50 113.5q0 69 48 116.5t114 47.5q71 0 120.5 -47.5
t49.5 -116.5z" />
    <glyph glyph-name="igrave" unicode="&#xec;" horiz-adv-x="559" 
d="M436 0h-313v1040l313 33v-1073zM535 1290l-99 -164l-413 197l124 215z" />
    <glyph glyph-name="iacute" unicode="&#xed;" horiz-adv-x="559" 
d="M436 0h-313v1040l313 33v-1073zM532 1325l-409 -197l-105 162l383 248z" />
    <glyph glyph-name="icircumflex" unicode="&#xee;" horiz-adv-x="559" 
d="M436 0h-313v1040l313 33v-1073zM618 1303l-100 -185l-248 144l-241 -144l-88 185l342 243z" />
    <glyph glyph-name="idieresis" unicode="&#xef;" horiz-adv-x="559" 
d="M436 0h-313v1040l313 33v-1073zM225 1331q0 -67 -47.5 -113.5t-114.5 -46.5q-70 0 -119.5 46.5t-49.5 113.5q0 69 47.5 116.5t113.5 47.5q71 0 120.5 -47.5t49.5 -116.5zM664 1331q0 -67 -47.5 -113.5t-114.5 -46.5q-70 0 -120 46.5t-50 113.5q0 69 48 116.5t114 47.5
q71 0 120.5 -47.5t49.5 -116.5z" />
    <glyph glyph-name="eth" unicode="&#xf0;" horiz-adv-x="948" 
d="M887 496q0 -252 -116 -385.5t-298 -133.5q-180 0 -292.5 121.5t-112.5 345.5q0 194 107 312t274 118q14 0 26 -2q-26 53 -88 105l-74 -84l-166 94l74 84q-111 44 -262 64l191 260q139 -16 278 -90l84 96l166 -94l-94 -109q57 -51 106 -115q197 -263 197 -587zM588 479
q0 78 -4 113q-47 18 -97 18q-60 0 -89 -45.5t-29 -124.5q0 -80 29 -129t85 -49q105 0 105 217z" />
    <glyph glyph-name="ntilde" unicode="&#xf1;" horiz-adv-x="1048" 
d="M926 0h-312v702q0 74 -20 97q-14 14 -53 14q-51 0 -105 -57v-756h-313v739q0 156 -29 287l285 55q18 -56 20 -92q109 94 267 94q107 0 170 -47q90 -65 90 -223v-813zM836 1298q-77 -112 -222 -112q-54 0 -121 38t-118 38q-70 0 -125 -62l-78 199q85 121 209 121
q57 0 126 -36t118 -36q36 0 73.5 18t57.5 41z" />
    <glyph glyph-name="ograve" unicode="&#xf2;" horiz-adv-x="968" 
d="M918 555q0 -243 -99 -397q-60 -93 -150 -139t-190 -46q-226 0 -340 183q-88 142 -88 368q0 260 119 410q118 149 319 149q225 0 336 -163q93 -137 93 -365zM582 565q0 197 -37 248q-20 29 -62 29t-63 -43q-33 -65 -33 -281q0 -136 10 -202t43 -89q18 -12 45 -12
q30 0 50 23q47 55 47 327zM696 1290l-98 -164l-414 197l125 215z" />
    <glyph glyph-name="oacute" unicode="&#xf3;" horiz-adv-x="968" 
d="M918 555q0 -243 -99 -397q-60 -93 -150 -139t-190 -46q-226 0 -340 183q-88 142 -88 368q0 260 119 410q118 149 319 149q225 0 336 -163q93 -137 93 -365zM582 565q0 197 -37 248q-20 29 -62 29t-63 -43q-33 -65 -33 -281q0 -136 10 -202t43 -89q18 -12 45 -12
q30 0 50 23q47 55 47 327zM739 1325l-409 -197l-105 162l383 248z" />
    <glyph glyph-name="ocircumflex" unicode="&#xf4;" horiz-adv-x="968" 
d="M918 555q0 -243 -99 -397q-60 -93 -150 -139t-190 -46q-226 0 -340 183q-88 142 -88 368q0 260 119 410q118 149 319 149q225 0 336 -163q93 -137 93 -365zM582 565q0 197 -37 248q-20 29 -62 29t-63 -43q-33 -65 -33 -281q0 -136 10 -202t43 -89q18 -12 45 -12
q30 0 50 23q47 55 47 327zM827 1303l-100 -185l-248 144l-241 -144l-88 185l342 243z" />
    <glyph glyph-name="otilde" unicode="&#xf5;" horiz-adv-x="968" 
d="M918 555q0 -243 -99 -397q-60 -93 -150 -139t-190 -46q-226 0 -340 183q-88 142 -88 368q0 260 119 410q118 149 319 149q225 0 336 -163q93 -137 93 -365zM582 565q0 197 -37 248q-20 29 -62 29t-63 -43q-33 -65 -33 -281q0 -136 10 -202t43 -89q18 -12 45 -12
q30 0 50 23q47 55 47 327zM811 1298q-77 -112 -221 -112q-54 0 -122 38t-118 38q-70 0 -125 -62l-78 199q85 121 209 121q57 0 126 -36t118 -36q36 0 73.5 18t57.5 41z" />
    <glyph glyph-name="odieresis" unicode="&#xf6;" horiz-adv-x="968" 
d="M918 555q0 -243 -99 -397q-60 -93 -150 -139t-190 -46q-226 0 -340 183q-88 142 -88 368q0 260 119 410q118 149 319 149q225 0 336 -163q93 -137 93 -365zM582 565q0 197 -37 248q-20 29 -62 29t-63 -43q-33 -65 -33 -281q0 -136 10 -202t43 -89q18 -12 45 -12
q30 0 50 23q47 55 47 327zM434 1331q0 -67 -47.5 -113.5t-114.5 -46.5q-70 0 -120 46.5t-50 113.5q0 69 48 116.5t114 47.5q71 0 120.5 -47.5t49.5 -116.5zM872 1331q0 -67 -47.5 -113.5t-113.5 -46.5q-70 0 -120 46.5t-50 113.5q0 69 47.5 116.5t113.5 47.5
q71 0 120.5 -47.5t49.5 -116.5z" />
    <glyph glyph-name="divide" unicode="&#xf7;" horiz-adv-x="1157" 
d="M1096 418h-1035v256h1035v-256zM784 150q0 -87 -62 -149t-149 -62q-86 0 -147 61.5t-61 149.5q0 85 61 145.5t147 60.5t148.5 -60.5t62.5 -145.5zM784 958q0 -87 -62 -148.5t-149 -61.5q-86 0 -147 61t-61 149q0 85 61 146t147 61t148.5 -61t62.5 -146z" />
    <glyph glyph-name="oslash" unicode="&#xf8;" horiz-adv-x="968" 
d="M918 555q0 -243 -99 -397q-60 -93 -150 -139t-190 -46q-99 0 -182 39l-80 -149l-123 90l82 151q-22 25 -37 52q-88 142 -88 368q0 260 119 410q118 149 319 149q109 0 191 -39l80 150l123 -84l-84 -156l26 -34q93 -137 93 -365zM582 565q0 197 -37 248q-20 29 -62 29
t-63 -43q-33 -65 -33 -281q0 -136 10 -202t43 -89q18 -12 45 -12q30 0 50 23q47 55 47 327z" />
    <glyph glyph-name="ugrave" unicode="&#xf9;" horiz-adv-x="1038" 
d="M965 80l-271 -107q-24 30 -41 95q-92 -95 -229 -95q-129 0 -198 46t-93 139q-20 76 -20 260v614l313 49v-737q0 -92 37 -108q14 -7 41 -7t46.5 13t53.5 49v741l311 49v-762q0 -144 50 -239zM778 1290l-98 -164l-414 197l125 215z" />
    <glyph glyph-name="uacute" unicode="&#xfa;" horiz-adv-x="1038" 
d="M965 80l-271 -107q-24 30 -41 95q-92 -95 -229 -95q-129 0 -198 46t-93 139q-20 76 -20 260v614l313 49v-737q0 -92 37 -108q14 -7 41 -7t46.5 13t53.5 49v741l311 49v-762q0 -144 50 -239zM793 1325l-410 -197l-104 162l383 248z" />
    <glyph glyph-name="ucircumflex" unicode="&#xfb;" horiz-adv-x="1038" 
d="M965 80l-271 -107q-24 30 -41 95q-92 -95 -229 -95q-129 0 -198 46t-93 139q-20 76 -20 260v614l313 49v-737q0 -92 37 -108q14 -7 41 -7t46.5 13t53.5 49v741l311 49v-762q0 -144 50 -239zM850 1303l-100 -185l-248 144l-242 -144l-88 185l342 243z" />
    <glyph glyph-name="udieresis" unicode="&#xfc;" horiz-adv-x="1038" 
d="M965 80l-271 -107q-24 30 -41 95q-92 -95 -229 -95q-129 0 -198 46t-93 139q-20 76 -20 260v614l313 49v-737q0 -92 37 -108q14 -7 41 -7t46.5 13t53.5 49v741l311 49v-762q0 -144 50 -239zM461 1331q0 -67 -47.5 -113.5t-114.5 -46.5q-70 0 -120 46.5t-50 113.5
q0 69 47.5 116.5t114.5 47.5q71 0 120.5 -47.5t49.5 -116.5zM899 1331q0 -67 -47.5 -113.5t-114.5 -46.5q-70 0 -120 46.5t-50 113.5q0 69 47.5 116.5t114.5 47.5q71 0 120.5 -47.5t49.5 -116.5z" />
    <glyph glyph-name="yacute" unicode="&#xfd;" horiz-adv-x="940" 
d="M971 1057l-348 -1059q-28 -86 -50.5 -143.5t-52 -114t-62.5 -92t-77.5 -65t-101 -45.5t-129.5 -23l-111 229q142 37 200.5 84.5t112.5 171.5h-94q-20 126 -65 272l-224 775l322 26l135 -559q38 -170 43 -217h2q24 185 64 328l122 432h314zM766 1325l-410 -197l-104 162
l383 248z" />
    <glyph glyph-name="thorn" unicode="&#xfe;" horiz-adv-x="1013" 
d="M952 555q0 -342 -178 -500q-91 -82 -205 -82q-93 0 -147 45q16 -46 16 -170v-251l-313 -64v1673q0 122 -16 226l309 53q18 -108 18 -266v-127q0 -50 -6 -68q59 59 160 59q166 0 264 -135t98 -393zM621 535q0 153 -26.5 219.5t-80.5 66.5q-48 0 -78 -45v-504
q30 -30 76 -30q59 0 84 71t25 222z" />
    <glyph glyph-name="ydieresis" unicode="&#xff;" horiz-adv-x="940" 
d="M971 1057l-348 -1059q-28 -86 -50.5 -143.5t-52 -114t-62.5 -92t-77.5 -65t-101 -45.5t-129.5 -23l-111 229q142 37 200.5 84.5t112.5 171.5h-94q-20 126 -65 272l-224 775l322 26l135 -559q38 -170 43 -217h2q24 185 64 328l122 432h314zM430 1331q0 -67 -47.5 -113.5
t-114.5 -46.5q-70 0 -120 46.5t-50 113.5q0 69 48 116.5t114 47.5q71 0 120.5 -47.5t49.5 -116.5zM868 1331q0 -67 -47.5 -113.5t-113.5 -46.5q-70 0 -120 46.5t-50 113.5q0 69 47.5 116.5t113.5 47.5q71 0 120.5 -47.5t49.5 -116.5z" />
    <glyph glyph-name="Amacron" unicode="&#x100;" horiz-adv-x="1085" 
d="M1106 0h-344l-68 285h-307l-70 -285h-337l401 1427h348zM637 535l-66 327q-21 103 -24 201h-4q-3 -79 -27 -201l-65 -327h186zM862 1540h-612v195h612v-195z" />
    <glyph glyph-name="amacron" unicode="&#x101;" horiz-adv-x="946" 
d="M893 156l-180 -199q-31 12 -66.5 45t-48.5 59q-88 -88 -231 -88q-83 0 -145.5 27t-99 75t-54 108.5t-17.5 133.5q0 153 110.5 249t299.5 96q5 0 17.5 -1t22.5 -1.5t11 -0.5v80q0 49 -10 72q-17 31 -66 31q-133 0 -264 -111l-111 207q208 145 416 145q132 0 221 -50
t113 -142q14 -55 14 -164l-4 -365q0 -76 14.5 -125t57.5 -81zM512 258v178h-14q-144 0 -144 -112q0 -46 22.5 -73.5t61.5 -27.5q21 0 43.5 11t30.5 24zM768 1171h-612v195h612v-195z" />
    <glyph glyph-name="Abreve" unicode="&#x102;" horiz-adv-x="1085" 
d="M1106 0h-344l-68 285h-307l-70 -285h-337l401 1427h348zM637 535l-66 327q-21 103 -24 201h-4q-3 -79 -27 -201l-65 -327h186zM901 1817q-55 -82 -150 -151t-196 -69q-105 0 -207.5 72.5t-146.5 149.5l110 125q129 -119 250 -119q88 0 248 119z" />
    <glyph glyph-name="abreve" unicode="&#x103;" horiz-adv-x="946" 
d="M893 156l-180 -199q-31 12 -66.5 45t-48.5 59q-88 -88 -231 -88q-83 0 -145.5 27t-99 75t-54 108.5t-17.5 133.5q0 153 110.5 249t299.5 96q5 0 17.5 -1t22.5 -1.5t11 -0.5v80q0 49 -10 72q-17 31 -66 31q-133 0 -264 -111l-111 207q208 145 416 145q132 0 221 -50
t113 -142q14 -55 14 -164l-4 -365q0 -76 14.5 -125t57.5 -81zM512 258v178h-14q-144 0 -144 -112q0 -46 22.5 -73.5t61.5 -27.5q21 0 43.5 11t30.5 24zM823 1462q-55 -81 -149.5 -150t-196.5 -69q-105 0 -207.5 72.5t-146.5 148.5l110 125q129 -119 250 -119q88 0 248 119z
" />
    <glyph glyph-name="Aogonek" unicode="&#x104;" horiz-adv-x="1085" 
d="M1106 0q-213 -85 -213 -180q0 -43 49 -43q33 0 86 33l59 -166q-45 -21 -73.5 -32t-72.5 -20.5t-89 -9.5q-82 0 -136 52t-54 145q0 117 100 221l-68 285h-307l-70 -285h-337l401 1427h348zM637 535l-66 327q-21 103 -24 201h-4q-3 -79 -27 -201l-65 -327h186z" />
    <glyph glyph-name="aogonek" unicode="&#x105;" horiz-adv-x="946" 
d="M944 -356q-69 -32 -121 -47t-114 -15q-87 0 -139 54.5t-52 142.5q0 124 115 235q-25 25 -35 47q-88 -88 -231 -88q-83 0 -145.5 27t-99 75t-54 108.5t-17.5 133.5q0 153 110.5 249t299.5 96q5 0 17.5 -1t22.5 -1.5t11 -0.5v80q0 49 -10 72q-17 31 -66 31
q-133 0 -264 -111l-111 207q208 145 416 145q132 0 221 -50t113 -142q14 -55 14 -164l-4 -365q0 -71 25 -153t72 -117q-65 -47 -116.5 -127t-51.5 -145q0 -43 49 -43q34 0 86 33zM512 258v178h-4q-26 0 -47 -2.5t-41.5 -9.5t-34.5 -19t-22.5 -32.5t-8.5 -48.5q0 -43 21 -72
t63 -29q19 0 41.5 10t32.5 25z" />
    <glyph glyph-name="Cacute" unicode="&#x106;" horiz-adv-x="1021" 
d="M1001 121q-139 -146 -389 -146q-254 0 -401 189q-150 192 -150 522q0 118 18 224.5t61.5 207.5t109.5 173.5t169 116.5t232 44q97 0 188.5 -29t131.5 -75l-140 -250q-80 71 -190 71q-117 0 -170 -94.5t-53 -292.5q0 -396 92 -473q60 -51 131 -51q134 0 223 92zM930 1694
l-410 -197l-104 162l383 248z" />
    <glyph glyph-name="cacute" unicode="&#x107;" horiz-adv-x="821" 
d="M811 123q-130 -150 -332 -150q-172 0 -280 111q-138 141 -138 434q0 284 134 434q116 131 309 131q84 0 147.5 -29t134.5 -96l-143 -198q-27 33 -62.5 54.5t-66.5 21.5q-39 0 -61 -25q-52 -55 -52 -270q0 -170 23 -242t88 -72q96 0 166 90zM754 1325l-410 -197l-104 162
l383 248z" />
    <glyph glyph-name="Ccircumflex" unicode="&#x108;" horiz-adv-x="1021" 
d="M1001 121q-139 -146 -389 -146q-254 0 -401 189q-150 192 -150 522q0 118 18 224.5t61.5 207.5t109.5 173.5t169 116.5t232 44q97 0 188.5 -29t131.5 -75l-140 -250q-80 71 -190 71q-117 0 -170 -94.5t-53 -292.5q0 -396 92 -473q60 -51 131 -51q134 0 223 92zM1004 1671
l-101 -184l-248 143l-241 -143l-88 184l342 244z" />
    <glyph glyph-name="ccircumflex" unicode="&#x109;" horiz-adv-x="821" 
d="M811 123q-130 -150 -332 -150q-172 0 -280 111q-138 141 -138 434q0 284 134 434q116 131 309 131q84 0 147.5 -29t134.5 -96l-143 -198q-27 33 -62.5 54.5t-66.5 21.5q-39 0 -61 -25q-52 -55 -52 -270q0 -170 23 -242t88 -72q96 0 166 90zM842 1303l-101 -185l-247 144
l-242 -144l-88 185l342 243z" />
    <glyph glyph-name="Cdotaccent" unicode="&#x10a;" horiz-adv-x="1021" 
d="M1001 121q-139 -146 -389 -146q-254 0 -401 189q-150 192 -150 522q0 118 18 224.5t61.5 207.5t109.5 173.5t169 116.5t232 44q97 0 188.5 -29t131.5 -75l-140 -250q-80 71 -190 71q-117 0 -170 -94.5t-53 -292.5q0 -396 92 -473q60 -51 131 -51q134 0 223 92zM846 1741
q0 -83 -57.5 -142t-137.5 -59q-77 0 -133.5 59t-56.5 142t57 142t137 59q78 0 134.5 -59t56.5 -142z" />
    <glyph glyph-name="cdotaccent" unicode="&#x10b;" horiz-adv-x="821" 
d="M811 123q-130 -150 -332 -150q-172 0 -280 111q-138 141 -138 434q0 284 134 434q116 131 309 131q84 0 147.5 -29t134.5 -96l-143 -198q-27 33 -62.5 54.5t-66.5 21.5q-39 0 -61 -25q-52 -55 -52 -270q0 -170 23 -242t88 -72q96 0 166 90zM698 1315q0 -83 -57 -142
t-137 -59q-77 0 -134 59t-57 142t57.5 142t137.5 59q78 0 134 -59t56 -142z" />
    <glyph glyph-name="Ccaron" unicode="&#x10c;" horiz-adv-x="1021" 
d="M1001 121q-139 -146 -389 -146q-254 0 -401 189q-150 192 -150 522q0 118 18 224.5t61.5 207.5t109.5 173.5t169 116.5t232 44q97 0 188.5 -29t131.5 -75l-140 -250q-80 71 -190 71q-117 0 -170 -94.5t-53 -292.5q0 -396 92 -473q60 -51 131 -51q134 0 223 92zM946 1759
l-336 -276l-342 276l90 185l250 -144l240 144z" />
    <glyph glyph-name="ccaron" unicode="&#x10d;" horiz-adv-x="821" 
d="M811 123q-130 -150 -332 -150q-172 0 -280 111q-138 141 -138 434q0 284 134 434q116 131 309 131q84 0 147.5 -29t134.5 -96l-143 -198q-27 33 -62.5 54.5t-66.5 21.5q-39 0 -61 -25q-52 -55 -52 -270q0 -170 23 -242t88 -72q96 0 166 90zM834 1405l-336 -277l-342 277
l90 184l250 -143l239 143z" />
    <glyph glyph-name="Dcaron" unicode="&#x10e;" horiz-adv-x="1124" 
d="M1063 739q0 -183 -31.5 -321t-113.5 -246q-67 -88 -161 -130t-196 -42h-438v1427h414q209 0 319 -88q207 -166 207 -600zM711 752q0 273 -76 356q-39 41 -100 41h-93v-866h101q29 0 52 10.5t45.5 41t37.5 81.5t24 136t9 200zM856 1759l-336 -276l-342 276l90 185
l250 -144l240 144z" />
    <glyph glyph-name="dcaron" unicode="&#x10f;" horiz-adv-x="1277" 
d="M1276 1294q0 -98 -59 -174q-24 -29 -67.5 -56t-92.5 -38l-101 90q47 10 75 29.5t28 40.5q0 15 -5.5 23t-20 18t-23.5 20q-41 43 -41 101t40.5 96.5t100.5 38.5q77 0 121.5 -51t44.5 -138zM899 0h-262q-12 30 -16 66q-74 -93 -189 -93q-176 0 -273.5 141t-97.5 394
q0 180 55.5 321.5t162.5 206.5q77 47 178 47q32 0 69 -11t58 -25q-13 67 -13 167v279l312 -47v-1188q0 -159 16 -258zM571 272v521q-13 36 -65 36q-59 0 -82 -53q-29 -65 -29 -254q0 -186 43 -246q24 -34 66 -34q50 0 67 30z" />
    <glyph glyph-name="Dcroat" unicode="&#x110;" horiz-adv-x="1124" 
d="M1063 739q0 -183 -31.5 -321t-113.5 -246q-67 -88 -161 -130t-196 -42h-438v594h-103v280h103v553h414q209 0 319 -88q207 -166 207 -600zM711 752q0 273 -76 356q-39 41 -100 41h-93v-275h168l-20 -280h-148v-311h101q29 0 52 10.5t45.5 41t37.5 81.5t24 136t9 200z" />
    <glyph glyph-name="dcroat" unicode="&#x111;" horiz-adv-x="1005" 
d="M899 0h-262q-12 30 -16 66q-74 -93 -189 -93q-176 0 -273.5 141t-97.5 394q0 180 55.5 321.5t162.5 206.5q77 47 178 47q32 0 69 -11t58 -25l-6 40l-7 76h-198v195h198v135l312 -47v-88h102v-195h-102v-905q0 -159 16 -258zM571 272v521q-13 36 -65 36q-59 0 -82 -53
q-29 -65 -29 -254q0 -186 43 -246q24 -34 66 -34q50 0 67 30z" />
    <glyph glyph-name="Emacron" unicode="&#x112;" horiz-adv-x="901" 
d="M860 0h-737v1427h733l-33 -280h-381v-268h312v-275h-312v-317h418v-287zM797 1540h-613v195h613v-195z" />
    <glyph glyph-name="emacron" unicode="&#x113;" horiz-adv-x="940" 
d="M899 438h-516q0 -112 47 -170q37 -47 100 -47q116 0 238 107l127 -203q-91 -80 -181.5 -116t-195.5 -36q-221 0 -339 143t-118 406q0 293 134 443q106 118 286 118q186 0 285 -102q133 -136 133 -477v-66zM590 659q0 106 -23 156q-21 47 -73 47q-58 0 -83.5 -43.5
t-25.5 -159.5h205zM788 1171h-612v195h612v-195z" />
    <glyph glyph-name="Ebreve" unicode="&#x114;" horiz-adv-x="901" 
d="M860 0h-737v1427h733l-33 -280h-381v-268h312v-275h-312v-317h418v-287zM797 1817q-55 -82 -150 -151t-196 -69q-105 0 -208 73t-147 149l111 125q129 -119 250 -119q88 0 248 119z" />
    <glyph glyph-name="ebreve" unicode="&#x115;" horiz-adv-x="940" 
d="M899 438h-516q0 -112 47 -170q37 -47 100 -47q116 0 238 107l127 -203q-91 -80 -181.5 -116t-195.5 -36q-221 0 -339 143t-118 406q0 293 134 443q106 118 286 118q186 0 285 -102q133 -136 133 -477v-66zM590 659q0 106 -23 156q-21 47 -73 47q-58 0 -83.5 -43.5
t-25.5 -159.5h205zM825 1462q-55 -81 -149.5 -150t-196.5 -69q-105 0 -207.5 72.5t-146.5 148.5l111 125q129 -119 249 -119q88 0 248 119z" />
    <glyph glyph-name="Edotaccent" unicode="&#x116;" horiz-adv-x="901" 
d="M860 0h-737v1427h733l-33 -280h-381v-268h312v-275h-312v-317h418v-287zM684 1741q0 -83 -57.5 -142t-137.5 -59q-77 0 -133.5 59t-56.5 142t57.5 142t137.5 59q78 0 134 -59t56 -142z" />
    <glyph glyph-name="edotaccent" unicode="&#x117;" horiz-adv-x="940" 
d="M899 438h-516q0 -112 47 -170q37 -47 100 -47q116 0 238 107l127 -203q-91 -80 -181.5 -116t-195.5 -36q-221 0 -339 143t-118 406q0 293 134 443q106 118 286 118q186 0 285 -102q133 -136 133 -477v-66zM590 659q0 106 -23 156q-21 47 -73 47q-58 0 -83.5 -43.5
t-25.5 -159.5h205zM676 1315q0 -83 -57.5 -142t-137.5 -59q-77 0 -133.5 59t-56.5 142t57 142t137 59q78 0 134.5 -59t56.5 -142z" />
    <glyph glyph-name="Eogonek" unicode="&#x118;" horiz-adv-x="901" 
d="M860 0q-60 -34 -104.5 -84t-44.5 -96q0 -43 49 -43q33 0 86 33l59 -166q-45 -21 -73.5 -32t-72.5 -20.5t-89 -9.5q-82 0 -136.5 52t-54.5 145q0 116 101 221h-457v1427h733l-33 -280h-381v-268h312v-275h-312v-317h418v-287z" />
    <glyph glyph-name="eogonek" unicode="&#x119;" horiz-adv-x="940" 
d="M61 522q0 293 134 443q106 118 286 118q186 0 285 -102q133 -136 133 -477v-66h-516q0 -112 47 -170q37 -47 100 -47q116 0 238 107l127 -203q-67 -64 -132 -152.5t-65 -146.5q0 -49 50 -49q33 0 86 33l59 -166q-45 -20 -73.5 -31.5t-73 -21t-89.5 -9.5q-82 0 -136 52
t-54 145q0 101 78 194h-27q-221 0 -339 143t-118 406zM590 659q0 106 -23 156q-21 47 -73 47q-58 0 -83.5 -43.5t-25.5 -159.5h205z" />
    <glyph glyph-name="Ecaron" unicode="&#x11a;" horiz-adv-x="901" 
d="M860 0h-737v1427h733l-33 -280h-381v-268h312v-275h-312v-317h418v-287zM784 1759l-335 -276l-343 276l91 185l249 -144l240 144z" />
    <glyph glyph-name="ecaron" unicode="&#x11b;" horiz-adv-x="940" 
d="M899 438h-516q0 -112 47 -170q37 -47 100 -47q116 0 238 107l127 -203q-91 -80 -181.5 -116t-195.5 -36q-221 0 -339 143t-118 406q0 293 134 443q106 118 286 118q186 0 285 -102q133 -136 133 -477v-66zM590 659q0 106 -23 156q-21 47 -73 47q-58 0 -83.5 -43.5
t-25.5 -159.5h205zM811 1405l-336 -277l-342 277l90 184l250 -143l240 143z" />
    <glyph glyph-name="Gcircumflex" unicode="&#x11c;" horiz-adv-x="1196" 
d="M1094 1270l-185 -223q-111 118 -250 118q-79 0 -130 -39.5t-81 -145t-30 -282.5q0 -225 53.5 -332.5t169.5 -107.5q73 0 125 25v247h-150l-41 279h510v-692q-106 -74 -220 -108t-253 -34q-216 0 -364 148q-187 187 -187 563q0 305 117 502q73 126 192 195t281 69
q124 0 239.5 -47t203.5 -135zM1004 1671l-101 -184l-248 143l-241 -143l-88 184l342 244z" />
    <glyph glyph-name="gcircumflex" unicode="&#x11d;" horiz-adv-x="987" 
d="M987 862q-53 -31 -110 -31h-13q13 -11 28 -50.5t15 -80.5q0 -97 -57.5 -172.5t-143 -113t-178.5 -37.5h-112q-19 -24 -19 -39t23.5 -24t60.5 -9h144q164 0 254 -84q84 -78 84 -213q0 -187 -123.5 -298t-376.5 -111q-213 0 -317.5 77.5t-104.5 194.5q0 55 12 129h281
q-2 -20 -2 -78q0 -88 153 -88q79 0 122.5 33.5t43.5 87.5q0 57 -35 77.5t-135 20.5h-162q-114 0 -176.5 52t-62.5 151q0 59 30.5 115t84.5 82q-134 79 -134 268q0 167 114 264.5t306 97.5q87 0 166.5 -16t112.5 -16q113 0 164 41zM590 727q0 61 -29 95t-80 34t-79.5 -34
t-28.5 -95q0 -62 27.5 -96.5t78.5 -34.5q52 0 81.5 34.5t29.5 96.5zM811 1303l-100 -185l-248 144l-242 -144l-88 185l342 243z" />
    <glyph glyph-name="Gbreve" unicode="&#x11e;" horiz-adv-x="1196" 
d="M1094 1270l-185 -223q-111 118 -250 118q-79 0 -130 -39.5t-81 -145t-30 -282.5q0 -225 53.5 -332.5t169.5 -107.5q73 0 125 25v247h-150l-41 279h510v-692q-106 -74 -220 -108t-253 -34q-216 0 -364 148q-187 187 -187 563q0 305 117 502q73 126 192 195t281 69
q124 0 239.5 -47t203.5 -135zM997 1817q-55 -82 -150 -151t-196 -69q-105 0 -207.5 72.5t-146.5 149.5l111 125q129 -119 249 -119q88 0 248 119z" />
    <glyph glyph-name="gbreve" unicode="&#x11f;" horiz-adv-x="987" 
d="M987 862q-53 -31 -110 -31h-13q13 -11 28 -50.5t15 -80.5q0 -97 -57.5 -172.5t-143 -113t-178.5 -37.5h-112q-19 -24 -19 -39t23.5 -24t60.5 -9h144q164 0 254 -84q84 -78 84 -213q0 -187 -123.5 -298t-376.5 -111q-213 0 -317.5 77.5t-104.5 194.5q0 55 12 129h281
q-2 -20 -2 -78q0 -88 153 -88q79 0 122.5 33.5t43.5 87.5q0 57 -35 77.5t-135 20.5h-162q-114 0 -176.5 52t-62.5 151q0 59 30.5 115t84.5 82q-134 79 -134 268q0 167 114 264.5t306 97.5q87 0 166.5 -16t112.5 -16q113 0 164 41zM590 727q0 61 -29 95t-80 34t-79.5 -34
t-28.5 -95q0 -62 27.5 -96.5t78.5 -34.5q52 0 81.5 34.5t29.5 96.5zM836 1462q-54 -81 -149.5 -150t-197.5 -69q-105 0 -207.5 72.5t-146.5 148.5l111 125q129 -119 250 -119q40 0 93.5 24t82 43.5t71.5 51.5z" />
    <glyph glyph-name="Gdotaccent" unicode="&#x120;" horiz-adv-x="1196" 
d="M1094 1270l-185 -223q-111 118 -250 118q-79 0 -130 -39.5t-81 -145t-30 -282.5q0 -225 53.5 -332.5t169.5 -107.5q73 0 125 25v247h-150l-41 279h510v-692q-106 -74 -220 -108t-253 -34q-216 0 -364 148q-187 187 -187 563q0 305 117 502q73 126 192 195t281 69
q124 0 239.5 -47t203.5 -135zM846 1741q0 -83 -57.5 -142t-137.5 -59q-77 0 -133.5 59t-56.5 142t57 142t137 59q78 0 134.5 -59t56.5 -142z" />
    <glyph glyph-name="gdotaccent" unicode="&#x121;" horiz-adv-x="987" 
d="M987 862q-53 -31 -110 -31h-13q13 -11 28 -50.5t15 -80.5q0 -97 -57.5 -172.5t-143 -113t-178.5 -37.5h-112q-19 -24 -19 -39t23.5 -24t60.5 -9h144q164 0 254 -84q84 -78 84 -213q0 -187 -123.5 -298t-376.5 -111q-213 0 -317.5 77.5t-104.5 194.5q0 55 12 129h281
q-2 -20 -2 -78q0 -88 153 -88q79 0 122.5 33.5t43.5 87.5q0 57 -35 77.5t-135 20.5h-162q-114 0 -176.5 52t-62.5 151q0 59 30.5 115t84.5 82q-134 79 -134 268q0 167 114 264.5t306 97.5q87 0 166.5 -16t112.5 -16q113 0 164 41zM590 727q0 61 -29 95t-80 34t-79.5 -34
t-28.5 -95q0 -62 27.5 -96.5t78.5 -34.5q52 0 81.5 34.5t29.5 96.5zM647 1315q0 -83 -57 -142t-137 -59q-77 0 -134 59t-57 142t57.5 142t137.5 59q78 0 134 -59t56 -142z" />
    <glyph glyph-name="uni0122" unicode="&#x122;" horiz-adv-x="1196" 
d="M1094 1270l-185 -223q-111 118 -250 118q-79 0 -130 -39.5t-81 -145t-30 -282.5q0 -225 53.5 -332.5t169.5 -107.5q73 0 125 25v247h-150l-41 279h510v-692q-106 -74 -220 -108t-253 -34q-216 0 -364 148q-187 187 -187 563q0 305 117 502q73 126 192 195t281 69
q124 0 239.5 -47t203.5 -135zM778 -242q0 -98 -59 -174q-24 -29 -67.5 -56t-92.5 -38l-100 90q46 10 74 29.5t28 40.5q0 15 -5.5 23t-20 18t-23.5 20q-41 43 -41 101t40.5 96.5t100.5 38.5q77 0 121.5 -51t44.5 -138z" />
    <glyph glyph-name="uni0123" unicode="&#x123;" horiz-adv-x="987" 
d="M987 862q-53 -31 -110 -31h-13q13 -11 28 -50.5t15 -80.5q0 -97 -57.5 -172.5t-143 -113t-178.5 -37.5h-112q-19 -24 -19 -39t23.5 -24t60.5 -9h144q164 0 254 -84q84 -78 84 -213q0 -187 -123.5 -298t-376.5 -111q-213 0 -317.5 77.5t-104.5 194.5q0 55 12 129h281
q-2 -20 -2 -78q0 -88 153 -88q79 0 122.5 33.5t43.5 87.5q0 57 -35 77.5t-135 20.5h-162q-114 0 -176.5 52t-62.5 151q0 59 30.5 115t84.5 82q-134 79 -134 268q0 167 114 264.5t306 97.5q87 0 166.5 -16t112.5 -16q113 0 164 41zM590 727q0 61 -29 95t-80 34t-79.5 -34
t-28.5 -95q0 -62 27.5 -96.5t78.5 -34.5q52 0 81.5 34.5t29.5 96.5zM324 1327q0 98 59 174q24 29 67.5 56t92.5 38l100 -90q-47 -10 -74.5 -29t-27.5 -40q0 -15 5.5 -23t20 -18.5t23.5 -20.5q41 -43 41 -100q0 -58 -41 -96.5t-101 -38.5q-77 0 -121 50.5t-44 137.5z" />
    <glyph glyph-name="Hcircumflex" unicode="&#x124;" horiz-adv-x="1140" 
d="M1018 0h-320v602h-256v-602h-319v1427h319v-526h256v526h320v-1427zM922 1671l-101 -184l-248 143l-241 -143l-88 184l342 244z" />
    <glyph glyph-name="hcircumflex" unicode="&#x125;" horiz-adv-x="1046" 
d="M924 0h-310v692q0 79 -22 101q-14 14 -55 14q-42 0 -101 -62v-745h-313v1206q0 149 -14 240l309 39q18 -108 18 -266v-129q0 -55 -2 -86q32 34 96 56.5t136 22.5q103 0 168 -49q90 -69 90 -203v-831zM616 1677l-100 -184l-248 143l-241 -143l-88 184l342 244z" />
    <glyph glyph-name="Hbar" unicode="&#x126;" horiz-adv-x="1140" 
d="M1018 0h-320v602h-256v-602h-319v1063h-103v280h103v84h319v-84h256v84h320v-84h102v-280h-102v-1063zM442 901h256v162h-256v-162z" />
    <glyph glyph-name="hbar" unicode="&#x127;" horiz-adv-x="1046" 
d="M924 0h-310v692q0 79 -22 101q-14 14 -55 14q-42 0 -101 -62v-745h-313v1163h-103v195h99q-2 23 -10 88l309 39q7 -46 14 -127h273v-195h-269v-73q0 -55 -2 -86q32 34 96 56.5t136 22.5q103 0 168 -49q90 -69 90 -203v-831z" />
    <glyph glyph-name="Itilde" unicode="&#x128;" horiz-adv-x="567" 
d="M444 0h-321v1427h321v-1427zM608 1626q-78 -113 -221 -113q-53 0 -121 38t-119 38q-70 0 -124 -61l-78 198q85 121 209 121q57 0 125.5 -35.5t117.5 -35.5q36 0 73.5 18t57.5 41z" />
    <glyph glyph-name="itilde" unicode="&#x129;" horiz-adv-x="559" 
d="M436 0h-313v1040l313 33v-1073zM608 1298q-77 -112 -221 -112q-53 0 -121 38t-119 38q-69 0 -124 -62l-78 199q85 121 209 121q57 0 125.5 -36t117.5 -36q36 0 73.5 18t57.5 41z" />
    <glyph glyph-name="Imacron" unicode="&#x12a;" horiz-adv-x="567" 
d="M444 0h-321v1427h321v-1427zM590 1540h-613v195h613v-195z" />
    <glyph glyph-name="imacron" unicode="&#x12b;" horiz-adv-x="559" 
d="M436 0h-313v1040l313 33v-1073zM588 1171h-613v195h613v-195z" />
    <glyph glyph-name="Ibreve" unicode="&#x12c;" horiz-adv-x="567" 
d="M444 0h-321v1427h321v-1427zM627 1817q-55 -82 -150 -151t-196 -69q-105 0 -208 73t-147 149l111 125q129 -119 250 -119q88 0 248 119z" />
    <glyph glyph-name="ibreve" unicode="&#x12d;" horiz-adv-x="559" 
d="M436 0h-313v1040l313 33v-1073zM625 1462q-55 -81 -149.5 -150t-196.5 -69q-105 0 -208.5 72.5t-146.5 148.5l111 125q129 -119 250 -119q40 0 93.5 24t82 43.5t71.5 51.5z" />
    <glyph glyph-name="Iogonek" unicode="&#x12e;" horiz-adv-x="567" 
d="M449 -356q-45 -20 -73.5 -31.5t-73 -21t-89.5 -9.5q-82 0 -136 52t-54 145q0 117 100 221v1427h321v-1427q-190 -92 -190 -180q0 -43 49 -43q33 0 86 33z" />
    <glyph glyph-name="iogonek" unicode="&#x12f;" horiz-adv-x="559" 
d="M449 -356q-45 -20 -73.5 -31.5t-73 -21t-89.5 -9.5q-82 0 -136 52t-54 145q0 117 100 221v1040l313 33v-1073q-182 -88 -182 -180q0 -43 49 -43q33 0 86 33zM463 1335q0 -74 -55.5 -127t-131.5 -53q-74 0 -128 53.5t-54 126.5t56 127t133 54q75 0 127.5 -53.5
t52.5 -127.5z" />
    <glyph glyph-name="Idotaccent" unicode="&#x130;" horiz-adv-x="567" 
d="M444 0h-321v1427h321v-1427zM477 1741q0 -83 -57 -142t-137 -59q-77 0 -134 59t-57 142t57.5 142t137.5 59q78 0 134 -59t56 -142z" />
    <glyph glyph-name="dotlessi" unicode="&#x131;" horiz-adv-x="559" 
d="M436 0h-313v1040l313 33v-1073z" />
    <glyph glyph-name="Jcircumflex" unicode="&#x134;" horiz-adv-x="567" 
d="M444 1427v-1179q0 -141 -1 -175.5t-7 -70.5q-23 -143 -112 -242t-213 -149l-152 174q60 45 92 82.5t49 83.5q16 44 20.5 108t4.5 187v1181h319zM637 1671l-100 -184l-248 143l-242 -143l-88 184l342 244z" />
    <glyph glyph-name="jcircumflex" unicode="&#x135;" horiz-adv-x="557" 
d="M434 1073v-1038q0 -130 -18.5 -215.5t-61.5 -145.5q-61 -82 -209 -155l-125 176q57 52 80 119t23 188v1038zM610 1303l-100 -185l-248 144l-242 -144l-88 185l342 243z" />
    <glyph glyph-name="uni0136" unicode="&#x136;" horiz-adv-x="1130" 
d="M1171 0h-411l-314 760l277 667h385l-326 -661zM442 0h-319v1427h319v-1427zM745 -242q0 -98 -59 -174q-24 -29 -67.5 -56t-92.5 -38l-100 90q46 10 74 29.5t28 40.5q0 15 -5.5 23t-20 18t-23.5 20q-41 43 -41 101t41 96.5t101 38.5q77 0 121 -51t44 -138z" />
    <glyph glyph-name="uni0137" unicode="&#x137;" horiz-adv-x="1028" 
d="M438 0h-315v1206q0 145 -14 236l311 43q18 -108 18 -266v-1219zM1049 0h-375l-234 561l158 496h352l-213 -465zM696 -242q0 -98 -59 -174q-24 -29 -67.5 -56t-92.5 -38l-100 90q46 10 74 29.5t28 40.5q0 15 -5.5 23t-20 18t-23.5 20q-41 43 -41 101t40.5 96.5t100.5 38.5
q77 0 121.5 -51t44.5 -138z" />
    <glyph glyph-name="kgreenlandic" unicode="&#x138;" horiz-adv-x="1013" 
d="M1034 0h-375l-233 561l158 496h352l-213 -465zM424 0h-315v821q0 138 -15 236l312 43q18 -108 18 -266v-834z" />
    <glyph glyph-name="Lacute" unicode="&#x139;" horiz-adv-x="845" 
d="M866 283l-61 -283h-682v1427h319v-1144h424zM561 1694l-409 -197l-105 162l383 248z" />
    <glyph glyph-name="lacute" unicode="&#x13a;" horiz-adv-x="559" 
d="M594 6q-75 -33 -203 -33q-142 0 -203 64q-43 45 -54 113.5t-11 189.5v864q0 149 -14 240l309 41q18 -108 18 -266v-762q0 -148 12 -192t62 -44q15 0 33 6zM522 1694l-409 -197l-105 162l383 248z" />
    <glyph glyph-name="uni013B" unicode="&#x13b;" horiz-adv-x="845" 
d="M866 283l-61 -283h-682v1427h319v-1144h424zM629 -242q0 -97 -60 -174q-24 -29 -67 -56t-92 -38l-101 90q47 10 75 29.5t28 40.5q0 15 -6 23t-20.5 18t-23.5 20q-40 42 -40 101q0 58 40.5 96.5t100.5 38.5q77 0 121.5 -51t44.5 -138z" />
    <glyph glyph-name="uni013C" unicode="&#x13c;" horiz-adv-x="559" 
d="M594 6q-75 -33 -203 -33q-142 0 -203 64q-43 45 -54 113.5t-11 189.5v864q0 149 -14 240l309 41q18 -108 18 -266v-762q0 -148 12 -192t62 -44q15 0 33 6zM502 -242q0 -97 -60 -174q-24 -29 -67 -56t-92 -38l-101 90q47 10 75 29.5t28 40.5q0 15 -5.5 23t-20 18t-23.5 20
q-41 43 -41 101t40.5 96.5t100.5 38.5q77 0 121.5 -51t44.5 -138z" />
    <glyph glyph-name="Lcaron" unicode="&#x13d;" horiz-adv-x="845" 
d="M823 1239q0 -98 -59 -174q-24 -29 -67.5 -56t-92.5 -38l-100 90q47 10 74.5 29t27.5 40q0 15 -5.5 23t-20 18.5t-23.5 20.5q-41 43 -41 100q0 58 40.5 96.5t100.5 38.5q78 0 122 -50.5t44 -137.5zM866 283l-61 -283h-682v1427h319v-1144h424z" />
    <glyph glyph-name="lcaron" unicode="&#x13e;" horiz-adv-x="780" 
d="M821 1294q0 -98 -59 -174q-24 -29 -67.5 -56t-92.5 -38l-100 90q46 10 74 29.5t28 40.5q0 15 -5.5 23t-20 18t-23.5 20q-41 43 -41 101t40.5 96.5t100.5 38.5q77 0 121.5 -51t44.5 -138zM594 6q-75 -33 -203 -33q-142 0 -203 64q-43 45 -54 113.5t-11 189.5v864
q0 149 -14 240l309 41q18 -108 18 -266v-762q0 -148 12 -192t62 -44q15 0 33 6z" />
    <glyph glyph-name="Ldot" unicode="&#x13f;" horiz-adv-x="845" 
d="M866 283l-61 -283h-682v1427h319v-1144h424zM870 784q0 -67 -47 -113t-114 -46q-70 0 -120 46t-50 113q0 69 47.5 116.5t113.5 47.5q71 0 120.5 -47.5t49.5 -116.5z" />
    <glyph glyph-name="ldot" unicode="&#x140;" horiz-adv-x="841" 
d="M594 6q-75 -33 -203 -33q-142 0 -203 64q-43 45 -54 113.5t-11 189.5v864q0 149 -14 240l309 41q18 -108 18 -266v-762q0 -148 12 -192t62 -44q15 0 33 6zM864 788q0 -67 -47.5 -113t-114.5 -46q-70 0 -120 46t-50 113q0 68 48 116t114 48q71 0 120.5 -47.5t49.5 -116.5z
" />
    <glyph glyph-name="Lslash" unicode="&#x141;" horiz-adv-x="845" 
d="M866 283l-61 -283h-682v567l-103 -35v261l103 34v600h319v-493l312 104v-260l-312 -104v-391h424z" />
    <glyph glyph-name="lslash" unicode="&#x142;" horiz-adv-x="559" 
d="M594 6q-75 -33 -203 -33q-142 0 -203 64q-43 45 -54 113.5t-11 189.5v227l-103 -35v261l103 34v377q0 149 -14 240l309 41q18 -108 18 -266v-287l103 35v-260l-103 -35v-215q0 -148 12 -192t62 -44q15 0 33 6z" />
    <glyph glyph-name="Nacute" unicode="&#x143;" horiz-adv-x="1177" 
d="M1055 0h-330l-219 496q-39 88 -96 268q16 -110 16 -289v-475h-303v1427h307l227 -489q51 -110 103 -272q-10 105 -10 319v442h305v-1427zM866 1694l-409 -197l-105 162l383 248z" />
    <glyph glyph-name="nacute" unicode="&#x144;" horiz-adv-x="1048" 
d="M926 0h-312v702q0 74 -20 97q-14 14 -53 14q-51 0 -105 -57v-756h-313v739q0 156 -29 287l285 55q18 -56 20 -92q109 94 267 94q107 0 170 -47q90 -65 90 -223v-813zM774 1325l-409 -197l-105 162l383 248z" />
    <glyph glyph-name="uni0145" unicode="&#x145;" horiz-adv-x="1177" 
d="M1055 0h-330l-219 496q-39 88 -96 268q16 -110 16 -289v-475h-303v1427h307l227 -489q51 -110 103 -272q-10 105 -10 319v442h305v-1427zM754 -242q0 -97 -60 -174q-24 -29 -67 -56t-92 -38l-101 90q47 10 75 29.5t28 40.5q0 15 -6 23t-20.5 18t-23.5 20q-41 43 -41 101
t41 96.5t101 38.5q77 0 121.5 -51t44.5 -138z" />
    <glyph glyph-name="uni0146" unicode="&#x146;" horiz-adv-x="1048" 
d="M926 0h-312v702q0 74 -20 97q-14 14 -53 14q-51 0 -105 -57v-756h-313v739q0 156 -29 287l285 55q18 -56 20 -92q109 94 267 94q107 0 170 -47q90 -65 90 -223v-813zM690 -242q0 -98 -59 -174q-24 -29 -67.5 -56t-92.5 -38l-100 90q46 10 74 29.5t28 40.5q0 15 -5.5 23
t-20 18t-23.5 20q-41 43 -41 101t40.5 96.5t100.5 38.5q77 0 121.5 -51t44.5 -138z" />
    <glyph glyph-name="Ncaron" unicode="&#x147;" horiz-adv-x="1177" 
d="M1055 0h-330l-219 496q-39 88 -96 268q16 -110 16 -289v-475h-303v1427h307l227 -489q51 -110 103 -272q-10 105 -10 319v442h305v-1427zM932 1759l-336 -276l-342 276l90 185l250 -144l240 144z" />
    <glyph glyph-name="ncaron" unicode="&#x148;" horiz-adv-x="1048" 
d="M926 0h-312v702q0 74 -20 97q-14 14 -53 14q-51 0 -105 -57v-756h-313v739q0 156 -29 287l285 55q18 -56 20 -92q109 94 267 94q107 0 170 -47q90 -65 90 -223v-813zM854 1405l-336 -277l-342 277l90 184l250 -143l240 143z" />
    <glyph glyph-name="napostrophe" unicode="&#x149;" horiz-adv-x="1275" 
d="M322 1241q0 -97 -60 -174q-24 -29 -67.5 -56t-92.5 -38l-100 90q46 10 74 29.5t28 40.5q0 15 -5.5 23t-20 18t-23.5 20q-41 43 -41 100q0 58 41 97t101 39q77 0 121.5 -51t44.5 -138zM1153 0h-311v702q0 72 -21 97q-14 14 -53 14q-50 0 -104 -57v-756h-314v739
q0 160 -28 287l284 55q19 -59 21 -92q109 94 266 94q107 0 170 -47q90 -65 90 -223v-813z" />
    <glyph glyph-name="Eng" unicode="&#x14a;" horiz-adv-x="1177" 
d="M1055 86q0 -355 -334 -504l-152 174q89 69 119 119q32 55 37 125l-219 496q-39 88 -96 268q16 -110 16 -289v-475h-303v1427h307l227 -489q51 -110 103 -272q-10 105 -10 319v442h305v-1341z" />
    <glyph glyph-name="eng" unicode="&#x14b;" horiz-adv-x="1048" 
d="M926 0q-3 -138 -31 -224t-87.5 -144.5t-170.5 -112.5l-125 176q56 52 79 119t23 188v700q0 40 -5 64t-17 33.5t-21.5 11.5t-29.5 2q-51 0 -105 -57v-756h-313v739q0 156 -29 287l285 55q18 -56 20 -92q109 94 267 94q73 0 125 -21.5t80.5 -60.5t41.5 -85t13 -103v-813z
" />
    <glyph glyph-name="Omacron" unicode="&#x14c;" horiz-adv-x="1243" 
d="M1182 768q0 -435 -170 -633q-140 -160 -387 -160q-228 0 -371 140q-94 91 -143.5 235t-49.5 328q0 372 151 573t404 201q222 0 367 -135q101 -97 150 -244t49 -305zM825 727q0 172 -18 268.5t-57 141.5q-43 51 -132 51q-72 0 -114 -58q-84 -117 -84 -407q0 -291 61 -395
q47 -82 144 -82q105 0 149 94q51 108 51 387zM924 1540h-613v195h613v-195z" />
    <glyph glyph-name="omacron" unicode="&#x14d;" horiz-adv-x="968" 
d="M918 555q0 -243 -99 -397q-60 -93 -150 -139t-190 -46q-226 0 -340 183q-88 142 -88 368q0 260 119 410q118 149 319 149q225 0 336 -163q93 -137 93 -365zM582 565q0 197 -37 248q-20 29 -62 29t-63 -43q-33 -65 -33 -281q0 -136 10 -202t43 -89q18 -12 45 -12
q30 0 50 23q47 55 47 327zM797 1171h-613v195h613v-195z" />
    <glyph glyph-name="Obreve" unicode="&#x14e;" horiz-adv-x="1243" 
d="M1182 768q0 -435 -170 -633q-140 -160 -387 -160q-228 0 -371 140q-94 91 -143.5 235t-49.5 328q0 372 151 573t404 201q222 0 367 -135q101 -97 150 -244t49 -305zM825 727q0 172 -18 268.5t-57 141.5q-43 51 -132 51q-72 0 -114 -58q-84 -117 -84 -407q0 -291 61 -395
q47 -82 144 -82q105 0 149 94q51 108 51 387zM969 1817q-55 -82 -150 -151t-196 -69q-105 0 -208 73t-147 149l111 125q129 -119 250 -119q88 0 248 119z" />
    <glyph glyph-name="obreve" unicode="&#x14f;" horiz-adv-x="968" 
d="M918 555q0 -243 -99 -397q-60 -93 -150 -139t-190 -46q-226 0 -340 183q-88 142 -88 368q0 260 119 410q118 149 319 149q225 0 336 -163q93 -137 93 -365zM582 565q0 197 -37 248q-20 29 -62 29t-63 -43q-33 -65 -33 -281q0 -136 10 -202t43 -89q18 -12 45 -12
q30 0 50 23q47 55 47 327zM831 1462q-55 -81 -149.5 -150t-196.5 -69q-105 0 -207.5 72.5t-146.5 148.5l111 125q129 -119 250 -119q40 0 93.5 24t82 43.5t71.5 51.5z" />
    <glyph glyph-name="Ohungarumlaut" unicode="&#x150;" horiz-adv-x="1243" 
d="M1182 768q0 -435 -170 -633q-140 -160 -387 -160q-228 0 -371 140q-94 91 -143.5 235t-49.5 328q0 372 151 573t404 201q222 0 367 -135q101 -97 150 -244t49 -305zM825 727q0 172 -18 268.5t-57 141.5q-43 51 -132 51q-72 0 -114 -58q-84 -117 -84 -407q0 -291 61 -395
q47 -82 144 -82q105 0 149 94q51 108 51 387zM862 1874l-321 -377l-183 121l256 412zM1315 1823l-377 -326l-160 150l322 366z" />
    <glyph glyph-name="ohungarumlaut" unicode="&#x151;" horiz-adv-x="968" 
d="M918 555q0 -243 -99 -397q-60 -93 -150 -139t-190 -46q-226 0 -340 183q-88 142 -88 368q0 260 119 410q118 149 319 149q225 0 336 -163q93 -137 93 -365zM582 565q0 197 -37 248q-20 29 -62 29t-63 -43q-33 -65 -33 -281q0 -136 10 -202t43 -89q18 -12 45 -12
q30 0 50 23q47 55 47 327zM635 1559l-244 -431l-203 84l174 453zM1040 1522l-307 -392l-186 115l246 422z" />
    <glyph glyph-name="OE" unicode="&#x152;" horiz-adv-x="1497" 
d="M1456 0h-809q-273 0 -429.5 179.5t-156.5 498.5q0 185 47 330.5t130 235.5t190.5 136.5t233.5 46.5h772l-23 -301h-381v-239h309v-291h-309v-291h426v-305zM711 301v825q-44 13 -72 13q-107 0 -163 -108t-56 -312q0 -133 16 -220.5t48 -132t69.5 -61t91.5 -16.5
q29 0 66 12z" />
    <glyph glyph-name="oe" unicode="&#x153;" horiz-adv-x="1456" 
d="M1405 416h-514q0 -30 5.5 -58.5t19.5 -61.5t45.5 -53t76.5 -20q122 0 244 107l119 -205q-91 -80 -181 -116t-194 -36q-176 0 -287 97q-120 -97 -260 -97q-199 0 -313.5 145t-114.5 406q0 249 123 404t324 155q143 0 250 -82q96 82 239 82q418 0 418 -571v-96zM582 565
q0 149 -21 211q-20 60 -78 60q-48 0 -69 -54q-27 -68 -27 -264q0 -175 19 -231q21 -64 79 -64q52 0 72 64q25 74 25 278zM1098 647q0 97 -23 144q-22 45 -76 45t-81 -43.5t-27 -145.5h207z" />
    <glyph glyph-name="Racute" unicode="&#x154;" horiz-adv-x="1116" 
d="M1096 0h-375l-127 395q-34 105 -65 136.5t-87 31.5v-563h-319v1427h401q268 0 391 -110q115 -101 115 -297q0 -165 -71.5 -261t-174.5 -124l-8 -2q32 -10 67.5 -54t59.5 -100q122 -297 193 -479zM680 999q0 84 -41 119q-36 31 -119 31h-78v-322h80q83 0 121 41
q37 42 37 131zM836 1694l-410 -197l-104 162l383 248z" />
    <glyph glyph-name="racute" unicode="&#x155;" horiz-adv-x="686" 
d="M707 1057l-72 -287q-48 29 -92 29q-36 0 -64 -21q-29 -22 -43 -55v-723h-313v739q0 156 -29 287l285 55q20 -62 20 -125q17 27 32 45.5t39 40.5t54.5 33.5t65.5 11.5q56 0 117 -30zM592 1325l-410 -197l-104 162l383 248z" />
    <glyph glyph-name="uni0156" unicode="&#x156;" horiz-adv-x="1116" 
d="M1096 0h-375l-127 395q-34 105 -65 136.5t-87 31.5v-563h-319v1427h401q268 0 391 -110q115 -101 115 -297q0 -165 -71.5 -261t-174.5 -124l-8 -2q32 -10 67.5 -54t59.5 -100q122 -297 193 -479zM680 999q0 84 -41 119q-36 31 -119 31h-78v-322h80q83 0 121 41
q37 42 37 131zM725 -242q0 -98 -59 -174q-24 -29 -67.5 -56t-92.5 -38l-100 90q46 10 74 29.5t28 40.5q0 15 -5.5 23t-20 18t-23.5 20q-41 43 -41 101t40.5 96.5t100.5 38.5q77 0 121.5 -51t44.5 -138z" />
    <glyph glyph-name="uni0157" unicode="&#x157;" horiz-adv-x="686" 
d="M707 1057l-72 -287q-48 29 -92 29q-36 0 -64 -21q-29 -22 -43 -55v-723h-313v739q0 156 -29 287l285 55q20 -62 20 -125q17 27 32 45.5t39 40.5t54.5 33.5t65.5 11.5q56 0 117 -30zM432 -242q0 -98 -59 -174q-24 -29 -67.5 -56t-92.5 -38l-100 90q46 10 74 29.5t28 40.5
q0 15 -5.5 23t-20 18t-23.5 20q-41 43 -41 101t40.5 96.5t100.5 38.5q77 0 121.5 -51t44.5 -138z" />
    <glyph glyph-name="Rcaron" unicode="&#x158;" horiz-adv-x="1116" 
d="M1096 0h-375l-127 395q-34 105 -65 136.5t-87 31.5v-563h-319v1427h401q268 0 391 -110q115 -101 115 -297q0 -165 -71.5 -261t-174.5 -124l-8 -2q32 -10 67.5 -54t59.5 -100q122 -297 193 -479zM680 999q0 84 -41 119q-36 31 -119 31h-78v-322h80q83 0 121 41
q37 42 37 131zM852 1759l-336 -276l-342 276l90 185l250 -144l240 144z" />
    <glyph glyph-name="rcaron" unicode="&#x159;" horiz-adv-x="686" 
d="M707 1057l-72 -287q-48 29 -92 29q-36 0 -64 -21q-29 -22 -43 -55v-723h-313v739q0 156 -29 287l285 55q20 -62 20 -125q17 27 32 45.5t39 40.5t54.5 33.5t65.5 11.5q56 0 117 -30zM672 1405l-336 -277l-342 277l90 184l250 -143l239 143z" />
    <glyph glyph-name="Sacute" unicode="&#x15a;" horiz-adv-x="1103" 
d="M1042 455q0 -151 -73.5 -261.5t-194 -164.5t-272.5 -54q-264 0 -461 136l135 256q156 -117 324 -117q86 0 136 40t50 111q0 57 -43.5 89.5t-132.5 66.5l-23 8q-141 53 -199 90q-149 94 -171 273q-4 34 -4 71q0 202 133.5 327.5t339.5 125.5q124 0 238 -34t198 -93
l-145 -235q-157 94 -263 94q-67 0 -110 -31t-43 -90q0 -30 12.5 -55t28.5 -40.5t49.5 -32t56 -25t68.5 -23.5l31 -10q40 -14 69.5 -25.5t66.5 -31.5t63.5 -41.5t53.5 -53.5t44 -69.5t27.5 -89t10.5 -111.5zM864 1694l-409 -197l-105 162l383 248z" />
    <glyph glyph-name="sacute" unicode="&#x15b;" horiz-adv-x="882" 
d="M831 350q0 -171 -112.5 -274t-296.5 -103q-189 0 -381 127l100 234q60 -47 142.5 -85t144.5 -38q39 0 67.5 25t28.5 55q0 42 -31.5 69t-91.5 48l-18 6q-33 11 -47.5 16t-46 17t-46.5 20.5t-40.5 24.5t-38.5 30.5t-30 36t-25.5 45t-14.5 54t-6 65.5q0 163 99 261.5
t264 98.5q109 0 186 -22t158 -70l-93 -215q-115 72 -208 72q-35 0 -56.5 -17t-21.5 -43q0 -18 4.5 -32t17.5 -26t22.5 -19.5t33.5 -17.5t34.5 -14t40.5 -15l19 -7q42 -15 70 -27.5t64 -38t57.5 -55.5t36.5 -78t15 -108zM700 1325l-409 -197l-105 162l383 248z" />
    <glyph glyph-name="Scircumflex" unicode="&#x15c;" horiz-adv-x="1103" 
d="M1042 455q0 -151 -73.5 -261.5t-194 -164.5t-272.5 -54q-264 0 -461 136l135 256q156 -117 324 -117q86 0 136 40t50 111q0 57 -43.5 89.5t-132.5 66.5l-23 8q-141 53 -199 90q-149 94 -171 273q-4 34 -4 71q0 202 133.5 327.5t339.5 125.5q124 0 238 -34t198 -93
l-145 -235q-157 94 -263 94q-67 0 -110 -31t-43 -90q0 -30 12.5 -55t28.5 -40.5t49.5 -32t56 -25t68.5 -23.5l31 -10q40 -14 69.5 -25.5t66.5 -31.5t63.5 -41.5t53.5 -53.5t44 -69.5t27.5 -89t10.5 -111.5zM938 1671l-100 -184l-248 143l-242 -143l-88 184l342 244z" />
    <glyph glyph-name="scircumflex" unicode="&#x15d;" horiz-adv-x="882" 
d="M831 350q0 -171 -112.5 -274t-296.5 -103q-189 0 -381 127l100 234q60 -47 142.5 -85t144.5 -38q39 0 67.5 25t28.5 55q0 42 -31.5 69t-91.5 48l-18 6q-33 11 -47.5 16t-46 17t-46.5 20.5t-40.5 24.5t-38.5 30.5t-30 36t-25.5 45t-14.5 54t-6 65.5q0 163 99 261.5
t264 98.5q109 0 186 -22t158 -70l-93 -215q-115 72 -208 72q-35 0 -56.5 -17t-21.5 -43q0 -18 4.5 -32t17.5 -26t22.5 -19.5t33.5 -17.5t34.5 -14t40.5 -15l19 -7q42 -15 70 -27.5t64 -38t57.5 -55.5t36.5 -78t15 -108zM788 1303l-100 -185l-248 144l-241 -144l-88 185
l342 243z" />
    <glyph glyph-name="Scedilla" unicode="&#x15e;" horiz-adv-x="1103" 
d="M1042 455q0 -139 -63 -244.5t-167.5 -162t-238.5 -68.5l-10 -31q63 -6 100 -47.5t37 -102.5q0 -86 -52.5 -147.5t-164.5 -61.5q-39 0 -84 12t-73 29l59 127q39 -22 84 -22q28 0 43.5 13t15.5 36q0 49 -59 49q-25 0 -49 -4l-19 35l31 112q-226 17 -391 134l135 256
q156 -117 324 -117q86 0 136 40t50 111q0 57 -43.5 89.5t-132.5 66.5l-23 8q-141 53 -199 90q-149 94 -171 273q-4 34 -4 71q0 202 133.5 327.5t339.5 125.5q124 0 238 -34t198 -93l-145 -235q-157 94 -263 94q-67 0 -110 -31t-43 -90q0 -30 12.5 -55t28.5 -40.5t49.5 -32
t56 -25t68.5 -23.5l31 -10q40 -14 69.5 -25.5t66.5 -31.5t63.5 -41.5t53.5 -53.5t44 -69.5t27.5 -89t10.5 -111.5z" />
    <glyph glyph-name="scedilla" unicode="&#x15f;" horiz-adv-x="882" 
d="M831 350q0 -154 -91.5 -253.5t-245.5 -119.5l-9 -28q64 -6 101 -47.5t37 -102.5q0 -86 -52.5 -147.5t-164.5 -61.5q-40 0 -85 12t-73 29l59 127q39 -22 84 -22q28 0 44 13t16 36q0 49 -60 49q-25 0 -49 -4l-18 35l30 112q-157 18 -313 123l100 234q60 -47 142.5 -85
t144.5 -38q39 0 67.5 25t28.5 55q0 42 -31.5 69t-91.5 48l-18 6q-33 11 -47.5 16t-46 17t-46.5 20.5t-40.5 24.5t-38.5 30.5t-30 36t-25.5 45t-14.5 54t-6 65.5q0 163 99 261.5t264 98.5q109 0 186 -22t158 -70l-93 -215q-115 72 -208 72q-35 0 -56.5 -17t-21.5 -43
q0 -18 4.5 -32t17.5 -26t22.5 -19.5t33.5 -17.5t34.5 -14t40.5 -15l19 -7q42 -15 70 -27.5t64 -38t57.5 -55.5t36.5 -78t15 -108z" />
    <glyph glyph-name="Scaron" unicode="&#x160;" horiz-adv-x="1103" 
d="M1042 455q0 -151 -73.5 -261.5t-194 -164.5t-272.5 -54q-264 0 -461 136l135 256q156 -117 324 -117q86 0 136 40t50 111q0 57 -43.5 89.5t-132.5 66.5l-23 8q-141 53 -199 90q-149 94 -171 273q-4 34 -4 71q0 202 133.5 327.5t339.5 125.5q124 0 238 -34t198 -93
l-145 -235q-157 94 -263 94q-67 0 -110 -31t-43 -90q0 -30 12.5 -55t28.5 -40.5t49.5 -32t56 -25t68.5 -23.5l31 -10q40 -14 69.5 -25.5t66.5 -31.5t63.5 -41.5t53.5 -53.5t44 -69.5t27.5 -89t10.5 -111.5zM883 1759l-336 -276l-342 276l90 185l250 -144l239 144z" />
    <glyph glyph-name="scaron" unicode="&#x161;" horiz-adv-x="882" 
d="M831 350q0 -171 -112.5 -274t-296.5 -103q-189 0 -381 127l100 234q60 -47 142.5 -85t144.5 -38q39 0 67.5 25t28.5 55q0 42 -31.5 69t-91.5 48l-18 6q-33 11 -47.5 16t-46 17t-46.5 20.5t-40.5 24.5t-38.5 30.5t-30 36t-25.5 45t-14.5 54t-6 65.5q0 163 99 261.5
t264 98.5q109 0 186 -22t158 -70l-93 -215q-115 72 -208 72q-35 0 -56.5 -17t-21.5 -43q0 -18 4.5 -32t17.5 -26t22.5 -19.5t33.5 -17.5t34.5 -14t40.5 -15l19 -7q42 -15 70 -27.5t64 -38t57.5 -55.5t36.5 -78t15 -108zM768 1405l-336 -277l-342 277l90 184l250 -143
l240 143z" />
    <glyph glyph-name="uni0162" unicode="&#x162;" horiz-adv-x="919" 
d="M639 -201q0 -86 -52.5 -147.5t-164.5 -61.5q-40 0 -85 12t-73 29l60 127q39 -22 84 -22q28 0 43.5 13t15.5 36q0 49 -59 49q-26 0 -50 -4l-18 35l37 135h-68v1149h-289v278h941l-41 -278h-287v-1149h-113l-18 -51q63 -6 100 -47.5t37 -102.5z" />
    <glyph glyph-name="uni0163" unicode="&#x163;" horiz-adv-x="667" 
d="M541 -201q0 -86 -52.5 -147.5t-164.5 -61.5q-40 0 -85 12t-73 29l59 127q39 -22 84 -22q28 0 44 13t16 36q0 49 -60 49q-25 0 -49 -4l-18 35l34 123q-52 17 -77 39q-76 60 -76 200v600h-76v226h76q0 184 12 268l307 45q-8 -86 -8 -221v-92h170l-39 -226h-131v-442
q0 -110 19 -145t79 -35q45 0 78 20l37 -192q-115 -62 -233 -62h-2l-9 -22q64 -6 101 -47.5t37 -102.5z" />
    <glyph glyph-name="Tcaron" unicode="&#x164;" horiz-adv-x="919" 
d="M961 1427l-41 -278h-287v-1149h-324v1149h-289v278h941zM817 1759l-336 -276l-342 276l90 185l250 -144l240 144z" />
    <glyph glyph-name="tcaron" unicode="&#x165;" horiz-adv-x="765" 
d="M821 1362q0 -98 -59 -174q-24 -29 -67.5 -56t-92.5 -38l-100 90q47 10 74.5 29t27.5 40q0 15 -5.5 23t-20 18.5t-23.5 20.5q-41 43 -41 100q0 58 40.5 96.5t100.5 38.5q78 0 122 -50.5t44 -137.5zM647 33q-115 -62 -233 -62q-145 0 -215 56q-76 60 -76 200v600h-76v226
h76q0 184 12 268l307 45q-8 -86 -8 -221v-92h170l-39 -226h-131v-442q0 -110 19 -145t79 -35q45 0 78 20z" />
    <glyph glyph-name="Tbar" unicode="&#x166;" horiz-adv-x="919" 
d="M858 651h-225v-651h-324v651h-227v195h227v303h-289v278h941l-41 -278h-287v-303h225v-195z" />
    <glyph glyph-name="tbar" unicode="&#x167;" horiz-adv-x="667" 
d="M647 33q-115 -62 -233 -62q-142 0 -216.5 56t-74.5 200v234h-76v194h76v172h-76v226h76q0 184 12 268l307 45l-6 -90q-2 -31 -2 -223h170l-39 -226h-131v-172h174l-35 -194h-139v-76q0 -110 19 -145t79 -35q45 0 78 20z" />
    <glyph glyph-name="Utilde" unicode="&#x168;" horiz-adv-x="1163" 
d="M1051 1427v-987q0 -94 -6.5 -143.5t-24.5 -91.5q-42 -99 -153.5 -164.5t-284.5 -65.5q-297 0 -408 179q-38 63 -49.5 115.5t-11.5 187.5v970h321v-964q0 -125 41 -174q36 -45 109 -45q75 0 108 39q39 44 39 174v970h320zM911 1626q-78 -113 -221 -113q-54 0 -121 38
t-118 38q-71 0 -125 -61l-78 198q85 121 209 121q57 0 125.5 -35.5t117.5 -35.5q36 0 73.5 18t57.5 41z" />
    <glyph glyph-name="utilde" unicode="&#x169;" horiz-adv-x="1038" 
d="M965 80l-271 -107q-24 30 -41 95q-92 -95 -229 -95q-129 0 -198 46t-93 139q-20 76 -20 260v614l313 49v-737q0 -92 37 -108q14 -7 41 -7t46.5 13t53.5 49v741l311 49v-762q0 -144 50 -239zM836 1298q-77 -112 -222 -112q-54 0 -121 38t-118 38q-70 0 -125 -62l-78 199
q85 121 209 121q57 0 126 -36t118 -36q36 0 73.5 18t57.5 41z" />
    <glyph glyph-name="Umacron" unicode="&#x16a;" horiz-adv-x="1163" 
d="M1051 1427v-987q0 -94 -6.5 -143.5t-24.5 -91.5q-42 -99 -153.5 -164.5t-284.5 -65.5q-297 0 -408 179q-38 63 -49.5 115.5t-11.5 187.5v970h321v-964q0 -125 41 -174q36 -45 109 -45q75 0 108 39q39 44 39 174v970h320zM889 1540h-613v195h613v-195z" />
    <glyph glyph-name="umacron" unicode="&#x16b;" horiz-adv-x="1038" 
d="M965 80l-271 -107q-24 30 -41 95q-92 -95 -229 -95q-129 0 -198 46t-93 139q-20 76 -20 260v614l313 49v-737q0 -92 37 -108q14 -7 41 -7t46.5 13t53.5 49v741l311 49v-762q0 -144 50 -239zM813 1171h-612v195h612v-195z" />
    <glyph glyph-name="Ubreve" unicode="&#x16c;" horiz-adv-x="1163" 
d="M1051 1427v-987q0 -94 -6.5 -143.5t-24.5 -91.5q-42 -99 -153.5 -164.5t-284.5 -65.5q-297 0 -408 179q-38 63 -49.5 115.5t-11.5 187.5v970h321v-964q0 -125 41 -174q36 -45 109 -45q75 0 108 39q39 44 39 174v970h320zM928 1817q-55 -82 -150 -151t-196 -69
q-105 0 -208 73t-147 149l111 125q129 -119 250 -119q88 0 248 119z" />
    <glyph glyph-name="ubreve" unicode="&#x16d;" horiz-adv-x="1038" 
d="M965 80l-271 -107q-24 30 -41 95q-92 -95 -229 -95q-129 0 -198 46t-93 139q-20 76 -20 260v614l313 49v-737q0 -92 37 -108q14 -7 41 -7t46.5 13t53.5 49v741l311 49v-762q0 -144 50 -239zM856 1462q-55 -81 -149.5 -150t-196.5 -69q-105 0 -207.5 72.5t-146.5 148.5
l110 125q129 -119 250 -119q88 0 248 119z" />
    <glyph glyph-name="Uring" unicode="&#x16e;" horiz-adv-x="1163" 
d="M1051 1427v-987q0 -94 -6.5 -143.5t-24.5 -91.5q-42 -99 -153.5 -164.5t-284.5 -65.5q-297 0 -408 179q-38 63 -49.5 115.5t-11.5 187.5v970h321v-964q0 -125 41 -174q36 -45 109 -45q75 0 108 39q39 44 39 174v970h320zM811 1698q0 -88 -70 -152.5t-159 -64.5
q-99 0 -166.5 63.5t-67.5 153.5q0 89 70 153t164 64t161.5 -64t67.5 -153zM662 1698q0 36 -24 61t-54 25q-39 0 -62.5 -24.5t-23.5 -61.5q0 -36 23.5 -61t56.5 -25q37 0 60.5 24.5t23.5 61.5z" />
    <glyph glyph-name="uring" unicode="&#x16f;" horiz-adv-x="1038" 
d="M965 80l-271 -107q-24 30 -41 95q-92 -95 -229 -95q-129 0 -198 46t-93 139q-20 76 -20 260v614l313 49v-737q0 -92 37 -108q14 -7 41 -7t46.5 13t53.5 49v741l311 49v-762q0 -144 50 -239zM737 1350q0 -88 -70 -152.5t-159 -64.5q-99 0 -166.5 63.5t-67.5 153.5
q0 89 70 153t164 64t161.5 -64t67.5 -153zM588 1350q0 36 -24 61t-54 25q-39 0 -62.5 -24.5t-23.5 -61.5q0 -36 23.5 -61t56.5 -25q37 0 60.5 24.5t23.5 61.5z" />
    <glyph glyph-name="Uhungarumlaut" unicode="&#x170;" horiz-adv-x="1163" 
d="M1051 1427v-987q0 -94 -6.5 -143.5t-24.5 -91.5q-42 -99 -153.5 -164.5t-284.5 -65.5q-297 0 -408 179q-38 63 -49.5 115.5t-11.5 187.5v970h321v-964q0 -125 41 -174q36 -45 109 -45q75 0 108 39q39 44 39 174v970h320zM782 1874l-321 -377l-182 121l256 412zM1235 1823
l-377 -326l-160 150l322 366z" />
    <glyph glyph-name="uhungarumlaut" unicode="&#x171;" horiz-adv-x="1038" 
d="M965 80l-271 -107q-24 30 -41 95q-92 -95 -229 -95q-129 0 -198 46t-93 139q-20 76 -20 260v614l313 49v-737q0 -92 37 -108q14 -7 41 -7t46.5 13t53.5 49v741l311 49v-762q0 -144 50 -239zM641 1559l-244 -431l-202 84l174 453zM1047 1522l-308 -392l-186 115l246 422z
" />
    <glyph glyph-name="Uogonek" unicode="&#x172;" horiz-adv-x="1163" 
d="M1051 1427v-987q0 -94 -6.5 -143.5t-24.5 -91.5q-30 -69 -95 -124t-163 -83q-53 -36 -83 -85t-30 -93q0 -43 49 -43q33 0 86 33l60 -166q-45 -20 -73.5 -31.5t-73 -21t-89.5 -9.5q-82 0 -136 52t-54 145q0 108 82 201q-235 21 -326 174q-38 63 -49.5 115.5t-11.5 187.5
v970h321v-964q0 -125 41 -174q36 -45 109 -45q75 0 108 39q39 44 39 174v970h320z" />
    <glyph glyph-name="uogonek" unicode="&#x173;" horiz-adv-x="1038" 
d="M965 80q-64 -40 -120.5 -114t-56.5 -146q0 -43 50 -43q33 0 86 33l59 -166q-45 -21 -73.5 -32t-72.5 -20.5t-89 -9.5q-82 0 -136.5 52t-54.5 145q0 127 115 233q-7 14 -19 56q-92 -95 -229 -95q-129 0 -198 46t-93 139q-20 76 -20 260v614l313 49v-737q0 -92 37 -108
q14 -7 41 -7t46.5 13t53.5 49v741l311 49v-762q0 -144 50 -239z" />
    <glyph glyph-name="Wcircumflex" unicode="&#x174;" horiz-adv-x="1593" 
d="M1593 1427l-295 -1427h-383l-92 682q-27 197 -30 244h-2q-2 -41 -6 -76.5t-12 -90.5t-11 -77l-98 -682h-392l-272 1427h346l96 -657q29 -192 37 -289h2q11 131 33 287l102 659h363l104 -663q23 -160 33 -287h2q6 68 20.5 172t16.5 117l88 661h350zM1130 1671l-100 -184
l-248 143l-241 -143l-88 184l342 244z" />
    <glyph glyph-name="wcircumflex" unicode="&#x175;" horiz-adv-x="1333" 
d="M1333 1057l-248 -1057h-315l-74 395q-31 168 -34 273q-16 -147 -44 -283l-77 -385h-305l-236 1032l315 39l47 -328q5 -34 15.5 -104.5t19 -133t13.5 -116.5h2q7 118 57 377l55 291h291l74 -379q29 -152 39 -283h2q19 221 39 363l45 299h319zM1001 1303l-100 -185
l-248 144l-241 -144l-88 185l342 243z" />
    <glyph glyph-name="Ycircumflex" unicode="&#x176;" horiz-adv-x="1026" 
d="M1067 1427l-397 -913v-514h-328v508l-383 919h381l121 -403q28 -90 53 -207q5 20 53 207l121 403h379zM854 1671l-100 -184l-248 143l-242 -143l-88 184l342 244z" />
    <glyph glyph-name="ycircumflex" unicode="&#x177;" horiz-adv-x="940" 
d="M971 1057l-348 -1059q-28 -86 -50.5 -143.5t-52 -114t-62.5 -92t-77.5 -65t-101 -45.5t-129.5 -23l-111 229q142 37 200.5 84.5t112.5 171.5h-94q-20 126 -65 272l-224 775l322 26l135 -559q38 -170 43 -217h2q24 185 64 328l122 432h314zM813 1303l-100 -185l-248 144
l-242 -144l-88 185l342 243z" />
    <glyph glyph-name="Ydieresis" unicode="&#x178;" horiz-adv-x="1026" 
d="M1067 1427l-397 -913v-514h-328v508l-383 919h381l121 -403q28 -90 53 -207q5 20 53 207l121 403h379zM457 1700q0 -67 -47.5 -113.5t-114.5 -46.5q-70 0 -120 46.5t-50 113.5q0 68 47.5 116t114.5 48q71 0 120.5 -47.5t49.5 -116.5zM895 1700q0 -67 -47.5 -113.5
t-114.5 -46.5q-70 0 -120 46.5t-50 113.5q0 68 47.5 116t114.5 48q71 0 120.5 -47.5t49.5 -116.5z" />
    <glyph glyph-name="Zacute" unicode="&#x179;" horiz-adv-x="997" 
d="M936 283l-27 -283h-848v227l428 809q65 118 76 129q-32 -14 -129 -14h-336l23 276h807v-235l-434 -827q-7 -14 -28.5 -46t-29.5 -49q50 13 137 13h361zM805 1694l-410 -197l-104 162l383 248z" />
    <glyph glyph-name="zacute" unicode="&#x17a;" horiz-adv-x="772" 
d="M711 244l-25 -244h-625v227l312 592h-301v238h624v-242l-305 -571h320zM635 1325l-410 -197l-104 162l383 248z" />
    <glyph glyph-name="Zdotaccent" unicode="&#x17b;" horiz-adv-x="997" 
d="M936 283l-27 -283h-848v227l428 809q65 118 76 129q-32 -14 -129 -14h-336l23 276h807v-235l-434 -827q-7 -14 -28.5 -46t-29.5 -49q50 13 137 13h361zM721 1741q0 -83 -57.5 -142t-137.5 -59q-77 0 -133.5 59t-56.5 142t57 142t137 59q78 0 134.5 -59t56.5 -142z" />
    <glyph glyph-name="zdotaccent" unicode="&#x17c;" horiz-adv-x="772" 
d="M711 244l-25 -244h-625v227l312 592h-301v238h624v-242l-305 -571h320zM569 1315q0 -83 -57 -142t-137 -59q-77 0 -134 59t-57 142t57.5 142t137.5 59q78 0 134 -59t56 -142z" />
    <glyph glyph-name="Zcaron" unicode="&#x17d;" horiz-adv-x="997" 
d="M936 283l-27 -283h-848v227l428 809q65 118 76 129q-32 -14 -129 -14h-336l23 276h807v-235l-434 -827q-7 -14 -28.5 -46t-29.5 -49q50 13 137 13h361zM821 1759l-336 -276l-342 276l90 185l250 -144l240 144z" />
    <glyph glyph-name="zcaron" unicode="&#x17e;" horiz-adv-x="772" 
d="M711 244l-25 -244h-625v227l312 592h-301v238h624v-242l-305 -571h320zM713 1405l-336 -277l-342 277l90 184l250 -143l239 143z" />
    <glyph glyph-name="longs" unicode="&#x17f;" horiz-adv-x="614" 
d="M676 1468l-76 -204q-43 26 -94 26q-29 0 -49.5 -21t-20.5 -55v-1214h-313v823h-78v234h78q-6 37 -6 127q0 175 92 264q83 78 229 78q134 0 238 -58z" />
    <glyph glyph-name="uni018F" unicode="&#x18f;" horiz-adv-x="1173" 
d="M61 809h697v35q0 146 -62 239t-176 93q-73 0 -134 -27t-122 -90l-147 225q168 168 420 168q266 0 420.5 -199.5t154.5 -550.5q0 -176 -40.5 -315t-113.5 -228.5t-173 -136.5t-220 -47q-92 0 -166.5 25.5t-126 68t-90.5 106t-61.5 130.5t-36.5 151.5t-18.5 159t-4.5 162.5
v31zM420 557q1 -35 3.5 -62t8 -67t16.5 -69t27 -57t41.5 -43t58.5 -15q80 0 127.5 86.5t55.5 226.5h-338z" />
    <glyph glyph-name="florin" unicode="&#x192;" horiz-adv-x="612" 
d="M633 1475l-62 -220q-45 19 -86 19q-34 0 -58.5 -26t-27.5 -79l-6 -112h191l-64 -234h-135l-49 -782q-7 -104 -23 -179t-36.5 -124.5t-60 -90.5t-76.5 -66t-103 -62l-139 229q74 38 106.5 86t36.5 133l51 856h-74v234h84l7 129q5 92 39 172.5t90 118.5q73 51 180 51
q109 0 215 -53z" />
    <glyph glyph-name="uni01B5" unicode="&#x1b5;" horiz-adv-x="997" 
d="M907 637h-268l-143 -272q-7 -14 -28.5 -46t-29.5 -49q50 13 137 13h361l-27 -283h-848v227l218 410h-175v194h277l108 205q65 118 76 129q-32 -14 -129 -14h-336l23 276h807v-235l-189 -361h166v-194z" />
    <glyph glyph-name="uni01B6" unicode="&#x1b6;" horiz-adv-x="772" 
d="M702 440h-206l-105 -196h320l-25 -244h-625v227l111 213h-98v195h200l99 184h-301v238h624v-242l-96 -180h102v-195z" />
    <glyph glyph-name="uni01C4" unicode="&#x1c4;" horiz-adv-x="2121" 
d="M1063 739q0 -183 -31.5 -321t-113.5 -246q-67 -88 -161 -130t-196 -42h-438v1427h414q209 0 319 -88q207 -166 207 -600zM711 752q0 273 -76 356q-39 41 -100 41h-93v-866h101q29 0 52 10.5t45.5 41t37.5 81.5t24 136t9 200zM2060 283l-26 -283h-848v227l428 809
q65 118 76 129q-32 -14 -129 -14h-336l22 276h807v-235l-434 -827q-7 -14 -28 -46t-29 -49q50 13 137 13h360zM1946 1759l-336 -276l-342 276l90 185l250 -144l239 144z" />
    <glyph glyph-name="uni01C5" unicode="&#x1c5;" horiz-adv-x="1896" 
d="M1063 739q0 -183 -31.5 -321t-113.5 -246q-67 -88 -161 -130t-196 -42h-438v1427h414q209 0 319 -88q207 -166 207 -600zM711 752q0 273 -76 356q-39 41 -100 41h-93v-866h101q29 0 52 10.5t45.5 41t37.5 81.5t24 136t9 200zM1835 244l-25 -244h-624v227l311 592h-301
v238h625v-242l-305 -571h319zM1837 1405l-336 -277l-342 277l90 184l250 -143l240 143z" />
    <glyph glyph-name="uni01C6" unicode="&#x1c6;" horiz-adv-x="1777" 
d="M899 0h-262q-12 30 -16 66q-74 -93 -189 -93q-176 0 -273.5 141t-97.5 394q0 180 55.5 321.5t162.5 206.5q77 47 178 47q32 0 69 -11t58 -25q-13 67 -13 167v279l312 -47v-1188q0 -159 16 -258zM571 272v521q-13 36 -65 36q-59 0 -82 -53q-29 -65 -29 -254
q0 -186 43 -246q24 -34 66 -34q50 0 67 30zM1716 244l-24 -244h-625v227l311 592h-301v238h625v-242l-305 -571h319zM1718 1405l-336 -277l-342 277l90 184l250 -143l240 143z" />
    <glyph glyph-name="uni01C7" unicode="&#x1c7;" horiz-adv-x="1392" 
d="M866 283l-61 -283h-682v1427h319v-1144h424zM1270 1427v-1179q0 -141 -1 -175.5t-7 -70.5q-23 -143 -112.5 -242t-213.5 -149l-152 174q60 46 92.5 83t49.5 83q16 43 20 105.5t4 189.5v1181h320z" />
    <glyph glyph-name="uni01C8" unicode="&#x1c8;" horiz-adv-x="1402" 
d="M866 283l-61 -283h-682v1427h319v-1144h424zM1280 1073v-1038q0 -130 -18.5 -215.5t-61.5 -145.5q-61 -82 -209 -155l-125 176q57 52 80 119t23 188v1038zM1303 1335q0 -74 -55.5 -127t-131.5 -53q-74 0 -128 53.5t-54 126.5q0 74 56 127.5t132 53.5q75 0 128 -53.5
t53 -127.5z" />
    <glyph glyph-name="uni01C9" unicode="&#x1c9;" horiz-adv-x="1095" 
d="M594 6q-75 -33 -203 -33q-142 0 -203 64q-43 45 -54 113.5t-11 189.5v864q0 149 -14 240l309 41q18 -108 18 -266v-762q0 -148 12 -192t62 -44q15 0 33 6zM973 1073v-1038q0 -130 -18.5 -215.5t-61.5 -145.5q-61 -82 -209 -155l-125 176q57 52 80 119t23 188v1038z
M995 1335q0 -74 -55 -127t-131 -53q-74 0 -128 53.5t-54 126.5q0 74 56 127.5t132 53.5q75 0 127.5 -53.5t52.5 -127.5z" />
    <glyph glyph-name="uni01CA" unicode="&#x1ca;" horiz-adv-x="1744" 
d="M1055 0h-330l-219 496q-39 88 -96 268q16 -110 16 -289v-475h-303v1427h307l227 -489q51 -110 103 -272q-10 105 -10 319v442h305v-1427zM1622 1427v-1179q0 -141 -1 -175.5t-7 -70.5q-23 -143 -112.5 -242t-213.5 -149l-151 174q60 45 92 82.5t49 83.5q16 44 20.5 108
t4.5 187v1181h319z" />
    <glyph glyph-name="uni01CB" unicode="&#x1cb;" horiz-adv-x="1734" 
d="M1055 0h-330l-219 496q-39 88 -96 268q16 -110 16 -289v-475h-303v1427h307l227 -489q51 -110 103 -272q-10 105 -10 319v442h305v-1427zM1612 1073v-1038q0 -130 -18.5 -215.5t-61.5 -145.5q-61 -82 -209 -155l-125 176q56 52 79 119t23 188v1038zM1634 1335
q0 -74 -55 -127t-131 -53q-74 0 -128 53.5t-54 126.5q0 74 56 127.5t132 53.5q75 0 127.5 -53.5t52.5 -127.5z" />
    <glyph glyph-name="uni01CC" unicode="&#x1cc;" horiz-adv-x="1605" 
d="M926 0h-312v702q0 74 -20 97q-14 14 -53 14q-51 0 -105 -57v-756h-313v739q0 156 -29 287l285 55q18 -56 20 -92q109 94 267 94q107 0 170 -47q90 -65 90 -223v-813zM1483 1073v-1038q0 -130 -18.5 -215.5t-61.5 -145.5q-61 -82 -209 -155l-125 176q56 52 79 119t23 188
v1038zM1505 1335q0 -74 -55 -127t-131 -53q-74 0 -128 53.5t-54 126.5q0 74 56 127.5t132 53.5q75 0 127.5 -53.5t52.5 -127.5z" />
    <glyph glyph-name="uni01F1" unicode="&#x1f1;" horiz-adv-x="2019" 
d="M1063 739q0 -183 -31.5 -321t-113.5 -246q-67 -88 -161 -130t-196 -42h-438v1427h414q209 0 319 -88q207 -166 207 -600zM711 752q0 273 -76 356q-39 41 -100 41h-93v-866h101q29 0 52 10.5t45.5 41t37.5 81.5t24 136t9 200zM1958 283l-27 -283h-848v227l428 809
q65 118 76 129q-32 -14 -129 -14h-336l23 276h807v-235l-434 -827q-7 -14 -28.5 -46t-29.5 -49q50 13 137 13h361z" />
    <glyph glyph-name="uni01F2" unicode="&#x1f2;" horiz-adv-x="1896" 
d="M1063 739q0 -183 -31.5 -321t-113.5 -246q-67 -88 -161 -130t-196 -42h-438v1427h414q209 0 319 -88q207 -166 207 -600zM711 752q0 273 -76 356q-39 41 -100 41h-93v-866h101q29 0 52 10.5t45.5 41t37.5 81.5t24 136t9 200zM1835 244l-25 -244h-624v227l311 592h-301
v238h625v-242l-305 -571h319z" />
    <glyph glyph-name="uni01F3" unicode="&#x1f3;" horiz-adv-x="1777" 
d="M899 0h-262q-12 30 -16 66q-74 -93 -189 -93q-176 0 -273.5 141t-97.5 394q0 180 55.5 321.5t162.5 206.5q77 47 178 47q32 0 69 -11t58 -25q-13 67 -13 167v279l312 -47v-1188q0 -159 16 -258zM571 272v521q-13 36 -65 36q-59 0 -82 -53q-29 -65 -29 -254
q0 -186 43 -246q24 -34 66 -34q50 0 67 30zM1716 244l-24 -244h-625v227l311 592h-301v238h625v-242l-305 -571h319z" />
    <glyph glyph-name="Aringacute" unicode="&#x1fa;" horiz-adv-x="1085" 
d="M1106 0h-344l-68 285h-307l-70 -285h-337l401 1427h348zM637 535l-66 327q-21 103 -24 201h-4q-3 -79 -27 -201l-65 -327h186zM786 1698q0 -88 -70 -152.5t-159 -64.5q-99 0 -166 63.5t-67 153.5q0 89 69.5 153t163.5 64t161.5 -64t67.5 -153zM637 1698q0 36 -24 61
t-54 25q-39 0 -62.5 -24.5t-23.5 -61.5q0 -36 23.5 -61t56.5 -25q37 0 60.5 24.5t23.5 61.5zM809 2120l-410 -197l-104 162l383 248z" />
    <glyph glyph-name="aringacute" unicode="&#x1fb;" horiz-adv-x="946" 
d="M893 156l-180 -199q-31 12 -66.5 45t-48.5 59q-88 -88 -231 -88q-83 0 -145.5 27t-99 75t-54 108.5t-17.5 133.5q0 153 110.5 249t299.5 96q5 0 17.5 -1t22.5 -1.5t11 -0.5v80q0 49 -10 72q-17 31 -66 31q-133 0 -264 -111l-111 207q208 145 416 145q132 0 221 -50
t113 -142q14 -55 14 -164l-4 -365q0 -76 14.5 -125t57.5 -81zM512 258v178h-14q-144 0 -144 -112q0 -46 22.5 -73.5t61.5 -27.5q21 0 43.5 11t30.5 24zM682 1350q0 -88 -70 -152.5t-159 -64.5q-99 0 -166.5 63.5t-67.5 153.5q0 89 70 153t164 64t161.5 -64t67.5 -153z
M532 1350q0 36 -23.5 61t-53.5 25q-39 0 -62.5 -24.5t-23.5 -61.5q0 -36 23.5 -61t56.5 -25q36 0 59.5 24.5t23.5 61.5zM721 1774l-410 -197l-104 162l383 248z" />
    <glyph glyph-name="AEacute" unicode="&#x1fc;" horiz-adv-x="1484" 
d="M1444 0h-758v274h-289l-121 -274h-358l729 1427h772l-39 -301h-374v-239h313v-291h-313v-291h438v-305zM686 557v291q0 55 2 86h-4q-42 -150 -156 -377h158zM1253 1694l-409 -197l-105 162l383 248z" />
    <glyph glyph-name="aeacute" unicode="&#x1fd;" horiz-adv-x="1374" 
d="M1333 416h-514q0 -30 5.5 -59t19.5 -61.5t46 -52.5t77 -20q124 0 243 107l119 -205q-91 -81 -180 -116.5t-193 -35.5q-211 0 -323 121q-30 -49 -99.5 -85t-166.5 -36q-83 0 -145.5 27t-99 75t-54 108.5t-17.5 133.5q0 154 112 249.5t306 95.5q31 0 43 -3v66q0 57 -14 76
q-16 22 -62 22q-133 0 -262 -110l-113 221q214 149 416 149q150 0 232 -67q74 67 209 67q204 0 309 -139q106 -140 106 -432v-96zM512 254v184h-2q-88 0 -122 -31t-34 -85q0 -46 22.5 -74.5t61.5 -28.5q21 0 43.5 11t30.5 24zM1026 647q0 95 -21.5 142t-76.5 47
q-109 0 -109 -189h207zM1042 1325l-409 -197l-105 162l383 248z" />
    <glyph glyph-name="Oslashacute" unicode="&#x1fe;" horiz-adv-x="1243" 
d="M1182 768q0 -793 -557 -793q-140 0 -252 56l-125 -234l-152 113l127 237q-162 188 -162 531q0 186 43.5 334.5t120.5 244t181.5 145.5t228.5 50q150 0 256 -59l106 198l154 -102l-115 -215q75 -97 110.5 -230t35.5 -276zM745 1122q-40 43 -118 43q-86 0 -138 -80
q-69 -107 -69 -366q0 -102 10 -187zM825 723q0 61 -4 147l-305 -569q45 -37 115 -37q99 0 143 82q51 99 51 377zM899 1694l-410 -197l-104 162l383 248z" />
    <glyph glyph-name="oslashacute" unicode="&#x1ff;" horiz-adv-x="968" 
d="M918 555q0 -243 -99 -397q-60 -93 -150 -139t-190 -46q-99 0 -182 39l-80 -149l-123 90l82 151q-22 25 -37 52q-88 142 -88 368q0 260 119 410q118 149 319 149q109 0 191 -39l80 150l123 -84l-84 -156l26 -34q93 -137 93 -365zM582 565q0 197 -37 248q-20 29 -62 29
t-63 -43q-33 -65 -33 -281q0 -136 10 -202t43 -89q18 -12 45 -12q30 0 50 23q47 55 47 327zM739 1325l-409 -197l-105 162l383 248z" />
    <glyph glyph-name="uni0218" unicode="&#x218;" horiz-adv-x="1103" 
d="M1042 455q0 -151 -73.5 -261.5t-194 -164.5t-272.5 -54q-264 0 -461 136l135 256q156 -117 324 -117q86 0 136 40t50 111q0 57 -43.5 89.5t-132.5 66.5l-23 8q-141 53 -199 90q-149 94 -171 273q-4 34 -4 71q0 202 133.5 327.5t339.5 125.5q124 0 238 -34t198 -93
l-145 -235q-157 94 -263 94q-67 0 -110 -31t-43 -90q0 -30 12.5 -55t28.5 -40.5t49.5 -32t56 -25t68.5 -23.5l31 -10q40 -14 69.5 -25.5t66.5 -31.5t63.5 -41.5t53.5 -53.5t44 -69.5t27.5 -89t10.5 -111.5zM668 -242q0 -97 -60 -174q-24 -29 -67 -56t-92 -38l-101 90
q47 10 75 29.5t28 40.5q0 15 -6 23t-20.5 18t-23.5 20q-41 43 -41 101t41 96.5t101 38.5q77 0 121.5 -51t44.5 -138z" />
    <glyph glyph-name="uni0219" unicode="&#x219;" horiz-adv-x="882" 
d="M831 350q0 -171 -112.5 -274t-296.5 -103q-189 0 -381 127l100 234q60 -47 142.5 -85t144.5 -38q39 0 67.5 25t28.5 55q0 42 -31.5 69t-91.5 48l-18 6q-33 11 -47.5 16t-46 17t-46.5 20.5t-40.5 24.5t-38.5 30.5t-30 36t-25.5 45t-14.5 54t-6 65.5q0 163 99 261.5
t264 98.5q109 0 186 -22t158 -70l-93 -215q-115 72 -208 72q-35 0 -56.5 -17t-21.5 -43q0 -18 4.5 -32t17.5 -26t22.5 -19.5t33.5 -17.5t34.5 -14t40.5 -15l19 -7q42 -15 70 -27.5t64 -38t57.5 -55.5t36.5 -78t15 -108zM588 -242q0 -97 -60 -174q-24 -29 -67 -56t-92 -38
l-101 90q47 10 75 29.5t28 40.5q0 15 -5.5 23t-20 18t-23.5 20q-41 43 -41 101t40.5 96.5t100.5 38.5q77 0 121.5 -51t44.5 -138z" />
    <glyph glyph-name="uni021A" unicode="&#x21a;" horiz-adv-x="919" 
d="M961 1427l-41 -278h-287v-1149h-324v1149h-289v278h941zM625 -242q0 -97 -60 -174q-24 -29 -67 -56t-92 -38l-101 90q47 10 75 29.5t28 40.5q0 15 -6 23t-20.5 18t-23.5 20q-41 43 -41 101t41 96.5t101 38.5q77 0 121.5 -51t44.5 -138z" />
    <glyph glyph-name="uni021B" unicode="&#x21b;" horiz-adv-x="667" 
d="M647 33q-115 -62 -233 -62q-145 0 -215 56q-76 60 -76 200v600h-76v226h76q0 184 12 268l307 45q-8 -86 -8 -221v-92h170l-39 -226h-131v-442q0 -110 19 -145t79 -35q45 0 78 20zM532 -242q0 -98 -59 -174q-24 -29 -67.5 -56t-92.5 -38l-100 90q46 10 74 29.5t28 40.5
q0 15 -5.5 23t-20 18t-23.5 20q-41 43 -41 101t41 96.5t101 38.5q77 0 121 -51t44 -138z" />
    <glyph glyph-name="uni0237" unicode="&#x237;" horiz-adv-x="557" 
d="M434 1073v-1038q0 -130 -18.5 -215.5t-61.5 -145.5q-61 -82 -209 -155l-125 176q57 52 80 119t23 188v1038z" />
    <glyph glyph-name="uni0259" unicode="&#x259;" horiz-adv-x="940" 
d="M41 618h516q0 112 -47 170q-38 48 -100 48q-116 0 -238 -107l-127 203q90 80 181 115.5t196 35.5q221 0 339 -142.5t118 -405.5q0 -293 -134 -443q-107 -119 -286 -119q-185 0 -285 103q-133 136 -133 477v65zM350 397q0 -105 23 -155q21 -47 73 -47q58 0 83.5 43
t25.5 159h-205z" />
    <glyph glyph-name="uni02BB" unicode="&#x2bb;" horiz-adv-x="530" 
d="M463 1020q0 -79 -53.5 -132.5t-130.5 -53.5q-102 0 -160 70.5t-58 193.5q0 138 78 243q31 41 88 79.5t121 54.5l131 -125q-61 -13 -97 -42t-36 -59q0 -21 7 -32.5t26.5 -25.5t30.5 -26q32 -33 42.5 -65.5t10.5 -79.5z" />
    <glyph glyph-name="uni02BC" unicode="&#x2bc;" horiz-adv-x="530" 
d="M469 1212q0 -138 -78 -243q-31 -40 -87.5 -78.5t-121.5 -54.5l-131 125q61 13 97 41.5t36 58.5q0 21 -7 32.5t-26 25.5t-30 26q-32 33 -42.5 65.5t-10.5 79.5q0 79 53.5 133t130.5 54q102 0 159.5 -70.5t57.5 -194.5z" />
    <glyph glyph-name="circumflex" unicode="&#x2c6;" horiz-adv-x="759" 
d="M719 1303l-101 -185l-247 144l-242 -144l-88 185l342 243z" />
    <glyph glyph-name="caron" unicode="&#x2c7;" horiz-adv-x="759" 
d="M719 1405l-336 -277l-342 277l90 184l250 -143l240 143z" />
    <glyph glyph-name="breve" unicode="&#x2d8;" horiz-adv-x="782" 
d="M741 1423q-55 -81 -149.5 -150t-196.5 -69q-105 0 -207.5 72.5t-146.5 148.5l111 125q128 -118 249 -118q90 0 248 118z" />
    <glyph glyph-name="dotaccent" unicode="&#x2d9;" horiz-adv-x="466" 
d="M426 1339q0 -83 -57.5 -141.5t-137.5 -58.5q-77 0 -133.5 58.5t-56.5 141.5t57.5 142t137.5 59q78 0 134 -59t56 -142z" />
    <glyph glyph-name="ring" unicode="&#x2da;" horiz-adv-x="544" 
d="M504 1350q0 -88 -70.5 -152.5t-159.5 -64.5q-99 0 -166 63.5t-67 153.5q0 89 69.5 153t163.5 64t162 -64t68 -153zM354 1350q0 36 -24 61t-54 25q-39 0 -62.5 -24.5t-23.5 -61.5q0 -36 23.5 -61t56.5 -25q37 0 60.5 24.5t23.5 61.5z" />
    <glyph glyph-name="ogonek" unicode="&#x2db;" horiz-adv-x="548" 
d="M487 -356q-45 -21 -73.5 -32t-72.5 -20.5t-89 -9.5q-82 0 -136.5 52t-54.5 145q0 48 17.5 94.5t46 82t52.5 59t48 40.5l181 -100q-57 -36 -85 -68t-28 -67q0 -43 49 -43q33 0 86 33z" />
    <glyph glyph-name="tilde" unicode="&#x2dc;" horiz-adv-x="745" 
d="M705 1298q-77 -112 -222 -112q-53 0 -121 38t-118 38q-70 0 -125 -62l-78 199q85 121 209 121q57 0 126 -36t118 -36q36 0 73.5 18t57.5 41z" />
    <glyph glyph-name="hungarumlaut" unicode="&#x2dd;" horiz-adv-x="933" 
d="M487 1503l-243 -430l-203 84l174 453zM893 1466l-307 -391l-187 115l246 422z" />
    <glyph glyph-name="gravecomb" unicode="&#x300;" horiz-adv-x="2" 
d="M-270 1290l-99 -164l-413 197l125 215z" />
    <glyph glyph-name="acutecomb" unicode="&#x301;" horiz-adv-x="2" 
d="M-227 1325l-410 -197l-104 162l383 248z" />
    <glyph glyph-name="uni0302" unicode="&#x302;" horiz-adv-x="2" 
d="M-139 1303l-101 -185l-247 144l-242 -144l-88 185l342 243z" />
    <glyph glyph-name="tildecomb" unicode="&#x303;" horiz-adv-x="2" 
d="M-156 1298q-77 -112 -221 -112q-53 0 -121 38t-118 38q-70 0 -125 -62l-78 199q85 121 209 121q57 0 125.5 -36t117.5 -36q36 0 73.5 18t57.5 41z" />
    <glyph glyph-name="uni0304" unicode="&#x304;" horiz-adv-x="2" 
d="M-39 1239h-612v195h612v-195z" />
    <glyph glyph-name="uni0306" unicode="&#x306;" horiz-adv-x="2" 
d="M-39 1348q-55 -82 -150 -151t-196 -69q-105 0 -207.5 72.5t-146.5 149.5l110 125q129 -119 250 -119q88 0 248 119z" />
    <glyph glyph-name="uni0307" unicode="&#x307;" horiz-adv-x="2" 
d="M-94 1335q0 -74 -55.5 -127t-131.5 -53q-74 0 -128 53.5t-54 126.5t56 127t133 54q75 0 127.5 -53.5t52.5 -127.5z" />
    <glyph glyph-name="uni0308" unicode="&#x308;" horiz-adv-x="2" 
d="M-498 1331q0 -67 -47.5 -113.5t-113.5 -46.5q-70 0 -120 46.5t-50 113.5q0 69 47.5 116.5t113.5 47.5q71 0 120.5 -47.5t49.5 -116.5zM-59 1331q0 -67 -47.5 -113.5t-114.5 -46.5q-70 0 -120 46.5t-50 113.5q0 69 47.5 116.5t114.5 47.5q71 0 120.5 -47.5t49.5 -116.5z
" />
    <glyph glyph-name="uni030A" unicode="&#x30a;" horiz-adv-x="2" 
d="M-39 1350q0 -88 -70 -152.5t-159 -64.5q-99 0 -166.5 63.5t-67.5 153.5q0 89 70 153t164 64t161.5 -64t67.5 -153zM-188 1350q0 36 -24 61t-54 25q-39 0 -62.5 -24.5t-23.5 -61.5q0 -36 23.5 -61t56.5 -25q37 0 60.5 24.5t23.5 61.5z" />
    <glyph glyph-name="uni030B" unicode="&#x30b;" horiz-adv-x="2" 
d="M-444 1559l-244 -431l-203 84l174 453zM-39 1522l-307 -392l-186 115l245 422z" />
    <glyph glyph-name="uni030C" unicode="&#x30c;" horiz-adv-x="2" 
d="M-57 1405l-336 -277l-342 277l90 184l250 -143l239 143z" />
    <glyph glyph-name="uni0312" unicode="&#x312;" horiz-adv-x="2" 
d="M-498 1419q0 139 78 244q31 40 87.5 78.5t121.5 54.5l131 -125q-61 -13 -97 -41.5t-36 -58.5q0 -21 7 -32.5t26 -25.5t30 -26q32 -33 43 -66t11 -80q0 -79 -54 -132.5t-131 -53.5q-102 0 -159.5 70.5t-57.5 193.5z" />
    <glyph glyph-name="uni0313" unicode="&#x313;" horiz-adv-x="2" 
d="M-80 1163q0 -138 -78 -243q-31 -41 -88 -79.5t-121 -54.5l-131 125q61 13 97 42t36 59q0 21 -7 32.5t-26 25.5t-30 26q-32 33 -42.5 65.5t-10.5 79.5q0 79 53.5 132.5t130.5 53.5q102 0 159.5 -70.5t57.5 -193.5z" />
    <glyph glyph-name="uni0326" unicode="&#x326;" horiz-adv-x="2" 
d="M-131 -242q0 -98 -59 -174q-24 -29 -67.5 -56t-92.5 -38l-101 90q47 10 75 29.5t28 40.5q0 12 -4 20t-9.5 12t-16 12t-19.5 17q-25 25 -33 47t-8 54q0 58 40.5 96.5t100.5 38.5q77 0 121.5 -51t44.5 -138z" />
    <glyph glyph-name="uni0327" unicode="&#x327;" horiz-adv-x="2" 
d="M-59 -201q0 -86 -52.5 -147.5t-164.5 -61.5q-40 0 -85 12t-73 29l59 127q39 -22 84 -22q28 0 44 13t16 36q0 49 -60 49q-25 0 -49 -4l-18 35l49 176l139 -21l-27 -71q64 -6 101 -47.5t37 -102.5z" />
    <glyph glyph-name="uni0328" unicode="&#x328;" horiz-adv-x="2" 
d="M-59 -348q-45 -20 -73.5 -31.5t-73 -21t-89.5 -9.5q-82 0 -136 52t-54 145q0 48 17.5 94.5t45.5 82t52 59t48 40.5l181 -100q-57 -36 -85 -68t-28 -67q0 -43 49 -43q33 0 86 33z" />
    <glyph glyph-name="uni037E" unicode="&#x37e;" horiz-adv-x="620" 
d="M518 90q0 -142 -76 -244q-31 -40 -87.5 -78.5t-121.5 -54.5l-131 125q61 13 97.5 42t36.5 59q0 21 -7 32.5t-26.5 25.5t-30.5 26q-32 33 -43.5 66t-11.5 79q0 79 54.5 132.5t131.5 53.5q102 0 158.5 -70t56.5 -194zM512 754q0 -83 -58 -142t-137 -59q-78 0 -135 59
t-57 142q0 80 57 138t135 58t136.5 -58.5t58.5 -137.5z" />
    <glyph glyph-name="tonos" unicode="&#x384;" horiz-adv-x="450" 
d="M410 1518l-193 -390l-176 84l143 410z" />
    <glyph glyph-name="dieresistonos" unicode="&#x385;" horiz-adv-x="1118" 
d="M393 1331q0 -67 -47.5 -113.5t-114.5 -46.5q-70 0 -120 46.5t-50 113.5q0 69 47.5 116.5t114.5 47.5q71 0 120.5 -47.5t49.5 -116.5zM788 1579l-192 -389l-176 84l143 409zM1057 1331q0 -67 -47.5 -113.5t-114.5 -46.5q-70 0 -120 46.5t-50 113.5q0 69 47.5 116.5
t114.5 47.5q71 0 120.5 -47.5t49.5 -116.5z" />
    <glyph glyph-name="Alphatonos" unicode="&#x386;" horiz-adv-x="1085" 
d="M166 1348l-193 -390l-176 84l144 410zM1106 0h-344l-68 285h-307l-70 -285h-337l401 1427h348zM637 535l-66 327q-21 103 -24 201h-4q-3 -79 -27 -201l-65 -327h186z" />
    <glyph glyph-name="anoteleia" unicode="&#x387;" horiz-adv-x="618" 
d="M516 551q0 -87 -62 -149t-151 -62q-84 0 -142.5 62.5t-58.5 152.5q0 89 61 153t148 64q86 0 145.5 -65t59.5 -156z" />
    <glyph glyph-name="Epsilontonos" unicode="&#x388;" horiz-adv-x="901" 
d="M43 1348l-193 -390l-176 84l144 410zM860 0h-737v1427h733l-33 -280h-381v-268h312v-275h-312v-317h418v-287z" />
    <glyph glyph-name="Etatonos" unicode="&#x389;" horiz-adv-x="1140" 
d="M1018 0h-320v602h-256v-602h-319v1427h319v-526h256v526h320v-1427zM43 1348l-193 -390l-176 84l144 410z" />
    <glyph glyph-name="Iotatonos" unicode="&#x38a;" horiz-adv-x="567" 
d="M444 0h-321v1427h321v-1427zM43 1348l-193 -390l-176 84l144 410z" />
    <glyph glyph-name="Omicrontonos" unicode="&#x38c;" horiz-adv-x="1243" 
d="M104 1348l-192 -390l-176 84l143 410zM1182 768q0 -435 -170 -633q-140 -160 -387 -160q-228 0 -371 140q-94 91 -143.5 235t-49.5 328q0 372 151 573t404 201q222 0 367 -135q101 -97 150 -244t49 -305zM825 727q0 172 -18 268.5t-57 141.5q-43 51 -132 51
q-72 0 -114 -58q-84 -117 -84 -407q0 -291 61 -395q47 -82 144 -82q105 0 149 94q51 108 51 387z" />
    <glyph glyph-name="Upsilontonos" unicode="&#x38e;" horiz-adv-x="1026" 
d="M-39 1348l-192 -390l-177 84l144 410zM1067 1427l-397 -913v-514h-328v508l-383 919h381l121 -403q28 -90 53 -207q5 20 53 207l121 403h379z" />
    <glyph glyph-name="Omegatonos" unicode="&#x38f;" horiz-adv-x="1314" 
d="M1233 760q0 -123 -57 -259t-144 -225h182l-26 -276h-473v219q81 97 121.5 248.5t40.5 296.5q0 256 -76 356q-50 68 -139 68q-88 0 -142 -66q-82 -101 -82 -358q0 -145 40.5 -296.5t121.5 -248.5v-219h-502l27 276h151q-86 87 -140 223t-54 261q0 388 209 567
q145 125 371 125q240 0 391 -154q180 -183 180 -538zM125 1348l-193 -390l-176 84l144 410z" />
    <glyph glyph-name="iotadieresistonos" unicode="&#x390;" horiz-adv-x="559" 
d="M594 6q-75 -33 -203 -33q-139 0 -201 62q-30 30 -45 81.5t-17.5 96.5t-2.5 127v465q0 144 -14 235l313 33q12 -95 12 -254v-362q0 -148 12 -192t62 -44q18 0 33 6zM168 1331q0 -67 -47.5 -113.5t-114.5 -46.5q-70 0 -120 46.5t-50 113.5q0 69 48 116.5t114 47.5
q71 0 120.5 -47.5t49.5 -116.5zM563 1579l-192 -389l-176 84l143 409zM831 1331q0 -67 -47.5 -113.5t-113.5 -46.5q-70 0 -120 46.5t-50 113.5q0 69 48 116.5t114 47.5q71 0 120 -47.5t49 -116.5z" />
    <glyph glyph-name="Alpha" unicode="&#x391;" horiz-adv-x="1085" 
d="M1106 0h-344l-68 285h-307l-70 -285h-337l401 1427h348zM637 535l-66 327q-21 103 -24 201h-4q-3 -79 -27 -201l-65 -327h186z" />
    <glyph glyph-name="Beta" unicode="&#x392;" horiz-adv-x="1107" 
d="M1047 440q0 -221 -129 -338q-111 -102 -302 -102h-493v1427h510q196 0 293 -108q78 -88 78 -242q0 -105 -49 -192t-146 -123q96 -29 160 -105q78 -91 78 -217zM682 444q0 101 -57 140q-30 20 -76 20h-107v-317h111q64 0 96.5 43.5t32.5 113.5zM676 1012q0 48 -21 82
q-32 53 -102 53h-111v-270h115q79 0 105 61q14 28 14 74z" />
    <glyph glyph-name="Gamma" unicode="&#x393;" horiz-adv-x="774" 
d="M815 1427l-33 -282h-340v-1145h-319v1427h692z" />
    <glyph glyph-name="uni0394" unicode="&#x394;" horiz-adv-x="1093" 
d="M1083 262l-24 -262h-1049v242l375 1185h348zM745 283l-165 600q-21 78 -29 200h-4q-8 -123 -31 -200l-172 -600h401z" />
    <glyph glyph-name="Epsilon" unicode="&#x395;" horiz-adv-x="901" 
d="M860 0h-737v1427h733l-33 -280h-381v-268h312v-275h-312v-317h418v-287z" />
    <glyph glyph-name="Zeta" unicode="&#x396;" horiz-adv-x="997" 
d="M936 283l-27 -283h-848v227l428 809q65 118 76 129q-32 -14 -129 -14h-336l23 276h807v-235l-434 -827q-7 -14 -28.5 -46t-29.5 -49q50 13 137 13h361z" />
    <glyph glyph-name="Eta" unicode="&#x397;" horiz-adv-x="1140" 
d="M1018 0h-320v602h-256v-602h-319v1427h319v-526h256v526h320v-1427z" />
    <glyph glyph-name="Theta" unicode="&#x398;" horiz-adv-x="1292" 
d="M1231 768q0 -129 -17.5 -240.5t-60 -215t-107.5 -177t-166.5 -117t-230.5 -43.5q-271 0 -429.5 190.5t-158.5 512.5q0 186 44.5 334.5t123 244t183.5 145.5t229 50q123 0 224 -41.5t167.5 -109t112.5 -157.5t66 -184.5t20 -191.5zM868 872q-8 95 -27.5 158.5t-49.5 97.5
t-65 47t-83 13q-85 0 -140.5 -84.5t-74.5 -231.5h440zM870 606h-446q7 -102 26 -174t49.5 -112t67 -57t82.5 -17q64 0 108 31t74 112.5t39 216.5z" />
    <glyph glyph-name="Iota" unicode="&#x399;" horiz-adv-x="567" 
d="M444 0h-321v1427h321v-1427z" />
    <glyph glyph-name="Kappa" unicode="&#x39a;" horiz-adv-x="1130" 
d="M1171 0h-411l-314 760l277 667h385l-326 -661zM442 0h-319v1427h319v-1427z" />
    <glyph glyph-name="Lambda" unicode="&#x39b;" horiz-adv-x="1044" 
d="M1059 0h-342l-168 827q-21 105 -21 201h-4q0 -71 -26 -201l-176 -827h-336l374 1427h349z" />
    <glyph glyph-name="Mu" unicode="&#x39c;" horiz-adv-x="1540" 
d="M1458 0h-313l-29 662q-10 225 -10 286h-2q-19 -163 -41 -268l-154 -680h-295l-131 657q-30 152 -41 287h-2q0 -205 -4 -295l-26 -649h-328l108 1427h418l123 -665q35 -199 41 -270h2q11 119 41 266l133 669h408z" />
    <glyph glyph-name="Nu" unicode="&#x39d;" horiz-adv-x="1177" 
d="M1055 0h-330l-219 496q-39 88 -96 268q16 -110 16 -289v-475h-303v1427h307l227 -489q51 -110 103 -272q-10 105 -10 319v442h305v-1427z" />
    <glyph glyph-name="Xi" unicode="&#x39e;" horiz-adv-x="962" 
d="M911 1427l-34 -301h-789v301h823zM848 891l-35 -295h-690l35 295h690zM895 0h-844l37 307h807v-307z" />
    <glyph glyph-name="Omicron" unicode="&#x39f;" horiz-adv-x="1243" 
d="M1182 768q0 -435 -170 -633q-140 -160 -387 -160q-228 0 -371 140q-94 91 -143.5 235t-49.5 328q0 372 151 573t404 201q222 0 367 -135q101 -97 150 -244t49 -305zM825 727q0 172 -18 268.5t-57 141.5q-43 51 -132 51q-72 0 -114 -58q-84 -117 -84 -407q0 -291 61 -395
q47 -82 144 -82q105 0 149 94q51 108 51 387z" />
    <glyph glyph-name="Pi" unicode="&#x3a0;" horiz-adv-x="1126" 
d="M1004 0h-320v1128h-242v-1128h-319v1427h881v-1427z" />
    <glyph glyph-name="Rho" unicode="&#x3a1;" horiz-adv-x="1050" 
d="M1030 983q0 -188 -92 -309q-128 -166 -414 -166h-82v-508h-319v1427h383q289 0 420 -137q104 -110 104 -307zM682 987q0 78 -35 119q-37 43 -115 43h-90v-365h70q84 0 123 39q47 47 47 164z" />
    <glyph glyph-name="Sigma" unicode="&#x3a3;" horiz-adv-x="952" 
d="M891 0h-840v227l318 523l-293 458l16 219h811l-20 -276h-279q-101 0 -133 14q69 -69 98 -116l176 -291l-243 -393q-37 -59 -68 -95q50 13 137 13h340z" />
    <glyph glyph-name="Tau" unicode="&#x3a4;" horiz-adv-x="919" 
d="M961 1427l-41 -278h-287v-1149h-324v1149h-289v278h941z" />
    <glyph glyph-name="Upsilon" unicode="&#x3a5;" horiz-adv-x="1026" 
d="M1067 1427l-397 -913v-514h-328v508l-383 919h381l121 -403q28 -90 53 -207q5 20 53 207l121 403h379z" />
    <glyph glyph-name="Phi" unicode="&#x3a6;" horiz-adv-x="1443" 
d="M1407 719q0 -78 -16 -150.5t-54 -145t-96.5 -129t-150 -98.5t-207.5 -57v-139h-322v139q-115 15 -206.5 57t-150 98.5t-97 129t-54.5 145t-16 150.5q0 77 16 150t54.5 145t97 128.5t150 97t206.5 54.5v133h322v-131q115 -13 206.5 -53.5t150 -97t97 -129.5t54.5 -146
t16 -151zM1051 723q0 73 -12 127t-51 103t-105 73v-610q52 25 86.5 57.5t51.5 74t23.5 82t6.5 93.5zM561 416v608q-168 -65 -168 -301q0 -39 1.5 -64.5t10.5 -66t25.5 -69t50 -58.5t80.5 -49z" />
    <glyph glyph-name="Chi" unicode="&#x3a7;" horiz-adv-x="1052" 
d="M1083 0h-387l-157 401l-164 -401h-406l387 741l-348 686h395l134 -346l129 346h385l-336 -663z" />
    <glyph glyph-name="Psi" unicode="&#x3a8;" horiz-adv-x="1347" 
d="M1296 1427v-602q0 -82 -12 -149.5t-44 -133.5t-83 -113.5t-133 -81t-190 -44.5v-303h-320v303q-108 11 -190.5 44.5t-133.5 81t-83 113t-44 134t-12 149.5v602h316v-624q0 -102 32 -150t115 -78v852h320v-852q83 30 115 78t32 150v624h315z" />
    <glyph glyph-name="uni03A9" unicode="&#x3a9;" horiz-adv-x="1314" 
d="M1233 760q0 -123 -57 -259t-144 -225h182l-26 -276h-473v219q81 97 121.5 248.5t40.5 296.5q0 256 -76 356q-50 68 -139 68q-88 0 -142 -66q-82 -101 -82 -358q0 -145 40.5 -296.5t121.5 -248.5v-219h-502l27 276h151q-86 87 -140 223t-54 261q0 388 209 567
q145 125 371 125q240 0 391 -154q180 -183 180 -538z" />
    <glyph glyph-name="Iotadieresis" unicode="&#x3aa;" horiz-adv-x="567" 
d="M444 0h-321v1427h321v-1427zM227 1700q0 -67 -47.5 -113.5t-113.5 -46.5q-70 0 -120 46.5t-50 113.5q0 69 47.5 116.5t113.5 47.5q71 0 120.5 -47.5t49.5 -116.5zM666 1700q0 -67 -47.5 -113.5t-114.5 -46.5q-70 0 -120 46.5t-50 113.5q0 68 48 116t114 48
q71 0 120.5 -47.5t49.5 -116.5z" />
    <glyph glyph-name="Upsilondieresis" unicode="&#x3ab;" horiz-adv-x="1026" 
d="M457 1700q0 -67 -47.5 -113.5t-114.5 -46.5q-70 0 -120 46.5t-50 113.5q0 68 47.5 116t114.5 48q71 0 120.5 -47.5t49.5 -116.5zM895 1700q0 -67 -47.5 -113.5t-114.5 -46.5q-70 0 -120 46.5t-50 113.5q0 68 47.5 116t114.5 48q71 0 120.5 -47.5t49.5 -116.5zM1067 1427
l-397 -913v-514h-328v508l-383 919h381l121 -403q28 -90 53 -207q5 20 53 207l121 403h379z" />
    <glyph glyph-name="alphatonos" unicode="&#x3ac;" horiz-adv-x="1011" 
d="M958 156l-182 -199q-39 15 -71 51t-50 82q-67 -117 -223 -117q-168 0 -258 113q-113 136 -113 432q0 256 115 414q53 73 123.5 112t144.5 39q60 0 105.5 -28t68.5 -74q4 25 17 76h270q-16 -76 -16 -326v-369q0 -78 13 -126t56 -80zM578 279v489q-17 43 -68 43
q-55 0 -80 -47q-35 -65 -35 -227q0 -226 41 -279q23 -31 64 -31q29 0 50.5 18t27.5 34zM778 1518l-192 -390l-176 84l143 410z" />
    <glyph glyph-name="epsilontonos" unicode="&#x3ad;" horiz-adv-x="903" 
d="M893 117q-194 -152 -426 -152q-195 0 -300.5 82t-105.5 252q0 85 44.5 149.5t115.5 96.5q-125 75 -125 211q0 147 97.5 237t265.5 90q108 0 189.5 -25.5t199.5 -94.5l-94 -209q-70 49 -122.5 63t-123.5 14q-29 0 -50 -10.5t-30 -25.5t-12.5 -26t-3.5 -19q0 -91 96 -91
h137v-221h-125q-57 0 -82.5 -31.5t-25.5 -80.5q0 -34 28 -64.5t88 -30.5q67 0 119 21t123 78zM768 1518l-193 -390l-176 84l144 410z" />
    <glyph glyph-name="etatonos" unicode="&#x3ae;" horiz-adv-x="1048" 
d="M999 156l-180 -199q-80 28 -143 135q-62 108 -62 219v391q0 65 -16 91q-9 14 -21.5 17t-35.5 3q-51 0 -105 -57v-756h-313v739q0 156 -29 287l285 55q18 -56 20 -92q109 94 267 94q119 0 184 -59q76 -70 76 -211v-461q0 -74 14.5 -118.5t58.5 -77.5zM819 1518l-192 -390
l-176 84l143 410z" />
    <glyph glyph-name="iotatonos" unicode="&#x3af;" horiz-adv-x="559" 
d="M594 6q-75 -33 -203 -33q-139 0 -201 62q-30 30 -45 81.5t-17.5 96.5t-2.5 127v465q0 144 -14 235l313 33q12 -95 12 -254v-362q0 -148 12 -192t62 -44q18 0 33 6zM573 1518l-192 -390l-176 84l143 410z" />
    <glyph glyph-name="upsilondieresistonos" unicode="&#x3b0;" horiz-adv-x="987" 
d="M895 340q0 -175 -112 -271t-304 -96q-187 0 -287 92t-100 261v706l314 49v-772q0 -92 88 -92q47 0 68.5 28.5t21.5 69.5v717l311 49v-741zM328 1331q0 -67 -47.5 -113.5t-114.5 -46.5q-70 0 -120 46.5t-50 113.5q0 69 48 116.5t114 47.5q71 0 120.5 -47.5t49.5 -116.5z
M723 1579l-193 -389l-176 84l144 409zM991 1331q0 -67 -47.5 -113.5t-114.5 -46.5q-70 0 -120 46.5t-50 113.5q0 69 47.5 116.5t114.5 47.5q71 0 120.5 -47.5t49.5 -116.5z" />
    <glyph glyph-name="alpha" unicode="&#x3b1;" horiz-adv-x="1011" 
d="M958 156l-182 -199q-39 15 -71 51t-50 82q-67 -117 -223 -117q-168 0 -258 113q-113 136 -113 432q0 256 115 414q53 73 123.5 112t144.5 39q60 0 105.5 -28t68.5 -74q4 25 17 76h270q-16 -76 -16 -326v-369q0 -78 13 -126t56 -80zM578 279v489q-17 43 -68 43
q-55 0 -80 -47q-35 -65 -35 -227q0 -226 41 -279q23 -31 64 -31q29 0 50.5 18t27.5 34z" />
    <glyph glyph-name="beta" unicode="&#x3b2;" horiz-adv-x="1077" 
d="M1036 401q0 -87 -25 -162t-76.5 -136t-138.5 -95.5t-202 -34.5q-74 0 -158 54v-430l-313 -64v1380q0 549 424 549q186 0 294.5 -104t108.5 -285q0 -84 -43 -158t-116 -122q114 -47 179.5 -151.5t65.5 -240.5zM702 385q0 58 -5.5 94t-23.5 68.5t-55.5 47.5t-97.5 15h-35
l27 246h16q71 0 96 50.5t25 140.5q0 157 -108 157q-57 0 -81 -53t-24 -172v-709q63 -90 127 -90q68 0 103.5 55.5t35.5 149.5z" />
    <glyph glyph-name="gamma" unicode="&#x3b3;" horiz-adv-x="909" 
d="M940 1057l-319 -1041v-419l-312 -64v483l-211 766q-11 49 -39 49q-15 0 -43 -12l-57 205q109 59 205 59q98 0 149 -41.5t70 -140.5l43 -235q30 -155 43 -258h4q4 36 9.5 70t10 54.5t14 62t15.5 67.5l82 395h336z" />
    <glyph glyph-name="delta" unicode="&#x3b4;" horiz-adv-x="968" 
d="M918 557q0 -290 -138 -448q-119 -136 -301 -136q-157 0 -266 95q-162 143 -162 454q0 126 39.5 237.5t112.5 187t166 91.5q-41 47 -99 91t-112 65l20 233h674l-21 -247h-245q69 -58 119 -111q213 -228 213 -512zM582 565q0 146 -31 203q-23 39 -68 39q-49 0 -72.5 -63
t-23.5 -226q0 -133 10 -199t41 -90q17 -14 47 -14q29 0 47 21q50 55 50 329z" />
    <glyph glyph-name="epsilon" unicode="&#x3b5;" horiz-adv-x="903" 
d="M893 117q-194 -152 -426 -152q-195 0 -300.5 82t-105.5 252q0 85 44.5 149.5t115.5 96.5q-125 75 -125 211q0 147 97.5 237t265.5 90q108 0 189.5 -25.5t199.5 -94.5l-94 -209q-70 49 -122.5 63t-123.5 14q-29 0 -50 -10.5t-30 -25.5t-12.5 -26t-3.5 -19q0 -91 96 -91
h137v-221h-125q-57 0 -82.5 -31.5t-25.5 -80.5q0 -34 28 -64.5t88 -30.5q67 0 119 21t123 78z" />
    <glyph glyph-name="zeta" unicode="&#x3b6;" horiz-adv-x="837" 
d="M879 1427l-21 -247q-116 -62 -207.5 -155.5t-144.5 -195.5t-80 -201.5t-27 -187.5q0 -129 127 -129h35q299 0 299 -327q0 -185 -196 -449l-191 98q43 63 64.5 140t21.5 131q0 96 -96 96h-53q-163 0 -256 89t-93 263q0 219 110.5 451t266.5 356q-38 -12 -125 -12h-178
l25 280h719z" />
    <glyph glyph-name="eta" unicode="&#x3b7;" horiz-adv-x="1048" 
d="M999 156l-180 -199q-80 28 -143 135q-62 108 -62 219v391q0 65 -16 91q-9 14 -21.5 17t-35.5 3q-51 0 -105 -57v-756h-313v739q0 156 -29 287l285 55q18 -56 20 -92q109 94 267 94q119 0 184 -59q76 -70 76 -211v-461q0 -74 14.5 -118.5t58.5 -77.5z" />
    <glyph glyph-name="theta" unicode="&#x3b8;" horiz-adv-x="999" 
d="M932 717q0 -426 -139 -606q-109 -138 -293 -138q-194 0 -299 133q-135 173 -135 603q0 475 180 647q99 96 258 96q178 0 276 -106q85 -90 118.5 -248t33.5 -381zM604 848q-1 86 -2.5 130t-8 96.5t-18.5 82.5q-22 57 -69 57q-48 0 -74 -59q-33 -75 -33 -307h205zM604 612
h-205q3 -252 23 -321q22 -76 78 -76q57 0 80 80q24 77 24 317z" />
    <glyph glyph-name="iota" unicode="&#x3b9;" horiz-adv-x="559" 
d="M594 6q-75 -33 -203 -33q-139 0 -201 62q-30 30 -45 81.5t-17.5 96.5t-2.5 127v465q0 144 -14 235l313 33q12 -95 12 -254v-362q0 -148 12 -192t62 -44q18 0 33 6z" />
    <glyph glyph-name="kappa" unicode="&#x3ba;" horiz-adv-x="1009" 
d="M1018 0h-371l-225 539l166 518h354l-223 -488zM420 0h-311v805q0 137 -15 235l314 33q12 -95 12 -254v-819z" />
    <glyph glyph-name="lambda" unicode="&#x3bb;" horiz-adv-x="946" 
d="M971 18q-75 -45 -183 -45t-157 51t-68 150l-63 342q-22 131 -27 217h-2q-11 -101 -37 -217l-123 -526l-323 26l221 768q40 141 61 273h125l-16 94q-11 63 -43 105t-80 42q-37 0 -94 -24l-45 209q117 43 192 43q68 0 122 -21.5t84 -49.5t53 -72t31.5 -71t16.5 -65
l222 -971q8 -35 17 -50t26 -15q16 0 45 16z" />
    <glyph glyph-name="uni03BC" unicode="&#x3bc;" horiz-adv-x="1048" 
d="M975 90l-254 -119q-37 34 -49 90q-125 -84 -209 -84q-21 0 -35 9l-2 2v-391l-303 -64v1499l309 49v-762q0 -47 21 -66.5t63 -19.5q38 0 94 48v751l312 49v-762q0 -144 53 -229z" />
    <glyph glyph-name="nu" unicode="&#x3bd;" horiz-adv-x="886" 
d="M918 1057l-308 -1057h-321l-320 1030l342 41l90 -407q46 -207 54 -265h4q4 36 11 76.5t12.5 66.5t14 66t11.5 54l82 395h328z" />
    <glyph glyph-name="xi" unicode="&#x3be;" horiz-adv-x="894" 
d="M895 1427l-23 -280h-284q-46 0 -77 -13t-45 -36t-19 -44.5t-5 -49.5q0 -53 34 -88t87 -35h221l-20 -273h-197q-87 0 -127.5 -48.5t-40.5 -123.5q0 -125 127 -125h54q299 0 299 -327q0 -184 -197 -449l-190 98q43 63 64.5 140t21.5 131q0 96 -97 96h-71q-164 0 -256.5 87
t-92.5 261q0 76 25.5 155t77.5 145t119 89v4q-158 76 -158 238q0 57 33 119.5t71 81.5q-33 -9 -123 -9l21 256h768z" />
    <glyph glyph-name="omicron" unicode="&#x3bf;" horiz-adv-x="968" 
d="M918 555q0 -243 -99 -397q-60 -93 -150 -139t-190 -46q-226 0 -340 183q-88 142 -88 368q0 260 119 410q118 149 319 149q225 0 336 -163q93 -137 93 -365zM582 565q0 197 -37 248q-20 29 -62 29t-63 -43q-33 -65 -33 -281q0 -136 10 -202t43 -89q18 -12 45 -12
q30 0 50 23q47 55 47 327z" />
    <glyph glyph-name="pi" unicode="&#x3c0;" horiz-adv-x="1028" 
d="M1012 1057l-39 -234h-70v-471q0 -73 15 -118t59 -78l-180 -199q-92 34 -154 154q-51 97 -51 200v512h-156v-823h-313v823h-78v234h967z" />
    <glyph glyph-name="rho" unicode="&#x3c1;" horiz-adv-x="952" 
d="M895 569q0 -296 -103.5 -446t-291.5 -150q-69 0 -144 35q15 -54 15 -162v-249l-314 -64v1032q0 248 109.5 383t310.5 135q87 0 160 -29t132 -88.5t92.5 -161t33.5 -235.5zM559 551q0 31 -1 61t-6.5 74.5t-15 76.5t-28 55.5t-43.5 23.5q-34 0 -53 -21.5t-30 -84.5
t-11 -177v-297q3 -12 18.5 -20.5t38.5 -8.5q30 0 52.5 11.5t36.5 33.5t23 46t12.5 58.5t5 60.5t1.5 61v47z" />
    <glyph glyph-name="sigma1" unicode="&#x3c2;" horiz-adv-x="823" 
d="M813 -70q0 -52 -15 -104.5t-47 -108t-56 -91t-66 -91.5l-191 98q41 60 59.5 128.5t18.5 103.5q0 20 -11.5 39t-25.5 32.5t-44.5 32.5t-49 29t-59.5 31q-265 136 -265 489q0 168 49 292.5t140 193.5q101 79 254 79q84 0 147.5 -29t134.5 -96l-143 -198q-27 33 -62.5 54.5
t-66.5 21.5q-61 0 -88 -68q-27 -64 -27 -221q0 -81 21.5 -138.5t52.5 -87.5t82 -59q111 -62 153 -99q105 -91 105 -233z" />
    <glyph glyph-name="sigma" unicode="&#x3c3;" horiz-adv-x="976" 
d="M991 1057l-39 -234h-112q71 -113 71 -268q0 -121 -24.5 -220.5t-66.5 -165.5t-98.5 -111t-118.5 -65t-130 -20q-199 0 -313.5 145t-114.5 406q0 246 121 389.5t323 143.5h502zM575 565q0 102 -12.5 157.5t-32 72t-53.5 16.5q-23 0 -38 -9.5t-29.5 -38t-21.5 -89.5
t-7 -156q0 -201 27 -256q20 -47 71 -47q38 0 58 35q38 62 38 315z" />
    <glyph glyph-name="tau" unicode="&#x3c4;" horiz-adv-x="755" 
d="M762 1057l-43 -250h-189v-422q0 -110 19.5 -145t79.5 -35q45 0 78 20l36 -192q-115 -62 -233 -62q-133 0 -199 43q-92 60 -92 213v580h-199v250h742z" />
    <glyph glyph-name="upsilon" unicode="&#x3c5;" horiz-adv-x="987" 
d="M895 340q0 -175 -112 -271t-304 -96q-187 0 -287 92t-100 261v706l314 49v-772q0 -92 88 -92q47 0 68.5 28.5t21.5 69.5v717l311 49v-741z" />
    <glyph glyph-name="phi" unicode="&#x3c6;" horiz-adv-x="1306" 
d="M1255 543q0 -213 -118 -370.5t-330 -199.5v-376l-307 -64v440q-202 35 -325.5 179.5t-123.5 367.5q0 68 13.5 134.5t44 131t75 117.5t110.5 94t146 60v-242q-29 -31 -44.5 -86t-18 -96.5t-2.5 -104.5q0 -121 39 -204q37 -77 86 -103v850q76 12 178 12q271 0 428 -147
q149 -139 149 -393zM932 528q0 119 -39 195q-33 67 -86 98v-598q56 37 92 119q33 81 33 186z" />
    <glyph glyph-name="chi" unicode="&#x3c7;" horiz-adv-x="944" 
d="M975 0h-381l-68 164q-36 86 -47 135h-4q-19 -81 -72 -188l-55 -111h-379l318 551l-264 469l319 74l70 -140q49 -96 67 -180h2q16 123 49 193l43 90h365l-279 -496z" />
    <glyph glyph-name="psi" unicode="&#x3c8;" horiz-adv-x="1269" 
d="M1178 1081v-565q0 -114 -22 -206t-67.5 -165t-121.5 -116.5t-179 -51.5v-380l-307 -64v444q-191 18 -290 137t-99 384v534l303 49v-667q0 -92 16 -125.5t70 -55.5v971q0 149 -14 240l303 41q18 -108 18 -266v-986q52 20 69 55.5t17 125.5v618z" />
    <glyph glyph-name="omega" unicode="&#x3c9;" horiz-adv-x="1314" 
d="M1264 406q0 -62 -12 -121.5t-38.5 -116.5t-65.5 -100t-97 -69t-129 -26q-96 0 -160 34t-105 118q-42 -84 -106.5 -118t-161.5 -34q-70 0 -128 26t-96 69t-64.5 100t-38 116.5t-11.5 121.5q0 206 66 372t209 305l206 -75q-147 -224 -147 -537q0 -215 66 -215q8 0 15 2.5
t17.5 11t16.5 30t6 52.5v434h303v-434q0 -31 6 -52.5t16.5 -30t17.5 -11t15 -2.5q66 0 66 215q0 309 -150 537l207 75q143 -139 210 -305.5t67 -371.5z" />
    <glyph glyph-name="iotadieresis" unicode="&#x3ca;" horiz-adv-x="559" 
d="M594 6q-75 -33 -203 -33q-139 0 -201 62q-30 30 -45 81.5t-17.5 96.5t-2.5 127v465q0 144 -14 235l313 33q12 -95 12 -254v-362q0 -148 12 -192t62 -44q18 0 33 6zM225 1331q0 -67 -47.5 -113.5t-114.5 -46.5q-70 0 -119.5 46.5t-49.5 113.5q0 69 47.5 116.5t113.5 47.5
q71 0 120.5 -47.5t49.5 -116.5zM664 1331q0 -67 -47.5 -113.5t-114.5 -46.5q-70 0 -120 46.5t-50 113.5q0 69 48 116.5t114 47.5q71 0 120.5 -47.5t49.5 -116.5z" />
    <glyph glyph-name="upsilondieresis" unicode="&#x3cb;" horiz-adv-x="987" 
d="M895 340q0 -175 -112 -271t-304 -96q-187 0 -287 92t-100 261v706l314 49v-772q0 -92 88 -92q47 0 68.5 28.5t21.5 69.5v717l311 49v-741zM440 1331q0 -67 -47.5 -113.5t-113.5 -46.5q-70 0 -120 46.5t-50 113.5q0 69 47.5 116.5t113.5 47.5q71 0 120.5 -47.5
t49.5 -116.5zM879 1331q0 -67 -47.5 -113.5t-114.5 -46.5q-70 0 -120 46.5t-50 113.5q0 69 47.5 116.5t114.5 47.5q71 0 120.5 -47.5t49.5 -116.5z" />
    <glyph glyph-name="omicrontonos" unicode="&#x3cc;" horiz-adv-x="968" 
d="M918 555q0 -243 -99 -397q-60 -93 -150 -139t-190 -46q-226 0 -340 183q-88 142 -88 368q0 260 119 410q118 149 319 149q225 0 336 -163q93 -137 93 -365zM582 565q0 197 -37 248q-20 29 -62 29t-63 -43q-33 -65 -33 -281q0 -136 10 -202t43 -89q18 -12 45 -12
q30 0 50 23q47 55 47 327zM758 1518l-193 -390l-176 84l143 410z" />
    <glyph glyph-name="upsilontonos" unicode="&#x3cd;" horiz-adv-x="987" 
d="M895 340q0 -175 -112 -271t-304 -96q-187 0 -287 92t-100 261v706l314 49v-772q0 -92 88 -92q47 0 68.5 28.5t21.5 69.5v717l311 49v-741zM778 1518l-192 -390l-176 84l143 410z" />
    <glyph glyph-name="omegatonos" unicode="&#x3ce;" horiz-adv-x="1314" 
d="M1264 406q0 -62 -12 -121.5t-38.5 -116.5t-65.5 -100t-97 -69t-129 -26q-96 0 -160 34t-105 118q-42 -84 -106.5 -118t-161.5 -34q-70 0 -128 26t-96 69t-64.5 100t-38 116.5t-11.5 121.5q0 206 66 372t209 305l206 -75q-147 -224 -147 -537q0 -215 66 -215q8 0 15 2.5
t17.5 11t16.5 30t6 52.5v434h303v-434q0 -31 6 -52.5t16.5 -30t17.5 -11t15 -2.5q66 0 66 215q0 309 -150 537l207 75q143 -139 210 -305.5t67 -371.5zM922 1518l-193 -390l-176 84l143 410z" />
    <glyph glyph-name="uni03D0" unicode="&#x3d0;" horiz-adv-x="1077" 
d="M1036 401q0 -87 -25 -162t-76.5 -136t-138.5 -95.5t-202 -34.5q-61 0 -122 27t-89 66q-4 -44 -14 -66h-260q14 104 14 221v692q0 549 424 549q186 0 294.5 -104t108.5 -285q0 -84 -43 -158t-116 -122q114 -47 179.5 -151.5t65.5 -240.5zM702 395q0 58 -5.5 92.5t-23.5 65
t-55.5 44t-97.5 13.5h-35l27 246h16q71 0 96 50.5t25 140.5q0 157 -108 157q-57 0 -81 -53t-24 -172v-709q48 -69 127 -69q69 0 104 50.5t35 143.5z" />
    <glyph glyph-name="theta1" unicode="&#x3d1;" horiz-adv-x="1046" 
d="M180 365q0 131 -26 208l266 31q29 -103 29 -233q0 -90 24 -134t98 -44q85 0 120 83.5t38 307.5q-80 14 -146 32.5t-133 46.5t-117 67.5t-90 91t-60.5 121.5t-20.5 155q0 179 95 271.5t265 92.5q126 0 222.5 -43.5t156.5 -115t98 -175t53 -212t15 -236.5
q0 -358 -120.5 -532.5t-364.5 -174.5q-177 0 -289.5 107.5t-112.5 284.5zM569 1194q-50 0 -77 -37.5t-27 -99.5q0 -99 59 -153t199 -83q-20 373 -154 373z" />
    <glyph glyph-name="Upsilon1" unicode="&#x3d2;" horiz-adv-x="1011" 
d="M670 0h-328v485q0 425 -362 684l165 283q126 -85 221.5 -218t139.5 -298q44 165 139 298.5t221 217.5l166 -283q-362 -259 -362 -684v-485z" />
    <glyph glyph-name="uni03D3" unicode="&#x3d3;" horiz-adv-x="1011" 
d="M670 0h-328v485q0 425 -362 684l165 283q126 -85 221.5 -218t139.5 -298q44 165 139 298.5t221 217.5l166 -283q-362 -259 -362 -684v-485zM-115 1348l-192 -390l-176 84l143 410z" />
    <glyph glyph-name="uni03D4" unicode="&#x3d4;" horiz-adv-x="1011" 
d="M670 0h-328v485q0 425 -362 684l165 283q126 -85 221.5 -218t139.5 -298q44 165 139 298.5t221 217.5l166 -283q-362 -259 -362 -684v-485zM461 1700q0 -67 -47.5 -113.5t-114.5 -46.5q-70 0 -120 46.5t-50 113.5q0 68 47.5 116t114.5 48q71 0 120.5 -47.5t49.5 -116.5z
M899 1700q0 -67 -47.5 -113.5t-114.5 -46.5q-70 0 -120 46.5t-50 113.5q0 68 47.5 116t114.5 48q71 0 120.5 -47.5t49.5 -116.5z" />
    <glyph glyph-name="phi1" unicode="&#x3d5;" horiz-adv-x="1290" 
d="M1239 524q0 -83 -11.5 -153t-42 -138.5t-79 -119.5t-126.5 -89.5t-181 -54.5v-372l-307 -64v436q-441 64 -441 555t441 555v125q0 142 -15 240l303 41q19 -114 19 -266v-140q201 -28 311 -145q129 -137 129 -410zM915 522q0 94 -22 162q-28 95 -94 137v-598q45 28 75 92
q41 80 41 207zM492 223v598q-54 -38 -86 -114q-31 -81 -31 -185q0 -124 37 -203q28 -62 80 -96z" />
    <glyph glyph-name="uni0400" unicode="&#x400;" horiz-adv-x="901" 
d="M860 0h-737v1427h733l-33 -280h-381v-268h312v-275h-312v-317h418v-287zM696 1659l-98 -164l-414 197l125 215z" />
    <glyph glyph-name="uni0401" unicode="&#x401;" horiz-adv-x="901" 
d="M860 0h-737v1427h733l-33 -280h-381v-268h312v-275h-312v-317h418v-287zM434 1700q0 -67 -47.5 -113.5t-114.5 -46.5q-70 0 -120 46.5t-50 113.5q0 68 48 116t114 48q71 0 120.5 -47.5t49.5 -116.5zM872 1700q0 -67 -47.5 -113.5t-113.5 -46.5q-70 0 -120 46.5t-50 113.5
q0 69 47.5 116.5t113.5 47.5q71 0 120.5 -47.5t49.5 -116.5z" />
    <glyph glyph-name="uni0402" unicode="&#x402;" horiz-adv-x="1206" 
d="M1157 455q0 -261 -102 -377q-86 -98 -228 -98q-83 0 -163 30l-29 10l49 224q24 -8 45 -8q72 0 92 49q15 37 15 116q0 104 -3.5 136.5t-19.5 48.5q-22 22 -72 22q-82 0 -153 -65v-543h-320v1147h-248v280h957l-41 -280h-348v-346q104 80 237 80q173 0 254 -78
q43 -41 60.5 -110t17.5 -238z" />
    <glyph glyph-name="uni0403" unicode="&#x403;" horiz-adv-x="770" 
d="M811 1427l-41 -278h-328v-1149h-319v1427h688zM735 1694l-409 -197l-105 162l383 248z" />
    <glyph glyph-name="uni0404" unicode="&#x404;" horiz-adv-x="1036" 
d="M981 1339l-143 -235q-52 37 -97 51t-100 14q-110 0 -168 -77q-52 -68 -59 -230h313v-262h-313q4 -90 17 -153.5t46 -106.5q65 -82 174 -82q122 0 223 88l142 -225q-68 -59 -146 -94q-112 -52 -229 -52q-40 0 -80 4.5t-98.5 22t-109 46.5t-104 84.5t-91.5 129.5
q-97 190 -97 479q0 343 144 531q146 180 395 180q107 0 229 -37q85 -30 152 -76z" />
    <glyph glyph-name="uni0405" unicode="&#x405;" horiz-adv-x="1103" 
d="M1042 455q0 -151 -73.5 -261.5t-194 -164.5t-272.5 -54q-264 0 -461 136l135 256q156 -117 324 -117q86 0 136 40t50 111q0 57 -43.5 89.5t-132.5 66.5l-23 8q-141 53 -199 90q-149 94 -171 273q-4 34 -4 71q0 202 133.5 327.5t339.5 125.5q124 0 238 -34t198 -93
l-145 -235q-157 94 -263 94q-67 0 -110 -31t-43 -90q0 -30 12.5 -55t28.5 -40.5t49.5 -32t56 -25t68.5 -23.5l31 -10q40 -14 69.5 -25.5t66.5 -31.5t63.5 -41.5t53.5 -53.5t44 -69.5t27.5 -89t10.5 -111.5z" />
    <glyph glyph-name="uni0406" unicode="&#x406;" horiz-adv-x="567" 
d="M444 0h-321v1427h321v-1427z" />
    <glyph glyph-name="uni0407" unicode="&#x407;" horiz-adv-x="567" 
d="M444 0h-321v1427h321v-1427zM229 1700q0 -67 -47.5 -113.5t-113.5 -46.5q-70 0 -120 46.5t-50 113.5q0 69 47.5 116.5t113.5 47.5q71 0 120.5 -47.5t49.5 -116.5zM668 1700q0 -67 -47.5 -113.5t-114.5 -46.5q-70 0 -120 46.5t-50 113.5q0 68 48 116t114 48
q71 0 120.5 -47.5t49.5 -116.5z" />
    <glyph glyph-name="uni0408" unicode="&#x408;" horiz-adv-x="567" 
d="M444 1427v-1179q0 -141 -1 -175.5t-7 -70.5q-23 -143 -112 -242t-213 -149l-152 174q60 45 92 82.5t49 83.5q16 44 20.5 108t4.5 187v1181h319z" />
    <glyph glyph-name="uni0409" unicode="&#x409;" horiz-adv-x="1683" 
d="M1663 436q-3 -192 -104 -299q-131 -137 -420 -137h-383v1147h-191l-10 -178q-1 -18 -8 -158.5t-14 -241t-15 -168.5q-6 -59 -13.5 -100t-28.5 -96t-54 -92q-34 -40 -83.5 -66.5t-84 -35.5t-82.5 -17l-92 -17l-72 244l51 17q47 15 86 43q43 34 64 96q24 69 39 231
q24 265 28 559l5 260h794v-524h82q288 0 414 -164q92 -122 92 -303zM1145 614h-70v-327h90q78 0 115 43q35 44 35 106q0 95 -47 139q-39 39 -123 39z" />
    <glyph glyph-name="uni040A" unicode="&#x40a;" horiz-adv-x="1626" 
d="M1606 436q-3 -191 -105 -299q-131 -137 -420 -137h-383v614h-256v-614h-319v1427h319v-524h256v524h320v-524h82q287 0 413 -164q93 -123 93 -303zM1087 614h-69v-327h90q78 0 115 43q34 42 34 106q0 95 -47 139q-39 39 -123 39z" />
    <glyph glyph-name="uni040B" unicode="&#x40b;" horiz-adv-x="1243" 
d="M836 0v401q0 104 -3.5 136.5t-19.5 48.5q-22 22 -72 22q-82 0 -153 -65v-543h-320v1147h-248v280h957l-41 -280h-348v-346q104 80 237 80q173 0 254 -78q43 -41 60.5 -110t17.5 -238v-455h-321z" />
    <glyph glyph-name="uni040C" unicode="&#x40c;" horiz-adv-x="1187" 
d="M1049 1448l79 -221l-79 -27q-45 -15 -54 -24q-19 -19 -34 -84l-35 -127q-31 -114 -60 -146q-43 -46 -98 -59v-4q60 -22 104 -84q31 -43 54 -121l61 -205q20 -73 47 -94q30 -23 68 -33l65 -16l-71 -230l-101 9q-53 4 -88.5 10t-82 29t-74.5 61q-40 52 -64 180l-33 172
q-17 93 -51 127q-38 43 -108 43h-52v-604h-319v1427h319v-528h70q77 0 113 45q27 31 45 115l28 147q22 111 80 164q58 52 183 68zM905 1694l-409 -197l-105 162l383 248z" />
    <glyph glyph-name="uni040D" unicode="&#x40d;" horiz-adv-x="1204" 
d="M1081 0h-319v592q0 135 10 268q-28 -87 -84 -244l-227 -616h-338v1427h319v-591q0 -136 -10 -269q54 163 84 244l227 616h338v-1427zM889 1659l-98 -164l-414 197l125 215z" />
    <glyph glyph-name="uni040E" unicode="&#x40e;" horiz-adv-x="1060" 
d="M1053 1427l-332 -1030q-62 -192 -91 -263t-65 -114q-69 -86 -209 -110l-96 -19l-117 230l86 20q29 6 63.5 27t59.5 49q36 46 72 143l8 23l-94 -10q-20 99 -76 270l-254 784h338l150 -553q34 -133 41 -217h6q31 219 63 328l123 442h324zM705 1849l165 -71
q-24 -123 -112 -191q-89 -69 -234 -69q-143 0 -231 69q-89 69 -113 191l166 71q30 -59 76 -84q45 -22 102 -22q60 0 105 22q46 25 76 84z" />
    <glyph glyph-name="uni040F" unicode="&#x40f;" horiz-adv-x="1130" 
d="M1008 0h-283v-344h-319v344h-283v1427h319v-1140h246v1140h320v-1427z" />
    <glyph glyph-name="uni0410" unicode="&#x410;" horiz-adv-x="1085" 
d="M1106 0h-344l-68 285h-307l-70 -285h-337l401 1427h348zM637 535l-66 327q-21 103 -24 201h-4q-3 -79 -27 -201l-65 -327h186z" />
    <glyph glyph-name="uni0411" unicode="&#x411;" horiz-adv-x="1050" 
d="M1030 436q-3 -192 -104 -299q-131 -137 -420 -137h-383v1427h799l-41 -280h-439v-244h82q288 0 414 -164q92 -122 92 -303zM512 614h-70v-327h90q78 0 115 43q35 44 35 106q0 95 -47 139q-39 39 -123 39z" />
    <glyph glyph-name="uni0412" unicode="&#x412;" horiz-adv-x="1107" 
d="M1047 440q0 -221 -129 -338q-111 -102 -302 -102h-493v1427h510q196 0 293 -108q78 -88 78 -242q0 -105 -49 -192t-146 -123q96 -29 160 -105q78 -91 78 -217zM682 444q0 101 -57 140q-30 20 -76 20h-107v-317h111q64 0 96.5 43.5t32.5 113.5zM676 1012q0 48 -21 82
q-32 53 -102 53h-111v-270h115q79 0 105 61q14 28 14 74z" />
    <glyph glyph-name="uni0413" unicode="&#x413;" horiz-adv-x="770" 
d="M811 1427l-41 -278h-328v-1149h-319v1427h688z" />
    <glyph glyph-name="uni0414" unicode="&#x414;" horiz-adv-x="1269" 
d="M8 287h142q90 264 129 596q23 202 26 321l8 223h809v-1140h140v-631h-320v344h-614v-344h-320v631zM453 287h350v860h-207l-6 -154q-6 -126 -29 -282q-31 -238 -108 -424z" />
    <glyph glyph-name="uni0415" unicode="&#x415;" horiz-adv-x="901" 
d="M860 0h-737v1427h733l-33 -280h-381v-268h312v-275h-312v-317h418v-287z" />
    <glyph glyph-name="uni0416" unicode="&#x416;" horiz-adv-x="1810" 
d="M1671 1448l80 -221l-80 -27q-44 -14 -53 -24q-20 -20 -35 -84l-35 -127q-31 -115 -59 -146q-43 -46 -98 -59v-4q60 -22 104 -84q29 -40 53 -121l62 -205q20 -73 47 -94q30 -23 67 -33l66 -16l-72 -230l-100 9q-53 4 -89 10t-82.5 29t-74.5 61q-39 50 -63 180l-33 172
q-17 93 -51 127q-38 43 -109 43h-51v-604h-320v604h-51q-70 0 -108 -43q-34 -34 -51 -127l-33 -172q-24 -128 -64 -180q-41 -55 -102 -74.5t-143 -25.5l-101 -9l-72 230l66 16q38 10 68 33q27 21 47 94l61 205q24 81 53 121q44 61 105 84v4q-55 13 -98 59q-29 32 -60 146
l-35 127q-15 65 -34 84q-9 9 -54 24l-80 27l80 221l88 -10q125 -16 183 -68q56 -51 79 -164l29 -147q18 -84 45 -115q36 -45 113 -45h69v528h320v-528h70q76 0 112 45q27 31 45 115l29 147q22 111 80 164q58 52 182 68z" />
    <glyph glyph-name="uni0417" unicode="&#x417;" horiz-adv-x="997" 
d="M295 608v256h80q100 0 143 41q37 32 37 113q0 70 -31 106q-37 43 -118 43q-125 0 -213 -63l-144 233q70 47 131 68q132 47 283 47q285 0 383 -178q47 -85 47 -205q0 -107 -45 -182q-53 -83 -143 -119q104 -27 174 -121q61 -88 61 -221q0 -204 -119 -320
q-133 -133 -391 -133q-149 0 -268 52q-84 36 -154 94l144 227q38 -28 104 -57q47 -21 135 -21q96 0 141 45q43 41 43 121q0 95 -40 135q-41 39 -150 39h-90z" />
    <glyph glyph-name="uni0418" unicode="&#x418;" horiz-adv-x="1204" 
d="M1081 0h-319v592q0 135 10 268q-28 -87 -84 -244l-227 -616h-338v1427h319v-591q0 -136 -10 -269q54 163 84 244l227 616h338v-1427z" />
    <glyph glyph-name="uni0419" unicode="&#x419;" horiz-adv-x="1204" 
d="M1081 0h-319v592q0 135 10 268q-28 -87 -84 -244l-227 -616h-338v1427h319v-591q0 -136 -10 -269q54 163 84 244l227 616h338v-1427zM782 1849l166 -71q-24 -123 -112 -191q-89 -69 -234 -69q-143 0 -231 69q-89 69 -113 191l166 71q30 -59 76 -84q45 -22 102 -22
q60 0 105 22q44 24 75 84z" />
    <glyph glyph-name="uni041A" unicode="&#x41a;" horiz-adv-x="1187" 
d="M1049 1448l79 -221l-79 -27q-45 -15 -54 -24q-19 -19 -34 -84l-35 -127q-31 -114 -60 -146q-43 -46 -98 -59v-4q60 -22 104 -84q31 -43 54 -121l61 -205q20 -73 47 -94q30 -23 68 -33l65 -16l-71 -230l-101 9q-53 4 -88.5 10t-82 29t-74.5 61q-40 52 -64 180l-33 172
q-17 93 -51 127q-38 43 -108 43h-52v-604h-319v1427h319v-528h70q77 0 113 45q27 31 45 115l28 147q22 111 80 164q58 52 183 68z" />
    <glyph glyph-name="uni041B" unicode="&#x41b;" horiz-adv-x="1196" 
d="M1073 1427v-1427h-319v1147h-189l-10 -178q-1 -18 -8 -158.5t-14 -241t-15 -168.5q-6 -59 -13.5 -100t-28.5 -96t-54 -92q-34 -40 -83.5 -66.5t-84 -35.5t-82.5 -17l-92 -17l-72 244l51 17q52 17 93 47q25 19 43 55t28 88t15 88t10 92q24 265 28 559l5 260h792z" />
    <glyph glyph-name="uni041C" unicode="&#x41c;" horiz-adv-x="1540" 
d="M1458 0h-313l-29 662q-10 225 -10 286h-2q-19 -163 -41 -268l-154 -680h-295l-131 657q-30 152 -41 287h-2q0 -205 -4 -295l-26 -649h-328l108 1427h418l123 -665q35 -199 41 -270h2q11 119 41 266l133 669h408z" />
    <glyph glyph-name="uni041D" unicode="&#x41d;" horiz-adv-x="1140" 
d="M1018 0h-320v602h-256v-602h-319v1427h319v-526h256v526h320v-1427z" />
    <glyph glyph-name="uni041E" unicode="&#x41e;" horiz-adv-x="1243" 
d="M1182 768q0 -435 -170 -633q-140 -160 -387 -160q-228 0 -371 140q-94 91 -143.5 235t-49.5 328q0 372 151 573t404 201q222 0 367 -135q101 -97 150 -244t49 -305zM825 727q0 172 -18 268.5t-57 141.5q-43 51 -132 51q-72 0 -114 -58q-84 -117 -84 -407q0 -291 61 -395
q47 -82 144 -82q105 0 149 94q51 108 51 387z" />
    <glyph glyph-name="uni041F" unicode="&#x41f;" horiz-adv-x="1130" 
d="M1008 0h-320v1147h-246v-1147h-319v1427h885v-1427z" />
    <glyph glyph-name="uni0420" unicode="&#x420;" horiz-adv-x="1050" 
d="M1030 983q0 -188 -92 -309q-128 -166 -414 -166h-82v-508h-319v1427h383q289 0 420 -137q104 -110 104 -307zM682 987q0 78 -35 119q-37 43 -115 43h-90v-365h70q84 0 123 39q47 47 47 164z" />
    <glyph glyph-name="uni0421" unicode="&#x421;" horiz-adv-x="1021" 
d="M1001 121q-139 -146 -389 -146q-254 0 -401 189q-150 192 -150 522q0 118 18 224.5t61.5 207.5t109.5 173.5t169 116.5t232 44q97 0 188.5 -29t131.5 -75l-140 -250q-80 71 -190 71q-117 0 -170 -94.5t-53 -292.5q0 -396 92 -473q60 -51 131 -51q134 0 223 92z" />
    <glyph glyph-name="uni0422" unicode="&#x422;" horiz-adv-x="919" 
d="M961 1427l-41 -278h-287v-1149h-324v1149h-289v278h941z" />
    <glyph glyph-name="uni0423" unicode="&#x423;" horiz-adv-x="1060" 
d="M1053 1427l-332 -1030q-62 -192 -91 -263t-65 -114q-69 -86 -209 -110l-96 -19l-117 230l86 20q29 6 63.5 27t59.5 49q36 46 72 143l8 23l-94 -10q-20 99 -76 270l-254 784h338l150 -553q34 -133 41 -217h6q31 219 63 328l123 442h324z" />
    <glyph glyph-name="uni0424" unicode="&#x424;" horiz-adv-x="1570" 
d="M942 225v-225h-313v225h-47q-129 0 -232 43.5t-166 114.5q-133 150 -133 379q0 98 33.5 202t99.5 179q63 71 166 114t232 43h47v205h313v-205h47q129 0 231.5 -43t165.5 -114q66 -75 100 -179.5t34 -201.5q0 -228 -134 -379q-64 -72 -166 -115t-231 -43h-47zM629 1028
h-39q-96 0 -137 -39q-56 -54 -56 -221q0 -47 2 -78.5t15.5 -77.5t38.5 -71q45 -43 141 -43h35v530zM981 1028h-39v-530h35q96 0 141 43q25 25 38.5 71t15.5 77.5t2 78.5q0 167 -56 221q-41 39 -137 39z" />
    <glyph glyph-name="uni0425" unicode="&#x425;" horiz-adv-x="1052" 
d="M1083 0h-387l-157 401l-164 -401h-406l387 741l-348 686h395l134 -346l129 346h385l-336 -663z" />
    <glyph glyph-name="uni0426" unicode="&#x426;" horiz-adv-x="1175" 
d="M688 1427h320v-1140h159v-631h-319v344h-725v1427h319v-1140h246v1140z" />
    <glyph glyph-name="uni0427" unicode="&#x427;" horiz-adv-x="1062" 
d="M940 0h-319v541q-94 -41 -203 -41q-75 0 -143.5 21.5t-106.5 62.5q-90 92 -90 295v548h319v-458q0 -105 23 -148q28 -43 88 -43q42 0 113 23v626h319v-1427z" />
    <glyph glyph-name="uni0428" unicode="&#x428;" horiz-adv-x="1617" 
d="M1495 1427v-1427h-1372v1427h319v-1140h207v1140h320v-1140h207v1140h319z" />
    <glyph glyph-name="uni0429" unicode="&#x429;" horiz-adv-x="1662" 
d="M1495 1427v-1140h160v-631h-320v344h-1212v1427h319v-1140h207v1140h320v-1140h207v1140h319z" />
    <glyph glyph-name="uni042A" unicode="&#x42a;" horiz-adv-x="1236" 
d="M1217 436q-3 -191 -105 -299q-131 -137 -420 -137h-383v1149h-309v278h629v-524h82q287 0 413 -164q93 -123 93 -303zM698 614h-69v-327h90q78 0 115 43q34 42 34 106q0 95 -47 139q-39 39 -123 39z" />
    <glyph glyph-name="uni042B" unicode="&#x42b;" horiz-adv-x="1613" 
d="M1030 436q-3 -192 -104 -299q-131 -137 -420 -137h-383v1427h319v-524h82q288 0 414 -164q92 -122 92 -303zM512 614h-70v-327h90q78 0 115 43q35 44 35 106q0 95 -47 139q-39 39 -123 39zM1491 0h-322v1427h322v-1427z" />
    <glyph glyph-name="uni042C" unicode="&#x42c;" horiz-adv-x="1050" 
d="M1030 436q-3 -192 -104 -299q-131 -137 -420 -137h-383v1427h319v-524h82q288 0 414 -164q92 -122 92 -303zM512 614h-70v-327h90q78 0 115 43q35 44 35 106q0 95 -47 139q-39 39 -123 39z" />
    <glyph glyph-name="uni042D" unicode="&#x42d;" horiz-adv-x="1036" 
d="M199 1104l-144 235q67 46 152 76q122 37 229 37q249 0 395 -180q144 -188 144 -531q0 -291 -96 -479q-38 -74 -91.5 -129.5t-104.5 -84.5t-109.5 -46.5t-98.5 -22t-80 -4.5q-117 0 -229 52q-78 35 -146 94l142 225q101 -88 223 -88q109 0 174 82q57 73 64 260h-314v262
h314q-7 161 -60 230q-58 77 -168 77q-55 0 -99.5 -14t-96.5 -51z" />
    <glyph glyph-name="uni042E" unicode="&#x42e;" horiz-adv-x="1714" 
d="M1128 1452q175 0 299 -109q108 -94 167 -262.5t59 -402.5q0 -391 -191 -576q-130 -127 -334 -127q-183 0 -307 103q-197 162 -215 524h-162v-602h-321v1427h321v-526h177q46 305 213 447q122 104 294 104zM1128 1186q-76 0 -118 -105q-47 -117 -47 -360q0 -309 59 -412
q36 -65 106 -65q73 0 113 75q53 106 53 402q0 243 -47 360q-43 105 -119 105z" />
    <glyph glyph-name="uni042F" unicode="&#x42f;" horiz-adv-x="1181" 
d="M1059 0h-320v549h-61q-70 0 -109 -39q-35 -35 -53 -127l-20 -121q-19 -118 -64 -180q-22 -29 -50.5 -48.5t-66 -29.5t-62 -14t-67.5 -8l-75 -9l-74 232l53 12q45 10 68 33q22 22 43 96l37 133q22 87 51 127q43 62 110 78v6q-47 9 -93.5 36t-78.5 65q-75 82 -75 231
q0 204 124 313q66 57 151 74.5t187 17.5h445v-1427zM739 1141h-88q-64 0 -106 -29q-43 -34 -43 -121q0 -93 49 -129q34 -26 98 -26h90v305z" />
    <glyph glyph-name="uni0430" unicode="&#x430;" horiz-adv-x="946" 
d="M893 156l-180 -199q-31 12 -66.5 45t-48.5 59q-88 -88 -231 -88q-83 0 -145.5 27t-99 75t-54 108.5t-17.5 133.5q0 153 110.5 249t299.5 96q5 0 17.5 -1t22.5 -1.5t11 -0.5v80q0 49 -10 72q-17 31 -66 31q-133 0 -264 -111l-111 207q208 145 416 145q132 0 221 -50
t113 -142q14 -55 14 -164l-4 -365q0 -76 14.5 -125t57.5 -81zM512 258v178h-14q-144 0 -144 -112q0 -46 22.5 -73.5t61.5 -27.5q21 0 43.5 11t30.5 24z" />
    <glyph glyph-name="uni0431" unicode="&#x431;" horiz-adv-x="989" 
d="M827 1563l115 -267q-50 -44 -213 -106q-34 -13 -143.5 -48t-143.5 -52q-77 -40 -108 -117q-23 -57 -23 -117h6q28 55 89 100q81 56 174 56q145 0 241 -103q42 -44 68 -94t36.5 -106.5t13.5 -95.5t3 -97q0 -271 -115 -407q-52 -63 -133 -98.5t-180 -35.5
q-116 0 -199.5 46.5t-132.5 113.5q-36 49 -60 109.5t-34 125.5t-13 113.5t-3 108.5q0 332 61 491q28 76 70.5 135t95.5 98t96 62t97 43l114 43q88 32 126.5 49t94.5 50zM604 502q0 182 -33 227q-25 33 -65 33q-28 0 -55 -27q-25 -25 -33 -78t-8 -159q0 -148 14 -199
q10 -42 30.5 -59t53.5 -17q54 0 76 68q20 64 20 211z" />
    <glyph glyph-name="uni0432" unicode="&#x432;" horiz-adv-x="991" 
d="M123 1057h487q128 0 203 -64q78 -70 78 -202q0 -101 -41 -162q-37 -55 -94 -70q70 -12 114 -67q60 -69 60 -191q0 -154 -88 -231q-82 -70 -221 -70h-498v1057zM426 451v-246h94q21 0 42.5 10.5t31.5 28.5q20 29 20 88q0 55 -20 84q-27 35 -74 35h-94zM426 852v-205h76
q47 0 65 25q21 26 21 80q0 49 -19 73q-18 27 -71 27h-72z" />
    <glyph glyph-name="uni0433" unicode="&#x433;" horiz-adv-x="782" 
d="M434 0h-311v1057h653l-41 -266h-301v-791z" />
    <glyph glyph-name="uni0434" unicode="&#x434;" horiz-adv-x="1095" 
d="M2 244h141q65 133 89 282.5t30 403.5l4 127h680v-813h148v-539h-291v295h-510v-295h-291v539zM422 244h233v559h-141l-2 -53q-5 -180 -29 -318q-20 -100 -61 -188z" />
    <glyph glyph-name="uni0435" unicode="&#x435;" horiz-adv-x="940" 
d="M899 438h-516q0 -112 47 -170q37 -47 100 -47q116 0 238 107l127 -203q-91 -80 -181.5 -116t-195.5 -36q-221 0 -339 143t-118 406q0 293 134 443q106 118 286 118q186 0 285 -102q133 -136 133 -477v-66zM590 659q0 106 -23 156q-21 47 -73 47q-58 0 -83.5 -43.5
t-25.5 -159.5h205z" />
    <glyph glyph-name="uni0436" unicode="&#x436;" horiz-adv-x="1486" 
d="M578 1040l313 33v-403h33q34 0 55.5 8t32.5 27t15 32.5t9 42.5l21 101q18 89 61 135q27 30 61.5 42t92.5 17l96 8l55 -223l-55 -12q-24 -5 -39 -17q-20 -15 -31 -63l-24 -82q-9 -30 -16.5 -48.5t-32.5 -42.5t-62 -30v-6q27 -10 47 -24.5t33 -35.5t19.5 -37t15.5 -42
l39 -115q17 -56 37 -74q17 -14 49 -20l61 -10l-55 -228l-96 7q-68 3 -115 18.5t-80 52.5q-38 49 -57 142l-31 143q-4 21 -8.5 34t-14.5 32.5t-29 29.5t-46 10h-41v-442h-313v442h-41q-27 0 -46 -10t-29.5 -29.5t-15 -32.5t-8.5 -34l-30 -143q-18 -91 -58 -142
q-33 -37 -79.5 -52.5t-114.5 -18.5l-97 -7l-55 228l62 10q32 6 49 20q20 18 37 74l38 115q9 26 15.5 42t19.5 37t33 35.5t47 24.5v6q-28 5 -48.5 18t-32.5 34t-17 33.5t-12 35.5l-25 82q-11 48 -31 63q-15 12 -39 17l-55 12l55 223l97 -8q58 -5 92 -17t61 -42
q44 -47 62 -135l20 -101q5 -28 9 -42t15.5 -33t33 -27t55.5 -8h33v370z" />
    <glyph glyph-name="uni0437" unicode="&#x437;" horiz-adv-x="851" 
d="M283 649l61 2q69 0 96 29q23 27 23 68q0 37 -23 63q-21 25 -73 25q-53 0 -103 -27q-28 -16 -57 -47l-156 192q50 50 129 86q100 43 228 43q175 0 266 -73q100 -81 100 -232q0 -76 -33 -133q-40 -68 -108 -90q75 -18 121 -78q47 -61 47 -166q0 -146 -96 -237
q-108 -101 -304 -101q-128 0 -219 43q-89 42 -153 113l145 190q31 -39 68 -63q53 -31 114 -31q50 0 82 23q35 24 35 80q0 58 -35 88q-39 33 -94 33h-61v200z" />
    <glyph glyph-name="uni0438" unicode="&#x438;" horiz-adv-x="1107" 
d="M985 0h-313v328q0 92 8 260h-4q-20 -62 -66 -174l-174 -414h-313v1040l313 33v-371q0 -92 -8 -260h4q34 96 92 236l148 362l313 33v-1073z" />
    <glyph glyph-name="uni0439" unicode="&#x439;" horiz-adv-x="1107" 
d="M985 0h-313v328q0 92 8 260h-4q-20 -62 -66 -174l-174 -414h-313v1040l313 33v-371q0 -92 -8 -260h4q34 96 92 236l148 362l313 33v-1073zM750 1491l165 -72q-24 -121 -112 -190q-91 -70 -234 -70q-142 0 -231 70t-113 190l166 72q30 -59 76 -84q47 -23 102 -23
q58 0 105 23q46 25 76 84z" />
    <glyph glyph-name="uni043A" unicode="&#x43a;" horiz-adv-x="1032" 
d="M123 1040l313 33v-403h33q34 0 55.5 8t33 27t15.5 33t9 42l20 101q18 88 62 135q27 30 61 42t92 17l96 8l56 -223l-56 -12q-24 -5 -39 -17q-19 -14 -30 -63l-25 -82q-7 -23 -12 -35.5t-17 -33.5t-32.5 -34t-48.5 -18v-6q27 -10 46.5 -24.5t32.5 -35.5t19.5 -36.5
t15.5 -42.5l39 -115q17 -56 37 -74q17 -14 49 -20l62 -10l-56 -228l-96 7q-68 3 -114.5 18.5t-79.5 52.5q-40 51 -58 142l-31 143q-4 21 -8.5 34t-14.5 32.5t-29 29.5t-46 10h-41v-442h-313v1040z" />
    <glyph glyph-name="uni043B" unicode="&#x43b;" horiz-adv-x="1062" 
d="M627 803h-148q-4 -150 -6.5 -220t-10 -164t-20.5 -167q-10 -63 -30 -107.5t-62 -81.5q-63 -58 -190 -73l-111 -13l-61 224l73 24q51 18 78 54q23 34 35 112q13 81 25 260q7 109 18 406h723v-1057h-313v803z" />
    <glyph glyph-name="uni043C" unicode="&#x43c;" horiz-adv-x="1249" 
d="M1182 0h-279l-18 492l-6 126v9q-4 -32 -9 -55.5t-11 -43.5t-7 -24l-125 -504h-229l-109 489l-24 115v-14q0 -50 -3 -105l-16 -485h-278l100 1057h328l102 -482q8 -31 27 -155q8 58 30 172l109 465h323z" />
    <glyph glyph-name="uni043D" unicode="&#x43d;" horiz-adv-x="1044" 
d="M436 0h-313v1040l313 33v-395h172v362l314 33v-1073h-314v412h-172v-412z" />
    <glyph glyph-name="uni043E" unicode="&#x43e;" horiz-adv-x="968" 
d="M918 555q0 -243 -99 -397q-60 -93 -150 -139t-190 -46q-226 0 -340 183q-88 142 -88 368q0 260 119 410q118 149 319 149q225 0 336 -163q93 -137 93 -365zM582 565q0 197 -37 248q-20 29 -62 29t-63 -43q-33 -65 -33 -281q0 -136 10 -202t43 -89q18 -12 45 -12
q30 0 50 23q47 55 47 327z" />
    <glyph glyph-name="uni043F" unicode="&#x43f;" horiz-adv-x="1032" 
d="M123 0v1057h786v-1057h-313v803h-160v-803h-313z" />
    <glyph glyph-name="uni0440" unicode="&#x440;" horiz-adv-x="1017" 
d="M956 584q0 -609 -391 -609q-70 0 -145 35q16 -46 16 -162v-251l-313 -64v1196q0 164 -29 295l285 57q16 -53 20 -92q16 35 75.5 65.5t123.5 30.5q159 0 248 -96q110 -121 110 -405zM625 551q0 199 -39 250q-20 26 -58 26q-63 0 -92 -53v-512q2 -12 17.5 -20.5t38.5 -8.5
q51 0 79 33q54 64 54 285z" />
    <glyph glyph-name="uni0441" unicode="&#x441;" horiz-adv-x="821" 
d="M811 123q-130 -150 -332 -150q-172 0 -280 111q-138 141 -138 434q0 284 134 434q116 131 309 131q84 0 147.5 -29t134.5 -96l-143 -198q-27 33 -62.5 54.5t-66.5 21.5q-39 0 -61 -25q-52 -55 -52 -270q0 -170 23 -242t88 -72q96 0 166 90z" />
    <glyph glyph-name="uni0442" unicode="&#x442;" horiz-adv-x="796" 
d="M238 0v803h-218v254h783l-41 -254h-213v-803h-311z" />
    <glyph glyph-name="uni0443" unicode="&#x443;" horiz-adv-x="940" 
d="M971 1057l-348 -1059q-28 -86 -50.5 -143.5t-52 -114t-62.5 -92t-77.5 -65t-101 -45.5t-129.5 -23l-111 229q142 37 200.5 84.5t112.5 171.5h-94q-20 126 -65 272l-224 775l322 26l135 -559q38 -170 43 -217h2q24 185 64 328l122 432h314z" />
    <glyph glyph-name="uni0444" unicode="&#x444;" horiz-adv-x="1388" 
d="M850 1505v-473q60 51 151 51q158 0 240 -139q27 -48 45.5 -113t25.5 -129.5t9 -103.5t2 -72q0 -271 -90 -407q-95 -146 -272 -146q-63 0 -111 31v-407l-311 -64v471q-48 -31 -113 -31q-175 0 -270 146q-90 136 -90 407q0 276 81 418q82 139 240 139q93 0 152 -51v420z
M551 283v495q-45 31 -74 31q-35 0 -59 -27q-39 -46 -39 -243q0 -206 49 -258q27 -27 68 -27q32 0 55 29zM838 778v-495q23 -29 55 -29q69 0 94 74q23 65 23 219q0 189 -39 235q-24 27 -60 27q-28 0 -73 -31z" />
    <glyph glyph-name="uni0445" unicode="&#x445;" horiz-adv-x="944" 
d="M975 0h-381l-68 164q-36 86 -47 135h-4q-19 -81 -72 -188l-55 -111h-379l318 551l-264 469l319 74l70 -140q49 -96 67 -180h2q16 123 49 193l43 90h365l-279 -496z" />
    <glyph glyph-name="uni0446" unicode="&#x446;" horiz-adv-x="1052" 
d="M123 1040l313 33v-829h156v796l313 33v-829h146v-539h-291v295h-637v1040z" />
    <glyph glyph-name="uni0447" unicode="&#x447;" horiz-adv-x="948" 
d="M49 1040l313 33v-391q0 -53 21 -74q16 -16 53 -16q36 0 76 16v432l313 33v-1073h-313v399q-90 -34 -178 -34q-148 0 -215 77q-70 81 -70 234v364z" />
    <glyph glyph-name="uni0448" unicode="&#x448;" horiz-adv-x="1456" 
d="M123 0v1040l313 33v-829h135v796l314 33v-829h135v796l313 33v-1073h-1210z" />
    <glyph glyph-name="uni0449" unicode="&#x449;" horiz-adv-x="1480" 
d="M123 0v1040l313 33v-829h135v796l314 33v-829h135v796l313 33v-829h146v-539h-291v295h-1065z" />
    <glyph glyph-name="uni044A" unicode="&#x44a;" horiz-adv-x="1124" 
d="M596 678h70q99 0 175.5 -16t139.5 -53t97 -104.5t34 -164.5t-34 -165t-97 -105t-139 -53.5t-174 -16.5h-383v803h-236v254h547v-379zM596 225h18q51 0 81 3.5t56.5 15t38 35t11.5 61.5q0 37 -12 60.5t-38.5 34.5t-56.5 14.5t-80 3.5h-18v-228z" />
    <glyph glyph-name="uni044B" unicode="&#x44b;" horiz-adv-x="1474" 
d="M434 678h70q99 0 175.5 -16t139.5 -53t97 -104.5t34 -164.5t-34 -165t-97 -105t-139 -53.5t-174 -16.5h-383v1042l311 31v-395zM434 225h19q41 0 66.5 2t50.5 8.5t38.5 19t22 33.5t8.5 52q0 71 -43.5 92t-142.5 21h-19v-228zM1376 0h-313v1040l313 33v-1073z" />
    <glyph glyph-name="uni044C" unicode="&#x44c;" horiz-adv-x="962" 
d="M434 678h70q99 0 175.5 -16t139.5 -53t97 -104.5t34 -164.5t-34 -165t-97 -105t-139 -53.5t-174 -16.5h-383v1042l311 31v-395zM434 225h19q41 0 66.5 2t50.5 8.5t38.5 19t22 33.5t8.5 52q0 71 -43.5 92t-142.5 21h-19v-228z" />
    <glyph glyph-name="uni044D" unicode="&#x44d;" horiz-adv-x="831" 
d="M250 436v226h186v26q0 105 -37 135q-21 21 -61 21q-50 0 -100 -27q-31 -19 -52 -43l-151 184q46 49 115 82q91 43 204 43q197 0 305 -145q111 -150 111 -420q0 -262 -102 -401q-106 -144 -312 -144q-118 0 -204 43q-83 39 -142 109l137 180q36 -46 76 -67q47 -25 101 -25
q35 0 67 23q22 16 33.5 52t11.5 122v26h-186z" />
    <glyph glyph-name="uni044E" unicode="&#x44e;" horiz-adv-x="1433" 
d="M1389 555q0 -159 -36.5 -268t-109.5 -187q-116 -127 -287 -127q-113 0 -191 43t-122 109q-38 58 -62.5 145t-27.5 172h-117v-442h-313v1040l313 33v-399h129q12 74 41.5 150.5t73.5 129.5q46 57 122.5 93t172.5 36q190 0 297 -129q117 -136 117 -399zM1065 498
q0 157 -6.5 218t-32.5 93q-22 27 -51 27t-51 -27q-26 -32 -32.5 -93t-6.5 -218q0 -182 24 -230q12 -25 26 -35t40 -10t39.5 10t25.5 35q25 50 25 230z" />
    <glyph glyph-name="uni044F" unicode="&#x44f;" horiz-adv-x="1044" 
d="M924 1057v-1057h-312v387h-51q-22 0 -37.5 -8.5t-25 -25.5t-14 -31t-9.5 -35l-22 -94q-23 -98 -60 -142q-33 -37 -79 -52.5t-111 -18.5l-99 -7l-53 236l43 6q38 6 60 23q26 18 39 67l18 70q26 93 108 123v8q-63 15 -108 63q-59 63 -59 189q0 166 106 243q73 56 184 56
h482zM621 596v256h-43q-45 0 -74 -21q-39 -31 -39 -108q0 -74 33 -105q24 -22 82 -22h41z" />
    <glyph glyph-name="uni0450" unicode="&#x450;" horiz-adv-x="940" 
d="M899 438h-516q0 -112 47 -170q37 -47 100 -47q116 0 238 107l127 -203q-91 -80 -181.5 -116t-195.5 -36q-221 0 -339 143t-118 406q0 293 134 443q106 118 286 118q186 0 285 -102q133 -136 133 -477v-66zM590 659q0 106 -23 156q-21 47 -73 47q-58 0 -83.5 -43.5
t-25.5 -159.5h205zM696 1290l-98 -164l-414 197l125 215z" />
    <glyph glyph-name="uni0451" unicode="&#x451;" horiz-adv-x="940" 
d="M899 438h-516q0 -112 47 -170q37 -47 100 -47q116 0 238 107l127 -203q-91 -80 -181.5 -116t-195.5 -36q-221 0 -339 143t-118 406q0 293 134 443q106 118 286 118q186 0 285 -102q133 -136 133 -477v-66zM590 659q0 106 -23 156q-21 47 -73 47q-58 0 -83.5 -43.5
t-25.5 -159.5h205zM420 1331q0 -67 -47.5 -113.5t-114.5 -46.5q-70 0 -120 46.5t-50 113.5q0 69 48 116.5t114 47.5q71 0 120.5 -47.5t49.5 -116.5zM858 1331q0 -67 -47.5 -113.5t-114.5 -46.5q-70 0 -120 46.5t-50 113.5q0 69 48 116.5t114 47.5q71 0 120.5 -47.5
t49.5 -116.5z" />
    <glyph glyph-name="uni0452" unicode="&#x452;" horiz-adv-x="1046" 
d="M924 29q0 -136 -19.5 -231t-85.5 -165q-33 -34 -86 -69.5t-98 -55.5l-123 185q36 33 58.5 72.5t31 86.5t10.5 76t2 78v686q0 79 -22 101q-14 14 -55 14q-42 0 -101 -62v-745h-313v1180h-98v153h96q-3 54 -12 113l309 39q11 -84 16 -152h293l-49 -153h-242v-90
q0 -55 -2 -86q32 34 96 56.5t136 22.5q103 0 168 -49q90 -69 90 -203v-802z" />
    <glyph glyph-name="uni0453" unicode="&#x453;" horiz-adv-x="782" 
d="M434 0h-311v1057h653l-41 -266h-301v-791zM723 1325l-410 -197l-104 162l383 248z" />
    <glyph glyph-name="uni0454" unicode="&#x454;" horiz-adv-x="831" 
d="M582 662v-226h-187v-26q0 -86 11.5 -122t33.5 -52q32 -23 68 -23q53 0 100 25q40 21 76 67l137 -180q-60 -71 -141 -109q-86 -43 -205 -43q-205 0 -311 144q-103 141 -103 401q0 270 111 420q108 145 305 145q114 0 205 -43q69 -33 115 -82l-152 -184q-22 25 -51 43
q-50 27 -100 27q-41 0 -62 -21q-37 -30 -37 -135v-26h187z" />
    <glyph glyph-name="uni0455" unicode="&#x455;" horiz-adv-x="882" 
d="M831 350q0 -171 -112.5 -274t-296.5 -103q-189 0 -381 127l100 234q60 -47 142.5 -85t144.5 -38q39 0 67.5 25t28.5 55q0 42 -31.5 69t-91.5 48l-18 6q-33 11 -47.5 16t-46 17t-46.5 20.5t-40.5 24.5t-38.5 30.5t-30 36t-25.5 45t-14.5 54t-6 65.5q0 163 99 261.5
t264 98.5q109 0 186 -22t158 -70l-93 -215q-115 72 -208 72q-35 0 -56.5 -17t-21.5 -43q0 -18 4.5 -32t17.5 -26t22.5 -19.5t33.5 -17.5t34.5 -14t40.5 -15l19 -7q42 -15 70 -27.5t64 -38t57.5 -55.5t36.5 -78t15 -108z" />
    <glyph glyph-name="uni0456" unicode="&#x456;" horiz-adv-x="559" 
d="M436 0h-313v1040l313 33v-1073zM463 1335q0 -74 -55.5 -127t-131.5 -53q-74 0 -128 53.5t-54 126.5t56 127t133 54q75 0 127.5 -53.5t52.5 -127.5z" />
    <glyph glyph-name="uni0457" unicode="&#x457;" horiz-adv-x="559" 
d="M436 0h-313v1040l313 33v-1073zM225 1331q0 -67 -47.5 -113.5t-114.5 -46.5q-70 0 -119.5 46.5t-49.5 113.5q0 69 47.5 116.5t113.5 47.5q71 0 120.5 -47.5t49.5 -116.5zM664 1331q0 -67 -47.5 -113.5t-114.5 -46.5q-70 0 -120 46.5t-50 113.5q0 69 48 116.5t114 47.5
q71 0 120.5 -47.5t49.5 -116.5z" />
    <glyph glyph-name="uni0458" unicode="&#x458;" horiz-adv-x="557" 
d="M434 1073v-1038q0 -130 -18.5 -215.5t-61.5 -145.5q-61 -82 -209 -155l-125 176q57 52 80 119t23 188v1038zM457 1335q0 -74 -55.5 -127t-131.5 -53q-74 0 -128 53.5t-54 126.5q0 74 56 127.5t132 53.5q75 0 128 -53.5t53 -127.5z" />
    <glyph glyph-name="uni0459" unicode="&#x459;" horiz-adv-x="1458" 
d="M930 678h69q99 0 175.5 -16t140 -53t97.5 -104.5t34 -164.5q0 -96 -34 -164.5t-97 -105.5t-139.5 -53.5t-174.5 -16.5h-383v803h-139q-4 -150 -6.5 -220t-10 -164t-20.5 -167q-10 -63 -30 -107.5t-62 -81.5q-63 -58 -190 -73l-111 -13l-61 224l73 24q51 18 78 54
q23 34 35 112q13 81 25 260q7 109 18 406h713v-379zM930 225h18q51 0 81 3.5t56.5 15t38 35t11.5 61.5q0 37 -12 60.5t-38.5 34.5t-56.5 14.5t-80 3.5h-18v-228z" />
    <glyph glyph-name="uni045A" unicode="&#x45a;" horiz-adv-x="1447" 
d="M436 0h-313v1040l313 33v-395h172v364l314 31v-395h67q99 0 175.5 -16t140 -53t97.5 -104.5t34 -164.5q0 -96 -34 -164.5t-97 -105.5t-139.5 -53.5t-174.5 -16.5h-383v453h-172v-453zM938 453h-16v-228h16q41 0 66.5 2t50.5 8.5t38.5 19t22 33.5t8.5 52q0 71 -43.5 92
t-142.5 21z" />
    <glyph glyph-name="uni045B" unicode="&#x45b;" horiz-adv-x="1046" 
d="M924 0h-310v692q0 79 -22 101q-14 14 -55 14q-42 0 -101 -62v-745h-313v1151h-90v154h88q-3 64 -12 141l309 39q13 -84 16 -180h289l-49 -154h-238v-61q0 -55 -2 -86q32 34 96 56.5t136 22.5q103 0 168 -49q90 -69 90 -203v-831z" />
    <glyph glyph-name="uni045C" unicode="&#x45c;" horiz-adv-x="1032" 
d="M123 1040l313 33v-403h33q34 0 55.5 8t33 27t15.5 33t9 42l20 101q18 88 62 135q27 30 61 42t92 17l96 8l56 -223l-56 -12q-24 -5 -39 -17q-19 -14 -30 -63l-25 -82q-7 -23 -12 -35.5t-17 -33.5t-32.5 -34t-48.5 -18v-6q27 -10 46.5 -24.5t32.5 -35.5t19.5 -36.5
t15.5 -42.5l39 -115q17 -56 37 -74q17 -14 49 -20l62 -10l-56 -228l-96 7q-68 3 -114.5 18.5t-79.5 52.5q-40 51 -58 142l-31 143q-4 21 -8.5 34t-14.5 32.5t-29 29.5t-46 10h-41v-442h-313v1040zM838 1325l-410 -197l-104 162l383 248z" />
    <glyph glyph-name="uni045D" unicode="&#x45d;" horiz-adv-x="1107" 
d="M985 0h-313v328q0 92 8 260h-4q-20 -62 -66 -174l-174 -414h-313v1040l313 33v-371q0 -92 -8 -260h4q34 96 92 236l148 362l313 33v-1073zM827 1290l-98 -164l-414 197l125 215z" />
    <glyph glyph-name="uni045E" unicode="&#x45e;" horiz-adv-x="940" 
d="M971 1057l-348 -1059q-28 -86 -50.5 -143.5t-52 -114t-62.5 -92t-77.5 -65t-101 -45.5t-129.5 -23l-111 229q142 37 200.5 84.5t112.5 171.5h-94q-20 126 -65 272l-224 775l322 26l135 -559q38 -170 43 -217h2q24 185 64 328l122 432h314zM643 1491l166 -72
q-24 -120 -113 -190q-91 -70 -233 -70q-143 0 -232 70q-88 69 -112 190l166 72q31 -60 75 -84q47 -23 103 -23q57 0 104 23q46 25 76 84z" />
    <glyph glyph-name="uni045F" unicode="&#x45f;" horiz-adv-x="1044" 
d="M922 0h-254v-295h-291v295h-254v1040l311 33v-829h176v796l312 33v-1073z" />
    <glyph glyph-name="uni0462" unicode="&#x462;" horiz-adv-x="1050" 
d="M1030 436q-3 -192 -104 -299q-131 -137 -420 -137h-383v1104h-103v194h103v129h319v-129h211v-194h-211v-201h82q288 0 414 -164q92 -122 92 -303zM512 614h-70v-327h90q78 0 115 43q35 44 35 106q0 95 -47 139q-39 39 -123 39z" />
    <glyph glyph-name="uni0463" unicode="&#x463;" horiz-adv-x="962" 
d="M434 678h70q99 0 175.5 -16t139.5 -53t97 -104.5t34 -164.5t-34 -165t-97 -105t-139 -53.5t-174 -16.5h-383v772h-103v195h103v75l311 31v-106h199v-195h-199v-94zM434 225h19q41 0 66.5 2t50.5 8.5t38.5 19t22 33.5t8.5 52q0 71 -43.5 92t-142.5 21h-19v-228z" />
    <glyph glyph-name="uni0472" unicode="&#x472;" horiz-adv-x="1243" 
d="M1182 768q0 -435 -170 -633q-140 -160 -387 -160q-228 0 -371 140q-94 91 -143.5 235t-49.5 328q0 430 203 633q138 141 352 141q222 0 367 -135q101 -97 150 -244t49 -305zM823 606h-401q9 -194 59 -278q47 -82 144 -82q105 0 149 94q40 85 49 266zM821 872
q-14 200 -71 265q-43 51 -132 51q-72 0 -114 -58q-62 -86 -78 -258h395z" />
    <glyph glyph-name="uni0473" unicode="&#x473;" horiz-adv-x="968" 
d="M918 555q0 -243 -99 -397q-60 -93 -150 -139t-190 -46q-226 0 -340 183q-88 142 -88 368q0 260 119 410q118 149 319 149q225 0 336 -163q93 -137 93 -365zM535 238q34 40 43 188h-191q6 -167 53 -199q18 -12 45 -12q30 0 50 23zM420 799q-25 -53 -31 -160h191
q-3 124 -35 174q-20 29 -62 29t-63 -43z" />
    <glyph glyph-name="uni0474" unicode="&#x474;" horiz-adv-x="1224" 
d="M1225 1219q-124 -55 -168 -109q-34 -40 -60.5 -106t-60.5 -187l-225 -817h-363l-379 1427h355l147 -735q2 -11 22.5 -107t34.5 -169h4q12 73 35.5 166.5t26.5 109.5l82 355q35 153 147 251q118 104 301 129z" />
    <glyph glyph-name="uni0475" unicode="&#x475;" horiz-adv-x="987" 
d="M991 868q-78 -35 -125.5 -94.5t-81.5 -175.5l-174 -598h-321l-320 1030l342 41l90 -407q46 -207 54 -265h4q13 109 49 263q21 86 45 147q35 92 92 149q45 44 108.5 69.5t161.5 43.5z" />
    <glyph glyph-name="uni0490" unicode="&#x490;" horiz-adv-x="811" 
d="M811 1622v-475h-369v-1147h-319v1427h401v195h287z" />
    <glyph glyph-name="uni0491" unicode="&#x491;" horiz-adv-x="813" 
d="M434 0h-311v1057h377v149l313 33v-448h-379v-791z" />
    <glyph glyph-name="uni0492" unicode="&#x492;" horiz-adv-x="829" 
d="M870 1427l-41 -278h-327v-336h198v-238h-198v-575h-320v575h-162v238h162v614h688z" />
    <glyph glyph-name="uni0493" unicode="&#x493;" horiz-adv-x="813" 
d="M465 0h-311v414h-123v233h123v410h653l-41 -266h-301v-144h174l-47 -233h-127v-414z" />
    <glyph glyph-name="uni0496" unicode="&#x496;" horiz-adv-x="1810" 
d="M1671 1448l80 -221l-80 -27q-44 -14 -53 -24q-20 -20 -35 -84l-35 -127q-31 -115 -59 -146q-43 -46 -98 -59v-4q60 -22 104 -84q29 -40 53 -121l62 -205q10 -40 20 -59h160v-631h-320v352q-61 23 -98 74q-39 50 -63 180l-33 172q-17 93 -51 127q-38 43 -109 43h-51v-604
h-320v604h-51q-70 0 -108 -43q-34 -34 -51 -127l-33 -172q-24 -128 -64 -180q-41 -55 -102 -74.5t-143 -25.5l-101 -9l-72 230l66 16q38 10 68 33q27 21 47 94l61 205q24 81 53 121q44 61 105 84v4q-55 13 -98 59q-29 32 -60 146l-35 127q-15 65 -34 84q-9 9 -54 24l-80 27
l80 221l88 -10q125 -16 183 -68q56 -51 79 -164l29 -147q18 -84 45 -115q36 -45 113 -45h69v528h320v-528h70q76 0 112 45q27 31 45 115l29 147q22 111 80 164q58 52 182 68z" />
    <glyph glyph-name="uni0497" unicode="&#x497;" horiz-adv-x="1486" 
d="M578 1040l313 33v-403h33q34 0 55.5 8t32.5 27t15 32.5t9 42.5l21 101q18 89 61 135q27 30 61.5 42t92.5 17l96 8l55 -223l-55 -12q-24 -5 -39 -17q-20 -15 -31 -63l-24 -82q-9 -30 -16.5 -48.5t-32.5 -42.5t-62 -30v-6q27 -10 47 -24.5t33 -35.5t19.5 -37t15.5 -42
l39 -115q10 -40 24 -61h123v-539h-290v303q-32 16 -56 43q-38 49 -57 142l-31 143q-4 21 -8.5 34t-14.5 32.5t-29 29.5t-46 10h-41v-442h-313v442h-41q-27 0 -46 -10t-29.5 -29.5t-15 -32.5t-8.5 -34l-30 -143q-18 -91 -58 -142q-33 -37 -79.5 -52.5t-114.5 -18.5l-97 -7
l-55 228l62 10q32 6 49 20q20 18 37 74l38 115q9 26 15.5 42t19.5 37t33 35.5t47 24.5v6q-28 5 -48.5 18t-32.5 34t-17 33.5t-12 35.5l-25 82q-11 48 -31 63q-15 12 -39 17l-55 12l55 223l97 -8q58 -5 92 -17t61 -42q44 -47 62 -135l20 -101q5 -28 9 -42t15.5 -33t33 -27
t55.5 -8h33v370z" />
    <glyph glyph-name="uni049A" unicode="&#x49a;" horiz-adv-x="1189" 
d="M1049 1448l79 -221l-79 -27q-45 -15 -54 -24q-19 -19 -34 -84l-35 -127q-31 -114 -60 -146q-43 -46 -98 -59v-4q60 -22 104 -84q31 -43 54 -121l61 -205q9 -36 21 -59h159v-631h-319v352q-61 23 -98 74q-40 52 -64 180l-33 172q-17 93 -51 127q-38 43 -108 43h-52v-604
h-319v1427h319v-528h70q77 0 113 45q27 31 45 115l28 147q22 111 80 164q58 52 183 68z" />
    <glyph glyph-name="uni049B" unicode="&#x49b;" horiz-adv-x="1030" 
d="M123 1040l313 33v-403h33q34 0 55.5 8t33 27t15.5 33t9 42l20 101q18 88 62 135q27 30 61 42t92 17l96 8l56 -223l-56 -12q-24 -5 -39 -17q-19 -14 -30 -63l-25 -82q-7 -23 -12 -35.5t-17 -33.5t-32.5 -34t-48.5 -18v-6q27 -10 46.5 -24.5t32.5 -35.5t19.5 -36.5
t15.5 -42.5l39 -115q9 -38 25 -61h123v-539h-291v303q-30 15 -55 43q-40 51 -58 142l-31 143q-4 21 -8.5 34t-14.5 32.5t-29 29.5t-46 10h-41v-442h-313v1040z" />
    <glyph glyph-name="uni049C" unicode="&#x49c;" horiz-adv-x="1263" 
d="M494 385v219h-52v-604h-319v1427h319v-528h52v223h131v-221q46 7 75 43q27 31 45 115l29 147q22 111 80 164q58 52 182 68l88 10l80 -221l-80 -27q-44 -14 -53 -24q-20 -20 -35 -84l-35 -127q-31 -115 -59 -146q-43 -46 -98 -59v-4q60 -22 104 -84q29 -40 53 -121
l62 -205q20 -73 47 -94q30 -23 68 -33l65 -16l-72 -230l-100 9q-53 4 -89 10t-82.5 29t-74.5 61q-39 50 -63 180l-33 172q-17 93 -51 127q-22 25 -53 35v-211h-131z" />
    <glyph glyph-name="uni049D" unicode="&#x49d;" horiz-adv-x="1114" 
d="M459 244v198h-23v-442h-313v1040l313 33v-403h23v166h110v-166q27 3 45 12t27.5 27t13.5 31.5t9 39.5l20 101q18 89 61 135q27 30 61.5 42t92.5 17l96 8l56 -223l-56 -12q-24 -5 -39 -17q-19 -14 -30 -63l-25 -82q-7 -23 -12 -35.5t-17 -33.5t-32.5 -34t-48.5 -18v-6
q27 -10 46.5 -24.5t32.5 -35.5t19.5 -36.5t15.5 -42.5l39 -115q17 -56 37 -74q17 -14 49 -20l62 -10l-56 -228l-96 7q-68 3 -115 18.5t-80 52.5q-38 49 -57 142l-31 143l-6 25.5t-9 25.5t-15 26.5t-23.5 18t-34.5 10.5v-198h-110z" />
    <glyph glyph-name="uni04A2" unicode="&#x4a2;" horiz-adv-x="1185" 
d="M1018 1427v-1140h160v-631h-320v344h-160v602h-256v-602h-319v1427h319v-526h256v526h320z" />
    <glyph glyph-name="uni04A3" unicode="&#x4a3;" horiz-adv-x="1069" 
d="M436 0h-313v1040l313 33v-395h172v362l314 33v-829h145v-539h-291v295h-168v412h-172v-412z" />
    <glyph glyph-name="uni04AE" unicode="&#x4ae;" horiz-adv-x="1026" 
d="M1067 1427l-397 -913v-514h-328v508l-383 919h381l121 -403q28 -90 53 -207q5 20 53 207l121 403h379z" />
    <glyph glyph-name="uni04AF" unicode="&#x4af;" horiz-adv-x="864" 
d="M895 1057l-317 -1041v-401l-308 -82v483q-9 46 -71 256l-230 779l320 22l80 -319q42 -184 57 -305h4q14 145 62 329l69 279h334z" />
    <glyph glyph-name="uni04B0" unicode="&#x4b0;" horiz-adv-x="1026" 
d="M1067 1427l-311 -712h159v-219h-245v-496h-328v496h-225v219h139l-297 712h381l121 -403q28 -90 53 -207q5 20 53 207l121 403h379z" />
    <glyph glyph-name="uni04B1" unicode="&#x4b1;" horiz-adv-x="864" 
d="M895 1057l-254 -828h156l-45 -225h-174v-377l-308 -82v459h-200v225h141l-242 822l320 22l80 -319q42 -184 57 -305h4q14 145 62 329l69 279h334z" />
    <glyph glyph-name="uni04B2" unicode="&#x4b2;" horiz-adv-x="1052" 
d="M1051 1427l-336 -663l229 -477h139v-631h-319v344h-68l-157 401l-164 -401h-406l387 741l-348 686h395l134 -346l129 346h385z" />
    <glyph glyph-name="uni04B3" unicode="&#x4b3;" horiz-adv-x="944" 
d="M938 1057l-279 -496l179 -317h137v-539h-291v295h-90l-68 164q-36 86 -47 135h-4q-19 -81 -72 -188l-55 -111h-379l318 551l-264 469l319 74l70 -140q49 -96 67 -180h2q16 123 49 193l43 90h365z" />
    <glyph glyph-name="uni04B6" unicode="&#x4b6;" horiz-adv-x="1099" 
d="M940 1427v-1140h160v-631h-320v344h-159v541q-94 -41 -203 -41q-75 0 -143.5 21.5t-106.5 62.5q-90 92 -90 295v548h319v-458q0 -105 23 -148q28 -43 88 -43q42 0 113 23v626h319z" />
    <glyph glyph-name="uni04B7" unicode="&#x4b7;" horiz-adv-x="970" 
d="M49 1040l313 33v-391q0 -53 21 -74q16 -16 53 -16q36 0 76 16v432l313 33v-829h146v-539h-291v295h-168v399q-90 -34 -178 -34q-148 0 -215 77q-70 81 -70 234v364z" />
    <glyph glyph-name="uni04B8" unicode="&#x4b8;" horiz-adv-x="1159" 
d="M1036 0h-319v541q-42 -17 -82 -25v-276h-154v260h-8q-213 0 -307 84q-30 29 -49.5 68t-27 84t-9.5 74t-2 69v548h319v-464q0 -107 23 -138q19 -25 61 -34v276h154v-281q45 6 82 19v622h319v-1427z" />
    <glyph glyph-name="uni04B9" unicode="&#x4b9;" horiz-adv-x="1048" 
d="M49 1040l311 33v-391q0 -53 31 -74q11 -8 37 -12v225h123v-225q42 3 65 12v432l310 33v-1073h-310v399q-54 -14 -65 -16v-233h-123v215h-12q-125 0 -192 17.5t-107 59.5q-68 71 -68 234v364z" />
    <glyph glyph-name="uni04BA" unicode="&#x4ba;" horiz-adv-x="1060" 
d="M123 1427h319v-540q94 41 205 41q73 0 141 -21.5t109 -62.5q90 -92 90 -295v-549h-319v465q0 99 -25 137q-25 43 -90 43q-53 0 -111 -22v-623h-319v1427z" />
    <glyph glyph-name="uni04BB" unicode="&#x4bb;" horiz-adv-x="1046" 
d="M924 0h-310v692q0 79 -22 101q-14 14 -55 14q-42 0 -101 -62v-745h-313v1206q0 149 -14 240l309 39q18 -108 18 -266v-129q0 -55 -2 -86q32 34 96 56.5t136 22.5q103 0 168 -49q90 -69 90 -203v-831z" />
    <glyph glyph-name="uni04C0" unicode="&#x4c0;" horiz-adv-x="567" 
d="M444 0h-321v1427h321v-1427z" />
    <glyph glyph-name="uni04CF" unicode="&#x4cf;" horiz-adv-x="559" 
d="M436 0h-313v1204q0 149 -14 240l309 41q18 -108 18 -266v-1219z" />
    <glyph glyph-name="uni04D8" unicode="&#x4d8;" horiz-adv-x="1173" 
d="M61 809h697v35q0 146 -62 239t-176 93q-73 0 -134 -27t-122 -90l-147 225q168 168 420 168q266 0 420.5 -199.5t154.5 -550.5q0 -176 -40.5 -315t-113.5 -228.5t-173 -136.5t-220 -47q-92 0 -166.5 25.5t-126 68t-90.5 106t-61.5 130.5t-36.5 151.5t-18.5 159t-4.5 162.5
v31zM420 557q1 -35 3.5 -62t8 -67t16.5 -69t27 -57t41.5 -43t58.5 -15q80 0 127.5 86.5t55.5 226.5h-338z" />
    <glyph glyph-name="uni04D9" unicode="&#x4d9;" horiz-adv-x="940" 
d="M41 618h516q0 112 -47 170q-38 48 -100 48q-116 0 -238 -107l-127 203q90 80 181 115.5t196 35.5q221 0 339 -142.5t118 -405.5q0 -293 -134 -443q-107 -119 -286 -119q-185 0 -285 103q-133 136 -133 477v65zM350 397q0 -105 23 -155q21 -47 73 -47q58 0 83.5 43
t25.5 159h-205z" />
    <glyph glyph-name="uni04E2" unicode="&#x4e2;" horiz-adv-x="1204" 
d="M1081 0h-319v592q0 135 10 268q-28 -87 -84 -244l-227 -616h-338v1427h319v-591q0 -136 -10 -269q54 163 84 244l227 616h338v-1427zM909 1546h-612v195h612v-195z" />
    <glyph glyph-name="uni04E3" unicode="&#x4e3;" horiz-adv-x="1107" 
d="M985 0h-313v328q0 92 8 260h-4q-20 -62 -66 -174l-174 -414h-313v1040l313 33v-371q0 -92 -8 -260h4q34 96 92 236l148 362l313 33v-1073zM874 1206h-612v195h612v-195z" />
    <glyph glyph-name="uni04E8" unicode="&#x4e8;" horiz-adv-x="1243" 
d="M1182 768q0 -435 -170 -633q-140 -160 -387 -160q-228 0 -371 140q-94 91 -143.5 235t-49.5 328q0 430 203 633q138 141 352 141q222 0 367 -135q101 -97 150 -244t49 -305zM823 606h-401q9 -194 59 -278q47 -82 144 -82q105 0 149 94q40 85 49 266zM821 872
q-14 200 -71 265q-43 51 -132 51q-72 0 -114 -58q-62 -86 -78 -258h395z" />
    <glyph glyph-name="uni04E9" unicode="&#x4e9;" horiz-adv-x="968" 
d="M918 555q0 -243 -99 -397q-60 -93 -150 -139t-190 -46q-226 0 -340 183q-88 142 -88 368q0 260 119 410q118 149 319 149q225 0 336 -163q93 -137 93 -365zM535 238q34 40 43 188h-191q6 -167 53 -199q18 -12 45 -12q30 0 50 23zM420 799q-25 -53 -31 -160h191
q-3 124 -35 174q-20 29 -62 29t-63 -43z" />
    <glyph glyph-name="uni04EE" unicode="&#x4ee;" horiz-adv-x="1060" 
d="M1053 1427l-332 -1030q-62 -192 -91 -263t-65 -114q-69 -86 -209 -110l-96 -19l-117 230l86 20q29 6 63.5 27t59.5 49q36 46 72 143l8 23l-94 -10q-20 99 -76 270l-254 784h338l150 -553q34 -133 41 -217h6q31 219 63 328l123 442h324zM836 1536h-613v195h613v-195z" />
    <glyph glyph-name="uni04EF" unicode="&#x4ef;" horiz-adv-x="940" 
d="M764 1186h-612v194h612v-194zM971 1057l-348 -1059q-28 -86 -50.5 -143.5t-52 -114t-62.5 -92t-77.5 -65t-101 -45.5t-129.5 -23l-111 229q142 37 200.5 84.5t112.5 171.5h-94q-20 126 -65 272l-224 775l322 26l135 -559q38 -170 43 -217h2q24 185 64 328l122 432h314z
" />
    <glyph glyph-name="Wgrave" unicode="&#x1e80;" horiz-adv-x="1593" 
d="M1593 1427l-295 -1427h-383l-92 682q-27 197 -30 244h-2q-2 -41 -6 -76.5t-12 -90.5t-11 -77l-98 -682h-392l-272 1427h346l96 -657q29 -192 37 -289h2q11 131 33 287l102 659h363l104 -663q23 -160 33 -287h2q6 68 20.5 172t16.5 117l88 661h350zM1090 1659l-99 -164
l-413 197l124 215z" />
    <glyph glyph-name="wgrave" unicode="&#x1e81;" horiz-adv-x="1333" 
d="M1333 1057l-248 -1057h-315l-74 395q-31 168 -34 273q-16 -147 -44 -283l-77 -385h-305l-236 1032l315 39l47 -328q5 -34 15.5 -104.5t19 -133t13.5 -116.5h2q7 118 57 377l55 291h291l74 -379q29 -152 39 -283h2q19 221 39 363l45 299h319zM952 1290l-98 -164l-414 197
l125 215z" />
    <glyph glyph-name="Wacute" unicode="&#x1e82;" horiz-adv-x="1593" 
d="M1593 1427l-295 -1427h-383l-92 682q-27 197 -30 244h-2q-2 -41 -6 -76.5t-12 -90.5t-11 -77l-98 -682h-392l-272 1427h346l96 -657q29 -192 37 -289h2q11 131 33 287l102 659h363l104 -663q23 -160 33 -287h2q6 68 20.5 172t16.5 117l88 661h350zM991 1694l-409 -197
l-105 162l383 248z" />
    <glyph glyph-name="wacute" unicode="&#x1e83;" horiz-adv-x="1333" 
d="M1333 1057l-248 -1057h-315l-74 395q-31 168 -34 273q-16 -147 -44 -283l-77 -385h-305l-236 1032l315 39l47 -328q5 -34 15.5 -104.5t19 -133t13.5 -116.5h2q7 118 57 377l55 291h291l74 -379q29 -152 39 -283h2q19 221 39 363l45 299h319zM907 1325l-409 -197l-105 162
l383 248z" />
    <glyph glyph-name="Wdieresis" unicode="&#x1e84;" horiz-adv-x="1593" 
d="M1593 1427l-295 -1427h-383l-92 682q-27 197 -30 244h-2q-2 -41 -6 -76.5t-12 -90.5t-11 -77l-98 -682h-392l-272 1427h346l96 -657q29 -192 37 -289h2q11 131 33 287l102 659h363l104 -663q23 -160 33 -287h2q6 68 20.5 172t16.5 117l88 661h350zM737 1700
q0 -67 -47.5 -113.5t-114.5 -46.5q-70 0 -119.5 46.5t-49.5 113.5q0 69 47.5 116.5t113.5 47.5q71 0 120.5 -47.5t49.5 -116.5zM1176 1700q0 -67 -47.5 -113.5t-114.5 -46.5q-70 0 -120 46.5t-50 113.5q0 68 48 116t114 48q71 0 120.5 -47.5t49.5 -116.5z" />
    <glyph glyph-name="wdieresis" unicode="&#x1e85;" horiz-adv-x="1333" 
d="M1333 1057l-248 -1057h-315l-74 395q-31 168 -34 273q-16 -147 -44 -283l-77 -385h-305l-236 1032l315 39l47 -328q5 -34 15.5 -104.5t19 -133t13.5 -116.5h2q7 118 57 377l55 291h291l74 -379q29 -152 39 -283h2q19 221 39 363l45 299h319zM604 1331q0 -67 -47.5 -113.5
t-114.5 -46.5q-70 0 -120 46.5t-50 113.5q0 69 48 116.5t114 47.5q71 0 120.5 -47.5t49.5 -116.5zM1042 1331q0 -67 -47.5 -113.5t-113.5 -46.5q-70 0 -120 46.5t-50 113.5q0 69 47.5 116.5t113.5 47.5q71 0 120.5 -47.5t49.5 -116.5z" />
    <glyph glyph-name="uni1E8A" unicode="&#x1e8a;" horiz-adv-x="1052" 
d="M1083 0h-387l-157 401l-164 -401h-406l387 741l-348 686h395l134 -346l129 346h385l-336 -663zM727 1702q0 -83 -57.5 -142t-137.5 -59q-77 0 -133.5 59t-56.5 142t57.5 142t137.5 59q78 0 134 -59t56 -142z" />
    <glyph glyph-name="uni1E8B" unicode="&#x1e8b;" horiz-adv-x="944" 
d="M975 0h-381l-68 164q-36 86 -47 135h-4q-19 -81 -72 -188l-55 -111h-379l318 551l-264 469l319 74l70 -140q49 -96 67 -180h2q16 123 49 193l43 90h365l-279 -496zM668 1335q0 -74 -55.5 -127t-131.5 -53q-74 0 -128 53.5t-54 126.5q0 74 56 127.5t132 53.5
q75 0 128 -53.5t53 -127.5z" />
    <glyph glyph-name="uni1E9E" unicode="&#x1e9e;" horiz-adv-x="2125" 
d="M1042 455q0 -151 -73.5 -261.5t-194 -164.5t-272.5 -54q-264 0 -461 136l135 256q156 -117 324 -117q86 0 136 40t50 111q0 57 -43.5 89.5t-132.5 66.5l-23 8q-141 53 -199 90q-149 94 -171 273q-4 34 -4 71q0 202 133.5 327.5t339.5 125.5q124 0 238 -34t198 -93
l-145 -235q-157 94 -263 94q-67 0 -110 -31t-43 -90q0 -30 12.5 -55t28.5 -40.5t49.5 -32t56 -25t68.5 -23.5l31 -10q40 -14 69.5 -25.5t66.5 -31.5t63.5 -41.5t53.5 -53.5t44 -69.5t27.5 -89t10.5 -111.5zM2064 455q0 -151 -73.5 -261.5t-194 -164.5t-272.5 -54
q-264 0 -461 136l135 256q156 -117 324 -117q86 0 136 40t50 111q0 57 -43.5 89.5t-132.5 66.5l-23 8q-141 53 -199 90q-149 94 -171 273q-4 34 -4 71q0 202 133.5 327.5t339.5 125.5q124 0 238 -34t198 -93l-146 -235q-75 45 -136.5 69.5t-125.5 24.5q-67 0 -110 -31
t-43 -90q0 -30 12.5 -55t28.5 -40.5t49.5 -32t56 -25t68.5 -23.5l31 -10q40 -14 69.5 -25.5t66.5 -31.5t63.5 -41.5t53.5 -53.5t44 -69.5t27.5 -89t10.5 -111.5z" />
    <glyph glyph-name="Ygrave" unicode="&#x1ef2;" horiz-adv-x="1026" 
d="M1067 1427l-397 -913v-514h-328v508l-383 919h381l121 -403q28 -90 53 -207q5 20 53 207l121 403h379zM780 1659l-98 -164l-414 197l125 215z" />
    <glyph glyph-name="ygrave" unicode="&#x1ef3;" horiz-adv-x="940" 
d="M971 1057l-348 -1059q-28 -86 -50.5 -143.5t-52 -114t-62.5 -92t-77.5 -65t-101 -45.5t-129.5 -23l-111 229q142 37 200.5 84.5t112.5 171.5h-94q-20 126 -65 272l-224 775l322 26l135 -559q38 -170 43 -217h2q24 185 64 328l122 432h314zM702 1290l-98 -164l-414 197
l125 215z" />
    <glyph glyph-name="uni2007" unicode="&#x2007;" horiz-adv-x="1097" 
 />
    <glyph glyph-name="uni2008" unicode="&#x2008;" horiz-adv-x="550" 
 />
    <glyph glyph-name="uni200B" unicode="&#x200b;" horiz-adv-x="0" 
 />
    <glyph glyph-name="endash" unicode="&#x2013;" horiz-adv-x="1157" 
d="M1075 420h-993v272h993v-272z" />
    <glyph glyph-name="emdash" unicode="&#x2014;" horiz-adv-x="2048" 
d="M1966 420h-1884v272h1884v-272z" />
    <glyph glyph-name="uni2015" unicode="&#x2015;" horiz-adv-x="2048" 
d="M1966 420h-1884v272h1884v-272z" />
    <glyph glyph-name="quoteleft" unicode="&#x2018;" horiz-adv-x="530" 
d="M463 1020q0 -79 -53.5 -132.5t-130.5 -53.5q-102 0 -160 70.5t-58 193.5q0 138 78 243q31 41 88 79.5t121 54.5l131 -125q-61 -13 -97 -42t-36 -59q0 -21 7 -32.5t26.5 -25.5t30.5 -26q32 -33 42.5 -65.5t10.5 -79.5z" />
    <glyph glyph-name="quoteright" unicode="&#x2019;" horiz-adv-x="530" 
d="M469 1212q0 -138 -78 -243q-31 -40 -87.5 -78.5t-121.5 -54.5l-131 125q61 13 97 41.5t36 58.5q0 21 -7 32.5t-26 25.5t-30 26q-32 33 -42.5 65.5t-10.5 79.5q0 79 53.5 133t130.5 54q102 0 159.5 -70.5t57.5 -194.5z" />
    <glyph glyph-name="quotesinglbase" unicode="&#x201a;" horiz-adv-x="555" 
d="M494 84q0 -144 -84 -256q-32 -42 -92.5 -82.5t-127.5 -56.5l-139 131q65 15 103.5 44.5t38.5 61.5q0 22 -7.5 34t-28 26.5t-32.5 27.5q-33 34 -44 69t-11 85q0 83 56 138.5t138 55.5q107 0 168.5 -74t61.5 -204z" />
    <glyph glyph-name="quotedblleft" unicode="&#x201c;" horiz-adv-x="1017" 
d="M479 1350q-61 -13 -97 -42t-36 -59q0 -21 7 -32.5t26.5 -25.5t30.5 -26q32 -33 42.5 -65.5t10.5 -79.5q0 -79 -53.5 -132.5t-130.5 -53.5q-102 0 -160 70.5t-58 193.5q0 138 78 243q31 41 88 79.5t121 54.5zM967 1350q-61 -13 -97 -42t-36 -59q0 -21 7 -32.5t26 -25.5
t30 -26q32 -33 43.5 -66t11.5 -79q0 -79 -54.5 -132.5t-131.5 -53.5q-102 0 -158.5 70t-56.5 194q0 138 78 243q31 41 87 79.5t120 54.5z" />
    <glyph glyph-name="quotedblright" unicode="&#x201d;" horiz-adv-x="1017" 
d="M469 1212q0 -138 -78 -243q-31 -40 -87.5 -78.5t-121.5 -54.5l-131 125q61 13 97 41.5t36 58.5q0 21 -7 32.5t-26 25.5t-30 26q-32 33 -42.5 65.5t-10.5 79.5q0 79 53.5 133t130.5 54q102 0 159.5 -70.5t57.5 -194.5zM956 1212q0 -142 -75 -243q-31 -40 -87.5 -78.5
t-121.5 -54.5l-131 125q61 13 97 41.5t36 58.5q0 21 -7 32.5t-26.5 25.5t-30.5 26q-32 33 -43.5 66t-11.5 79q0 79 54.5 133t131.5 54q102 0 158.5 -70.5t56.5 -194.5z" />
    <glyph glyph-name="quotedblbase" unicode="&#x201e;" horiz-adv-x="1042" 
d="M494 84q0 -144 -84 -256q-32 -42 -92.5 -82.5t-127.5 -56.5l-139 131q65 15 103.5 44.5t38.5 61.5q0 22 -7.5 34t-28 26.5t-32.5 27.5q-33 34 -44 69t-11 85q0 83 56 138.5t138 55.5q107 0 168.5 -74t61.5 -204zM981 84q0 -144 -84 -256q-33 -43 -91.5 -83t-125.5 -56
l-139 131q65 15 103 44.5t38 61.5q0 22 -7.5 34t-28 26.5t-32.5 27.5q-33 34 -44 69t-11 85q0 83 56.5 138.5t138.5 55.5q107 0 167 -73.5t60 -204.5z" />
    <glyph glyph-name="dagger" unicode="&#x2020;" horiz-adv-x="933" 
d="M893 1137l-57 -312h-234v-825h-301v825h-260v312h260v290h301v-290h291z" />
    <glyph glyph-name="daggerdbl" unicode="&#x2021;" horiz-adv-x="966" 
d="M334 606v215h-260v316h260v290h301v-290h291l-58 -316h-233v-215h291l-58 -315h-233v-291h-301v291h-260v315h260z" />
    <glyph glyph-name="bullet" unicode="&#x2022;" horiz-adv-x="989" 
d="M846 725q0 -151 -102 -257t-248 -106t-249.5 106t-103.5 257t103.5 256.5t249.5 105.5t248 -105.5t102 -256.5z" />
    <glyph glyph-name="ellipsis" unicode="&#x2026;" horiz-adv-x="1597" 
d="M469 166q0 -83 -58 -142t-137 -59q-78 0 -135 59t-57 142q0 80 57 138t135 58t136.5 -58.5t58.5 -137.5zM991 166q0 -83 -57.5 -142t-136.5 -59q-78 0 -135.5 59t-57.5 142q0 79 57.5 137.5t135.5 58.5t136 -58.5t58 -137.5zM1516 166q0 -83 -58 -142t-137 -59
q-78 0 -135.5 59t-57.5 142q0 79 57.5 137.5t135.5 58.5t136.5 -58.5t58.5 -137.5z" />
    <glyph glyph-name="perthousand" unicode="&#x2030;" horiz-adv-x="2111" 
d="M428 1104q0 96 -15.5 135t-54.5 39q-43 0 -56 -38t-13 -146q0 -100 13.5 -136t55.5 -36q40 0 55 39t15 143zM674 1108q0 -164 -86.5 -265.5t-233.5 -101.5q-144 0 -228.5 90.5t-84.5 262.5q0 156 91.5 258t229.5 102q142 0 227 -88.5t85 -257.5zM1225 1427l-758 -1427
h-248l756 1427h250zM1159 336q0 97 -15 135.5t-54 38.5q-43 0 -56.5 -38t-13.5 -146q0 -99 14 -135.5t56 -36.5q40 0 54.5 39t14.5 143zM1405 340q0 -164 -86.5 -265.5t-233.5 -101.5q-144 0 -227.5 90t-83.5 263q0 156 91 258t229 102q142 0 226.5 -88.5t84.5 -257.5z
M1825 336q0 96 -15.5 135t-54.5 39q-43 0 -56 -38t-13 -146q0 -100 13.5 -136t55.5 -36q40 0 55 39t15 143zM2071 340q0 -164 -86.5 -265.5t-233.5 -101.5q-145 0 -229 90t-84 263q0 156 91 258t228 102q142 0 228 -88.5t86 -257.5z" />
    <glyph glyph-name="guilsinglleft" unicode="&#x2039;" horiz-adv-x="585" 
d="M565 201l-225 -166l-320 491l320 490l225 -162l-215 -328z" />
    <glyph glyph-name="guilsinglright" unicode="&#x203a;" horiz-adv-x="585" 
d="M565 526l-319 -491l-226 166l218 325l-218 328l226 162z" />
    <glyph glyph-name="fraction" unicode="&#x2044;" horiz-adv-x="550" 
d="M879 1567l-945 -1882h-262l944 1882h263z" />
    </font>
</defs>
</svg>
