<?xml version="1.0" standalone="no"?>
<!DOCTYPE svg PUBLIC "-//W3C//DTD SVG 1.1//EN" "http://www.w3.org/Graphics/SVG/1.1/DTD/svg11.dtd" >
<svg xmlns="http://www.w3.org/2000/svg" xmlns:xlink="http://www.w3.org/1999/xlink" version="1.1">
<metadata>
Created by FontForge 20170731 at Wed Jul 27 20:33:00 2022
 By Aleksey,,,
Copyright (c) 1991-2018 Monotype GmbH. All rights reserved
</metadata>
<defs>
<font id="MetaPro-Book" horiz-adv-x="2" >
  <font-face 
    font-family="Meta Pro Book"
    font-weight="450"
    font-stretch="normal"
    units-per-em="2048"
    panose-1="2 0 6 3 4 0 0 2 0 4"
    ascent="1563"
    descent="-485"
    x-height="1026"
    cap-height="1411"
    bbox="-797 -586 2857 2279"
    underline-thickness="200"
    underline-position="-444"
    unicode-range="U+000D-FEFF"
  />
<missing-glyph horiz-adv-x="1132" 
d="M145 0v1411h842v-1411h-842zM248 102h637v1207h-637v-1207z" />
    <glyph glyph-name="IJ" unicode="IJ" horiz-adv-x="1148" 
d="M385 0h-201v1411h201v-1411zM965 250q0 -151 -15 -227.5t-55 -137.5q-79 -117 -233 -174l-93 109q53 27 96.5 68t65.5 83q19 38 27 95.5t8 169.5v1175h199v-1161z" />
    <glyph glyph-name="ij" unicode="ij" horiz-adv-x="1126" 
d="M379 0h-195v1020l195 31v-1051zM418 1341q0 -56 -40 -95.5t-97 -39.5q-55 0 -93 39.5t-38 95.5q0 57 39 97.5t94 40.5q56 0 95.5 -40t39.5 -98zM942 23q0 -203 -76 -304q-73 -93 -180 -141l-84 115q35 21 66 49q80 74 80 283v985l194 41v-1028zM975 1358
q0 -58 -39.5 -98.5t-95.5 -40.5q-57 0 -95 39t-38 96t39 97t94 40t95 -39.5t40 -93.5z" />
    <glyph glyph-name="f_b" unicode="fb" horiz-adv-x="1748" 
d="M1626 530q0 -159 -47 -280t-137 -193q-96 -77 -221 -77q-77 0 -147.5 35.5t-117.5 99.5q-15 -83 -30 -115h-178q26 71 26 240v1042q-144 74 -264 74q-65 0 -101 -43t-36 -121v-166h272l-49 -133h-221v-893h-191v893h-98v133h100q-4 20 -4 164q0 174 115 256q69 49 207 49
q214 0 459 -133v-313q0 -86 -7 -107l7 -4q62 62 126 88.5t142 26.5q183 0 289 -140t106 -383zM1413 535q0 103 -8.5 151.5t-34.5 95.5q-58 107 -182 107q-87 0 -162 -55q-38 -27 -63 -64v-520q40 -47 98.5 -78t122.5 -31q54 0 100.5 24.5t71.5 67.5q57 98 57 302z" />
    <glyph glyph-name="f_f" unicode="ff" horiz-adv-x="1212" 
d="M1284 1446l-63 -123q-72 33 -127 33q-65 0 -100.5 -43t-35.5 -121v-166h267l-51 -133h-213v-893h-191v893h-395v-893h-191v893h-98v133h100q0 10 -2 83.5t-2 80.5q0 169 117 256q66 49 184 49q135 0 224 -55l-64 -123q-76 39 -133 39q-65 0 -101 -43t-36 -121v-166h397
q0 10 -2 83.5t-2 80.5q0 172 117 256q69 49 184 49q138 0 217 -49z" />
    <glyph glyph-name="f_f_i" unicode="ffi" horiz-adv-x="1757" 
d="M1573 0h-195v893h-415v-893h-191v893h-397v-893h-191v893h-98v133h100q0 10 -2 83.5t-2 80.5q0 169 117 256q66 49 184 49q135 0 224 -55l-64 -123q-76 39 -133 39q-65 0 -101 -43t-36 -121v-166h401q0 11 -2 84.5t-2 79.5q0 172 117 256q69 49 184 49q138 0 217 -49
l-63 -123q-72 33 -127 33q-64 0 -99.5 -43t-35.5 -121v-166h610v-1026zM1612 1341q0 -55 -40 -95t-95 -40t-94.5 39.5t-39.5 95.5q0 57 39.5 97.5t94.5 40.5q56 0 95.5 -40t39.5 -98z" />
    <glyph glyph-name="f_f_j" unicode="ffj" horiz-adv-x="1794" 
d="M1305 1446l-64 -123q-72 33 -127 33q-64 0 -99.5 -43t-35.5 -121v-166h631v-1003q0 -203 -76 -304q-73 -93 -180 -141l-84 115q32 19 65 49q80 74 80 283v868h-434v-893h-190v893h-416v-893h-191v893h-98v133h100q0 5 -2 77t-2 87q0 169 117 256q66 49 184 49
q135 0 224 -55l-64 -123q-76 39 -133 39q-65 0 -101 -43t-36 -121v-166h418q0 8 -2.5 75.5t-2.5 88.5q0 172 117 256q69 49 184 49q139 0 218 -49zM1647 1346q0 -58 -40 -99t-96 -41q-57 0 -95 39t-38 96t39 97.5t94 40.5t95.5 -39.5t40.5 -93.5z" />
    <glyph glyph-name="f_f_t" unicode="fft" horiz-adv-x="1886" 
d="M1305 1446l-64 -123q-72 33 -127 33q-64 0 -99.5 -43t-35.5 -121v-166h418q0 168 12 262l195 45q-19 -176 -19 -307h250l-51 -133h-203v-619q0 -95 28 -130t105 -35q49 0 96 20l23 -115q-85 -43 -186 -43q-51 0 -100 14.5t-74 37.5q-22 20 -31 30t-22 33.5t-18 58
t-5 86.5v662h-416v-893h-190v893h-416v-893h-191v893h-98v133h100q0 8 -2 75.5t-2 88.5q0 169 117 256q66 49 184 49q135 0 224 -55l-64 -123q-76 39 -133 39q-65 0 -101 -43t-36 -121v-166h418q0 9 -2.5 78t-2.5 86q0 172 117 256q69 49 184 49q139 0 218 -49z" />
    <glyph glyph-name="f_h" unicode="fh" horiz-adv-x="1751" 
d="M1567 0h-185v705q0 104 -34 143q-14 16 -46 27.5t-67 11.5q-66 0 -139 -40.5t-133 -109.5v-737h-191v1284q-144 72 -262 72q-65 0 -101 -43t-36 -121v-166h272l-49 -133h-221v-893h-191v893h-98v133h100q-4 20 -4 164q0 174 115 256q69 49 207 49q214 0 459 -133v-328
q0 -44 -7 -137q48 44 109 84q109 70 223 70q91 0 163 -42.5t95 -111.5q13 -37 17 -68.5t4 -97.5v-731z" />
    <glyph glyph-name="f_i" unicode="fi" horiz-adv-x="1167" 
d="M985 0h-194v893h-416v-893h-191v893h-98v133h100q0 10 -2 83.5t-2 80.5q0 169 117 256q66 49 184 49q139 0 215 -49l-63 -123q-72 33 -125 33q-65 0 -101 -43t-36 -121v-166h612v-1026zM1022 1341q0 -56 -39 -95.5t-96 -39.5q-55 0 -94 39.5t-39 95.5q0 57 39.5 97.5
t95.5 40.5t94.5 -40t38.5 -98z" />
    <glyph glyph-name="f_j" unicode="fj" horiz-adv-x="1189" 
d="M1006 23q0 -203 -76 -304q-73 -93 -180 -141l-84 115q32 19 65 49q80 74 80 283v868h-436v-893h-191v893h-98v133h100q-4 20 -4 164q0 174 115 256q69 49 186 49q135 0 215 -49l-63 -123q-79 33 -125 33q-65 0 -101 -43t-36 -121v-166h633v-1003zM1042 1346
q0 -58 -39.5 -99t-95.5 -41q-57 0 -95 39t-38 96t39 97.5t94 40.5t95 -39.5t40 -93.5z" />
    <glyph glyph-name="f_k" unicode="fk" horiz-adv-x="1650" 
d="M963 1362v-1362h-189v1282q-144 74 -264 74q-65 0 -101 -43t-36 -121v-166h272l-49 -133h-221v-893h-191v893h-98v133h100q-4 20 -4 164q0 174 115 256q69 49 207 49q214 0 459 -133zM1640 0h-235l-422 584l338 444h229l-366 -436z" />
    <glyph glyph-name="f_t" unicode="ft" horiz-adv-x="1280" 
d="M1229 1026l-51 -133h-203v-619q0 -95 28 -130t105 -35q49 0 96 20l23 -115q-85 -43 -187 -43q-51 0 -100 14.5t-74 37.5q-22 20 -31 30t-22 33.5t-17.5 58t-4.5 86.5v662h-416v-893h-191v893h-98v133h100q-4 20 -4 164q0 174 115 256q69 49 186 49q135 0 224 -55
l-64 -123q-76 39 -133 39q-65 0 -101 -43t-36 -121v-166h418q0 168 12 262l194 45q-18 -167 -18 -307h250z" />
    <glyph glyph-name=".notdef" horiz-adv-x="1132" 
d="M145 0v1411h842v-1411h-842zM248 102h637v1207h-637v-1207z" />
    <glyph glyph-name=".null" horiz-adv-x="0" 
 />
    <glyph glyph-name=".null" horiz-adv-x="0" 
 />
    <glyph glyph-name="nonmarkingreturn" horiz-adv-x="682" 
 />
    <glyph glyph-name="CR" unicode="&#xd;" horiz-adv-x="460" 
 />
    <glyph glyph-name="space" unicode=" " horiz-adv-x="460" 
 />
    <glyph glyph-name="exclam" unicode="!" horiz-adv-x="595" 
d="M412 1442l-45 -1012h-144l-47 977zM432 123q0 -58 -40.5 -98.5t-96.5 -40.5q-55 0 -93 40t-38 99q0 56 38 94.5t95 38.5q56 0 95.5 -39t39.5 -94z" />
    <glyph glyph-name="quotedbl" unicode="&#x22;" horiz-adv-x="888" 
d="M715 928h-174v524h174v-524zM348 928h-174v524h174v-524z" />
    <glyph glyph-name="numbersign" unicode="#" horiz-adv-x="1148" 
d="M1077 881h-211l-43 -310h193v-139h-211l-62 -432h-147l59 432h-249l-60 -432h-147l59 432h-186v139h207l40 310h-188v141h209l59 428h148l-60 -428h250l60 428h147l-59 -428h192v-141zM719 881h-250l-43 -310h250z" />
    <glyph glyph-name="dollar" unicode="$" horiz-adv-x="1212" 
d="M1100 416q0 -165 -120.5 -286t-303.5 -148v-191h-127v184q-234 0 -436 123l77 154q184 -115 359 -115v512l-74 25q-94 31 -146.5 61t-90.5 76q-76 91 -76 221q0 166 103.5 274t283.5 136v164h127v-162q98 -3 199.5 -39t185.5 -94l-88 -140q-172 107 -297 107v-438l80 -25
q91 -28 150 -62t100 -83q94 -112 94 -254zM877 381q0 83 -52.5 141t-148.5 88v-465q90 21 145.5 83.5t55.5 152.5zM549 872v398q-86 -24 -127 -72.5t-41 -130.5q0 -69 39.5 -114.5t128.5 -80.5z" />
    <glyph glyph-name="percent" unicode="%" horiz-adv-x="1761" 
d="M1669 328q0 -157 -92.5 -250.5t-243.5 -93.5q-158 0 -247 93t-89 255q0 159 91 252.5t241 93.5q160 0 250 -93t90 -257zM764 1075q0 -157 -92.5 -250.5t-243.5 -93.5q-158 0 -247 93t-89 255q0 159 91 252.5t241 93.5q160 0 250 -93t90 -257zM1303 1407l-699 -1407h-139
l696 1407h142zM606 1067q0 131 -44 186.5t-136 55.5q-176 0 -176 -222q0 -130 43.5 -184.5t136.5 -54.5q176 0 176 219zM1511 319q0 131 -44 186.5t-136 55.5q-90 0 -133 -55t-43 -166q0 -130 43.5 -185t136.5 -55q176 0 176 219z" />
    <glyph glyph-name="ampersand" unicode="&#x26;" horiz-adv-x="1411" 
d="M1384 0h-256l-127 125q-65 -72 -169.5 -113t-227.5 -41q-233 0 -357 105.5t-124 275.5q0 67 19.5 121t60 96.5t87.5 74.5t116 67q-103 82 -148 153t-45 162q0 139 105 233.5t268 94.5q164 0 274.5 -85.5t110.5 -230.5q0 -203 -289 -336l305 -303q39 90 39 277h156
q0 -153 -15.5 -236.5t-54.5 -167.5zM895 231l-387 381q-92 -49 -136 -113t-44 -149q0 -109 74.5 -173t207.5 -64q93 0 168 31.5t117 86.5zM768 1038q0 81 -50.5 132t-129.5 51q-78 0 -128 -45t-50 -129q0 -112 168 -248q190 91 190 239z" />
    <glyph glyph-name="quotesingle" unicode="'" horiz-adv-x="522" 
d="M348 928h-174v524h174v-524z" />
    <glyph glyph-name="parenleft" unicode="(" horiz-adv-x="624" 
d="M655 -227l-49 -99q-135 51 -239.5 160t-161.5 258q-41 109 -61.5 265.5t-20.5 301.5q0 370 96 551q66 124 164.5 224t220.5 153l47 -98q-116 -77 -181 -159t-101 -202q-54 -180 -54 -464q0 -120 13 -270.5t47 -258.5q84 -265 280 -362z" />
    <glyph glyph-name="parenright" unicode=")" horiz-adv-x="626" 
d="M504 659q0 -149 -20.5 -305t-63.5 -262q-62 -150 -165.5 -258.5t-236.5 -159.5l-49 99q197 97 281 362q61 189 61 529q0 259 -55 464q-32 120 -98.5 201t-184.5 160l47 98q123 -53 221.5 -153t164.5 -224q98 -184 98 -551z" />
    <glyph glyph-name="asterisk" unicode="*" horiz-adv-x="942" 
d="M870 1106l-282 -96l178 -248l-115 -90l-182 256l-174 -252l-115 88l178 246l-286 98l45 139l286 -102v305h140v-303l284 96z" />
    <glyph glyph-name="plus" unicode="+" horiz-adv-x="1177" 
d="M1065 465h-389v-395h-174v395h-389v178h389v395h174v-395h389v-178z" />
    <glyph glyph-name="comma" unicode="," horiz-adv-x="608" 
d="M455 70q0 -118 -72.5 -217t-183.5 -146l-66 92q56 23 94.5 68.5t38.5 85.5q0 8 -3 14.5t-10 12.5t-13 9t-18.5 9.5t-18.5 9.5q-68 37 -68 119q0 65 43.5 109.5t106.5 44.5q74 0 122 -59t48 -152z" />
    <glyph glyph-name="hyphen" unicode="-" horiz-adv-x="641" 
d="M528 461h-415v186h415v-186z" />
    <glyph glyph-name="period" unicode="." horiz-adv-x="598" 
d="M444 125q0 -64 -41.5 -109t-103.5 -45t-103.5 45t-41.5 109t41.5 109t103.5 45t103.5 -45t41.5 -109z" />
    <glyph glyph-name="slash" unicode="/" horiz-adv-x="937" 
d="M805 1559l-533 -1864h-139l533 1864h139z" />
    <glyph glyph-name="zero" unicode="0" horiz-adv-x="1169" 
d="M1047 510q0 -246 -126.5 -392.5t-334.5 -146.5q-217 0 -340 145.5t-123 397.5q0 248 126.5 394.5t334.5 146.5q217 0 340 -146.5t123 -398.5zM844 492q0 227 -63.5 322t-198.5 95q-256 0 -256 -374q0 -227 63.5 -322.5t198.5 -95.5q256 0 256 375z" />
    <glyph glyph-name="one" unicode="1" horiz-adv-x="884" 
d="M782 0h-565v152h201v679q-119 -77 -271 -135l-45 99l363 256h137v-899h180v-152z" />
    <glyph glyph-name="two" unicode="2" horiz-adv-x="1132" 
d="M989 156l-39 -156h-796v166l266 194q68 50 104.5 78.5t82 69.5t67.5 72.5t37.5 71t15.5 81.5q0 82 -54.5 126t-152.5 44q-62 0 -133 -28.5t-109.5 -54t-62.5 -46.5l-92 105q114 99 219.5 144.5t230.5 45.5q166 0 269.5 -83t103.5 -224q0 -213 -330 -445l-239 -167
q87 6 211 6h401z" />
    <glyph glyph-name="three" unicode="3" horiz-adv-x="1079" 
d="M956 104q0 -144 -94 -251q-102 -113 -248 -170.5t-356 -57.5q-74 0 -123 8l-41 127q44 -8 113 -8q110 0 194 19q147 32 242.5 125t95.5 225q0 74 -40 131t-107 80q-90 29 -225 22l-48 -2v146l50 -2q81 -4 137 2q207 26 207 200q0 93 -61 149t-165 56q-83 0 -150.5 -27
t-164.5 -85l-90 106q90 73 206.5 118.5t229.5 45.5q177 0 290.5 -95t113.5 -241q0 -105 -63 -186t-185 -121q127 -32 204.5 -119t77.5 -195z" />
    <glyph glyph-name="four" unicode="4" horiz-adv-x="1153" 
d="M1030 16h-98q-15 0 -39.5 2t-26.5 2q6 -24 6 -71v-297l-182 -39v330q0 11 1 41t1 34q-3 0 -35 -1t-49 -1h-526v142l440 909h201l-350 -725q-63 -130 -99 -176q10 0 37 3t43 3h254q13 0 48 -1t40 -1l-4 59q-3 41 10 199l23 268l147 41v-391q0 -68 -2 -113l-2 -63
q2 0 29.5 1t42.5 1h90v-156z" />
    <glyph glyph-name="five" unicode="5" horiz-adv-x="1024" 
d="M901 117q0 -146 -81.5 -261t-218.5 -177t-304 -62q-76 0 -147 18l-37 138q76 -27 159 -27q180 0 302 103t122 255q0 119 -76.5 187.5t-207.5 68.5q-147 0 -269 -45l66 711h627l-29 -160h-424l-33 -370q68 10 131 10q183 0 301.5 -105t118.5 -284z" />
    <glyph glyph-name="six" unicode="6" horiz-adv-x="1171" 
d="M1049 422q0 -192 -131 -322.5t-324 -130.5q-211 0 -341 156.5t-130 409.5q0 207 94.5 382.5t251.5 303.5q189 154 412 219l43 -127q-100 -31 -209.5 -99.5t-179.5 -144.5q-73 -80 -112.5 -161t-68.5 -183q117 106 283 106q107 0 200 -48.5t152.5 -144t59.5 -216.5z
M842 418q0 125 -67 195.5t-173 70.5q-125 0 -258 -94q-6 -49 -6 -119q0 -173 66 -264.5t186 -91.5q116 0 184 82t68 221z" />
    <glyph glyph-name="seven" unicode="7" horiz-adv-x="1005" 
d="M944 1026l-39 -180q-71 -103 -166 -258q-99 -161 -233 -479q-119 -282 -154 -441l-221 -59q22 109 43 176.5t64 179.5q81 211 192 418q160 299 324 489q-39 -10 -170 -10h-523l43 164h840z" />
    <glyph glyph-name="eight" unicode="8" horiz-adv-x="1200" 
d="M1077 371q0 -176 -136.5 -291t-350.5 -115q-210 0 -338.5 106.5t-128.5 274.5q0 130 80 222t203 139q-120 50 -179 133.5t-59 181.5q0 159 119.5 254.5t326.5 95.5q185 0 300.5 -89.5t115.5 -233.5q0 -108 -74 -190t-213 -132q38 -11 103 -46.5t112 -72.5q61 -50 90 -104
t29 -133zM872 332q0 100 -63 157q-65 57 -289 150q-95 -53 -144.5 -117t-49.5 -162q0 -117 76.5 -186.5t205.5 -69.5q117 0 190.5 64t73.5 164zM834 1044q0 89 -65 141t-175 52q-109 0 -173.5 -53t-64.5 -144q0 -76 61 -133.5t197 -113.5q116 60 168 119.5t52 131.5z" />
    <glyph glyph-name="nine" unicode="9" horiz-adv-x="1140" 
d="M1018 545q0 -183 -74.5 -355.5t-212.5 -316.5q-104 -109 -247 -187t-273 -106l-98 111q95 19 210 78.5t201 134.5q159 136 234 342q-121 -82 -242 -82q-179 0 -296.5 123.5t-117.5 312.5q0 199 133.5 332t331.5 133q201 0 326 -139.5t125 -380.5zM811 571
q0 158 -69 253.5t-183 95.5q-112 0 -180 -87t-68 -227q0 -138 64.5 -216.5t177.5 -78.5q120 0 238 103q20 94 20 157z" />
    <glyph glyph-name="colon" unicode=":" horiz-adv-x="636" 
d="M463 121q0 -61 -43 -103.5t-105 -42.5q-60 0 -100.5 42t-40.5 104q0 63 42 107t103 44q59 0 101.5 -44t42.5 -107zM463 768q0 -63 -43 -106.5t-103 -43.5t-101.5 42.5t-41.5 103.5q0 62 42 105.5t103 43.5q59 0 101.5 -42.5t42.5 -102.5z" />
    <glyph glyph-name="semicolon" unicode=";" horiz-adv-x="669" 
d="M496 70q0 -118 -72.5 -217t-183.5 -146l-66 92q56 23 94.5 68.5t38.5 85.5q0 8 -3 14.5t-10 12.5t-13 9t-18.5 9.5t-18.5 9.5q-68 37 -68 119q0 65 43.5 109.5t106.5 44.5q74 0 122 -59t48 -152zM467 764q0 -60 -42.5 -104t-102.5 -44t-103 44t-43 106q0 60 41.5 102.5
t101.5 42.5t104 -43.5t44 -103.5z" />
    <glyph glyph-name="less" unicode="&#x3c;" horiz-adv-x="716" 
d="M625 172l-156 -113l-418 555l418 553l156 -112l-332 -441z" />
    <glyph glyph-name="equal" unicode="=" horiz-adv-x="1300" 
d="M1188 717h-1075v170h1075v-170zM1188 358h-1075v170h1075v-170z" />
    <glyph glyph-name="greater" unicode="&#x3e;" horiz-adv-x="716" 
d="M666 614l-420 -555l-154 113l332 442l-332 441l154 112z" />
    <glyph glyph-name="question" unicode="?" horiz-adv-x="915" 
d="M803 1120q0 -60 -16.5 -109t-50.5 -88.5t-59.5 -61.5t-68.5 -54q-135 -96 -135 -254q0 -4 0.5 -10t3.5 -29t6 -53h-161l-9 43q-6 44 -6 80q0 168 137 293q18 16 56.5 45.5t58 47.5t37.5 53.5t18 78.5q0 77 -53 122.5t-133 45.5q-126 0 -256 -90l-80 123q66 56 165.5 93.5
t209.5 37.5q145 0 240.5 -86t95.5 -228zM567 123q0 -62 -42.5 -106t-102.5 -44q-58 0 -98.5 44t-40.5 106q0 59 40.5 99t98.5 40q59 0 102 -40.5t43 -98.5z" />
    <glyph glyph-name="at" unicode="@" horiz-adv-x="1906" 
d="M1784 565q0 -263 -135.5 -428.5t-329.5 -165.5q-114 0 -171.5 50.5t-64.5 128.5q-57 -68 -138.5 -111t-168.5 -43q-101 0 -174.5 77t-73.5 220q0 99 22.5 191.5t69 173t112 141t158 95t200.5 34.5q137 0 276 -74q-16 -52 -30 -106t-28.5 -117.5t-23 -103t-25 -117.5
t-22.5 -107q-14 -60 -14 -102q0 -52 24.5 -72t77.5 -20q111 0 195 132t84 324q0 118 -46.5 224t-128 184t-201 124t-257.5 46q-145 0 -271.5 -61t-212 -161.5t-134 -231t-48.5 -269.5q0 -177 85.5 -319t229 -220t314.5 -78q162 0 295 45l37 -139q-142 -47 -332 -47
q-130 0 -250 31.5t-222 95t-177.5 153t-118.5 212.5t-43 266q0 178 64 337t175 274t269.5 182t339.5 67q170 0 319.5 -51t258.5 -143t172 -227t63 -294zM1161 778q-34 15 -86 15q-92 0 -165 -47t-115.5 -122.5t-64 -162.5t-21.5 -176q0 -78 27 -109t83 -31q74 0 154.5 71
t107.5 196z" />
    <glyph glyph-name="A" unicode="A" horiz-adv-x="1183" 
d="M1174 0h-222l-125 399h-489l-123 -399h-205l463 1413h246zM784 563q-19 49 -97.5 320.5t-92.5 333.5h-12q-16 -63 -96.5 -334t-98.5 -320h397z" />
    <glyph glyph-name="B" unicode="B" horiz-adv-x="1245" 
d="M1122 387q0 -143 -77.5 -236.5t-206.5 -127.5q-91 -23 -224 -23h-430v1411h299q183 0 253.5 -9t135.5 -44q191 -101 191 -295q0 -112 -64.5 -192.5t-191.5 -118.5q157 -35 236 -129.5t79 -235.5zM905 410q0 86 -42.5 150t-108.5 79q-55 12 -148 12h-227v-491h278
q46 0 88.5 14t79 43t58.5 78.5t22 114.5zM850 1030q0 73 -37.5 127.5t-99.5 73.5q-46 14 -144 14h-192v-430h223q90 0 133.5 17.5t75.5 60.5q41 56 41 137z" />
    <glyph glyph-name="C" unicode="C" horiz-adv-x="1187" 
d="M1096 96q-162 -116 -381 -116q-274 0 -439 210q-153 197 -153 504q0 241 92 420q79 152 212.5 238t295.5 86q210 0 346 -111l-96 -129q-112 82 -250 82q-104 0 -183.5 -52t-129.5 -151q-68 -136 -68 -379q0 -212 51 -331q48 -114 139 -172t207 -58q147 0 260 88z" />
    <glyph glyph-name="D" unicode="D" horiz-adv-x="1288" 
d="M1165 705q0 -325 -153 -515q-77 -97 -187 -143.5t-288 -46.5h-353v1411h328q189 0 311.5 -51.5t216.5 -181.5q125 -174 125 -473zM946 680q0 160 -22.5 266.5t-81.5 181.5q-57 71 -124 98t-173 27h-160v-1091h156q125 0 204 36.5t125 120.5q76 140 76 361z" />
    <glyph glyph-name="E" unicode="E" horiz-adv-x="1046" 
d="M975 0h-791v1411h768l-26 -162h-541v-430h453v-166h-453v-483h590v-170z" />
    <glyph glyph-name="F" unicode="F" horiz-adv-x="909" 
d="M920 1411l-27 -162h-510v-428h418v-159h-418v-662h-199v1411h736z" />
    <glyph glyph-name="G" unicode="G" horiz-adv-x="1325" 
d="M1151 92q-86 -54 -195.5 -83t-222.5 -29q-283 0 -446 190q-85 98 -124.5 226t-39.5 302q0 411 244 611q147 121 354 121q235 0 399 -142l-94 -123q-78 57 -148.5 82t-152.5 25q-217 0 -303 -180q-47 -96 -62.5 -183t-15.5 -221q0 -296 100 -426q45 -59 128.5 -93
t175.5 -34q116 0 208 53v402h-260l-32 162h487v-660z" />
    <glyph glyph-name="H" unicode="H" horiz-adv-x="1300" 
d="M1116 0h-198v670h-539v-670h-195v1411h195v-580h539v580h198v-1411z" />
    <glyph glyph-name="I" unicode="I" horiz-adv-x="569" 
d="M385 0h-201v1411h201v-1411z" />
    <glyph glyph-name="J" unicode="J" horiz-adv-x="579" 
d="M395 250q0 -152 -14.5 -228.5t-54.5 -136.5q-79 -116 -234 -174l-92 109q53 27 96.5 68t65.5 83q19 38 27 95.5t8 169.5v1175h198v-1161z" />
    <glyph glyph-name="K" unicode="K" horiz-adv-x="1183" 
d="M1153 0h-256l-504 754l494 657h248l-517 -655zM385 0h-201v1411h201v-1411z" />
    <glyph glyph-name="L" unicode="L" horiz-adv-x="952" 
d="M922 164l-33 -164h-705v1411h201v-1247h537z" />
    <glyph glyph-name="M" unicode="M" horiz-adv-x="1656" 
d="M1524 0h-197l-74 961q-3 34 -5 80.5t-3 91.5t-2 57h-4q-23 -120 -51 -211l-281 -979h-170l-258 934q-26 91 -63 258h-4q-6 -147 -15 -258l-71 -934h-193l127 1411h277l237 -866q40 -150 51 -232h4q20 119 50 222l245 876h279z" />
    <glyph glyph-name="N" unicode="N" horiz-adv-x="1308" 
d="M1124 0h-211l-370 750q-132 266 -172 387l-13 -2q13 -163 17 -394l8 -741h-199v1411h230l393 -778q40 -80 85 -191.5t54 -146.5l12 4q-20 205 -20 420l-4 692h190v-1411z" />
    <glyph glyph-name="O" unicode="O" horiz-adv-x="1396" 
d="M1274 696q0 -216 -67 -378t-196.5 -251.5t-305.5 -89.5q-143 0 -254.5 55t-182.5 153.5t-108 231.5t-37 294q0 344 154 534.5t417 190.5q121 0 219.5 -39.5t165 -107.5t111 -163t64.5 -202t20 -228zM1049 678q0 301 -81.5 452.5t-273.5 151.5q-184 0 -267 -136t-83 -413
q0 -112 11 -201.5t37 -166.5t66.5 -128.5t103 -80.5t143.5 -29q169 0 256.5 132t87.5 419z" />
    <glyph glyph-name="P" unicode="P" horiz-adv-x="1134" 
d="M1083 1001q0 -121 -39.5 -206t-132.5 -156q-58 -44 -124 -65t-173 -21h-233v-553h-197v1411h377q134 0 206 -14.5t130 -50.5q186 -117 186 -345zM864 979q0 135 -69 201q-72 69 -230 69h-184v-536h221q140 0 203 80q59 74 59 186z" />
    <glyph glyph-name="Q" unicode="Q" horiz-adv-x="1396" 
d="M1425 -96l-55 -140q-35 -20 -119 -20q-99 0 -262 104q-80 52 -142 81.5t-155 50.5q-251 0 -405 186q-164 194 -164 547q0 230 75.5 400.5t213.5 252.5q119 70 280 70q150 0 262 -59.5t183 -159.5q137 -196 137 -519q0 -194 -50 -332t-151 -239q-50 -50 -98 -80
q46 -17 176 -92q98 -59 186 -59q52 0 88 8zM1047 680q0 265 -60 410q-34 80 -106 136t-189 56q-88 0 -163.5 -42t-112.5 -110q-74 -139 -74 -397q0 -168 28 -295t76 -190q44 -56 113 -87.5t146 -31.5q164 0 249 125q93 134 93 426z" />
    <glyph glyph-name="R" unicode="R" horiz-adv-x="1159" 
d="M1108 0h-240q-51 100 -116 209q-92 152 -133 212.5t-111 139.5q-30 33 -57.5 48t-69.5 16v-625h-197v1411h396q223 0 333 -102q125 -117 125 -291q0 -166 -98 -276.5t-262 -110.5h-16q43 -36 64.5 -60t57.5 -71q58 -78 119 -174zM831 1016q0 72 -36 127.5t-95 79.5
q-67 26 -172 26h-147v-491h137q93 0 150 16t94 51q69 66 69 191z" />
    <glyph glyph-name="S" unicode="S" horiz-adv-x="1212" 
d="M1100 412q0 -61 -19.5 -121.5t-62 -118t-103 -101.5t-151 -71t-197.5 -27q-250 0 -454 125l77 152q189 -117 381 -117q139 0 222.5 66.5t83.5 179.5q0 172 -234 239l-147 44q-167 48 -250.5 133.5t-83.5 230.5q0 183 129 296.5t338 113.5q243 0 432 -133l-88 -140
q-100 61 -174.5 86t-161.5 25q-118 0 -187 -57.5t-69 -155.5q0 -76 48 -122.5t161 -80.5l166 -49q154 -45 249 -144t95 -253z" />
    <glyph glyph-name="T" unicode="T" horiz-adv-x="968" 
d="M999 1411l-20 -164h-367v-1247h-194v1247h-367v164h948z" />
    <glyph glyph-name="U" unicode="U" horiz-adv-x="1298" 
d="M1124 442q0 -134 -13 -187.5t-60 -111.5q-136 -166 -406 -166q-316 0 -426 197q-28 50 -36.5 96.5t-8.5 155.5v985h199v-911q0 -217 51 -275q69 -80 223 -80q159 0 230 93q51 66 51 233v940h196v-969z" />
    <glyph glyph-name="V" unicode="V" horiz-adv-x="1183" 
d="M1163 1411l-479 -1415h-192l-472 1415h218l270 -850q35 -106 53 -186q22 -98 23 -107h12q36 142 86 295l276 848h205z" />
    <glyph glyph-name="W" unicode="W" horiz-adv-x="1671" 
d="M1640 1411l-327 -1415h-242l-156 711q-52 240 -71 407h-13q-27 -191 -71 -399l-152 -719h-243l-334 1415h213l155 -727q19 -92 33.5 -174t28.5 -175.5t14 -96.5h12q34 227 78 428l164 745h227l162 -749q59 -267 74 -418h12q36 239 82 452l150 715h204z" />
    <glyph glyph-name="X" unicode="X" horiz-adv-x="1142" 
d="M1122 0h-239l-318 606l-305 -606h-240l426 760l-376 651h239l254 -479l242 479h235l-356 -639z" />
    <glyph glyph-name="Y" unicode="Y" horiz-adv-x="1060" 
d="M1081 1411l-450 -850v-561h-205v565l-446 846h241l234 -481q41 -83 77 -182q54 123 82 180l238 483h229z" />
    <glyph glyph-name="Z" unicode="Z" horiz-adv-x="1075" 
d="M983 164l-49 -164h-842v152l570 956q40 69 100 145q-62 -6 -162 -6h-483l47 164h811v-158l-563 -956q-17 -29 -47.5 -73.5t-40.5 -61.5q43 2 141 2h518z" />
    <glyph glyph-name="bracketleft" unicode="[" horiz-adv-x="593" 
d="M543 -317h-359v1818h359v-133h-189v-1554h189v-131z" />
    <glyph glyph-name="backslash" unicode="\" horiz-adv-x="827" 
d="M797 -39l-156 -55l-610 1585l155 55z" />
    <glyph glyph-name="bracketright" unicode="]" horiz-adv-x="593" 
d="M410 -317h-359v131h189v1554h-189v133h359v-1818z" />
    <glyph glyph-name="asciicircum" unicode="^" horiz-adv-x="1277" 
d="M1145 614h-184l-322 656l-320 -656h-186l416 836h180z" />
    <glyph glyph-name="underscore" unicode="_" horiz-adv-x="1044" 
d="M1034 -279h-1024v140h1024v-140z" />
    <glyph glyph-name="grave" unicode="`" horiz-adv-x="706" 
d="M604 1264l-57 -111l-445 209l91 174z" />
    <glyph glyph-name="a" unicode="a" horiz-adv-x="1073" 
d="M969 84l-97 -127q-100 40 -137 147q-110 -135 -291 -135q-156 0 -243.5 77.5t-87.5 223.5q0 177 135.5 271t386.5 94q45 0 72 -2v67q0 51 -5 83.5t-21 62.5t-49 43.5t-85 13.5q-78 0 -163.5 -33.5t-152.5 -83.5l-86 136q56 32 85 47t89 40t123 36.5t133 11.5
q114 0 191 -41.5t106 -122.5q21 -59 21 -180q0 -27 -4 -161.5t-4 -219.5q0 -117 14 -165.5t70 -82.5zM702 504q-58 4 -61 4q-203 0 -268 -74q-30 -35 -42 -67t-12 -82q0 -85 42 -132t120 -47q64 0 121.5 37t93.5 99z" />
    <glyph glyph-name="b" unicode="b" horiz-adv-x="1159" 
d="M1036 530q0 -159 -47 -280t-137 -193q-96 -77 -221 -77q-77 0 -147 35.5t-117 99.5q-15 -81 -31 -115h-178q26 71 26 240v981q0 154 -32 245l200 41q21 -114 21 -221v-237q0 -89 -6 -107l6 -4q62 62 126 88.5t142 26.5q183 0 289 -140t106 -383zM823 535
q0 103 -8.5 151.5t-34.5 95.5q-58 107 -182 107q-87 0 -162 -55q-39 -29 -63 -64v-520q40 -47 98.5 -78t122.5 -31q54 0 100.5 24.5t71.5 67.5q57 98 57 302z" />
    <glyph glyph-name="c" unicode="c" horiz-adv-x="948" 
d="M866 113q-74 -72 -145.5 -102.5t-169.5 -30.5q-222 0 -330 153q-98 138 -98 371q0 298 172 452q117 105 266 105q161 0 279 -109l-99 -129q-51 44 -91 62t-89 18q-59 0 -106.5 -29t-73.5 -81q-49 -98 -49 -314q0 -207 82 -295q58 -61 147 -61q121 0 213 106z" />
    <glyph glyph-name="d" unicode="d" horiz-adv-x="1157" 
d="M1001 0h-180q-11 33 -18 96q-106 -112 -264 -112q-196 0 -306 138t-110 382q0 166 55.5 289.5t159.5 191.5q91 59 201 59q151 0 249 -118q0 9 -2 74.5t-2 105.5v399l189 -30v-1131q0 -267 28 -344zM782 260v537q-81 96 -217 96q-116 0 -178 -105q-53 -92 -53 -282
q0 -141 17.5 -203t62.5 -108q51 -54 151 -54q76 0 132 34t85 85z" />
    <glyph glyph-name="e" unicode="e" horiz-adv-x="1060" 
d="M958 473h-624v-24q0 -137 43 -205q78 -121 235 -121q142 0 252 98l72 -112q-150 -132 -354 -132q-214 0 -336.5 145.5t-122.5 397.5q0 134 28.5 227t94.5 171q120 141 309 141q171 0 279 -111q68 -69 95.5 -167t28.5 -275v-33zM762 612q0 152 -64 232q-57 71 -147 71
q-105 0 -160 -80.5t-55 -222.5h426z" />
    <glyph glyph-name="f" unicode="f" horiz-adv-x="634" 
d="M707 1440l-64 -123q-76 39 -133 39q-65 0 -101 -43t-36 -121v-166h272l-49 -133h-221v-893h-191v893h-98v133h100q-4 20 -4 164q0 174 115 256q69 49 186 49q135 0 224 -55z" />
    <glyph glyph-name="g" unicode="g" horiz-adv-x="1107" 
d="M1108 942q-77 -61 -170 -61q-32 0 -88 16q74 -95 74 -188q0 -58 -20.5 -112t-62.5 -101.5t-116 -76t-170 -28.5q-59 -19 -110.5 -50.5t-51.5 -61.5q0 -24 19 -38t55 -14h158q187 0 278.5 -77t91.5 -205q0 -161 -118.5 -246.5t-313.5 -85.5q-215 0 -332.5 71t-117.5 199
q0 49 18 105l184 10q-18 -36 -18 -78q0 -79 64 -121.5t184 -42.5q124 0 188 46.5t64 129.5q0 156 -283 156q-94 0 -192 10q-67 7 -105.5 44t-38.5 94q0 66 49 104t152 76q-118 35 -180 111.5t-62 183.5q0 155 108 249.5t285 94.5q82 0 160 -23q109 -33 154 -33q83 0 168 60z
M715 715q0 98 -46 145t-143 47q-186 0 -186 -196q0 -95 48 -143t140 -48t139.5 50t47.5 145z" />
    <glyph glyph-name="h" unicode="h" horiz-adv-x="1163" 
d="M979 0h-184v705q0 103 -35 143q-14 16 -46 27.5t-67 11.5q-66 0 -139 -40.5t-133 -109.5v-737h-191v1247q0 122 -22 215l190 39q23 -100 23 -237v-230q0 -58 -6 -137q51 46 108 84q109 70 223 70q91 0 163 -42.5t95 -111.5q13 -37 17 -68.5t4 -97.5v-731z" />
    <glyph glyph-name="i" unicode="i" horiz-adv-x="563" 
d="M379 0h-195v1020l195 31v-1051zM418 1341q0 -56 -40 -95.5t-97 -39.5q-55 0 -93 39.5t-38 95.5q0 57 39 97.5t94 40.5q56 0 95.5 -40t39.5 -98z" />
    <glyph glyph-name="j" unicode="j" horiz-adv-x="563" 
d="M379 23q0 -203 -76 -304q-73 -93 -180 -141l-84 115q32 19 65 49q80 74 80 283v985l195 41v-1028zM412 1358q0 -58 -40 -98.5t-96 -40.5q-57 0 -95 39t-38 96t39 97t94 40t95.5 -39.5t40.5 -93.5z" />
    <glyph glyph-name="k" unicode="k" horiz-adv-x="1060" 
d="M373 0h-189v1225q0 137 -26 233l190 45q25 -115 25 -225v-1278zM1051 0h-236l-422 584l338 444h230l-367 -436z" />
    <glyph glyph-name="l" unicode="l" horiz-adv-x="561" 
d="M500 2q-54 -22 -117 -22q-56 0 -93.5 18t-66.5 59q-23 32 -31 68t-8 111v929q0 185 -22 295l196 41q19 -72 19 -293v-954q0 -57 7 -85.5t26 -41.5q21 -15 57 -8z" />
    <glyph glyph-name="m" unicode="m" horiz-adv-x="1650" 
d="M1466 0h-186v735q0 86 -28.5 122t-94.5 36q-64 0 -116 -34t-123 -105v-754h-185v731q0 87 -28.5 122.5t-98.5 35.5q-110 0 -235 -119v-770h-187v754q0 105 -7 152.5t-30 103.5l177 43q34 -59 34 -144q66 69 141.5 107.5t147.5 38.5q76 0 141.5 -41t102.5 -121
q152 162 313 162q122 0 192 -75t70 -214v-766z" />
    <glyph glyph-name="n" unicode="n" horiz-adv-x="1132" 
d="M948 0h-186v692q0 68 -7 100.5t-26 57.5q-30 41 -104 41q-55 0 -128 -37.5t-126 -93.5v-760h-187v764q0 89 -8 137.5t-31 106.5l179 49q34 -67 34 -158q86 72 134 100q88 52 190 52q82 0 148 -40t94 -106q24 -56 24 -129v-776z" />
    <glyph glyph-name="o" unicode="o" horiz-adv-x="1116" 
d="M1004 504q0 -244 -121.5 -388.5t-325.5 -144.5q-205 0 -324.5 146t-119.5 397q0 249 118.5 395t321.5 146q111 0 198 -42.5t141.5 -117.5t83 -174.5t28.5 -216.5zM793 496q0 154 -30.5 247.5t-81.5 129.5t-128 36q-122 0 -176.5 -89.5t-54.5 -284.5q0 -229 57.5 -323.5
t181.5 -94.5q232 0 232 379z" />
    <glyph glyph-name="p" unicode="p" horiz-adv-x="1155" 
d="M1032 530q0 -247 -105 -398.5t-296 -151.5q-148 0 -266 106q4 -33 4 -115v-360l-185 -43v1206q0 148 -22 252l182 31q12 -47 12 -148q120 144 291 144q166 0 275.5 -135.5t109.5 -387.5zM829 508q0 192 -49 288.5t-166 96.5q-137 0 -245 -127v-522q105 -113 219 -113
q123 0 182 94t59 283z" />
    <glyph glyph-name="q" unicode="q" horiz-adv-x="1155" 
d="M995 1034q-24 -91 -24 -286v-1131l-180 -45v377q0 6 1 75t1 85q-116 -125 -267 -125q-80 0 -151 31.5t-128 92.5t-90.5 160.5t-33.5 225.5q0 267 105 417t300 150q170 0 279 -141q2 75 18 114h170zM788 279v495q-38 57 -100 91t-127 34q-118 0 -176.5 -97t-58.5 -272
q0 -144 30.5 -231.5t82 -122.5t130.5 -35q66 0 124.5 37.5t94.5 100.5z" />
    <glyph glyph-name="r" unicode="r" horiz-adv-x="714" 
d="M705 1049l-66 -189q-30 10 -53 10q-86 0 -149.5 -61.5t-63.5 -146.5v-662h-189v754q0 158 -39 256l183 47q34 -74 34 -158v-18q123 178 279 178q37 0 64 -10z" />
    <glyph glyph-name="s" unicode="s" horiz-adv-x="991" 
d="M889 315q0 -154 -112 -249t-292 -95q-198 0 -383 109l68 135q182 -102 330 -102q85 0 137.5 45.5t52.5 120.5q0 66 -41.5 105t-130.5 56l-125 25q-122 25 -186 98t-64 187q0 141 103 230t268 89q180 0 324 -84l-64 -133q-148 74 -252 74q-81 0 -129.5 -42.5t-48.5 -111.5
q0 -57 32.5 -89t112.5 -50l134 -31q136 -31 201 -106t65 -181z" />
    <glyph glyph-name="t" unicode="t" horiz-adv-x="673" 
d="M623 1026l-52 -133h-202v-619q0 -95 28 -130t105 -35q49 0 96 20l23 -115q-85 -43 -187 -43q-46 0 -97.5 14t-82.5 42q-26 23 -37.5 38.5t-22 57t-10.5 108.5v662h-123v133h123q0 161 13 262l194 45q-18 -167 -18 -307h250z" />
    <glyph glyph-name="u" unicode="u" horiz-adv-x="1130" 
d="M1010 68l-129 -103q-39 30 -61.5 63.5t-35.5 84.5q-121 -148 -309 -148q-97 0 -170 41.5t-106 112.5q-25 57 -25 172v729l186 37v-715q0 -78 10 -116t38 -64q49 -45 118 -45q68 0 134.5 47t99.5 115v737l186 37v-772q0 -158 64 -213z" />
    <glyph glyph-name="v" unicode="v" horiz-adv-x="958" 
d="M938 1026l-375 -1034h-176l-367 1030l195 31l203 -621q34 -105 61 -221h4q21 106 62 225l194 590h199z" />
    <glyph glyph-name="w" unicode="w" horiz-adv-x="1439" 
d="M1399 1026l-287 -1034h-182l-150 559l-63 242h-6l-56 -230l-153 -571h-180l-281 1026l190 31l131 -576l54 -252h6q19 140 47 234l156 571h194l144 -555q28 -109 57 -250h8l47 244l127 561h197z" />
    <glyph glyph-name="x" unicode="x" horiz-adv-x="987" 
d="M977 0h-236q-23 39 -120 201.5t-127 214.5q-119 -209 -250 -416h-234l381 565l-303 447l213 26q19 -31 55 -93t80 -139l64 -112q87 178 176 332h219l-299 -461z" />
    <glyph glyph-name="y" unicode="y" horiz-adv-x="980" 
d="M950 1026l-358 -1059q-81 -238 -174 -315q-78 -65 -191 -88l-59 123q105 25 178 116q23 29 41 73t43 128l-74 -10q-34 155 -98 342l-227 674l190 43l197 -645q35 -124 59 -242h12q27 116 70 254l182 606h209z" />
    <glyph glyph-name="z" unicode="z" horiz-adv-x="950" 
d="M858 135l-65 -135h-701v135l539 754h-498v137h703v-141l-514 -750h536z" />
    <glyph glyph-name="braceleft" unicode="{" horiz-adv-x="684" 
d="M633 -317h-164q-93 0 -159 70t-66 198v358q0 50 -19 90.5t-49 64.5t-62.5 37t-62.5 15v152q68 4 130.5 58.5t62.5 147.5v363q0 125 66.5 194.5t158.5 69.5h164v-151h-101q-38 0 -63 -13t-36 -37.5t-15 -48.5t-4 -57v-354q0 -51 -13.5 -93t-33.5 -67.5t-46.5 -43.5
t-48.5 -26.5t-43 -11.5l-2 -14q23 -2 45 -8.5t49 -23.5t46.5 -42t33 -68t13.5 -98v-352q0 -33 4 -57t15 -49.5t36 -39.5t63 -14h101v-149z" />
    <glyph glyph-name="bar" unicode="|" horiz-adv-x="534" 
d="M350 -424h-166v1974h166v-1974z" />
    <glyph glyph-name="braceright" unicode="}" horiz-adv-x="684" 
d="M633 516q-70 -4 -131.5 -57.5t-61.5 -149.5v-360q0 -127 -66.5 -196.5t-160.5 -69.5h-162v149h99q38 0 63 14t37 39t16 50t4 57v350q0 69 19 118.5t50 74t59 35.5t59 14v14q-30 5 -58.5 18t-59.5 39t-50 73.5t-19 111.5v354q0 33 -4 57t-16 48.5t-37 37.5t-63 13h-99v151
h164q90 0 157.5 -70.5t67.5 -195.5v-361q0 -94 62 -148t131 -58v-152z" />
    <glyph glyph-name="asciitilde" unicode="~" horiz-adv-x="1191" 
d="M1059 643q-24 -39 -44.5 -66.5t-51 -56.5t-69 -44t-83.5 -15q-44 0 -89.5 15t-125.5 52q-9 4 -53.5 25.5t-62.5 29t-51 16.5t-60 9q-57 0 -97.5 -37.5t-76.5 -101.5l-62 135q24 39 44.5 65.5t51 55.5t69 44t83.5 15q41 0 83.5 -13.5t129.5 -51.5q18 -8 56 -27t59.5 -28
t53 -18t58.5 -9q58 0 97.5 37.5t78.5 103.5z" />
    <glyph glyph-name="uni00A0" unicode="&#xa0;" horiz-adv-x="460" 
 />
    <glyph glyph-name="exclamdown" unicode="&#xa1;" horiz-adv-x="595" 
d="M416 -352l-236 -35l47 1014h142zM432 936q0 -57 -40 -97t-97 -40q-55 0 -93 39.5t-38 95.5q0 58 38.5 97.5t94.5 39.5t95.5 -39t39.5 -96z" />
    <glyph glyph-name="cent" unicode="&#xa2;" horiz-adv-x="964" 
d="M883 113q-45 -45 -90 -74q-64 -42 -160 -55v-179h-127v179q-190 18 -279 149q-104 145 -104 371q0 300 182 457q85 75 199 92v170h129v-170q63 -5 125 -37q37 -19 96 -68l-96 -125q-48 54 -125 74v-770q99 24 155 100zM506 127v772q-40 -17 -75.5 -53t-53.5 -74
q-51 -108 -51 -280q0 -152 47 -245t133 -120z" />
    <glyph glyph-name="sterling" unicode="&#xa3;" horiz-adv-x="1208" 
d="M1137 1350l-138 -148q-98 92 -208 92q-259 0 -259 -327v-148h326v-151h-326v-494h508v-174h-927v174h211v494h-197v151h197v166q0 231 123.5 360.5t332.5 129.5q221 0 357 -125z" />
    <glyph glyph-name="currency" unicode="&#xa4;" horiz-adv-x="935" 
d="M809 184l-160 -100l-78 135q-66 -16 -114 -16q-46 0 -113 18l-82 -137l-153 100l88 140q-70 84 -70 231q0 148 76 242l-92 135l163 98l80 -135q44 12 101 12q64 0 110 -16l74 139l156 -98l-84 -131q26 -26 50.5 -90t24.5 -162q0 -139 -67 -223zM629 557
q0 117 -41.5 175.5t-134.5 58.5q-84 0 -126 -50.5t-42 -173.5q0 -128 38.5 -189t137.5 -61q75 0 121.5 57t46.5 183z" />
    <glyph glyph-name="yen" unicode="&#xa5;" horiz-adv-x="1122" 
d="M1112 1413l-332 -622h279v-142h-350l-47 -86v-112h397v-140h-397v-311h-205v311h-379v140h379v116l-45 82h-334v142h264l-332 622h242l233 -481q45 -91 78 -182q54 123 82 180l238 483h229z" />
    <glyph glyph-name="brokenbar" unicode="&#xa6;" horiz-adv-x="534" 
d="M350 709h-166v841h166v-841zM350 -424h-166v842h166v-842z" />
    <glyph glyph-name="section" unicode="&#xa7;" horiz-adv-x="1157" 
d="M1034 580q0 -87 -49 -157t-133 -114q137 -98 137 -254q0 -88 -39 -158t-104 -111.5t-141.5 -63t-157.5 -21.5q-94 0 -173 24t-145.5 81t-105.5 143l184 88q25 -83 92 -123.5t158 -40.5q39 0 75 9.5t66.5 28.5t49 52t18.5 76q0 36 -16 65t-52 54t-67.5 41t-87.5 41
q-148 67 -246 129q-141 90 -141 249q0 101 52 172t152 125q-155 90 -155 242q0 80 35 145t93 105t128.5 61t146.5 21q125 0 230 -47t157 -148l-180 -100q-25 60 -82 91.5t-125 31.5q-78 0 -134 -40t-56 -118q0 -101 102 -147l205 -97q42 -20 63.5 -31t59.5 -33.5t59.5 -39.5
t49 -44t42 -53t25 -61t10.5 -73zM836 543q0 37 -16 68.5t-47 56t-56.5 39.5t-63.5 34l-164 80q-65 -28 -103 -65t-38 -97q0 -23 6 -43.5t13 -35.5t23.5 -30.5t26.5 -24t33.5 -21.5t33 -17.5t36.5 -17.5l197 -94q51 24 85 70t34 98z" />
    <glyph glyph-name="dieresis" unicode="&#xa8;" horiz-adv-x="931" 
d="M799 1284q0 -53 -35 -91t-84 -38q-51 0 -86 38t-35 91t35 90t86 37q48 0 83.5 -37.5t35.5 -89.5zM373 1284q0 -53 -35 -91t-86 -38q-49 0 -84 38t-35 91t35 90t84 37q50 0 85.5 -37.5t35.5 -89.5z" />
    <glyph glyph-name="copyright" unicode="&#xa9;" horiz-adv-x="1755" 
d="M1632 727q0 -210 -102.5 -385.5t-276 -276t-376.5 -100.5q-153 0 -292 59.5t-240.5 160.5t-161.5 243t-60 299t60 299t161.5 243t240.5 160.5t292 59.5q203 0 376.5 -100.5t276 -276t102.5 -385.5zM1485 727q0 176 -81.5 322.5t-221 230.5t-305.5 84q-125 0 -237 -49.5
t-193.5 -134.5t-129 -203t-47.5 -250q0 -175 80.5 -322t220.5 -232t306 -85q165 0 305 85t221.5 232t81.5 322zM1118 365q-101 -76 -233 -76q-168 0 -269 123q-96 119 -96 303q0 154 55 258q47 92 130.5 144t183.5 52q135 0 211 -67l-64 -92q-67 47 -145 47
q-112 0 -170 -103q-45 -79 -45 -223q0 -139 35 -211q55 -121 188 -121q85 0 152 56z" />
    <glyph glyph-name="ordfeminine" unicode="&#xaa;" horiz-adv-x="849" 
d="M752 846l-72 -96q-77 31 -102 114q-32 -34 -64 -59q-65 -47 -158 -47q-120 0 -188 65q-59 59 -59 162q0 132 99.5 200t287.5 68h57v52q0 83 -23 112q-33 39 -96 39q-64 0 -145 -35q-48 -20 -92 -53l-64 105q38 23 58.5 33.5t65 29.5t94.5 28t106 9q74 0 129.5 -25.5
t81.5 -72.5q19 -35 24.5 -71.5t3.5 -100.5l-6 -281q-2 -78 10 -114.5t52 -61.5zM758 485h-666v117h666v-117zM549 1159q-24 6 -45 6q-147 0 -203 -53q-41 -38 -41 -117q0 -64 32 -99.5t91 -35.5q48 0 91.5 28.5t72.5 74.5z" />
    <glyph glyph-name="guillemotleft" unicode="&#xab;" horiz-adv-x="1054" 
d="M963 133l-127 -86l-299 453l299 454l127 -88l-236 -366zM539 133l-127 -86l-299 453l299 454l127 -88l-236 -366z" />
    <glyph glyph-name="logicalnot" unicode="&#xac;" horiz-adv-x="1083" 
d="M961 147h-187v287h-651v166h838v-453z" />
    <glyph glyph-name="uni00AD" unicode="&#xad;" horiz-adv-x="641" 
d="M528 461h-415v186h415v-186z" />
    <glyph glyph-name="registered" unicode="&#xae;" horiz-adv-x="1755" 
d="M1632 727q0 -210 -102.5 -385.5t-276 -276t-376.5 -100.5q-153 0 -292 59.5t-240.5 160.5t-161.5 243t-60 299t60 299t161.5 243t240.5 160.5t292 59.5q203 0 376.5 -100.5t276 -276t102.5 -385.5zM1485 727q0 176 -81.5 322.5t-221 230.5t-305.5 84q-125 0 -237 -49.5
t-193.5 -134.5t-129 -203t-47.5 -250q0 -175 80.5 -322t220.5 -232t306 -85q165 0 305 85t221.5 232t81.5 322zM1214 303h-167l-74 133q-76 139 -146 209q-25 25 -55 27v-369h-139v852h260q136 0 206 -69t70 -175q0 -100 -58.5 -166.5t-152.5 -66.5q38 -20 132 -170z
M1022 909q0 66 -40 98.5t-132 32.5h-78v-270h74q100 0 137 37q39 39 39 102z" />
    <glyph glyph-name="macron" unicode="&#xaf;" horiz-adv-x="718" 
d="M647 1386h-575v130h575v-130z" />
    <glyph glyph-name="degree" unicode="&#xb0;" horiz-adv-x="856" 
d="M764 1075q0 -157 -92.5 -250.5t-243.5 -93.5q-158 0 -247 93t-89 255q0 159 91 252.5t241 93.5q160 0 250 -93t90 -257zM606 1067q0 131 -44 186.5t-136 55.5q-176 0 -176 -222q0 -130 43.5 -184.5t136.5 -54.5q176 0 176 219z" />
    <glyph glyph-name="plusminus" unicode="&#xb1;" horiz-adv-x="1026" 
d="M913 586h-307v-291h-186v291h-307v176h307v278h186v-278h307v-176zM909 63h-792v177h792v-177z" />
    <glyph glyph-name="twosuperior" unicode="&#xb2;" horiz-adv-x="757" 
d="M666 639l-35 -127h-520v96q77 55 194 178q170 178 170 293q0 55 -32.5 87t-82.5 32q-15 0 -29.5 -2t-31 -8t-26 -9.5t-28 -14.5t-23.5 -13.5t-26.5 -17t-23.5 -15.5l-80 86q156 129 305 129q107 0 178.5 -68t71.5 -169q0 -51 -18 -101t-56 -100.5t-65.5 -81t-77.5 -80.5
q-46 -46 -104 -96q8 0 27.5 1t27.5 1h285z" />
    <glyph glyph-name="threesuperior" unicode="&#xb3;" horiz-adv-x="761" 
d="M670 766q0 -83 -56.5 -150t-146.5 -104q-95 -39 -240 -39q-55 0 -88 4l-39 119q71 -12 101 -12q159 0 241 71q56 47 56 121q0 37 -20.5 65t-55.5 38q-36 10 -133 10h-45v121h69q35 0 59 2.5t52 11.5t42.5 29.5t14.5 52.5q0 44 -30 70t-84 26q-82 0 -193 -78l-82 93
q58 52 137 84t156 32q112 0 187 -60.5t75 -154.5q0 -117 -106 -172q60 -27 94.5 -73t34.5 -107z" />
    <glyph glyph-name="acute" unicode="&#xb4;" horiz-adv-x="708" 
d="M606 1362l-444 -209l-60 111l412 272z" />
    <glyph glyph-name="mu" unicode="&#xb5;" horiz-adv-x="1130" 
d="M1010 72l-127 -101q-39 30 -61.5 63.5t-35.5 84.5q-121 -148 -309 -148q-67 0 -112 43q8 -39 8 -100v-301l-199 -45v1452l188 39v-713q0 -78 10 -115.5t38 -62.5q49 -45 118 -45t135.5 46.5t98.5 115.5v731l184 37v-752q0 -105 29 -178q12 -31 35 -51z" />
    <glyph glyph-name="paragraph" unicode="&#xb6;" horiz-adv-x="1228" 
d="M1044 -256h-145v1581h-248v-1581h-147v930q-192 0 -312 106.5t-120 268.5q0 196 123.5 299.5t339.5 103.5h509v-1708z" />
    <glyph glyph-name="periodcentered" unicode="&#xb7;" horiz-adv-x="595" 
d="M442 569q0 -63 -42.5 -108t-102.5 -45t-101.5 45t-41.5 108q0 64 41.5 108t101.5 44t102.5 -44t42.5 -108z" />
    <glyph glyph-name="cedilla" unicode="&#xb8;" horiz-adv-x="589" 
d="M477 -231q0 -69 -54.5 -122t-148.5 -53q-72 0 -161 50l45 98q71 -31 114 -31q29 0 50.5 17.5t21.5 44.5q0 28 -22 44.5t-54 16.5q-21 0 -63 -6l2 43l39 154l119 -15l-27 -90q139 -18 139 -151z" />
    <glyph glyph-name="onesuperior" unicode="&#xb9;" horiz-adv-x="675" 
d="M584 512h-404v127h129v496q-64 -41 -178 -78l-39 88l260 174h111v-680h121v-127z" />
    <glyph glyph-name="ordmasculine" unicode="&#xba;" horiz-adv-x="849" 
d="M756 1153q0 -181 -90 -288t-242 -107q-154 0 -243 108t-89 295q0 185 88.5 293.5t239.5 108.5q110 0 187 -55t113 -146t36 -209zM590 1147q0 162 -43 227.5t-127 65.5q-87 0 -124.5 -62.5t-37.5 -199.5q0 -164 40 -230.5t128 -66.5q164 0 164 266zM758 485h-666v117h666
v-117z" />
    <glyph glyph-name="guillemotright" unicode="&#xbb;" horiz-adv-x="1054" 
d="M942 500l-299 -453l-127 86l238 367l-238 366l127 88zM518 500l-299 -453l-127 86l240 367l-240 366l127 88z" />
    <glyph glyph-name="onequarter" unicode="&#xbc;" horiz-adv-x="2019" 
d="M584 512h-404v127h129v496q-64 -41 -178 -78l-39 88l260 174h111v-680h121v-127zM1642 1565l-1073 -1878h-149l1071 1878h151zM1968 145h-86l-12 2q0 -3 1 -12.5t1 -13.5v-129l-152 -33v164q0 3 1 11.5t1 12.5q-4 0 -13 -1t-13 -1h-340v105l286 559h168q-4 -9 -44 -90
t-73 -148t-80 -155.5t-81 -145.5l27 2h151l12 -2q-2 22 -2 31.5t2.5 33.5t3.5 36l17 204l129 33v-295q0 -6 -2 -21.5t-2 -21.5l12 2h88v-127z" />
    <glyph glyph-name="onehalf" unicode="&#xbd;" horiz-adv-x="1980" 
d="M584 512h-404v127h129v496q-64 -41 -178 -78l-39 88l260 174h111v-680h121v-127zM1602 1565l-1074 -1878h-149l1071 1878h152zM1929 127l-35 -127h-520v96q80 57 195 178q170 178 170 293q0 55 -32.5 87t-82.5 32q-15 0 -29.5 -2t-31 -8t-26 -9.5t-28 -14.5t-23.5 -13.5
t-26.5 -17t-23.5 -15.5l-80 86q156 129 305 129q107 0 178.5 -68t71.5 -169q0 -51 -18 -101t-56 -100.5t-65.5 -81t-77.5 -80.5q-40 -40 -105 -96q8 0 28 1t28 1h284z" />
    <glyph glyph-name="threequarters" unicode="&#xbe;" horiz-adv-x="2105" 
d="M670 766q0 -83 -56.5 -150t-146.5 -104q-95 -39 -240 -39q-55 0 -88 4l-39 119q71 -12 101 -12q159 0 241 71q56 47 56 121q0 37 -20.5 65t-55.5 38q-36 10 -133 10h-45v121h69q35 0 59 2.5t52 11.5t42.5 29.5t14.5 52.5q0 44 -30 70t-84 26q-82 0 -193 -78l-82 93
q58 52 137 84t156 32q112 0 187 -60.5t75 -154.5q0 -117 -106 -172q60 -27 94.5 -73t34.5 -107zM1688 1565l-1074 -1878h-149l1071 1878h152zM2054 145h-86l-12 2q0 -3 1 -12.5t1 -13.5v-129l-152 -33v164q0 3 1 11.5t1 12.5q-4 0 -13 -1t-13 -1h-340v105l287 559h167
q-4 -9 -44 -90t-73 -148t-80 -155.5t-81 -145.5l27 2h151l12 -2q-2 22 -2 31.5t2.5 33.5t3.5 36l17 204l129 33v-295q0 -6 -2 -21.5t-2 -21.5l12 2h88v-127z" />
    <glyph glyph-name="questiondown" unicode="&#xbf;" horiz-adv-x="913" 
d="M821 -256q-66 -56 -165.5 -93.5t-209.5 -37.5q-147 0 -240 84t-93 227q0 187 192 318q61 40 97 104.5t36 136.5q0 57 -8 103h162q0 -1 3 -15.5t5.5 -28.5t5 -36.5t2.5 -42.5q0 -95 -39.5 -170.5t-97.5 -120.5q-52 -40 -74.5 -59t-49.5 -48t-36.5 -56.5t-9.5 -61.5
q0 -78 52 -124t132 -46q59 0 134 26.5t120 65.5zM633 926q0 -59 -42 -101.5t-102 -42.5q-58 0 -99.5 42.5t-41.5 101.5q0 61 41 103t100 42t101.5 -42t42.5 -103z" />
    <glyph glyph-name="Agrave" unicode="&#xc0;" horiz-adv-x="1183" 
d="M1174 0h-222l-125 399h-489l-123 -399h-205l463 1413h246zM784 563q-19 49 -97.5 320.5t-92.5 333.5h-12q-16 -63 -96.5 -334t-98.5 -320h397zM772 1591l-57 -110l-445 209l90 174z" />
    <glyph glyph-name="Aacute" unicode="&#xc1;" horiz-adv-x="1183" 
d="M1174 0h-222l-125 399h-489l-123 -399h-205l463 1413h246zM784 563q-19 49 -97.5 320.5t-92.5 333.5h-12q-16 -63 -96.5 -334t-98.5 -320h397zM924 1690l-445 -209l-59 110l411 273z" />
    <glyph glyph-name="Acircumflex" unicode="&#xc2;" horiz-adv-x="1183" 
d="M1174 0h-222l-125 399h-489l-123 -399h-205l463 1413h246zM784 563q-19 49 -97.5 320.5t-92.5 333.5h-12q-16 -63 -96.5 -334t-98.5 -320h397zM948 1575l-74 -105l-282 177l-275 -177l-65 105l346 283z" />
    <glyph glyph-name="Atilde" unicode="&#xc3;" horiz-adv-x="1183" 
d="M1174 0h-222l-125 399h-489l-123 -399h-205l463 1413h246zM784 563q-19 49 -97.5 320.5t-92.5 333.5h-12q-16 -63 -96.5 -334t-98.5 -320h397zM936 1665q-55 -70 -107.5 -102.5t-134.5 -32.5q-42 0 -77.5 13.5t-57 29.5t-55.5 29.5t-74 13.5q-43 0 -71 -18.5t-64 -59.5
l-64 107q54 70 105.5 101.5t134.5 31.5q42 0 77.5 -13t57 -29t55.5 -29t74 -13q43 0 71.5 18.5t65.5 59.5z" />
    <glyph glyph-name="Adieresis" unicode="&#xc4;" horiz-adv-x="1183" 
d="M1174 0h-222l-125 399h-489l-123 -399h-205l463 1413h246zM784 563q-19 49 -97.5 320.5t-92.5 333.5h-12q-16 -63 -96.5 -334t-98.5 -320h397zM502 1612q0 -53 -35 -91t-86 -38q-49 0 -84 38t-35 91t35 90t84 37q50 0 85.5 -37.5t35.5 -89.5zM928 1612q0 -53 -35 -91
t-86 -38q-49 0 -84 38t-35 91t35 90t84 37q50 0 85.5 -37.5t35.5 -89.5z" />
    <glyph glyph-name="Aring" unicode="&#xc5;" horiz-adv-x="1183" 
d="M1174 0h-222l-125 399h-489l-123 -399h-205l463 1413h246zM784 563q-19 49 -97.5 320.5t-92.5 333.5h-12q-16 -63 -96.5 -334t-98.5 -320h397zM801 1679q0 -88 -62.5 -152.5t-148.5 -64.5q-84 0 -144.5 64.5t-60.5 152.5q0 89 62 153t147 64t146 -64t61 -153zM715 1679
q0 53 -35.5 91t-83.5 38q-54 0 -90.5 -37.5t-36.5 -91.5q0 -53 36 -91t85 -38q51 0 88 38t37 91z" />
    <glyph glyph-name="AE" unicode="&#xc6;" horiz-adv-x="1767" 
d="M1696 0h-789v401h-463l-237 -401h-217l854 1405h831l-26 -162h-543v-426h455v-166h-453v-481h588v-170zM911 1186l-12 4l-362 -627h370v395q0 7 2 106t2 122z" />
    <glyph glyph-name="Ccedilla" unicode="&#xc7;" horiz-adv-x="1187" 
d="M1096 98q-165 -118 -396 -118l-22 -66q141 -19 141 -150q0 -67 -55 -118.5t-148 -51.5q-74 0 -163 50l45 96q71 -31 114 -31q29 0 51.5 17.5t22.5 42.5q0 28 -22.5 43.5t-53.5 15.5q-10 0 -28.5 -3.5t-22.5 -4.5l-16 24l39 150q-171 42 -293 182q-166 193 -166 520
q0 239 92 418q79 152 212 237t296 85q206 0 346 -109l-96 -129q-115 82 -250 82q-194 0 -301 -178q-80 -135 -80 -402q0 -120 11.5 -195t39.5 -138q48 -112 139 -170t205 -58q136 0 262 88z" />
    <glyph glyph-name="Egrave" unicode="&#xc8;" horiz-adv-x="1046" 
d="M975 0h-791v1411h768l-26 -162h-541v-430h453v-166h-453v-483h590v-170zM807 1591l-57 -110l-445 209l90 174z" />
    <glyph glyph-name="Eacute" unicode="&#xc9;" horiz-adv-x="1046" 
d="M975 0h-791v1411h768l-26 -162h-541v-430h453v-166h-453v-483h590v-170zM858 1690l-444 -209l-60 110l412 273z" />
    <glyph glyph-name="Ecircumflex" unicode="&#xca;" horiz-adv-x="1046" 
d="M975 0h-791v1411h768l-26 -162h-541v-430h453v-166h-453v-483h590v-170zM926 1575l-74 -105l-283 177l-274 -177l-66 105l346 283z" />
    <glyph glyph-name="Edieresis" unicode="&#xcb;" horiz-adv-x="1046" 
d="M975 0h-791v1411h768l-26 -162h-541v-430h453v-166h-453v-483h590v-170zM492 1612q0 -53 -35 -91t-86 -38q-49 0 -84 38t-35 91t35 90t84 37q50 0 85.5 -37.5t35.5 -89.5zM920 1612q0 -53 -35 -91t-86 -38q-49 0 -84 38t-35 91t35 90t84 37q50 0 85.5 -37.5t35.5 -89.5z
" />
    <glyph glyph-name="Igrave" unicode="&#xcc;" horiz-adv-x="569" 
d="M395 0h-200v1411h200v-1411zM471 1599l-57 -110l-445 209l90 174z" />
    <glyph glyph-name="Iacute" unicode="&#xcd;" horiz-adv-x="569" 
d="M395 0h-200v1411h200v-1411zM633 1698l-445 -209l-59 110l412 273z" />
    <glyph glyph-name="Icircumflex" unicode="&#xce;" horiz-adv-x="569" 
d="M395 0h-200v1411h200v-1411zM643 1583l-74 -104l-282 176l-275 -176l-65 104l346 283z" />
    <glyph glyph-name="Idieresis" unicode="&#xcf;" horiz-adv-x="569" 
d="M395 0h-200v1411h200v-1411zM201 1616q0 -53 -35 -91t-86 -38q-49 0 -84 38t-35 91t35 90t84 37q50 0 85.5 -37.5t35.5 -89.5zM629 1616q0 -53 -35 -91t-86 -38q-49 0 -84 38t-35 91t35 90t84 37q50 0 85.5 -37.5t35.5 -89.5z" />
    <glyph glyph-name="Eth" unicode="&#xd0;" horiz-adv-x="1288" 
d="M1165 705q0 -325 -153 -515q-77 -97 -187 -143.5t-288 -46.5h-353v647h-168v141h168v623h328q189 0 311.5 -51.5t216.5 -181.5q125 -174 125 -473zM946 680q0 160 -22.5 266.5t-81.5 181.5q-57 71 -124 98t-173 27h-160v-465h297l-18 -141h-279v-485h156q125 0 204 36.5
t125 120.5q76 140 76 361z" />
    <glyph glyph-name="Ntilde" unicode="&#xd1;" horiz-adv-x="1308" 
d="M1124 0h-211l-370 750q-132 266 -172 387l-13 -2q13 -163 17 -394l8 -741h-199v1411h230l393 -778q40 -80 85 -191.5t54 -146.5l12 4q-20 205 -20 420l-4 692h190v-1411zM1008 1665q-55 -70 -107.5 -102.5t-134.5 -32.5q-42 0 -77.5 13.5t-57 29.5t-55.5 29.5t-74 13.5
q-43 0 -71 -18.5t-64 -59.5l-64 107q54 70 105.5 101.5t134.5 31.5q42 0 77.5 -13t57 -29t55.5 -29t74 -13q43 0 71.5 18.5t65.5 59.5z" />
    <glyph glyph-name="Ograve" unicode="&#xd2;" horiz-adv-x="1396" 
d="M1274 696q0 -216 -67 -378t-196.5 -251.5t-305.5 -89.5q-143 0 -254.5 55t-182.5 153.5t-108 231.5t-37 294q0 344 154 534.5t417 190.5q121 0 219.5 -39.5t165 -107.5t111 -163t64.5 -202t20 -228zM1049 678q0 301 -81.5 452.5t-273.5 151.5q-184 0 -267 -136t-83 -413
q0 -112 11 -201.5t37 -166.5t66.5 -128.5t103 -80.5t143.5 -29q169 0 256.5 132t87.5 419zM930 1591l-58 -110l-444 209l90 174z" />
    <glyph glyph-name="Oacute" unicode="&#xd3;" horiz-adv-x="1396" 
d="M1274 696q0 -216 -67 -378t-196.5 -251.5t-305.5 -89.5q-143 0 -254.5 55t-182.5 153.5t-108 231.5t-37 294q0 344 154 534.5t417 190.5q121 0 219.5 -39.5t165 -107.5t111 -163t64.5 -202t20 -228zM1049 678q0 301 -81.5 452.5t-273.5 151.5q-184 0 -267 -136t-83 -413
q0 -112 11 -201.5t37 -166.5t66.5 -128.5t103 -80.5t143.5 -29q169 0 256.5 132t87.5 419zM975 1698l-445 -209l-59 110l412 273z" />
    <glyph glyph-name="Ocircumflex" unicode="&#xd4;" horiz-adv-x="1396" 
d="M1274 696q0 -216 -67 -378t-196.5 -251.5t-305.5 -89.5q-143 0 -254.5 55t-182.5 153.5t-108 231.5t-37 294q0 344 154 534.5t417 190.5q121 0 219.5 -39.5t165 -107.5t111 -163t64.5 -202t20 -228zM1049 678q0 301 -81.5 452.5t-273.5 151.5q-184 0 -267 -136t-83 -413
q0 -112 11 -201.5t37 -166.5t66.5 -128.5t103 -80.5t143.5 -29q169 0 256.5 132t87.5 419zM1049 1575l-74 -105l-283 177l-274 -177l-66 105l346 283z" />
    <glyph glyph-name="Otilde" unicode="&#xd5;" horiz-adv-x="1396" 
d="M1274 696q0 -216 -67 -378t-196.5 -251.5t-305.5 -89.5q-143 0 -254.5 55t-182.5 153.5t-108 231.5t-37 294q0 344 154 534.5t417 190.5q121 0 219.5 -39.5t165 -107.5t111 -163t64.5 -202t20 -228zM1049 678q0 301 -81.5 452.5t-273.5 151.5q-184 0 -267 -136t-83 -413
q0 -112 11 -201.5t37 -166.5t66.5 -128.5t103 -80.5t143.5 -29q169 0 256.5 132t87.5 419zM1038 1665q-55 -70 -107 -102.5t-134 -32.5q-42 0 -77.5 13.5t-57.5 29.5t-56 29.5t-74 13.5q-43 0 -71 -18.5t-64 -59.5l-63 107q54 71 105.5 102t133.5 31q42 0 77.5 -13t57.5 -29
t56 -29t74 -13q43 0 71.5 18.5t65.5 59.5z" />
    <glyph glyph-name="Odieresis" unicode="&#xd6;" horiz-adv-x="1396" 
d="M1274 696q0 -216 -67 -378t-196.5 -251.5t-305.5 -89.5q-143 0 -254.5 55t-182.5 153.5t-108 231.5t-37 294q0 344 154 534.5t417 190.5q121 0 219.5 -39.5t165 -107.5t111 -163t64.5 -202t20 -228zM1049 678q0 301 -81.5 452.5t-273.5 151.5q-184 0 -267 -136t-83 -413
q0 -112 11 -201.5t37 -166.5t66.5 -128.5t103 -80.5t143.5 -29q169 0 256.5 132t87.5 419zM600 1612q0 -53 -35 -91t-86 -38q-49 0 -84 38t-35 91t35 90t84 37q50 0 85.5 -37.5t35.5 -89.5zM1026 1612q0 -53 -35 -91t-86 -38q-49 0 -84 38t-35 91t35 90t84 37
q50 0 85.5 -37.5t35.5 -89.5z" />
    <glyph glyph-name="multiply" unicode="&#xd7;" horiz-adv-x="1177" 
d="M993 272l-123 -122l-280 280l-275 -276l-127 127l277 274l-281 281l123 122l281 -280l274 276l127 -127l-276 -274z" />
    <glyph glyph-name="Oslash" unicode="&#xd8;" horiz-adv-x="1396" 
d="M1274 694q0 -215 -61 -363t-183 -247q-72 -59 -148.5 -85t-176.5 -26q-180 0 -314 90l-137 -235l-111 66l154 256q-174 209 -174 559q0 231 76.5 402t214.5 253q119 70 280 70q178 0 316 -88l125 215l112 -66l-141 -238q84 -114 126 -237t42 -326zM918 1194
q-92 86 -224 86q-91 0 -167 -41.5t-111 -110.5q-72 -141 -72 -399q0 -235 57 -403zM1049 676q0 236 -54 393l-516 -864q43 -37 104.5 -59.5t121.5 -22.5q164 0 251 125q47 70 70 170t23 258z" />
    <glyph glyph-name="Ugrave" unicode="&#xd9;" horiz-adv-x="1298" 
d="M1124 442q0 -134 -13 -187.5t-60 -111.5q-136 -166 -406 -166q-316 0 -426 197q-28 50 -36.5 96.5t-8.5 155.5v985h199v-911q0 -217 51 -275q69 -80 223 -80q159 0 230 93q51 66 51 233v940h196v-969zM848 1591l-57 -110l-445 209l90 174z" />
    <glyph glyph-name="Uacute" unicode="&#xda;" horiz-adv-x="1298" 
d="M1124 442q0 -134 -13 -187.5t-60 -111.5q-136 -166 -406 -166q-316 0 -426 197q-28 50 -36.5 96.5t-8.5 155.5v985h199v-911q0 -217 51 -275q69 -80 223 -80q159 0 230 93q51 66 51 233v940h196v-969zM920 1690l-445 -209l-59 110l411 273z" />
    <glyph glyph-name="Ucircumflex" unicode="&#xdb;" horiz-adv-x="1298" 
d="M1124 442q0 -134 -13 -187.5t-60 -111.5q-136 -166 -406 -166q-316 0 -426 197q-28 50 -36.5 96.5t-8.5 155.5v985h199v-911q0 -217 51 -275q69 -80 223 -80q159 0 230 93q51 66 51 233v940h196v-969zM1004 1575l-74 -105l-283 177l-274 -177l-66 105l346 283z" />
    <glyph glyph-name="Udieresis" unicode="&#xdc;" horiz-adv-x="1298" 
d="M1124 442q0 -134 -13 -187.5t-60 -111.5q-136 -166 -406 -166q-316 0 -426 197q-28 50 -36.5 96.5t-8.5 155.5v985h199v-911q0 -217 51 -275q69 -80 223 -80q159 0 230 93q51 66 51 233v940h196v-969zM555 1612q0 -53 -35 -91t-86 -38q-49 0 -84 38t-35 91t35 90t84 37
q50 0 85.5 -37.5t35.5 -89.5zM983 1612q0 -53 -35 -91t-86 -38q-49 0 -84 38t-35 91t35 90t84 37q50 0 85.5 -37.5t35.5 -89.5z" />
    <glyph glyph-name="Yacute" unicode="&#xdd;" horiz-adv-x="1060" 
d="M1081 1411l-450 -850v-561h-205v565l-446 846h241l234 -481q41 -83 77 -182q54 123 82 180l238 483h229zM836 1698l-445 -209l-59 110l411 273z" />
    <glyph glyph-name="Thorn" unicode="&#xde;" horiz-adv-x="1134" 
d="M1083 795q0 -122 -39.5 -207t-132.5 -156q-58 -44 -124 -65t-173 -21h-233v-346h-197v1411h197v-207h180q134 0 206 -14.5t130 -50.5q186 -117 186 -344zM864 772q0 135 -69 201q-72 69 -230 69h-184v-536h221q140 0 203 80q59 74 59 186z" />
    <glyph glyph-name="germandbls" unicode="&#xdf;" horiz-adv-x="1202" 
d="M1100 371q0 -100 -44.5 -184t-123.5 -140q-100 -70 -242 -70q-110 0 -176 29l49 127q64 -20 103 -20q101 0 165 68t64 177q0 70 -35 129q-26 43 -63.5 72t-126.5 76q-144 78 -144 170q0 51 28.5 88t102.5 76q65 33 90 71t25 99q0 95 -63 143q-48 39 -127 39
q-114 0 -164 -90q-22 -40 -27.5 -89.5t-5.5 -152.5l4 -782q0 -89 -33 -207h-186q35 149 35 246l-6 641h-158v139h156v45q0 117 27 180.5t93 122.5q97 88 273 88q172 0 280.5 -88.5t108.5 -228.5q0 -108 -78 -180q-65 -62 -149 -91q-25 -8 -42.5 -22.5t-17.5 -30.5
q0 -30 49 -55q19 -10 91.5 -45.5t105.5 -54.5q79 -45 120.5 -121.5t41.5 -173.5z" />
    <glyph glyph-name="agrave" unicode="&#xe0;" horiz-adv-x="1073" 
d="M969 84l-97 -127q-100 40 -137 147q-110 -135 -291 -135q-156 0 -243.5 77.5t-87.5 223.5q0 177 135.5 271t386.5 94q45 0 72 -2v67q0 51 -5 83.5t-21 62.5t-49 43.5t-85 13.5q-78 0 -163.5 -33.5t-152.5 -83.5l-86 136q56 32 85 47t89 40t123 36.5t133 11.5
q114 0 191 -41.5t106 -122.5q21 -59 21 -180q0 -27 -4 -161.5t-4 -219.5q0 -117 14 -165.5t70 -82.5zM702 504q-58 4 -61 4q-203 0 -268 -74q-30 -35 -42 -67t-12 -82q0 -85 42 -132t120 -47q64 0 121.5 37t93.5 99zM754 1264l-58 -111l-444 209l90 174z" />
    <glyph glyph-name="aacute" unicode="&#xe1;" horiz-adv-x="1073" 
d="M969 84l-97 -127q-100 40 -137 147q-110 -135 -291 -135q-156 0 -243.5 77.5t-87.5 223.5q0 177 135.5 271t386.5 94q45 0 72 -2v67q0 51 -5 83.5t-21 62.5t-49 43.5t-85 13.5q-78 0 -163.5 -33.5t-152.5 -83.5l-86 136q56 32 85 47t89 40t123 36.5t133 11.5
q114 0 191 -41.5t106 -122.5q21 -59 21 -180q0 -27 -4 -161.5t-4 -219.5q0 -117 14 -165.5t70 -82.5zM702 504q-58 4 -61 4q-203 0 -268 -74q-30 -35 -42 -67t-12 -82q0 -85 42 -132t120 -47q64 0 121.5 37t93.5 99zM827 1362l-444 -209l-59 111l411 272z" />
    <glyph glyph-name="acircumflex" unicode="&#xe2;" horiz-adv-x="1073" 
d="M969 84l-97 -127q-100 40 -137 147q-110 -135 -291 -135q-156 0 -243.5 77.5t-87.5 223.5q0 177 135.5 271t386.5 94q45 0 72 -2v67q0 51 -5 83.5t-21 62.5t-49 43.5t-85 13.5q-78 0 -163.5 -33.5t-152.5 -83.5l-86 136q56 32 85 47t89 40t123 36.5t133 11.5
q114 0 191 -41.5t106 -122.5q21 -59 21 -180q0 -27 -4 -161.5t-4 -219.5q0 -117 14 -165.5t70 -82.5zM702 504q-58 4 -61 4q-203 0 -268 -74q-30 -35 -42 -67t-12 -82q0 -85 42 -132t120 -47q64 0 121.5 37t93.5 99zM891 1247l-74 -104l-282 176l-275 -176l-65 104l346 283z
" />
    <glyph glyph-name="atilde" unicode="&#xe3;" horiz-adv-x="1073" 
d="M969 84l-97 -127q-100 40 -137 147q-110 -135 -291 -135q-156 0 -243.5 77.5t-87.5 223.5q0 177 135.5 271t386.5 94q45 0 72 -2v67q0 51 -5 83.5t-21 62.5t-49 43.5t-85 13.5q-78 0 -163.5 -33.5t-152.5 -83.5l-86 136q56 32 85 47t89 40t123 36.5t133 11.5
q114 0 191 -41.5t106 -122.5q21 -59 21 -180q0 -27 -4 -161.5t-4 -219.5q0 -117 14 -165.5t70 -82.5zM702 504q-58 4 -61 4q-203 0 -268 -74q-30 -35 -42 -67t-12 -82q0 -85 42 -132t120 -47q64 0 121.5 37t93.5 99zM870 1337q-55 -70 -107 -102.5t-134 -32.5
q-42 0 -77.5 13.5t-57 29.5t-55.5 29.5t-74 13.5q-43 0 -71.5 -18.5t-64.5 -59.5l-63 107q54 70 105.5 101.5t134.5 31.5q42 0 77.5 -13t57 -29t55.5 -29t74 -13q43 0 71.5 18.5t65.5 59.5z" />
    <glyph glyph-name="adieresis" unicode="&#xe4;" horiz-adv-x="1073" 
d="M969 84l-97 -127q-100 40 -137 147q-110 -135 -291 -135q-156 0 -243.5 77.5t-87.5 223.5q0 177 135.5 271t386.5 94q45 0 72 -2v67q0 51 -5 83.5t-21 62.5t-49 43.5t-85 13.5q-78 0 -163.5 -33.5t-152.5 -83.5l-86 136q56 32 85 47t89 40t123 36.5t133 11.5
q114 0 191 -41.5t106 -122.5q21 -59 21 -180q0 -27 -4 -161.5t-4 -219.5q0 -117 14 -165.5t70 -82.5zM702 504q-58 4 -61 4q-203 0 -268 -74q-30 -35 -42 -67t-12 -82q0 -85 42 -132t120 -47q64 0 121.5 37t93.5 99zM432 1284q0 -53 -35 -91t-86 -38q-49 0 -83.5 38
t-34.5 91t34.5 90t83.5 37q50 0 85.5 -37.5t35.5 -89.5zM860 1284q0 -53 -35 -91t-86 -38q-49 0 -83.5 38t-34.5 91t34.5 90t83.5 37q50 0 85.5 -37.5t35.5 -89.5z" />
    <glyph glyph-name="aring" unicode="&#xe5;" horiz-adv-x="1073" 
d="M969 84l-97 -127q-100 40 -137 147q-110 -135 -291 -135q-156 0 -243.5 77.5t-87.5 223.5q0 177 135.5 271t386.5 94q45 0 72 -2v67q0 51 -5 83.5t-21 62.5t-49 43.5t-85 13.5q-78 0 -163.5 -33.5t-152.5 -83.5l-86 136q56 32 85 47t89 40t123 36.5t133 11.5
q114 0 191 -41.5t106 -122.5q21 -59 21 -180q0 -27 -4 -161.5t-4 -219.5q0 -117 14 -165.5t70 -82.5zM702 504q-58 4 -61 4q-203 0 -268 -74q-30 -35 -42 -67t-12 -82q0 -85 42 -132t120 -47q64 0 121.5 37t93.5 99zM748 1352q0 -88 -62.5 -152.5t-148.5 -64.5
q-84 0 -144.5 64.5t-60.5 152.5q0 89 62 153t147 64t146 -64t61 -153zM662 1352q0 53 -35.5 91t-83.5 38q-54 0 -90.5 -37.5t-36.5 -91.5q0 -53 36 -91t85 -38q51 0 88 38t37 91z" />
    <glyph glyph-name="ae" unicode="&#xe6;" horiz-adv-x="1609" 
d="M1507 473h-624v-24q0 -137 43 -205q37 -60 98 -90.5t135 -30.5q144 0 254 98l70 -112q-147 -132 -365 -132q-116 0 -214 55t-122 115q-48 -62 -118 -108q-100 -68 -220 -68q-162 0 -251 86q-40 38 -60 95.5t-20 119.5q0 176 134 268.5t384 92.5q11 0 33 -1t43 -1v90
q0 90 -32 136t-128 46q-77 0 -162 -32.5t-154 -84.5l-86 136q211 135 430 135q161 0 254 -121q123 123 279 123q166 0 274 -111q64 -69 94.5 -173t30.5 -269v-33zM700 504q-32 4 -59 4q-193 0 -268 -72q-54 -51 -54 -149q0 -85 42 -131.5t120 -46.5q64 0 122 36.5t93 98.5z
M1309 612q0 144 -56.5 223.5t-154.5 79.5q-102 0 -158.5 -77t-56.5 -226h426z" />
    <glyph glyph-name="ccedilla" unicode="&#xe7;" horiz-adv-x="948" 
d="M866 115q-34 -38 -86 -72q-97 -63 -229 -63l-16 -66q137 -18 137 -150q0 -68 -54.5 -119t-148.5 -51q-76 0 -162 48l45 98q71 -31 115 -31q29 0 50.5 17t21.5 43q0 28 -22 43.5t-54 15.5q-21 0 -49 -8l-19 24l39 150q-137 34 -213 141q-98 135 -98 369q0 301 172 452
q122 103 266 103q106 0 187 -43q41 -21 92 -66l-99 -127q-52 43 -91.5 60.5t-88.5 17.5q-60 0 -108 -28t-72 -80q-49 -101 -49 -314q0 -211 82 -293q61 -61 147 -61q120 0 213 104z" />
    <glyph glyph-name="egrave" unicode="&#xe8;" horiz-adv-x="1060" 
d="M958 473h-624v-24q0 -137 43 -205q78 -121 235 -121q142 0 252 98l72 -112q-150 -132 -354 -132q-214 0 -336.5 145.5t-122.5 397.5q0 134 28.5 227t94.5 171q120 141 309 141q171 0 279 -111q68 -69 95.5 -167t28.5 -275v-33zM762 612q0 152 -64 232q-57 71 -147 71
q-105 0 -160 -80.5t-55 -222.5h426zM778 1264l-57 -111l-445 209l91 174z" />
    <glyph glyph-name="eacute" unicode="&#xe9;" horiz-adv-x="1060" 
d="M958 473h-624v-24q0 -137 43 -205q78 -121 235 -121q142 0 252 98l72 -112q-150 -132 -354 -132q-214 0 -336.5 145.5t-122.5 397.5q0 134 28.5 227t94.5 171q120 141 309 141q171 0 279 -111q68 -69 95.5 -167t28.5 -275v-33zM762 612q0 152 -64 232q-57 71 -147 71
q-105 0 -160 -80.5t-55 -222.5h426zM840 1362l-445 -209l-59 111l412 272z" />
    <glyph glyph-name="ecircumflex" unicode="&#xea;" horiz-adv-x="1060" 
d="M958 473h-624v-24q0 -137 43 -205q78 -121 235 -121q142 0 252 98l72 -112q-150 -132 -354 -132q-214 0 -336.5 145.5t-122.5 397.5q0 134 28.5 227t94.5 171q120 141 309 141q171 0 279 -111q68 -69 95.5 -167t28.5 -275v-33zM762 612q0 152 -64 232q-57 71 -147 71
q-105 0 -160 -80.5t-55 -222.5h426zM911 1247l-73 -104l-283 176l-274 -176l-66 104l346 283z" />
    <glyph glyph-name="edieresis" unicode="&#xeb;" horiz-adv-x="1060" 
d="M958 473h-624v-24q0 -137 43 -205q78 -121 235 -121q142 0 252 98l72 -112q-150 -132 -354 -132q-214 0 -336.5 145.5t-122.5 397.5q0 134 28.5 227t94.5 171q120 141 309 141q171 0 279 -111q68 -69 95.5 -167t28.5 -275v-33zM762 612q0 152 -64 232q-57 71 -147 71
q-105 0 -160 -80.5t-55 -222.5h426zM479 1284q0 -53 -35 -91t-86 -38q-49 0 -83.5 38t-34.5 91t34.5 90t83.5 37q50 0 85.5 -37.5t35.5 -89.5zM907 1284q0 -53 -35 -91t-86 -38q-49 0 -83.5 38t-34.5 91t34.5 90t83.5 37q50 0 85.5 -37.5t35.5 -89.5z" />
    <glyph glyph-name="igrave" unicode="&#xec;" horiz-adv-x="563" 
d="M389 0h-194v1020l194 31v-1051zM471 1264l-57 -111l-445 209l90 174z" />
    <glyph glyph-name="iacute" unicode="&#xed;" horiz-adv-x="563" 
d="M389 0h-194v1020l194 31v-1051zM637 1362l-444 -209l-60 111l412 272z" />
    <glyph glyph-name="icircumflex" unicode="&#xee;" horiz-adv-x="563" 
d="M389 0h-194v1020l194 31v-1051zM643 1247l-74 -104l-282 176l-275 -176l-65 104l346 283z" />
    <glyph glyph-name="idieresis" unicode="&#xef;" horiz-adv-x="563" 
d="M389 0h-194v1020l194 31v-1051zM199 1284q0 -53 -35 -91t-86 -38q-49 0 -84 38t-35 91t35 90t84 37q50 0 85.5 -37.5t35.5 -89.5zM627 1284q0 -53 -35 -91t-86 -38q-49 0 -84 38t-35 91t35 90t84 37q50 0 85.5 -37.5t35.5 -89.5z" />
    <glyph glyph-name="eth" unicode="&#xf0;" horiz-adv-x="1220" 
d="M1098 508q0 -253 -129 -397t-334 -144q-198 0 -327.5 132t-129.5 347q0 195 120.5 317t309.5 122q108 0 203 -31q-33 68 -88 139.5t-107 110.5l-86 -100l-124 73l92 105q-164 92 -318 106l113 137q148 -16 323 -106l68 78l125 -74l-70 -76q157 -126 258 -323.5
t101 -415.5zM883 489q0 35 -19 173q-33 24 -102 41.5t-133 17.5q-108 0 -170 -72.5t-62 -206.5q0 -136 68 -218.5t182 -82.5q113 0 174.5 94t61.5 254z" />
    <glyph glyph-name="ntilde" unicode="&#xf1;" horiz-adv-x="1132" 
d="M948 0h-186v692q0 68 -7 100.5t-26 57.5q-30 41 -104 41q-55 0 -128 -37.5t-126 -93.5v-760h-187v764q0 89 -8 137.5t-31 106.5l179 49q34 -67 34 -158q86 72 134 100q88 52 190 52q82 0 148 -40t94 -106q24 -56 24 -129v-776zM920 1337q-55 -70 -107.5 -102.5
t-134.5 -32.5q-42 0 -77.5 13.5t-57 29.5t-55.5 29.5t-74 13.5q-43 0 -71 -18.5t-64 -59.5l-64 107q54 70 105.5 101.5t134.5 31.5q42 0 77.5 -13t57 -29t55.5 -29t74 -13q43 0 71.5 18.5t65.5 59.5z" />
    <glyph glyph-name="ograve" unicode="&#xf2;" horiz-adv-x="1116" 
d="M1004 504q0 -244 -121.5 -388.5t-325.5 -144.5q-205 0 -324.5 146t-119.5 397q0 249 118.5 395t321.5 146q111 0 198 -42.5t141.5 -117.5t83 -174.5t28.5 -216.5zM793 496q0 154 -30.5 247.5t-81.5 129.5t-128 36q-122 0 -176.5 -89.5t-54.5 -284.5q0 -229 57.5 -323.5
t181.5 -94.5q232 0 232 379zM768 1264l-57 -111l-445 209l90 174z" />
    <glyph glyph-name="oacute" unicode="&#xf3;" horiz-adv-x="1116" 
d="M1004 504q0 -244 -121.5 -388.5t-325.5 -144.5q-205 0 -324.5 146t-119.5 397q0 249 118.5 395t321.5 146q111 0 198 -42.5t141.5 -117.5t83 -174.5t28.5 -216.5zM793 496q0 154 -30.5 247.5t-81.5 129.5t-128 36q-122 0 -176.5 -89.5t-54.5 -284.5q0 -229 57.5 -323.5
t181.5 -94.5q232 0 232 379zM866 1362l-444 -209l-60 111l412 272z" />
    <glyph glyph-name="ocircumflex" unicode="&#xf4;" horiz-adv-x="1116" 
d="M1004 504q0 -244 -121.5 -388.5t-325.5 -144.5q-205 0 -324.5 146t-119.5 397q0 249 118.5 395t321.5 146q111 0 198 -42.5t141.5 -117.5t83 -174.5t28.5 -216.5zM793 496q0 154 -30.5 247.5t-81.5 129.5t-128 36q-122 0 -176.5 -89.5t-54.5 -284.5q0 -229 57.5 -323.5
t181.5 -94.5q232 0 232 379zM909 1247l-73 -104l-283 176l-274 -176l-66 104l346 283z" />
    <glyph glyph-name="otilde" unicode="&#xf5;" horiz-adv-x="1116" 
d="M1004 504q0 -244 -121.5 -388.5t-325.5 -144.5q-205 0 -324.5 146t-119.5 397q0 249 118.5 395t321.5 146q111 0 198 -42.5t141.5 -117.5t83 -174.5t28.5 -216.5zM793 496q0 154 -30.5 247.5t-81.5 129.5t-128 36q-122 0 -176.5 -89.5t-54.5 -284.5q0 -229 57.5 -323.5
t181.5 -94.5q232 0 232 379zM901 1337q-55 -70 -107.5 -102.5t-134.5 -32.5q-42 0 -77.5 13.5t-57 29.5t-55.5 29.5t-74 13.5q-43 0 -71 -18.5t-64 -59.5l-63 107q54 71 105.5 102t133.5 31q42 0 77.5 -13t57 -29t55.5 -29t74 -13q43 0 72 19t66 59z" />
    <glyph glyph-name="odieresis" unicode="&#xf6;" horiz-adv-x="1116" 
d="M1004 504q0 -244 -121.5 -388.5t-325.5 -144.5q-205 0 -324.5 146t-119.5 397q0 249 118.5 395t321.5 146q111 0 198 -42.5t141.5 -117.5t83 -174.5t28.5 -216.5zM793 496q0 154 -30.5 247.5t-81.5 129.5t-128 36q-122 0 -176.5 -89.5t-54.5 -284.5q0 -229 57.5 -323.5
t181.5 -94.5q232 0 232 379zM459 1284q0 -53 -35 -91t-86 -38q-49 0 -84 38t-35 91t35 90t84 37q50 0 85.5 -37.5t35.5 -89.5zM885 1284q0 -53 -35 -91t-86 -38q-49 0 -84 38t-35 91t35 90t84 37q50 0 85.5 -37.5t35.5 -89.5z" />
    <glyph glyph-name="divide" unicode="&#xf7;" horiz-adv-x="1259" 
d="M1147 461h-1034v170h1034v-170zM770 121q0 -61 -42.5 -103.5t-104.5 -42.5q-60 0 -101 42t-41 104q0 63 42.5 107t103.5 44q59 0 101 -44t42 -107zM770 973q0 -63 -42.5 -106.5t-102.5 -43.5t-102 42.5t-42 103.5q0 62 42.5 105.5t103.5 43.5q59 0 101 -42.5t42 -102.5z
" />
    <glyph glyph-name="oslash" unicode="&#xf8;" horiz-adv-x="1116" 
d="M1001 504q0 -144 -35.5 -242t-111.5 -174q-61 -61 -132.5 -90t-166.5 -29q-129 0 -223 64l-107 -180l-96 57l113 194q-131 149 -131 410q0 249 118.5 395t321.5 146q123 0 225 -54l107 181l98 -60l-117 -194q137 -149 137 -424zM791 496q0 140 -35 247l-342 -577
q71 -51 145 -51q151 0 203 166q29 95 29 215zM692 860q-60 49 -141 49q-64 0 -116 -30t-75 -82q-41 -93 -41 -262q0 -141 33 -250z" />
    <glyph glyph-name="ugrave" unicode="&#xf9;" horiz-adv-x="1130" 
d="M1010 68l-129 -103q-39 30 -61.5 63.5t-35.5 84.5q-121 -148 -309 -148q-97 0 -170 41.5t-106 112.5q-25 57 -25 172v729l186 37v-715q0 -78 10 -116t38 -64q49 -45 118 -45q68 0 134.5 47t99.5 115v737l186 37v-772q0 -158 64 -213zM815 1264l-57 -111l-445 209l90 174z
" />
    <glyph glyph-name="uacute" unicode="&#xfa;" horiz-adv-x="1130" 
d="M1010 68l-129 -103q-39 30 -61.5 63.5t-35.5 84.5q-121 -148 -309 -148q-97 0 -170 41.5t-106 112.5q-25 57 -25 172v729l186 37v-715q0 -78 10 -116t38 -64q49 -45 118 -45q68 0 134.5 47t99.5 115v737l186 37v-772q0 -158 64 -213zM852 1362l-444 -209l-60 111l412 272
z" />
    <glyph glyph-name="ucircumflex" unicode="&#xfb;" horiz-adv-x="1130" 
d="M1010 68l-129 -103q-39 30 -61.5 63.5t-35.5 84.5q-121 -148 -309 -148q-97 0 -170 41.5t-106 112.5q-25 57 -25 172v729l186 37v-715q0 -78 10 -116t38 -64q49 -45 118 -45q68 0 134.5 47t99.5 115v737l186 37v-772q0 -158 64 -213zM915 1247l-73 -104l-283 176
l-274 -176l-66 104l346 283z" />
    <glyph glyph-name="udieresis" unicode="&#xfc;" horiz-adv-x="1130" 
d="M1010 68l-129 -103q-39 30 -61.5 63.5t-35.5 84.5q-121 -148 -309 -148q-97 0 -170 41.5t-106 112.5q-25 57 -25 172v729l186 37v-715q0 -78 10 -116t38 -64q49 -45 118 -45q68 0 134.5 47t99.5 115v737l186 37v-772q0 -158 64 -213zM467 1284q0 -53 -35 -91t-86 -38
q-49 0 -84 38t-35 91t35 90t84 37q50 0 85.5 -37.5t35.5 -89.5zM895 1284q0 -53 -35 -91t-86 -38q-49 0 -84 38t-35 91t35 90t84 37q50 0 85.5 -37.5t35.5 -89.5z" />
    <glyph glyph-name="yacute" unicode="&#xfd;" horiz-adv-x="980" 
d="M950 1026l-358 -1059q-81 -238 -174 -315q-78 -65 -191 -88l-59 123q105 25 178 116q23 29 41 73t43 128l-74 -10q-34 155 -98 342l-227 674l190 43l197 -645q35 -124 59 -242h12q27 116 70 254l182 606h209zM805 1362l-445 -209l-59 111l412 272z" />
    <glyph glyph-name="thorn" unicode="&#xfe;" horiz-adv-x="1159" 
d="M1036 530q0 -159 -47 -280t-137 -193q-96 -77 -221 -77q-77 0 -146 35.5t-116 99.5v-504l-185 -41v1651q0 154 -32 245l200 41q21 -114 21 -221v-237q0 -89 -6 -107l6 -4q62 62 126 88.5t142 26.5q183 0 289 -140t106 -383zM823 535q0 103 -8.5 151.5t-34.5 95.5
q-58 107 -182 107q-84 0 -162 -55q-27 -17 -63 -64v-520q40 -47 98.5 -78t122.5 -31q54 0 100.5 24.5t71.5 67.5q57 98 57 302z" />
    <glyph glyph-name="ydieresis" unicode="&#xff;" horiz-adv-x="980" 
d="M950 1026l-358 -1059q-81 -238 -174 -315q-78 -65 -191 -88l-59 123q105 25 178 116q23 29 41 73t43 128l-74 -10q-34 155 -98 342l-227 674l190 43l197 -645q35 -124 59 -242h12q27 116 70 254l182 606h209zM414 1284q0 -53 -35 -91t-86 -38q-49 0 -84 38t-35 91t35 90
t84 37q50 0 85.5 -37.5t35.5 -89.5zM842 1284q0 -53 -35 -91t-86 -38q-49 0 -84 38t-35 91t35 90t84 37q50 0 85.5 -37.5t35.5 -89.5z" />
    <glyph glyph-name="Amacron" unicode="&#x100;" horiz-adv-x="1183" 
d="M1174 0h-222l-125 399h-489l-123 -399h-205l463 1413h246zM784 563q-19 49 -97.5 320.5t-92.5 333.5h-12q-16 -63 -96.5 -334t-98.5 -320h397zM870 1540h-575v129h575v-129z" />
    <glyph glyph-name="amacron" unicode="&#x101;" horiz-adv-x="1073" 
d="M969 84l-97 -127q-100 40 -137 147q-110 -135 -291 -135q-156 0 -243.5 77.5t-87.5 223.5q0 177 135.5 271t386.5 94q45 0 72 -2v67q0 51 -5 83.5t-21 62.5t-49 43.5t-85 13.5q-78 0 -163.5 -33.5t-152.5 -83.5l-86 136q56 32 85 47t89 40t123 36.5t133 11.5
q114 0 191 -41.5t106 -122.5q21 -59 21 -180q0 -27 -4 -161.5t-4 -219.5q0 -117 14 -165.5t70 -82.5zM702 504q-58 4 -61 4q-203 0 -268 -74q-30 -35 -42 -67t-12 -82q0 -85 42 -132t120 -47q64 0 121.5 37t93.5 99zM815 1210h-575v129h575v-129z" />
    <glyph glyph-name="Abreve" unicode="&#x102;" horiz-adv-x="1183" 
d="M1174 0h-222l-125 399h-489l-123 -399h-205l463 1413h246zM784 563q-19 49 -97.5 320.5t-92.5 333.5h-12q-16 -63 -96.5 -334t-98.5 -320h397zM928 1696q-18 -26 -48 -60.5t-76.5 -78.5t-104.5 -73.5t-111 -29.5q-54 0 -112 29.5t-104.5 74t-76 78t-47.5 60.5l63 84
q31 -29 66 -56t98.5 -55.5t120.5 -28.5q110 0 274 140z" />
    <glyph glyph-name="abreve" unicode="&#x103;" horiz-adv-x="1073" 
d="M969 84l-97 -127q-100 40 -137 147q-110 -135 -291 -135q-156 0 -243.5 77.5t-87.5 223.5q0 177 135.5 271t386.5 94q45 0 72 -2v67q0 51 -5 83.5t-21 62.5t-49 43.5t-85 13.5q-78 0 -163.5 -33.5t-152.5 -83.5l-86 136q56 32 85 47t89 40t123 36.5t133 11.5
q114 0 191 -41.5t106 -122.5q21 -59 21 -180q0 -27 -4 -161.5t-4 -219.5q0 -117 14 -165.5t70 -82.5zM702 504q-58 4 -61 4q-203 0 -268 -74q-30 -35 -42 -67t-12 -82q0 -85 42 -132t120 -47q64 0 121.5 37t93.5 99zM881 1399q-18 -26 -48 -60.5t-76.5 -78.5t-104.5 -73.5
t-111 -29.5q-54 0 -112 29.5t-104.5 74t-76 78t-47.5 60.5l63 84q31 -29 66 -56t98.5 -55.5t120.5 -28.5q110 0 274 140z" />
    <glyph glyph-name="Aogonek" unicode="&#x104;" horiz-adv-x="1183" 
d="M1225 -354q-98 -52 -185 -52q-94 0 -148 51.5t-54 129.5q0 107 114 225l-125 399h-489l-123 -399h-205l463 1413h246l455 -1413h-5q-56 0 -120 -68t-64 -139q0 -29 19 -49t53 -20q66 0 121 28zM784 563q-19 49 -97.5 320.5t-92.5 333.5h-12q-16 -63 -96.5 -334
t-98.5 -320h397z" />
    <glyph glyph-name="aogonek" unicode="&#x105;" horiz-adv-x="1073" 
d="M1010 -354q-98 -52 -183 -52q-94 0 -149 51.5t-55 129.5q0 39 12.5 75t40 71.5t46 55t54.5 54.5q-28 35 -41 73q-110 -135 -291 -135q-156 0 -243.5 77.5t-87.5 223.5q0 177 135.5 271t386.5 94q45 0 72 -2v67q0 51 -5 83.5t-21 62.5t-49 43.5t-85 13.5
q-78 0 -163.5 -33.5t-152.5 -83.5l-86 136q56 32 85 47t89 40t123 36.5t133 11.5q114 0 191 -41.5t106 -122.5q21 -59 21 -180q0 -27 -4 -170t-4 -228q0 -117 14 -165t70 -82q-199 -164 -199 -277q2 -29 20 -48t52 -19q66 0 121 28zM702 504q-29 4 -61 4q-203 0 -268 -74
q-30 -35 -42 -67t-12 -82q0 -85 42 -132t120 -47q64 0 121.5 37t93.5 99z" />
    <glyph glyph-name="Cacute" unicode="&#x106;" horiz-adv-x="1187" 
d="M1096 96q-162 -116 -381 -116q-274 0 -439 210q-153 197 -153 504q0 241 92 420q79 152 212.5 238t295.5 86q210 0 346 -111l-96 -129q-112 82 -250 82q-104 0 -183.5 -52t-129.5 -151q-68 -136 -68 -379q0 -212 51 -331q48 -114 139 -172t207 -58q147 0 260 88z
M997 1690l-444 -209l-59 110l411 273z" />
    <glyph glyph-name="cacute" unicode="&#x107;" horiz-adv-x="948" 
d="M866 113q-74 -72 -145.5 -102.5t-169.5 -30.5q-222 0 -330 153q-98 138 -98 371q0 298 172 452q117 105 266 105q161 0 279 -109l-99 -129q-51 44 -91 62t-89 18q-59 0 -106.5 -29t-73.5 -81q-49 -98 -49 -314q0 -207 82 -295q58 -61 147 -61q121 0 213 106zM831 1362
l-444 -209l-59 111l411 272z" />
    <glyph glyph-name="Ccircumflex" unicode="&#x108;" horiz-adv-x="1187" 
d="M1096 96q-162 -116 -381 -116q-274 0 -439 210q-153 197 -153 504q0 241 92 420q79 152 212.5 238t295.5 86q210 0 346 -111l-96 -129q-112 82 -250 82q-104 0 -183.5 -52t-129.5 -151q-68 -136 -68 -379q0 -212 51 -331q48 -114 139 -172t207 -58q147 0 260 88z
M1077 1575l-73 -105l-283 177l-275 -177l-65 105l346 283z" />
    <glyph glyph-name="ccircumflex" unicode="&#x109;" horiz-adv-x="948" 
d="M866 113q-74 -72 -145.5 -102.5t-169.5 -30.5q-222 0 -330 153q-98 138 -98 371q0 298 172 452q117 105 266 105q161 0 279 -109l-99 -129q-51 44 -91 62t-89 18q-59 0 -106.5 -29t-73.5 -81q-49 -98 -49 -314q0 -207 82 -295q58 -61 147 -61q121 0 213 106zM911 1247
l-73 -104l-283 176l-274 -176l-66 104l346 283z" />
    <glyph glyph-name="Cdotaccent" unicode="&#x10a;" horiz-adv-x="1187" 
d="M1096 96q-162 -116 -381 -116q-274 0 -439 210q-153 197 -153 504q0 241 92 420q79 152 212.5 238t295.5 86q210 0 346 -111l-96 -129q-112 82 -250 82q-104 0 -183.5 -52t-129.5 -151q-68 -136 -68 -379q0 -212 51 -331q48 -114 139 -172t207 -58q147 0 260 88z
M864 1626q0 -59 -40 -101t-97 -42q-55 0 -93 42t-38 101q0 57 39 99t94 42q56 0 95.5 -40.5t39.5 -100.5z" />
    <glyph glyph-name="cdotaccent" unicode="&#x10b;" horiz-adv-x="948" 
d="M866 113q-74 -72 -145.5 -102.5t-169.5 -30.5q-222 0 -330 153q-98 138 -98 371q0 298 172 452q117 105 266 105q161 0 279 -109l-99 -129q-51 44 -91 62t-89 18q-59 0 -106.5 -29t-73.5 -81q-49 -98 -49 -314q0 -207 82 -295q58 -61 147 -61q121 0 213 106zM698 1337
q0 -59 -40 -101t-97 -42q-55 0 -93 42t-38 101q0 58 39 100t94 42q56 0 95.5 -41t39.5 -101z" />
    <glyph glyph-name="Ccaron" unicode="&#x10c;" horiz-adv-x="1187" 
d="M1096 96q-162 -116 -381 -116q-274 0 -439 210q-153 197 -153 504q0 241 92 420q79 152 212.5 238t295.5 86q210 0 346 -111l-96 -129q-112 82 -250 82q-104 0 -183.5 -52t-129.5 -151q-68 -136 -68 -379q0 -212 51 -331q48 -114 139 -172t207 -58q147 0 260 88z
M1047 1765l-347 -284l-350 284l74 103l285 -172l272 172z" />
    <glyph glyph-name="ccaron" unicode="&#x10d;" horiz-adv-x="948" 
d="M866 113q-74 -72 -145.5 -102.5t-169.5 -30.5q-222 0 -330 153q-98 138 -98 371q0 298 172 452q117 105 266 105q161 0 279 -109l-99 -129q-51 44 -91 62t-89 18q-59 0 -106.5 -29t-73.5 -81q-49 -98 -49 -314q0 -207 82 -295q58 -61 147 -61q121 0 213 106zM895 1425
l-346 -284l-350 284l73 103l285 -172l272 172z" />
    <glyph glyph-name="Dcaron" unicode="&#x10e;" horiz-adv-x="1288" 
d="M1165 705q0 -325 -153 -515q-77 -97 -187 -143.5t-288 -46.5h-353v1411h328q189 0 311.5 -51.5t216.5 -181.5q125 -174 125 -473zM946 680q0 160 -22.5 266.5t-81.5 181.5q-57 71 -124 98t-173 27h-160v-1091h156q125 0 204 36.5t125 120.5q76 140 76 361zM938 1765
l-346 -284l-350 284l73 103l285 -172l272 172z" />
    <glyph glyph-name="dcaron" unicode="&#x10f;" horiz-adv-x="1146" 
d="M1001 0h-180q-11 33 -18 96q-106 -112 -264 -112q-196 0 -306 138t-110 382q0 166 55.5 289.5t159.5 191.5q91 59 201 59q151 0 249 -118q0 9 -2 74.5t-2 105.5v399l189 -30v-1131q0 -267 28 -344zM782 260v537q-81 96 -217 96q-116 0 -178 -105q-53 -92 -53 -282
q0 -141 17.5 -203t62.5 -108q51 -54 151 -54q76 0 132 34t85 85zM1346 1331q0 -89 -66 -174q-52 -68 -147 -113l-58 76q104 44 113 137q0 8 -25 11q-36 6 -60 35.5t-24 70.5q0 52 36.5 88.5t88.5 36.5q63 0 102.5 -47t39.5 -121z" />
    <glyph glyph-name="Dcroat" unicode="&#x110;" horiz-adv-x="1288" 
d="M1165 705q0 -325 -153 -515q-77 -97 -187 -143.5t-288 -46.5h-353v647h-168v141h168v623h328q189 0 311.5 -51.5t216.5 -181.5q125 -174 125 -473zM946 680q0 160 -22.5 266.5t-81.5 181.5q-57 71 -124 98t-173 27h-160v-465h297l-18 -141h-279v-485h156q125 0 204 36.5
t125 120.5q76 140 76 361z" />
    <glyph glyph-name="dcroat" unicode="&#x111;" horiz-adv-x="1157" 
d="M1143 1155h-170v-811q0 -267 28 -344h-180q-11 33 -18 96q-106 -112 -264 -112q-196 0 -306 138t-110 382q0 166 55.5 289.5t159.5 191.5q91 59 201 59q151 0 249 -118q0 9 -2 74.5t-2 105.5v49h-217v129h217v221l189 -30v-191h170v-129zM782 260v537q-81 96 -217 96
q-116 0 -178 -105q-53 -92 -53 -282q0 -141 17.5 -203t62.5 -108q51 -54 151 -54q76 0 132 34t85 85z" />
    <glyph glyph-name="Emacron" unicode="&#x112;" horiz-adv-x="1046" 
d="M975 0h-791v1411h768l-26 -162h-541v-430h453v-166h-453v-483h590v-170zM858 1540h-575v129h575v-129z" />
    <glyph glyph-name="emacron" unicode="&#x113;" horiz-adv-x="1060" 
d="M958 473h-624v-24q0 -137 43 -205q78 -121 235 -121q142 0 252 98l72 -112q-150 -132 -354 -132q-214 0 -336.5 145.5t-122.5 397.5q0 134 28.5 227t94.5 171q120 141 309 141q171 0 279 -111q68 -69 95.5 -167t28.5 -275v-33zM762 612q0 152 -64 232q-57 71 -147 71
q-105 0 -160 -80.5t-55 -222.5h426zM840 1210h-576v129h576v-129z" />
    <glyph glyph-name="Ebreve" unicode="&#x114;" horiz-adv-x="1046" 
d="M975 0h-791v1411h768l-26 -162h-541v-430h453v-166h-453v-483h590v-170zM905 1786q-18 -26 -48 -60.5t-76.5 -78.5t-104.5 -73.5t-111 -29.5q-54 0 -112 29.5t-104.5 74t-76 78t-47.5 60.5l64 84q21 -20 46 -39.5t63.5 -44.5t84.5 -40t90 -15q112 0 275 139z" />
    <glyph glyph-name="ebreve" unicode="&#x115;" horiz-adv-x="1060" 
d="M958 473h-624v-24q0 -137 43 -205q78 -121 235 -121q142 0 252 98l72 -112q-150 -132 -354 -132q-214 0 -336.5 145.5t-122.5 397.5q0 134 28.5 227t94.5 171q120 141 309 141q171 0 279 -111q68 -69 95.5 -167t28.5 -275v-33zM762 612q0 152 -64 232q-57 71 -147 71
q-105 0 -160 -80.5t-55 -222.5h426zM874 1444q-18 -27 -47.5 -60.5t-76.5 -78t-104.5 -74t-110.5 -29.5q-54 0 -112 29.5t-104.5 74t-76 78t-47.5 60.5l63 84q30 -29 65.5 -55.5t99 -55t120.5 -28.5q111 0 274 139z" />
    <glyph glyph-name="Edotaccent" unicode="&#x116;" horiz-adv-x="1046" 
d="M975 0h-791v1411h768l-26 -162h-541v-430h453v-166h-453v-483h590v-170zM705 1640q0 -59 -40.5 -101t-97.5 -42q-55 0 -93 42t-38 101q0 58 39 100t94 42q56 0 96 -41t40 -101z" />
    <glyph glyph-name="edotaccent" unicode="&#x117;" horiz-adv-x="1060" 
d="M958 473h-624v-24q0 -137 43 -205q78 -121 235 -121q142 0 252 98l72 -112q-150 -132 -354 -132q-214 0 -336.5 145.5t-122.5 397.5q0 134 28.5 227t94.5 171q120 141 309 141q171 0 279 -111q68 -69 95.5 -167t28.5 -275v-33zM762 612q0 152 -64 232q-57 71 -147 71
q-105 0 -160 -80.5t-55 -222.5h426zM688 1350q0 -59 -40 -101.5t-97 -42.5q-55 0 -93 42.5t-38 101.5q0 57 39 99t94 42q56 0 95.5 -40.5t39.5 -100.5z" />
    <glyph glyph-name="Eogonek" unicode="&#x118;" horiz-adv-x="1046" 
d="M1030 -354q-98 -52 -184 -52q-94 0 -148.5 51.5t-54.5 129.5q0 106 115 225h-574v1411h768l-26 -162h-543v-430h455v-166h-453v-483h590v-170q-58 0 -121 -69t-63 -140q2 -30 19.5 -48.5t51.5 -18.5q66 0 121 28z" />
    <glyph glyph-name="eogonek" unicode="&#x119;" horiz-adv-x="1060" 
d="M958 473h-624v-24q0 -137 43 -205q78 -121 235 -121q142 0 252 98l72 -112q-17 -15 -59 -49.5t-69 -60t-59 -60.5t-48.5 -72t-16.5 -74q0 -30 19 -49.5t53 -19.5q66 0 121 28l47 -106q-98 -52 -185 -52q-94 0 -148 51.5t-54 129.5q0 101 100 205q-27 -3 -55 -3
q-214 0 -336.5 145.5t-122.5 397.5q0 134 28.5 227t94.5 171q120 141 309 141q171 0 279 -111q68 -70 96 -168t28 -274v-33zM762 612q0 152 -64 232q-57 71 -147 71q-105 0 -160 -80.5t-55 -222.5h426z" />
    <glyph glyph-name="Ecaron" unicode="&#x11a;" horiz-adv-x="1046" 
d="M975 0h-791v1411h768l-26 -162h-541v-430h453v-166h-453v-483h590v-170zM920 1765l-347 -284l-350 284l74 103l285 -172l272 172z" />
    <glyph glyph-name="ecaron" unicode="&#x11b;" horiz-adv-x="1060" 
d="M958 473h-624v-24q0 -137 43 -205q78 -121 235 -121q142 0 252 98l72 -112q-150 -132 -354 -132q-214 0 -336.5 145.5t-122.5 397.5q0 134 28.5 227t94.5 171q120 141 309 141q171 0 279 -111q68 -69 95.5 -167t28.5 -275v-33zM762 612q0 152 -64 232q-57 71 -147 71
q-105 0 -160 -80.5t-55 -222.5h426zM901 1425l-346 -284l-350 284l74 103l284 -172l273 172z" />
    <glyph glyph-name="Gcircumflex" unicode="&#x11c;" horiz-adv-x="1325" 
d="M1151 92q-86 -54 -195.5 -83t-222.5 -29q-283 0 -446 190q-85 98 -124.5 226t-39.5 302q0 411 244 611q147 121 354 121q235 0 399 -142l-94 -123q-78 57 -148.5 82t-152.5 25q-217 0 -303 -180q-47 -96 -62.5 -183t-15.5 -221q0 -296 100 -426q45 -59 128.5 -93
t175.5 -34q116 0 208 53v402h-260l-32 162h487v-660zM1069 1575l-74 -105l-282 177l-275 -177l-65 105l346 283z" />
    <glyph glyph-name="gcircumflex" unicode="&#x11d;" horiz-adv-x="1107" 
d="M1108 942q-77 -61 -170 -61q-32 0 -88 16q74 -95 74 -188q0 -58 -20.5 -112t-62.5 -101.5t-116 -76t-170 -28.5q-59 -19 -110.5 -50.5t-51.5 -61.5q0 -24 19 -38t55 -14h158q187 0 278.5 -77t91.5 -205q0 -161 -118.5 -246.5t-313.5 -85.5q-215 0 -332.5 71t-117.5 199
q0 49 18 105l184 10q-18 -36 -18 -78q0 -79 64 -121.5t184 -42.5q124 0 188 46.5t64 129.5q0 156 -283 156q-94 0 -192 10q-67 7 -105.5 44t-38.5 94q0 66 49 104t152 76q-118 35 -180 111.5t-62 183.5q0 155 108 249.5t285 94.5q82 0 160 -23q109 -33 154 -33q83 0 168 60z
M715 715q0 98 -46 145t-143 47q-186 0 -186 -196q0 -95 48 -143t140 -48t139.5 50t47.5 145zM877 1247l-74 -104l-283 176l-274 -176l-66 104l346 283z" />
    <glyph glyph-name="Gbreve" unicode="&#x11e;" horiz-adv-x="1325" 
d="M1151 92q-86 -54 -195.5 -83t-222.5 -29q-283 0 -446 190q-85 98 -124.5 226t-39.5 302q0 411 244 611q147 121 354 121q235 0 399 -142l-94 -123q-78 57 -148.5 82t-152.5 25q-217 0 -303 -180q-47 -96 -62.5 -183t-15.5 -221q0 -296 100 -426q45 -59 128.5 -93
t175.5 -34q116 0 208 53v402h-260l-32 162h487v-660zM1057 1696q-18 -26 -48 -60.5t-76.5 -78.5t-104.5 -73.5t-111 -29.5q-54 0 -112 29.5t-104.5 74t-76 78t-47.5 60.5l63 84q31 -29 66 -56t98.5 -55.5t120.5 -28.5q110 0 274 140z" />
    <glyph glyph-name="gbreve" unicode="&#x11f;" horiz-adv-x="1107" 
d="M1108 942q-77 -61 -170 -61q-32 0 -88 16q74 -95 74 -188q0 -58 -20.5 -112t-62.5 -101.5t-116 -76t-170 -28.5q-59 -19 -110.5 -50.5t-51.5 -61.5q0 -24 19 -38t55 -14h158q187 0 278.5 -77t91.5 -205q0 -161 -118.5 -246.5t-313.5 -85.5q-215 0 -332.5 71t-117.5 199
q0 49 18 105l184 10q-18 -36 -18 -78q0 -79 64 -121.5t184 -42.5q124 0 188 46.5t64 129.5q0 156 -283 156q-94 0 -192 10q-67 7 -105.5 44t-38.5 94q0 66 49 104t152 76q-118 35 -180 111.5t-62 183.5q0 155 108 249.5t285 94.5q82 0 160 -23q109 -33 154 -33q83 0 168 60z
M715 715q0 98 -46 145t-143 47q-186 0 -186 -196q0 -95 48 -143t140 -48t139.5 50t47.5 145zM893 1399q-18 -26 -48 -60.5t-76.5 -78.5t-104.5 -73.5t-111 -29.5q-54 0 -112 29.5t-104.5 74t-76 78t-47.5 60.5l63 84q31 -29 66 -56t98.5 -55.5t120.5 -28.5q111 0 275 140z
" />
    <glyph glyph-name="Gdotaccent" unicode="&#x120;" horiz-adv-x="1325" 
d="M1151 92q-86 -54 -195.5 -83t-222.5 -29q-283 0 -446 190q-85 98 -124.5 226t-39.5 302q0 411 244 611q147 121 354 121q235 0 399 -142l-94 -123q-78 57 -148.5 82t-152.5 25q-217 0 -303 -180q-47 -96 -62.5 -183t-15.5 -221q0 -296 100 -426q45 -59 128.5 -93
t175.5 -34q116 0 208 53v402h-260l-32 162h487v-660zM858 1626q0 -59 -40 -101t-97 -42q-55 0 -93 42t-38 101q0 57 39 99t94 42q56 0 95.5 -40.5t39.5 -100.5z" />
    <glyph glyph-name="gdotaccent" unicode="&#x121;" horiz-adv-x="1107" 
d="M1108 942q-77 -61 -170 -61q-32 0 -88 16q74 -95 74 -188q0 -58 -20.5 -112t-62.5 -101.5t-116 -76t-170 -28.5q-59 -19 -110.5 -50.5t-51.5 -61.5q0 -24 19 -38t55 -14h158q187 0 278.5 -77t91.5 -205q0 -161 -118.5 -246.5t-313.5 -85.5q-215 0 -332.5 71t-117.5 199
q0 49 18 105l184 10q-18 -36 -18 -78q0 -79 64 -121.5t184 -42.5q124 0 188 46.5t64 129.5q0 156 -283 156q-94 0 -192 10q-67 7 -105.5 44t-38.5 94q0 66 49 104t152 76q-118 35 -180 111.5t-62 183.5q0 155 108 249.5t285 94.5q82 0 160 -23q109 -33 154 -33q83 0 168 60z
M715 715q0 98 -46 145t-143 47q-186 0 -186 -196q0 -95 48 -143t140 -48t139.5 50t47.5 145zM666 1337q0 -59 -40.5 -101t-97.5 -42q-55 0 -93 42t-38 101q0 58 39 100t94 42q56 0 96 -41t40 -101z" />
    <glyph glyph-name="uni0122" unicode="&#x122;" horiz-adv-x="1325" 
d="M1151 92q-86 -54 -195.5 -83t-222.5 -29q-283 0 -446 190q-85 98 -124.5 226t-39.5 302q0 411 244 611q147 121 354 121q235 0 399 -142l-94 -123q-78 57 -148.5 82t-152.5 25q-217 0 -303 -180q-47 -96 -62.5 -183t-15.5 -221q0 -296 100 -426q45 -59 128.5 -93
t175.5 -34q116 0 208 53v402h-260l-32 162h487v-660zM840 -281q0 -89 -66 -174q-51 -67 -147 -112l-58 75q103 44 113 138q0 7 -25 10q-36 6 -60 35.5t-24 70.5q0 52 36.5 88.5t88.5 36.5q63 0 102.5 -47t39.5 -121z" />
    <glyph glyph-name="uni0123" unicode="&#x123;" horiz-adv-x="1107" 
d="M1108 942q-77 -61 -170 -61q-32 0 -88 16q74 -95 74 -188q0 -58 -20.5 -112t-62.5 -101.5t-116 -76t-170 -28.5q-59 -19 -110.5 -50.5t-51.5 -61.5q0 -24 19 -38t55 -14h158q187 0 278.5 -77t91.5 -205q0 -161 -118.5 -246.5t-313.5 -85.5q-215 0 -332.5 71t-117.5 199
q0 49 18 105l184 10q-18 -36 -18 -78q0 -79 64 -121.5t184 -42.5q124 0 188 46.5t64 129.5q0 156 -283 156q-94 0 -192 10q-67 7 -105.5 44t-38.5 94q0 66 49 104t152 76q-118 35 -180 111.5t-62 183.5q0 155 108 249.5t285 94.5q82 0 160 -23q109 -33 154 -33q83 0 168 60z
M715 715q0 98 -46 145t-143 47q-186 0 -186 -196q0 -95 48 -143t140 -48t139.5 50t47.5 145zM395 1327q0 89 66 174q52 68 147 113l58 -76q-104 -44 -113 -137q0 -7 25 -10q36 -6 60 -36t24 -71q0 -52 -36 -88.5t-89 -36.5q-63 0 -102.5 47t-39.5 121z" />
    <glyph glyph-name="Hcircumflex" unicode="&#x124;" horiz-adv-x="1300" 
d="M1116 0h-198v670h-539v-670h-195v1411h195v-580h539v580h198v-1411zM999 1575l-73 -105l-283 177l-274 -177l-66 105l346 283z" />
    <glyph glyph-name="hcircumflex" unicode="&#x125;" horiz-adv-x="1163" 
d="M979 0h-184v705q0 103 -35 143q-14 16 -46 27.5t-67 11.5q-66 0 -139 -40.5t-133 -109.5v-737h-191v1247q0 122 -22 215l190 39q23 -100 23 -237v-230q0 -58 -6 -137q51 46 108 84q109 70 223 70q91 0 163 -42.5t95 -111.5q13 -37 17 -68.5t4 -97.5v-731zM627 1638
l-74 -104l-283 176l-274 -176l-66 104l346 283z" />
    <glyph glyph-name="Hbar" unicode="&#x126;" horiz-adv-x="1300" 
d="M1116 0h-198v670h-539v-670h-195v1026h-174v158h174v227h195v-227h539v227h198v-227h174v-158h-174v-1026zM379 831h539v195h-539v-195z" />
    <glyph glyph-name="hbar" unicode="&#x127;" horiz-adv-x="1163" 
d="M979 0h-184v705q0 103 -35 143q-14 16 -46 27.5t-67 11.5q-66 0 -139 -40.5t-133 -109.5v-737h-191v1155h-135v129h135q-3 96 -22 178l190 39q20 -97 23 -217h389v-129h-389v-121q0 -58 -6 -137q51 46 108 84q109 70 223 70q91 0 163 -42.5t95 -111.5q13 -37 17 -68.5
t4 -97.5v-731z" />
    <glyph glyph-name="Itilde" unicode="&#x128;" horiz-adv-x="569" 
d="M385 0h-201v1411h201v-1411zM649 1665q-55 -70 -107 -102.5t-134 -32.5q-42 0 -77.5 13.5t-57 29.5t-56 29.5t-74.5 13.5q-43 0 -71 -18.5t-64 -59.5l-63 107q54 71 105.5 102t133.5 31q42 0 77.5 -13t57 -29t56 -29t74.5 -13q43 0 71.5 18.5t65.5 59.5z" />
    <glyph glyph-name="itilde" unicode="&#x129;" horiz-adv-x="563" 
d="M379 0h-195v1020l195 31v-1051zM635 1337q-55 -70 -107.5 -102.5t-134.5 -32.5q-42 0 -77.5 13.5t-57 29.5t-55.5 29.5t-74 13.5q-43 0 -71 -18.5t-64 -59.5l-64 107q54 70 105.5 101.5t134.5 31.5q42 0 77.5 -13t57 -29t55.5 -29t74 -13q43 0 71.5 18.5t65.5 59.5z" />
    <glyph glyph-name="Imacron" unicode="&#x12a;" horiz-adv-x="569" 
d="M395 0h-200v1411h200v-1411zM571 1544h-575v129h575v-129z" />
    <glyph glyph-name="imacron" unicode="&#x12b;" horiz-adv-x="563" 
d="M549 1210h-535v140h535v-140zM379 0h-195v1020l195 31v-1051z" />
    <glyph glyph-name="Ibreve" unicode="&#x12c;" horiz-adv-x="569" 
d="M385 0h-201v1411h201v-1411zM621 1786q-18 -26 -48 -60.5t-76.5 -78.5t-104.5 -73.5t-111 -29.5q-54 0 -112 29.5t-104.5 74t-76 78t-47.5 60.5l63 84q30 -29 65.5 -55.5t99 -55t120.5 -28.5q111 0 274 139z" />
    <glyph glyph-name="ibreve" unicode="&#x12d;" horiz-adv-x="563" 
d="M379 0h-195v1020l195 31v-1051zM623 1444q-18 -26 -48 -60.5t-76.5 -78.5t-104.5 -73.5t-111 -29.5q-54 0 -112 29.5t-104.5 74t-76 78t-47.5 60.5l63 84q30 -29 65.5 -55.5t99 -55t120.5 -28.5q111 0 274 139z" />
    <glyph glyph-name="Iogonek" unicode="&#x12e;" horiz-adv-x="569" 
d="M455 -354q-98 -52 -185 -52q-94 0 -148 51.5t-54 129.5q0 105 116 225v1411h201v-1411q-45 0 -107.5 -70t-62.5 -139q2 -29 20 -48t52 -19q66 0 121 28z" />
    <glyph glyph-name="iogonek" unicode="&#x12f;" horiz-adv-x="563" 
d="M451 -354q-98 -52 -183 -52q-94 0 -148 51.5t-54 129.5q0 107 118 225v1020l195 31v-1051q-54 -8 -110 -73.5t-56 -135.5q2 -29 20 -48t52 -19q66 0 121 28zM418 1341q0 -56 -40 -95.5t-97 -39.5q-55 0 -93 39.5t-38 95.5q0 57 39 97.5t94 40.5q56 0 95.5 -40t39.5 -98z
" />
    <glyph glyph-name="Idotaccent" unicode="&#x130;" horiz-adv-x="569" 
d="M385 0h-201v1411h201v-1411zM414 1640q0 -59 -40.5 -101t-97.5 -42q-55 0 -93 42t-38 101q0 57 39.5 99.5t94.5 42.5q56 0 95.5 -41t39.5 -101z" />
    <glyph glyph-name="dotlessi" unicode="&#x131;" horiz-adv-x="563" 
d="M379 0h-195v1020l195 31v-1051z" />
    <glyph glyph-name="Jcircumflex" unicode="&#x134;" horiz-adv-x="579" 
d="M395 250q0 -152 -14.5 -228.5t-54.5 -136.5q-79 -116 -234 -174l-92 109q53 27 96.5 68t65.5 83q19 38 27 95.5t8 169.5v1175h198v-1161zM645 1575l-74 -105l-282 177l-275 -177l-65 105l346 283z" />
    <glyph glyph-name="jcircumflex" unicode="&#x135;" horiz-adv-x="563" 
d="M379 23q0 -203 -76 -304q-73 -93 -180 -141l-84 115q32 19 65 49q80 74 80 283v985l195 41v-1028zM633 1247l-74 -104l-283 176l-274 -176l-65 104l346 283z" />
    <glyph glyph-name="uni0136" unicode="&#x136;" horiz-adv-x="1183" 
d="M1153 0h-256l-504 754l494 657h248l-517 -655zM385 0h-201v1411h201v-1411zM737 -281q0 -90 -65 -174q-51 -66 -148 -112l-57 75q103 44 113 138q0 7 -25 10q-36 6 -60 35.5t-24 70.5q0 52 36.5 88.5t88.5 36.5q63 0 102 -47t39 -121z" />
    <glyph glyph-name="uni0137" unicode="&#x137;" horiz-adv-x="1060" 
d="M373 0h-189v1225q0 137 -26 233l190 45q25 -115 25 -225v-1278zM1051 0h-236l-422 584l338 444h230l-367 -436zM702 -281q0 -90 -65 -174q-51 -66 -148 -112l-57 75q103 44 113 138q0 7 -25 10q-36 6 -60 35.5t-24 70.5q0 52 36 88.5t89 36.5q63 0 102 -47t39 -121z" />
    <glyph glyph-name="kgreenlandic" unicode="&#x138;" horiz-adv-x="1060" 
d="M373 0h-189v795q0 137 -26 233l190 45q25 -115 25 -225v-848zM1051 0h-236l-422 584l338 444h230l-367 -436z" />
    <glyph glyph-name="Lacute" unicode="&#x139;" horiz-adv-x="952" 
d="M922 164l-33 -164h-705v1411h201v-1247h537zM621 1690l-445 -209l-59 110l411 273z" />
    <glyph glyph-name="lacute" unicode="&#x13a;" horiz-adv-x="561" 
d="M500 2q-54 -22 -117 -22q-56 0 -93.5 18t-66.5 59q-23 32 -31 68t-8 111v929q0 185 -22 295l196 41q19 -72 19 -293v-954q0 -57 7 -85.5t26 -41.5q21 -15 57 -8zM575 1735l-444 -209l-59 110l411 273z" />
    <glyph glyph-name="uni013B" unicode="&#x13b;" horiz-adv-x="952" 
d="M922 164l-33 -164h-705v1411h201v-1247h537zM662 -281q0 -89 -66 -174q-51 -67 -147 -112l-58 75q103 44 113 138q0 7 -25 10q-36 6 -60 35.5t-24 70.5q0 52 36.5 88.5t88.5 36.5q63 0 102.5 -47t39.5 -121z" />
    <glyph glyph-name="uni013C" unicode="&#x13c;" horiz-adv-x="561" 
d="M500 2q-54 -22 -117 -22q-56 0 -93.5 18t-66.5 59q-23 32 -31 68t-8 111v929q0 185 -22 295l196 41q19 -72 19 -293v-954q0 -57 7 -85.5t26 -41.5q21 -15 57 -8zM479 -279q0 -90 -65 -174q-51 -66 -148 -112l-57 76q104 44 113 137q0 7 -25 10q-36 6 -60 35.5t-24 70.5
q0 52 36.5 88.5t88.5 36.5q63 0 102 -47t39 -121z" />
    <glyph glyph-name="Lcaron" unicode="&#x13d;" horiz-adv-x="952" 
d="M922 164l-33 -164h-705v1411h201v-1247h537zM842 1245q0 -89 -66 -174q-52 -68 -147 -113l-58 76q104 44 113 137q0 8 -25 11q-36 6 -60 35.5t-24 70.5q0 52 36.5 88.5t88.5 36.5q63 0 102.5 -47t39.5 -121z" />
    <glyph glyph-name="lcaron" unicode="&#x13e;" horiz-adv-x="571" 
d="M500 2q-54 -22 -117 -22q-56 0 -93.5 18t-66.5 59q-23 32 -31 68t-8 111v929q0 185 -22 295l196 41q19 -72 19 -293v-954q0 -57 7 -85.5t26 -41.5q21 -15 57 -8zM752 1331q0 -89 -66 -174q-52 -68 -147 -113l-58 76q104 44 113 137q0 8 -25 11q-36 6 -60 35.5t-24 70.5
q0 52 36.5 88.5t88.5 36.5q63 0 102.5 -47t39.5 -121z" />
    <glyph glyph-name="Ldot" unicode="&#x13f;" horiz-adv-x="952" 
d="M922 164l-33 -164h-705v1411h201v-1247h537zM885 782q0 -59 -40 -101t-97 -42q-55 0 -93.5 42t-38.5 101q0 57 39.5 99.5t94.5 42.5q56 0 95.5 -41t39.5 -101z" />
    <glyph glyph-name="ldot" unicode="&#x140;" horiz-adv-x="727" 
d="M500 2q-54 -22 -117 -22q-56 0 -93.5 18t-66.5 59q-23 32 -31 68t-8 111v929q0 185 -22 295l196 41q19 -72 19 -293v-954q0 -57 7 -85.5t26 -41.5q21 -15 57 -8zM770 776q0 -59 -40 -101t-97 -42q-55 0 -93 42t-38 101q0 58 39 100t94 42q56 0 95.5 -41t39.5 -101z" />
    <glyph glyph-name="Lslash" unicode="&#x141;" horiz-adv-x="952" 
d="M922 164l-33 -164h-705v618l-133 -43v168l133 43v625h201v-561l336 108v-167l-336 -109v-518h537z" />
    <glyph glyph-name="lslash" unicode="&#x142;" horiz-adv-x="561" 
d="M512 723l-135 -49v-389q0 -81 5.5 -110t20.5 -42q28 -25 64 -14l33 -117q-54 -22 -117 -22q-56 0 -93.5 18t-66.5 59q-23 32 -31 68t-8 111v374l-104 -35v168l104 35v387q0 185 -22 295l196 41q19 -72 19 -293v-366l135 49v-168z" />
    <glyph glyph-name="Nacute" unicode="&#x143;" horiz-adv-x="1308" 
d="M1124 0h-211l-370 750q-132 266 -172 387l-13 -2q13 -163 17 -394l8 -741h-199v1411h230l393 -778q40 -80 85 -191.5t54 -146.5l12 4q-20 205 -20 420l-4 692h190v-1411zM934 1690l-445 -209l-59 110l412 273z" />
    <glyph glyph-name="nacute" unicode="&#x144;" horiz-adv-x="1132" 
d="M948 0h-186v692q0 68 -7 100.5t-26 57.5q-30 41 -104 41q-55 0 -128 -37.5t-126 -93.5v-760h-187v764q0 89 -8 137.5t-31 106.5l179 49q34 -67 34 -158q86 72 134 100q88 52 190 52q82 0 148 -40t94 -106q24 -56 24 -129v-776zM823 1362l-444 -209l-60 111l412 272z" />
    <glyph glyph-name="uni0145" unicode="&#x145;" horiz-adv-x="1308" 
d="M1124 0h-211l-370 750q-132 266 -172 387l-13 -2q13 -163 17 -394l8 -741h-199v1411h230l393 -778q40 -80 85 -191.5t54 -146.5l12 4q-20 205 -20 420l-4 692h190v-1411zM772 -281q0 -90 -65 -174q-51 -66 -148 -112l-57 75q102 44 112 138q0 7 -24 10q-36 6 -60 35.5
t-24 70.5q0 52 36 88.5t89 36.5q63 0 102 -47t39 -121z" />
    <glyph glyph-name="uni0146" unicode="&#x146;" horiz-adv-x="1132" 
d="M948 0h-186v692q0 68 -7 100.5t-26 57.5q-30 41 -104 41q-55 0 -128 -37.5t-126 -93.5v-760h-187v764q0 89 -8 137.5t-31 106.5l179 49q34 -67 34 -158q86 72 134 100q88 52 190 52q82 0 148 -40t94 -106q24 -56 24 -129v-776zM705 -281q0 -89 -66 -174
q-51 -67 -147 -112l-58 75q103 44 113 138q0 7 -25 10q-36 6 -60 35.5t-24 70.5q0 52 36 88.5t89 36.5q63 0 102.5 -47t39.5 -121z" />
    <glyph glyph-name="Ncaron" unicode="&#x147;" horiz-adv-x="1308" 
d="M1124 0h-211l-370 750q-132 266 -172 387l-13 -2q13 -163 17 -394l8 -741h-199v1411h230l393 -778q40 -80 85 -191.5t54 -146.5l12 4q-20 205 -20 420l-4 692h190v-1411zM999 1765l-346 -284l-350 284l74 103l285 -172l272 172z" />
    <glyph glyph-name="ncaron" unicode="&#x148;" horiz-adv-x="1132" 
d="M948 0h-186v692q0 68 -7 100.5t-26 57.5q-30 41 -104 41q-55 0 -128 -37.5t-126 -93.5v-760h-187v764q0 89 -8 137.5t-31 106.5l179 49q34 -67 34 -158q86 72 134 100q88 52 190 52q82 0 148 -40t94 -106q24 -56 24 -129v-776zM885 1425l-346 -284l-351 284l74 103
l285 -172l272 172z" />
    <glyph glyph-name="napostrophe" unicode="&#x149;" horiz-adv-x="1132" 
d="M948 0h-186v692q0 68 -7 100.5t-26 57.5q-30 41 -104 41q-55 0 -128 -37.5t-126 -93.5v-760h-187v764q0 89 -8 137.5t-31 106.5l179 49q34 -67 34 -158q86 72 134 100q88 52 190 52q82 0 148 -40t94 -106q24 -56 24 -129v-776zM145 1292q0 -90 -65 -174
q-51 -66 -148 -112l-57 75q103 44 113 138q0 7 -25 10q-36 6 -60 35.5t-24 70.5q0 53 36.5 89t88.5 36q63 0 102 -47t39 -121z" />
    <glyph glyph-name="Eng" unicode="&#x14a;" horiz-adv-x="1308" 
d="M850 -242q29 25 51.5 82.5t22.5 108.5q0 25 -11 51l-370 750q-132 266 -172 387l-13 -2q13 -163 17 -394l8 -741h-199v1411h230l393 -778q40 -80 85 -191.5t54 -146.5l12 4q-20 205 -20 420l-4 692h190v-1372q0 -204 -75 -303q-73 -94 -181 -142l-84 115q35 21 66 49z
" />
    <glyph glyph-name="eng" unicode="&#x14b;" horiz-adv-x="1132" 
d="M948 39q0 -202 -76 -303q-74 -94 -180 -142l-80 111q33 20 70 53q80 74 80 283v651q0 68 -7 100.5t-26 57.5q-30 41 -104 41q-55 0 -128 -37.5t-126 -93.5v-760h-187v764q0 89 -8 137.5t-31 106.5l179 49q34 -67 34 -158q97 80 134 100q88 52 190 52q82 0 148 -40
t94 -106q24 -56 24 -129v-737z" />
    <glyph glyph-name="Omacron" unicode="&#x14c;" horiz-adv-x="1396" 
d="M1274 696q0 -216 -67 -378t-196.5 -251.5t-305.5 -89.5q-143 0 -254.5 55t-182.5 153.5t-108 231.5t-37 294q0 344 154 534.5t417 190.5q121 0 219.5 -39.5t165 -107.5t111 -163t64.5 -202t20 -228zM1049 678q0 301 -81.5 452.5t-273.5 151.5q-184 0 -267 -136t-83 -413
q0 -112 11 -201.5t37 -166.5t66.5 -128.5t103 -80.5t143.5 -29q169 0 256.5 132t87.5 419zM985 1540h-575v129h575v-129z" />
    <glyph glyph-name="omacron" unicode="&#x14d;" horiz-adv-x="1116" 
d="M1004 504q0 -244 -121.5 -388.5t-325.5 -144.5q-205 0 -324.5 146t-119.5 397q0 249 118.5 395t321.5 146q111 0 198 -42.5t141.5 -117.5t83 -174.5t28.5 -216.5zM793 496q0 154 -30.5 247.5t-81.5 129.5t-128 36q-122 0 -176.5 -89.5t-54.5 -284.5q0 -229 57.5 -323.5
t181.5 -94.5q232 0 232 379zM852 1210h-576v129h576v-129z" />
    <glyph glyph-name="Obreve" unicode="&#x14e;" horiz-adv-x="1396" 
d="M1274 696q0 -216 -67 -378t-196.5 -251.5t-305.5 -89.5q-143 0 -254.5 55t-182.5 153.5t-108 231.5t-37 294q0 344 154 534.5t417 190.5q121 0 219.5 -39.5t165 -107.5t111 -163t64.5 -202t20 -228zM1049 678q0 301 -81.5 452.5t-273.5 151.5q-184 0 -267 -136t-83 -413
q0 -112 11 -201.5t37 -166.5t66.5 -128.5t103 -80.5t143.5 -29q169 0 256.5 132t87.5 419zM1032 1786q-18 -26 -48 -60.5t-76.5 -78.5t-104.5 -73.5t-111 -29.5q-54 0 -112 29.5t-104.5 74t-76 78t-47.5 60.5l64 84q21 -20 46 -39.5t63.5 -44.5t84.5 -40t90 -15
q112 0 275 139z" />
    <glyph glyph-name="obreve" unicode="&#x14f;" horiz-adv-x="1116" 
d="M1004 504q0 -244 -121.5 -388.5t-325.5 -144.5q-205 0 -324.5 146t-119.5 397q0 249 118.5 395t321.5 146q111 0 198 -42.5t141.5 -117.5t83 -174.5t28.5 -216.5zM793 496q0 154 -30.5 247.5t-81.5 129.5t-128 36q-122 0 -176.5 -89.5t-54.5 -284.5q0 -229 57.5 -323.5
t181.5 -94.5q232 0 232 379zM903 1444q-18 -26 -48 -60.5t-76.5 -78.5t-104.5 -73.5t-111 -29.5q-54 0 -112 29.5t-104.5 74t-76 78t-47.5 60.5l64 84q21 -20 46 -39.5t63.5 -44.5t84.5 -40t90 -15q112 0 275 139z" />
    <glyph glyph-name="Ohungarumlaut" unicode="&#x150;" horiz-adv-x="1396" 
d="M1274 696q0 -216 -67 -378t-196.5 -251.5t-305.5 -89.5q-143 0 -254.5 55t-182.5 153.5t-108 231.5t-37 294q0 344 154 534.5t417 190.5q121 0 219.5 -39.5t165 -107.5t111 -163t64.5 -202t20 -228zM1049 678q0 301 -81.5 452.5t-273.5 151.5q-184 0 -267 -136t-83 -413
q0 -112 11 -201.5t37 -166.5t66.5 -128.5t103 -80.5t143.5 -29q169 0 256.5 132t87.5 419zM850 1853l-309 -372l-101 71l252 406zM1296 1796l-366 -307l-84 86l313 354z" />
    <glyph glyph-name="ohungarumlaut" unicode="&#x151;" horiz-adv-x="1116" 
d="M1004 504q0 -244 -121.5 -388.5t-325.5 -144.5q-205 0 -324.5 146t-119.5 397q0 249 118.5 395t321.5 146q111 0 198 -42.5t141.5 -117.5t83 -174.5t28.5 -216.5zM793 496q0 154 -30.5 247.5t-81.5 129.5t-128 36q-122 0 -176.5 -89.5t-54.5 -284.5q0 -229 57.5 -323.5
t181.5 -94.5q232 0 232 379zM680 1579l-231 -424l-113 51l170 447zM1098 1538l-301 -371l-99 68l240 407z" />
    <glyph glyph-name="OE" unicode="&#x152;" horiz-adv-x="1775" 
d="M1704 0h-875q-197 0 -292.5 22t-194.5 101q-217 176 -217 584q0 322 151 512q114 143 283 178q71 14 213 14h901l-24 -162h-543v-430h453v-166h-453v-483h598v-170zM913 174v1053q-15 1 -50 5.5t-67.5 7.5t-60.5 3q-73 0 -129 -12q-119 -28 -178 -137q-76 -141 -76 -365
q0 -161 22 -266t81 -180q100 -127 256 -127q87 0 202 18z" />
    <glyph glyph-name="oe" unicode="&#x153;" horiz-adv-x="1710" 
d="M1608 473h-625v-51q0 -147 77.5 -223t199.5 -76q143 0 253 98l70 -112q-147 -132 -352 -132q-105 0 -196.5 39.5t-139.5 118.5q-118 -164 -338 -164q-205 0 -324.5 146t-119.5 397q0 249 118.5 395t321.5 146q205 0 332 -156q48 73 130 116.5t187 43.5
q199 0 302.5 -131.5t103.5 -376.5v-78zM793 496q0 154 -30.5 247.5t-81.5 129.5t-128 36q-120 0 -175.5 -87t-55.5 -287q0 -220 55 -319t184 -99q232 0 232 379zM1411 612q0 139 -54.5 221t-156.5 82t-158.5 -77t-56.5 -226h426z" />
    <glyph glyph-name="Racute" unicode="&#x154;" horiz-adv-x="1159" 
d="M1108 0h-240q-51 100 -116 209q-92 152 -133 212.5t-111 139.5q-30 33 -57.5 48t-69.5 16v-625h-197v1411h396q223 0 333 -102q125 -117 125 -291q0 -166 -98 -276.5t-262 -110.5h-16q43 -36 64.5 -60t57.5 -71q58 -78 119 -174zM831 1016q0 72 -36 127.5t-95 79.5
q-67 26 -172 26h-147v-491h137q93 0 150 16t94 51q69 66 69 191zM858 1690l-444 -209l-60 110l412 273z" />
    <glyph glyph-name="racute" unicode="&#x155;" horiz-adv-x="714" 
d="M705 1049l-66 -189q-30 10 -53 10q-86 0 -149.5 -61.5t-63.5 -146.5v-662h-189v754q0 158 -39 256l183 47q34 -74 34 -158v-18q123 178 279 178q37 0 64 -10zM688 1362l-444 -209l-60 111l412 272z" />
    <glyph glyph-name="uni0156" unicode="&#x156;" horiz-adv-x="1159" 
d="M1108 0h-240q-51 100 -116 209q-92 152 -133 212.5t-111 139.5q-30 33 -57.5 48t-69.5 16v-625h-197v1411h396q223 0 333 -102q125 -117 125 -291q0 -166 -98 -276.5t-262 -110.5h-16q43 -36 64.5 -60t57.5 -71q58 -78 119 -174zM831 1016q0 72 -36 127.5t-95 79.5
q-67 26 -172 26h-147v-491h137q93 0 150 16t94 51q69 66 69 191zM737 -281q0 -90 -65 -174q-51 -66 -148 -112l-57 75q103 44 113 138q0 7 -25 10q-36 6 -60 35.5t-24 70.5q0 52 36.5 88.5t88.5 36.5q63 0 102 -47t39 -121z" />
    <glyph glyph-name="uni0157" unicode="&#x157;" horiz-adv-x="714" 
d="M705 1049l-66 -189q-30 10 -53 10q-86 0 -149.5 -61.5t-63.5 -146.5v-662h-189v754q0 158 -39 256l183 47q34 -74 34 -158v-18q123 178 279 178q37 0 64 -10zM416 -281q0 -89 -66 -174q-51 -67 -147 -112l-58 75q103 44 113 138q0 7 -25 10q-36 6 -59.5 35.5t-23.5 70.5
q0 53 36 89t88 36q63 0 102.5 -47t39.5 -121z" />
    <glyph glyph-name="Rcaron" unicode="&#x158;" horiz-adv-x="1159" 
d="M1108 0h-240q-51 100 -116 209q-92 152 -133 212.5t-111 139.5q-30 33 -57.5 48t-69.5 16v-625h-197v1411h396q223 0 333 -102q125 -117 125 -291q0 -166 -98 -276.5t-262 -110.5h-16q43 -36 64.5 -60t57.5 -71q58 -78 119 -174zM831 1016q0 72 -36 127.5t-95 79.5
q-67 26 -172 26h-147v-491h137q93 0 150 16t94 51q69 66 69 191zM905 1765l-346 -284l-350 284l74 103l284 -172l273 172z" />
    <glyph glyph-name="rcaron" unicode="&#x159;" horiz-adv-x="714" 
d="M705 1049l-66 -189q-30 10 -53 10q-86 0 -149.5 -61.5t-63.5 -146.5v-662h-189v754q0 158 -39 256l183 47q34 -74 34 -158v-18q123 178 279 178q37 0 64 -10zM762 1425l-346 -284l-350 284l73 103l285 -172l272 172z" />
    <glyph glyph-name="Sacute" unicode="&#x15a;" horiz-adv-x="1212" 
d="M1100 412q0 -61 -19.5 -121.5t-62 -118t-103 -101.5t-151 -71t-197.5 -27q-250 0 -454 125l77 152q189 -117 381 -117q139 0 222.5 66.5t83.5 179.5q0 172 -234 239l-147 44q-167 48 -250.5 133.5t-83.5 230.5q0 183 129 296.5t338 113.5q243 0 432 -133l-88 -140
q-100 61 -174.5 86t-161.5 25q-118 0 -187 -57.5t-69 -155.5q0 -76 48 -122.5t161 -80.5l166 -49q154 -45 249 -144t95 -253zM926 1690l-445 -209l-59 110l412 273z" />
    <glyph glyph-name="sacute" unicode="&#x15b;" horiz-adv-x="991" 
d="M889 315q0 -154 -112 -249t-292 -95q-198 0 -383 109l68 135q182 -102 330 -102q85 0 137.5 45.5t52.5 120.5q0 66 -41.5 105t-130.5 56l-125 25q-122 25 -186 98t-64 187q0 141 103 230t268 89q180 0 324 -84l-64 -133q-148 74 -252 74q-81 0 -129.5 -42.5t-48.5 -111.5
q0 -57 32.5 -89t112.5 -50l134 -31q136 -31 201 -106t65 -181zM813 1362l-444 -209l-60 111l412 272z" />
    <glyph glyph-name="Scircumflex" unicode="&#x15c;" horiz-adv-x="1212" 
d="M1100 412q0 -61 -19.5 -121.5t-62 -118t-103 -101.5t-151 -71t-197.5 -27q-250 0 -454 125l77 152q189 -117 381 -117q139 0 222.5 66.5t83.5 179.5q0 172 -234 239l-147 44q-167 48 -250.5 133.5t-83.5 230.5q0 183 129 296.5t338 113.5q243 0 432 -133l-88 -140
q-100 61 -174.5 86t-161.5 25q-118 0 -187 -57.5t-69 -155.5q0 -76 48 -122.5t161 -80.5l166 -49q154 -45 249 -144t95 -253zM981 1575l-74 -105l-282 177l-275 -177l-65 105l346 283z" />
    <glyph glyph-name="scircumflex" unicode="&#x15d;" horiz-adv-x="991" 
d="M889 315q0 -154 -112 -249t-292 -95q-198 0 -383 109l68 135q182 -102 330 -102q85 0 137.5 45.5t52.5 120.5q0 66 -41.5 105t-130.5 56l-125 25q-122 25 -186 98t-64 187q0 141 103 230t268 89q180 0 324 -84l-64 -133q-148 74 -252 74q-81 0 -129.5 -42.5t-48.5 -111.5
q0 -57 32.5 -89t112.5 -50l134 -31q136 -31 201 -106t65 -181zM864 1247l-73 -104l-283 176l-275 -176l-65 104l346 283z" />
    <glyph glyph-name="Scedilla" unicode="&#x15e;" horiz-adv-x="1212" 
d="M1100 412q0 -57 -17.5 -115t-56.5 -113.5t-94 -99.5t-136 -73.5t-178 -35.5l-16 -55q139 -18 139 -151q0 -69 -54 -122t-148 -53q-73 0 -162 50l45 98q71 -31 115 -31q29 0 50 17.5t21 44.5q0 28 -22 44.5t-54 16.5q-21 0 -63 -6l2 43l27 104q-210 15 -385 123l77 152
q189 -117 381 -117q139 0 222.5 66.5t83.5 179.5q0 172 -234 239l-147 44q-167 48 -250.5 133.5t-83.5 230.5q0 183 129 296.5t338 113.5q243 0 432 -133l-88 -140q-100 61 -174.5 86t-161.5 25q-118 0 -187 -57.5t-69 -155.5q0 -76 48 -122.5t161 -80.5l166 -49
q154 -45 249 -144t95 -253z" />
    <glyph glyph-name="scedilla" unicode="&#x15f;" horiz-adv-x="991" 
d="M889 315q0 -146 -101 -239.5t-266 -102.5l-16 -53q139 -18 139 -151q0 -69 -54.5 -122t-148.5 -53q-72 0 -161 50l45 98q71 -31 114 -31q29 0 50.5 17.5t21.5 44.5q0 28 -22 44.5t-54 16.5q-21 0 -63 -6l2 43l26 106q-159 19 -299 103l68 135q182 -102 330 -102
q85 0 137.5 45.5t52.5 120.5q0 66 -41.5 105t-130.5 56l-125 25q-122 25 -186 98t-64 187q0 141 103 230t268 89q180 0 324 -84l-64 -133q-148 74 -252 74q-81 0 -129.5 -42.5t-48.5 -111.5q0 -57 32.5 -89t112.5 -50l134 -31q136 -31 201 -106t65 -181z" />
    <glyph glyph-name="Scaron" unicode="&#x160;" horiz-adv-x="1212" 
d="M1100 412q0 -61 -19.5 -121.5t-62 -118t-103 -101.5t-151 -71t-197.5 -27q-250 0 -454 125l77 152q189 -117 381 -117q139 0 222.5 66.5t83.5 179.5q0 172 -234 239l-147 44q-167 48 -250.5 133.5t-83.5 230.5q0 183 129 296.5t338 113.5q243 0 432 -133l-88 -140
q-100 61 -174.5 86t-161.5 25q-118 0 -187 -57.5t-69 -155.5q0 -76 48 -122.5t161 -80.5l166 -49q154 -45 249 -144t95 -253zM975 1810l-346 -284l-350 284l73 103l285 -172l272 172z" />
    <glyph glyph-name="scaron" unicode="&#x161;" horiz-adv-x="991" 
d="M889 315q0 -154 -112 -249t-292 -95q-198 0 -383 109l68 135q182 -102 330 -102q85 0 137.5 45.5t52.5 120.5q0 66 -41.5 105t-130.5 56l-125 25q-122 25 -186 98t-64 187q0 141 103 230t268 89q180 0 324 -84l-64 -133q-148 74 -252 74q-81 0 -129.5 -42.5t-48.5 -111.5
q0 -57 32.5 -89t112.5 -50l134 -31q136 -31 201 -106t65 -181zM860 1425l-346 -284l-350 284l74 103l284 -172l273 172z" />
    <glyph glyph-name="uni0162" unicode="&#x162;" horiz-adv-x="968" 
d="M692 -231q0 -69 -54.5 -122t-148.5 -53q-72 0 -161 50l45 98q71 -31 114 -31q29 0 50.5 17.5t21.5 44.5q0 28 -22 44.5t-54 16.5q-21 0 -63 -6l2 43l33 129h-37v1247h-367v164h948l-20 -164h-367v-1247h-37l-22 -80q139 -18 139 -151z" />
    <glyph glyph-name="uni0163" unicode="&#x163;" horiz-adv-x="673" 
d="M621 -231q0 -69 -54.5 -122t-148.5 -53q-73 0 -162 50l45 98q71 -31 115 -31q29 0 50 17.5t21 44.5q0 28 -21.5 44.5t-53.5 16.5q-22 0 -64 -6l2 43l27 104q-105 18 -149 74t-44 182v662h-123v133h123q0 161 13 262l194 45q-18 -167 -18 -307h250l-52 -133h-202v-619
q0 -95 28 -130t105 -35q49 0 96 20l23 -115q-68 -31 -123 -39l-17 -55q140 -18 140 -151z" />
    <glyph glyph-name="Tcaron" unicode="&#x164;" horiz-adv-x="968" 
d="M999 1411l-20 -164h-367v-1247h-194v1247h-367v164h948zM852 1765l-346 -284l-350 284l73 103l285 -172l272 172z" />
    <glyph glyph-name="tcaron" unicode="&#x165;" horiz-adv-x="673" 
d="M623 1026l-52 -133h-202v-619q0 -95 28 -130t105 -35q49 0 96 20l23 -115q-85 -43 -187 -43q-46 0 -97.5 14t-82.5 42q-26 23 -37.5 38.5t-22 57t-10.5 108.5v662h-123v133h123q0 161 13 262l194 45q-18 -167 -18 -307h250zM768 1393q0 -89 -66 -174q-52 -68 -147 -113
l-57 76q103 44 112 137q0 7 -24 10q-36 6 -60 36t-24 71q0 52 36 88.5t89 36.5q63 0 102 -47t39 -121z" />
    <glyph glyph-name="Tbar" unicode="&#x166;" horiz-adv-x="968" 
d="M999 1411l-20 -164h-367v-407h230v-150h-230v-690h-194v690h-234v150h234v407h-367v164h948z" />
    <glyph glyph-name="tbar" unicode="&#x167;" horiz-adv-x="673" 
d="M623 1026l-52 -133h-202v-313h254l-52 -134h-202v-172q0 -95 28 -130t105 -35q49 0 96 20l23 -115q-85 -43 -187 -43q-51 0 -100 14.5t-74 37.5q-46 42 -61 80t-15 128v215h-123v134h123v313h-123v133h123q0 161 13 262l194 45q-18 -167 -18 -307h250z" />
    <glyph glyph-name="Utilde" unicode="&#x168;" horiz-adv-x="1298" 
d="M1124 442q0 -134 -13 -187.5t-60 -111.5q-136 -166 -406 -166q-316 0 -426 197q-28 50 -36.5 96.5t-8.5 155.5v985h199v-911q0 -217 51 -275q69 -80 223 -80q159 0 230 93q51 66 51 233v940h196v-969zM1004 1665q-55 -70 -107.5 -102.5t-134.5 -32.5q-42 0 -77.5 13.5
t-57 29.5t-55.5 29.5t-74 13.5q-43 0 -71.5 -18.5t-64.5 -59.5l-63 107q54 70 105.5 101.5t134.5 31.5q42 0 77.5 -13t57 -29t55.5 -29t74 -13q43 0 71.5 18.5t65.5 59.5z" />
    <glyph glyph-name="utilde" unicode="&#x169;" horiz-adv-x="1130" 
d="M1010 68l-129 -103q-39 30 -61.5 63.5t-35.5 84.5q-121 -148 -309 -148q-97 0 -170 41.5t-106 112.5q-25 57 -25 172v729l186 37v-715q0 -78 10 -116t38 -64q49 -45 118 -45q68 0 134.5 47t99.5 115v737l186 37v-772q0 -158 64 -213zM915 1337q-55 -70 -107 -102.5
t-134 -32.5q-42 0 -77.5 13.5t-57 29.5t-55.5 29.5t-74 13.5q-43 0 -71.5 -18.5t-64.5 -59.5l-63 107q54 70 105.5 101.5t134.5 31.5q42 0 77.5 -13t57 -29t55.5 -29t74 -13q43 0 71.5 18.5t65.5 59.5z" />
    <glyph glyph-name="Umacron" unicode="&#x16a;" horiz-adv-x="1298" 
d="M1124 442q0 -134 -13 -187.5t-60 -111.5q-136 -166 -406 -166q-316 0 -426 197q-28 50 -36.5 96.5t-8.5 155.5v985h199v-911q0 -217 51 -275q69 -80 223 -80q159 0 230 93q51 66 51 233v940h196v-969zM934 1540h-576v129h576v-129z" />
    <glyph glyph-name="umacron" unicode="&#x16b;" horiz-adv-x="1130" 
d="M1010 68l-129 -103q-39 30 -61.5 63.5t-35.5 84.5q-121 -148 -309 -148q-97 0 -170 41.5t-106 112.5q-25 57 -25 172v729l186 37v-715q0 -78 10 -116t38 -64q49 -45 118 -45q68 0 134.5 47t99.5 115v737l186 37v-772q0 -158 64 -213zM860 1210h-575v129h575v-129z" />
    <glyph glyph-name="Ubreve" unicode="&#x16c;" horiz-adv-x="1298" 
d="M1124 442q0 -134 -13 -187.5t-60 -111.5q-136 -166 -406 -166q-316 0 -426 197q-28 50 -36.5 96.5t-8.5 155.5v985h199v-911q0 -217 51 -275q69 -80 223 -80q159 0 230 93q51 66 51 233v940h196v-969zM989 1786q-18 -26 -48 -60.5t-76.5 -78.5t-104.5 -73.5t-111 -29.5
q-54 0 -112 29.5t-104.5 74t-76 78t-47.5 60.5l64 84q21 -20 46 -39.5t63.5 -44.5t84.5 -40t90 -15q112 0 275 139z" />
    <glyph glyph-name="ubreve" unicode="&#x16d;" horiz-adv-x="1130" 
d="M1010 68l-129 -103q-39 30 -61.5 63.5t-35.5 84.5q-121 -148 -309 -148q-97 0 -170 41.5t-106 112.5q-25 57 -25 172v729l186 37v-715q0 -78 10 -116t38 -64q49 -45 118 -45q68 0 134.5 47t99.5 115v737l186 37v-772q0 -158 64 -213zM905 1444q-18 -26 -48 -60.5
t-76.5 -78.5t-104.5 -73.5t-111 -29.5q-54 0 -112 29.5t-104.5 74t-76 78t-47.5 60.5l64 84q21 -20 46 -39.5t63.5 -44.5t84.5 -40t90 -15q112 0 275 139z" />
    <glyph glyph-name="Uring" unicode="&#x16e;" horiz-adv-x="1298" 
d="M1124 442q0 -134 -13 -187.5t-60 -111.5q-136 -166 -406 -166q-316 0 -426 197q-28 50 -36.5 96.5t-8.5 155.5v985h199v-911q0 -217 51 -275q69 -80 223 -80q159 0 230 93q51 66 51 233v940h196v-969zM850 1679q0 -88 -62.5 -152.5t-148.5 -64.5q-84 0 -144.5 64.5
t-60.5 152.5q0 89 62 153t147 64t146 -64t61 -153zM764 1679q0 53 -35.5 91t-83.5 38q-54 0 -90.5 -37.5t-36.5 -91.5q0 -53 36 -91t85 -38q51 0 88 38t37 91z" />
    <glyph glyph-name="uring" unicode="&#x16f;" horiz-adv-x="1130" 
d="M1010 68l-129 -103q-39 30 -61.5 63.5t-35.5 84.5q-121 -148 -309 -148q-97 0 -170 41.5t-106 112.5q-25 57 -25 172v729l186 37v-715q0 -78 10 -116t38 -64q49 -45 118 -45q68 0 134.5 47t99.5 115v737l186 37v-772q0 -158 64 -213zM780 1352q0 -88 -62.5 -152.5
t-148.5 -64.5q-84 0 -144 64.5t-60 152.5q0 89 61.5 153t146.5 64t146 -64t61 -153zM694 1352q0 53 -35.5 91t-83.5 38q-54 0 -90 -37.5t-36 -91.5q0 -53 35.5 -91t84.5 -38q51 0 88 38t37 91z" />
    <glyph glyph-name="Uhungarumlaut" unicode="&#x170;" horiz-adv-x="1298" 
d="M1124 442q0 -134 -13 -187.5t-60 -111.5q-136 -166 -406 -166q-316 0 -426 197q-28 50 -36.5 96.5t-8.5 155.5v985h199v-911q0 -217 51 -275q69 -80 223 -80q159 0 230 93q51 66 51 233v940h196v-969zM793 1853l-310 -372l-100 71l252 406zM1239 1796l-367 -307l-84 86
l314 354z" />
    <glyph glyph-name="uhungarumlaut" unicode="&#x171;" horiz-adv-x="1130" 
d="M1010 68l-129 -103q-39 30 -61.5 63.5t-35.5 84.5q-121 -148 -309 -148q-97 0 -170 41.5t-106 112.5q-25 57 -25 172v729l186 37v-715q0 -78 10 -116t38 -64q49 -45 118 -45q68 0 134.5 47t99.5 115v737l186 37v-772q0 -158 64 -213zM676 1579l-232 -424l-112 51l170 447
zM1094 1538l-301 -371l-99 68l240 407z" />
    <glyph glyph-name="Uogonek" unicode="&#x172;" horiz-adv-x="1298" 
d="M1124 442q0 -134 -13 -187.5t-60 -111.5q-45 -56 -100.5 -91.5t-143.5 -55.5q-57 -13 -110.5 -75.5t-53.5 -129.5q0 -29 19 -48t53 -19q66 0 121 28l47 -106q-98 -52 -185 -52q-94 0 -148 51.5t-54 129.5q0 98 96 205q-272 15 -373 194q-28 50 -36.5 96.5t-8.5 155.5v985
h199v-911q0 -217 51 -275q69 -80 223 -80q159 0 230 93q51 66 51 233v940h196v-969z" />
    <glyph glyph-name="uogonek" unicode="&#x173;" horiz-adv-x="1130" 
d="M1049 -354q-98 -52 -183 -52q-94 0 -148 51.5t-54 129.5q0 39 12.5 75.5t40 72.5t46 55.5t54.5 54.5q-23 37 -33 80q-121 -148 -309 -148q-97 0 -170 41.5t-106 112.5q-25 57 -25 172v729l186 37v-715q0 -78 10 -116t38 -64q49 -45 118 -45q68 0 134.5 47t99.5 115v737
l186 37v-772q0 -158 64 -213q-199 -164 -199 -277q2 -29 20 -48t52 -19q66 0 121 28z" />
    <glyph glyph-name="Wcircumflex" unicode="&#x174;" horiz-adv-x="1671" 
d="M1640 1411l-327 -1415h-242l-156 711q-52 240 -71 407h-13q-27 -191 -71 -399l-152 -719h-243l-334 1415h213l155 -727q19 -92 33.5 -174t28.5 -175.5t14 -96.5h12q34 227 78 428l164 745h227l162 -749q59 -267 74 -418h12q36 239 82 452l150 715h204zM1200 1575
l-74 -105l-282 177l-275 -177l-65 105l346 283z" />
    <glyph glyph-name="wcircumflex" unicode="&#x175;" horiz-adv-x="1439" 
d="M1399 1026l-287 -1034h-182l-150 559l-63 242h-6l-56 -230l-153 -571h-180l-281 1026l190 31l131 -576l54 -252h6q19 140 47 234l156 571h194l144 -555q28 -109 57 -250h8l47 244l127 561h197zM1061 1247l-74 -104l-282 176l-275 -176l-65 104l346 283z" />
    <glyph glyph-name="Ycircumflex" unicode="&#x176;" horiz-adv-x="1060" 
d="M1081 1411l-450 -850v-561h-205v565l-446 846h241l234 -481q41 -83 77 -182q54 123 82 180l238 483h229zM895 1575l-74 -105l-282 177l-275 -177l-65 105l346 283z" />
    <glyph glyph-name="ycircumflex" unicode="&#x177;" horiz-adv-x="980" 
d="M950 1026l-358 -1059q-81 -238 -174 -315q-78 -65 -191 -88l-59 123q105 25 178 116q23 29 41 73t43 128l-74 -10q-34 155 -98 342l-227 674l190 43l197 -645q35 -124 59 -242h12q27 116 70 254l182 606h209zM834 1247l-74 -104l-283 176l-274 -176l-66 104l346 283z" />
    <glyph glyph-name="Ydieresis" unicode="&#x178;" horiz-adv-x="1060" 
d="M1081 1411l-450 -850v-561h-205v565l-446 846h241l234 -481q41 -83 77 -182q54 123 82 180l238 483h229zM430 1612q0 -53 -35 -91t-86 -38q-49 0 -84 38t-35 91t35 90t84 37q50 0 85.5 -37.5t35.5 -89.5zM864 1612q0 -53 -35 -91t-86 -38q-49 0 -83.5 38t-34.5 91
t34.5 90t83.5 37q50 0 85.5 -37.5t35.5 -89.5z" />
    <glyph glyph-name="Zacute" unicode="&#x179;" horiz-adv-x="1075" 
d="M983 164l-49 -164h-842v152l570 956q40 69 100 145q-62 -6 -162 -6h-483l47 164h811v-158l-563 -956q-17 -29 -47.5 -73.5t-40.5 -61.5q43 2 141 2h518zM827 1690l-444 -209l-59 110l411 273z" />
    <glyph glyph-name="zacute" unicode="&#x17a;" horiz-adv-x="950" 
d="M858 135l-65 -135h-701v135l539 754h-498v137h703v-141l-514 -750h536zM756 1362l-445 -209l-59 111l412 272z" />
    <glyph glyph-name="Zdotaccent" unicode="&#x17b;" horiz-adv-x="1075" 
d="M983 164l-49 -164h-842v152l570 956q40 69 100 145q-62 -6 -162 -6h-483l47 164h811v-158l-563 -956q-17 -29 -47.5 -73.5t-40.5 -61.5q43 2 141 2h518zM688 1640q0 -59 -40 -101t-97 -42q-55 0 -93 42t-38 101q0 58 39 100t94 42q56 0 95.5 -41t39.5 -101z" />
    <glyph glyph-name="zdotaccent" unicode="&#x17c;" horiz-adv-x="950" 
d="M858 135l-65 -135h-701v135l539 754h-498v137h703v-141l-514 -750h536zM625 1350q0 -59 -40.5 -101.5t-97.5 -42.5q-55 0 -93 42.5t-38 101.5q0 57 39 99t94 42q56 0 96 -41t40 -100z" />
    <glyph glyph-name="Zcaron" unicode="&#x17d;" horiz-adv-x="1075" 
d="M983 164l-49 -164h-842v152l570 956q40 69 100 145q-62 -6 -162 -6h-483l47 164h811v-158l-563 -956q-17 -29 -47.5 -73.5t-40.5 -61.5q43 2 141 2h518zM889 1810l-346 -284l-350 284l73 103l285 -172l272 172z" />
    <glyph glyph-name="zcaron" unicode="&#x17e;" horiz-adv-x="950" 
d="M858 135l-65 -135h-701v135l539 754h-498v137h703v-141l-514 -750h536zM834 1425l-347 -284l-350 284l74 103l285 -172l272 172z" />
    <glyph glyph-name="longs" unicode="&#x17f;" horiz-adv-x="698" 
d="M590 1495q80 0 192 -53l-75 -131q-64 41 -125 41q-114 0 -164 -90q-15 -28 -23 -66t-9 -64.5t-1 -74.5v-1057h-186v887h-158v139h156v76q0 117 27 180.5t93 122.5q47 43 119 66.5t154 23.5z" />
    <glyph glyph-name="uni018F" unicode="&#x18f;" horiz-adv-x="1345" 
d="M119 758h866v45q0 101 -24.5 186.5t-72.5 151.5t-127 103.5t-181 37.5q-192 0 -347 -133l-77 123q106 93 213 128.5t227 35.5q306 0 466.5 -190.5t160.5 -526.5q0 -188 -44 -330t-147 -258q-63 -71 -163.5 -112.5t-217.5 -41.5q-231 0 -366 138q-92 95 -129 229.5
t-37 376.5v37zM342 602q0 -263 92 -377q82 -98 219 -98q162 0 246 126t84 349h-641z" />
    <glyph glyph-name="florin" unicode="&#x192;" horiz-adv-x="595" 
d="M729 1444l-65 -123q-70 39 -125 39q-62 0 -101 -43t-43 -121l-10 -170h258l-55 -135h-211l-53 -797q-6 -83 -11 -132.5t-17 -101t-28.5 -82.5t-46 -66.5t-68 -64t-96.5 -65.5l-88 131q47 31 76 58.5t47.5 52.5t28 64.5t14 75.5t8.5 104l52 823h-91v135h105l8 168
q7 169 127 254q42 31 81 41t99 10q55 0 114 -17t91 -38z" />
    <glyph glyph-name="uni01B5" unicode="&#x1b5;" horiz-adv-x="1075" 
d="M864 643h-250l-202 -346q-17 -29 -47.5 -73.5t-40.5 -61.5q43 2 141 2h518l-49 -164h-842v152l293 491h-162v150h250l189 315q40 69 100 145q-62 -6 -162 -6h-483l47 164h811v-158l-273 -460h162v-150z" />
    <glyph glyph-name="uni01B6" unicode="&#x1b6;" horiz-adv-x="950" 
d="M762 442h-230l-210 -307h536l-65 -135h-701v135l219 307h-125v142h226l219 305h-498v137h703v-141l-207 -301h133v-142z" />
    <glyph glyph-name="uni01C4" unicode="&#x1c4;" horiz-adv-x="2363" 
d="M1165 705q0 -325 -153 -515q-77 -97 -187 -143.5t-288 -46.5h-353v1411h328q189 0 311.5 -51.5t216.5 -181.5q125 -174 125 -473zM946 680q0 160 -22.5 266.5t-81.5 181.5q-57 71 -124 98t-173 27h-160v-1091h156q125 0 204 36.5t125 120.5q76 140 76 361zM2271 164
l-49 -164h-842v152l570 956q40 69 100 145q-62 -6 -162 -6h-483l47 164h811v-158l-563 -956q-17 -29 -47.5 -73.5t-40.5 -61.5q43 2 141 2h518zM2177 1810l-346 -284l-350 284l73 103l285 -172l272 172z" />
    <glyph glyph-name="uni01C5" unicode="&#x1c5;" horiz-adv-x="2238" 
d="M1165 705q0 -325 -153 -515q-77 -97 -187 -143.5t-288 -46.5h-353v1411h328q189 0 311.5 -51.5t216.5 -181.5q125 -174 125 -473zM946 680q0 160 -22.5 266.5t-81.5 181.5q-57 71 -124 98t-173 27h-160v-1091h156q125 0 204 36.5t125 120.5q76 140 76 361zM2146 135
l-65 -135h-701v135l539 754h-498v137h703v-141l-514 -750h536zM2122 1425l-346 -284l-351 284l74 103l285 -172l272 172z" />
    <glyph glyph-name="uni01C6" unicode="&#x1c6;" horiz-adv-x="2107" 
d="M1001 0h-180q-11 33 -18 96q-106 -112 -264 -112q-196 0 -306 138t-110 382q0 166 55.5 289.5t159.5 191.5q91 59 201 59q151 0 249 -118q0 9 -2 74.5t-2 105.5v399l189 -30v-1131q0 -267 28 -344zM782 260v537q-81 96 -217 96q-116 0 -178 -105q-53 -92 -53 -282
q0 -141 17.5 -203t62.5 -108q51 -54 151 -54q76 0 132 34t85 85zM2015 135l-65 -135h-701v135l539 754h-498v137h703v-141l-514 -750h536zM1991 1425l-346 -284l-351 284l74 103l285 -172l272 172z" />
    <glyph glyph-name="uni01C7" unicode="&#x1c7;" horiz-adv-x="1531" 
d="M922 164l-33 -164h-705v1411h201v-1247h537zM1348 250q0 -151 -15 -227.5t-55 -137.5q-79 -116 -234 -174l-92 109q53 27 96.5 68t65.5 83q19 38 27 95.5t8 169.5v1175h199v-1161z" />
    <glyph glyph-name="uni01C8" unicode="&#x1c8;" horiz-adv-x="1515" 
d="M922 164l-33 -164h-705v1411h201v-1247h537zM1331 23q0 -203 -76 -304q-73 -93 -180 -141l-84 115q35 21 66 49q80 74 80 283v985l194 41v-1028zM1364 1358q0 -58 -39.5 -98.5t-95.5 -40.5q-57 0 -95 39t-38 96t39 97t94 40t95 -39.5t40 -93.5z" />
    <glyph glyph-name="uni01C9" unicode="&#x1c9;" horiz-adv-x="1124" 
d="M500 2q-54 -22 -117 -22q-56 0 -93.5 18t-66.5 59q-23 32 -31 68t-8 111v929q0 185 -22 295l196 41q19 -72 19 -293v-954q0 -57 7 -85.5t26 -41.5q21 -15 57 -8zM940 23q0 -203 -76 -304q-73 -93 -180 -141l-84 115q35 21 66 49q79 73 79 283v985l195 41v-1028zM973 1358
q0 -58 -39.5 -98.5t-95.5 -40.5q-57 0 -95 39t-38 96t39 97t94 40t95 -39.5t40 -93.5z" />
    <glyph glyph-name="uni01CA" unicode="&#x1ca;" horiz-adv-x="1888" 
d="M1124 0h-211l-370 750q-132 266 -172 387l-13 -2q13 -163 17 -394l8 -741h-199v1411h230l393 -778q40 -80 85 -191.5t54 -146.5l12 4q-20 205 -20 420l-4 692h190v-1411zM1704 250q0 -151 -15 -227.5t-55 -137.5q-79 -117 -233 -174l-92 109q53 27 96 68t65 83
q19 38 27 95.5t8 169.5v1175h199v-1161z" />
    <glyph glyph-name="uni01CB" unicode="&#x1cb;" horiz-adv-x="1871" 
d="M1124 0h-211l-370 750q-132 266 -172 387l-13 -2q13 -163 17 -394l8 -741h-199v1411h230l393 -778q40 -80 85 -191.5t54 -146.5l12 4q-20 205 -20 420l-4 692h190v-1411zM1688 23q0 -203 -76 -304q-73 -93 -180 -141l-84 115q32 19 65 49q80 74 80 283v985l195 41v-1028z
M1720 1358q0 -58 -39.5 -98.5t-95.5 -40.5q-57 0 -95 39t-38 96t39 97t94 40t95 -39.5t40 -93.5z" />
    <glyph glyph-name="uni01CC" unicode="&#x1cc;" horiz-adv-x="1695" 
d="M948 0h-186v692q0 68 -7 100.5t-26 57.5q-30 41 -104 41q-55 0 -128 -37.5t-126 -93.5v-760h-187v764q0 89 -8 137.5t-31 106.5l179 49q34 -67 34 -158q86 72 134 100q88 52 190 52q82 0 148 -40t94 -106q24 -56 24 -129v-776zM1511 23q0 -205 -75 -304
q-72 -92 -181 -141l-84 115q35 21 66 49q80 74 80 283v985l194 41v-1028zM1544 1358q0 -58 -39.5 -98.5t-95.5 -40.5q-57 0 -95 39t-38 96t39 97t94 40t95 -39.5t40 -93.5z" />
    <glyph glyph-name="uni01F1" unicode="&#x1f1;" horiz-adv-x="2363" 
d="M1165 705q0 -325 -153 -515q-77 -97 -187 -143.5t-288 -46.5h-353v1411h328q189 0 311.5 -51.5t216.5 -181.5q125 -174 125 -473zM946 680q0 160 -22.5 266.5t-81.5 181.5q-57 71 -124 98t-173 27h-160v-1091h156q125 0 204 36.5t125 120.5q76 140 76 361zM2271 164
l-49 -164h-842v152l570 956q40 69 100 145q-62 -6 -162 -6h-483l47 164h811v-158l-563 -956q-17 -29 -47.5 -73.5t-40.5 -61.5q43 2 141 2h518z" />
    <glyph glyph-name="uni01F2" unicode="&#x1f2;" horiz-adv-x="2238" 
d="M1165 705q0 -325 -153 -515q-77 -97 -187 -143.5t-288 -46.5h-353v1411h328q189 0 311.5 -51.5t216.5 -181.5q125 -174 125 -473zM946 680q0 160 -22.5 266.5t-81.5 181.5q-57 71 -124 98t-173 27h-160v-1091h156q125 0 204 36.5t125 120.5q76 140 76 361zM2146 135
l-65 -135h-701v135l539 754h-498v137h703v-141l-514 -750h536z" />
    <glyph glyph-name="uni01F3" unicode="&#x1f3;" horiz-adv-x="2107" 
d="M1001 0h-180q-11 33 -18 96q-106 -112 -264 -112q-196 0 -306 138t-110 382q0 166 55.5 289.5t159.5 191.5q91 59 201 59q151 0 249 -118q0 9 -2 74.5t-2 105.5v399l189 -30v-1131q0 -267 28 -344zM782 260v537q-81 96 -217 96q-116 0 -178 -105q-53 -92 -53 -282
q0 -141 17.5 -203t62.5 -108q51 -54 151 -54q76 0 132 34t85 85zM2015 135l-65 -135h-701v135l539 754h-498v137h703v-141l-514 -750h536z" />
    <glyph glyph-name="Aringacute" unicode="&#x1fa;" horiz-adv-x="1183" 
d="M1174 0h-222l-125 399h-489l-123 -399h-205l463 1413h246zM784 563q-19 49 -97.5 320.5t-92.5 333.5h-12q-16 -63 -96.5 -334t-98.5 -320h397zM801 1679q0 -88 -62.5 -152.5t-148.5 -64.5q-84 0 -144.5 64.5t-60.5 152.5q0 89 62 153t147 64t146 -64t61 -153zM715 1679
q0 53 -35.5 91t-83.5 38q-54 0 -90.5 -37.5t-36.5 -91.5q0 -53 36 -91t85 -38q51 0 88 38t37 91zM965 2105l-445 -209l-59 111l411 272z" />
    <glyph glyph-name="aringacute" unicode="&#x1fb;" horiz-adv-x="1073" 
d="M969 84l-97 -127q-100 40 -137 147q-110 -135 -291 -135q-156 0 -243.5 77.5t-87.5 223.5q0 177 135.5 271t386.5 94q45 0 72 -2v67q0 51 -5 83.5t-21 62.5t-49 43.5t-85 13.5q-78 0 -163.5 -33.5t-152.5 -83.5l-86 136q56 32 85 47t89 40t123 36.5t133 11.5
q114 0 191 -41.5t106 -122.5q21 -59 21 -180q0 -27 -4 -161.5t-4 -219.5q0 -117 14 -165.5t70 -82.5zM702 504q-58 4 -61 4q-203 0 -268 -74q-30 -35 -42 -67t-12 -82q0 -85 42 -132t120 -47q64 0 121.5 37t93.5 99zM748 1352q0 -88 -62.5 -152.5t-148.5 -64.5
q-84 0 -144.5 64.5t-60.5 152.5q0 89 62 153t147 64t146 -64t61 -153zM662 1352q0 53 -35.5 91t-83.5 38q-54 0 -90.5 -37.5t-36.5 -91.5q0 -53 36 -91t85 -38q51 0 88 38t37 91zM827 1778l-444 -209l-59 110l411 273z" />
    <glyph glyph-name="AEacute" unicode="&#x1fc;" horiz-adv-x="1767" 
d="M1696 0h-789v401h-463l-237 -401h-217l854 1405h831l-26 -162h-543v-426h455v-166h-453v-481h588v-170zM911 1186l-12 4l-362 -627h370v395q0 7 2 106t2 122zM1550 1698l-444 -209l-59 110l411 273z" />
    <glyph glyph-name="aeacute" unicode="&#x1fd;" horiz-adv-x="1609" 
d="M1507 473h-624v-24q0 -137 43 -205q37 -60 98 -90.5t135 -30.5q144 0 254 98l70 -112q-147 -132 -365 -132q-116 0 -214 55t-122 115q-48 -62 -118 -108q-100 -68 -220 -68q-162 0 -251 86q-40 38 -60 95.5t-20 119.5q0 176 134 268.5t384 92.5q11 0 33 -1t43 -1v90
q0 90 -32 136t-128 46q-77 0 -162 -32.5t-154 -84.5l-86 136q211 135 430 135q161 0 254 -121q123 123 279 123q166 0 274 -111q64 -69 94.5 -173t30.5 -269v-33zM700 504q-32 4 -59 4q-193 0 -268 -72q-54 -51 -54 -149q0 -85 42 -131.5t120 -46.5q64 0 122 36.5t93 98.5z
M1309 612q0 144 -56.5 223.5t-154.5 79.5q-102 0 -158.5 -77t-56.5 -226h426zM1053 1362l-445 -209l-59 111l412 272z" />
    <glyph glyph-name="Oslashacute" unicode="&#x1fe;" horiz-adv-x="1396" 
d="M1274 694q0 -215 -61 -363t-183 -247q-72 -59 -148.5 -85t-176.5 -26q-180 0 -314 90l-137 -235l-111 66l154 256q-174 209 -174 559q0 231 76.5 402t214.5 253q119 70 280 70q178 0 316 -88l125 215l112 -66l-141 -238q84 -114 126 -237t42 -326zM918 1194
q-92 86 -224 86q-91 0 -167 -41.5t-111 -110.5q-72 -141 -72 -399q0 -235 57 -403zM1049 676q0 236 -54 393l-516 -864q43 -37 104.5 -59.5t121.5 -22.5q164 0 251 125q47 70 70 170t23 258zM985 1698l-444 -209l-60 110l412 273z" />
    <glyph glyph-name="oslashacute" unicode="&#x1ff;" horiz-adv-x="1116" 
d="M1001 504q0 -144 -35.5 -242t-111.5 -174q-61 -61 -132.5 -90t-166.5 -29q-129 0 -223 64l-107 -180l-96 57l113 194q-131 149 -131 410q0 249 118.5 395t321.5 146q123 0 225 -54l107 181l98 -60l-117 -194q137 -149 137 -424zM791 496q0 140 -35 247l-342 -577
q71 -51 145 -51q151 0 203 166q29 95 29 215zM692 860q-60 49 -141 49q-64 0 -116 -30t-75 -82q-41 -93 -41 -262q0 -141 33 -250zM874 1362l-444 -209l-59 111l411 272z" />
    <glyph glyph-name="uni0218" unicode="&#x218;" horiz-adv-x="1212" 
d="M1100 412q0 -61 -19.5 -121.5t-62 -118t-103 -101.5t-151 -71t-197.5 -27q-250 0 -454 125l77 152q189 -117 381 -117q139 0 222.5 66.5t83.5 179.5q0 172 -234 239l-147 44q-167 48 -250.5 133.5t-83.5 230.5q0 183 129 296.5t338 113.5q243 0 432 -133l-88 -140
q-100 61 -174.5 86t-161.5 25q-118 0 -187 -57.5t-69 -155.5q0 -76 48 -122.5t161 -80.5l166 -49q154 -45 249 -144t95 -253zM717 -281q0 -89 -66 -174q-51 -67 -147 -112l-58 75q103 44 113 138q0 7 -24 10q-36 6 -60 35.5t-24 70.5q0 53 36 89t88 36q63 0 102.5 -47
t39.5 -121z" />
    <glyph glyph-name="uni0219" unicode="&#x219;" horiz-adv-x="991" 
d="M889 315q0 -154 -112 -249t-292 -95q-198 0 -383 109l68 135q182 -102 330 -102q85 0 137.5 45.5t52.5 120.5q0 66 -41.5 105t-130.5 56l-125 25q-122 25 -186 98t-64 187q0 141 103 230t268 89q180 0 324 -84l-64 -133q-148 74 -252 74q-81 0 -129.5 -42.5t-48.5 -111.5
q0 -57 32.5 -89t112.5 -50l134 -31q136 -31 201 -106t65 -181zM637 -281q0 -89 -66 -174q-51 -67 -147 -112l-57 75q102 44 112 138q0 7 -24 10q-36 6 -60 35.5t-24 70.5q0 52 36.5 88.5t88.5 36.5q63 0 102 -47t39 -121z" />
    <glyph glyph-name="uni021A" unicode="&#x21a;" horiz-adv-x="968" 
d="M999 1411l-20 -164h-367v-1247h-194v1247h-367v164h948zM657 -281q0 -90 -65 -174q-51 -66 -148 -112l-57 75q103 44 113 138q0 7 -25 10q-36 6 -60 35.5t-24 70.5q0 52 36.5 88.5t88.5 36.5q63 0 102 -47t39 -121z" />
    <glyph glyph-name="uni021B" unicode="&#x21b;" horiz-adv-x="673" 
d="M623 1026l-52 -133h-202v-619q0 -95 28 -130t105 -35q49 0 96 20l23 -115q-85 -43 -187 -43q-46 0 -97.5 14t-82.5 42q-26 23 -37.5 38.5t-22 57t-10.5 108.5v662h-123v133h123q0 161 13 262l194 45q-18 -167 -18 -307h250zM512 -281q0 -89 -66 -174q-51 -67 -147 -112
l-57 75q102 44 112 138q0 7 -24 10q-36 6 -60 35.5t-24 70.5q0 52 36 88.5t89 36.5q63 0 102 -47t39 -121z" />
    <glyph glyph-name="uni0237" unicode="&#x237;" horiz-adv-x="563" 
d="M379 23q0 -203 -76 -304q-73 -93 -180 -141l-84 115q32 19 65 49q80 74 80 283v985l195 41v-1028z" />
    <glyph glyph-name="uni0259" unicode="&#x259;" horiz-adv-x="1052" 
d="M104 563h625v25q0 137 -43 205q-78 120 -235 120q-142 0 -252 -98l-72 113q149 131 354 131q214 0 336.5 -145.5t122.5 -397.5q0 -134 -28.5 -226.5t-94.5 -170.5q-121 -142 -309 -142q-171 0 -279 111q-68 69 -96 167.5t-29 274.5v33zM301 424q0 -151 64 -231
q58 -72 147 -72q105 0 160 80.5t55 222.5h-426z" />
    <glyph glyph-name="uni02BB" unicode="&#x2bb;" horiz-adv-x="546" 
d="M444 1368q-56 -23 -94.5 -68.5t-38.5 -85.5q0 -8 3 -14.5t10.5 -12.5t13.5 -9l18 -9t19 -10q67 -37 67 -119q0 -65 -43 -109t-106 -44q-74 0 -122 59t-48 152q0 118 72.5 216.5t183.5 145.5z" />
    <glyph glyph-name="uni02BC" unicode="&#x2bc;" horiz-adv-x="546" 
d="M424 1231q0 -118 -72.5 -217t-183.5 -146l-66 93q56 23 95 68t39 85q0 8 -3 14.5t-10.5 12.5t-13.5 9l-18 9t-19 10q-68 37 -68 119q0 65 43.5 109.5t106.5 44.5q74 0 122 -59t48 -152z" />
    <glyph glyph-name="circumflex" unicode="&#x2c6;" horiz-adv-x="839" 
d="M768 1247l-74 -104l-282 176l-275 -176l-65 104l346 283z" />
    <glyph glyph-name="caron" unicode="&#x2c7;" horiz-adv-x="839" 
d="M768 1425l-346 -284l-350 284l73 103l285 -172l272 172z" />
    <glyph glyph-name="breve" unicode="&#x2d8;" horiz-adv-x="823" 
d="M752 1427q-18 -26 -48 -60t-76.5 -78t-104.5 -73.5t-111 -29.5q-44 0 -91.5 20.5t-84.5 49t-73.5 65t-56.5 61.5t-34 45l63 84q30 -29 65.5 -55.5t99 -55t120.5 -28.5q111 0 274 139z" />
    <glyph glyph-name="dotaccent" unicode="&#x2d9;" horiz-adv-x="493" 
d="M381 1337q0 -59 -40 -101t-97 -42q-55 0 -93 42t-38 101q0 58 39 100t94 42q56 0 95.5 -41t39.5 -101z" />
    <glyph glyph-name="ring" unicode="&#x2da;" horiz-adv-x="641" 
d="M528 1352q0 -88 -62.5 -152.5t-148.5 -64.5q-84 0 -144 64.5t-60 152.5q0 89 62 153t147 64t145.5 -64t60.5 -153zM442 1352q0 53 -35 91t-83 38q-54 0 -90.5 -37.5t-36.5 -91.5q0 -53 35.5 -91t84.5 -38q51 0 88 38t37 91z" />
    <glyph glyph-name="ogonek" unicode="&#x2db;" horiz-adv-x="589" 
d="M477 -356q-84 -47 -164 -47q-94 0 -147 51.5t-53 126.5q0 86 42.5 157.5t88.5 110.5l108 -63q-104 -97 -104 -189q0 -33 18.5 -55.5t50.5 -22.5q44 0 115 31z" />
    <glyph glyph-name="tilde" unicode="&#x2dc;" horiz-adv-x="806" 
d="M756 1337q-55 -70 -107.5 -102.5t-134.5 -32.5q-42 0 -77.5 13.5t-57 29.5t-55.5 29.5t-74 13.5q-43 0 -71 -18.5t-64 -59.5l-64 107q54 70 105.5 101.5t134.5 31.5q42 0 77.5 -13t57 -29t55.5 -29t74 -13q43 0 71.5 18.5t65.5 59.5z" />
    <glyph glyph-name="hungarumlaut" unicode="&#x2dd;" horiz-adv-x="987" 
d="M457 1499l-232 -424l-112 51l170 447zM874 1458l-301 -371l-98 68l240 408z" />
    <glyph glyph-name="gravecomb" unicode="&#x300;" 
d="M768 1264l-57 -111l-445 209l90 174z" />
    <glyph glyph-name="acutecomb" unicode="&#x301;" 
d="M866 1362l-444 -209l-60 111l412 272z" />
    <glyph glyph-name="uni0302" unicode="&#x302;" 
d="M909 1247l-73 -104l-283 176l-274 -176l-66 104l346 283z" />
    <glyph glyph-name="tildecomb" unicode="&#x303;" 
d="M901 1337q-55 -70 -107.5 -102.5t-134.5 -32.5q-42 0 -77.5 13.5t-57 29.5t-55.5 29.5t-74 13.5q-43 0 -71 -18.5t-64 -59.5l-63 107q54 71 105.5 102t133.5 31q42 0 77.5 -13t57 -29t55.5 -29t74 -13q43 0 72 19t66 59z" />
    <glyph glyph-name="uni0304" unicode="&#x304;" 
d="M647 1155h-575v129h575v-129z" />
    <glyph glyph-name="uni0306" unicode="&#x306;" 
d="M752 1444q-18 -26 -48 -60.5t-76.5 -78.5t-104.5 -73.5t-111 -29.5q-54 0 -112 29.5t-104.5 74t-76 78t-47.5 60.5l63 84q30 -29 65.5 -55.5t99 -55t120.5 -28.5q111 0 274 139z" />
    <glyph glyph-name="uni0307" unicode="&#x307;" 
d="M381 1337q0 -59 -40 -101t-97 -42q-55 0 -93 42t-38 101q0 58 39 100t94 42q56 0 95.5 -41t39.5 -101z" />
    <glyph glyph-name="uni0308" unicode="&#x308;" 
d="M885 1284q0 -53 -35 -91t-84 -38q-51 0 -86 38t-35 91t35 90t86 37q48 0 83.5 -37.5t35.5 -89.5zM461 1284q0 -53 -35 -91t-86 -38q-49 0 -84 38t-35 91t35 90t84 37q50 0 85.5 -37.5t35.5 -89.5z" />
    <glyph glyph-name="uni030A" unicode="&#x30a;" 
d="M748 1352q0 -88 -62.5 -152.5t-148.5 -64.5q-84 0 -144.5 64.5t-60.5 152.5q0 89 62 153t147 64t146 -64t61 -153zM662 1352q0 53 -35.5 91t-83.5 38q-54 0 -90.5 -37.5t-36.5 -91.5q0 -53 36 -91t85 -38q51 0 88 38t37 91z" />
    <glyph glyph-name="uni030B" unicode="&#x30b;" 
d="M457 1577l-232 -424l-112 51l170 447zM874 1536l-301 -371l-98 68l240 407z" />
    <glyph glyph-name="uni030C" unicode="&#x30c;" 
d="M834 1425l-347 -284l-350 284l74 103l285 -172l272 172z" />
    <glyph glyph-name="uni0312" unicode="&#x312;" 
d="M168 1362q0 90 65 174q52 67 148 113l57 -76q-103 -44 -112 -137q0 -8 24 -11q36 -6 60 -35.5t24 -70.5q0 -53 -36 -89t-89 -36q-63 0 -102 47t-39 121z" />
    <glyph glyph-name="uni0313" unicode="&#x313;" 
d="M-8 1245q0 -89 -66 -174q-52 -68 -147 -113l-58 76q104 44 113 137q0 8 -24 11q-36 6 -60 35.5t-24 70.5q0 53 36 89t88 36q63 0 102.5 -47t39.5 -121z" />
    <glyph glyph-name="uni0326" unicode="&#x326;" 
d="M438 -281q0 -90 -65 -174q-51 -66 -148 -112l-57 75q103 44 113 138q0 7 -25 10q-36 6 -60 35.5t-24 70.5q0 52 36 88.5t89 36.5q63 0 102 -47t39 -121z" />
    <glyph glyph-name="uni0327" unicode="&#x327;" 
d="M477 -231q0 -69 -54.5 -122t-148.5 -53q-72 0 -161 50l45 98q71 -31 114 -31q29 0 50.5 17.5t21.5 44.5q0 28 -22 44.5t-54 16.5q-21 0 -63 -6l2 43l39 154l119 -15l-27 -90q139 -18 139 -151z" />
    <glyph glyph-name="uni0328" unicode="&#x328;" 
d="M477 -356q-84 -47 -164 -47q-94 0 -147 51.5t-53 126.5q0 86 42.5 157.5t88.5 110.5l108 -63q-104 -97 -104 -189q0 -33 18.5 -55.5t50.5 -22.5q44 0 115 31z" />
    <glyph glyph-name="uni037E" unicode="&#x37e;" horiz-adv-x="669" 
d="M496 70q0 -118 -72.5 -217t-183.5 -146l-66 92q56 23 94.5 68.5t38.5 85.5q0 8 -3 14.5t-10 12.5t-13 9t-18.5 9.5t-18.5 9.5q-68 37 -68 119q0 65 43.5 109.5t106.5 44.5q74 0 122 -59t48 -152zM467 764q0 -60 -42.5 -104t-102.5 -44t-103 44t-43 106q0 60 41.5 102.5
t101.5 42.5t104 -43.5t44 -103.5z" />
    <glyph glyph-name="tonos" unicode="&#x384;" horiz-adv-x="708" 
d="M506 1528l-193 -391l-106 43l129 415z" />
    <glyph glyph-name="dieresistonos" unicode="&#x385;" horiz-adv-x="1034" 
d="M733 1606l-192 -392l-107 43l129 416zM881 1284q0 -53 -35 -91t-84 -38q-51 0 -86 38t-35 91t35 90t86 37q48 0 83.5 -37.5t35.5 -89.5zM393 1284q0 -53 -35 -91t-86 -38q-49 0 -83.5 38t-34.5 91t34.5 90t83.5 37q50 0 85.5 -37.5t35.5 -89.5z" />
    <glyph glyph-name="Alphatonos" unicode="&#x386;" horiz-adv-x="1183" 
d="M1174 0h-222l-125 399h-489l-123 -399h-205l463 1413h246zM784 563q-19 49 -97.5 320.5t-92.5 333.5h-12q-16 -63 -96.5 -334t-98.5 -320h397zM207 1366l-193 -389l-106 43l129 416z" />
    <glyph glyph-name="anoteleia" unicode="&#x387;" horiz-adv-x="595" 
d="M442 569q0 -63 -42.5 -108t-102.5 -45t-101.5 45t-41.5 108q0 64 41.5 108t101.5 44t102.5 -44t42.5 -108z" />
    <glyph glyph-name="Epsilontonos" unicode="&#x388;" horiz-adv-x="1046" 
d="M975 0h-791v1411h768l-26 -162h-541v-430h453v-166h-453v-483h590v-170zM23 1366l-193 -389l-106 43l129 416z" />
    <glyph glyph-name="Etatonos" unicode="&#x389;" horiz-adv-x="1300" 
d="M1116 0h-198v670h-539v-670h-195v1411h195v-580h539v580h198v-1411zM23 1366l-193 -389l-106 43l129 416z" />
    <glyph glyph-name="Iotatonos" unicode="&#x38a;" horiz-adv-x="569" 
d="M385 0h-201v1411h201v-1411zM23 1366l-193 -389l-106 43l129 416z" />
    <glyph glyph-name="Omicrontonos" unicode="&#x38c;" horiz-adv-x="1396" 
d="M1274 696q0 -216 -67 -378t-196.5 -251.5t-305.5 -89.5q-143 0 -254.5 55t-182.5 153.5t-108 231.5t-37 294q0 344 154 534.5t417 190.5q121 0 219.5 -39.5t165 -107.5t111 -163t64.5 -202t20 -228zM1049 678q0 301 -81.5 452.5t-273.5 151.5q-184 0 -267 -136t-83 -413
q0 -112 11 -201.5t37 -166.5t66.5 -128.5t103 -80.5t143.5 -29q169 0 256.5 132t87.5 419zM125 1366l-193 -389l-106 43l129 416z" />
    <glyph glyph-name="Upsilontonos" unicode="&#x38e;" horiz-adv-x="1060" 
d="M1081 1411l-450 -850v-561h-205v565l-446 846h241l234 -481q41 -83 77 -182q54 123 82 180l238 483h229zM-39 1366l-192 -389l-107 43l129 416z" />
    <glyph glyph-name="Omegatonos" unicode="&#x38f;" horiz-adv-x="1431" 
d="M1309 762q0 -172 -76.5 -332t-212.5 -260h280l-34 -170h-471v152q75 38 132.5 108.5t90.5 156t49 174.5t16 177q0 82 -11.5 154.5t-39 139.5t-68.5 115t-105 76.5t-144 28.5q-371 0 -371 -514q0 -88 16.5 -177t50 -174.5t91.5 -156t133 -108.5v-152h-504l35 170h244
q-135 99 -211 259.5t-76 332.5q0 302 159.5 488t432.5 186q180 0 316.5 -89t207 -241t70.5 -344zM125 1366l-193 -389l-106 43l129 416z" />
    <glyph glyph-name="iotadieresistonos" unicode="&#x390;" horiz-adv-x="561" 
d="M502 2q-54 -22 -117 -22q-107 0 -162 77q-23 32 -31 68t-8 111v561q0 122 -22 215l194 39q23 -100 23 -238v-528q0 -78 5.5 -107t21.5 -45q24 -24 63 -14zM498 1606l-193 -392l-106 43l129 416zM645 1284q0 -53 -35 -91t-84 -38q-51 0 -85.5 38t-34.5 91t34.5 90t85.5 37
q48 0 83.5 -37.5t35.5 -89.5zM158 1284q0 -53 -35 -91t-86 -38q-49 0 -84 38t-35 91t35 90t84 37q50 0 85.5 -37.5t35.5 -89.5z" />
    <glyph glyph-name="Alpha" unicode="&#x391;" horiz-adv-x="1183" 
d="M1174 0h-222l-125 399h-489l-123 -399h-205l463 1413h246zM784 563q-19 49 -97.5 320.5t-92.5 333.5h-12q-16 -63 -96.5 -334t-98.5 -320h397z" />
    <glyph glyph-name="Beta" unicode="&#x392;" horiz-adv-x="1245" 
d="M1122 387q0 -143 -77.5 -236.5t-206.5 -127.5q-91 -23 -224 -23h-430v1411h299q183 0 253.5 -9t135.5 -44q191 -101 191 -295q0 -112 -64.5 -192.5t-191.5 -118.5q157 -35 236 -129.5t79 -235.5zM905 410q0 86 -42.5 150t-108.5 79q-55 12 -148 12h-227v-491h278
q46 0 88.5 14t79 43t58.5 78.5t22 114.5zM850 1030q0 73 -37.5 127.5t-99.5 73.5q-46 14 -144 14h-192v-430h223q90 0 133.5 17.5t75.5 60.5q41 56 41 137z" />
    <glyph glyph-name="Gamma" unicode="&#x393;" horiz-adv-x="858" 
d="M889 1411l-27 -162h-479v-1249h-199v1411h705z" />
    <glyph glyph-name="uni0394" unicode="&#x394;" horiz-adv-x="1257" 
d="M1200 164l-33 -164h-1124v129l471 1284h236zM981 164l-270 782q-41 112 -80 271h-13q-50 -175 -86 -275l-270 -778h719z" />
    <glyph glyph-name="Epsilon" unicode="&#x395;" horiz-adv-x="1046" 
d="M975 0h-791v1411h768l-26 -162h-541v-430h453v-166h-453v-483h590v-170z" />
    <glyph glyph-name="Zeta" unicode="&#x396;" horiz-adv-x="1075" 
d="M983 164l-49 -164h-842v152l570 956q40 69 100 145q-62 -6 -162 -6h-483l47 164h811v-158l-563 -956q-17 -29 -47.5 -73.5t-40.5 -61.5q43 2 141 2h518z" />
    <glyph glyph-name="Eta" unicode="&#x397;" horiz-adv-x="1300" 
d="M1116 0h-198v670h-539v-670h-195v1411h195v-580h539v580h198v-1411z" />
    <glyph glyph-name="Theta" unicode="&#x398;" horiz-adv-x="1415" 
d="M1292 696q0 -326 -156 -522.5t-423 -196.5q-143 0 -256 55t-186 153.5t-111.5 232t-38.5 293.5q0 343 158.5 534t422.5 191q121 0 220.5 -39.5t167.5 -107.5t114 -162.5t67 -202.5t21 -228zM1067 653h-723q20 -526 369 -526q346 0 354 526zM1061 819q-18 228 -104 345.5
t-255 117.5q-170 0 -258 -116t-100 -347h717z" />
    <glyph glyph-name="Iota" unicode="&#x399;" horiz-adv-x="569" 
d="M385 0h-201v1411h201v-1411z" />
    <glyph glyph-name="Kappa" unicode="&#x39a;" horiz-adv-x="1183" 
d="M1153 0h-256l-504 754l494 657h248l-517 -655zM385 0h-201v1411h201v-1411z" />
    <glyph glyph-name="Lambda" unicode="&#x39b;" horiz-adv-x="1142" 
d="M1128 0h-219l-268 942q-43 145 -68 275h-12q-21 -94 -74 -279l-270 -938h-203l439 1413h245z" />
    <glyph glyph-name="Mu" unicode="&#x39c;" horiz-adv-x="1656" 
d="M1524 0h-197l-74 961q-3 34 -5 80.5t-3 91.5t-2 57h-4q-23 -120 -51 -211l-281 -979h-170l-258 934q-26 91 -63 258h-4q-6 -147 -15 -258l-71 -934h-193l127 1411h277l237 -866q40 -150 51 -232h4q20 119 50 222l245 876h279z" />
    <glyph glyph-name="Nu" unicode="&#x39d;" horiz-adv-x="1308" 
d="M1124 0h-211l-370 750q-132 266 -172 387l-13 -2q13 -163 17 -394l8 -741h-199v1411h230l393 -778q40 -80 85 -191.5t54 -146.5l12 4q-20 205 -20 420l-4 692h190v-1411z" />
    <glyph glyph-name="Xi" unicode="&#x39e;" horiz-adv-x="1067" 
d="M995 0h-923l30 182h893v-182zM973 1411l-29 -174h-831v174h860zM877 827l-29 -174h-668l29 174h668z" />
    <glyph glyph-name="Omicron" unicode="&#x39f;" horiz-adv-x="1396" 
d="M1274 696q0 -216 -67 -378t-196.5 -251.5t-305.5 -89.5q-143 0 -254.5 55t-182.5 153.5t-108 231.5t-37 294q0 344 154 534.5t417 190.5q121 0 219.5 -39.5t165 -107.5t111 -163t64.5 -202t20 -228zM1049 678q0 301 -81.5 452.5t-273.5 151.5q-184 0 -267 -136t-83 -413
q0 -112 11 -201.5t37 -166.5t66.5 -128.5t103 -80.5t143.5 -29q169 0 256.5 132t87.5 419z" />
    <glyph glyph-name="Pi" unicode="&#x3a0;" horiz-adv-x="1275" 
d="M1092 0h-199v1249h-514v-1249h-195v1411h908v-1411z" />
    <glyph glyph-name="Rho" unicode="&#x3a1;" horiz-adv-x="1134" 
d="M1083 1001q0 -121 -39.5 -206t-132.5 -156q-58 -44 -124 -65t-173 -21h-233v-553h-197v1411h377q134 0 206 -14.5t130 -50.5q186 -117 186 -345zM864 979q0 135 -69 201q-72 69 -230 69h-184v-536h221q140 0 203 80q59 74 59 186z" />
    <glyph glyph-name="Sigma" unicode="&#x3a3;" horiz-adv-x="1021" 
d="M956 1411l-49 -164h-448q-19 0 -105 4q57 -46 90 -92l291 -383l-338 -528q-14 -22 -65 -86q43 2 106 2h508v-164h-854v145l410 621l-387 494l53 151h788z" />
    <glyph glyph-name="Tau" unicode="&#x3a4;" horiz-adv-x="968" 
d="M999 1411l-20 -164h-367v-1247h-194v1247h-367v164h948z" />
    <glyph glyph-name="Upsilon" unicode="&#x3a5;" horiz-adv-x="1060" 
d="M1081 1411l-450 -850v-561h-205v565l-446 846h241l234 -481q41 -83 77 -182q54 123 82 180l238 483h229z" />
    <glyph glyph-name="Phi" unicode="&#x3a6;" horiz-adv-x="1527" 
d="M1436 707q0 -226 -153.5 -376.5t-418.5 -170.5v-160h-200v162q-276 20 -424 172.5t-148 382.5q0 236 157 386.5t415 164.5v143h200v-143q146 -11 258.5 -61.5t179.5 -128.5t100.5 -171.5t33.5 -199.5zM664 317v791q-351 -46 -351 -377q0 -175 88.5 -283t262.5 -131z
M1210 692q0 367 -346 416v-793q346 46 346 377z" />
    <glyph glyph-name="Chi" unicode="&#x3a7;" horiz-adv-x="1142" 
d="M1122 0h-239l-318 606l-305 -606h-240l426 760l-376 651h239l254 -479l242 479h235l-356 -639z" />
    <glyph glyph-name="Psi" unicode="&#x3a8;" horiz-adv-x="1523" 
d="M1391 844q0 -111 -29.5 -200t-78.5 -147t-118.5 -97.5t-143.5 -58.5t-159 -24v-317h-200v317q-85 5 -159 24t-143.5 58.5t-118.5 97.5t-78.5 147t-29.5 200v567h201v-532q0 -86 16 -152.5t53 -121.5t102 -88.5t157 -43.5v938h200v-938q92 10 157 43.5t102 88.5t53 121.5
t16 152.5v532h201v-567z" />
    <glyph glyph-name="uni03A9" unicode="&#x3a9;" horiz-adv-x="1431" 
d="M1309 762q0 -172 -76.5 -332t-212.5 -260h280l-34 -170h-471v152q75 38 132.5 108.5t90.5 156t49 174.5t16 177q0 82 -11.5 154.5t-39 139.5t-68.5 115t-105 76.5t-144 28.5q-371 0 -371 -514q0 -88 16.5 -177t50 -174.5t91.5 -156t133 -108.5v-152h-504l35 170h244
q-135 99 -211 259.5t-76 332.5q0 302 159.5 488t432.5 186q180 0 316.5 -89t207 -241t70.5 -344z" />
    <glyph glyph-name="Iotadieresis" unicode="&#x3aa;" horiz-adv-x="569" 
d="M385 0h-201v1411h201v-1411zM618 1616q0 -53 -34.5 -91t-83.5 -38q-51 0 -86 38t-35 91t35 90t86 37q48 0 83 -37.5t35 -89.5zM195 1616q0 -53 -35 -91t-86 -38q-49 0 -84 38t-35 91t35 90t84 37q50 0 85.5 -37.5t35.5 -89.5z" />
    <glyph glyph-name="Upsilondieresis" unicode="&#x3ab;" horiz-adv-x="1060" 
d="M1081 1411l-450 -850v-561h-205v565l-446 846h241l234 -481q41 -83 77 -182q54 123 82 180l238 483h229zM860 1612q0 -53 -35 -91t-84 -38q-51 0 -85.5 38t-34.5 91t34.5 90t85.5 37q48 0 83.5 -37.5t35.5 -89.5zM436 1612q0 -53 -35 -91t-86 -38q-49 0 -83.5 38
t-34.5 91t34.5 90t83.5 37q50 0 85.5 -37.5t35.5 -89.5z" />
    <glyph glyph-name="alphatonos" unicode="&#x3ac;" horiz-adv-x="1175" 
d="M1055 98l-97 -127q-60 25 -93.5 60t-53.5 94q-96 -141 -285 -141q-80 0 -151 31.5t-128 92.5t-90.5 160.5t-33.5 225.5q0 267 105 417t300 150q170 0 279 -141q2 75 18 114h170q-24 -91 -24 -286v-402q0 -117 14 -165.5t70 -82.5zM788 279v495q-38 57 -100 91t-127 34
q-118 0 -176.5 -97t-58.5 -272q0 -144 30.5 -231.5t82 -122.5t130.5 -35q66 0 124.5 37.5t94.5 100.5zM801 1528l-193 -391l-106 43l129 415z" />
    <glyph glyph-name="epsilontonos" unicode="&#x3ad;" horiz-adv-x="1056" 
d="M975 106q-99 -71 -206 -103t-243 -32q-52 0 -103 8t-106.5 30.5t-97.5 56.5t-69 91t-27 130q0 102 58.5 175.5t166.5 102.5q-103 37 -144.5 90t-41.5 131q0 124 110 203.5t275 79.5q239 0 409 -151l-82 -105q-66 50 -155 80.5t-164 30.5q-88 0 -140.5 -42.5t-52.5 -99.5
q0 -65 54.5 -111t130.5 -46h158v-140h-152q-101 0 -161 -48.5t-60 -153.5q0 -82 67.5 -126t159.5 -44q104 0 185.5 26t160.5 82zM791 1528l-193 -391l-106 43l129 415z" />
    <glyph glyph-name="etatonos" unicode="&#x3ae;" horiz-adv-x="1132" 
d="M1032 90l-96 -127q-54 22 -90 53q-84 84 -84 240v436q0 68 -7 100.5t-26 57.5q-30 41 -104 41q-55 0 -128 -37.5t-126 -93.5v-760h-187v764q0 89 -8 137.5t-31 106.5l179 49q34 -67 34 -158q93 78 134 100q88 52 190 52q82 0 148 -40t94 -106q24 -56 24 -129v-438
q0 -117 14 -165.5t70 -82.5zM821 1528l-192 -391l-107 43l129 415z" />
    <glyph glyph-name="iotatonos" unicode="&#x3af;" horiz-adv-x="561" 
d="M502 2q-54 -22 -117 -22q-107 0 -162 77q-23 32 -31 68t-8 111v561q0 122 -22 215l194 39q23 -100 23 -238v-528q0 -78 5.5 -107t21.5 -45q24 -24 63 -14zM535 1528l-193 -391l-106 43l129 415z" />
    <glyph glyph-name="upsilondieresistonos" unicode="&#x3b0;" horiz-adv-x="1120" 
d="M946 330q0 -77 -23.5 -142t-70 -115t-121.5 -78t-172 -28q-189 0 -287 101.5t-98 261.5v690l186 37v-670q0 -62 8 -107t29 -84t61.5 -59t100.5 -20t101 20t62 59t29.5 84t8.5 107v629l186 37v-723zM774 1606l-192 -392l-107 43l129 416zM922 1284q0 -53 -35 -91t-84 -38
q-51 0 -86 38t-35 91t35 90t86 37q48 0 83.5 -37.5t35.5 -89.5zM434 1284q0 -53 -35 -91t-86 -38q-49 0 -83.5 38t-34.5 91t34.5 90t83.5 37q50 0 85.5 -37.5t35.5 -89.5z" />
    <glyph glyph-name="alpha" unicode="&#x3b1;" horiz-adv-x="1175" 
d="M1055 98l-97 -127q-60 25 -93.5 60t-53.5 94q-96 -141 -285 -141q-80 0 -151 31.5t-128 92.5t-90.5 160.5t-33.5 225.5q0 267 105 417t300 150q170 0 279 -141q2 75 18 114h170q-24 -91 -24 -286v-402q0 -117 14 -165.5t70 -82.5zM788 279v495q-38 57 -100 91t-127 34
q-118 0 -176.5 -97t-58.5 -272q0 -144 30.5 -231.5t82 -122.5t130.5 -35q66 0 124.5 37.5t94.5 100.5z" />
    <glyph glyph-name="beta" unicode="&#x3b2;" horiz-adv-x="1177" 
d="M1075 408q0 -61 -14 -120t-47.5 -116.5t-83 -101t-126 -70.5t-169.5 -27q-71 0 -144 29.5t-133 83.5q4 -33 4 -115v-360l-184 -43v1474q0 214 99.5 318t318.5 104q169 0 281 -102.5t112 -251.5q0 -110 -60.5 -196t-162.5 -115q147 -34 228 -144t81 -247zM868 403
q0 158 -85 235t-259 77h-28l26 133q135 0 206 62t71 184q0 106 -53.5 168.5t-165.5 62.5q-108 0 -163 -60.5t-55 -207.5v-813q47 -50 117.5 -83.5t128.5 -33.5q66 0 117.5 24.5t82 65t45.5 88t15 98.5z" />
    <glyph glyph-name="gamma" unicode="&#x3b3;" horiz-adv-x="991" 
d="M940 1026l-342 -1026v-389l-184 -43v432l-271 848q-16 43 -59 43q-25 0 -43 -12l-39 122q32 21 75 35.5t79 14.5q76 0 110 -32t49 -85l140 -483q27 -96 53 -224h2q17 103 57 228l176 571h197z" />
    <glyph glyph-name="delta" unicode="&#x3b4;" horiz-adv-x="1116" 
d="M1004 504q0 -244 -121.5 -388.5t-325.5 -144.5q-205 0 -324.5 146t-119.5 397q0 246 113 376t317 130q-195 162 -320 231l27 160h678l-27 -158h-387q97 -62 179.5 -137t155 -169t114 -208.5t41.5 -234.5zM793 485q0 110 -17 188t-50 122.5t-75 64t-98 19.5
q-120 0 -175.5 -87t-55.5 -272q0 -218 58.5 -310.5t180.5 -92.5q110 0 171 90t61 278z" />
    <glyph glyph-name="epsilon" unicode="&#x3b5;" horiz-adv-x="1056" 
d="M975 106q-99 -71 -206 -103t-243 -32q-52 0 -103 8t-106.5 30.5t-97.5 56.5t-69 91t-27 130q0 102 58.5 175.5t166.5 102.5q-103 37 -144.5 90t-41.5 131q0 124 110 203.5t275 79.5q239 0 409 -151l-82 -105q-66 50 -155 80.5t-164 30.5q-88 0 -140.5 -42.5t-52.5 -99.5
q0 -65 54.5 -111t130.5 -46h158v-140h-152q-101 0 -161 -48.5t-60 -153.5q0 -82 67.5 -126t159.5 -44q104 0 185.5 26t160.5 82z" />
    <glyph glyph-name="zeta" unicode="&#x3b6;" horiz-adv-x="931" 
d="M915 1411l-24 -147q-563 -446 -563 -861q0 -215 202 -215h107q124 0 194 -72t70 -194q0 -87 -37.5 -165t-111.5 -173l-111 68q48 70 68 114.5t20 100.5q0 59 -30 96t-89 37h-125q-171 0 -268.5 107.5t-97.5 263.5q0 105 29.5 206.5t76.5 185.5t121.5 174t146 160.5
t169.5 155.5h-502l26 158h729z" />
    <glyph glyph-name="eta" unicode="&#x3b7;" horiz-adv-x="1132" 
d="M1032 90l-96 -127q-54 22 -90 53q-84 84 -84 240v436q0 68 -7 100.5t-26 57.5q-30 41 -104 41q-55 0 -128 -37.5t-126 -93.5v-760h-187v764q0 89 -8 137.5t-31 106.5l179 49q34 -67 34 -158q93 78 134 100q88 52 190 52q82 0 148 -40t94 -106q24 -56 24 -129v-438
q0 -117 14 -165.5t70 -82.5z" />
    <glyph glyph-name="theta" unicode="&#x3b8;" horiz-adv-x="1161" 
d="M1018 694q0 -717 -438 -717q-79 0 -144.5 25.5t-110 67.5t-78 102.5t-53 123.5t-31.5 138.5t-16 139t-4 133.5q0 69 4 131.5t15.5 138t31 138.5t52.5 124t77 103t108.5 68t143.5 26q443 0 443 -742zM827 670h-491q1 -41 1 -62t3 -71.5t7 -81.5t13 -80.5t20.5 -80.5
t30.5 -68t42.5 -58.5t56.5 -36t72 -14.5q40 0 73 13.5t56.5 34t42.5 55t31 65.5t20.5 77.5t12.5 79.5t6 83t2.5 76t0.5 69zM823 809q-1 45 -3 78.5t-8 87.5t-16 93.5t-28.5 85t-43.5 74.5t-63.5 48.5t-85.5 19.5q-46 0 -83 -20t-61 -49t-42 -75.5t-27.5 -85.5t-15.5 -94
t-7.5 -86.5t-2.5 -76.5h487z" />
    <glyph glyph-name="iota" unicode="&#x3b9;" horiz-adv-x="561" 
d="M502 2q-54 -22 -117 -22q-107 0 -162 77q-23 32 -31 68t-8 111v561q0 122 -22 215l194 39q23 -100 23 -238v-528q0 -78 5.5 -107t21.5 -45q24 -24 63 -14z" />
    <glyph glyph-name="kappa" unicode="&#x3ba;" horiz-adv-x="1048" 
d="M1038 0h-235l-410 567l348 459h232l-379 -451zM373 0h-189v776q0 155 -22 236l186 39q25 -115 25 -222v-829z" />
    <glyph glyph-name="lambda" unicode="&#x3bb;" horiz-adv-x="1007" 
d="M1004 2q-54 -22 -117 -22q-67 0 -114 34.5t-64 96.5l-134 495q-39 142 -61 254h-8q-25 -126 -62 -242l-202 -645l-191 43l234 674q62 173 102 342l72 -10l-47 158q-13 41 -25 67.5t-33 54t-52 41t-73 13.5q-57 0 -104 -19l-25 109q84 49 185 49q122 0 189 -87t130 -292
l291 -954q8 -26 18 -35.5t39 -9.5q19 0 23 2z" />
    <glyph glyph-name="uni03BC" unicode="&#x3bc;" horiz-adv-x="1130" 
d="M1010 72l-127 -101q-39 30 -61.5 63.5t-35.5 84.5q-121 -148 -309 -148q-67 0 -112 43q8 -39 8 -100v-301l-199 -45v1452l188 39v-713q0 -78 10 -115.5t38 -62.5q49 -45 118 -45t135.5 46.5t98.5 115.5v731l184 37v-752q0 -105 29 -178q12 -31 35 -51z" />
    <glyph glyph-name="nu" unicode="&#x3bd;" horiz-adv-x="958" 
d="M938 1026l-375 -1034h-176l-367 1030l195 31l203 -621q34 -105 61 -221h4q21 106 62 225l194 590h199z" />
    <glyph glyph-name="xi" unicode="&#x3be;" horiz-adv-x="995" 
d="M965 1411l-27 -158h-309q-54 0 -98 -23.5t-70 -60.5t-39.5 -78.5t-13.5 -80.5q0 -82 61 -143.5t162 -61.5h205l-21 -127h-168q-154 0 -234.5 -79.5t-80.5 -195.5q0 -215 223 -215h131q124 0 194 -72t70 -194q0 -87 -37.5 -165t-111.5 -173l-111 68q48 70 68 114.5
t20 100.5q0 59 -30 96t-89 37h-149q-174 0 -280.5 108.5t-106.5 262.5q0 137 85.5 241.5t215.5 132.5q-100 36 -161.5 106t-61.5 155q0 77 44 151.5t107 95.5h-205l27 158h791z" />
    <glyph glyph-name="omicron" unicode="&#x3bf;" horiz-adv-x="1116" 
d="M1004 504q0 -244 -121.5 -388.5t-325.5 -144.5q-205 0 -324.5 146t-119.5 397q0 249 118.5 395t321.5 146q111 0 198 -42.5t141.5 -117.5t83 -174.5t28.5 -216.5zM793 496q0 154 -30.5 247.5t-81.5 129.5t-128 36q-122 0 -176.5 -89.5t-54.5 -284.5q0 -229 57.5 -323.5
t181.5 -94.5q232 0 232 379z" />
    <glyph glyph-name="pi" unicode="&#x3c0;" horiz-adv-x="1153" 
d="M1102 1026l-51 -137h-103v-547q0 -117 14 -165.5t70 -82.5l-96 -127q-54 22 -90 53q-84 84 -84 240v629h-350v-889h-187v889h-133v137h1010z" />
    <glyph glyph-name="rho" unicode="&#x3c1;" horiz-adv-x="1103" 
d="M991 530q0 -247 -105 -398.5t-296 -151.5q-148 0 -266 106q4 -33 4 -115v-360l-185 -43v999q0 488 410 488q143 0 243.5 -70t147.5 -186.5t47 -268.5zM788 508q0 113 -16 192t-47.5 124t-73 65t-98.5 20q-121 0 -173 -89t-52 -285v-291q105 -113 219 -113q123 0 182 94
t59 283z" />
    <glyph glyph-name="sigma1" unicode="&#x3c2;" horiz-adv-x="946" 
d="M856 -76q0 -152 -149 -338l-111 68q88 125 88 215q0 45 -20 76.5t-54 40.5l-131 37q-151 43 -239 131q-117 123 -117 350q0 299 172 452q117 105 266 105q158 0 279 -109l-99 -129q-89 80 -180 80q-125 0 -180 -110q-49 -98 -49 -312q0 -116 67 -192q53 -62 131 -80
q182 -47 236 -84q90 -63 90 -201z" />
    <glyph glyph-name="sigma" unicode="&#x3c3;" horiz-adv-x="1136" 
d="M1104 1026l-51 -133h-191q142 -142 142 -389q0 -244 -121.5 -388.5t-325.5 -144.5q-205 0 -324.5 146t-119.5 397q0 246 117.5 379t322.5 133h551zM793 496q0 94 -11 163t-30.5 113.5t-49.5 72t-65.5 38t-81.5 10.5q-118 0 -175.5 -84t-57.5 -274q0 -229 57.5 -323.5
t181.5 -94.5q232 0 232 379z" />
    <glyph glyph-name="tau" unicode="&#x3c4;" horiz-adv-x="847" 
d="M801 1026l-51 -133h-252v-619q0 -95 28 -130t105 -35q49 0 96 20l23 -115q-85 -43 -187 -43q-116 0 -174 52q-31 28 -42.5 42.5t-22.5 56t-11 109.5v662h-272v133h760z" />
    <glyph glyph-name="upsilon" unicode="&#x3c5;" horiz-adv-x="1120" 
d="M946 330q0 -77 -23.5 -142t-70 -115t-121.5 -78t-172 -28q-189 0 -287 101.5t-98 261.5v690l186 37v-670q0 -62 8 -107t29 -84t61.5 -59t100.5 -20t101 20t62 59t29.5 84t8.5 107v629l186 37v-723z" />
    <glyph glyph-name="phi" unicode="&#x3c6;" horiz-adv-x="1392" 
d="M1280 504q0 -229 -138.5 -375t-353.5 -158v-360l-184 -43v403q-228 13 -359.5 160.5t-131.5 382.5q0 211 107 359t280 182v-142q-95 -40 -136.5 -133.5t-41.5 -244.5q0 -86 14 -153.5t46 -123t87.5 -91t134.5 -48.5v925q113 11 144 11q257 0 394.5 -148t137.5 -403z
M1071 496q0 87 -12.5 154t-42.5 125t-87.5 93t-140.5 43v-794q98 15 162.5 68.5t92.5 131t28 179.5z" />
    <glyph glyph-name="chi" unicode="&#x3c7;" horiz-adv-x="987" 
d="M977 0h-236q-23 39 -120 201.5t-127 214.5q-119 -209 -250 -416h-234l381 565l-303 447l213 26q19 -31 55 -93t80 -139l64 -112q87 178 176 332h219l-299 -461z" />
    <glyph glyph-name="psi" unicode="&#x3c8;" horiz-adv-x="1390" 
d="M1235 416q0 -213 -123.5 -326.5t-323.5 -118.5v-360l-186 -43v403q-200 5 -323 118.5t-123 326.5v608l186 37v-674q0 -114 71.5 -187t188.5 -79v1126q0 122 -22 215l186 39q22 -96 22 -237v-1143q117 6 189 79t72 187v633l186 37v-641z" />
    <glyph glyph-name="omega" unicode="&#x3c9;" horiz-adv-x="1394" 
d="M1282 412q0 -203 -89.5 -319t-262.5 -116q-75 0 -137.5 45t-94.5 115q-34 -70 -95.5 -115t-135.5 -45q-174 0 -264 116t-90 319q0 388 260 651l94 -59q-156 -225 -156 -539q0 -159 42.5 -244.5t119.5 -85.5q61 0 96 64t35 168v405h187v-405q0 -106 33.5 -169t97.5 -63
q77 0 119 85.5t42 244.5q0 314 -143 532l82 74q260 -263 260 -659z" />
    <glyph glyph-name="iotadieresis" unicode="&#x3ca;" horiz-adv-x="561" 
d="M502 2q-54 -22 -117 -22q-107 0 -162 77q-23 32 -31 68t-8 111v561q0 122 -22 215l194 39q23 -100 23 -238v-528q0 -78 5.5 -107t21.5 -45q24 -24 63 -14zM231 1284q0 -53 -34.5 -91t-85.5 -38q-49 0 -84 38t-35 91t35 90t84 37q50 0 85 -37.5t35 -89.5zM575 1284
q0 -53 -34.5 -91t-85.5 -38q-49 0 -84 38t-35 91t35 90t84 37q50 0 85 -37.5t35 -89.5z" />
    <glyph glyph-name="upsilondieresis" unicode="&#x3cb;" horiz-adv-x="1120" 
d="M946 330q0 -77 -23.5 -142t-70 -115t-121.5 -78t-172 -28q-189 0 -287 101.5t-98 261.5v690l186 37v-670q0 -62 8 -107t29 -84t61.5 -59t100.5 -20t101 20t62 59t29.5 84t8.5 107v629l186 37v-723zM893 1284q0 -53 -35 -91t-84 -38q-51 0 -86 38t-35 91t35 90t86 37
q48 0 83.5 -37.5t35.5 -89.5zM469 1284q0 -53 -35 -91t-86 -38q-49 0 -84 38t-35 91t35 90t84 37q50 0 85.5 -37.5t35.5 -89.5z" />
    <glyph glyph-name="omicrontonos" unicode="&#x3cc;" horiz-adv-x="1116" 
d="M1004 504q0 -244 -121.5 -388.5t-325.5 -144.5q-205 0 -324.5 146t-119.5 397q0 249 118.5 395t321.5 146q111 0 198 -42.5t141.5 -117.5t83 -174.5t28.5 -216.5zM793 496q0 154 -30.5 247.5t-81.5 129.5t-128 36q-122 0 -176.5 -89.5t-54.5 -284.5q0 -229 57.5 -323.5
t181.5 -94.5q232 0 232 379zM791 1528l-193 -391l-106 43l129 415z" />
    <glyph glyph-name="upsilontonos" unicode="&#x3cd;" horiz-adv-x="1120" 
d="M946 330q0 -77 -23.5 -142t-70 -115t-121.5 -78t-172 -28q-189 0 -287 101.5t-98 261.5v690l186 37v-670q0 -62 8 -107t29 -84t61.5 -59t100.5 -20t101 20t62 59t29.5 84t8.5 107v629l186 37v-723zM793 1528l-193 -391l-106 43l129 415z" />
    <glyph glyph-name="omegatonos" unicode="&#x3ce;" horiz-adv-x="1394" 
d="M1282 412q0 -203 -89.5 -319t-262.5 -116q-75 0 -137.5 45t-94.5 115q-34 -70 -95.5 -115t-135.5 -45q-174 0 -264 116t-90 319q0 388 260 651l94 -59q-156 -225 -156 -539q0 -159 42.5 -244.5t119.5 -85.5q61 0 96 64t35 168v405h187v-405q0 -106 33.5 -169t97.5 -63
q77 0 119 85.5t42 244.5q0 314 -143 532l82 74q260 -263 260 -659zM942 1528l-192 -391l-107 43l129 415z" />
    <glyph glyph-name="uni03D0" unicode="&#x3d0;" horiz-adv-x="1177" 
d="M1075 408q0 -61 -14 -120t-47.5 -116.5t-83 -101t-126 -70.5t-169.5 -27q-78 0 -155.5 39.5t-123.5 102.5q-14 -82 -30 -115h-174q26 71 26 240v802q0 214 99.5 318t318.5 104q169 0 281 -102.5t112 -251.5q0 -110 -60.5 -196t-162.5 -115q147 -34 228 -144t81 -247z
M868 403q0 158 -85 235t-259 77h-28l26 133q135 0 206 62t71 184q0 106 -53.5 168.5t-165.5 62.5q-108 0 -163 -60.5t-55 -207.5v-813q47 -50 117.5 -83.5t128.5 -33.5q66 0 117.5 24.5t82 65t45.5 88t15 98.5z" />
    <glyph glyph-name="theta1" unicode="&#x3d1;" horiz-adv-x="1126" 
d="M137 383q0 104 -24 188l176 31q7 -20 16.5 -82t9.5 -139q0 -133 58.5 -193.5t171.5 -60.5q74 0 124 34t79 102.5t42.5 153.5t18.5 206q-74 11 -136.5 23t-135 32t-129.5 44.5t-112.5 61t-91.5 80t-58.5 102.5t-22.5 128q0 158 108 265t279 107q104 0 190 -41.5
t143.5 -111t96.5 -163t56.5 -194t17.5 -206.5q0 -381 -127 -579t-342 -198q-191 0 -299.5 113t-108.5 297zM313 1073q0 -60 26 -107t68 -79t108.5 -57t134 -39.5t157.5 -28.5q-2 54 -4.5 97t-10.5 104.5t-20.5 108.5t-35 97t-52.5 83t-75.5 54t-100.5 21q-85 0 -140 -69
t-55 -185z" />
    <glyph glyph-name="Upsilon1" unicode="&#x3d2;" horiz-adv-x="993" 
d="M600 485v-485h-205v485q0 537 -415 791l108 156q156 -92 257 -230t157 -328q103 375 422 558l90 -152q-146 -89 -240.5 -217.5t-134 -270t-39.5 -307.5z" />
    <glyph glyph-name="uni03D3" unicode="&#x3d3;" horiz-adv-x="993" 
d="M600 485v-485h-205v485q0 537 -415 791l108 156q156 -92 257 -230t157 -328q103 375 422 558l90 -152q-146 -89 -240.5 -217.5t-134 -270t-39.5 -307.5zM-139 1366l-193 -389l-106 43l129 416z" />
    <glyph glyph-name="uni03D4" unicode="&#x3d4;" horiz-adv-x="993" 
d="M600 485v-485h-205v485q0 537 -415 791l108 156q156 -92 257 -230t157 -328q103 375 422 558l90 -152q-146 -89 -240.5 -217.5t-134 -270t-39.5 -307.5zM829 1669q0 -53 -34.5 -91t-83.5 -38q-51 0 -86 38t-35 91t35 90t86 37q48 0 83 -37.5t35 -89.5zM403 1669
q0 -53 -34.5 -91t-85.5 -38q-49 0 -84 38t-35 91t35 90t84 37q50 0 85 -37.5t35 -89.5z" />
    <glyph glyph-name="phi1" unicode="&#x3d5;" horiz-adv-x="1392" 
d="M1280 504q0 -229 -138.5 -375t-353.5 -158v-360l-184 -43v403q-229 13 -360 158.5t-131 380.5q0 240 127.5 385.5t363.5 157.5v194q0 122 -22 215l184 39q22 -96 22 -237v-211q237 -12 364.5 -158.5t127.5 -390.5zM1071 496q0 68 -7.5 123.5t-27 108t-50.5 89t-81.5 62
t-116.5 32.5v-794q98 15 162.5 68.5t92.5 131t28 179.5zM604 119v792q-80 -8 -136.5 -41.5t-87.5 -88.5t-44.5 -120t-13.5 -147q0 -348 282 -395z" />
    <glyph glyph-name="uni0400" unicode="&#x400;" horiz-adv-x="1046" 
d="M975 0h-791v1411h768l-26 -162h-541v-430h453v-166h-453v-483h590v-170zM807 1591l-57 -110l-445 209l90 174z" />
    <glyph glyph-name="uni0401" unicode="&#x401;" horiz-adv-x="1046" 
d="M975 0h-791v1411h768l-26 -162h-541v-430h453v-166h-453v-483h590v-170zM492 1612q0 -53 -35 -91t-86 -38q-49 0 -84 38t-35 91t35 90t84 37q50 0 85.5 -37.5t35.5 -89.5zM920 1612q0 -53 -35 -91t-86 -38q-49 0 -84 38t-35 91t35 90t84 37q50 0 85.5 -37.5t35.5 -89.5z
" />
    <glyph glyph-name="uni0402" unicode="&#x402;" horiz-adv-x="1363" 
d="M946 1411l-16 -164h-393v-430q154 72 292 72q172 0 271 -94q121 -116 121 -361q0 -107 -24 -197t-95 -163q-99 -99 -248 -99q-92 0 -162 31l-41 19l41 143q43 -24 64 -31q44 -14 80 -14q88 0 131 67q19 29 28.5 72t11 73t1.5 85q0 101 -13.5 162t-52.5 100
q-55 55 -166 55q-110 0 -239 -61v-676h-197v1247h-350v164h956z" />
    <glyph glyph-name="uni0403" unicode="&#x403;" horiz-adv-x="858" 
d="M889 1411l-27 -162h-479v-1249h-199v1411h705zM797 1698l-445 -209l-59 110l412 273z" />
    <glyph glyph-name="uni0404" unicode="&#x404;" horiz-adv-x="1218" 
d="M848 815v-160h-498v-34q0 -273 119 -392q56 -55 122.5 -72.5t147.5 -17.5q169 0 303 109l84 -142q-54 -43 -137 -79q-117 -47 -260 -47q-122 0 -227.5 32t-194.5 123q-178 185 -178 570q0 372 182 563q156 164 410 164q214 0 385 -123l-84 -133q-136 96 -291 96
q-82 0 -146.5 -20t-119.5 -76q-113 -115 -113 -330v-31h496z" />
    <glyph glyph-name="uni0405" unicode="&#x405;" horiz-adv-x="1212" 
d="M1100 412q0 -61 -19.5 -121.5t-62 -118t-103 -101.5t-151 -71t-197.5 -27q-250 0 -454 125l77 152q189 -117 381 -117q139 0 222.5 66.5t83.5 179.5q0 172 -234 239l-147 44q-167 48 -250.5 133.5t-83.5 230.5q0 183 129 296.5t338 113.5q243 0 432 -133l-88 -140
q-100 61 -174.5 86t-161.5 25q-118 0 -187 -57.5t-69 -155.5q0 -76 48 -122.5t161 -80.5l166 -49q154 -45 249 -144t95 -253z" />
    <glyph glyph-name="uni0406" unicode="&#x406;" horiz-adv-x="569" 
d="M385 0h-201v1411h201v-1411z" />
    <glyph glyph-name="uni0407" unicode="&#x407;" horiz-adv-x="569" 
d="M385 0h-201v1411h201v-1411zM190 1616q0 -53 -34.5 -91t-85.5 -38q-49 0 -84 38t-35 91t35 90t84 37q50 0 85 -37.5t35 -89.5zM618 1616q0 -53 -34.5 -91t-85.5 -38q-49 0 -84 38t-35 91t35 90t84 37q50 0 85 -37.5t35 -89.5z" />
    <glyph glyph-name="uni0408" unicode="&#x408;" horiz-adv-x="579" 
d="M395 250q0 -152 -14.5 -228.5t-54.5 -136.5q-79 -116 -234 -174l-92 109q53 27 96.5 68t65.5 83q19 38 27 95.5t8 169.5v1175h198v-1161z" />
    <glyph glyph-name="uni0409" unicode="&#x409;" horiz-adv-x="1861" 
d="M1042 850h211q110 0 197.5 -16t161.5 -70q157 -112 157 -338q0 -191 -112 -303q-42 -42 -94.5 -69t-109.5 -37.5t-94.5 -13.5t-86.5 -3h-426v1251h-348l-17 -305q-14 -290 -43 -522q-9 -72 -19 -121.5t-39 -116.5t-73 -108q-80 -76 -221 -88l-59 -6l-37 139l49 14
q75 23 121 64q29 27 49 64t32 91.5t17.5 92t13.5 112.5q23 208 39 535l15 315h716v-561zM1042 160h179q95 0 152 12.5t100 48.5q79 69 79 203q0 137 -79 205q-44 38 -104 49.5t-142 11.5h-185v-530z" />
    <glyph glyph-name="uni040A" unicode="&#x40a;" horiz-adv-x="1935" 
d="M1116 1411v-561h211q110 0 197.5 -16t161.5 -70q157 -112 157 -338q0 -191 -112 -303q-42 -42 -94.5 -69t-109.5 -37.5t-94.5 -13.5t-86.5 -3h-426v690h-539v-690h-197v1411h197v-561h539v561h196zM1116 160h205q152 0 225 61q80 70 80 203q0 136 -80 205
q-44 38 -104 49.5t-142 11.5h-184v-530z" />
    <glyph glyph-name="uni040B" unicode="&#x40b;" horiz-adv-x="1368" 
d="M946 1411l-20 -164h-387v-430q145 72 307 72q197 0 295 -96q50 -48 67 -105t17 -133v-555h-191v530q0 108 -57 158q-55 49 -174 49q-130 0 -264 -61v-676h-197v1247h-352v164h956z" />
    <glyph glyph-name="uni040C" unicode="&#x40c;" horiz-adv-x="1183" 
d="M1124 1427l39 -135l-67 -16q-43 -10 -74 -37q-28 -26 -43 -84l-49 -178q-1 -3 -6 -21.5t-6.5 -23l-7 -21t-9 -24t-10.5 -22t-13.5 -23.5t-16.5 -21t-21 -22q-35 -32 -80 -49v-2q36 -12 80 -50q52 -50 84 -163l75 -265q14 -59 41 -86q23 -23 97 -47l51 -16l-35 -137
l-102 10q-123 13 -177 67q-51 49 -75 170l-51 246q-21 101 -68 146q-47 47 -137 47h-160v-670h-199v1411h199v-582h160q110 0 162 50q40 40 59 135l39 182q8 37 13.5 55.5t19.5 47.5t34 49q56 58 164 69zM932 1698l-445 -209l-59 110l412 273z" />
    <glyph glyph-name="uni040D" unicode="&#x40d;" horiz-adv-x="1353" 
d="M1169 0h-196v907q0 119 10 277q-28 -105 -65 -172l-529 -1012h-205v1411h197v-922q0 -107 -14 -243q36 115 86 209l493 956h223v-1411zM930 1591l-58 -110l-444 209l90 174z" />
    <glyph glyph-name="uni040E" unicode="&#x40e;" horiz-adv-x="1144" 
d="M256 1411l260 -663q50 -128 78 -228q29 104 78 248l215 643h196l-387 -1112q-63 -181 -123 -244q-74 -76 -233 -94l-57 -6l-37 141l33 8q103 24 153 74t80 139l31 91l-94 -9l-408 1012h215zM797 1782l100 -62q-25 -61 -74 -110q-86 -86 -229 -86q-153 0 -242 94
q-43 43 -65 102l100 62q30 -53 86 -82q48 -27 123 -27q67 0 115 27q54 30 86 82z" />
    <glyph glyph-name="uni040F" unicode="&#x40f;" horiz-adv-x="1271" 
d="M184 1411h197v-1251h510v1251h196v-1411h-358v-369h-188v369h-357v1411z" />
    <glyph glyph-name="uni0410" unicode="&#x410;" horiz-adv-x="1183" 
d="M1174 0h-222l-125 399h-489l-123 -399h-205l463 1413h246zM784 563q-19 49 -97.5 320.5t-92.5 333.5h-12q-16 -63 -96.5 -334t-98.5 -320h397z" />
    <glyph glyph-name="uni0411" unicode="&#x411;" horiz-adv-x="1239" 
d="M184 1411h817l-24 -164h-596v-411h233q242 0 361 -88q63 -46 107 -130t44 -204q0 -197 -125 -308q-120 -106 -370 -106h-447v1411zM381 164h233q49 0 78.5 2t75.5 17t76 44q65 61 65 183q0 144 -88 211q-32 24 -78.5 36t-75.5 13.5t-77 1.5h-209v-508z" />
    <glyph glyph-name="uni0412" unicode="&#x412;" horiz-adv-x="1245" 
d="M1122 387q0 -143 -77.5 -236.5t-206.5 -127.5q-91 -23 -224 -23h-430v1411h299q183 0 253.5 -9t135.5 -44q191 -101 191 -295q0 -112 -64.5 -192.5t-191.5 -118.5q157 -35 236 -129.5t79 -235.5zM905 410q0 86 -42.5 150t-108.5 79q-55 12 -148 12h-227v-491h278
q46 0 88.5 14t79 43t58.5 78.5t22 114.5zM850 1030q0 73 -37.5 127.5t-99.5 73.5q-46 14 -144 14h-192v-430h223q90 0 133.5 17.5t75.5 60.5q41 56 41 137z" />
    <glyph glyph-name="uni0413" unicode="&#x413;" horiz-adv-x="858" 
d="M889 1411l-27 -162h-479v-1249h-199v1411h705z" />
    <glyph glyph-name="uni0414" unicode="&#x414;" horiz-adv-x="1222" 
d="M1069 1411v-1251h94v-529h-188v369h-766v-369h-189v529h91q110 212 174 465q59 239 71 579l9 207h704zM528 1251l-10 -176q-9 -147 -24.5 -262t-51.5 -252q-62 -228 -151 -401h581v1091h-344z" />
    <glyph glyph-name="uni0415" unicode="&#x415;" horiz-adv-x="1046" 
d="M975 0h-791v1411h768l-26 -162h-541v-430h453v-166h-453v-483h590v-170z" />
    <glyph glyph-name="uni0416" unicode="&#x416;" horiz-adv-x="1781" 
d="M1688 1427l38 -135l-57 -14q-1 0 -11 -2.5t-12.5 -3.5t-11 -3.5t-12 -4l-10.5 -4.5t-11.5 -6t-9.5 -7.5t-10 -9.5q-22 -22 -39 -82l-49 -184q-31 -121 -82 -170q-37 -34 -86 -51v-5q44 -13 78 -47q56 -56 84 -163l76 -265q16 -61 41 -86q31 -31 106 -51l41 -12l-35 -137
l-127 14q-103 9 -155 63q-46 48 -68 152l-55 264q-21 99 -68 144q-33 32 -68.5 40.5t-84.5 8.5h-101v-670h-196v670h-101q-32 0 -52.5 -2t-49 -13.5t-51.5 -33.5q-47 -45 -68 -144l-55 -264q-22 -104 -68 -152q-52 -54 -155 -63l-127 -14l-35 137l41 12q75 20 106 51
q25 25 41 86l76 265q28 107 84 163q34 34 78 47v5q-49 17 -86 51q-51 49 -82 170l-49 184q-17 60 -39 82q-5 5 -10 9.5t-9.5 7.5t-11.5 6l-10.5 4.5t-12 4t-11 3.5t-12.5 3.5t-11 2.5l-58 14l39 135l101 -12q104 -10 155 -59q44 -44 66 -152l39 -190q17 -98 65 -142
q23 -20 55.5 -30t54 -11.5t58.5 -1.5h105v582h196v-582h105q37 0 58.5 1.5t54 11.5t55.5 30q48 44 65 142l39 190q22 108 66 152q51 49 155 59z" />
    <glyph glyph-name="uni0417" unicode="&#x417;" horiz-adv-x="1144" 
d="M516 653h-174v152h150q128 0 196 61q70 65 70 181q0 103 -62 165q-66 68 -198 68q-162 0 -289 -109l-88 132q69 53 162 88q107 41 245 41q219 0 340 -123q95 -95 95 -244q0 -145 -86 -231q-59 -61 -158 -91q130 -22 209 -98q94 -89 94 -242q0 -167 -115 -282
q-138 -141 -403 -141q-153 0 -268 45q-82 30 -154 84l88 139q150 -117 338 -117q147 0 221 74q72 72 72 196q0 115 -68 183q-69 69 -217 69z" />
    <glyph glyph-name="uni0418" unicode="&#x418;" horiz-adv-x="1353" 
d="M1169 0h-196v907q0 119 10 277q-28 -105 -65 -172l-529 -1012h-205v1411h197v-922q0 -107 -14 -243q36 115 86 209l493 956h223v-1411z" />
    <glyph glyph-name="uni0419" unicode="&#x419;" horiz-adv-x="1353" 
d="M1169 0h-196v907q0 119 10 277q-28 -105 -65 -172l-529 -1012h-205v1411h197v-922q0 -107 -14 -243q36 115 86 209l493 956h223v-1411zM883 1765l100 -61q-26 -63 -74 -111q-86 -86 -229 -86q-152 0 -242 95q-43 43 -65 102l100 61q30 -53 86 -82q46 -26 123 -26
q69 0 115 26q54 30 86 82z" />
    <glyph glyph-name="uni041A" unicode="&#x41a;" horiz-adv-x="1183" 
d="M1124 1427l39 -135l-67 -16q-43 -10 -74 -37q-28 -26 -43 -84l-49 -178q-1 -3 -6 -21.5t-6.5 -23l-7 -21t-9 -24t-10.5 -22t-13.5 -23.5t-16.5 -21t-21 -22q-35 -32 -80 -49v-2q36 -12 80 -50q52 -50 84 -163l75 -265q14 -59 41 -86q23 -23 97 -47l51 -16l-35 -137
l-102 10q-123 13 -177 67q-51 49 -75 170l-51 246q-21 101 -68 146q-47 47 -137 47h-160v-670h-199v1411h199v-582h160q110 0 162 50q40 40 59 135l39 182q8 37 13.5 55.5t19.5 47.5t34 49q56 58 164 69z" />
    <glyph glyph-name="uni041B" unicode="&#x41b;" horiz-adv-x="1226" 
d="M498 1251l-17 -305q-14 -290 -43 -522q-9 -72 -19 -121.5t-39 -116.5t-73 -108q-80 -76 -221 -88l-59 -6l-37 139l49 14q75 23 121 64q29 27 49 64t32 91.5t17.5 92t13.5 112.5q23 208 39 535l15 315h716v-1411h-196v1251h-348z" />
    <glyph glyph-name="uni041C" unicode="&#x41c;" horiz-adv-x="1656" 
d="M1524 0h-197l-74 961q-3 34 -5 80.5t-3 91.5t-2 57h-4q-23 -120 -51 -211l-281 -979h-170l-258 934q-26 91 -63 258h-4q-6 -147 -15 -258l-71 -934h-193l127 1411h277l237 -866q40 -150 51 -232h4q20 119 50 222l245 876h279z" />
    <glyph glyph-name="uni041D" unicode="&#x41d;" horiz-adv-x="1300" 
d="M1116 0h-198v670h-539v-670h-195v1411h195v-580h539v580h198v-1411z" />
    <glyph glyph-name="uni041E" unicode="&#x41e;" horiz-adv-x="1396" 
d="M1274 696q0 -216 -67 -378t-196.5 -251.5t-305.5 -89.5q-143 0 -254.5 55t-182.5 153.5t-108 231.5t-37 294q0 344 154 534.5t417 190.5q121 0 219.5 -39.5t165 -107.5t111 -163t64.5 -202t20 -228zM1049 678q0 301 -81.5 452.5t-273.5 151.5q-184 0 -267 -136t-83 -413
q0 -112 11 -201.5t37 -166.5t66.5 -128.5t103 -80.5t143.5 -29q169 0 256.5 132t87.5 419z" />
    <glyph glyph-name="uni041F" unicode="&#x41f;" horiz-adv-x="1259" 
d="M1075 0h-196v1251h-498v-1251h-197v1411h891v-1411z" />
    <glyph glyph-name="uni0420" unicode="&#x420;" horiz-adv-x="1134" 
d="M1083 1001q0 -121 -39.5 -206t-132.5 -156q-58 -44 -124 -65t-173 -21h-233v-553h-197v1411h377q134 0 206 -14.5t130 -50.5q186 -117 186 -345zM864 979q0 135 -69 201q-72 69 -230 69h-184v-536h221q140 0 203 80q59 74 59 186z" />
    <glyph glyph-name="uni0421" unicode="&#x421;" horiz-adv-x="1187" 
d="M1096 96q-162 -116 -381 -116q-274 0 -439 210q-153 197 -153 504q0 241 92 420q79 152 212.5 238t295.5 86q210 0 346 -111l-96 -129q-112 82 -250 82q-104 0 -183.5 -52t-129.5 -151q-68 -136 -68 -379q0 -212 51 -331q48 -114 139 -172t207 -58q147 0 260 88z" />
    <glyph glyph-name="uni0422" unicode="&#x422;" horiz-adv-x="968" 
d="M999 1411l-20 -164h-367v-1247h-194v1247h-367v164h948z" />
    <glyph glyph-name="uni0423" unicode="&#x423;" horiz-adv-x="1144" 
d="M256 1411l260 -663q50 -128 78 -228q29 104 78 248l215 643h196l-387 -1112q-63 -181 -123 -244q-74 -76 -233 -94l-57 -6l-37 141l33 8q103 24 153 74t80 139l31 91l-94 -9l-408 1012h215z" />
    <glyph glyph-name="uni0424" unicode="&#x424;" horiz-adv-x="1517" 
d="M858 0h-196v223h-39q-225 0 -353 121q-145 135 -145 410q0 163 45.5 265.5t108.5 154.5q62 53 152.5 81.5t191.5 28.5h39v205h196v-205h37q224 0 356 -127q144 -140 144 -403q0 -271 -150 -410q-131 -121 -350 -121h-37v-223zM852 1149v-791h31q139 0 215 74
q53 52 70.5 126.5t17.5 195.5q0 118 -17 193.5t-71 127.5q-76 74 -215 74h-31zM668 1149h-31q-139 0 -215 -74q-54 -52 -71 -128t-17 -193q0 -120 17 -195t71 -127q76 -74 215 -74h31v791z" />
    <glyph glyph-name="uni0425" unicode="&#x425;" horiz-adv-x="1142" 
d="M1122 0h-239l-318 606l-305 -606h-240l426 760l-376 651h239l254 -479l242 479h235l-356 -639z" />
    <glyph glyph-name="uni0426" unicode="&#x426;" horiz-adv-x="1243" 
d="M184 1411h197v-1251h510v1251h196v-1251h95v-529h-189v369h-809v1411z" />
    <glyph glyph-name="uni0427" unicode="&#x427;" horiz-adv-x="1216" 
d="M1032 0h-196v623q-140 -66 -310 -66q-195 0 -293 98q-55 55 -72.5 121t-17.5 146v489h197v-473q0 -59 10.5 -100t44.5 -74q57 -55 183 -55q135 0 258 55v647h196v-1411z" />
    <glyph glyph-name="uni0428" unicode="&#x428;" horiz-adv-x="1785" 
d="M381 1411v-1251h414v1251h196v-1251h414v1251h197v-1411h-1418v1411h197z" />
    <glyph glyph-name="uni0429" unicode="&#x429;" horiz-adv-x="1757" 
d="M381 1411v-1251h414v1251h196v-1251h414v1251h197v-1251h94v-529h-189v369h-1323v1411h197z" />
    <glyph glyph-name="uni042A" unicode="&#x42a;" horiz-adv-x="1443" 
d="M614 1411v-561h211q110 0 197.5 -16t161.5 -70q157 -112 157 -338q0 -191 -112 -303q-42 -42 -94.5 -69t-109.5 -37.5t-94.5 -13.5t-86.5 -3h-426v1247h-398v164h594zM614 160h201q158 0 229 61q80 70 80 203q0 136 -80 205q-44 38 -103.5 49.5t-141.5 11.5h-185v-530z
" />
    <glyph glyph-name="uni042B" unicode="&#x42b;" horiz-adv-x="1675" 
d="M381 1411v-561h211q110 0 197 -16t161 -70q158 -113 158 -338q0 -190 -113 -303q-42 -42 -94.5 -69t-109.5 -37.5t-94.5 -13.5t-86.5 -3h-426v1411h197zM381 160h201q158 0 229 61q80 70 80 203q0 136 -80 205q-44 38 -104 49.5t-142 11.5h-184v-530zM1491 0h-201v1411
h201v-1411z" />
    <glyph glyph-name="uni042C" unicode="&#x42c;" horiz-adv-x="1210" 
d="M381 1411v-561h211q110 0 197 -16t161 -70q158 -113 158 -338q0 -190 -113 -303q-42 -42 -94.5 -69t-109.5 -37.5t-94.5 -13.5t-86.5 -3h-426v1411h197zM381 160h201q158 0 229 61q80 70 80 203q0 136 -80 205q-44 38 -104 49.5t-142 11.5h-184v-530z" />
    <glyph glyph-name="uni042D" unicode="&#x42d;" horiz-adv-x="1216" 
d="M375 815h495v29q0 207 -108 327q-54 59 -117 80t-145 21q-165 0 -299 -96l-84 133q172 123 385 123q256 0 413 -160q56 -58 94 -128.5t55.5 -145.5t23.5 -137.5t6 -135.5q0 -395 -193 -590q-91 -91 -196 -123t-222 -32q-137 0 -254 47q-83 36 -137 79l88 142
q137 -109 314 -109q174 0 266 92q112 112 112 390v34h-497v160z" />
    <glyph glyph-name="uni042E" unicode="&#x42e;" horiz-adv-x="1853" 
d="M1157 1432q227 0 375 -144q94 -91 146.5 -242t52.5 -333q0 -192 -52.5 -345.5t-146.5 -244.5q-147 -143 -377 -143q-215 0 -352 143q-58 59 -98.5 135.5t-59 153.5t-26 138t-7.5 120h-231v-670h-197v1411h197v-582h233q9 131 57 253.5t130 205.5q141 144 356 144z
M1155 1280q-117 0 -201 -84q-127 -125 -127 -481q0 -373 127 -500q84 -84 201 -84q139 0 223 84q131 131 131 494q0 356 -131 487q-84 84 -223 84z" />
    <glyph glyph-name="uni042F" unicode="&#x42f;" horiz-adv-x="1241" 
d="M1057 1411v-1411h-195v618h-162q-37 0 -60.5 -2t-55.5 -13.5t-56 -33.5t-39 -53t-28 -90l-47 -221q-21 -99 -66 -142q-53 -53 -174 -67l-108 -12l-35 137l30 8q88 23 119 57q25 28 43 95l49 184q15 55 32 93t50 73q51 51 121 67v7q-111 16 -192 88q-99 88 -99 239
q0 163 107 266q41 39 89.5 63.5t103.5 34.5t93.5 12.5t94.5 2.5h385zM860 1251h-180q-150 0 -223 -69q-66 -62 -66 -172q0 -115 84 -176q79 -56 225 -56h160v473z" />
    <glyph glyph-name="uni0430" unicode="&#x430;" horiz-adv-x="1073" 
d="M969 84l-97 -127q-100 40 -137 147q-110 -135 -291 -135q-156 0 -243.5 77.5t-87.5 223.5q0 177 135.5 271t386.5 94q45 0 72 -2v67q0 51 -5 83.5t-21 62.5t-49 43.5t-85 13.5q-78 0 -163.5 -33.5t-152.5 -83.5l-86 136q56 32 85 47t89 40t123 36.5t133 11.5
q114 0 191 -41.5t106 -122.5q21 -59 21 -180q0 -27 -4 -161.5t-4 -219.5q0 -117 14 -165.5t70 -82.5zM702 504q-58 4 -61 4q-203 0 -268 -74q-30 -35 -42 -67t-12 -82q0 -85 42 -132t120 -47q64 0 121.5 37t93.5 99z" />
    <glyph glyph-name="uni0431" unicode="&#x431;" horiz-adv-x="1130" 
d="M909 1583l74 -153q-30 -19 -62 -35.5t-52.5 -25.5t-53 -22.5t-45.5 -19.5l-235 -100q-112 -47 -159.5 -93.5t-74.5 -142.5q-20 -80 -22 -141h10q45 76 108 117q95 61 207 61q188 0 301 -141q113 -140 113 -383q0 -275 -148 -418q-117 -115 -301 -115q-183 0 -303 115
q-49 47 -80.5 108t-45 132.5t-17.5 126.5t-4 129q0 350 63 510q44 112 121 181t197 124l250 110zM567 115q99 0 154 55q84 84 84 328q0 113 -17 197t-67 134q-56 56 -154 56q-95 0 -151 -56q-50 -50 -67 -133.5t-17 -193.5q0 -114 17 -198t67 -134q55 -55 151 -55z" />
    <glyph glyph-name="uni0432" unicode="&#x432;" horiz-adv-x="1075" 
d="M174 1026h426q45 0 77.5 -3.5t79 -21.5t81.5 -51q73 -70 73 -190q0 -92 -57 -152q-39 -44 -102 -63q85 -18 139 -72q65 -65 65 -174q0 -140 -84 -217q-88 -82 -262 -82h-436v1026zM360 471v-336h211q31 0 50 1.5t48.5 12t51.5 31.5q43 41 43 119q0 79 -39 123
q-45 49 -158 49h-207zM360 891v-293h197q90 0 133 43q37 37 37 100q0 77 -43 115q-39 35 -123 35h-201z" />
    <glyph glyph-name="uni0433" unicode="&#x433;" horiz-adv-x="823" 
d="M362 0h-188v1026h608l-24 -147h-396v-879z" />
    <glyph glyph-name="uni0434" unicode="&#x434;" horiz-adv-x="1040" 
d="M942 143v-440h-158v297h-614v-297h-160v440h76q98 175 139 351q33 142 37 362l2 170h598v-883h80zM682 883h-262l-2 -84q-3 -200 -47 -361q-39 -145 -115 -295h426v740z" />
    <glyph glyph-name="uni0435" unicode="&#x435;" horiz-adv-x="1060" 
d="M958 473h-624v-24q0 -137 43 -205q78 -121 235 -121q142 0 252 98l72 -112q-150 -132 -354 -132q-214 0 -336.5 145.5t-122.5 397.5q0 134 28.5 227t94.5 171q120 141 309 141q171 0 279 -111q68 -69 95.5 -167t28.5 -275v-33zM762 612q0 152 -64 232q-57 71 -147 71
q-105 0 -160 -80.5t-55 -222.5h426z" />
    <glyph glyph-name="uni0436" unicode="&#x436;" horiz-adv-x="1396" 
d="M606 1016l185 35v-445h86q62 0 96 29q17 15 26.5 35.5t18.5 62.5l26 129q14 81 54 121q46 46 135 55l88 9l35 -123l-45 -11q-50 -10 -70 -30q-23 -23 -35 -76l-26 -113q-16 -70 -54 -108q-30 -30 -77 -43v-6q37 -9 71 -43q21 -23 32.5 -45t23.5 -64l49 -164
q13 -43 35 -71q20 -26 83 -39l29 -7l-33 -122l-73 6q-126 9 -172 55q-39 37 -56 119l-32 174q-9 62 -43 96q-35 35 -101 35h-71v-467h-185v467h-71q-66 0 -101 -35q-34 -34 -43 -96l-33 -174q-17 -83 -55 -119q-46 -46 -172 -55l-74 -6l-32 122l28 7q57 12 84 39
q20 20 35 71l49 164q20 72 55 109q34 34 72 43v6q-48 13 -78 43q-37 37 -53 108l-27 113q-14 56 -34 76t-70 30l-45 11l35 123l88 -9q89 -9 135 -55q38 -38 53 -121l27 -129q10 -45 19.5 -64.5t25.5 -33.5q34 -29 96 -29h86v410z" />
    <glyph glyph-name="uni0437" unicode="&#x437;" horiz-adv-x="931" 
d="M279 608h110q110 0 158 41q45 38 45 109q0 63 -39 102q-45 45 -150 45q-77 0 -141 -24q-28 -10 -98 -52l-72 125q56 39 135 68q96 33 203 33q163 0 256 -68q105 -73 105 -207q0 -100 -64 -164q-52 -48 -119 -69q87 -16 146 -78q65 -68 65 -176q0 -60 -22 -116t-60 -95
q-104 -111 -315 -111q-140 0 -244 41q-68 25 -127 76l78 129q45 -41 104 -65q74 -31 173 -31q101 0 153 47q51 46 51 121q0 94 -63 137q-48 33 -150 33h-118v149z" />
    <glyph glyph-name="uni0438" unicode="&#x438;" horiz-adv-x="1167" 
d="M174 0v1016l184 35v-594q0 -138 -8 -226h6q69 149 111 222l332 569l194 29v-1051h-184v551q0 100 8 240h-6q-50 -115 -109 -216l-333 -575h-195z" />
    <glyph glyph-name="uni0439" unicode="&#x439;" horiz-adv-x="1167" 
d="M174 0v1016l184 35v-594q0 -138 -8 -226h6q69 149 111 222l332 569l194 29v-1051h-184v551q0 100 8 240h-6q-50 -115 -109 -216l-333 -575h-195zM791 1421l100 -61q-23 -65 -70 -115q-87 -90 -237 -90q-74 0 -136.5 25.5t-101.5 64.5q-47 47 -70 115l101 61
q22 -35 39 -55q56 -61 174 -61q103 0 155 55q30 30 46 61z" />
    <glyph glyph-name="uni043A" unicode="&#x43a;" horiz-adv-x="1054" 
d="M174 0v1016l188 35v-445h132q73 0 108 31q35 33 49 102l23 117q9 46 19 72.5t32 48.5q45 45 145 59l82 11l35 -123l-49 -13q-47 -11 -68 -30q-23 -23 -34 -80l-25 -107q-13 -61 -51 -104q-36 -36 -80 -47v-6q42 -8 72 -41q16 -16 27 -35.5t15.5 -34t12.5 -41.5l51 -170
q15 -50 35 -70q18 -18 72 -30l39 -11l-33 -122l-66 4q-41 3 -66.5 6.5t-58 16t-55.5 34.5q-24 23 -35 49.5t-22 83.5l-29 152q-12 73 -45 104q-37 35 -119 35h-113v-467h-188z" />
    <glyph glyph-name="uni043B" unicode="&#x43b;" horiz-adv-x="1050" 
d="M272 1028h605v-1028h-189v885h-256l-10 -137q-1 -24 -10.5 -125.5t-10.5 -112.5q-11 -106 -26 -223q-13 -91 -32 -142.5t-60 -89.5q-61 -58 -191 -69l-49 -4l-33 122l33 9q61 14 100 53q42 42 56 119q10 48 28 213q22 210 29 311z" />
    <glyph glyph-name="uni043C" unicode="&#x43c;" horiz-adv-x="1398" 
d="M223 1026h238l184 -586q7 -24 17.5 -55.5t15.5 -47.5t10.5 -40t9.5 -51q7 39 16.5 73t23 76t16.5 51l184 580h238l100 -1026h-182l-56 655q-6 59 -6 174h-10q-12 -84 -41 -170l-215 -659h-143l-211 659q-30 92 -45 170h-11q0 -92 -4 -145l-53 -684h-176z" />
    <glyph glyph-name="uni043D" unicode="&#x43d;" horiz-adv-x="1120" 
d="M362 475v-475h-188v1022l188 29v-433h396v404l188 29v-1051h-188v475h-396z" />
    <glyph glyph-name="uni043E" unicode="&#x43e;" horiz-adv-x="1116" 
d="M1004 504q0 -244 -121.5 -388.5t-325.5 -144.5q-205 0 -324.5 146t-119.5 397q0 249 118.5 395t321.5 146q111 0 198 -42.5t141.5 -117.5t83 -174.5t28.5 -216.5zM793 496q0 154 -30.5 247.5t-81.5 129.5t-128 36q-122 0 -176.5 -89.5t-54.5 -284.5q0 -229 57.5 -323.5
t181.5 -94.5q232 0 232 379z" />
    <glyph glyph-name="uni043F" unicode="&#x43f;" horiz-adv-x="1105" 
d="M362 0h-188v1028h758v-1028h-189v885h-381v-885z" />
    <glyph glyph-name="uni0440" unicode="&#x440;" horiz-adv-x="1155" 
d="M1032 530q0 -247 -105 -398.5t-296 -151.5q-148 0 -266 106q4 -33 4 -115v-360l-185 -43v1206q0 148 -22 252l182 31q12 -47 12 -148q120 144 291 144q166 0 275.5 -135.5t109.5 -387.5zM829 508q0 192 -49 288.5t-166 96.5q-137 0 -245 -127v-522q105 -113 219 -113
q123 0 182 94t59 283z" />
    <glyph glyph-name="uni0441" unicode="&#x441;" horiz-adv-x="948" 
d="M866 113q-74 -72 -145.5 -102.5t-169.5 -30.5q-222 0 -330 153q-98 138 -98 371q0 298 172 452q117 105 266 105q161 0 279 -109l-99 -129q-51 44 -91 62t-89 18q-59 0 -106.5 -29t-73.5 -81q-49 -98 -49 -314q0 -207 82 -295q58 -61 147 -61q121 0 213 106z" />
    <glyph glyph-name="uni0442" unicode="&#x442;" horiz-adv-x="839" 
d="M508 0h-189v879h-288v147h778l-21 -147h-280v-879z" />
    <glyph glyph-name="uni0443" unicode="&#x443;" horiz-adv-x="980" 
d="M950 1026l-358 -1059q-81 -238 -174 -315q-78 -65 -191 -88l-59 123q105 25 178 116q23 29 41 73t43 128l-74 -10q-34 155 -98 342l-227 674l190 43l197 -645q35 -124 59 -242h12q27 116 70 254l182 606h209z" />
    <glyph glyph-name="uni0444" unicode="&#x444;" horiz-adv-x="1503" 
d="M846 1503v-526q84 78 198 78q127 0 216 -94q131 -139 131 -435q0 -254 -101 -407q-100 -148 -262 -148q-103 0 -182 66v-426l-189 -43v469q-79 -66 -182 -66q-162 0 -262 148q-100 151 -100 407q0 296 131 435q89 94 215 94q114 0 198 -78v487zM844 838v-660
q71 -59 149 -59q76 0 127 47q43 43 58.5 126t15.5 220q0 142 -16.5 225t-55.5 123q-47 47 -118 47q-87 0 -160 -69zM659 178v660q-73 69 -159 69q-72 0 -119 -47q-39 -40 -55.5 -123t-16.5 -225q0 -137 15.5 -220t58.5 -126q51 -47 127 -47q78 0 149 59z" />
    <glyph glyph-name="uni0445" unicode="&#x445;" horiz-adv-x="987" 
d="M977 0h-236q-23 39 -120 201.5t-127 214.5q-119 -209 -250 -416h-234l381 565l-303 447l213 26q19 -31 55 -93t80 -139l64 -112q87 178 176 332h219l-299 -461z" />
    <glyph glyph-name="uni0446" unicode="&#x446;" horiz-adv-x="1050" 
d="M731 1016l189 35v-908h79v-440h-157v297h-668v1016l188 35v-908h369v873z" />
    <glyph glyph-name="uni0447" unicode="&#x447;" horiz-adv-x="1046" 
d="M684 1016l188 35v-1051h-188v418q-98 -43 -217 -43q-174 0 -258 84q-76 76 -76 217v340l189 35v-351q0 -35 1 -52t10 -43t27 -44q46 -43 146 -43q86 0 178 37v461z" />
    <glyph glyph-name="uni0448" unicode="&#x448;" horiz-adv-x="1550" 
d="M174 1016l188 35v-908h320v873l188 35v-908h320v873l188 35v-1051h-1204v1016z" />
    <glyph glyph-name="uni0449" unicode="&#x449;" horiz-adv-x="1509" 
d="M174 1016l188 35v-908h320v873l188 35v-908h320v873l188 35v-908h80v-440h-158v297h-1126v1016z" />
    <glyph glyph-name="uni044A" unicode="&#x44a;" horiz-adv-x="1183" 
d="M518 639h168q63 0 106.5 -4t107 -26.5t106.5 -65.5q86 -84 86 -230q0 -152 -105 -237q-59 -47 -126 -61.5t-156 -14.5h-375v879h-299v147h487v-387zM518 500v-361h166q105 0 156 45q55 47 55 140q0 87 -47 131q-49 45 -168 45h-162z" />
    <glyph glyph-name="uni044B" unicode="&#x44b;" horiz-adv-x="1439" 
d="M174 1016l188 35v-412h168q63 0 106.5 -4t107 -26.5t106.5 -65.5q86 -84 86 -230q0 -152 -105 -237q-59 -47 -126 -61.5t-156 -14.5h-375v1016zM362 500v-361h166q105 0 156 45q55 47 55 140q0 87 -47 131q-49 45 -168 45h-162zM1266 0h-195v1020l195 31v-1051z" />
    <glyph glyph-name="uni044C" unicode="&#x44c;" horiz-adv-x="1028" 
d="M174 1016l188 35v-412h168q63 0 106.5 -4t107 -26.5t106.5 -65.5q86 -84 86 -230q0 -152 -105 -237q-59 -47 -126 -61.5t-156 -14.5h-375v1016zM362 500v-361h166q105 0 156 45q55 47 55 140q0 87 -47 131q-49 45 -168 45h-162z" />
    <glyph glyph-name="uni044D" unicode="&#x44d;" horiz-adv-x="985" 
d="M326 473v139h323v17q0 155 -74 227q-57 55 -159 55q-74 0 -135 -30q-40 -18 -76 -54l-96 115q57 51 127 78q88 35 192 35q183 0 299 -119q81 -84 108 -187.5t27 -228.5q0 -293 -143 -436q-113 -113 -307 -113q-117 0 -203 43q-72 37 -127 95l94 116q45 -50 96 -75
q62 -35 148 -35q100 0 155 55q74 74 74 274v29h-323z" />
    <glyph glyph-name="uni044E" unicode="&#x44e;" horiz-adv-x="1503" 
d="M362 612h170q21 214 140 330q113 113 282 113q167 0 281 -111q154 -152 154 -438q0 -276 -150 -422q-116 -113 -287 -113q-165 0 -278 113q-71 71 -106.5 174.5t-37.5 210.5h-168v-469h-188v1016l188 35v-439zM956 911q-94 0 -147 -53q-51 -50 -67.5 -132t-16.5 -191
q0 -86 3.5 -141t23.5 -122.5t57 -103.5q57 -53 147 -53q87 0 140 53q37 37 57 104t23.5 119.5t3.5 132.5q0 117 -16.5 200.5t-67.5 133.5q-56 53 -140 53z" />
    <glyph glyph-name="uni044F" unicode="&#x44f;" horiz-adv-x="1062" 
d="M889 1026v-1026h-189v426h-104q-88 0 -123 -31q-7 -6 -13 -14.5t-10 -15t-8.5 -18t-6.5 -16.5t-6 -18.5t-5 -15.5l-47 -156q-17 -59 -49 -94q-50 -52 -181 -61l-63 -4l-33 122l39 11q45 10 72 37q18 18 41 77l47 121q27 71 59 103q31 31 72 41v6q-95 12 -160 73
q-65 63 -65 177t73 184q96 92 295 92h365zM700 887h-159q-105 0 -150 -43q-39 -39 -39 -113q0 -84 45 -123q47 -43 154 -43h149v322z" />
    <glyph glyph-name="uni0450" unicode="&#x450;" horiz-adv-x="1060" 
d="M958 473h-624v-24q0 -137 43 -205q78 -121 235 -121q142 0 252 98l72 -112q-150 -132 -354 -132q-214 0 -336.5 145.5t-122.5 397.5q0 134 28.5 227t94.5 171q120 141 309 141q171 0 279 -111q68 -69 95.5 -167t28.5 -275v-33zM762 612q0 152 -64 232q-57 71 -147 71
q-105 0 -160 -80.5t-55 -222.5h426zM778 1264l-57 -111l-445 209l91 174z" />
    <glyph glyph-name="uni0451" unicode="&#x451;" horiz-adv-x="1060" 
d="M958 473h-624v-24q0 -137 43 -205q78 -121 235 -121q142 0 252 98l72 -112q-150 -132 -354 -132q-214 0 -336.5 145.5t-122.5 397.5q0 134 28.5 227t94.5 171q120 141 309 141q171 0 279 -111q68 -69 95.5 -167t28.5 -275v-33zM762 612q0 152 -64 232q-57 71 -147 71
q-105 0 -160 -80.5t-55 -222.5h426zM479 1284q0 -53 -35 -91t-86 -38q-49 0 -83.5 38t-34.5 91t34.5 90t83.5 37q50 0 85.5 -37.5t35.5 -89.5zM907 1284q0 -53 -35 -91t-86 -38q-49 0 -83.5 38t-34.5 91t34.5 90t83.5 37q50 0 85.5 -37.5t35.5 -89.5z" />
    <glyph glyph-name="uni0452" unicode="&#x452;" horiz-adv-x="1181" 
d="M795 705q0 103 -35 143q-14 16 -46 27.5t-67 11.5q-66 0 -139 -40.5t-133 -109.5v-737h-191v1128h-102v123h102q0 118 -22 211l190 39q23 -100 23 -237v-13h368l-47 -123h-321v-94q0 -58 -6 -137q51 46 108 84q109 70 223 70q91 0 163 -42.5t95 -111.5q13 -37 17 -68.5
t4 -97.5v-573q0 -150 -13 -241t-61 -171q-65 -113 -194 -164l-90 119q81 37 120 100q34 55 44 136t10 227v541z" />
    <glyph glyph-name="uni0453" unicode="&#x453;" horiz-adv-x="823" 
d="M362 0h-188v1026h608l-24 -147h-396v-879zM719 1362l-445 -209l-59 111l412 272z" />
    <glyph glyph-name="uni0454" unicode="&#x454;" horiz-adv-x="985" 
d="M659 463h-323v-19q0 -200 74 -274q55 -55 155 -55q86 0 148 35q51 25 96 75l94 -116q-55 -58 -127 -95q-86 -43 -203 -43q-194 0 -307 113q-143 143 -143 436q0 125 27 228.5t108 187.5q116 119 299 119q105 0 193 -35q70 -27 127 -78l-97 -115q-37 37 -75 54
q-61 30 -136 30q-102 0 -159 -55q-74 -72 -74 -227v-27h323v-139z" />
    <glyph glyph-name="uni0455" unicode="&#x455;" horiz-adv-x="991" 
d="M889 315q0 -154 -112 -249t-292 -95q-198 0 -383 109l68 135q182 -102 330 -102q85 0 137.5 45.5t52.5 120.5q0 66 -41.5 105t-130.5 56l-125 25q-122 25 -186 98t-64 187q0 141 103 230t268 89q180 0 324 -84l-64 -133q-148 74 -252 74q-81 0 -129.5 -42.5t-48.5 -111.5
q0 -57 32.5 -89t112.5 -50l134 -31q136 -31 201 -106t65 -181z" />
    <glyph glyph-name="uni0456" unicode="&#x456;" horiz-adv-x="563" 
d="M379 0h-195v1020l195 31v-1051zM418 1341q0 -56 -40 -95.5t-97 -39.5q-55 0 -93 39.5t-38 95.5q0 57 39 97.5t94 40.5q56 0 95.5 -40t39.5 -98z" />
    <glyph glyph-name="uni0457" unicode="&#x457;" horiz-adv-x="563" 
d="M379 0h-195v1020l195 31v-1051zM188 1284q0 -53 -34.5 -91t-85.5 -38q-49 0 -84 38t-35 91t35 90t84 37q50 0 85 -37.5t35 -89.5zM616 1284q0 -53 -34.5 -91t-85.5 -38q-49 0 -84 38t-35 91t35 90t84 37q50 0 85 -37.5t35 -89.5z" />
    <glyph glyph-name="uni0458" unicode="&#x458;" horiz-adv-x="563" 
d="M379 23q0 -203 -76 -304q-73 -93 -180 -141l-84 115q32 19 65 49q80 74 80 283v985l195 41v-1028zM412 1358q0 -58 -40 -98.5t-96 -40.5q-57 0 -95 39t-38 96t39 97t94 40t95.5 -39.5t40.5 -93.5z" />
    <glyph glyph-name="uni0459" unicode="&#x459;" horiz-adv-x="1542" 
d="M877 639h184q205 0 303 -96q86 -84 86 -230q0 -153 -104 -237q-59 -47 -126.5 -61.5t-156.5 -14.5h-375v885h-256l-10 -137q-1 -24 -10.5 -125.5t-10.5 -112.5q-14 -139 -24 -211q-13 -95 -32.5 -149t-61.5 -95q-61 -58 -191 -69l-49 -4l-33 122l33 9q61 14 100 53
q42 42 56 119q10 48 28 213q22 210 29 311l16 219h605v-389zM877 500v-361h165q105 0 156 45q55 47 55 140q0 87 -47 131q-49 45 -168 45h-161z" />
    <glyph glyph-name="uni045A" unicode="&#x45a;" horiz-adv-x="1611" 
d="M946 1051v-412h168q63 0 106.5 -4t107 -26.5t106.5 -65.5q86 -84 86 -230q0 -152 -105 -237q-59 -47 -126 -61.5t-156 -14.5h-375v500h-396v-500h-188v1022l188 29v-412h396v377zM946 500v-361h166q105 0 156 45q55 47 55 140q0 87 -47 131q-49 45 -168 45h-162z" />
    <glyph glyph-name="uni045B" unicode="&#x45b;" horiz-adv-x="1163" 
d="M979 0h-184v705q0 103 -35 143q-14 16 -46 27.5t-67 11.5q-66 0 -139 -40.5t-133 -109.5v-737h-191v1128h-102v123h102q0 118 -22 211l190 39q23 -100 23 -237v-13h368l-47 -123h-321v-94q0 -58 -6 -137q51 46 108 84q109 70 223 70q91 0 163 -42.5t95 -111.5
q13 -37 17 -68.5t4 -97.5v-731z" />
    <glyph glyph-name="uni045C" unicode="&#x45c;" horiz-adv-x="1054" 
d="M174 0v1016l188 35v-445h132q73 0 108 31q35 33 49 102l23 117q9 46 19 72.5t32 48.5q45 45 145 59l82 11l35 -123l-49 -13q-47 -11 -68 -30q-23 -23 -34 -80l-25 -107q-13 -61 -51 -104q-36 -36 -80 -47v-6q42 -8 72 -41q16 -16 27 -35.5t15.5 -34t12.5 -41.5l51 -170
q15 -50 35 -70q18 -18 72 -30l39 -11l-33 -122l-66 4q-41 3 -66.5 6.5t-58 16t-55.5 34.5q-24 23 -35 49.5t-22 83.5l-29 152q-12 73 -45 104q-37 35 -119 35h-113v-467h-188zM821 1362l-444 -209l-60 111l412 272z" />
    <glyph glyph-name="uni045D" unicode="&#x45d;" horiz-adv-x="1167" 
d="M174 0v1016l184 35v-594q0 -138 -8 -226h6q69 149 111 222l332 569l194 29v-1051h-184v551q0 100 8 240h-6q-50 -115 -109 -216l-333 -575h-195zM842 1264l-58 -111l-444 209l90 174z" />
    <glyph glyph-name="uni045E" unicode="&#x45e;" horiz-adv-x="980" 
d="M950 1026l-358 -1059q-81 -238 -174 -315q-78 -65 -191 -88l-59 123q105 25 178 116q23 29 41 73t43 128l-74 -10q-34 155 -98 342l-227 674l190 43l197 -645q35 -124 59 -242h12q27 116 70 254l182 606h209zM688 1421l100 -61q-24 -67 -69 -115q-87 -90 -238 -90
q-74 0 -135.5 25t-101.5 65q-47 47 -70 115l100 61q22 -35 39 -55q56 -61 174 -61q104 0 156 55q28 28 45 61z" />
    <glyph glyph-name="uni045F" unicode="&#x45f;" horiz-adv-x="1093" 
d="M174 0v1020l195 31v-908h356v877l195 31v-1051h-293v-297h-158v297h-295z" />
    <glyph glyph-name="uni0462" unicode="&#x462;" horiz-adv-x="1210" 
d="M381 1411v-194h221v-119h-221v-248h211q110 0 197 -16t161 -70q158 -113 158 -338q0 -190 -113 -303q-42 -42 -94.5 -69t-109.5 -37.5t-94.5 -13.5t-86.5 -3h-426v1098h-141v119h141v194h197zM381 160h201q158 0 229 61q80 70 80 203q0 136 -80 205q-44 38 -104 49.5
t-142 11.5h-184v-530z" />
    <glyph glyph-name="uni0463" unicode="&#x463;" horiz-adv-x="1028" 
d="M174 1016l188 35v-140h216v-118h-216v-154h168q63 0 106.5 -4t107 -26.5t106.5 -65.5q86 -84 86 -230q0 -152 -105 -237q-59 -47 -126 -61.5t-156 -14.5h-375v793h-141v118h141v105zM362 500v-361h166q105 0 156 45q55 47 55 140q0 87 -47 131q-49 45 -168 45h-162z" />
    <glyph glyph-name="uni0472" unicode="&#x472;" horiz-adv-x="1415" 
d="M1292 696q0 -326 -156 -522.5t-423 -196.5q-143 0 -256 55t-186 153.5t-111.5 232t-38.5 293.5q0 343 158.5 534t422.5 191q121 0 220.5 -39.5t167.5 -107.5t114 -162.5t67 -202.5t21 -228zM1067 653h-723q20 -526 369 -526q346 0 354 526zM1061 819q-18 228 -104 345.5
t-255 117.5q-170 0 -258 -116t-100 -347h717z" />
    <glyph glyph-name="uni0473" unicode="&#x473;" horiz-adv-x="1116" 
d="M1004 504q0 -244 -121.5 -388.5t-325.5 -144.5q-205 0 -324.5 146t-119.5 397q0 249 118.5 395t321.5 146q111 0 198 -42.5t141.5 -117.5t83 -174.5t28.5 -216.5zM561 117q221 0 232 342h-471q9 -185 67 -263.5t172 -78.5zM553 909q-112 0 -167 -75t-64 -236h466
q-13 169 -72.5 240t-162.5 71z" />
    <glyph glyph-name="uni0474" unicode="&#x474;" horiz-adv-x="1183" 
d="M989 905l-305 -909h-192l-472 1415h218l270 -850q35 -106 53 -186q22 -98 23 -107h12q36 142 86 295l123 381q41 122 58 169.5t43.5 98t60.5 86.5q107 119 299 138l59 -142q-69 -14 -114 -39t-101 -84q-32 -35 -55 -86t-66 -180z" />
    <glyph glyph-name="uni0475" unicode="&#x475;" horiz-adv-x="958" 
d="M780 592l-217 -600h-176l-367 1030l195 31l203 -621q34 -105 61 -221h4q21 106 62 225l71 215q32 99 53.5 150.5t49.5 87.5q101 129 268 166l62 -144q-111 -22 -166 -93q-38 -49 -89 -187q-3 -10 -14 -39z" />
    <glyph glyph-name="uni0490" unicode="&#x490;" horiz-adv-x="858" 
d="M889 1249h-506v-1249h-199v1411h521v211h184v-373z" />
    <glyph glyph-name="uni0491" unicode="&#x491;" horiz-adv-x="854" 
d="M362 0h-188v1026h434v168l195 31v-346h-441v-879z" />
    <glyph glyph-name="uni0492" unicode="&#x492;" horiz-adv-x="858" 
d="M889 1411l-27 -162h-479v-409h246v-150h-246v-690h-199v690h-174v150h174v571h705z" />
    <glyph glyph-name="uni0493" unicode="&#x493;" horiz-adv-x="823" 
d="M362 0h-188v463h-139v133h139v430h608l-24 -147h-396v-283h220l-52 -133h-168v-463z" />
    <glyph glyph-name="uni0496" unicode="&#x496;" horiz-adv-x="1781" 
d="M1688 1427l38 -135l-57 -14q-1 0 -11 -2.5t-12.5 -3.5t-11 -3.5t-12 -4l-10.5 -4.5t-11.5 -6t-9.5 -7.5t-10 -9.5q-22 -22 -39 -82l-49 -184q-31 -121 -82 -170q-37 -34 -86 -51v-5q44 -13 78 -47q56 -56 84 -163l76 -265q16 -61 41 -86q11 -14 34 -24h113v-529h-188v369
q-85 12 -129 61q-46 48 -68 152l-55 264q-21 99 -68 144q-33 32 -68.5 40.5t-84.5 8.5h-101v-670h-196v670h-101q-32 0 -52.5 -2t-49 -13.5t-51.5 -33.5q-47 -45 -68 -144l-55 -264q-22 -104 -68 -152q-52 -54 -155 -63l-127 -14l-35 137l41 12q75 20 106 51q25 25 41 86
l76 265q28 107 84 163q34 34 78 47v5q-49 17 -86 51q-51 49 -82 170l-49 184q-17 60 -39 82q-5 5 -10 9.5t-9.5 7.5t-11.5 6l-10.5 4.5t-12 4t-11 3.5t-12.5 3.5t-11 2.5l-58 14l39 135l101 -12q104 -10 155 -59q44 -44 66 -152l39 -190q17 -98 65 -142q23 -20 55.5 -30
t54 -11.5t58.5 -1.5h105v582h196v-582h105q37 0 58.5 1.5t54 11.5t55.5 30q48 44 65 142l39 190q22 108 66 152q51 49 155 59z" />
    <glyph glyph-name="uni0497" unicode="&#x497;" horiz-adv-x="1396" 
d="M606 1016l185 35v-445h86q62 0 96 29q17 15 26.5 35.5t18.5 62.5l26 129q14 81 54 121q46 46 135 55l88 9l35 -123l-45 -11q-50 -10 -70 -30q-23 -23 -35 -76l-26 -113q-16 -70 -54 -108q-30 -30 -77 -43v-6q37 -9 71 -43q21 -23 32.5 -45t23.5 -64l49 -164
q13 -42 39 -78h108v-440h-158v291q-82 11 -120 49q-39 37 -56 119l-32 174q-9 62 -43 96q-35 35 -101 35h-71v-467h-185v467h-71q-66 0 -101 -35q-34 -34 -43 -96l-33 -174q-17 -83 -55 -119q-46 -46 -172 -55l-74 -6l-32 122l28 7q57 12 84 39q20 20 35 71l49 164
q20 72 55 109q34 34 72 43v6q-48 13 -78 43q-37 37 -53 108l-27 113q-14 56 -34 76t-70 30l-45 11l35 123l88 -9q89 -9 135 -55q38 -38 53 -121l27 -129q10 -45 19.5 -64.5t25.5 -33.5q34 -29 96 -29h86v410z" />
    <glyph glyph-name="uni049A" unicode="&#x49a;" horiz-adv-x="1183" 
d="M1124 1427l39 -135l-67 -16q-43 -10 -74 -37q-28 -26 -43 -84l-49 -178q-1 -3 -6 -21.5t-6.5 -23l-7 -21t-9 -24t-10.5 -22t-13.5 -23.5t-16.5 -21t-21 -22q-35 -32 -80 -49v-2q36 -12 80 -50q52 -50 84 -163l75 -265q14 -59 41 -86q23 -23 76 -41h72v-440h-158v293
q-103 12 -156 65q-51 49 -75 170l-51 246q-21 101 -68 146q-47 47 -137 47h-160v-670h-199v1411h199v-582h160q110 0 162 50q40 40 59 135l39 182q8 37 13.5 55.5t19.5 47.5t34 49q56 58 164 69z" />
    <glyph glyph-name="uni049B" unicode="&#x49b;" horiz-adv-x="1028" 
d="M174 0v1016l188 35v-445h132q73 0 108 31q35 33 49 102l23 117q9 46 19 72.5t32 48.5q45 45 145 59l82 11l35 -123l-49 -13q-47 -11 -68 -30q-23 -23 -34 -80l-25 -107q-13 -61 -51 -104q-36 -36 -80 -47v-6q42 -8 72 -41q16 -16 27 -35.5t15.5 -34t12.5 -41.5l51 -170
q16 -53 35 -72h111v-440h-158v289q-81 11 -121 51q-24 23 -35 49.5t-22 83.5l-29 152q-12 73 -45 104q-37 35 -119 35h-113v-467h-188z" />
    <glyph glyph-name="uni049C" unicode="&#x49c;" horiz-adv-x="1259" 
d="M502 1085h166v-247q46 10 77 41q41 41 60 135l39 182q8 37 13.5 55.5t19.5 47.5t34 49q56 58 164 69l90 10l39 -135l-67 -16q-43 -10 -74 -37q-28 -26 -43 -84l-49 -178q-1 -3 -6 -21.5t-6.5 -23l-7 -21t-9 -24t-10.5 -22t-13.5 -23.5t-16.5 -21t-21 -22q-35 -32 -80 -49
v-2q36 -12 80 -50q52 -50 84 -163l75 -265q14 -59 41 -86q23 -23 97 -47l51 -16l-35 -137l-102 10q-123 13 -177 67q-51 49 -75 170l-52 246q-21 103 -67 146q-21 21 -53 32v-264h-166v279h-119v-670h-199v1411h199v-582h119v256z" />
    <glyph glyph-name="uni049D" unicode="&#x49d;" horiz-adv-x="1087" 
d="M444 829h134v-221q31 6 57 29q35 33 49 102l23 117q9 46 19 72.5t32 48.5q45 45 145 59l82 11l35 -123l-49 -13q-47 -11 -68 -30q-24 -24 -35 -80l-24 -107q-13 -61 -51 -104q-36 -36 -80 -47v-6q41 -8 71 -41q35 -35 56 -111l51 -170q15 -50 35 -70q18 -18 71 -30
l39 -11l-32 -122l-66 4q-41 3 -66.5 6.5t-58 16t-55.5 34.5q-24 23 -35.5 49.5t-22.5 83.5l-28 152q-12 73 -45 104q-20 20 -49 27v-236h-134v244h-82v-467h-188v1016l188 35v-445h82v223z" />
    <glyph glyph-name="uni04A2" unicode="&#x4a2;" horiz-adv-x="1300" 
d="M1116 1411v-1251h94v-529h-188v369h-104v670h-539v-670h-195v1411h195v-580h539v580h198z" />
    <glyph glyph-name="uni04A3" unicode="&#x4a3;" horiz-adv-x="1077" 
d="M362 475v-475h-188v1022l188 29v-433h396v404l188 29v-908h80v-440h-158v297h-110v475h-396z" />
    <glyph glyph-name="uni04AE" unicode="&#x4ae;" horiz-adv-x="1060" 
d="M1081 1411l-450 -850v-561h-205v565l-446 846h241l234 -481q41 -83 77 -182q54 123 82 180l238 483h229z" />
    <glyph glyph-name="uni04AF" unicode="&#x4af;" horiz-adv-x="917" 
d="M360 0l-329 1010l190 43l180 -602q31 -107 54 -224h2q17 103 57 228l176 571h197l-342 -1026v-389l-185 -43v432z" />
    <glyph glyph-name="uni04B0" unicode="&#x4b0;" horiz-adv-x="1060" 
d="M1081 1411l-395 -745h252v-150h-307v-516h-205v516h-307v150h254l-393 745h241l234 -481q41 -83 77 -182q54 123 82 180l238 483h229z" />
    <glyph glyph-name="uni04B1" unicode="&#x4b1;" horiz-adv-x="917" 
d="M762 0h-217v-389l-185 -43v432h-241v133h198l-286 877l190 43l180 -602q31 -107 54 -224h2q17 103 57 228l176 571h197l-299 -893h225z" />
    <glyph glyph-name="uni04B2" unicode="&#x4b2;" horiz-adv-x="1142" 
d="M1040 1411l-356 -639l346 -612h94v-529h-188v369h-53l-318 606l-305 -606h-240l426 760l-376 651h239l254 -479l242 479h235z" />
    <glyph glyph-name="uni04B3" unicode="&#x4b3;" horiz-adv-x="987" 
d="M895 1026l-299 -461l285 -422h96v-440h-158v297h-78q-23 39 -120 201.5t-127 214.5q-119 -209 -250 -416h-234l381 565l-303 447l213 26q19 -31 55 -93t80 -139l64 -112q87 178 176 332h219z" />
    <glyph glyph-name="uni04B6" unicode="&#x4b6;" horiz-adv-x="1216" 
d="M1032 1411v-1251h94v-529h-188v369h-102v623q-140 -66 -310 -66q-195 0 -293 98q-55 55 -72.5 121t-17.5 146v489h197v-473q0 -59 10.5 -100t44.5 -74q57 -55 183 -55q135 0 258 55v647h196z" />
    <glyph glyph-name="uni04B7" unicode="&#x4b7;" horiz-adv-x="1003" 
d="M684 1016l188 35v-908h80v-440h-157v297h-111v418q-98 -43 -217 -43q-174 0 -258 84q-76 76 -76 217v340l189 35v-351q0 -35 1 -52t10 -43t27 -44q46 -43 146 -43q86 0 178 37v461z" />
    <glyph glyph-name="uni04B8" unicode="&#x4b8;" horiz-adv-x="1216" 
d="M1032 0h-196v623q-84 -39 -166 -54v-272h-166v260q-182 5 -271 98q-55 55 -72.5 121t-17.5 146v489h197v-473q0 -59 10.5 -100t44.5 -74q38 -38 109 -49v276h166v-276q79 9 166 49v647h196v-1411z" />
    <glyph glyph-name="uni04B9" unicode="&#x4b9;" horiz-adv-x="1046" 
d="M684 1016l188 35v-1051h-188v418q-57 -25 -115 -35v-233h-133v225q-154 8 -227 84q-76 76 -76 217v340l189 35v-351q0 -35 1 -52t10 -43t27 -44q23 -23 76 -37v232h133v-234q47 6 115 33v461z" />
    <glyph glyph-name="uni04BA" unicode="&#x4ba;" horiz-adv-x="1216" 
d="M184 1411h197v-623q140 66 309 66q195 0 293 -98q55 -55 72.5 -121t17.5 -146v-489h-196v473q0 58 -10.5 99.5t-45.5 74.5q-57 55 -182 55q-135 0 -258 -55v-647h-197v1411z" />
    <glyph glyph-name="uni04BB" unicode="&#x4bb;" horiz-adv-x="1163" 
d="M979 0h-184v705q0 103 -35 143q-14 16 -46 27.5t-67 11.5q-66 0 -139 -40.5t-133 -109.5v-737h-191v1247q0 122 -22 215l190 39q23 -100 23 -237v-230q0 -58 -6 -137q51 46 108 84q109 70 223 70q91 0 163 -42.5t95 -111.5q13 -37 17 -68.5t4 -97.5v-731z" />
    <glyph glyph-name="uni04C0" unicode="&#x4c0;" horiz-adv-x="569" 
d="M385 0h-201v1411h201v-1411z" />
    <glyph glyph-name="uni04CF" unicode="&#x4cf;" horiz-adv-x="561" 
d="M377 0h-193v1165q0 185 -22 295l196 41q19 -72 19 -293v-1208z" />
    <glyph glyph-name="uni04D8" unicode="&#x4d8;" horiz-adv-x="1345" 
d="M119 758h866v45q0 101 -24.5 186.5t-72.5 151.5t-127 103.5t-181 37.5q-192 0 -347 -133l-77 123q106 93 213 128.5t227 35.5q306 0 466.5 -190.5t160.5 -526.5q0 -188 -44 -330t-147 -258q-63 -71 -163.5 -112.5t-217.5 -41.5q-231 0 -366 138q-92 95 -129 229.5
t-37 376.5v37zM342 602q0 -263 92 -377q82 -98 219 -98q162 0 246 126t84 349h-641z" />
    <glyph glyph-name="uni04D9" unicode="&#x4d9;" horiz-adv-x="1052" 
d="M104 563h625v25q0 137 -43 205q-78 120 -235 120q-142 0 -252 -98l-72 113q149 131 354 131q214 0 336.5 -145.5t122.5 -397.5q0 -134 -28.5 -226.5t-94.5 -170.5q-121 -142 -309 -142q-171 0 -279 111q-68 69 -96 167.5t-29 274.5v33zM301 424q0 -151 64 -231
q58 -72 147 -72q105 0 160 80.5t55 222.5h-426z" />
    <glyph glyph-name="uni04E2" unicode="&#x4e2;" horiz-adv-x="1353" 
d="M1169 0h-196v907q0 119 10 277q-28 -105 -65 -172l-529 -1012h-205v1411h197v-922q0 -107 -14 -243q36 115 86 209l493 956h223v-1411zM958 1540h-575v129h575v-129z" />
    <glyph glyph-name="uni04E3" unicode="&#x4e3;" horiz-adv-x="1167" 
d="M174 0v1016l184 35v-594q0 -138 -8 -226h6q69 149 111 222l332 569l194 29v-1051h-184v551q0 100 8 240h-6q-50 -115 -109 -216l-333 -575h-195zM874 1210h-575v129h575v-129z" />
    <glyph glyph-name="uni04E8" unicode="&#x4e8;" horiz-adv-x="1415" 
d="M1292 696q0 -326 -156 -522.5t-423 -196.5q-143 0 -256 55t-186 153.5t-111.5 232t-38.5 293.5q0 343 158.5 534t422.5 191q121 0 220.5 -39.5t167.5 -107.5t114 -162.5t67 -202.5t21 -228zM1067 653h-723q20 -526 369 -526q346 0 354 526zM1061 819q-18 228 -104 345.5
t-255 117.5q-170 0 -258 -116t-100 -347h717z" />
    <glyph glyph-name="uni04E9" unicode="&#x4e9;" horiz-adv-x="1116" 
d="M1004 504q0 -244 -121.5 -388.5t-325.5 -144.5q-205 0 -324.5 146t-119.5 397q0 249 118.5 395t321.5 146q111 0 198 -42.5t141.5 -117.5t83 -174.5t28.5 -216.5zM561 117q221 0 232 342h-471q9 -185 67 -263.5t172 -78.5zM553 909q-112 0 -167 -75t-64 -236h466
q-13 169 -72.5 240t-162.5 71z" />
    <glyph glyph-name="uni04EE" unicode="&#x4ee;" horiz-adv-x="1144" 
d="M256 1411l260 -663q50 -128 78 -228q29 104 78 248l215 643h196l-387 -1112q-63 -181 -123 -244q-74 -76 -233 -94l-57 -6l-37 141l33 8q103 24 153 74t80 139l31 91l-94 -9l-408 1012h215zM858 1540h-575v129h575v-129z" />
    <glyph glyph-name="uni04EF" unicode="&#x4ef;" horiz-adv-x="980" 
d="M950 1026l-358 -1059q-81 -238 -174 -315q-78 -65 -191 -88l-59 123q105 25 178 116q23 29 41 73t43 128l-74 -10q-34 155 -98 342l-227 674l190 43l197 -645q35 -124 59 -242h12q27 116 70 254l182 606h209zM768 1210h-575v129h575v-129z" />
    <glyph glyph-name="Wgrave" unicode="&#x1e80;" horiz-adv-x="1671" 
d="M1640 1411l-327 -1415h-242l-156 711q-52 240 -71 407h-13q-27 -191 -71 -399l-152 -719h-243l-334 1415h213l155 -727q19 -92 33.5 -174t28.5 -175.5t14 -96.5h12q34 227 78 428l164 745h227l162 -749q59 -267 74 -418h12q36 239 82 452l150 715h204zM1073 1591
l-57 -110l-445 209l91 174z" />
    <glyph glyph-name="wgrave" unicode="&#x1e81;" horiz-adv-x="1439" 
d="M1399 1026l-287 -1034h-182l-150 559l-63 242h-6l-56 -230l-153 -571h-180l-281 1026l190 31l131 -576l54 -252h6q19 140 47 234l156 571h194l144 -555q28 -109 57 -250h8l47 244l127 561h197zM967 1264l-58 -111l-444 209l90 174z" />
    <glyph glyph-name="Wacute" unicode="&#x1e82;" horiz-adv-x="1671" 
d="M1640 1411l-327 -1415h-242l-156 711q-52 240 -71 407h-13q-27 -191 -71 -399l-152 -719h-243l-334 1415h213l155 -727q19 -92 33.5 -174t28.5 -175.5t14 -96.5h12q34 227 78 428l164 745h227l162 -749q59 -267 74 -418h12q36 239 82 452l150 715h204zM1135 1698
l-445 -209l-59 110l411 273z" />
    <glyph glyph-name="wacute" unicode="&#x1e83;" horiz-adv-x="1439" 
d="M1399 1026l-287 -1034h-182l-150 559l-63 242h-6l-56 -230l-153 -571h-180l-281 1026l190 31l131 -576l54 -252h6q19 140 47 234l156 571h194l144 -555q28 -109 57 -250h8l47 244l127 561h197zM967 1362l-445 -209l-59 111l411 272z" />
    </font>
</defs>
</svg>
