<?xml version="1.0" standalone="no"?>
<!DOCTYPE svg PUBLIC "-//W3C//DTD SVG 1.1//EN" "http://www.w3.org/Graphics/SVG/1.1/DTD/svg11.dtd" >
<svg xmlns="http://www.w3.org/2000/svg" xmlns:xlink="http://www.w3.org/1999/xlink" version="1.1">
<metadata>
Created by FontForge 20170731 at Wed Jul 27 20:33:13 2022
 By Aleksey,,,
Copyright (c) 1991-2018 Monotype GmbH. All rights reserved
</metadata>
<defs>
<font id="MetaPro-ThinItalic" horiz-adv-x="974" >
  <font-face 
    font-family="Meta Pro Thin"
    font-weight="250"
    font-style="italic"
    font-stretch="normal"
    units-per-em="2048"
    panose-1="2 0 4 6 4 0 0 9 0 4"
    ascent="1563"
    descent="-485"
    x-height="1020"
    cap-height="1405"
    bbox="-745 -565 2408 2093"
    underline-thickness="51"
    underline-position="-228"
    slope="-12"
    unicode-range="U+000D-FEFF"
  />
<missing-glyph horiz-adv-x="1024" 
d="M82 0v1405h860v-1405h-860zM125 43h774v1319h-774v-1319z" />
    <glyph glyph-name="IJ" unicode="IJ" horiz-adv-x="907" 
d="M84 0l297 1405h61l-297 -1405h-61zM303 -252l-24 43q158 57 225 146q32 43 56 117t61 245l235 1106h64l-248 -1169q-30 -143 -52.5 -209t-64.5 -119q-83 -103 -252 -160z" />
    <glyph glyph-name="ij" unicode="ij" horiz-adv-x="815" 
d="M84 0l215 1024l66 10l-220 -1034h-61zM389 1294q-22 0 -37.5 15.5t-15.5 38.5t15.5 39t37.5 16q23 0 39 -16t16 -39t-16 -38.5t-39 -15.5zM297 -350l-23 41q104 44 149 114.5t77 223.5l211 993l65 12l-215 -1009q-17 -79 -32.5 -127.5t-44 -98.5t-74 -85t-113.5 -64z
M799 1294q-22 0 -38 15.5t-16 38.5t16 39t38 16q23 0 39 -16t16 -39t-16 -38.5t-39 -15.5z" />
    <glyph glyph-name="f_b" unicode="fb" horiz-adv-x="1556" 
d="M1163 979q-182 0 -368 -311l-115 -543q46 -42 114.5 -65t139.5 -23q76 0 143 30.5t116.5 82t89 118t64 141t37.5 148t13 141.5q0 144 -56 212.5t-178 68.5zM956 1417l-106 -493q-6 -30 -20.5 -92.5t-16.5 -69.5q159 272 371 272q136 0 207 -88.5t71 -247.5
q0 -97 -21 -196t-65 -192.5t-105.5 -165.5t-150 -116t-190.5 -44q-177 0 -320 112q1 5 16 65.5t21 90.5l240 1134q-127 46 -258 46q-67 0 -118.5 -49t-72.5 -144l-49 -219h260l-28 -47h-242l-203 -973q-37 -173 -70 -251t-98 -157l-51 31q65 82 93 152t61 225l204 973h-98
l10 47h99l47 219q26 117 98.5 180.5t167.5 63.5q170 0 317 -66z" />
    <glyph glyph-name="f_f" unicode="ff" horiz-adv-x="972" 
d="M590 0l205 973h-416l-203 -973q-37 -173 -70 -251t-98 -157l-51 31q65 82 93 152t61 225l204 973h-98l10 47h99l47 221q54 242 264 242q92 0 156 -45l-25 -47q-60 43 -135 43q-74 0 -125 -51.5t-72 -143.5l-47 -219h416l47 221q54 242 264 242q92 0 156 -45l-25 -47
q-60 43 -135 43q-74 0 -125 -51.5t-72 -143.5l-47 -219h260l-28 -47h-242l-203 -973q-37 -173 -70 -251t-98 -157l-51 31q65 82 93 152t61 225z" />
    <glyph glyph-name="f_f_i" unicode="ffi" horiz-adv-x="1382" 
d="M111 0l204 973h-98l10 47h99l47 221q54 242 264 242q92 0 156 -45l-25 -47q-60 43 -135 43q-74 0 -125 -51.5t-72 -143.5l-47 -219h410l47 221q54 242 264 242q92 0 156 -45l-25 -47q-60 43 -135 43q-74 0 -125 -51.5t-72 -143.5l-47 -219h473l-215 -1020h-63l207 973
h-412l-203 -973q-37 -173 -70 -251t-98 -157l-51 31q65 82 93 152t61 225l204 973h-409l-203 -973q-37 -173 -70 -251t-98 -157l-51 31q65 82 93 152t61 225zM1362 1294q-22 0 -37.5 15.5t-15.5 38.5t15.5 39t37.5 16q23 0 39 -16t16 -39t-16 -38.5t-39 -15.5z" />
    <glyph glyph-name="f_f_j" unicode="ffj" horiz-adv-x="1392" 
d="M604 0l205 973h-430l-203 -973q-37 -173 -70 -251t-98 -157l-51 31q65 82 93 152t61 225l204 973h-98l10 47h99l47 221q54 242 264 242q92 0 156 -45l-25 -47q-60 43 -135 43q-74 0 -125 -51.5t-72 -143.5l-47 -219h430l47 221q54 242 264 242q92 0 156 -45l-24 -47
q-60 43 -136 43q-74 0 -124.5 -51.5t-71.5 -143.5l-47 -219h469l-213 -995q-17 -79 -32.5 -128t-44.5 -98.5t-74.5 -84.5t-113.5 -64l-22 41q104 44 148.5 114t76.5 224l201 944h-406l-202 -973q-37 -173 -70 -251t-98 -157l-51 31q64 81 92 151t61 226zM1376 1294
q-22 0 -37.5 15.5t-15.5 38.5t15.5 39t37.5 16q23 0 39.5 -16t16.5 -39t-16.5 -38.5t-39.5 -15.5z" />
    <glyph glyph-name="f_f_t" unicode="fft" horiz-adv-x="1492" 
d="M586 0l205 973h-412l-203 -973q-37 -173 -70 -251t-98 -157l-51 31q65 82 93 152t61 225l204 973h-98l10 47h99l47 221q54 242 264 242q92 0 156 -45l-25 -47q-60 43 -135 43q-74 0 -125 -51.5t-72 -143.5l-47 -219h412l47 221q54 242 264 242q92 0 156 -45l-25 -47
q-60 43 -135 43q-74 0 -125 -51.5t-72 -143.5l-47 -219h424q33 158 76 266l66 14q-41 -97 -80 -280h247l-28 -47h-232l-145 -690q-21 -103 -21 -148q0 -57 23 -80.5t82 -23.5q63 0 123 26v-49q-64 -28 -135 -28q-154 0 -154 149q0 63 18 145l150 699h-424l-203 -973
q-37 -173 -70 -251t-98 -157l-51 31q65 82 93 152t61 225z" />
    <glyph glyph-name="f_h" unicode="fh" horiz-adv-x="1533" 
d="M956 1417l-106 -493q-12 -59 -39 -170q38 52 80.5 97.5t95 88.5t112.5 68.5t118 25.5q96 0 147 -52t51 -140q0 -36 -12 -88l-158 -754h-61l155 737q15 73 15 101q0 68 -39.5 105.5t-116.5 37.5q-172 0 -403 -309l-142 -672h-59l293 1386q-127 46 -258 46
q-67 0 -118.5 -49t-72.5 -144l-49 -219h260l-28 -47h-242l-203 -973q-37 -173 -70 -251t-98 -157l-51 31q65 82 93 152t61 225l204 973h-98l10 47h99l47 219q26 117 98.5 180.5t167.5 63.5q170 0 317 -66z" />
    <glyph glyph-name="f_i" unicode="fi" horiz-adv-x="911" 
d="M111 0l204 973h-98l10 47h99l47 221q54 242 264 242q92 0 156 -45l-25 -47q-60 43 -135 43q-74 0 -125 -51.5t-72 -143.5l-47 -219h473l-215 -1020h-63l207 973h-412l-203 -973q-37 -173 -70 -251t-98 -157l-51 31q65 82 93 152t61 225zM889 1294q-22 0 -37.5 15.5
t-15.5 38.5t15.5 39t37.5 16q23 0 39 -16t16 -39t-16 -38.5t-39 -15.5z" />
    <glyph glyph-name="f_j" unicode="fj" horiz-adv-x="905" 
d="M387 -350l-22 41q104 44 148.5 114t76.5 224l198 944h-409l-203 -973q-37 -173 -70 -251t-98 -157l-51 31q65 82 93 152t61 225l204 973h-98l10 47h99l47 221q54 242 264 242q92 0 156 -45l-25 -47q-60 43 -135 43q-74 0 -125 -51.5t-72 -143.5l-47 -219h473l-211 -995
q-17 -79 -32.5 -127.5t-44 -98.5t-74 -85t-113.5 -64zM893 1294q-22 0 -37.5 15.5t-15.5 38.5t15.5 39t37.5 16q23 0 39 -16t16 -39t-16 -38.5t-39 -15.5z" />
    <glyph glyph-name="f_k" unicode="fk" horiz-adv-x="1341" 
d="M956 1417l-303 -1417h-59l293 1386q-127 46 -258 46q-67 0 -118.5 -49t-72.5 -144l-49 -219h260l-28 -47h-242l-203 -973q-37 -173 -70 -251t-98 -157l-51 31q65 82 93 152t61 225l204 973h-98l10 47h99l47 219q26 117 98.5 180.5t167.5 63.5q170 0 317 -66zM1208 -16
l-411 583l569 469l39 -35l-535 -438l394 -559z" />
    <glyph glyph-name="f_t" unicode="ft" horiz-adv-x="995" 
d="M766 -20q-154 0 -154 149q0 58 19 145l149 699h-401l-203 -973q-37 -173 -70 -251t-98 -157l-51 31q65 82 93 152t61 225l204 973h-98l10 47h99l47 221q54 242 264 242q92 0 156 -45l-25 -47q-60 43 -135 43q-74 0 -125 -51.5t-72 -143.5l-47 -219h402q34 163 75 266
l66 14q-41 -97 -80 -280h248l-29 -47h-231l-146 -690q-20 -98 -20 -148q0 -57 22.5 -80.5t81.5 -23.5q63 0 123 26v-49q-64 -28 -135 -28z" />
    <glyph glyph-name=".notdef" horiz-adv-x="1024" 
d="M82 0v1405h860v-1405h-860zM125 43h774v1319h-774v-1319z" />
    <glyph glyph-name=".null" horiz-adv-x="0" 
 />
    <glyph glyph-name=".null" horiz-adv-x="0" 
 />
    <glyph glyph-name="nonmarkingreturn" horiz-adv-x="682" 
 />
    <glyph glyph-name="CR" unicode="&#xd;" horiz-adv-x="460" 
 />
    <glyph glyph-name="space" unicode=" " horiz-adv-x="460" 
 />
    <glyph glyph-name="exclam" unicode="!" horiz-adv-x="481" 
d="M170 307l221 1098l76 10l-248 -1108h-49zM145 -14q-22 0 -38.5 16t-16.5 39q0 25 16 41t39 16q25 0 41.5 -16t16.5 -41q0 -23 -17 -39t-41 -16z" />
    <glyph glyph-name="quotedbl" unicode="&#x22;" horiz-adv-x="681" 
d="M526 983l92 434h58l-92 -434h-58zM289 983l92 434h57l-92 -434h-57z" />
    <glyph glyph-name="numbersign" unicode="#" horiz-adv-x="1118" 
d="M115 0l168 473h-201v53h219l137 400h-200v53h221l168 471h57l-168 -471h342l166 471h57l-168 -471h201v-53h-221l-137 -400h200v-53h-221l-166 -473h-57l168 473h-342l-166 -473h-57zM358 526h340l140 400h-342z" />
    <glyph glyph-name="dollar" unicode="$" horiz-adv-x="1009" 
d="M1006 1272q-127 93 -285 98l-129 -614l47 -21q246 -105 246 -301q0 -191 -130.5 -309.5t-326.5 -138.5l-41 -191h-51l39 187h-17q-206 0 -360 110l33 51q132 -108 340 -108h16l145 678l-75 35q-112 52 -165.5 116.5t-53.5 155.5q0 97 37 174t100.5 124.5t142 73.5
t166.5 29l31 146h49l-31 -144q179 -6 307 -106zM578 692l-140 -653q159 22 270 124.5t111 260.5q0 99 -61.5 162t-179.5 106zM303 1032q0 -87 48 -140t157 -99l37 -17l127 592q-153 -8 -261 -96.5t-108 -239.5z" />
    <glyph glyph-name="percent" unicode="%" horiz-adv-x="1548" 
d="M436 750q-109 0 -172 65.5t-63 175.5q0 109 45 203.5t132 154.5t197 60q112 0 174 -66.5t62 -177.5q0 -109 -45.5 -203.5t-132.5 -153t-197 -58.5zM446 797q135 0 222.5 108t87.5 260q0 87 -46 142t-145 55q-93 0 -165.5 -54t-109 -137.5t-36.5 -179.5q0 -89 47 -141.5
t145 -52.5zM305 0l977 1395h59l-976 -1395h-60zM1065 -14q-110 0 -173 64t-63 175q0 109 45 203.5t132 154.5t198 60q112 0 174 -66.5t62 -177.5q0 -109 -45.5 -203t-132.5 -152t-197 -58zM1077 31q133 0 220 108t87 260q0 88 -45 142.5t-145 54.5q-93 0 -165.5 -54
t-109 -137.5t-36.5 -179.5q0 -90 47 -142t147 -52z" />
    <glyph glyph-name="ampersand" unicode="&#x26;" horiz-adv-x="1275" 
d="M1014 1120q0 -48 -14 -92t-36 -78.5t-59 -68.5t-71.5 -58.5t-85.5 -51.5t-89 -45t-94 -42l346 -418q110 162 160 414h57q-57 -285 -176 -447l-6 -8l189 -225h-80l-150 176q-181 -203 -473 -203q-159 0 -249.5 74.5t-90.5 202.5q0 71 21.5 131.5t54.5 104t85.5 84
t101.5 67t116 57.5q-137 168 -137 293q0 154 121 252t286 98q122 0 197.5 -57.5t75.5 -159.5zM444 20q262 0 428 197l-370 440q-74 -34 -128.5 -68t-107 -82.5t-80.5 -112.5t-28 -140q0 -109 75 -171.5t211 -62.5zM401 991q0 -65 30.5 -125.5t100.5 -144.5q50 22 75.5 34
t68.5 33t66 34.5t57 35.5t52 40.5t39.5 43.5t32 50t18 55.5t7.5 64.5q0 85 -58 131.5t-159 46.5q-82 0 -156.5 -34.5t-124 -104.5t-49.5 -160z" />
    <glyph glyph-name="quotesingle" unicode="'" horiz-adv-x="442" 
d="M289 983l90 434h57l-90 -434h-57z" />
    <glyph glyph-name="parenleft" unicode="(" horiz-adv-x="618" 
d="M487 -283l-24 -36q-285 152 -285 565q0 155 24 312.5t78.5 317.5t133 294.5t195.5 243t259 163.5l15 -41q-134 -55 -245 -166.5t-184 -248t-123.5 -295.5t-72.5 -307.5t-22 -285.5q0 -375 251 -516z" />
    <glyph glyph-name="parenright" unicode=")" horiz-adv-x="618" 
d="M193 1540l24 37q285 -152 285 -565q0 -155 -24 -312.5t-78.5 -317.5t-133 -294.5t-195.5 -243t-259 -163.5l-15 40q134 55 245 166.5t184 248t123.5 295.5t72.5 307.5t22 285.5q0 375 -251 516z" />
    <glyph glyph-name="asterisk" unicode="*" horiz-adv-x="937" 
d="M369 815l-41 31l186 262l-295 88l14 47l297 -88v303h52v-303l297 88l14 -47l-297 -88l190 -262l-43 -31l-186 264z" />
    <glyph glyph-name="plus" unicode="+" horiz-adv-x="1009" 
d="M395 102l80 381h-379l13 58h378l82 379h58l-82 -379h381l-13 -58h-381l-79 -381h-58z" />
    <glyph glyph-name="comma" unicode="," horiz-adv-x="385" 
d="M0 -217l-25 37q116 77 119 168q-6 -2 -14 -2q-22 0 -36.5 16t-14.5 39q0 26 17 43.5t42 17.5q33 0 51.5 -24t18.5 -68q0 -77 -41 -129.5t-117 -97.5z" />
    <glyph glyph-name="hyphen" unicode="-" horiz-adv-x="661" 
d="M143 537l13 59h391l-12 -59h-392z" />
    <glyph glyph-name="period" unicode="." horiz-adv-x="415" 
d="M129 -16q-23 0 -40 17t-17 42t16 41t41 16t42 -16t17 -41q0 -24 -17.5 -41.5t-41.5 -17.5z" />
    <glyph glyph-name="slash" unicode="/" horiz-adv-x="749" 
d="M-82 -303l924 1853h55l-924 -1853h-55z" />
    <glyph glyph-name="zero" unicode="0" horiz-adv-x="1126" 
d="M1006 684q0 -96 -21.5 -193t-67 -188.5t-109 -162.5t-154.5 -113.5t-197 -42.5q-155 0 -241.5 94t-86.5 264q0 96 22 193t67.5 188t109 161.5t154.5 113t196 42.5q157 0 242.5 -93t85.5 -263zM471 37q89 0 166 37.5t132.5 101.5t95.5 147.5t59.5 177.5t19.5 191
q0 146 -69.5 221.5t-206.5 75.5q-111 0 -203 -57t-150 -151t-90 -209.5t-32 -237.5q0 -297 278 -297z" />
    <glyph glyph-name="one" unicode="1" horiz-adv-x="784" 
d="M125 0l10 51h205l192 901q-10 -5 -72.5 -40.5t-132.5 -74t-106 -55.5l-8 39l346 209h51l-209 -979h203l-10 -51h-469z" />
    <glyph glyph-name="two" unicode="2" horiz-adv-x="1048" 
d="M47 0l10 51q357 240 474 329q226 173 290 299q33 64 33 126q0 90 -56.5 135t-156.5 45q-98 0 -185.5 -35.5t-201.5 -105.5l-23 41q114 76 216 115.5t219 39.5q106 0 183 -61.5t77 -161.5q0 -44 -11.5 -86t-39.5 -85.5t-56.5 -80t-80.5 -82.5t-92 -79.5t-112 -85t-119 -84
t-133.5 -91.5t-136.5 -94q61 4 211 4h463l-22 -53h-750z" />
    <glyph glyph-name="three" unicode="3" horiz-adv-x="993" 
d="M526 428q125 -17 195 -82t70 -168q0 -87 -33 -164t-90 -133.5t-130.5 -101.5t-156.5 -72.5t-167 -42t-163 -14.5q-70 0 -100 6l-6 45q30 -6 110 -6q165 0 318 60.5t252.5 173t99.5 247.5q0 116 -87.5 174t-244.5 58h-74l9 47h118q150 0 259.5 99t109.5 243
q0 97 -59.5 143.5t-163.5 46.5q-168 0 -371 -121l-20 37q197 135 409 135q120 0 195.5 -61t75.5 -170q0 -145 -104.5 -250.5t-250.5 -128.5z" />
    <glyph glyph-name="four" unicode="4" horiz-adv-x="1024" 
d="M549 -383l84 383h-649l10 49l700 995h70l-707 -993q15 0 60 1t71 1h455l53 238l78 327l53 17l-127 -582h168l-10 -53h-168l-76 -365z" />
    <glyph glyph-name="five" unicode="5" horiz-adv-x="944" 
d="M55 -356q-69 0 -123 14v47q43 -14 125 -14q112 0 222 40.5t195.5 109.5t138.5 168.5t53 209.5q0 115 -75.5 175.5t-217.5 60.5t-260 -52l192 617h555l-20 -53h-492l-155 -496q93 33 208 33q152 0 242 -74.5t90 -202.5q0 -100 -38 -192t-104 -162t-152 -122.5t-185 -79.5
t-199 -27z" />
    <glyph glyph-name="six" unicode="6" horiz-adv-x="1112" 
d="M1038 1374q-136 -48 -261 -120t-235.5 -167t-194 -219t-124.5 -262q80 80 188 129t216 49q140 0 225.5 -84.5t85.5 -222.5q0 -104 -38 -196t-102.5 -158t-155 -104.5t-191.5 -38.5q-152 0 -242 102.5t-90 271.5q0 156 53 303t142 263.5t207.5 215.5t246.5 168t262 113z
M608 735q-98 0 -202.5 -51.5t-196.5 -136.5q-23 -104 -23 -199q0 -147 71.5 -233t201.5 -86q171 0 291 130t120 314q0 120 -69.5 191t-192.5 71z" />
    <glyph glyph-name="seven" unicode="7" horiz-adv-x="942" 
d="M10 -358q133 322 381.5 679.5t532.5 645.5h-729l24 53h772l-10 -62q-279 -287 -510 -617t-383 -681z" />
    <glyph glyph-name="eight" unicode="8" horiz-adv-x="1101" 
d="M1055 1104q0 -63 -23 -117.5t-58.5 -94t-90 -75t-105 -59.5t-116.5 -49q137 -61 210.5 -133.5t73.5 -182.5q0 -125 -72.5 -220.5t-185.5 -143t-244 -47.5q-159 0 -255.5 75t-96.5 203q0 72 26 135t67 110t99.5 87t117 66.5t126.5 48.5q-111 51 -173 116t-62 164
q0 153 124.5 256t325.5 103q140 0 226 -66.5t86 -175.5zM881 383q0 105 -71.5 170t-229.5 133q-70 -25 -123.5 -48.5t-113 -61t-98 -79.5t-64 -102.5t-25.5 -130.5q0 -112 80.5 -173.5t222.5 -61.5q113 0 208 40.5t154.5 122.5t59.5 191zM354 995q0 -93 61 -151t193 -113
q67 27 114 48.5t103 56t90 69.5t57 84t23 105q0 95 -70 149.5t-198 54.5q-161 0 -267 -86t-106 -217z" />
    <glyph glyph-name="nine" unicode="9" horiz-adv-x="1079" 
d="M-51 -360q149 40 289 109.5t262.5 164t216.5 220t141 265.5q-77 -79 -178.5 -126.5t-218.5 -47.5q-138 0 -224.5 86.5t-86.5 223.5q0 214 140.5 358.5t352.5 144.5q151 0 238.5 -98.5t87.5 -271.5q0 -135 -41 -263.5t-112.5 -235t-167 -200t-207.5 -165.5t-231 -124.5
t-239 -82.5zM479 274q212 0 395 183q29 110 29 211q0 154 -70.5 236.5t-201.5 82.5q-178 0 -297 -131t-119 -319q0 -119 71 -191t193 -72z" />
    <glyph glyph-name="colon" unicode=":" horiz-adv-x="448" 
d="M143 -16q-23 0 -40 17t-17 42t16 41t41 16t42.5 -16.5t17.5 -40.5t-18 -41.5t-42 -17.5zM281 610q-23 0 -40.5 17.5t-17.5 42.5t16.5 41t41.5 16t42 -16t17 -41q0 -24 -18 -42t-41 -18z" />
    <glyph glyph-name="semicolon" unicode=";" horiz-adv-x="460" 
d="M281 610q-23 0 -40.5 17.5t-17.5 42.5t16.5 41t41.5 16t42 -16t17 -41q0 -24 -18 -42t-41 -18zM41 -217l-25 37q116 77 119 168q-6 -2 -14 -2q-22 0 -36.5 16t-14.5 39q0 26 17 43.5t42 17.5q33 0 51.5 -24t18.5 -68q0 -77 -41 -129.5t-117 -97.5z" />
    <glyph glyph-name="less" unicode="&#x3c;" horiz-adv-x="561" 
d="M356 117l-284 473l481 471l47 -39l-453 -440l265 -435z" />
    <glyph glyph-name="equal" unicode="=" horiz-adv-x="1079" 
d="M152 674l10 53h891l-11 -53h-890zM88 377l12 51h889l-12 -51h-889z" />
    <glyph glyph-name="greater" unicode="&#x3e;" horiz-adv-x="561" 
d="M262 1061l287 -475l-481 -469l-48 37l455 444l-264 432z" />
    <glyph glyph-name="question" unicode="?" horiz-adv-x="819" 
d="M270 332q7 153 51 254t162 186q19 13 56.5 39t57 40t51 39.5t49 44t39 46.5t32.5 55t19 62t8 73q0 92 -58.5 143.5t-161.5 51.5q-78 0 -146 -24t-153 -72l-22 43q86 52 163 79t173 27q117 0 191.5 -65.5t74.5 -173.5q0 -44 -8.5 -84t-19 -70t-34.5 -62t-40.5 -51
t-52.5 -48.5t-54.5 -42.5t-63.5 -43.5t-63 -43.5q-100 -69 -144 -163t-50 -240h-56zM281 -16q-23 0 -40.5 17t-17.5 42t16.5 41t41.5 16t42 -16t17 -41q0 -24 -17.5 -41.5t-41.5 -17.5z" />
    <glyph glyph-name="at" unicode="@" horiz-adv-x="1675" 
d="M860 -297q-115 0 -220 25.5t-198 81t-161 136.5t-108 199.5t-40 262.5q0 216 95 397t264 287t376 106q185 0 338 -76.5t246.5 -226t93.5 -344.5q0 -105 -21.5 -193.5t-58 -148.5t-84.5 -102.5t-100.5 -62t-107.5 -19.5q-164 0 -164 163q0 28 6 66q-55 -92 -134.5 -152.5
t-172.5 -60.5q-99 0 -159.5 69.5t-60.5 198.5q0 98 30.5 194t85.5 175t141.5 127.5t189.5 48.5q132 0 242 -74q-9 -29 -37 -153l-74 -326q-14 -57 -14 -104q0 -68 31.5 -97.5t91.5 -29.5q59 0 114 30.5t100 88t72 151.5t27 211q0 180 -84.5 318.5t-225 211t-311.5 72.5
q-192 0 -348.5 -103t-243 -273t-86.5 -369q0 -132 36.5 -241.5t99.5 -185.5t148.5 -129t182.5 -77.5t203 -24.5q153 0 281 49q2 -9 7.5 -24.5t6.5 -20.5q-138 -51 -295 -51zM721 90q94 0 176.5 75.5t124.5 184.5l90 406q-78 55 -180 55q-88 0 -163 -45.5t-121.5 -117
t-72.5 -156.5t-26 -168q0 -120 42 -177t130 -57z" />
    <glyph glyph-name="A" unicode="A" 
d="M825 0l-55 479h-565l-256 -479h-70l762 1405h82l168 -1405h-66zM567 1153l-334 -621h531l-92 824q-47 -97 -105 -203z" />
    <glyph glyph-name="B" unicode="B" horiz-adv-x="1091" 
d="M84 0l297 1405h295q389 0 389 -272q0 -91 -38.5 -171t-124 -140.5t-206.5 -78.5q130 -14 212.5 -87t82.5 -195q0 -233 -155.5 -347t-446.5 -114h-305zM307 770h285q71 0 140.5 22t129.5 64t97.5 112.5t37.5 157.5q0 65 -22.5 110t-65 69t-94.5 34.5t-121 10.5h-264z
M154 53h264q253 0 380.5 103.5t127.5 304.5q0 68 -30 118.5t-81.5 79.5t-112 42.5t-129.5 13.5h-276z" />
    <glyph glyph-name="C" unicode="C" horiz-adv-x="1050" 
d="M555 -16q-408 0 -408 473q0 103 19 211t55 216t95.5 203.5t134 169.5t177 117t218.5 43q184 0 297 -104l-37 -41q-55 51 -117.5 72.5t-150.5 21.5q-102 0 -192.5 -40.5t-158 -110.5t-121 -160.5t-87 -192.5t-51 -205t-17.5 -200q0 -420 364 -420q167 0 320 100l25 -43
q-171 -110 -365 -110z" />
    <glyph glyph-name="D" unicode="D" horiz-adv-x="1193" 
d="M84 0l297 1405h219q96 0 170 -11t145.5 -42.5t118 -83.5t75 -138.5t28.5 -203.5q0 -148 -27 -281t-87 -252.5t-148.5 -205.5t-220.5 -136.5t-294 -50.5h-276zM156 53h215q142 0 258.5 45.5t197 124.5t136 189t81 237.5t25.5 270.5q0 103 -22.5 179t-61 123.5t-97.5 76.5
t-125 40t-151 11h-180z" />
    <glyph glyph-name="E" unicode="E" horiz-adv-x="956" 
d="M84 0l297 1405h692l-20 -55h-621l-125 -590h500l-12 -55h-500l-137 -650h657l-12 -55h-719z" />
    <glyph glyph-name="F" unicode="F" horiz-adv-x="835" 
d="M84 0l297 1405h692l-22 -55h-619l-125 -590h508l-12 -55h-506l-150 -705h-63z" />
    <glyph glyph-name="G" unicode="G" horiz-adv-x="1208" 
d="M580 -16q-119 0 -205.5 37.5t-135 104.5t-70.5 148.5t-22 180.5q0 100 19 207.5t56 215.5t97 204.5t135.5 171.5t177.5 119t218 44q193 0 321 -112l-34 -41q-117 100 -297 100q-103 0 -194.5 -41.5t-158.5 -112.5t-120.5 -162.5t-86.5 -194.5t-50 -205.5t-17 -198.5
q0 -69 11.5 -128t39 -112.5t70.5 -90.5t110 -59t152 -22q162 0 303 74l113 530h-361v53h432l-131 -618q-176 -92 -372 -92z" />
    <glyph glyph-name="H" unicode="H" horiz-adv-x="1189" 
d="M84 0l297 1405h61l-133 -631h695l135 631h63l-297 -1405h-63l151 721h-696l-152 -721h-61z" />
    <glyph glyph-name="I" unicode="I" horiz-adv-x="430" 
d="M84 0l297 1405h61l-297 -1405h-61z" />
    <glyph glyph-name="J" unicode="J" horiz-adv-x="477" 
d="M-127 -252l-25 43q160 58 226 146q32 42 55.5 116t60.5 246l236 1106h63l-247 -1169q-30 -143 -52.5 -209t-64.5 -119q-83 -103 -252 -160z" />
    <glyph glyph-name="K" unicode="K" horiz-adv-x="985" 
d="M846 14l-60 -26q-183 297 -458 753l753 680l45 -39l-725 -645zM84 0l297 1405h63l-297 -1405h-63z" />
    <glyph glyph-name="L" unicode="L" horiz-adv-x="845" 
d="M84 0l297 1405h61l-286 -1352h596l-21 -53h-647z" />
    <glyph glyph-name="M" unicode="M" horiz-adv-x="1495" 
d="M43 0l420 1405h90l96 -1094q17 -189 17 -227q24 64 104 221l563 1100h92l-170 -1405h-61l139 1151q19 145 27 195q-75 -152 -82 -166l-602 -1180h-58l-102 1141q-14 157 -14 205l-396 -1346h-63z" />
    <glyph glyph-name="N" unicode="N" horiz-adv-x="1214" 
d="M84 0l297 1405h76l360 -1106l72 -227q0 3 8.5 50.5t22 116t24.5 117.5l219 1049h62l-297 -1405h-70l-364 1094q-50 148 -72 239l-277 -1333h-61z" />
    <glyph glyph-name="O" unicode="O" horiz-adv-x="1277" 
d="M545 31q92 0 174 34.5t142.5 92.5t110.5 136t83.5 163.5t56.5 177t33 174.5t10 158q0 401 -332 401q-107 0 -199.5 -46t-157 -123.5t-114.5 -173.5t-79 -203t-43.5 -205t-14.5 -185q0 -401 330 -401zM532 -16q-107 0 -184 37t-119 103.5t-60.5 144.5t-18.5 175
q0 128 23 259t76.5 261t130.5 230t195 162.5t261 62.5q107 0 184.5 -37.5t120 -104.5t61.5 -146t19 -175q0 -90 -12 -182.5t-38 -188.5t-64 -183t-95 -164t-125.5 -133t-159.5 -88.5t-195 -32.5z" />
    <glyph glyph-name="P" unicode="P" horiz-adv-x="1028" 
d="M84 0l297 1405h278q68 0 126.5 -9.5t113 -32.5t93.5 -59t62 -92.5t23 -128.5q0 -103 -29 -185.5t-78 -137.5t-116.5 -92t-143 -53.5t-159.5 -16.5h-281l-125 -598h-61zM283 651h276q71 0 135 14.5t122.5 46.5t101 80t67.5 120t25 161q0 83 -28 140t-81 85.5t-113 40
t-141 11.5h-217z" />
    <glyph glyph-name="Q" unicode="Q" horiz-adv-x="1280" 
d="M535 -16q-107 0 -184.5 37t-120 103t-61.5 145t-19 175q0 128 23 259t76.5 261t130.5 230t195 162.5t261 62.5q107 0 184.5 -37.5t120 -104.5t61.5 -146t19 -175q0 -119 -20 -240.5t-66 -244t-113 -221t-168.5 -168.5t-224.5 -90q61 -12 111.5 -38t115.5 -69
q111 -80 217 -80q63 0 115 21l-23 -49q-46 -19 -112 -19q-46 0 -98 19t-79.5 35.5t-76.5 48.5q-57 38 -84.5 54.5t-74 35.5t-105.5 33zM545 31q92 0 174 34.5t142.5 92.5t110.5 136t83.5 163.5t56.5 177t33 174.5t10 158q0 401 -332 401q-107 0 -199.5 -46t-157 -123.5
t-114.5 -173.5t-79 -203t-43.5 -205t-14.5 -185q0 -401 330 -401z" />
    <glyph glyph-name="R" unicode="R" horiz-adv-x="1005" 
d="M885 10l-60 -18q-76 200 -140 335.5t-134 225.5q-52 66 -88 82t-115 16h-65q-67 -325 -138 -651h-61l297 1405h250q61 0 115 -8t109 -28.5t94.5 -53.5t64 -87t24.5 -124q0 -221 -137 -335t-387 -116q108 -38 252 -352q65 -137 119 -291zM969 1092q0 258 -342 258h-195
l-139 -654h162q231 0 340 68q80 48 127 124.5t47 203.5z" />
    <glyph glyph-name="S" unicode="S" horiz-adv-x="1052" 
d="M1030 1272q-132 98 -303 98q-104 0 -192.5 -36.5t-146.5 -115t-58 -186.5q0 -86 47.5 -139.5t154.5 -99.5l132 -58q245 -105 245 -301q0 -106 -43 -193t-116.5 -142.5t-168 -86t-198.5 -30.5q-206 0 -360 110l32 51q132 -108 340 -108q84 0 163.5 26.5t143 75t102 123.5
t38.5 164q0 95 -55.5 155.5t-165.5 106.5l-125 55q-116 49 -175 116.5t-59 162.5q0 102 40 181t108 126.5t151 71.5t176 24q196 0 328 -106z" />
    <glyph glyph-name="T" unicode="T" horiz-adv-x="858" 
d="M324 0l286 1350h-401l10 55h875l-17 -55h-405l-287 -1350h-61z" />
    <glyph glyph-name="U" unicode="U" horiz-adv-x="1185" 
d="M485 -16q-165 0 -248 77.5t-83 217.5q0 67 16 139l209 987h61l-204 -967q-19 -97 -19 -153q0 -122 64.5 -185t220.5 -63q207 0 313 115q83 92 119 264l211 989h61l-211 -995q-22 -104 -53.5 -175.5t-85.5 -125.5q-128 -125 -371 -125z" />
    <glyph glyph-name="V" unicode="V" horiz-adv-x="1079" 
d="M399 0l-170 1405h64l123 -1040q20 -156 30 -295l728 1335h67l-772 -1405h-70z" />
    <glyph glyph-name="W" unicode="W" horiz-adv-x="1501" 
d="M274 0l-45 1405h64l31 -1051q2 -68 2 -198v-97q4 13 129 295l469 1051h71l15 -1051q2 -143 2 -295q15 50 125 297l460 1049h66l-621 -1405h-84l-12 1038q-2 92 -2 283q-1 -3 -20.5 -49t-49 -116t-51.5 -120l-467 -1036h-82z" />
    <glyph glyph-name="X" unicode="X" horiz-adv-x="849" 
d="M1034 1405l-504 -649l301 -756h-73l-275 705l-538 -705h-78l586 762l-252 643h73l228 -590l454 590h78z" />
    <glyph glyph-name="Y" unicode="Y" horiz-adv-x="978" 
d="M354 0l117 557l-272 848h69l203 -651q4 -15 19.5 -65.5t21.5 -74.5q36 50 106 146l478 645h78l-637 -852l-117 -553h-66z" />
    <glyph glyph-name="Z" unicode="Z" horiz-adv-x="1026" 
d="M10 0v49l924 1168q31 39 113 135q-33 -2 -132 -2h-579l20 55h756v-55l-932 -1178q-42 -52 -98 -119q31 2 127 2h606l-18 -55h-787z" />
    <glyph glyph-name="bracketleft" unicode="[" horiz-adv-x="479" 
d="M16 -319l387 1818h250l-10 -49h-190l-367 -1720h190l-10 -49h-250z" />
    <glyph glyph-name="backslash" unicode="\" horiz-adv-x="747" 
d="M532 -80l-280 1575l55 14l283 -1572z" />
    <glyph glyph-name="bracketright" unicode="]" horiz-adv-x="477" 
d="M508 1499l-387 -1818h-248l10 49h189q65 300 186.5 875.5t179.5 844.5h-190l10 49h250z" />
    <glyph glyph-name="asciicircum" unicode="^" horiz-adv-x="1097" 
d="M145 666l564 784h51l229 -784h-55l-209 718l-516 -718h-64z" />
    <glyph glyph-name="underscore" unicode="_" horiz-adv-x="1011" 
d="M-158 -205l13 51h1022l-13 -51h-1022z" />
    <glyph glyph-name="grave" unicode="`" horiz-adv-x="528" 
d="M602 1167l-356 209l35 58l346 -224z" />
    <glyph glyph-name="a" unicode="a" 
d="M659 1032q134 0 238 -74q-33 -136 -39 -163l-106 -510q-19 -90 -19 -135q0 -70 49 -127l-47 -37q-61 64 -61 166q0 38 8 79q-130 -245 -338 -245q-133 0 -195.5 86.5t-62.5 230.5q0 155 47.5 292.5t126.5 232.5t183.5 149.5t215.5 54.5zM702 342l125 592q-74 47 -176 47
q-95 0 -185.5 -51t-160.5 -139t-112.5 -217t-42.5 -275q0 -122 50 -192t158 -70q197 0 344 305z" />
    <glyph glyph-name="b" unicode="b" horiz-adv-x="1046" 
d="M137 252l203 956q27 135 27 201q0 21 -9 66l62 20q8 -46 8 -82q0 -66 -29 -211l-59 -278l-37 -162q159 272 371 272q136 0 207 -88.5t71 -247.5q0 -97 -21 -196t-65 -192.5t-105.5 -165.5t-150 -116t-190.5 -44q-177 0 -320 112zM653 979q-182 0 -368 -311l-115 -543
q46 -42 114.5 -65t139.5 -23q76 0 143 30.5t116.5 82t89 118t64 141t37.5 148t13 141.5q0 144 -56 212.5t-178 68.5z" />
    <glyph glyph-name="c" unicode="c" horiz-adv-x="827" 
d="M408 -16q-76 0 -134.5 26.5t-94 73t-53 106t-17.5 129.5q0 177 66.5 341.5t187.5 270t264 105.5q126 0 219 -80l-29 -49q-84 76 -201 76q-119 0 -222.5 -97.5t-162.5 -250.5t-59 -316q0 -129 62.5 -206.5t185.5 -77.5q139 0 262 108l27 -43q-74 -61 -145 -88.5
t-156 -27.5z" />
    <glyph glyph-name="d" unicode="d" horiz-adv-x="1056" 
d="M762 244q-64 -121 -161 -189.5t-200 -68.5q-80 0 -138 27t-90.5 75.5t-47 107.5t-14.5 132q0 187 71.5 349.5t196 259.5t270.5 97q147 0 260 -82l115 543l57 -10l-254 -1200q-18 -85 -18 -135q0 -70 49 -127l-49 -37q-57 67 -57 164q0 50 10 94zM414 39q106 0 199.5 80.5
t168.5 230.5l115 549q-47 39 -103.5 61.5t-148.5 22.5q-127 0 -235.5 -90t-171 -240.5t-62.5 -322.5q0 -49 6 -89t22 -78.5t42 -65t68.5 -42.5t99.5 -16z" />
    <glyph glyph-name="e" unicode="e" horiz-adv-x="921" 
d="M379 492q-92 0 -186 8q-15 -80 -15 -156q0 -138 66.5 -223.5t201.5 -85.5q155 0 287 110l29 -41q-138 -120 -328 -120q-153 0 -237 99.5t-84 266.5q0 93 20 188t61.5 184.5t99 159.5t140.5 112t178 42q107 0 179.5 -59.5t72.5 -161.5q0 -323 -485 -323zM600 985
q-98 0 -181.5 -63.5t-135.5 -159.5t-80 -215q73 -6 178 -6q422 0 422 272q0 82 -56 127t-147 45z" />
    <glyph glyph-name="f" unicode="f" horiz-adv-x="493" 
d="M111 0l204 973h-98l10 47h99l47 221q54 242 264 242q92 0 156 -45l-25 -47q-60 43 -135 43q-74 0 -125 -51.5t-72 -143.5l-47 -219h260l-28 -47h-242l-203 -973q-37 -173 -70 -251t-98 -157l-51 31q65 82 93 152t61 225z" />
    <glyph glyph-name="g" unicode="g" horiz-adv-x="1030" 
d="M657 1032q153 0 301 -74q-14 -53 -38 -163l-170 -793q-46 -217 -151 -312.5t-306 -95.5q-147 0 -313 78l22 52q143 -76 297 -76q173 0 262 81.5t127 256.5l55 254q-64 -122 -158.5 -188t-199.5 -66q-80 0 -138 27t-90.5 76t-47.5 108t-15 131q0 190 72.5 351t202.5 257
t288 96zM766 350l123 578q-120 53 -240 53q-136 0 -249 -89t-176.5 -238.5t-63.5 -323.5q0 -62 10 -110.5t35 -92t73.5 -67t118.5 -23.5q107 0 200.5 80.5t168.5 232.5z" />
    <glyph glyph-name="h" unicode="h" horiz-adv-x="1024" 
d="M399 1202l-59 -278q-12 -59 -39 -170q38 52 80.5 97.5t95 88.5t112.5 68.5t118 25.5q96 0 147 -52t51 -140q0 -36 -12 -88l-158 -754h-61l155 737q15 73 15 101q0 68 -39.5 105.5t-116.5 37.5q-172 0 -403 -309l-142 -672h-59l256 1208q27 135 27 201q0 21 -9 66l62 20
q8 -46 8 -82q0 -66 -29 -211z" />
    <glyph glyph-name="i" unicode="i" horiz-adv-x="409" 
d="M84 0l215 1024l66 10l-220 -1034h-61zM389 1294q-22 0 -37.5 15.5t-15.5 38.5t15.5 39t37.5 16q23 0 39 -16t16 -39t-16 -38.5t-39 -15.5z" />
    <glyph glyph-name="j" unicode="j" horiz-adv-x="405" 
d="M-113 -350l-22 41q104 44 148.5 114t76.5 224l211 993l66 12l-215 -1009q-17 -79 -32.5 -128t-44.5 -98.5t-74.5 -84.5t-113.5 -64zM389 1294q-22 0 -37.5 15.5t-15.5 38.5t15.5 39t37.5 16q23 0 39 -16t16 -39t-16 -38.5t-39 -15.5z" />
    <glyph glyph-name="k" unicode="k" horiz-adv-x="831" 
d="M698 -16l-411 583l569 469l39 -35l-535 -438l394 -559zM399 1202l-256 -1202h-59l256 1208q27 135 27 201q0 21 -9 66l62 20q8 -46 8 -82q0 -66 -29 -211z" />
    <glyph glyph-name="l" unicode="l" horiz-adv-x="446" 
d="M399 1202l-215 -1007q-16 -74 -16 -107q0 -28 12 -39.5t41 -11.5q21 0 45 8l4 -45q-38 -12 -71 -12q-93 0 -93 90q0 34 17 117l217 1013q27 135 27 201q0 21 -9 66l62 20q8 -46 8 -82q0 -66 -29 -211z" />
    <glyph glyph-name="m" unicode="m" horiz-adv-x="1533" 
d="M143 0h-61l164 776q26 126 26 162q0 37 -10 68l60 24q12 -38 12 -78q0 -38 -19 -133l-12 -61q78 115 177 195.5t206 80.5q89 0 133.5 -52t44.5 -138q0 -4 -10 -82q35 51 75.5 95.5t90 86t106 66t111.5 24.5q89 0 133.5 -52t44.5 -138q0 -34 -12 -92l-158 -752h-61
l155 737q17 87 17 105q0 139 -135 139q-51 0 -107 -28.5t-107 -77t-93 -99t-80 -106.5l-140 -670h-61l155 737q17 87 17 105q0 139 -135 139q-67 0 -143.5 -52t-133 -116.5t-108.5 -142.5z" />
    <glyph glyph-name="n" unicode="n" horiz-adv-x="1024" 
d="M143 0h-61l164 776q26 126 26 162q0 37 -10 68l60 24q12 -38 12 -78q0 -38 -19 -133l-14 -63q52 71 110 129.5t139 103.5t157 45q96 0 147 -52t51 -140q0 -20 -12 -90l-158 -752h-61l155 737q15 73 15 101q0 143 -156 143q-53 0 -111.5 -29t-112.5 -78.5t-97 -98.5
t-84 -105z" />
    <glyph glyph-name="o" unicode="o" horiz-adv-x="1009" 
d="M414 33q76 0 142.5 30t114 81t85 117t60.5 140.5t34.5 148t11.5 142.5q0 293 -252 293q-90 0 -166 -41.5t-127 -109t-87.5 -154.5t-53 -177t-16.5 -177q0 -293 254 -293zM401 -18q-82 0 -142.5 28.5t-95 79t-51 113t-16.5 137.5q0 90 18.5 183.5t60.5 186.5t102 165.5
t150.5 117.5t197.5 45q81 0 141 -28.5t94.5 -79.5t51 -112.5t16.5 -135.5q0 -94 -19.5 -189.5t-61.5 -188t-102 -163.5t-149.5 -115t-194.5 -44z" />
    <glyph glyph-name="p" unicode="p" horiz-adv-x="1044" 
d="M315 819l-10 -45q157 260 365 260q135 0 207.5 -88t72.5 -246q0 -97 -21 -196.5t-65.5 -193t-106 -166t-149.5 -116.5t-190 -44q-144 0 -260 88l-103 -475l-63 -13l254 1192q26 126 26 162q0 37 -10 68l60 24q12 -38 12 -78q0 -38 -19 -133zM651 981q-182 0 -368 -305
l-113 -549q45 -42 113 -66t137 -24q91 0 169 43t131 113t91.5 157.5t56 176.5t17.5 171q0 143 -57.5 213t-176.5 70z" />
    <glyph glyph-name="q" unicode="q" horiz-adv-x="1044" 
d="M672 1032q156 0 301 -74q-16 -63 -39 -172l-254 -1183l-64 -15l142 652q-63 -121 -158.5 -187.5t-198.5 -66.5q-81 0 -139 27t-90 76t-46.5 108t-14.5 131q0 190 72 351t201.5 257t287.5 96zM780 350l123 578q-120 53 -237 53q-136 0 -250 -89t-178 -238.5t-64 -323.5
q0 -293 238 -293q106 0 200 81t168 232z" />
    <glyph glyph-name="r" unicode="r" horiz-adv-x="643" 
d="M143 0h-61l164 776q26 126 26 162q0 37 -10 68l60 24q12 -38 12 -78q0 -38 -19 -133l-14 -69q27 46 52.5 82.5t61 76.5t71 67t81 44.5t92.5 17.5q36 0 64 -12l-27 -65q-24 12 -63 12q-31 0 -62 -11.5t-56 -27.5t-55 -46.5t-49.5 -53.5t-48 -64t-42.5 -62.5t-41 -64.5z
" />
    <glyph glyph-name="s" unicode="s" horiz-adv-x="866" 
d="M303 -18q-175 0 -305 92l29 45q130 -88 290 -88q85 0 157 26.5t120.5 86t48.5 143.5q0 78 -35.5 120t-136.5 85l-113 47q-94 39 -141 90t-47 129q0 95 52 160t133 93.5t184 28.5q143 0 264 -79l-27 -46q-108 74 -244 74q-58 0 -108.5 -11.5t-94.5 -36t-70 -68.5t-26 -103
q0 -65 34.5 -102t119.5 -74l115 -49q118 -50 163.5 -105.5t45.5 -140.5q0 -152 -111.5 -234.5t-296.5 -82.5z" />
    <glyph glyph-name="t" unicode="t" horiz-adv-x="532" 
d="M303 -20q-153 0 -153 149q0 63 18 145l149 699h-133l11 47h133q34 163 75 266l66 14q-41 -97 -80 -280h248l-29 -47h-231l-146 -690q-20 -98 -20 -148q0 -57 22.5 -80.5t81.5 -23.5q63 0 123 26v-49q-64 -28 -135 -28z" />
    <glyph glyph-name="u" unicode="u" horiz-adv-x="1046" 
d="M756 256q-36 -50 -75.5 -93t-91.5 -86.5t-113 -69t-122 -25.5q-105 0 -154.5 49.5t-49.5 136.5q0 44 12 96l157 752l64 12l-160 -749q-14 -68 -14 -107q0 -69 37.5 -105t124.5 -36q180 0 405 323l137 662l66 10l-160 -741q-18 -83 -18 -129q0 -43 10.5 -72t38.5 -61
l-47 -37q-60 63 -60 168q0 42 13 102z" />
    <glyph glyph-name="v" unicode="v" horiz-adv-x="837" 
d="M285 -10l-142 1026l62 12l108 -815q17 -121 19 -150h4q26 53 78 144l454 813h70l-588 -1030h-65z" />
    <glyph glyph-name="w" unicode="w" horiz-adv-x="1255" 
d="M207 -8l-68 1026l60 12l49 -821q6 -117 6 -137h4l51 112l396 836h67l47 -844q6 -93 6 -108h2l52 114l399 838h65l-495 -1028h-70l-49 846q-6 87 -6 102h-2l-43 -94l-406 -854h-65z" />
    <glyph glyph-name="x" unicode="x" horiz-adv-x="688" 
d="M793 1020l-392 -461l263 -559h-70l-236 512l-438 -512h-76l488 565l-211 455h74l182 -410l342 410h74z" />
    <glyph glyph-name="y" unicode="y" horiz-adv-x="829" 
d="M2 -414l-14 47q96 27 161 100t170 269l-32 -4q0 58 -15 176l-114 842l61 18l96 -729q23 -170 23 -258h4q8 17 25 49.5t43 80.5t39 73l411 770h72l-574 -1057q-38 -69 -64 -112.5t-61 -92.5t-67.5 -79t-74 -55t-89.5 -38z" />
    <glyph glyph-name="z" unicode="z" horiz-adv-x="788" 
d="M-61 0v49l798 922h-553v49h627v-53l-797 -918h580l-29 -49h-626z" />
    <glyph glyph-name="braceleft" unicode="{" horiz-adv-x="563" 
d="M272 -319q-66 0 -105.5 44.5t-39.5 127.5q0 32 10 84l80 378q10 52 10 84q0 80 -38 120.5t-95 43.5l12 55q69 3 137 70t91 174l82 381q26 123 89 189.5t150 66.5h82l-10 -49h-72q-139 0 -184 -215l-82 -381q-12 -57 -36 -103.5t-50 -74.5t-55 -48t-51.5 -27.5t-38.5 -8.5
v-4q40 -2 83.5 -50.5t43.5 -136.5q0 -33 -9 -77l-79 -377q-13 -60 -13 -99q0 -118 103 -118h73l-10 -49h-78z" />
    <glyph glyph-name="bar" unicode="|" horiz-adv-x="419" 
d="M-20 -426l423 1974h58l-424 -1974h-57z" />
    <glyph glyph-name="braceright" unicode="}" horiz-adv-x="563" 
d="M260 1499h78q66 0 105.5 -44.5t39.5 -127.5q0 -32 -10 -84l-80 -379q-10 -52 -10 -84q0 -80 38 -120.5t95 -43.5l-12 -55q-69 -3 -137 -70t-91 -174l-81 -380q-26 -123 -89.5 -189.5t-150.5 -66.5h-82l10 49h72q139 0 184 215l82 381q15 70 47 124t67.5 82t65.5 41.5
t52 14.5v4q-40 2 -83.5 50t-43.5 136q0 39 8 78l80 377q12 55 12 98q0 119 -102 119h-74z" />
    <glyph glyph-name="asciitilde" unicode="~" horiz-adv-x="1191" 
d="M164 522l-21 39q33 36 57 59t60 50t77 40t87 13q52 0 108 -22t97 -48.5t96 -48.5t106 -22q119 0 216 143l20 -43q-120 -154 -252 -154q-52 0 -110 22.5t-100.5 49.5t-97 49.5t-101.5 22.5q-69 0 -125.5 -39.5t-116.5 -110.5z" />
    <glyph glyph-name="uni00A0" unicode="&#xa0;" horiz-adv-x="460" 
 />
    <glyph glyph-name="exclamdown" unicode="&#xa1;" horiz-adv-x="462" 
d="M301 725l-221 -1098l-76 -10l248 1108h49zM326 1047q22 0 38.5 -16.5t16.5 -39.5q0 -25 -16 -41t-39 -16q-25 0 -41.5 16t-16.5 41q0 23 17.5 39.5t40.5 16.5z" />
    <glyph glyph-name="cent" unicode="&#xa2;" horiz-adv-x="856" 
d="M647 1200h47l-37 -166q121 -7 215 -88l-38 -39q-74 66 -189 76l-201 -950q140 6 256 110l25 -43q-124 -108 -291 -114l-33 -160h-47l33 160q-137 9 -209 101.5t-72 231.5q0 172 65.5 332.5t183 267t255.5 115.5zM168 317q0 -119 60 -197t169 -87l201 948
q-113 -10 -213.5 -108.5t-158.5 -248t-58 -307.5z" />
    <glyph glyph-name="sterling" unicode="&#xa3;" horiz-adv-x="935" 
d="M2 0l10 59h221l134 617h-197l10 53h197l55 256q43 203 145 308.5t279 105.5q155 0 244 -99l-43 -43q-72 86 -211 86q-148 0 -230 -93t-120 -267l-54 -254h332l-10 -53h-332l-133 -617h506l-10 -59h-793z" />
    <glyph glyph-name="currency" unicode="&#xa4;" horiz-adv-x="858" 
d="M598 121l-76 160q-70 -39 -157 -39q-84 0 -140 43l-145 -162l-41 33l147 166q-47 63 -47 147q0 93 39.5 178.5t104.5 140.5l-76 164l49 27l74 -160q73 45 166 45q76 0 135 -43l145 162l43 -33l-147 -164q49 -58 49 -161q0 -88 -41.5 -175.5t-108.5 -138.5l76 -164z
M379 289q125 0 207 102.5t82 247.5q0 81 -46 129.5t-137 48.5q-127 0 -207.5 -99.5t-80.5 -236.5q0 -192 182 -192z" />
    <glyph glyph-name="yen" unicode="&#xa5;" horiz-adv-x="972" 
d="M987 666h-371l-84 -113l-22 -104h430l-10 -50h-430l-84 -399h-66l84 399h-409l10 50h409l23 108l-35 109h-352l10 49h326l-221 690h69l203 -651q4 -15 19.5 -65.5t21.5 -74.5q36 50 106 146l478 645h77l-516 -690h344z" />
    <glyph glyph-name="brokenbar" unicode="&#xa6;" horiz-adv-x="428" 
d="M229 686l183 862h57l-184 -862h-56zM-6 -426l180 856h55l-180 -856h-55z" />
    <glyph glyph-name="section" unicode="&#xa7;" horiz-adv-x="913" 
d="M838 602q0 -100 -75.5 -174t-221.5 -139q127 -93 127 -234q0 -104 -54.5 -178t-140.5 -108.5t-192 -34.5q-97 0 -182.5 43.5t-121.5 116.5l58 28q31 -61 98.5 -96t155.5 -35q83 0 152 26.5t115 86.5t46 145q0 132 -127 207l-153 90q-38 23 -50.5 30.5t-42.5 27.5t-41 31
t-30 31.5t-26 38.5t-13 42.5t-6 52.5q0 189 299 315q-131 86 -131 228q0 78 31 137t85 93.5t119 51.5t139 17q93 0 172 -36.5t117 -107.5l-57 -28q-62 116 -240 116q-57 0 -108 -12.5t-95.5 -39t-71 -74t-26.5 -111.5q0 -122 129 -199l154 -90q54 -32 85.5 -54.5t63 -54
t46 -68t14.5 -81.5zM586 815l-129 72q-144 -64 -210.5 -127.5t-66.5 -149.5q0 -70 36.5 -109.5t139.5 -101.5l142 -82q134 58 203 122t69 149q0 73 -47.5 125.5t-136.5 101.5z" />
    <glyph glyph-name="dieresis" unicode="&#xa8;" horiz-adv-x="593" 
d="M610 1208q-21 0 -35 14t-14 35q0 20 14.5 35t34.5 15t34.5 -15t14.5 -35q0 -21 -14 -35t-35 -14zM328 1208q-21 0 -35 14t-14 35q0 20 14.5 35t34.5 15q21 0 35 -14.5t14 -35.5t-14 -35t-35 -14z" />
    <glyph glyph-name="copyright" unicode="&#xa9;" horiz-adv-x="1732" 
d="M920 1438q195 0 361 -95t265 -263.5t99 -370.5t-99 -370.5t-265 -263.5t-361 -95q-196 0 -362.5 95t-264.5 263t-98 371t98 371t264.5 263t362.5 95zM920 25q135 0 258 53t213.5 143.5t144 218t53.5 269.5q0 141 -53.5 268.5t-144 218.5t-213.5 144t-258 53
q-182 0 -336.5 -90t-245 -247.5t-90.5 -346.5q0 -142 53.5 -269.5t144 -218t214.5 -143.5t260 -53zM1149 336q-95 -70 -209 -70q-161 0 -254 133q-84 119 -84 306q0 165 68 288q42 75 108 117.5t148 42.5q120 0 204 -66l-24 -32q-74 57 -180 57q-67 0 -122 -36.5t-87 -98.5
q-62 -120 -62 -270q0 -172 62 -269q80 -133 227 -133q97 0 180 64z" />
    <glyph glyph-name="ordfeminine" unicode="&#xaa;" horiz-adv-x="811" 
d="M766 772l-37 -29q-57 50 -57 123q0 32 8 68q-50 -80 -118 -130t-140 -50q-57 0 -97 22t-61 60t-30 79.5t-9 90.5q0 122 39 228t102.5 176t143 109.5t160.5 39.5q57 0 108.5 -17.5t79.5 -40.5q-26 -89 -27 -96l-102 -438q-12 -58 -12 -90q0 -63 49 -105zM135 512l10 45
h588l-12 -45h-586zM434 795q128 0 252 202l115 492q-62 31 -135 31q-69 0 -137 -36.5t-123.5 -101.5t-90 -163.5t-34.5 -212.5q0 -40 6.5 -73.5t22 -66.5t47.5 -52t77 -19z" />
    <glyph glyph-name="guillemotleft" unicode="&#xab;" horiz-adv-x="860" 
d="M313 96l-184 396l356 395l43 -33l-335 -369l169 -362zM621 96l-185 396l359 395l43 -33l-338 -369l170 -362z" />
    <glyph glyph-name="logicalnot" unicode="&#xac;" horiz-adv-x="958" 
d="M725 158l80 377h-709l13 55h768l-93 -432h-59z" />
    <glyph glyph-name="uni00AD" unicode="&#xad;" horiz-adv-x="661" 
d="M143 537l13 59h391l-12 -59h-392z" />
    <glyph glyph-name="registered" unicode="&#xae;" horiz-adv-x="1732" 
d="M918 -20q-146 0 -279 56t-231 152t-155.5 231.5t-57.5 287.5q0 203 98 371t264 263t361 95q145 0 278.5 -56t231.5 -152.5t156 -232.5t58 -288t-58 -287.5t-156 -231.5t-231.5 -152t-278.5 -56zM918 23q136 0 259.5 53t214 144t144 218t53.5 269q0 190 -91 347.5
t-245 247t-335 89.5q-136 0 -260 -53t-214 -143.5t-143 -218t-53 -269.5q0 -189 90 -346.5t244 -247.5t336 -90zM713 281v864h125q101 0 155 -13.5t88 -44.5q82 -74 82 -180q0 -100 -64 -160t-173 -63q58 -25 102 -92q50 -75 105 -175.5t71 -135.5h-59q-17 39 -66 127
q-6 11 -23.5 42.5t-26 47t-26.5 44.5t-30.5 44.5t-31.5 36.5t-36 32t-38 19t-42 8h-63v-401h-49zM762 719h121q107 0 169 47.5t62 140.5q0 102 -78 156l-18 12q-56 29 -160 29h-96v-385z" />
    <glyph glyph-name="macron" unicode="&#xaf;" horiz-adv-x="604" 
d="M238 1243l10 45h532l-10 -45h-532z" />
    <glyph glyph-name="degree" unicode="&#xb0;" horiz-adv-x="727" 
d="M309 811q86 0 153.5 51.5t101.5 128t34 160.5q0 85 -43 136.5t-135 51.5q-128 0 -209.5 -104.5t-81.5 -235.5q0 -86 45 -137t135 -51zM297 766q-106 0 -164.5 64.5t-58.5 166.5q0 100 43.5 188.5t126 144.5t186.5 56q106 0 164.5 -65t58.5 -168q0 -100 -43.5 -188
t-126 -143.5t-186.5 -55.5z" />
    <glyph glyph-name="plusminus" unicode="&#xb1;" horiz-adv-x="942" 
d="M414 332l67 315h-350l12 55h349l65 310h57l-65 -310h348l-10 -55h-350l-68 -315h-55zM18 115l13 55h753l-12 -55h-754z" />
    <glyph glyph-name="twosuperior" unicode="&#xb2;" horiz-adv-x="606" 
d="M92 582l6 32q81 55 140.5 99t133.5 106t120.5 114.5t79 114t32.5 115.5q0 62 -38 95.5t-95 33.5q-97 0 -217 -82l-21 37q127 92 252 92q78 0 128.5 -46.5t50.5 -121.5q0 -44 -18.5 -91t-44 -87t-70.5 -87t-80.5 -79t-92.5 -76t-87.5 -65.5t-82.5 -58.5h371l-18 -45h-449z
" />
    <glyph glyph-name="threesuperior" unicode="&#xb3;" horiz-adv-x="638" 
d="M508 979q63 -14 99 -51.5t36 -91.5q0 -94 -68.5 -166t-166.5 -106t-203 -34q-36 0 -76 7l-4 41q63 -5 78 -5q100 0 187.5 33.5t141.5 94.5t54 135q0 63 -53.5 92.5t-145.5 29.5h-53l8 43h68q98 0 164.5 50t66.5 131q0 53 -35.5 82.5t-103.5 29.5q-52 0 -109.5 -21
t-99.5 -50l-23 32q50 36 118 61t130 25q84 0 132 -41.5t48 -111.5q0 -79 -56 -133.5t-134 -75.5z" />
    <glyph glyph-name="acute" unicode="&#xb4;" horiz-adv-x="569" 
d="M653 1376l-360 -209l-23 41l346 226z" />
    <glyph glyph-name="mu" unicode="&#xb5;" horiz-adv-x="1007" 
d="M963 1034l-172 -839q-15 -69 -15 -111q0 -28 12 -39.5t41 -11.5q21 0 45 8l5 -45q-37 -12 -72 -12q-52 0 -72 24.5t-20 65.5q0 72 24 155q-57 -109 -150.5 -177t-207.5 -68q-134 0 -209 106q-18 -85 -55 -254.5t-51 -238.5l-64 -13l305 1440l60 10l-179 -864
q28 -57 78 -95t119 -38q68 0 137.5 37t119 89.5t83 106t41.5 90.5l137 664z" />
    <glyph glyph-name="paragraph" unicode="&#xb6;" horiz-adv-x="897" 
d="M242 -184l211 991q-124 0 -200.5 71t-76.5 179q0 102 37 180t100 123t139 67.5t162 22.5h304l-349 -1634h-57l336 1581h-213l-336 -1581h-57z" />
    <glyph glyph-name="periodcentered" unicode="&#xb7;" horiz-adv-x="532" 
d="M242 516q-23 0 -40.5 17t-17.5 40q0 25 16.5 42.5t39.5 17.5q25 0 42 -17.5t17 -42.5q0 -23 -17 -40t-40 -17z" />
    <glyph glyph-name="cedilla" unicode="&#xb8;" horiz-adv-x="458" 
d="M29 -403q-87 0 -144 49l27 37q51 -39 123 -39q64 0 111 36t47 97q0 39 -28 58.5t-75 19.5q-23 0 -70 -7l84 160l46 -4l-60 -117q18 2 35 2q58 0 91.5 -32t33.5 -74q0 -84 -61 -135t-160 -51z" />
    <glyph glyph-name="onesuperior" unicode="&#xb9;" horiz-adv-x="577" 
d="M184 582l11 45h151l137 641q-89 -51 -223 -117l-8 35l256 149h43l-150 -708h146l-8 -45h-355z" />
    <glyph glyph-name="ordmasculine" unicode="&#xba;" horiz-adv-x="827" 
d="M465 733q-116 0 -177 71t-61 193q0 74 15 148.5t47.5 145t79 125t115.5 87.5t151 33q117 0 177 -70t60 -190q0 -92 -24 -184t-70.5 -174t-128 -133.5t-184.5 -51.5zM127 512l10 47h582l-8 -47h-584zM625 1491q-69 0 -127 -31t-96.5 -81.5t-65.5 -117t-39 -134.5t-12 -136
q0 -213 190 -213q71 0 129.5 32t96.5 83.5t64.5 118t38 134t11.5 134.5q0 211 -190 211z" />
    <glyph glyph-name="guillemotright" unicode="&#xbb;" horiz-adv-x="860" 
d="M547 887l184 -395l-358 -396l-43 33l338 373l-168 360zM238 887l184 -395l-356 -396l-43 33l335 373l-165 360z" />
    <glyph glyph-name="onequarter" unicode="&#xbc;" horiz-adv-x="1837" 
d="M121 502l8 47h158l149 702q-14 -9 -111.5 -62t-111.5 -59l-12 35l262 152h45l-164 -768h154l-9 -47h-368zM205 -315l1476 1878h58l-1477 -1878h-57zM1548 -39l47 217h-407l8 41l426 590h59q0 -1 -197 -278t-222 -308l8 2h336l75 326l52 12l-72 -338h117l-11 -47h-116
l-43 -203z" />
    <glyph glyph-name="onehalf" unicode="&#xbd;" horiz-adv-x="1765" 
d="M121 502l8 47h158l149 702q-14 -9 -111.5 -62t-111.5 -59l-12 35l262 152h45l-164 -768h154l-9 -47h-368zM102 -315l1477 1878h57l-1476 -1878h-58zM1151 0l8 39q92 58 213 156q33 26 55 44.5t59.5 52t63 60.5t56 65t49 71.5t31 73.5t12.5 77q0 61 -37.5 97t-99.5 36
q-107 0 -242 -80l-21 31q151 96 283 96q80 0 129 -46t49 -122q0 -209 -325 -463q-108 -84 -191 -141h391l-16 -47h-467z" />
    <glyph glyph-name="threequarters" unicode="&#xbe;" horiz-adv-x="1935" 
d="M125 455q-22 0 -62 4l-2 45q34 -6 66 -6q91 0 152 15.5t120 47.5q71 40 113.5 98.5t42.5 126.5q0 30 -21 59t-57 46q-45 22 -137 22h-61l10 45h67q90 0 146 27q50 26 81 69t31 97q0 56 -40 89.5t-111 33.5q-111 0 -225 -78l-23 33q53 38 126.5 65t137.5 27
q90 0 142.5 -42.5t52.5 -113.5q0 -82 -55 -142.5t-142 -86.5q67 -17 101 -56.5t34 -95.5q0 -85 -62 -159.5t-157 -118.5q-114 -51 -268 -51zM242 -315l1476 1878h58l-1477 -1878h-57zM1647 -39l47 217h-408l8 41l426 590h60q-7 -10 -105 -148t-197.5 -277t-117.5 -161l8 2
h336l76 326l51 12l-72 -338h117l-10 -47h-117l-43 -203z" />
    <glyph glyph-name="questiondown" unicode="&#xbf;" horiz-adv-x="817" 
d="M502 696h55q-7 -153 -51 -254t-162 -186q-18 -13 -56 -39.5t-57.5 -40t-51 -39t-48.5 -44t-39 -47t-32.5 -55t-18.5 -61.5t-8 -73q0 -92 58 -143.5t161 -51.5q78 0 146 24t153 72l22 -43q-86 -52 -162.5 -79t-172.5 -27q-117 0 -192 66t-75 173q0 44 8.5 84t19 70
t34.5 62t40.5 51t52.5 48.5t54.5 42.5t63.5 43.5t63 43.5q101 69 145 163t50 240zM547 1044q23 0 40 -17t17 -42t-16 -41t-41 -16t-42.5 16.5t-17.5 40.5t18 41.5t42 17.5z" />
    <glyph glyph-name="Agrave" unicode="&#xc0;" 
d="M825 0l-55 479h-565l-256 -479h-70l762 1405h82l168 -1405h-66zM567 1153l-334 -621h531l-92 824q-47 -97 -105 -203zM784 1495l-356 209l35 57l346 -223z" />
    <glyph glyph-name="Aacute" unicode="&#xc1;" 
d="M825 0l-55 479h-565l-256 -479h-70l762 1405h82l168 -1405h-66zM567 1153l-334 -621h531l-92 824q-47 -97 -105 -203zM938 1704l-360 -209l-23 41l346 225z" />
    <glyph glyph-name="Acircumflex" unicode="&#xc2;" 
d="M825 0l-55 479h-565l-256 -479h-70l762 1405h82l168 -1405h-66zM567 1153l-334 -621h531l-92 824q-47 -97 -105 -203zM418 1518l-23 41l332 215l262 -224l-31 -34l-237 182z" />
    <glyph glyph-name="Atilde" unicode="&#xc3;" 
d="M825 0l-55 479h-565l-256 -479h-70l762 1405h82l168 -1405h-66zM567 1153l-334 -621h531l-92 824q-47 -97 -105 -203zM563 1608q-75 0 -135 -60l-16 35q80 80 176 80q57 0 121.5 -37t113.5 -37q75 0 135 60l17 -35q-72 -80 -174 -80q-55 0 -120 37t-118 37z" />
    <glyph glyph-name="Adieresis" unicode="&#xc4;" 
d="M825 0l-55 479h-565l-256 -479h-70l762 1405h82l168 -1405h-66zM567 1153l-334 -621h531l-92 824q-47 -97 -105 -203zM850 1536q-21 0 -35 14t-14 35q0 20 14.5 34.5t34.5 14.5t34.5 -14.5t14.5 -34.5q0 -21 -14 -35t-35 -14zM567 1536q-21 0 -35 14t-14 35
q0 20 14.5 34.5t34.5 14.5q21 0 35 -14t14 -35t-14 -35t-35 -14z" />
    <glyph glyph-name="Aring" unicode="&#xc5;" 
d="M825 0l-55 479h-565l-256 -479h-70l762 1405h82l168 -1405h-66zM567 1153l-334 -621h531l-92 824q-47 -97 -105 -203zM713 1495q-72 0 -118 49t-46 119q0 68 45 116t115 48q71 0 117 -48t46 -116q0 -70 -45.5 -119t-113.5 -49zM713 1536q51 0 86 37t35 90q0 52 -36 88.5
t-89 36.5q-52 0 -85.5 -36.5t-33.5 -88.5q0 -54 34.5 -90.5t88.5 -36.5z" />
    <glyph glyph-name="AE" unicode="&#xc6;" horiz-adv-x="1591" 
d="M719 0l100 479h-508l-379 -479h-75l1120 1405h733l-22 -55h-621l-125 -590h500l-12 -55h-498l-137 -650h653q-3 -27 -10 -55h-719zM354 532h477l173 818z" />
    <glyph glyph-name="Ccedilla" unicode="&#xc7;" horiz-adv-x="1050" 
d="M555 -16q-37 0 -55 2l-49 -99q18 2 34 2q58 0 91.5 -32t33.5 -74q0 -84 -61 -135t-160 -51q-86 0 -143 49l26 37q51 -39 123 -39q64 0 111 36t47 97q0 39 -27.5 58.5t-74.5 19.5q-23 0 -70 -7l76 144q-310 53 -310 465q0 103 19 211t55 216t95.5 203.5t134 169.5t177 117
t218.5 43q184 0 297 -104l-37 -41q-55 51 -117.5 72.5t-150.5 21.5q-102 0 -192.5 -40.5t-158 -110.5t-121 -160.5t-87 -192.5t-51 -205t-17.5 -200q0 -420 364 -420q167 0 320 100l25 -43q-171 -110 -365 -110z" />
    <glyph glyph-name="Egrave" unicode="&#xc8;" horiz-adv-x="956" 
d="M84 0l297 1405h692l-20 -55h-621l-125 -590h500l-12 -55h-500l-137 -650h657l-12 -55h-719zM858 1495l-356 209l35 57l346 -223z" />
    <glyph glyph-name="Eacute" unicode="&#xc9;" horiz-adv-x="956" 
d="M84 0l297 1405h692l-20 -55h-621l-125 -590h500l-12 -55h-500l-137 -650h657l-12 -55h-719zM950 1704l-360 -209l-23 41l346 225z" />
    <glyph glyph-name="Ecircumflex" unicode="&#xca;" horiz-adv-x="956" 
d="M84 0l297 1405h692l-20 -55h-621l-125 -590h500l-12 -55h-500l-137 -650h657l-12 -55h-719zM449 1518l-23 41l332 215l262 -224l-31 -34l-237 182z" />
    <glyph glyph-name="Edieresis" unicode="&#xcb;" horiz-adv-x="956" 
d="M84 0l297 1405h692l-20 -55h-621l-125 -590h500l-12 -55h-500l-137 -650h657l-12 -55h-719zM868 1536q-21 0 -35 14t-14 35q0 20 14.5 34.5t34.5 14.5t35 -14.5t15 -34.5q0 -21 -14.5 -35t-35.5 -14zM586 1536q-21 0 -35 14t-14 35q0 20 14.5 34.5t34.5 14.5q21 0 35 -14
t14 -35t-14 -35t-35 -14z" />
    <glyph glyph-name="Igrave" unicode="&#xcc;" horiz-adv-x="430" 
d="M84 0l297 1405h61l-297 -1405h-61zM494 1495l-357 209l35 57l346 -223z" />
    <glyph glyph-name="Iacute" unicode="&#xcd;" horiz-adv-x="430" 
d="M84 0l297 1405h61l-297 -1405h-61zM707 1704l-361 -209l-22 41l346 225z" />
    <glyph glyph-name="Icircumflex" unicode="&#xce;" horiz-adv-x="430" 
d="M84 0l297 1405h61l-297 -1405h-61zM147 1518l-22 41l332 215l262 -224l-31 -34l-237 182z" />
    <glyph glyph-name="Idieresis" unicode="&#xcf;" horiz-adv-x="430" 
d="M84 0l297 1405h61l-297 -1405h-61zM565 1536q-21 0 -35 14t-14 35q0 20 14.5 34.5t34.5 14.5t34.5 -14.5t14.5 -34.5q0 -21 -14 -35t-35 -14zM283 1536q-21 0 -35.5 14t-14.5 35q0 20 15 34.5t35 14.5q21 0 35 -14t14 -35t-14 -35t-35 -14z" />
    <glyph glyph-name="Eth" unicode="&#xd0;" horiz-adv-x="1193" 
d="M113 692l8 47h119l141 666h219q96 0 170 -11t145.5 -42.5t118 -83.5t75 -138.5t28.5 -203.5q0 -148 -27 -281t-87 -252.5t-148.5 -205.5t-220.5 -136.5t-294 -50.5h-276l145 692h-116zM156 53h215q142 0 258.5 45.5t197 124.5t136 189t81 237.5t25.5 270.5
q0 103 -22.5 179t-61 123.5t-97.5 76.5t-125 40t-151 11h-180l-131 -611h451l-29 -47h-432z" />
    <glyph glyph-name="Ntilde" unicode="&#xd1;" horiz-adv-x="1214" 
d="M84 0l297 1405h76l360 -1106l72 -227q0 3 8.5 50.5t22 116t24.5 117.5l219 1049h62l-297 -1405h-70l-364 1094q-50 148 -72 239l-277 -1333h-61zM688 1608q-75 0 -135 -60l-16 35q80 80 176 80q57 0 121.5 -37t113.5 -37q75 0 135 60l17 -35q-72 -80 -174 -80
q-55 0 -120 37t-118 37z" />
    <glyph glyph-name="Ograve" unicode="&#xd2;" horiz-adv-x="1277" 
d="M545 31q92 0 174 34.5t142.5 92.5t110.5 136t83.5 163.5t56.5 177t33 174.5t10 158q0 401 -332 401q-107 0 -199.5 -46t-157 -123.5t-114.5 -173.5t-79 -203t-43.5 -205t-14.5 -185q0 -401 330 -401zM532 -16q-107 0 -184 37t-119 103.5t-60.5 144.5t-18.5 175
q0 128 23 259t76.5 261t130.5 230t195 162.5t261 62.5q107 0 184.5 -37.5t120 -104.5t61.5 -146t19 -175q0 -90 -12 -182.5t-38 -188.5t-64 -183t-95 -164t-125.5 -133t-159.5 -88.5t-195 -32.5zM944 1495l-356 209l35 57l346 -223z" />
    <glyph glyph-name="Oacute" unicode="&#xd3;" horiz-adv-x="1277" 
d="M545 31q92 0 174 34.5t142.5 92.5t110.5 136t83.5 163.5t56.5 177t33 174.5t10 158q0 401 -332 401q-107 0 -199.5 -46t-157 -123.5t-114.5 -173.5t-79 -203t-43.5 -205t-14.5 -185q0 -401 330 -401zM532 -16q-107 0 -184 37t-119 103.5t-60.5 144.5t-18.5 175
q0 128 23 259t76.5 261t130.5 230t195 162.5t261 62.5q107 0 184.5 -37.5t120 -104.5t61.5 -146t19 -175q0 -90 -12 -182.5t-38 -188.5t-64 -183t-95 -164t-125.5 -133t-159.5 -88.5t-195 -32.5zM1069 1704l-360 -209l-23 41l346 225z" />
    <glyph glyph-name="Ocircumflex" unicode="&#xd4;" horiz-adv-x="1277" 
d="M545 31q92 0 174 34.5t142.5 92.5t110.5 136t83.5 163.5t56.5 177t33 174.5t10 158q0 401 -332 401q-107 0 -199.5 -46t-157 -123.5t-114.5 -173.5t-79 -203t-43.5 -205t-14.5 -185q0 -401 330 -401zM532 -16q-107 0 -184 37t-119 103.5t-60.5 144.5t-18.5 175
q0 128 23 259t76.5 261t130.5 230t195 162.5t261 62.5q107 0 184.5 -37.5t120 -104.5t61.5 -146t19 -175q0 -90 -12 -182.5t-38 -188.5t-64 -183t-95 -164t-125.5 -133t-159.5 -88.5t-195 -32.5zM553 1518l-23 41l332 215l262 -224l-30 -34l-238 182z" />
    <glyph glyph-name="Otilde" unicode="&#xd5;" horiz-adv-x="1277" 
d="M545 31q92 0 174 34.5t142.5 92.5t110.5 136t83.5 163.5t56.5 177t33 174.5t10 158q0 401 -332 401q-107 0 -199.5 -46t-157 -123.5t-114.5 -173.5t-79 -203t-43.5 -205t-14.5 -185q0 -401 330 -401zM532 -16q-107 0 -184 37t-119 103.5t-60.5 144.5t-18.5 175
q0 128 23 259t76.5 261t130.5 230t195 162.5t261 62.5q107 0 184.5 -37.5t120 -104.5t61.5 -146t19 -175q0 -90 -12 -182.5t-38 -188.5t-64 -183t-95 -164t-125.5 -133t-159.5 -88.5t-195 -32.5zM717 1608q-75 0 -135 -60l-17 35q80 80 176 80q57 0 122 -37t114 -37
q75 0 135 60l16 -35q-72 -80 -174 -80q-55 0 -119.5 37t-117.5 37z" />
    <glyph glyph-name="Odieresis" unicode="&#xd6;" horiz-adv-x="1277" 
d="M545 31q92 0 174 34.5t142.5 92.5t110.5 136t83.5 163.5t56.5 177t33 174.5t10 158q0 401 -332 401q-107 0 -199.5 -46t-157 -123.5t-114.5 -173.5t-79 -203t-43.5 -205t-14.5 -185q0 -401 330 -401zM532 -16q-107 0 -184 37t-119 103.5t-60.5 144.5t-18.5 175
q0 128 23 259t76.5 261t130.5 230t195 162.5t261 62.5q107 0 184.5 -37.5t120 -104.5t61.5 -146t19 -175q0 -90 -12 -182.5t-38 -188.5t-64 -183t-95 -164t-125.5 -133t-159.5 -88.5t-195 -32.5zM1010 1536q-21 0 -35 14t-14 35q0 20 14.5 34.5t34.5 14.5t34.5 -14.5
t14.5 -34.5q0 -21 -14 -35t-35 -14zM727 1536q-21 0 -35 14t-14 35q0 20 14.5 34.5t34.5 14.5q21 0 35 -14t14 -35t-14 -35t-35 -14z" />
    <glyph glyph-name="multiply" unicode="&#xd7;" horiz-adv-x="946" 
d="M127 184l-33 41l342 285l-221 285l43 34l225 -282l344 284l33 -43l-344 -284l223 -285l-45 -35l-223 283z" />
    <glyph glyph-name="Oslash" unicode="&#xd8;" horiz-adv-x="1277" 
d="M532 -16q-198 0 -294 127l-189 -234l-37 27l201 246q-63 110 -63 294q0 128 23 259t76.5 261t130.5 230t195 162.5t261 62.5q202 0 299 -135l204 252l39 -27l-217 -268q60 -112 60 -285q0 -90 -12 -182.5t-38 -188.5t-64 -183t-95 -164t-125.5 -133t-159.5 -88.5
t-195 -32.5zM215 432q0 -142 39 -231l840 1034q-81 133 -271 133q-107 0 -199.5 -46t-157 -123.5t-114.5 -173.5t-79 -203t-43.5 -205t-14.5 -185zM545 31q92 0 174 34.5t142.5 92.5t110.5 136t83.5 163.5t56.5 177t33 174.5t10 158q0 133 -37 223l-842 -1032
q80 -127 269 -127z" />
    <glyph glyph-name="Ugrave" unicode="&#xd9;" horiz-adv-x="1185" 
d="M485 -16q-165 0 -248 77.5t-83 217.5q0 67 16 139l209 987h61l-204 -967q-19 -97 -19 -153q0 -122 64.5 -185t220.5 -63q207 0 313 115q83 92 119 264l211 989h61l-211 -995q-22 -104 -53.5 -175.5t-85.5 -125.5q-128 -125 -371 -125zM915 1495l-356 209l35 57l346 -223z
" />
    <glyph glyph-name="Uacute" unicode="&#xda;" horiz-adv-x="1185" 
d="M485 -16q-165 0 -248 77.5t-83 217.5q0 67 16 139l209 987h61l-204 -967q-19 -97 -19 -153q0 -122 64.5 -185t220.5 -63q207 0 313 115q83 92 119 264l211 989h61l-211 -995q-22 -104 -53.5 -175.5t-85.5 -125.5q-128 -125 -371 -125zM1049 1704l-361 -209l-22 41
l346 225z" />
    <glyph glyph-name="Ucircumflex" unicode="&#xdb;" horiz-adv-x="1185" 
d="M485 -16q-165 0 -248 77.5t-83 217.5q0 67 16 139l209 987h61l-204 -967q-19 -97 -19 -153q0 -122 64.5 -185t220.5 -63q207 0 313 115q83 92 119 264l211 989h61l-211 -995q-22 -104 -53.5 -175.5t-85.5 -125.5q-128 -125 -371 -125zM535 1518l-23 41l332 215l262 -224
l-31 -34l-237 182z" />
    <glyph glyph-name="Udieresis" unicode="&#xdc;" horiz-adv-x="1185" 
d="M485 -16q-165 0 -248 77.5t-83 217.5q0 67 16 139l209 987h61l-204 -967q-19 -97 -19 -153q0 -122 64.5 -185t220.5 -63q207 0 313 115q83 92 119 264l211 989h61l-211 -995q-22 -104 -53.5 -175.5t-85.5 -125.5q-128 -125 -371 -125zM967 1536q-21 0 -35 14t-14 35
q0 20 14.5 34.5t34.5 14.5t34.5 -14.5t14.5 -34.5q0 -21 -14 -35t-35 -14zM684 1536q-21 0 -35 14t-14 35q0 20 14.5 34.5t34.5 14.5q21 0 35 -14t14 -35t-14 -35t-35 -14z" />
    <glyph glyph-name="Yacute" unicode="&#xdd;" horiz-adv-x="978" 
d="M354 0l117 557l-272 848h69l203 -651q4 -15 19.5 -65.5t21.5 -74.5q36 50 106 146l478 645h78l-637 -852l-117 -553h-66zM899 1704l-360 -209l-23 41l346 225z" />
    <glyph glyph-name="Thorn" unicode="&#xde;" horiz-adv-x="1015" 
d="M84 0l297 1405h59l-59 -281h219q67 0 125.5 -9.5t113.5 -32.5t93.5 -58.5t62 -92t23.5 -128.5q0 -102 -29.5 -185t-79 -138.5t-117.5 -92.5t-143 -53.5t-157 -16.5h-281l-68 -317h-59zM588 1069h-217l-150 -698h279q70 0 133.5 14.5t122 46.5t101 80t68 120t25.5 161
q0 67 -19.5 117t-51 80t-79.5 48t-98 24.5t-114 6.5z" />
    <glyph glyph-name="germandbls" unicode="&#xdf;" horiz-adv-x="1073" 
d="M393 1071l-225 -1071q-37 -173 -69.5 -250.5t-96.5 -155.5l-51 29q65 83 92.5 152.5t60.5 224.5l205 971h-139l10 49h139l25 98q82 330 383 330q115 0 184.5 -61.5t69.5 -161.5q0 -68 -21 -121.5t-54.5 -87t-74.5 -59.5t-81.5 -43.5t-74 -33t-54.5 -35t-21 -42.5
q0 -9 3 -17.5t12 -18t18 -17t28 -20.5t34 -22.5l45 -28.5t53 -34q71 -46 110 -106t39 -148q0 -124 -58.5 -217.5t-156.5 -141.5t-219 -48q-101 0 -178 34l22 45q62 -34 160 -34q154 0 260.5 99t106.5 253q0 86 -36.5 137.5t-133.5 114.5q-100 65 -133 95.5t-33 64.5
q0 36 20.5 63t54 45t73.5 35.5t79.5 40.5t73 52.5t54 78.5t20.5 113q0 87 -53 133.5t-148 46.5q-254 0 -324 -330z" />
    <glyph glyph-name="agrave" unicode="&#xe0;" 
d="M659 1032q134 0 238 -74q-33 -136 -39 -163l-106 -510q-19 -90 -19 -135q0 -70 49 -127l-47 -37q-61 64 -61 166q0 38 8 79q-130 -245 -338 -245q-133 0 -195.5 86.5t-62.5 230.5q0 155 47.5 292.5t126.5 232.5t183.5 149.5t215.5 54.5zM702 342l125 592q-74 47 -176 47
q-95 0 -185.5 -51t-160.5 -139t-112.5 -217t-42.5 -275q0 -122 50 -192t158 -70q197 0 344 305zM819 1167l-356 209l35 58l346 -224z" />
    <glyph glyph-name="aacute" unicode="&#xe1;" 
d="M659 1032q134 0 238 -74q-33 -136 -39 -163l-106 -510q-19 -90 -19 -135q0 -70 49 -127l-47 -37q-61 64 -61 166q0 38 8 79q-130 -245 -338 -245q-133 0 -195.5 86.5t-62.5 230.5q0 155 47.5 292.5t126.5 232.5t183.5 149.5t215.5 54.5zM702 342l125 592q-74 47 -176 47
q-95 0 -185.5 -51t-160.5 -139t-112.5 -217t-42.5 -275q0 -122 50 -192t158 -70q197 0 344 305zM940 1376l-360 -209l-23 41l346 226z" />
    <glyph glyph-name="acircumflex" unicode="&#xe2;" 
d="M659 1032q134 0 238 -74q-33 -136 -39 -163l-106 -510q-19 -90 -19 -135q0 -70 49 -127l-47 -37q-61 64 -61 166q0 38 8 79q-130 -245 -338 -245q-133 0 -195.5 86.5t-62.5 230.5q0 155 47.5 292.5t126.5 232.5t183.5 149.5t215.5 54.5zM702 342l125 592q-74 47 -176 47
q-95 0 -185.5 -51t-160.5 -139t-112.5 -217t-42.5 -275q0 -122 50 -192t158 -70q197 0 344 305zM422 1190l-23 41l332 215l262 -223l-30 -35l-238 182z" />
    <glyph glyph-name="atilde" unicode="&#xe3;" 
d="M659 1032q134 0 238 -74q-33 -136 -39 -163l-106 -510q-19 -90 -19 -135q0 -70 49 -127l-47 -37q-61 64 -61 166q0 38 8 79q-130 -245 -338 -245q-133 0 -195.5 86.5t-62.5 230.5q0 155 47.5 292.5t126.5 232.5t183.5 149.5t215.5 54.5zM702 342l125 592q-74 47 -176 47
q-95 0 -185.5 -51t-160.5 -139t-112.5 -217t-42.5 -275q0 -122 50 -192t158 -70q197 0 344 305zM567 1280q-76 0 -135 -59l-16 34q80 80 176 80q57 0 121.5 -36.5t113.5 -36.5q77 0 136 59l16 -35q-72 -80 -174 -80q-55 0 -120 37t-118 37z" />
    <glyph glyph-name="adieresis" unicode="&#xe4;" 
d="M659 1032q134 0 238 -74q-33 -136 -39 -163l-106 -510q-19 -90 -19 -135q0 -70 49 -127l-47 -37q-61 64 -61 166q0 38 8 79q-130 -245 -338 -245q-133 0 -195.5 86.5t-62.5 230.5q0 155 47.5 292.5t126.5 232.5t183.5 149.5t215.5 54.5zM702 342l125 592q-74 47 -176 47
q-95 0 -185.5 -51t-160.5 -139t-112.5 -217t-42.5 -275q0 -122 50 -192t158 -70q197 0 344 305zM825 1208q-21 0 -35 14t-14 35q0 20 14.5 35t34.5 15t34.5 -15t14.5 -35q0 -21 -14 -35t-35 -14zM543 1208q-21 0 -35 14t-14 35q0 20 14.5 35t34.5 15q21 0 35 -14.5t14 -35.5
t-14 -35t-35 -14z" />
    <glyph glyph-name="aring" unicode="&#xe5;" 
d="M659 1032q134 0 238 -74q-33 -136 -39 -163l-106 -510q-19 -90 -19 -135q0 -70 49 -127l-47 -37q-61 64 -61 166q0 38 8 79q-130 -245 -338 -245q-133 0 -195.5 86.5t-62.5 230.5q0 155 47.5 292.5t126.5 232.5t183.5 149.5t215.5 54.5zM702 342l125 592q-74 47 -176 47
q-95 0 -185.5 -51t-160.5 -139t-112.5 -217t-42.5 -275q0 -122 50 -192t158 -70q197 0 344 305zM709 1167q-72 0 -118 49t-46 119q0 68 45 116t115 48q71 0 117 -48t46 -116q0 -70 -45.5 -119t-113.5 -49zM709 1208q51 0 85.5 37t34.5 90q0 52 -35.5 88.5t-88.5 36.5
q-52 0 -85.5 -36.5t-33.5 -88.5q0 -54 34.5 -90.5t88.5 -36.5z" />
    <glyph glyph-name="ae" unicode="&#xe6;" horiz-adv-x="1531" 
d="M655 1036q96 0 148.5 -51.5t52.5 -150.5q0 -20 -4 -52q63 118 157.5 186t215.5 68q107 0 178.5 -59.5t71.5 -161.5q0 -323 -484 -323q-96 0 -186 8q-14 -74 -14 -156q0 -137 65.5 -222t202.5 -85q86 0 153.5 26.5t133.5 81.5l28 -41q-138 -120 -327 -120q-146 0 -221 92
t-85 248q-96 -340 -383 -340q-75 0 -130 20.5t-85 55t-43.5 73t-13.5 82.5q0 72 21.5 129t60.5 94t86.5 63t106.5 39.5t112 19t111 5.5q87 0 172 -10q3 12 11.5 48t12.5 52.5t11 47t10 49t5.5 41t2.5 38.5q0 76 -43 115t-123 39q-178 0 -367 -127l-22 45q206 133 401 133z
M369 29q81 0 144 35t107.5 102t74 150t50.5 192q-75 10 -157 10q-42 0 -77 -2t-81.5 -9t-83 -19t-74.5 -34.5t-63 -52.5t-41 -75t-16 -101q0 -82 53.5 -139t163.5 -57zM1212 985q-74 0 -141 -36.5t-116.5 -99t-85.5 -139t-56 -161.5q102 -8 178 -8q211 0 317.5 65t106.5 207
q0 82 -56 127t-147 45z" />
    <glyph glyph-name="ccedilla" unicode="&#xe7;" horiz-adv-x="827" 
d="M285 -403q-87 0 -144 49l27 37q51 -39 123 -39q64 0 111 36t47 97q0 39 -28 58.5t-75 19.5q-23 0 -70 -7l72 140q-120 19 -179.5 109t-59.5 222q0 177 66.5 341.5t187.5 270t264 105.5q126 0 219 -80l-29 -49q-84 76 -201 76q-119 0 -222.5 -97.5t-162.5 -250.5t-59 -316
q0 -129 62.5 -206.5t185.5 -77.5q139 0 262 108l27 -43q-74 -61 -145 -88.5t-156 -27.5h-13l-49 -97q18 2 35 2q58 0 91.5 -32t33.5 -74q0 -84 -61 -135t-160 -51z" />
    <glyph glyph-name="egrave" unicode="&#xe8;" horiz-adv-x="921" 
d="M379 492q-92 0 -186 8q-15 -80 -15 -156q0 -138 66.5 -223.5t201.5 -85.5q155 0 287 110l29 -41q-138 -120 -328 -120q-153 0 -237 99.5t-84 266.5q0 93 20 188t61.5 184.5t99 159.5t140.5 112t178 42q107 0 179.5 -59.5t72.5 -161.5q0 -323 -485 -323zM600 985
q-98 0 -181.5 -63.5t-135.5 -159.5t-80 -215q73 -6 178 -6q422 0 422 272q0 82 -56 127t-147 45zM768 1167l-356 209l34 58l347 -224z" />
    <glyph glyph-name="eacute" unicode="&#xe9;" horiz-adv-x="921" 
d="M379 492q-92 0 -186 8q-15 -80 -15 -156q0 -138 66.5 -223.5t201.5 -85.5q155 0 287 110l29 -41q-138 -120 -328 -120q-153 0 -237 99.5t-84 266.5q0 93 20 188t61.5 184.5t99 159.5t140.5 112t178 42q107 0 179.5 -59.5t72.5 -161.5q0 -323 -485 -323zM600 985
q-98 0 -181.5 -63.5t-135.5 -159.5t-80 -215q73 -6 178 -6q422 0 422 272q0 82 -56 127t-147 45zM934 1376l-361 -209l-22 41l346 226z" />
    <glyph glyph-name="ecircumflex" unicode="&#xea;" horiz-adv-x="921" 
d="M379 492q-92 0 -186 8q-15 -80 -15 -156q0 -138 66.5 -223.5t201.5 -85.5q155 0 287 110l29 -41q-138 -120 -328 -120q-153 0 -237 99.5t-84 266.5q0 93 20 188t61.5 184.5t99 159.5t140.5 112t178 42q107 0 179.5 -59.5t72.5 -161.5q0 -323 -485 -323zM600 985
q-98 0 -181.5 -63.5t-135.5 -159.5t-80 -215q73 -6 178 -6q422 0 422 272q0 82 -56 127t-147 45zM354 1190l-22 41l332 215l262 -223l-31 -35l-238 182z" />
    <glyph glyph-name="edieresis" unicode="&#xeb;" horiz-adv-x="921" 
d="M379 492q-92 0 -186 8q-15 -80 -15 -156q0 -138 66.5 -223.5t201.5 -85.5q155 0 287 110l29 -41q-138 -120 -328 -120q-153 0 -237 99.5t-84 266.5q0 93 20 188t61.5 184.5t99 159.5t140.5 112t178 42q107 0 179.5 -59.5t72.5 -161.5q0 -323 -485 -323zM600 985
q-98 0 -181.5 -63.5t-135.5 -159.5t-80 -215q73 -6 178 -6q422 0 422 272q0 82 -56 127t-147 45zM795 1208q-21 0 -35.5 14t-14.5 35q0 20 15 35t35 15t34.5 -15t14.5 -35q0 -21 -14 -35t-35 -14zM512 1208q-21 0 -35 14t-14 35q0 20 14.5 35t34.5 15q21 0 35 -14.5
t14 -35.5t-14 -35t-35 -14z" />
    <glyph glyph-name="igrave" unicode="&#xec;" horiz-adv-x="409" 
d="M82 0l217 1024l66 10l-220 -1034h-63zM446 1167l-356 209l35 58l346 -224z" />
    <glyph glyph-name="iacute" unicode="&#xed;" horiz-adv-x="409" 
d="M82 0l217 1024l66 10l-220 -1034h-63zM651 1376l-360 -209l-23 41l346 226z" />
    <glyph glyph-name="icircumflex" unicode="&#xee;" horiz-adv-x="409" 
d="M82 0l217 1024l66 10l-220 -1034h-63zM74 1190l-23 41l332 215l262 -223l-31 -35l-237 182z" />
    <glyph glyph-name="idieresis" unicode="&#xef;" horiz-adv-x="409" 
d="M82 0l217 1024l66 10l-220 -1034h-63zM494 1208q-21 0 -35.5 14t-14.5 35q0 20 15 35t35 15t34.5 -15t14.5 -35q0 -21 -14 -35t-35 -14zM211 1208q-21 0 -35 14t-14 35q0 20 14.5 35t34.5 15q21 0 35 -14.5t14 -35.5t-14 -35t-35 -14z" />
    <glyph glyph-name="eth" unicode="&#xf0;" horiz-adv-x="993" 
d="M383 33q140 0 248 103t163 273.5t54 376.5q-104 156 -293 156q-112 0 -212.5 -81.5t-160 -216.5t-59.5 -286q0 -149 69 -237t191 -88zM877 1389l-138 -115q176 -191 176 -504q0 -227 -69.5 -407t-193.5 -280.5t-281 -100.5q-144 0 -230 103t-86 273q0 118 39.5 233
t106 202.5t161.5 141.5t199 54q91 0 166 -35.5t117 -95.5q-23 229 -152 377l-160 -131l-32 31l155 129q-98 69 -243 116l39 41q139 -40 249 -118l140 116z" />
    <glyph glyph-name="ntilde" unicode="&#xf1;" horiz-adv-x="1024" 
d="M143 0h-61l164 776q26 126 26 162q0 37 -10 68l60 24q12 -38 12 -78q0 -38 -19 -133l-14 -63q52 71 110 129.5t139 103.5t157 45q96 0 147 -52t51 -140q0 -20 -12 -90l-158 -752h-61l155 737q15 73 15 101q0 143 -156 143q-53 0 -111.5 -29t-112.5 -78.5t-97 -98.5
t-84 -105zM514 1280q-76 0 -135 -59l-17 34q80 80 177 80q57 0 121.5 -36.5t113.5 -36.5q76 0 135 59l17 -35q-72 -80 -174 -80q-55 0 -120 37t-118 37z" />
    <glyph glyph-name="ograve" unicode="&#xf2;" horiz-adv-x="1009" 
d="M414 33q76 0 142.5 30t114 81t85 117t60.5 140.5t34.5 148t11.5 142.5q0 293 -252 293q-90 0 -166 -41.5t-127 -109t-87.5 -154.5t-53 -177t-16.5 -177q0 -293 254 -293zM401 -18q-82 0 -142.5 28.5t-95 79t-51 113t-16.5 137.5q0 90 18.5 183.5t60.5 186.5t102 165.5
t150.5 117.5t197.5 45q81 0 141 -28.5t94.5 -79.5t51 -112.5t16.5 -135.5q0 -94 -19.5 -189.5t-61.5 -188t-102 -163.5t-149.5 -115t-194.5 -44zM778 1167l-356 209l35 58l346 -224z" />
    <glyph glyph-name="oacute" unicode="&#xf3;" horiz-adv-x="1009" 
d="M414 33q76 0 142.5 30t114 81t85 117t60.5 140.5t34.5 148t11.5 142.5q0 293 -252 293q-90 0 -166 -41.5t-127 -109t-87.5 -154.5t-53 -177t-16.5 -177q0 -293 254 -293zM401 -18q-82 0 -142.5 28.5t-95 79t-51 113t-16.5 137.5q0 90 18.5 183.5t60.5 186.5t102 165.5
t150.5 117.5t197.5 45q81 0 141 -28.5t94.5 -79.5t51 -112.5t16.5 -135.5q0 -94 -19.5 -189.5t-61.5 -188t-102 -163.5t-149.5 -115t-194.5 -44zM932 1376l-361 -209l-22 41l346 226z" />
    <glyph glyph-name="ocircumflex" unicode="&#xf4;" horiz-adv-x="1009" 
d="M414 33q76 0 142.5 30t114 81t85 117t60.5 140.5t34.5 148t11.5 142.5q0 293 -252 293q-90 0 -166 -41.5t-127 -109t-87.5 -154.5t-53 -177t-16.5 -177q0 -293 254 -293zM401 -18q-82 0 -142.5 28.5t-95 79t-51 113t-16.5 137.5q0 90 18.5 183.5t60.5 186.5t102 165.5
t150.5 117.5t197.5 45q81 0 141 -28.5t94.5 -79.5t51 -112.5t16.5 -135.5q0 -94 -19.5 -189.5t-61.5 -188t-102 -163.5t-149.5 -115t-194.5 -44zM375 1190l-23 41l332 215l262 -223l-31 -35l-237 182z" />
    <glyph glyph-name="otilde" unicode="&#xf5;" horiz-adv-x="1009" 
d="M414 33q76 0 142.5 30t114 81t85 117t60.5 140.5t34.5 148t11.5 142.5q0 293 -252 293q-90 0 -166 -41.5t-127 -109t-87.5 -154.5t-53 -177t-16.5 -177q0 -293 254 -293zM401 -18q-82 0 -142.5 28.5t-95 79t-51 113t-16.5 137.5q0 90 18.5 183.5t60.5 186.5t102 165.5
t150.5 117.5t197.5 45q81 0 141 -28.5t94.5 -79.5t51 -112.5t16.5 -135.5q0 -94 -19.5 -189.5t-61.5 -188t-102 -163.5t-149.5 -115t-194.5 -44zM549 1280q-76 0 -135 -59l-17 34q80 80 176 80q57 0 122 -36.5t114 -36.5q76 0 135 59l17 -35q-72 -80 -175 -80
q-55 0 -119.5 37t-117.5 37z" />
    <glyph glyph-name="odieresis" unicode="&#xf6;" horiz-adv-x="1009" 
d="M414 33q76 0 142.5 30t114 81t85 117t60.5 140.5t34.5 148t11.5 142.5q0 293 -252 293q-90 0 -166 -41.5t-127 -109t-87.5 -154.5t-53 -177t-16.5 -177q0 -293 254 -293zM401 -18q-82 0 -142.5 28.5t-95 79t-51 113t-16.5 137.5q0 90 18.5 183.5t60.5 186.5t102 165.5
t150.5 117.5t197.5 45q81 0 141 -28.5t94.5 -79.5t51 -112.5t16.5 -135.5q0 -94 -19.5 -189.5t-61.5 -188t-102 -163.5t-149.5 -115t-194.5 -44zM809 1208q-21 0 -35 14t-14 35q0 20 14.5 35t34.5 15t34.5 -15t14.5 -35q0 -21 -14 -35t-35 -14zM526 1208q-21 0 -35 14
t-14 35q0 20 14.5 35t34.5 15q21 0 35 -14.5t14 -35.5t-14 -35t-35 -14z" />
    <glyph glyph-name="divide" unicode="&#xf7;" horiz-adv-x="1052" 
d="M98 498l11 51h862l-10 -51h-863zM600 786q-24 0 -41.5 17t-17.5 41q0 25 17 42t42 17t41 -17t16 -42q0 -24 -16.5 -41t-40.5 -17zM467 139q-25 0 -42 16.5t-17 41.5q0 26 17 42.5t42 16.5t41 -16t16 -41q0 -26 -16.5 -43t-40.5 -17z" />
    <glyph glyph-name="oslash" unicode="&#xf8;" horiz-adv-x="1009" 
d="M401 -18q-141 0 -219 84l-127 -158l-35 29l134 165q-58 89 -58 238q0 90 18.5 183.5t60.5 186.5t102 165.5t150.5 117.5t197.5 45q138 0 219 -88l153 191l37 -29l-162 -201q56 -90 56 -229q0 -94 -19.5 -189.5t-61.5 -188t-102 -163.5t-149.5 -115t-194.5 -44zM160 326
q0 -110 35 -174l610 751q-65 82 -195 82q-90 0 -166 -41.5t-127 -109t-87.5 -154.5t-53 -177t-16.5 -177zM414 33q76 0 142.5 30t114 81t85 117t60.5 140.5t34.5 148t11.5 142.5q0 104 -31 170l-612 -751q65 -78 195 -78z" />
    <glyph glyph-name="ugrave" unicode="&#xf9;" horiz-adv-x="1046" 
d="M756 256q-36 -50 -75.5 -93t-91.5 -86.5t-113 -69t-122 -25.5q-105 0 -154.5 49.5t-49.5 136.5q0 44 12 96l157 752l64 12l-160 -749q-14 -68 -14 -107q0 -69 37.5 -105t124.5 -36q180 0 405 323l137 662l66 10l-160 -741q-18 -83 -18 -129q0 -43 10.5 -72t38.5 -61
l-47 -37q-60 63 -60 168q0 42 13 102zM823 1167l-356 209l35 58l346 -224z" />
    <glyph glyph-name="uacute" unicode="&#xfa;" horiz-adv-x="1046" 
d="M756 256q-36 -50 -75.5 -93t-91.5 -86.5t-113 -69t-122 -25.5q-105 0 -154.5 49.5t-49.5 136.5q0 44 12 96l157 752l64 12l-160 -749q-14 -68 -14 -107q0 -69 37.5 -105t124.5 -36q180 0 405 323l137 662l66 10l-160 -741q-18 -83 -18 -129q0 -43 10.5 -72t38.5 -61
l-47 -37q-60 63 -60 168q0 42 13 102zM973 1376l-361 -209l-22 41l346 226z" />
    <glyph glyph-name="ucircumflex" unicode="&#xfb;" horiz-adv-x="1046" 
d="M756 256q-36 -50 -75.5 -93t-91.5 -86.5t-113 -69t-122 -25.5q-105 0 -154.5 49.5t-49.5 136.5q0 44 12 96l157 752l64 12l-160 -749q-14 -68 -14 -107q0 -69 37.5 -105t124.5 -36q180 0 405 323l137 662l66 10l-160 -741q-18 -83 -18 -129q0 -43 10.5 -72t38.5 -61
l-47 -37q-60 63 -60 168q0 42 13 102zM408 1190l-23 41l332 215l262 -223l-31 -35l-237 182z" />
    <glyph glyph-name="udieresis" unicode="&#xfc;" horiz-adv-x="1046" 
d="M756 256q-36 -50 -75.5 -93t-91.5 -86.5t-113 -69t-122 -25.5q-105 0 -154.5 49.5t-49.5 136.5q0 44 12 96l157 752l64 12l-160 -749q-14 -68 -14 -107q0 -69 37.5 -105t124.5 -36q180 0 405 323l137 662l66 10l-160 -741q-18 -83 -18 -129q0 -43 10.5 -72t38.5 -61
l-47 -37q-60 63 -60 168q0 42 13 102zM840 1208q-21 0 -35 14t-14 35q0 20 14.5 35t34.5 15t34.5 -15t14.5 -35q0 -21 -14 -35t-35 -14zM557 1208q-21 0 -35 14t-14 35q0 20 14.5 35t34.5 15q21 0 35 -14.5t14 -35.5t-14 -35t-35 -14z" />
    <glyph glyph-name="yacute" unicode="&#xfd;" horiz-adv-x="829" 
d="M2 -414l-14 47q96 27 161 100t170 269l-32 -4q0 58 -15 176l-114 842l61 18l96 -729q23 -170 23 -258h4q8 17 25 49.5t43 80.5t39 73l411 770h72l-574 -1057q-38 -69 -64 -112.5t-61 -92.5t-67.5 -79t-74 -55t-89.5 -38zM793 1376l-361 -209l-22 41l346 226z" />
    <glyph glyph-name="thorn" unicode="&#xfe;" horiz-adv-x="1046" 
d="M-8 -414l348 1622q27 117 27 201q0 21 -9 66l62 20q8 -46 8 -82q0 -66 -29 -211l-59 -278l-37 -162q159 272 371 272q136 0 207 -88.5t71 -247.5q0 -97 -21 -196t-65.5 -192t-106.5 -165.5t-150 -116.5t-189 -44q-160 0 -264 84l-101 -469zM653 979q-182 0 -368 -311
l-117 -541q44 -43 113.5 -66.5t142.5 -23.5q75 0 142.5 31.5t117 84t89 120t64 142t37.5 147t13 136.5q0 144 -56 212.5t-178 68.5z" />
    <glyph glyph-name="ydieresis" unicode="&#xff;" horiz-adv-x="829" 
d="M2 -414l-14 47q96 27 161 100t170 269l-32 -4q0 58 -15 176l-114 842l61 18l96 -729q23 -170 23 -258h4q8 17 25 49.5t43 80.5t39 73l411 770h72l-574 -1057q-38 -69 -64 -112.5t-61 -92.5t-67.5 -79t-74 -55t-89.5 -38zM719 1208q-21 0 -35 14t-14 35q0 20 14.5 35
t34.5 15t34.5 -15t14.5 -35q0 -21 -14 -35t-35 -14zM436 1208q-21 0 -35 14t-14 35q0 20 14.5 35t34.5 15q21 0 35 -14.5t14 -35.5t-14 -35t-35 -14z" />
    <glyph glyph-name="Amacron" unicode="&#x100;" 
d="M825 0l-55 479h-565l-256 -479h-70l762 1405h82l168 -1405h-66zM567 1153l-334 -621h531l-92 824q-47 -97 -105 -203zM436 1544l10 45h533l-10 -45h-533z" />
    <glyph glyph-name="amacron" unicode="&#x101;" 
d="M659 1032q134 0 238 -74q-33 -136 -39 -163l-106 -510q-19 -90 -19 -135q0 -70 49 -127l-47 -37q-61 64 -61 166q0 38 8 79q-130 -245 -338 -245q-133 0 -195.5 86.5t-62.5 230.5q0 155 47.5 292.5t126.5 232.5t183.5 149.5t215.5 54.5zM702 342l125 592q-74 47 -176 47
q-95 0 -185.5 -51t-160.5 -139t-112.5 -217t-42.5 -275q0 -122 50 -192t158 -70q197 0 344 305zM432 1243l10 45h533l-10 -45h-533z" />
    <glyph glyph-name="Abreve" unicode="&#x102;" 
d="M825 0l-55 479h-565l-256 -479h-70l762 1405h82l168 -1405h-66zM567 1153l-334 -621h531l-92 824q-47 -97 -105 -203zM680 1489q-60 0 -114 33.5t-83.5 70.5t-52.5 80l31 33q26 -39 50.5 -67t74.5 -55.5t108 -27.5q78 0 157 47.5t134 104.5l23 -37q-64 -66 -152.5 -124
t-175.5 -58z" />
    <glyph glyph-name="abreve" unicode="&#x103;" 
d="M659 1032q134 0 238 -74q-33 -136 -39 -163l-106 -510q-19 -90 -19 -135q0 -70 49 -127l-47 -37q-61 64 -61 166q0 38 8 79q-130 -245 -338 -245q-133 0 -195.5 86.5t-62.5 230.5q0 155 47.5 292.5t126.5 232.5t183.5 149.5t215.5 54.5zM702 342l125 592q-74 47 -176 47
q-95 0 -185.5 -51t-160.5 -139t-112.5 -217t-42.5 -275q0 -122 50 -192t158 -70q197 0 344 305zM668 1161q-46 0 -87.5 18.5t-72.5 48.5t-52.5 58.5t-37.5 59.5l31 32q98 -149 233 -149q78 0 157.5 47.5t133.5 103.5l22 -37q-38 -39 -81 -75t-114 -71.5t-132 -35.5z" />
    <glyph glyph-name="Aogonek" unicode="&#x104;" 
d="M780 -403q-69 0 -107 36t-38 93q0 142 190 274l-55 479h-565l-256 -479h-70l762 1405h82l168 -1405q-32 -23 -50.5 -37t-51.5 -44t-52 -55t-34 -59.5t-15 -68.5q0 -92 105 -92q57 0 122 30l11 -39q-65 -38 -146 -38zM567 1153l-334 -621h531l-92 824q-47 -97 -105 -203z
" />
    <glyph glyph-name="aogonek" unicode="&#x105;" 
d="M639 -403q-69 0 -107 36t-38 93q0 156 217 290q-37 49 -37 136q0 38 8 79q-130 -245 -338 -245q-133 0 -195.5 86.5t-62.5 230.5q0 155 47.5 292.5t126.5 232.5t183.5 149.5t215.5 54.5q134 0 238 -74q-33 -136 -39 -163l-106 -510q-19 -90 -19 -135q0 -70 49 -127
q-111 -75 -173 -142t-62 -145q0 -92 104 -92q58 0 123 30l10 -39q-65 -38 -145 -38zM702 342l125 592q-74 47 -176 47q-95 0 -185.5 -51t-160.5 -139t-112.5 -217t-42.5 -275q0 -122 50 -192t158 -70q197 0 344 305z" />
    <glyph glyph-name="Cacute" unicode="&#x106;" horiz-adv-x="1050" 
d="M555 -16q-408 0 -408 473q0 103 19 211t55 216t95.5 203.5t134 169.5t177 117t218.5 43q184 0 297 -104l-37 -41q-55 51 -117.5 72.5t-150.5 21.5q-102 0 -192.5 -40.5t-158 -110.5t-121 -160.5t-87 -192.5t-51 -205t-17.5 -200q0 -420 364 -420q167 0 320 100l25 -43
q-171 -110 -365 -110zM1079 1704l-360 -209l-23 41l346 225z" />
    <glyph glyph-name="cacute" unicode="&#x107;" horiz-adv-x="827" 
d="M408 -16q-76 0 -134.5 26.5t-94 73t-53 106t-17.5 129.5q0 177 66.5 341.5t187.5 270t264 105.5q126 0 219 -80l-29 -49q-84 76 -201 76q-119 0 -222.5 -97.5t-162.5 -250.5t-59 -316q0 -129 62.5 -206.5t185.5 -77.5q139 0 262 108l27 -43q-74 -61 -145 -88.5
t-156 -27.5zM913 1376l-360 -209l-23 41l347 226z" />
    <glyph glyph-name="Ccircumflex" unicode="&#x108;" horiz-adv-x="1050" 
d="M555 -16q-408 0 -408 473q0 103 19 211t55 216t95.5 203.5t134 169.5t177 117t218.5 43q184 0 297 -104l-37 -41q-55 51 -117.5 72.5t-150.5 21.5q-102 0 -192.5 -40.5t-158 -110.5t-121 -160.5t-87 -192.5t-51 -205t-17.5 -200q0 -420 364 -420q167 0 320 100l25 -43
q-171 -110 -365 -110zM604 1518l-22 41l331 215l263 -224l-31 -34l-238 182z" />
    <glyph glyph-name="ccircumflex" unicode="&#x109;" horiz-adv-x="827" 
d="M408 -16q-76 0 -134.5 26.5t-94 73t-53 106t-17.5 129.5q0 177 66.5 341.5t187.5 270t264 105.5q126 0 219 -80l-29 -49q-84 76 -201 76q-119 0 -222.5 -97.5t-162.5 -250.5t-59 -316q0 -129 62.5 -206.5t185.5 -77.5q139 0 262 108l27 -43q-74 -61 -145 -88.5
t-156 -27.5zM377 1190l-23 41l332 215l262 -223l-30 -35l-238 182z" />
    <glyph glyph-name="Cdotaccent" unicode="&#x10a;" horiz-adv-x="1050" 
d="M555 -16q-408 0 -408 473q0 103 19 211t55 216t95.5 203.5t134 169.5t177 117t218.5 43q184 0 297 -104l-37 -41q-55 51 -117.5 72.5t-150.5 21.5q-102 0 -192.5 -40.5t-158 -110.5t-121 -160.5t-87 -192.5t-51 -205t-17.5 -200q0 -420 364 -420q167 0 320 100l25 -43
q-171 -110 -365 -110zM885 1532q-22 0 -38 15t-16 38t16 39t38 16q23 0 39 -16t16 -39t-16 -38t-39 -15z" />
    <glyph glyph-name="cdotaccent" unicode="&#x10b;" horiz-adv-x="827" 
d="M408 -16q-76 0 -134.5 26.5t-94 73t-53 106t-17.5 129.5q0 177 66.5 341.5t187.5 270t264 105.5q126 0 219 -80l-29 -49q-84 76 -201 76q-119 0 -222.5 -97.5t-162.5 -250.5t-59 -316q0 -129 62.5 -206.5t185.5 -77.5q139 0 262 108l27 -43q-74 -61 -145 -88.5
t-156 -27.5zM678 1212q-22 0 -37.5 15.5t-15.5 38.5t15.5 39t37.5 16q23 0 39 -16t16 -39t-16 -38.5t-39 -15.5z" />
    <glyph glyph-name="Ccaron" unicode="&#x10c;" horiz-adv-x="1050" 
d="M555 -16q-408 0 -408 473q0 103 19 211t55 216t95.5 203.5t134 169.5t177 117t218.5 43q184 0 297 -104l-37 -41q-55 51 -117.5 72.5t-150.5 21.5q-102 0 -192.5 -40.5t-158 -110.5t-121 -160.5t-87 -192.5t-51 -205t-17.5 -200q0 -420 364 -420q167 0 320 100l25 -43
q-171 -110 -365 -110zM1174 1745l20 -41l-332 -215l-260 221l29 39l239 -184z" />
    <glyph glyph-name="ccaron" unicode="&#x10d;" horiz-adv-x="827" 
d="M408 -16q-76 0 -134.5 26.5t-94 73t-53 106t-17.5 129.5q0 177 66.5 341.5t187.5 270t264 105.5q126 0 219 -80l-29 -49q-84 76 -201 76q-119 0 -222.5 -97.5t-162.5 -250.5t-59 -316q0 -129 62.5 -206.5t185.5 -77.5q139 0 262 108l27 -43q-74 -61 -145 -88.5
t-156 -27.5zM938 1417l20 -41l-331 -215l-260 221l28 39l240 -184z" />
    <glyph glyph-name="Dcaron" unicode="&#x10e;" horiz-adv-x="1193" 
d="M84 0l297 1405h219q96 0 170 -11t145.5 -42.5t118 -83.5t75 -138.5t28.5 -203.5q0 -148 -27 -281t-87 -252.5t-148.5 -205.5t-220.5 -136.5t-294 -50.5h-276zM156 53h215q142 0 258.5 45.5t197 124.5t136 189t81 237.5t25.5 270.5q0 103 -22.5 179t-61 123.5t-97.5 76.5
t-125 40t-151 11h-180zM981 1745l20 -41l-331 -215l-260 221l28 39l240 -184z" />
    <glyph glyph-name="dcaron" unicode="&#x10f;" horiz-adv-x="1056" 
d="M762 244q-64 -121 -161 -189.5t-200 -68.5q-80 0 -138 27t-90.5 75.5t-47 107.5t-14.5 132q0 187 71.5 349.5t196 259.5t270.5 97q147 0 260 -82l115 543l57 -10l-254 -1200q-18 -85 -18 -135q0 -70 49 -127l-49 -37q-57 67 -57 164q0 50 10 94zM414 39q106 0 199.5 80.5
t168.5 230.5l115 549q-47 39 -103.5 61.5t-148.5 22.5q-127 0 -235.5 -90t-171 -240.5t-62.5 -322.5q0 -49 6 -89t22 -78.5t42 -65t68.5 -42.5t99.5 -16zM1128 1176l-24 36q116 77 119 168l-5 -1q-5 -1 -10 -1q-22 0 -36.5 16.5t-14.5 39.5q0 26 17.5 43.5t42.5 17.5
q32 0 50.5 -24t18.5 -68q0 -77 -41 -129.5t-117 -97.5z" />
    <glyph glyph-name="Dcroat" unicode="&#x110;" horiz-adv-x="1196" 
d="M115 692l8 47h119l141 666h219q96 0 170 -11t145.5 -42.5t118 -83.5t75 -138.5t28.5 -203.5q0 -148 -27 -281t-87 -252.5t-148.5 -205.5t-220.5 -136.5t-294 -50.5h-276l145 692h-116zM158 53h215q142 0 258.5 45.5t197 124.5t136 189t81 237.5t25.5 270.5
q0 103 -22.5 179t-61 123.5t-97.5 76.5t-125 40t-151 11h-180l-131 -611h451l-29 -47h-432z" />
    <glyph glyph-name="dcroat" unicode="&#x111;" horiz-adv-x="1056" 
d="M655 1184l11 45h301l57 266l57 -10l-55 -256h160l-10 -45h-158l-191 -899q-18 -85 -18 -135q0 -70 49 -127l-49 -37q-57 67 -57 164q0 50 10 94q-64 -121 -161 -189.5t-200 -68.5q-80 0 -138 27t-90.5 75.5t-47 107.5t-14.5 132q0 187 71.5 349.5t196 259.5t270.5 97
q147 0 260 -82l49 232h-303zM414 39q106 0 199.5 80.5t168.5 230.5l115 549q-47 39 -103.5 61.5t-148.5 22.5q-127 0 -235.5 -90t-171 -240.5t-62.5 -322.5q0 -49 6 -89t22 -78.5t42 -65t68.5 -42.5t99.5 -16z" />
    <glyph glyph-name="Emacron" unicode="&#x112;" horiz-adv-x="956" 
d="M84 0l297 1405h692l-20 -55h-621l-125 -590h500l-12 -55h-500l-137 -650h657l-12 -55h-719zM449 1544l10 45h532l-10 -45h-532z" />
    <glyph glyph-name="emacron" unicode="&#x113;" horiz-adv-x="921" 
d="M379 492q-92 0 -186 8q-15 -80 -15 -156q0 -138 66.5 -223.5t201.5 -85.5q155 0 287 110l29 -41q-138 -120 -328 -120q-153 0 -237 99.5t-84 266.5q0 93 20 188t61.5 184.5t99 159.5t140.5 112t178 42q107 0 179.5 -59.5t72.5 -161.5q0 -323 -485 -323zM600 985
q-98 0 -181.5 -63.5t-135.5 -159.5t-80 -215q73 -6 178 -6q422 0 422 272q0 82 -56 127t-147 45zM395 1243l11 45h532l-10 -45h-533z" />
    <glyph glyph-name="Ebreve" unicode="&#x114;" horiz-adv-x="956" 
d="M84 0l297 1405h692l-20 -55h-621l-125 -590h500l-12 -55h-500l-137 -650h657l-12 -55h-719zM700 1489q-46 0 -87.5 18t-72.5 48.5t-52 58.5t-37 59l30 33q99 -150 234 -150q78 0 157 47.5t134 104.5l22 -37q-64 -66 -152.5 -124t-175.5 -58z" />
    <glyph glyph-name="ebreve" unicode="&#x115;" horiz-adv-x="921" 
d="M379 492q-92 0 -186 8q-15 -80 -15 -156q0 -138 66.5 -223.5t201.5 -85.5q155 0 287 110l29 -41q-138 -120 -328 -120q-153 0 -237 99.5t-84 266.5q0 93 20 188t61.5 184.5t99 159.5t140.5 112t178 42q107 0 179.5 -59.5t72.5 -161.5q0 -323 -485 -323zM600 985
q-98 0 -181.5 -63.5t-135.5 -159.5t-80 -215q73 -6 178 -6q422 0 422 272q0 82 -56 127t-147 45zM631 1161q-46 0 -87.5 18.5t-72.5 48.5t-52.5 58.5t-37.5 59.5l31 32q98 -149 233 -149q78 0 157.5 47.5t133.5 103.5l22 -37q-38 -39 -81 -75t-114 -71.5t-132 -35.5z" />
    <glyph glyph-name="Edotaccent" unicode="&#x116;" horiz-adv-x="956" 
d="M84 0l297 1405h692l-20 -55h-621l-125 -590h500l-12 -55h-500l-137 -650h657l-12 -55h-719zM727 1532q-22 0 -37.5 15t-15.5 38t15.5 39t37.5 16q23 0 39 -16t16 -39t-16 -38t-39 -15z" />
    <glyph glyph-name="edotaccent" unicode="&#x117;" horiz-adv-x="921" 
d="M379 492q-92 0 -186 8q-15 -80 -15 -156q0 -138 66.5 -223.5t201.5 -85.5q155 0 287 110l29 -41q-138 -120 -328 -120q-153 0 -237 99.5t-84 266.5q0 93 20 188t61.5 184.5t99 159.5t140.5 112t178 42q107 0 179.5 -59.5t72.5 -161.5q0 -323 -485 -323zM600 985
q-98 0 -181.5 -63.5t-135.5 -159.5t-80 -215q73 -6 178 -6q422 0 422 272q0 82 -56 127t-147 45zM655 1212q-22 0 -37.5 15.5t-15.5 38.5t15.5 39t37.5 16q23 0 39.5 -16t16.5 -39t-16.5 -38.5t-39.5 -15.5z" />
    <glyph glyph-name="Eogonek" unicode="&#x118;" horiz-adv-x="956" 
d="M84 0l297 1405h692l-20 -55h-621l-125 -590h500l-12 -55h-500l-137 -650h657l-12 -55q-207 -138 -207 -264q0 -92 104 -92q58 0 123 30l11 -39q-65 -38 -146 -38q-69 0 -107 36t-38 93q0 142 190 274h-649z" />
    <glyph glyph-name="eogonek" unicode="&#x119;" horiz-adv-x="921" 
d="M379 492q-92 0 -186 8q-15 -80 -15 -156q0 -138 66.5 -223.5t201.5 -85.5q155 0 287 110l29 -41q-51 -42 -92 -64t-121 -48q-20 -7 -53 -30.5t-67.5 -57.5t-59.5 -80t-25 -88q0 -92 105 -92q57 0 122 30l11 -39q-65 -38 -146 -38q-69 0 -107 36t-38 93q0 137 168 258h-25
q-153 0 -237 99.5t-84 266.5q0 93 20 188t61.5 184.5t99 159.5t140.5 112t178 42q107 0 179.5 -59.5t72.5 -161.5q0 -323 -485 -323zM600 985q-98 0 -181.5 -63.5t-135.5 -159.5t-80 -215q73 -6 178 -6q422 0 422 272q0 82 -56 127t-147 45z" />
    <glyph glyph-name="Ecaron" unicode="&#x11a;" horiz-adv-x="956" 
d="M84 0l297 1405h692l-20 -55h-621l-125 -590h500l-12 -55h-500l-137 -650h657l-12 -55h-719zM1018 1745l20 -41l-331 -215l-261 221l29 39l240 -184z" />
    <glyph glyph-name="ecaron" unicode="&#x11b;" horiz-adv-x="921" 
d="M379 492q-92 0 -186 8q-15 -80 -15 -156q0 -138 66.5 -223.5t201.5 -85.5q155 0 287 110l29 -41q-138 -120 -328 -120q-153 0 -237 99.5t-84 266.5q0 93 20 188t61.5 184.5t99 159.5t140.5 112t178 42q107 0 179.5 -59.5t72.5 -161.5q0 -323 -485 -323zM600 985
q-98 0 -181.5 -63.5t-135.5 -159.5t-80 -215q73 -6 178 -6q422 0 422 272q0 82 -56 127t-147 45zM934 1417l20 -41l-331 -215l-261 221l29 39l240 -184z" />
    <glyph glyph-name="Gcircumflex" unicode="&#x11c;" horiz-adv-x="1208" 
d="M580 -16q-119 0 -205.5 37.5t-135 104.5t-70.5 148.5t-22 180.5q0 100 19 207.5t56 215.5t97 204.5t135.5 171.5t177.5 119t218 44q193 0 321 -112l-34 -41q-117 100 -297 100q-103 0 -194.5 -41.5t-158.5 -112.5t-120.5 -162.5t-86.5 -194.5t-50 -205.5t-17 -198.5
q0 -69 11.5 -128t39 -112.5t70.5 -90.5t110 -59t152 -22q162 0 303 74l113 530h-361v53h432l-131 -618q-176 -92 -372 -92zM625 1518l-23 41l332 215l262 -224l-31 -34l-237 182z" />
    <glyph glyph-name="gcircumflex" unicode="&#x11d;" horiz-adv-x="1030" 
d="M657 1032q153 0 301 -74q-14 -53 -38 -163l-170 -793q-46 -217 -151 -312.5t-306 -95.5q-147 0 -313 78l22 52q143 -76 297 -76q173 0 262 81.5t127 256.5l55 254q-64 -122 -158.5 -188t-199.5 -66q-80 0 -138 27t-90.5 76t-47.5 108t-15 131q0 190 72.5 351t202.5 257
t288 96zM766 350l123 578q-120 53 -240 53q-136 0 -249 -89t-176.5 -238.5t-63.5 -323.5q0 -62 10 -110.5t35 -92t73.5 -67t118.5 -23.5q107 0 200.5 80.5t168.5 232.5zM446 1190l-22 41l332 215l262 -223l-31 -35l-237 182z" />
    <glyph glyph-name="Gbreve" unicode="&#x11e;" horiz-adv-x="1208" 
d="M580 -16q-119 0 -205.5 37.5t-135 104.5t-70.5 148.5t-22 180.5q0 100 19 207.5t56 215.5t97 204.5t135.5 171.5t177.5 119t218 44q193 0 321 -112l-34 -41q-117 100 -297 100q-103 0 -194.5 -41.5t-158.5 -112.5t-120.5 -162.5t-86.5 -194.5t-50 -205.5t-17 -198.5
q0 -69 11.5 -128t39 -112.5t70.5 -90.5t110 -59t152 -22q162 0 303 74l113 530h-361v53h432l-131 -618q-176 -92 -372 -92zM879 1489q-60 0 -114 33.5t-83.5 70.5t-52.5 80l30 33q99 -150 234 -150q78 0 157 47.5t134 104.5l22 -37q-38 -39 -81 -75t-114 -71.5t-132 -35.5z
" />
    <glyph glyph-name="gbreve" unicode="&#x11f;" horiz-adv-x="1030" 
d="M657 1032q153 0 301 -74q-14 -53 -38 -163l-170 -793q-46 -217 -151 -312.5t-306 -95.5q-147 0 -313 78l22 52q143 -76 297 -76q173 0 262 81.5t127 256.5l55 254q-64 -122 -158.5 -188t-199.5 -66q-80 0 -138 27t-90.5 76t-47.5 108t-15 131q0 190 72.5 351t202.5 257
t288 96zM766 350l123 578q-120 53 -240 53q-136 0 -249 -89t-176.5 -238.5t-63.5 -323.5q0 -62 10 -110.5t35 -92t73.5 -67t118.5 -23.5q107 0 200.5 80.5t168.5 232.5zM702 1161q-60 0 -113.5 33.5t-83 71t-52.5 80.5l30 32q98 -149 234 -149q78 0 157.5 47.5t133.5 103.5
l22 -37q-64 -66 -152.5 -124t-175.5 -58z" />
    <glyph glyph-name="Gdotaccent" unicode="&#x120;" horiz-adv-x="1208" 
d="M580 -16q-119 0 -205.5 37.5t-135 104.5t-70.5 148.5t-22 180.5q0 100 19 207.5t56 215.5t97 204.5t135.5 171.5t177.5 119t218 44q193 0 321 -112l-34 -41q-117 100 -297 100q-103 0 -194.5 -41.5t-158.5 -112.5t-120.5 -162.5t-86.5 -194.5t-50 -205.5t-17 -198.5
q0 -69 11.5 -128t39 -112.5t70.5 -90.5t110 -59t152 -22q162 0 303 74l113 530h-361v53h432l-131 -618q-176 -92 -372 -92zM903 1532q-22 0 -37.5 15t-15.5 38t15.5 39t37.5 16q23 0 39 -16t16 -39t-16 -38t-39 -15z" />
    <glyph glyph-name="gdotaccent" unicode="&#x121;" horiz-adv-x="1030" 
d="M657 1032q153 0 301 -74q-14 -53 -38 -163l-170 -793q-46 -217 -151 -312.5t-306 -95.5q-147 0 -313 78l22 52q143 -76 297 -76q173 0 262 81.5t127 256.5l55 254q-64 -122 -158.5 -188t-199.5 -66q-80 0 -138 27t-90.5 76t-47.5 108t-15 131q0 190 72.5 351t202.5 257
t288 96zM766 350l123 578q-120 53 -240 53q-136 0 -249 -89t-176.5 -238.5t-63.5 -323.5q0 -62 10 -110.5t35 -92t73.5 -67t118.5 -23.5q107 0 200.5 80.5t168.5 232.5zM733 1212q-22 0 -37.5 15.5t-15.5 38.5t15.5 39t37.5 16q23 0 39 -16t16 -39t-16 -38.5t-39 -15.5z" />
    <glyph glyph-name="uni0122" unicode="&#x122;" horiz-adv-x="1208" 
d="M580 -16q-119 0 -205.5 37.5t-135 104.5t-70.5 148.5t-22 180.5q0 100 19 207.5t56 215.5t97 204.5t135.5 171.5t177.5 119t218 44q193 0 321 -112l-34 -41q-117 100 -297 100q-103 0 -194.5 -41.5t-158.5 -112.5t-120.5 -162.5t-86.5 -194.5t-50 -205.5t-17 -198.5
q0 -69 11.5 -128t39 -112.5t70.5 -90.5t110 -59t152 -22q162 0 303 74l113 530h-361v53h432l-131 -618q-176 -92 -372 -92zM483 -362l-26 34q49 40 75 75.5t27 80.5q-8 -2 -14 -2q-22 0 -36.5 16t-14.5 39q0 26 17 44t42 18q33 0 51.5 -24.5t18.5 -68.5q0 -119 -140 -212z
" />
    <glyph glyph-name="uni0123" unicode="&#x123;" horiz-adv-x="1030" 
d="M657 1032q153 0 301 -74q-14 -53 -38 -163l-170 -793q-46 -217 -151 -312.5t-306 -95.5q-147 0 -313 78l22 52q143 -76 297 -76q173 0 262 81.5t127 256.5l55 254q-64 -122 -158.5 -188t-199.5 -66q-80 0 -138 27t-90.5 76t-47.5 108t-15 131q0 190 72.5 351t202.5 257
t288 96zM766 350l123 578q-120 53 -240 53q-136 0 -249 -89t-176.5 -238.5t-63.5 -323.5q0 -62 10 -110.5t35 -92t73.5 -67t118.5 -23.5q107 0 200.5 80.5t168.5 232.5zM836 1614l24 -37q-116 -77 -119 -168l5 1q5 1 10 1q22 0 36.5 -16t14.5 -39q0 -26 -17 -44t-42 -18
q-33 0 -51.5 24t-18.5 68q0 77 41 130t117 98z" />
    <glyph glyph-name="Hcircumflex" unicode="&#x124;" horiz-adv-x="1189" 
d="M84 0l297 1405h61l-133 -631h695l135 631h63l-297 -1405h-63l151 721h-696l-152 -721h-61zM553 1518l-23 41l332 215l262 -224l-30 -34l-238 182z" />
    <glyph glyph-name="hcircumflex" unicode="&#x125;" horiz-adv-x="1024" 
d="M399 1202l-59 -278q-12 -59 -39 -170q38 52 80.5 97.5t95 88.5t112.5 68.5t118 25.5q96 0 147 -52t51 -140q0 -36 -12 -88l-158 -754h-61l155 737q15 73 15 101q0 68 -39.5 105.5t-116.5 37.5q-172 0 -403 -309l-142 -672h-59l256 1208q27 135 27 201q0 21 -9 66l62 20
q8 -46 8 -82q0 -66 -29 -211zM164 1495l-23 41l332 215l262 -223l-30 -35l-238 182z" />
    <glyph glyph-name="Hbar" unicode="&#x126;" horiz-adv-x="1189" 
d="M137 1073l10 49h175l59 283h61l-59 -283h694l62 283h63l-59 -283h172l-10 -49h-172l-228 -1073h-63l151 721h-696l-152 -721h-61l227 1073h-174zM309 774h695l63 299h-694z" />
    <glyph glyph-name="hbar" unicode="&#x127;" horiz-adv-x="1024" 
d="M186 1180l11 45h145q25 122 25 184q0 21 -9 66l62 20q8 -46 8 -82q0 -69 -25 -188h347l-11 -45h-346l-53 -256q-12 -59 -39 -170q38 52 80.5 97.5t95 88.5t112.5 68.5t118 25.5q96 0 147 -52t51 -140q0 -36 -12 -88l-158 -754h-61l155 737q15 73 15 101q0 68 -39.5 105.5
t-116.5 37.5q-172 0 -403 -309l-142 -672h-59l250 1180h-148z" />
    <glyph glyph-name="Itilde" unicode="&#x128;" horiz-adv-x="430" 
d="M84 0l297 1405h61l-297 -1405h-61zM315 1608q-75 0 -135 -60l-16 35q80 80 176 80q57 0 121.5 -37t113.5 -37q76 0 136 60l16 -35q-72 -80 -174 -80q-55 0 -120 37t-118 37z" />
    <glyph glyph-name="itilde" unicode="&#x129;" horiz-adv-x="409" 
d="M82 0l217 1024l66 10l-220 -1034h-63zM248 1280q-76 0 -135 -59l-17 34q80 80 176 80q57 0 122 -36.5t114 -36.5q76 0 135 59l16 -35q-72 -80 -174 -80q-55 0 -119.5 37t-117.5 37z" />
    <glyph glyph-name="Imacron" unicode="&#x12a;" horiz-adv-x="430" 
d="M84 0l297 1405h61l-297 -1405h-61zM172 1544l10 45h533l-10 -45h-533z" />
    <glyph glyph-name="imacron" unicode="&#x12b;" horiz-adv-x="409" 
d="M82 0l217 1024l66 10l-220 -1034h-63zM123 1243l10 45h533l-11 -45h-532z" />
    <glyph glyph-name="Ibreve" unicode="&#x12c;" horiz-adv-x="430" 
d="M84 0l297 1405h61l-297 -1405h-61zM426 1489q-60 0 -114 33.5t-83.5 70.5t-52.5 80l31 33q26 -39 50.5 -67t74.5 -55.5t108 -27.5q78 0 157 47.5t134 104.5l23 -37q-64 -66 -152.5 -124t-175.5 -58z" />
    <glyph glyph-name="ibreve" unicode="&#x12d;" horiz-adv-x="409" 
d="M82 0l217 1024l66 10l-220 -1034h-63zM354 1161q-46 0 -87.5 18.5t-72.5 48.5t-52.5 58.5t-37.5 59.5l31 32q98 -149 234 -149q78 0 156.5 47t133.5 104l23 -37q-64 -66 -152.5 -124t-175.5 -58z" />
    <glyph glyph-name="Iogonek" unicode="&#x12e;" horiz-adv-x="430" 
d="M39 -403q-69 0 -107 36t-38 93q0 142 190 274l297 1405h61l-297 -1405q-198 -143 -198 -264q0 -92 104 -92q58 0 123 30l10 -39q-65 -38 -145 -38z" />
    <glyph glyph-name="iogonek" unicode="&#x12f;" horiz-adv-x="409" 
d="M39 -403q-69 0 -107 36t-38 93q0 147 190 274l215 1024l66 10l-220 -1034q-96 -72 -147 -134t-51 -130q0 -92 104 -92q58 0 123 30l10 -39q-65 -38 -145 -38zM389 1294q-22 0 -37.5 15.5t-15.5 38.5t15.5 39t37.5 16q23 0 39 -16t16 -39t-16 -38.5t-39 -15.5z" />
    <glyph glyph-name="Idotaccent" unicode="&#x130;" horiz-adv-x="430" 
d="M84 0l297 1405h61l-297 -1405h-61zM446 1532q-22 0 -37.5 15t-15.5 38t15.5 39t37.5 16q23 0 39.5 -16t16.5 -39t-16 -38t-40 -15z" />
    <glyph glyph-name="dotlessi" unicode="&#x131;" horiz-adv-x="409" 
d="M82 0l217 1024l66 10l-220 -1034h-63z" />
    <glyph glyph-name="Jcircumflex" unicode="&#x134;" horiz-adv-x="477" 
d="M-127 -252l-25 43q160 58 226 146q32 42 55.5 116t60.5 246l236 1106h63l-247 -1169q-30 -143 -52.5 -209t-64.5 -119q-83 -103 -252 -160zM197 1518l-23 41l332 215l262 -224l-31 -34l-237 182z" />
    <glyph glyph-name="jcircumflex" unicode="&#x135;" horiz-adv-x="405" 
d="M-113 -350l-22 41q104 44 148.5 114t76.5 224l211 993l66 12l-215 -1009q-17 -79 -32.5 -128t-44.5 -98.5t-74.5 -84.5t-113.5 -64zM78 1190l-23 41l332 215l262 -223l-31 -35l-237 182z" />
    <glyph glyph-name="uni0136" unicode="&#x136;" horiz-adv-x="985" 
d="M846 14l-60 -26q-183 297 -458 753l753 680l45 -39l-725 -645zM84 0l297 1405h63l-297 -1405h-63zM391 -362l-26 34q49 40 75 75.5t27 80.5q-8 -2 -14 -2q-22 0 -37 16t-15 39q0 26 17.5 44t42.5 18q32 0 50.5 -24.5t18.5 -68.5q0 -120 -139 -212z" />
    <glyph glyph-name="uni0137" unicode="&#x137;" horiz-adv-x="831" 
d="M698 -16l-411 583l569 469l39 -35l-535 -438l394 -559zM399 1202l-256 -1202h-59l256 1208q27 135 27 201q0 21 -9 66l62 20q8 -46 8 -82q0 -66 -29 -211zM336 -362l-27 34q49 40 75.5 75.5t27.5 80.5l-5 -1q-5 -1 -10 -1q-22 0 -36.5 16t-14.5 39q0 26 17.5 44t42.5 18
q32 0 50.5 -24.5t18.5 -68.5q0 -120 -139 -212z" />
    <glyph glyph-name="kgreenlandic" unicode="&#x138;" horiz-adv-x="831" 
d="M698 -16l-411 583l569 469l39 -35l-535 -438l394 -559zM305 760l-162 -760h-59l162 766q26 130 26 201q0 25 -8 65l62 21q8 -46 8 -82q0 -66 -29 -211z" />
    <glyph glyph-name="Lacute" unicode="&#x139;" horiz-adv-x="845" 
d="M84 0l297 1405h61l-286 -1352h596l-21 -53h-647zM754 1704l-361 -209l-22 41l346 225z" />
    <glyph glyph-name="lacute" unicode="&#x13a;" horiz-adv-x="446" 
d="M399 1202l-215 -1007q-16 -74 -16 -107q0 -28 12 -39.5t41 -11.5q21 0 45 8l4 -45q-38 -12 -71 -12q-93 0 -93 90q0 34 17 117l217 1013q27 135 27 201q0 21 -9 66l62 20q8 -46 8 -82q0 -66 -29 -211zM727 1739l-360 -209l-23 41l346 225z" />
    <glyph glyph-name="uni013B" unicode="&#x13b;" horiz-adv-x="845" 
d="M84 0l297 1405h61l-286 -1352h596l-21 -53h-647zM352 -362l-26 34q49 40 75 75.5t27 80.5q-8 -2 -14 -2q-22 0 -37 16t-15 39q0 26 17.5 44t42.5 18q33 0 51.5 -24.5t18.5 -68.5q0 -119 -140 -212z" />
    <glyph glyph-name="uni013C" unicode="&#x13c;" horiz-adv-x="446" 
d="M399 1202l-215 -1007q-16 -74 -16 -107q0 -28 12 -39.5t41 -11.5q21 0 45 8l4 -45q-38 -12 -71 -12q-93 0 -93 90q0 34 17 117l217 1013q27 135 27 201q0 21 -9 66l62 20q8 -46 8 -82q0 -66 -29 -211zM94 -362l-26 34q49 40 75 75.5t27 80.5l-4 -1q-5 -1 -10 -1
q-22 0 -37 16t-15 39q0 26 17.5 44t42.5 18q32 0 50.5 -24.5t18.5 -68.5q0 -120 -139 -212z" />
    <glyph glyph-name="Lcaron" unicode="&#x13d;" horiz-adv-x="845" 
d="M84 0l297 1405h61l-286 -1352h596l-21 -53h-647zM647 1085l-24 37q115 76 118 168l-5 -1q-4 -1 -9 -1q-22 0 -36.5 16t-14.5 39q0 26 17 44t42 18q33 0 51.5 -24t18.5 -68q0 -77 -41 -130t-117 -98z" />
    <glyph glyph-name="lcaron" unicode="&#x13e;" horiz-adv-x="446" 
d="M399 1202l-215 -1007q-16 -74 -16 -107q0 -28 12 -39.5t41 -11.5q21 0 45 8l4 -45q-38 -12 -71 -12q-93 0 -93 90q0 34 17 117l217 1013q27 135 27 201q0 21 -9 66l62 20q8 -46 8 -82q0 -66 -29 -211zM512 1176l-25 36q116 77 119 168l-4 -1q-5 -1 -10 -1
q-22 0 -36.5 16.5t-14.5 39.5q0 26 17 43.5t42 17.5q33 0 51.5 -24t18.5 -68q0 -77 -41 -129.5t-117 -97.5z" />
    <glyph glyph-name="Ldot" unicode="&#x13f;" horiz-adv-x="845" 
d="M84 0l297 1405h61l-286 -1352h596l-21 -53h-647zM678 664q-22 0 -37.5 15t-15.5 38t15.5 39t37.5 16q23 0 39 -16t16 -39t-16 -38t-39 -15z" />
    <glyph glyph-name="ldot" unicode="&#x140;" horiz-adv-x="493" 
d="M399 1202l-215 -1007q-16 -74 -16 -107q0 -28 12 -39.5t41 -11.5q21 0 45 8l4 -45q-38 -12 -71 -12q-93 0 -93 90q0 34 17 117l217 1013q27 135 27 201q0 21 -9 66l62 20q8 -46 8 -82q0 -66 -29 -211zM504 618q-22 0 -37.5 15.5t-15.5 38.5t15.5 39t37.5 16q23 0 39 -16
t16 -39t-16 -38.5t-39 -15.5z" />
    <glyph glyph-name="Lslash" unicode="&#x141;" horiz-adv-x="854" 
d="M70 608l10 51l106 33l152 713h61l-147 -694l479 145l-10 -53l-481 -144l-127 -606h596l-21 -53h-647l135 639z" />
    <glyph glyph-name="lslash" unicode="&#x142;" horiz-adv-x="466" 
d="M369 1202l-101 -469l215 74l-10 -53l-217 -76l-102 -483q-17 -79 -17 -107t12 -39.5t41 -11.5q22 0 46 8l4 -45q-38 -12 -72 -12q-52 0 -72 24.5t-20 65.5q0 39 16 117l98 460l-104 -34l10 53l107 37l106 497q27 135 27 201q0 26 -8 66l61 20q8 -46 8 -82q0 -71 -28 -211
z" />
    <glyph glyph-name="Nacute" unicode="&#x143;" horiz-adv-x="1214" 
d="M84 0l297 1405h76l360 -1106l72 -227q0 3 8.5 50.5t22 116t24.5 117.5l219 1049h62l-297 -1405h-70l-364 1094q-50 148 -72 239l-277 -1333h-61zM1036 1704l-360 -209l-23 41l346 225z" />
    <glyph glyph-name="nacute" unicode="&#x144;" horiz-adv-x="1024" 
d="M143 0h-61l164 776q26 126 26 162q0 37 -10 68l60 24q12 -38 12 -78q0 -38 -19 -133l-14 -63q52 71 110 129.5t139 103.5t157 45q96 0 147 -52t51 -140q0 -20 -12 -90l-158 -752h-61l155 737q15 73 15 101q0 143 -156 143q-53 0 -111.5 -29t-112.5 -78.5t-97 -98.5
t-84 -105zM852 1376l-360 -209l-23 41l346 226z" />
    <glyph glyph-name="uni0145" unicode="&#x145;" horiz-adv-x="1214" 
d="M84 0l297 1405h76l360 -1106l72 -227q0 3 8.5 50.5t22 116t24.5 117.5l219 1049h62l-297 -1405h-70l-364 1094q-50 148 -72 239l-277 -1333h-61zM451 -362l-27 34q49 40 75 75.5t27 80.5q-8 -2 -14 -2q-22 0 -36.5 16t-14.5 39q0 26 17 44t42 18q33 0 51.5 -24.5
t18.5 -68.5q0 -120 -139 -212z" />
    <glyph glyph-name="uni0146" unicode="&#x146;" horiz-adv-x="1024" 
d="M143 0h-61l164 776q26 126 26 162q0 37 -10 68l60 24q12 -38 12 -78q0 -38 -19 -133l-14 -63q52 71 110 129.5t139 103.5t157 45q96 0 147 -52t51 -140q0 -20 -12 -90l-158 -752h-61l155 737q15 73 15 101q0 143 -156 143q-53 0 -111.5 -29t-112.5 -78.5t-97 -98.5
t-84 -105zM352 -362l-26 34q49 40 75 75.5t27 80.5l-4 -1q-5 -1 -10 -1q-22 0 -37 16t-15 39q0 26 17.5 44t42.5 18q33 0 51.5 -24.5t18.5 -68.5q0 -119 -140 -212z" />
    <glyph glyph-name="Ncaron" unicode="&#x147;" horiz-adv-x="1214" 
d="M84 0l297 1405h76l360 -1106l72 -227q0 3 8.5 50.5t22 116t24.5 117.5l219 1049h62l-297 -1405h-70l-364 1094q-50 148 -72 239l-277 -1333h-61zM1130 1745l21 -41l-332 -215l-260 221l29 39l239 -184z" />
    <glyph glyph-name="ncaron" unicode="&#x148;" horiz-adv-x="1024" 
d="M143 0h-61l164 776q26 126 26 162q0 37 -10 68l60 24q12 -38 12 -78q0 -38 -19 -133l-14 -63q52 71 110 129.5t139 103.5t157 45q96 0 147 -52t51 -140q0 -20 -12 -90l-158 -752h-61l155 737q15 73 15 101q0 143 -156 143q-53 0 -111.5 -29t-112.5 -78.5t-97 -98.5
t-84 -105zM946 1417l21 -41l-332 -215l-260 221l28 39l240 -184z" />
    <glyph glyph-name="napostrophe" unicode="&#x149;" horiz-adv-x="1024" 
d="M143 0h-61l164 776q26 126 26 162q0 37 -10 68l60 24q12 -38 12 -78q0 -38 -19 -133l-14 -63q52 71 110 129.5t139 103.5t157 45q96 0 147 -52t51 -140q0 -20 -12 -90l-158 -752h-61l155 737q15 73 15 101q0 143 -156 143q-53 0 -111.5 -29t-112.5 -78.5t-97 -98.5
t-84 -105zM115 1030l-25 37q116 77 119 168l-5 -1q-4 -1 -9 -1q-22 0 -37 16t-15 39q0 26 17.5 44t42.5 18q32 0 50.5 -24.5t18.5 -68.5q0 -77 -40.5 -129.5t-116.5 -97.5z" />
    <glyph glyph-name="Eng" unicode="&#x14a;" horiz-adv-x="1214" 
d="M84 0l297 1405h76l360 -1106l72 -227q0 3 8.5 50.5t22 116t24.5 117.5l219 1049h62l-305 -1434q-14 -65 -25.5 -105.5t-31 -85t-45.5 -74t-66 -58t-95 -51.5l-22 41q104 44 148.5 114t76.5 223q3 11 -2 25l-364 1094q-50 148 -72 239l-277 -1333h-61z" />
    <glyph glyph-name="eng" unicode="&#x14b;" horiz-adv-x="1024" 
d="M143 0h-61l164 776q26 126 26 162q0 37 -10 68l60 24q12 -38 12 -78q0 -38 -19 -133l-14 -63q52 71 110 129.5t139 103.5t157 45q96 0 147 -52t51 -140q0 -20 -12 -90l-164 -781q-13 -63 -24.5 -103.5t-31.5 -85t-46 -74.5t-66.5 -59t-95.5 -52l-23 41q104 44 149 114
t77 223l161 762q15 73 15 101q0 143 -156 143q-53 0 -111.5 -29t-112.5 -78.5t-97 -98.5t-84 -105z" />
    <glyph glyph-name="Omacron" unicode="&#x14c;" horiz-adv-x="1277" 
d="M545 31q92 0 174 34.5t142.5 92.5t110.5 136t83.5 163.5t56.5 177t33 174.5t10 158q0 401 -332 401q-107 0 -199.5 -46t-157 -123.5t-114.5 -173.5t-79 -203t-43.5 -205t-14.5 -185q0 -401 330 -401zM532 -16q-107 0 -184 37t-119 103.5t-60.5 144.5t-18.5 175
q0 128 23 259t76.5 261t130.5 230t195 162.5t261 62.5q107 0 184.5 -37.5t120 -104.5t61.5 -146t19 -175q0 -90 -12 -182.5t-38 -188.5t-64 -183t-95 -164t-125.5 -133t-159.5 -88.5t-195 -32.5zM557 1544l10 45h533l-10 -45h-533z" />
    <glyph glyph-name="omacron" unicode="&#x14d;" horiz-adv-x="1009" 
d="M414 33q76 0 142.5 30t114 81t85 117t60.5 140.5t34.5 148t11.5 142.5q0 293 -252 293q-90 0 -166 -41.5t-127 -109t-87.5 -154.5t-53 -177t-16.5 -177q0 -293 254 -293zM401 -18q-82 0 -142.5 28.5t-95 79t-51 113t-16.5 137.5q0 90 18.5 183.5t60.5 186.5t102 165.5
t150.5 117.5t197.5 45q81 0 141 -28.5t94.5 -79.5t51 -112.5t16.5 -135.5q0 -94 -19.5 -189.5t-61.5 -188t-102 -163.5t-149.5 -115t-194.5 -44zM403 1243l11 45h532l-10 -45h-533z" />
    <glyph glyph-name="Obreve" unicode="&#x14e;" horiz-adv-x="1277" 
d="M545 31q92 0 174 34.5t142.5 92.5t110.5 136t83.5 163.5t56.5 177t33 174.5t10 158q0 401 -332 401q-107 0 -199.5 -46t-157 -123.5t-114.5 -173.5t-79 -203t-43.5 -205t-14.5 -185q0 -401 330 -401zM532 -16q-107 0 -184 37t-119 103.5t-60.5 144.5t-18.5 175
q0 128 23 259t76.5 261t130.5 230t195 162.5t261 62.5q107 0 184.5 -37.5t120 -104.5t61.5 -146t19 -175q0 -90 -12 -182.5t-38 -188.5t-64 -183t-95 -164t-125.5 -133t-159.5 -88.5t-195 -32.5zM817 1489q-60 0 -114 33.5t-83.5 70.5t-52.5 80l31 33q26 -39 50.5 -67
t74.5 -55.5t108 -27.5q78 0 157 47.5t134 104.5l23 -37q-64 -66 -152.5 -124t-175.5 -58z" />
    <glyph glyph-name="obreve" unicode="&#x14f;" horiz-adv-x="1009" 
d="M414 33q76 0 142.5 30t114 81t85 117t60.5 140.5t34.5 148t11.5 142.5q0 293 -252 293q-90 0 -166 -41.5t-127 -109t-87.5 -154.5t-53 -177t-16.5 -177q0 -293 254 -293zM401 -18q-82 0 -142.5 28.5t-95 79t-51 113t-16.5 137.5q0 90 18.5 183.5t60.5 186.5t102 165.5
t150.5 117.5t197.5 45q81 0 141 -28.5t94.5 -79.5t51 -112.5t16.5 -135.5q0 -94 -19.5 -189.5t-61.5 -188t-102 -163.5t-149.5 -115t-194.5 -44zM631 1161q-46 0 -87.5 18.5t-72.5 48.5t-52.5 58.5t-37.5 59.5l31 32q98 -149 233 -149q78 0 157.5 47.5t133.5 103.5l22 -37
q-38 -39 -81 -75t-114 -71.5t-132 -35.5z" />
    <glyph glyph-name="Ohungarumlaut" unicode="&#x150;" horiz-adv-x="1277" 
d="M545 31q92 0 174 34.5t142.5 92.5t110.5 136t83.5 163.5t56.5 177t33 174.5t10 158q0 401 -332 401q-107 0 -199.5 -46t-157 -123.5t-114.5 -173.5t-79 -203t-43.5 -205t-14.5 -185q0 -401 330 -401zM532 -16q-107 0 -184 37t-119 103.5t-60.5 144.5t-18.5 175
q0 128 23 259t76.5 261t130.5 230t195 162.5t261 62.5q107 0 184.5 -37.5t120 -104.5t61.5 -146t19 -175q0 -90 -12 -182.5t-38 -188.5t-64 -183t-95 -164t-125.5 -133t-159.5 -88.5t-195 -32.5zM934 1499l-35 27l311 303l54 -39zM692 1495l-37 23l279 313l59 -31z" />
    <glyph glyph-name="ohungarumlaut" unicode="&#x151;" horiz-adv-x="1009" 
d="M414 33q76 0 142.5 30t114 81t85 117t60.5 140.5t34.5 148t11.5 142.5q0 293 -252 293q-90 0 -166 -41.5t-127 -109t-87.5 -154.5t-53 -177t-16.5 -177q0 -293 254 -293zM401 -18q-82 0 -142.5 28.5t-95 79t-51 113t-16.5 137.5q0 90 18.5 183.5t60.5 186.5t102 165.5
t150.5 117.5t197.5 45q81 0 141 -28.5t94.5 -79.5t51 -112.5t16.5 -135.5q0 -94 -19.5 -189.5t-61.5 -188t-102 -163.5t-149.5 -115t-194.5 -44zM750 1171l-35 27l311 303l53 -39zM508 1167l-37 23l279 313l59 -30z" />
    <glyph glyph-name="OE" unicode="&#x152;" horiz-adv-x="1669" 
d="M899 1405h887l-21 -53h-608l-127 -592h488l-11 -55h-487l-137 -650h643l-10 -55h-934q-214 0 -323 125.5t-109 325.5q0 264 94 481.5t266.5 345t388.5 127.5zM594 51q172 0 223 4l275 1293q-66 4 -197 4q-145 0 -270.5 -66t-216 -183.5t-142 -289t-51.5 -373.5
q0 -178 95.5 -283.5t283.5 -105.5z" />
    <glyph glyph-name="oe" unicode="&#x153;" horiz-adv-x="1613" 
d="M393 -16q-80 0 -139 28t-92.5 78t-49.5 112t-16 136q0 91 18.5 184.5t59.5 186.5t100 165t147.5 117t194.5 45q79 0 135 -27t86.5 -77t45 -108t16.5 -132q57 146 162 239t246 93q104 0 176.5 -60t72.5 -159q0 -157 -116.5 -241.5t-358.5 -84.5q-96 0 -186 8
q-14 -74 -14 -155q0 -139 64.5 -223t199.5 -84q154 0 282 110l29 -41q-140 -121 -321 -121q-148 0 -224.5 96t-79.5 253q-61 -152 -173 -245t-265 -93zM406 33q76 0 142 30t114 81t85 116.5t59.5 140t34 147.5t11.5 142q0 295 -248 295q-89 0 -164 -41.5t-126 -109
t-87 -154.5t-52.5 -177t-16.5 -177q0 -293 248 -293zM1292 975q-97 0 -179 -63.5t-132.5 -159t-77.5 -213.5q77 -9 180 -9q203 0 307.5 65t104.5 206q0 83 -55.5 128.5t-147.5 45.5z" />
    <glyph glyph-name="Racute" unicode="&#x154;" horiz-adv-x="1005" 
d="M885 10l-60 -18q-76 200 -140 335.5t-134 225.5q-52 66 -88 82t-115 16h-65q-67 -325 -138 -651h-61l297 1405h250q61 0 115 -8t109 -28.5t94.5 -53.5t64 -87t24.5 -124q0 -221 -137 -335t-387 -116q108 -38 252 -352q65 -137 119 -291zM969 1092q0 258 -342 258h-195
l-139 -654h162q231 0 340 68q80 48 127 124.5t47 203.5zM877 1704l-361 -209l-22 41l346 225z" />
    <glyph glyph-name="racute" unicode="&#x155;" horiz-adv-x="643" 
d="M143 0h-61l164 776q26 126 26 162q0 37 -10 68l60 24q12 -38 12 -78q0 -38 -19 -133l-14 -69q27 46 52.5 82.5t61 76.5t71 67t81 44.5t92.5 17.5q36 0 64 -12l-27 -65q-24 12 -63 12q-31 0 -62 -11.5t-56 -27.5t-55 -46.5t-49.5 -53.5t-48 -64t-42.5 -62.5t-41 -64.5z
M700 1376l-360 -209l-23 41l347 226z" />
    <glyph glyph-name="uni0156" unicode="&#x156;" horiz-adv-x="1005" 
d="M885 10l-60 -18q-76 200 -140 335.5t-134 225.5q-52 66 -88 82t-115 16h-65q-67 -325 -138 -651h-61l297 1405h250q61 0 115 -8t109 -28.5t94.5 -53.5t64 -87t24.5 -124q0 -221 -137 -335t-387 -116q108 -38 252 -352q65 -137 119 -291zM969 1092q0 258 -342 258h-195
l-139 -654h162q231 0 340 68q80 48 127 124.5t47 203.5zM399 -362l-26 34q49 40 75 75.5t27 80.5q-8 -2 -14 -2q-22 0 -36.5 16t-14.5 39q0 26 17 44t42 18q33 0 51.5 -24.5t18.5 -68.5q0 -119 -140 -212z" />
    <glyph glyph-name="uni0157" unicode="&#x157;" horiz-adv-x="643" 
d="M143 0h-61l164 776q26 126 26 162q0 37 -10 68l60 24q12 -38 12 -78q0 -38 -19 -133l-14 -69q27 46 52.5 82.5t61 76.5t71 67t81 44.5t92.5 17.5q36 0 64 -12l-27 -65q-24 12 -63 12q-31 0 -62 -11.5t-56 -27.5t-55 -46.5t-49.5 -53.5t-48 -64t-42.5 -62.5t-41 -64.5z
M23 -362l-27 34q49 40 75 75.5t27 80.5l-4 -1q-5 -1 -10 -1q-22 0 -36.5 16t-14.5 39q0 26 17 44t42 18q33 0 51.5 -24.5t18.5 -68.5q0 -120 -139 -212z" />
    <glyph glyph-name="Rcaron" unicode="&#x158;" horiz-adv-x="1005" 
d="M885 10l-60 -18q-76 200 -140 335.5t-134 225.5q-52 66 -88 82t-115 16h-65q-67 -325 -138 -651h-61l297 1405h250q61 0 115 -8t109 -28.5t94.5 -53.5t64 -87t24.5 -124q0 -221 -137 -335t-387 -116q108 -38 252 -352q65 -137 119 -291zM969 1092q0 258 -342 258h-195
l-139 -654h162q231 0 340 68q80 48 127 124.5t47 203.5zM971 1745l20 -41l-332 -215l-260 221l29 39l240 -184z" />
    <glyph glyph-name="rcaron" unicode="&#x159;" horiz-adv-x="643" 
d="M143 0h-61l164 776q26 126 26 162q0 37 -10 68l60 24q12 -38 12 -78q0 -38 -19 -133l-14 -69q27 46 52.5 82.5t61 76.5t71 67t81 44.5t92.5 17.5q36 0 64 -12l-27 -65q-24 12 -63 12q-31 0 -62 -11.5t-56 -27.5t-55 -46.5t-49.5 -53.5t-48 -64t-42.5 -62.5t-41 -64.5z
M807 1417l20 -41l-331 -215l-260 221l28 39l240 -184z" />
    <glyph glyph-name="Sacute" unicode="&#x15a;" horiz-adv-x="1052" 
d="M1030 1272q-132 98 -303 98q-104 0 -192.5 -36.5t-146.5 -115t-58 -186.5q0 -86 47.5 -139.5t154.5 -99.5l132 -58q245 -105 245 -301q0 -106 -43 -193t-116.5 -142.5t-168 -86t-198.5 -30.5q-206 0 -360 110l32 51q132 -108 340 -108q84 0 163.5 26.5t143 75t102 123.5
t38.5 164q0 95 -55.5 155.5t-165.5 106.5l-125 55q-116 49 -175 116.5t-59 162.5q0 102 40 181t108 126.5t151 71.5t176 24q196 0 328 -106zM971 1704l-361 -209l-22 41l346 225z" />
    <glyph glyph-name="sacute" unicode="&#x15b;" horiz-adv-x="866" 
d="M303 -18q-175 0 -305 92l29 45q130 -88 290 -88q85 0 157 26.5t120.5 86t48.5 143.5q0 78 -35.5 120t-136.5 85l-113 47q-94 39 -141 90t-47 129q0 95 52 160t133 93.5t184 28.5q143 0 264 -79l-27 -46q-108 74 -244 74q-58 0 -108.5 -11.5t-94.5 -36t-70 -68.5t-26 -103
q0 -65 34.5 -102t119.5 -74l115 -49q118 -50 163.5 -105.5t45.5 -140.5q0 -152 -111.5 -234.5t-296.5 -82.5zM846 1376l-361 -209l-22 41l346 226z" />
    <glyph glyph-name="Scircumflex" unicode="&#x15c;" horiz-adv-x="1052" 
d="M1030 1272q-132 98 -303 98q-104 0 -192.5 -36.5t-146.5 -115t-58 -186.5q0 -86 47.5 -139.5t154.5 -99.5l132 -58q245 -105 245 -301q0 -106 -43 -193t-116.5 -142.5t-168 -86t-198.5 -30.5q-206 0 -360 110l32 51q132 -108 340 -108q84 0 163.5 26.5t143 75t102 123.5
t38.5 164q0 95 -55.5 155.5t-165.5 106.5l-125 55q-116 49 -175 116.5t-59 162.5q0 102 40 181t108 126.5t151 71.5t176 24q196 0 328 -106zM455 1518l-23 41l332 215l262 -224l-31 -34l-237 182z" />
    <glyph glyph-name="scircumflex" unicode="&#x15d;" horiz-adv-x="866" 
d="M303 -18q-175 0 -305 92l29 45q130 -88 290 -88q85 0 157 26.5t120.5 86t48.5 143.5q0 78 -35.5 120t-136.5 85l-113 47q-94 39 -141 90t-47 129q0 95 52 160t133 93.5t184 28.5q143 0 264 -79l-27 -46q-108 74 -244 74q-58 0 -108.5 -11.5t-94.5 -36t-70 -68.5t-26 -103
q0 -65 34.5 -102t119.5 -74l115 -49q118 -50 163.5 -105.5t45.5 -140.5q0 -152 -111.5 -234.5t-296.5 -82.5zM289 1190l-23 41l332 215l262 -223l-31 -35l-237 182z" />
    <glyph glyph-name="Scedilla" unicode="&#x15e;" horiz-adv-x="1052" 
d="M301 -403q-86 0 -143 49l26 37q51 -39 123 -39q64 0 111 36t47 97q0 39 -28 58.5t-75 19.5q-22 0 -69 -7l69 134q-195 6 -339 110l32 51q132 -108 340 -108q84 0 163.5 26.5t143 75t102 123.5t38.5 164q0 95 -55.5 155.5t-165.5 106.5l-125 55q-116 49 -175 116.5
t-59 162.5q0 102 40 181t108 126.5t151 71.5t176 24q196 0 328 -106l-35 -45q-132 98 -303 98q-104 0 -192.5 -36.5t-146.5 -115t-58 -186.5q0 -86 47.5 -139.5t154.5 -99.5l132 -58q245 -105 245 -301q0 -136 -70 -238.5t-181.5 -155.5t-247.5 -58l-48 -95q18 2 35 2
q58 0 91.5 -32t33.5 -74q0 -84 -61 -135t-160 -51z" />
    <glyph glyph-name="scedilla" unicode="&#x15f;" horiz-adv-x="866" 
d="M221 -403q-86 0 -143 49l26 37q51 -39 123 -39q64 0 111 36t47 97q0 39 -27.5 58.5t-74.5 19.5q-23 0 -70 -7l70 134q-165 6 -285 92l29 45q130 -88 290 -88q85 0 157 26.5t120.5 86t48.5 143.5q0 78 -35.5 120t-136.5 85l-113 47q-94 39 -141 90t-47 129q0 95 52 160
t133 93.5t184 28.5q143 0 264 -79l-27 -46q-108 74 -244 74q-58 0 -108.5 -11.5t-94.5 -36t-70 -68.5t-26 -103q0 -65 34.5 -102t119.5 -74l115 -49q118 -50 163.5 -105.5t45.5 -140.5q0 -146 -103.5 -227.5t-277.5 -87.5l-47 -97q18 2 34 2q58 0 91.5 -32t33.5 -74
q0 -84 -61 -135t-160 -51z" />
    <glyph glyph-name="Scaron" unicode="&#x160;" horiz-adv-x="1052" 
d="M1030 1272q-132 98 -303 98q-104 0 -192.5 -36.5t-146.5 -115t-58 -186.5q0 -86 47.5 -139.5t154.5 -99.5l132 -58q245 -105 245 -301q0 -106 -43 -193t-116.5 -142.5t-168 -86t-198.5 -30.5q-206 0 -360 110l32 51q132 -108 340 -108q84 0 163.5 26.5t143 75t102 123.5
t38.5 164q0 95 -55.5 155.5t-165.5 106.5l-125 55q-116 49 -175 116.5t-59 162.5q0 102 40 181t108 126.5t151 71.5t176 24q196 0 328 -106zM1004 1745l20 -41l-332 -215l-260 221l29 39l239 -184z" />
    <glyph glyph-name="scaron" unicode="&#x161;" horiz-adv-x="866" 
d="M303 -18q-175 0 -305 92l29 45q130 -88 290 -88q85 0 157 26.5t120.5 86t48.5 143.5q0 78 -35.5 120t-136.5 85l-113 47q-94 39 -141 90t-47 129q0 95 52 160t133 93.5t184 28.5q143 0 264 -79l-27 -46q-108 74 -244 74q-58 0 -108.5 -11.5t-94.5 -36t-70 -68.5t-26 -103
q0 -65 34.5 -102t119.5 -74l115 -49q118 -50 163.5 -105.5t45.5 -140.5q0 -152 -111.5 -234.5t-296.5 -82.5zM829 1417l21 -41l-332 -215l-260 221l29 39l239 -184z" />
    <glyph glyph-name="uni0162" unicode="&#x162;" horiz-adv-x="858" 
d="M324 0l286 1350h-401l10 55h875l-17 -55h-405l-287 -1350h-6l-57 -113q18 2 34 2q58 0 91.5 -32t33.5 -74q0 -84 -61 -135t-160 -51q-86 0 -143 49l26 37q51 -39 123 -39q64 0 111 36t47 97q0 39 -27.5 58.5t-74.5 19.5q-23 0 -70 -7l80 152h-8z" />
    <glyph glyph-name="uni0163" unicode="&#x163;" horiz-adv-x="532" 
d="M219 -403q-86 0 -143 49l26 37q51 -39 123 -39q64 0 111 36t47 97q0 39 -27.5 58.5t-74.5 19.5q-23 0 -70 -7l70 134q-131 11 -131 147q0 63 18 145l149 699h-133l11 47h133q34 163 75 266l66 14q-41 -97 -80 -280h248l-29 -47h-231l-146 -690q-20 -98 -20 -148
q0 -57 22.5 -80.5t81.5 -23.5q63 0 123 26v-49q-58 -23 -110 -26l-47 -95q18 2 34 2q58 0 91.5 -32t33.5 -74q0 -84 -61 -135t-160 -51z" />
    <glyph glyph-name="Tcaron" unicode="&#x164;" horiz-adv-x="858" 
d="M324 0l286 1350h-401l10 55h875l-17 -55h-405l-287 -1350h-61zM981 1745l20 -41l-331 -215l-260 221l28 39l240 -184z" />
    <glyph glyph-name="tcaron" unicode="&#x165;" horiz-adv-x="532" 
d="M303 -20q-153 0 -153 149q0 63 18 145l149 699h-133l11 47h133q34 163 75 266l66 14q-41 -97 -80 -280h248l-29 -47h-231l-146 -690q-20 -98 -20 -148q0 -57 22.5 -80.5t81.5 -23.5q63 0 123 26v-49q-64 -28 -135 -28zM569 1104l-24 37q116 77 119 168l-5 -1
q-5 -1 -10 -1q-22 0 -36.5 16t-14.5 39q0 26 17 43.5t42 17.5q33 0 51.5 -24t18.5 -68q0 -77 -41 -129.5t-117 -97.5z" />
    <glyph glyph-name="Tbar" unicode="&#x166;" horiz-adv-x="858" 
d="M248 821l10 45h248l104 484h-401l10 55h875l-17 -55h-405l-103 -484h254l-10 -45h-254l-174 -821h-61l174 821h-250z" />
    <glyph glyph-name="tbar" unicode="&#x167;" horiz-adv-x="532" 
d="M303 -20q-153 0 -153 149q0 63 18 145l49 230h-131l10 47h131l90 422h-133l11 47h133q34 163 75 266l66 14q-41 -97 -80 -280h248l-29 -47h-231l-88 -422h250l-29 -47h-231l-48 -221q-20 -98 -20 -148q0 -57 22.5 -80.5t81.5 -23.5q63 0 123 26v-49q-64 -28 -135 -28z
" />
    <glyph glyph-name="Utilde" unicode="&#x168;" horiz-adv-x="1185" 
d="M485 -16q-165 0 -248 77.5t-83 217.5q0 67 16 139l209 987h61l-204 -967q-19 -97 -19 -153q0 -122 64.5 -185t220.5 -63q207 0 313 115q83 92 119 264l211 989h61l-211 -995q-22 -104 -53.5 -175.5t-85.5 -125.5q-128 -125 -371 -125zM682 1608q-75 0 -135 -60l-17 35
q80 80 177 80q57 0 121.5 -37t113.5 -37q75 0 135 60l17 -35q-72 -80 -174 -80q-55 0 -120 37t-118 37z" />
    <glyph glyph-name="utilde" unicode="&#x169;" horiz-adv-x="1046" 
d="M756 256q-36 -50 -75.5 -93t-91.5 -86.5t-113 -69t-122 -25.5q-105 0 -154.5 49.5t-49.5 136.5q0 44 12 96l157 752l64 12l-160 -749q-14 -68 -14 -107q0 -69 37.5 -105t124.5 -36q180 0 405 323l137 662l66 10l-160 -741q-18 -83 -18 -129q0 -43 10.5 -72t38.5 -61
l-47 -37q-60 63 -60 168q0 42 13 102zM557 1280q-76 0 -135 -59l-16 34q80 80 176 80q57 0 121.5 -36.5t113.5 -36.5q76 0 135 59l17 -35q-72 -80 -174 -80q-55 0 -120 37t-118 37z" />
    <glyph glyph-name="Umacron" unicode="&#x16a;" horiz-adv-x="1185" 
d="M485 -16q-165 0 -248 77.5t-83 217.5q0 67 16 139l209 987h61l-204 -967q-19 -97 -19 -153q0 -122 64.5 -185t220.5 -63q207 0 313 115q83 92 119 264l211 989h61l-211 -995q-22 -104 -53.5 -175.5t-85.5 -125.5q-128 -125 -371 -125zM539 1544l10 45h532l-10 -45h-532z
" />
    <glyph glyph-name="umacron" unicode="&#x16b;" horiz-adv-x="1046" 
d="M756 256q-36 -50 -75.5 -93t-91.5 -86.5t-113 -69t-122 -25.5q-105 0 -154.5 49.5t-49.5 136.5q0 44 12 96l157 752l64 12l-160 -749q-14 -68 -14 -107q0 -69 37.5 -105t124.5 -36q180 0 405 323l137 662l66 10l-160 -741q-18 -83 -18 -129q0 -43 10.5 -72t38.5 -61
l-47 -37q-60 63 -60 168q0 42 13 102zM436 1243l10 45h533l-10 -45h-533z" />
    <glyph glyph-name="Ubreve" unicode="&#x16c;" horiz-adv-x="1185" 
d="M485 -16q-165 0 -248 77.5t-83 217.5q0 67 16 139l209 987h61l-204 -967q-19 -97 -19 -153q0 -122 64.5 -185t220.5 -63q207 0 313 115q83 92 119 264l211 989h61l-211 -995q-22 -104 -53.5 -175.5t-85.5 -125.5q-128 -125 -371 -125zM795 1489q-60 0 -114 33.5
t-83.5 70.5t-52.5 80l30 33q99 -150 234 -150q78 0 157 47.5t134 104.5l22 -37q-38 -39 -81 -75t-114 -71.5t-132 -35.5z" />
    <glyph glyph-name="ubreve" unicode="&#x16d;" horiz-adv-x="1046" 
d="M756 256q-36 -50 -75.5 -93t-91.5 -86.5t-113 -69t-122 -25.5q-105 0 -154.5 49.5t-49.5 136.5q0 44 12 96l157 752l64 12l-160 -749q-14 -68 -14 -107q0 -69 37.5 -105t124.5 -36q180 0 405 323l137 662l66 10l-160 -741q-18 -83 -18 -129q0 -43 10.5 -72t38.5 -61
l-47 -37q-60 63 -60 168q0 42 13 102zM672 1167q-46 0 -87.5 18.5t-72.5 48.5t-52.5 58.5t-37.5 59.5l31 32q98 -149 233 -149q78 0 157.5 47.5t133.5 103.5l22 -36q-27 -28 -58 -54.5t-75.5 -58t-95.5 -51t-98 -19.5z" />
    <glyph glyph-name="Uring" unicode="&#x16e;" horiz-adv-x="1185" 
d="M485 -16q-165 0 -248 77.5t-83 217.5q0 67 16 139l209 987h61l-204 -967q-19 -97 -19 -153q0 -122 64.5 -185t220.5 -63q207 0 313 115q83 92 119 264l211 989h61l-211 -995q-22 -104 -53.5 -175.5t-85.5 -125.5q-128 -125 -371 -125zM836 1495q-72 0 -118 49t-46 119
q0 68 44.5 116t114.5 48q71 0 117.5 -48.5t46.5 -115.5q0 -70 -45.5 -119t-113.5 -49zM836 1536q51 0 85.5 37t34.5 90q0 52 -36 88.5t-89 36.5q-52 0 -85 -36.5t-33 -88.5q0 -54 34.5 -90.5t88.5 -36.5z" />
    <glyph glyph-name="uring" unicode="&#x16f;" horiz-adv-x="1046" 
d="M756 256q-36 -50 -75.5 -93t-91.5 -86.5t-113 -69t-122 -25.5q-105 0 -154.5 49.5t-49.5 136.5q0 44 12 96l157 752l64 12l-160 -749q-14 -68 -14 -107q0 -69 37.5 -105t124.5 -36q180 0 405 323l137 662l66 10l-160 -741q-18 -83 -18 -129q0 -43 10.5 -72t38.5 -61
l-47 -37q-60 63 -60 168q0 42 13 102zM672 1167q-72 0 -118 49t-46 119q0 68 45 116t115 48q71 0 117 -48t46 -116q0 -70 -45.5 -119t-113.5 -49zM672 1208q51 0 86 37t35 90q0 52 -36 88.5t-89 36.5q-52 0 -85.5 -36.5t-33.5 -88.5q0 -54 34.5 -90.5t88.5 -36.5z" />
    <glyph glyph-name="Uhungarumlaut" unicode="&#x170;" horiz-adv-x="1185" 
d="M485 -16q-165 0 -248 77.5t-83 217.5q0 67 16 139l209 987h61l-204 -967q-19 -97 -19 -153q0 -122 64.5 -185t220.5 -63q207 0 313 115q83 92 119 264l211 989h61l-211 -995q-22 -104 -53.5 -175.5t-85.5 -125.5q-128 -125 -371 -125zM930 1499l-35 27l311 303l54 -39z
M688 1495l-37 23l279 313l59 -31z" />
    <glyph glyph-name="uhungarumlaut" unicode="&#x171;" horiz-adv-x="1046" 
d="M756 256q-36 -50 -75.5 -93t-91.5 -86.5t-113 -69t-122 -25.5q-105 0 -154.5 49.5t-49.5 136.5q0 44 12 96l157 752l64 12l-160 -749q-14 -68 -14 -107q0 -69 37.5 -105t124.5 -36q180 0 405 323l137 662l66 10l-160 -741q-18 -83 -18 -129q0 -43 10.5 -72t38.5 -61
l-47 -37q-60 63 -60 168q0 42 13 102zM793 1171l-35 27l311 303l53 -39zM551 1167l-37 23l279 313l59 -30z" />
    <glyph glyph-name="Uogonek" unicode="&#x172;" horiz-adv-x="1185" 
d="M397 -403q-69 0 -107 36t-38 93q0 139 184 270q-145 7 -219 84t-74 209q0 62 17 139l209 987h61l-205 -966q-18 -92 -18 -154q0 -122 64.5 -185t220.5 -63q207 0 313 115q83 92 119 264l211 989h61l-211 -995q-22 -104 -53.5 -175.5t-85.5 -125.5q-55 -52 -130 -84
t-196 -43q-13 -1 -46.5 -22t-72 -53.5t-67.5 -82t-29 -98.5q0 -92 105 -92q57 0 122 30l11 -39q-65 -38 -146 -38z" />
    <glyph glyph-name="uogonek" unicode="&#x173;" horiz-adv-x="1046" 
d="M707 -403q-69 0 -107.5 36.5t-38.5 92.5q0 48 19.5 92.5t55 82t67.5 63t75 54.5q-35 55 -35 136q0 42 13 102q-36 -50 -75.5 -93t-91.5 -86.5t-113 -69t-122 -25.5q-105 0 -154.5 49.5t-49.5 136.5q0 44 12 96l157 752l64 12l-160 -749q-14 -68 -14 -107q0 -69 37.5 -105
t124.5 -36q180 0 405 323l137 662l66 10l-160 -741q-18 -83 -18 -129q0 -43 10.5 -72t38.5 -61q-41 -29 -55.5 -39.5t-50.5 -39t-52.5 -47.5t-38 -47t-30.5 -56t-9 -58q0 -92 105 -92q58 0 123 30l10 -39q-65 -38 -145 -38z" />
    <glyph glyph-name="Wcircumflex" unicode="&#x174;" horiz-adv-x="1501" 
d="M274 0l-45 1405h64l31 -1051q2 -68 2 -198v-97q4 13 129 295l469 1051h71l15 -1051q2 -143 2 -295q15 50 125 297l460 1049h66l-621 -1405h-84l-12 1038q-2 92 -2 283q-1 -3 -20.5 -49t-49 -116t-51.5 -120l-467 -1036h-82zM719 1518l-23 41l332 215l262 -224l-30 -34
l-238 182z" />
    <glyph glyph-name="wcircumflex" unicode="&#x175;" horiz-adv-x="1255" 
d="M207 -8l-68 1026l60 12l49 -821q6 -117 6 -137h4l51 112l396 836h67l47 -844q6 -93 6 -108h2l52 114l399 838h65l-495 -1028h-70l-49 846q-6 87 -6 102h-2l-43 -94l-406 -854h-65zM510 1190l-23 41l332 215l262 -223l-30 -35l-238 182z" />
    <glyph glyph-name="Ycircumflex" unicode="&#x176;" horiz-adv-x="978" 
d="M354 0l117 557l-272 848h69l203 -651q4 -15 19.5 -65.5t21.5 -74.5q36 50 106 146l478 645h78l-637 -852l-117 -553h-66zM420 1518l-23 41l332 215l262 -224l-30 -34l-238 182z" />
    <glyph glyph-name="ycircumflex" unicode="&#x177;" horiz-adv-x="829" 
d="M2 -414l-14 47q96 27 161 100t170 269l-32 -4q0 58 -15 176l-114 842l61 18l96 -729q23 -170 23 -258h4q8 17 25 49.5t43 80.5t39 73l411 770h72l-574 -1057q-38 -69 -64 -112.5t-61 -92.5t-67.5 -79t-74 -55t-89.5 -38zM293 1190l-23 41l332 215l262 -223l-30 -35
l-238 182z" />
    <glyph glyph-name="Ydieresis" unicode="&#x178;" horiz-adv-x="978" 
d="M354 0l117 557l-272 848h69l203 -651q4 -15 19.5 -65.5t21.5 -74.5q36 50 106 146l478 645h78l-637 -852l-117 -553h-66zM842 1536q-21 0 -35 14t-14 35q0 20 14.5 34.5t34.5 14.5t34.5 -14.5t14.5 -34.5q0 -21 -14 -35t-35 -14zM559 1536q-21 0 -35 14t-14 35
q0 20 14.5 34.5t34.5 14.5q21 0 35 -14t14 -35t-14 -35t-35 -14z" />
    <glyph glyph-name="Zacute" unicode="&#x179;" horiz-adv-x="1026" 
d="M10 0v49l924 1168q31 39 113 135q-33 -2 -132 -2h-579l20 55h756v-55l-932 -1178q-42 -52 -98 -119q31 2 127 2h606l-18 -55h-787zM942 1704l-360 -209l-23 41l346 225z" />
    <glyph glyph-name="zacute" unicode="&#x17a;" horiz-adv-x="788" 
d="M-61 0v49l798 922h-553v49h627v-53l-797 -918h580l-29 -49h-626zM774 1376l-360 -209l-23 41l346 226z" />
    <glyph glyph-name="Zdotaccent" unicode="&#x17b;" horiz-adv-x="1026" 
d="M10 0v49l924 1168q31 39 113 135q-33 -2 -132 -2h-579l20 55h756v-55l-932 -1178q-42 -52 -98 -119q31 2 127 2h606l-18 -55h-787zM733 1532q-22 0 -37.5 15t-15.5 38t15.5 39t37.5 16q23 0 39 -16t16 -39t-16 -38t-39 -15z" />
    <glyph glyph-name="zdotaccent" unicode="&#x17c;" horiz-adv-x="788" 
d="M-61 0v49l798 922h-553v49h627v-53l-797 -918h580l-29 -49h-626zM557 1212q-22 0 -37.5 15.5t-15.5 38.5t15.5 39t37.5 16q23 0 39 -16t16 -39t-16 -38.5t-39 -15.5z" />
    <glyph glyph-name="Zcaron" unicode="&#x17d;" horiz-adv-x="1026" 
d="M10 0v49l924 1168q31 39 113 135q-33 -2 -132 -2h-579l20 55h756v-55l-932 -1178q-42 -52 -98 -119q31 2 127 2h606l-18 -55h-787zM1028 1745l21 -41l-332 -215l-260 221l28 39l240 -184z" />
    <glyph glyph-name="zcaron" unicode="&#x17e;" horiz-adv-x="788" 
d="M-61 0v49l798 922h-553v49h627v-53l-797 -918h580l-29 -49h-626zM829 1417l21 -41l-332 -215l-260 221l29 39l239 -184z" />
    <glyph glyph-name="longs" unicode="&#x17f;" horiz-adv-x="493" 
d="M111 0l204 973h-98l10 47h99l47 221q54 242 264 242q92 0 156 -45l-25 -47q-60 43 -135 43q-74 0 -125 -51.5t-72 -143.5l-260 -1239q-37 -173 -70 -251t-98 -157l-51 31q65 82 93 152t61 225z" />
    <glyph glyph-name="uni018F" unicode="&#x18f;" horiz-adv-x="1292" 
d="M1161 932q0 211 -93.5 322.5t-309.5 111.5q-97 0 -202.5 -33.5t-188.5 -91.5l-29 43q202 135 448 135q220 0 330.5 -129t110.5 -354q0 -108 -21.5 -219.5t-61 -218t-102 -199.5t-139.5 -163.5t-177.5 -111t-211.5 -40.5q-161 0 -266 88.5t-105 238.5q0 106 39 186.5
t101.5 129.5t151 79.5t177 42t191.5 11.5q118 0 340 -12q18 88 18 184zM803 705q-596 0 -596 -392q0 -128 89.5 -202t231.5 -74q149 0 272.5 85t206 230.5t126.5 339.5q-186 13 -330 13z" />
    <glyph glyph-name="florin" unicode="&#x192;" horiz-adv-x="423" 
d="M-78 -338l-22 45q112 65 155 143.5t78 247.5l160 791h-98l6 47h102l45 219q31 146 104 224.5t205 78.5q38 0 75 -11t54 -22l-26 -43q-53 29 -107 29q-190 0 -243 -258l-45 -217h247l-28 -47h-230l-157 -776q-29 -144 -61 -223t-79 -128.5t-135 -99.5z" />
    <glyph glyph-name="uni01B5" unicode="&#x1b5;" horiz-adv-x="1026" 
d="M279 719l10 45h286l359 453q31 39 113 135q-33 -2 -132 -2h-579l20 55h756v-55l-465 -586h256l-10 -45h-281l-432 -547q-42 -52 -98 -119q31 2 127 2h606l-18 -55h-787v49l529 670h-260z" />
    <glyph glyph-name="uni01B6" unicode="&#x1b6;" horiz-adv-x="788" 
d="M123 487l10 45h223l381 439h-553v49h627v-53l-377 -435h232l-11 -45h-260l-381 -438h580l-29 -49h-626v49l378 438h-194z" />
    <glyph glyph-name="uni01C4" unicode="&#x1c4;" horiz-adv-x="2220" 
d="M84 0l297 1405h219q96 0 170 -11t145.5 -42.5t118 -83.5t75 -138.5t28.5 -203.5q0 -148 -27 -281t-87 -252.5t-148.5 -205.5t-220.5 -136.5t-294 -50.5h-276zM156 53h215q142 0 258.5 45.5t197 124.5t136 189t81 237.5t25.5 270.5q0 103 -22.5 179t-61 123.5t-97.5 76.5
t-125 40t-151 11h-180zM1204 0v49l924 1168q31 39 113 135q-33 -2 -132 -2h-579l20 55h756v-55l-932 -1178q-42 -53 -98 -119q31 2 127 2h606l-18 -55h-787zM2222 1745l21 -41l-332 -215l-260 221l28 39l240 -184z" />
    <glyph glyph-name="uni01C5" unicode="&#x1c5;" horiz-adv-x="1982" 
d="M84 0l297 1405h219q96 0 170 -11t145.5 -42.5t118 -83.5t75 -138.5t28.5 -203.5q0 -148 -27 -281t-87 -252.5t-148.5 -205.5t-220.5 -136.5t-294 -50.5h-276zM156 53h215q142 0 258.5 45.5t197 124.5t136 189t81 237.5t25.5 270.5q0 103 -22.5 179t-61 123.5t-97.5 76.5
t-125 40t-151 11h-180zM1133 0v49l798 922h-553v49h627v-53l-797 -918h580l-29 -49h-626zM2023 1417l21 -41l-332 -215l-260 221l29 39l239 -184z" />
    <glyph glyph-name="uni01C6" unicode="&#x1c6;" horiz-adv-x="1845" 
d="M762 244q-64 -121 -161 -189.5t-200 -68.5q-80 0 -138 27t-90.5 75.5t-47 107.5t-14.5 132q0 187 71.5 349.5t196 259.5t270.5 97q147 0 260 -82l115 543l57 -10l-254 -1200q-18 -85 -18 -135q0 -70 49 -127l-49 -37q-57 67 -57 164q0 50 10 94zM414 39q106 0 199.5 80.5
t168.5 230.5l115 549q-47 39 -103.5 61.5t-148.5 22.5q-127 0 -235.5 -90t-171 -240.5t-62.5 -322.5q0 -49 6 -89t22 -78.5t42 -65t68.5 -42.5t99.5 -16zM995 0v49l799 922h-553v49h627v-53l-797 -918h580l-29 -49h-627zM1886 1417l21 -41l-332 -215l-260 221l28 39
l240 -184z" />
    <glyph glyph-name="uni01C7" unicode="&#x1c7;" horiz-adv-x="1323" 
d="M84 0l297 1405h61l-286 -1352h596l-21 -53h-647zM719 -252l-25 43q160 58 226 146q32 42 55.5 116t60.5 246l236 1106h63l-248 -1169q-30 -144 -52 -210t-64 -118q-83 -103 -252 -160z" />
    <glyph glyph-name="uni01C8" unicode="&#x1c8;" horiz-adv-x="1251" 
d="M84 0l297 1405h61l-286 -1352h596l-21 -53h-647zM733 -350l-22 41q104 44 148.5 114t76.5 224l211 993l65 12l-215 -1009q-17 -79 -32.5 -127.5t-44 -98.5t-74 -85t-113.5 -64zM1235 1294q-22 0 -37.5 15.5t-15.5 38.5t15.5 39t37.5 16q23 0 39 -16t16 -39t-16 -38.5
t-39 -15.5z" />
    <glyph glyph-name="uni01C9" unicode="&#x1c9;" horiz-adv-x="851" 
d="M399 1202l-215 -1007q-16 -74 -16 -107q0 -28 12 -39.5t41 -11.5q21 0 45 8l4 -45q-38 -12 -71 -12q-93 0 -93 90q0 34 17 117l217 1013q27 135 27 201q0 21 -9 66l62 20q8 -46 8 -82q0 -66 -29 -211zM334 -350l-23 41q104 44 149 114.5t77 223.5l211 993l65 12
l-215 -1009q-17 -79 -32.5 -127.5t-44 -98.5t-74 -85t-113.5 -64zM836 1294q-22 0 -38 15.5t-16 38.5t16 39t38 16q23 0 39 -16t16 -39t-16 -38.5t-39 -15.5z" />
    <glyph glyph-name="uni01CA" unicode="&#x1ca;" horiz-adv-x="1691" 
d="M84 0l297 1405h76l360 -1106l72 -227q0 3 8.5 50.5t22 116t24.5 117.5l219 1049h62l-297 -1405h-70l-364 1094q-50 148 -72 239l-277 -1333h-61zM1087 -252l-24 43q158 57 225 146q32 43 56 117t61 245l235 1106h64l-248 -1169q-30 -143 -52.5 -209t-64.5 -119
q-83 -103 -252 -160z" />
    <glyph glyph-name="uni01CB" unicode="&#x1cb;" horiz-adv-x="1619" 
d="M84 0l297 1405h76l360 -1106l72 -227q0 3 8.5 50.5t22 116t24.5 117.5l219 1049h62l-297 -1405h-70l-364 1094q-50 148 -72 239l-277 -1333h-61zM1102 -350l-23 41q104 44 149 114.5t77 223.5l211 993l65 12l-215 -1009q-17 -79 -32.5 -127.5t-44 -98.5t-74 -85
t-113.5 -64zM1604 1294q-22 0 -38 15.5t-16 38.5t16 39t38 16q23 0 39 -16t16 -39t-16 -38.5t-39 -15.5z" />
    <glyph glyph-name="uni01CC" unicode="&#x1cc;" horiz-adv-x="1429" 
d="M143 0h-61l164 776q26 126 26 162q0 37 -10 68l60 24q12 -38 12 -78q0 -38 -19 -133l-14 -63q52 71 110 129.5t139 103.5t157 45q96 0 147 -52t51 -140q0 -20 -12 -90l-158 -752h-61l155 737q15 73 15 101q0 143 -156 143q-53 0 -111.5 -29t-112.5 -78.5t-97 -98.5
t-84 -105zM911 -350l-22 41q104 44 148.5 114t76.5 224l211 993l66 12l-215 -1009q-17 -79 -32.5 -128t-44.5 -98.5t-74.5 -84.5t-113.5 -64zM1413 1294q-22 0 -37.5 15.5t-15.5 38.5t15.5 39t37.5 16q23 0 39 -16t16 -39t-16 -38.5t-39 -15.5z" />
    <glyph glyph-name="uni01F1" unicode="&#x1f1;" horiz-adv-x="2220" 
d="M84 0l297 1405h219q96 0 170 -11t145.5 -42.5t118 -83.5t75 -138.5t28.5 -203.5q0 -148 -27 -281t-87 -252.5t-148.5 -205.5t-220.5 -136.5t-294 -50.5h-276zM156 53h215q142 0 258.5 45.5t197 124.5t136 189t81 237.5t25.5 270.5q0 103 -22.5 179t-61 123.5t-97.5 76.5
t-125 40t-151 11h-180zM1204 0v49l924 1168q31 39 113 135q-33 -2 -132 -2h-579l20 55h756v-55l-932 -1178q-42 -53 -98 -119q31 2 127 2h606l-18 -55h-787z" />
    <glyph glyph-name="uni01F2" unicode="&#x1f2;" horiz-adv-x="1982" 
d="M84 0l297 1405h219q96 0 170 -11t145.5 -42.5t118 -83.5t75 -138.5t28.5 -203.5q0 -148 -27 -281t-87 -252.5t-148.5 -205.5t-220.5 -136.5t-294 -50.5h-276zM156 53h215q142 0 258.5 45.5t197 124.5t136 189t81 237.5t25.5 270.5q0 103 -22.5 179t-61 123.5t-97.5 76.5
t-125 40t-151 11h-180zM1133 0v49l798 922h-553v49h627v-53l-797 -918h580l-29 -49h-626z" />
    <glyph glyph-name="uni01F3" unicode="&#x1f3;" horiz-adv-x="1845" 
d="M762 244q-64 -121 -161 -189.5t-200 -68.5q-80 0 -138 27t-90.5 75.5t-47 107.5t-14.5 132q0 187 71.5 349.5t196 259.5t270.5 97q147 0 260 -82l115 543l57 -10l-254 -1200q-18 -85 -18 -135q0 -70 49 -127l-49 -37q-57 67 -57 164q0 50 10 94zM414 39q106 0 199.5 80.5
t168.5 230.5l115 549q-47 39 -103.5 61.5t-148.5 22.5q-127 0 -235.5 -90t-171 -240.5t-62.5 -322.5q0 -49 6 -89t22 -78.5t42 -65t68.5 -42.5t99.5 -16zM995 0v49l799 922h-553v49h627v-53l-797 -918h580l-29 -49h-627z" />
    <glyph glyph-name="Aringacute" unicode="&#x1fa;" 
d="M825 0l-55 479h-565l-256 -479h-70l762 1405h82l168 -1405h-66zM567 1153l-334 -621h531l-92 824q-47 -97 -105 -203zM713 1495q-72 0 -118 49t-46 119q0 68 45 116t115 48q71 0 117 -48t46 -116q0 -70 -45.5 -119t-113.5 -49zM713 1536q51 0 86 37t35 90q0 52 -36 88.5
t-89 36.5q-52 0 -85.5 -36.5t-33.5 -88.5q0 -54 34.5 -90.5t88.5 -36.5zM938 2036l-360 -209l-23 41l346 225z" />
    <glyph glyph-name="aringacute" unicode="&#x1fb;" 
d="M659 1032q134 0 238 -74q-33 -136 -39 -163l-106 -510q-19 -90 -19 -135q0 -70 49 -127l-47 -37q-61 64 -61 166q0 38 8 79q-130 -245 -338 -245q-133 0 -195.5 86.5t-62.5 230.5q0 155 47.5 292.5t126.5 232.5t183.5 149.5t215.5 54.5zM702 342l125 592q-74 47 -176 47
q-95 0 -185.5 -51t-160.5 -139t-112.5 -217t-42.5 -275q0 -122 50 -192t158 -70q197 0 344 305zM709 1167q-72 0 -118 49t-46 119q0 68 45 116t115 48q71 0 117 -48t46 -116q0 -70 -45.5 -119t-113.5 -49zM709 1208q51 0 85.5 37t34.5 90q0 52 -35.5 88.5t-88.5 36.5
q-52 0 -85.5 -36.5t-33.5 -88.5q0 -54 34.5 -90.5t88.5 -36.5zM942 1708l-360 -209l-23 41l346 225z" />
    <glyph glyph-name="AEacute" unicode="&#x1fc;" horiz-adv-x="1591" 
d="M719 0l100 479h-508l-379 -479h-75l1120 1405h733l-22 -55h-621l-125 -590h500l-12 -55h-498l-137 -650h653q-3 -27 -10 -55h-719zM354 532h477l173 818zM1423 1704l-360 -209l-23 41l346 225z" />
    <glyph glyph-name="aeacute" unicode="&#x1fd;" horiz-adv-x="1531" 
d="M655 1036q96 0 148.5 -51.5t52.5 -150.5q0 -20 -4 -52q63 118 157.5 186t215.5 68q107 0 178.5 -59.5t71.5 -161.5q0 -323 -484 -323q-96 0 -186 8q-14 -74 -14 -156q0 -137 65.5 -222t202.5 -85q86 0 153.5 26.5t133.5 81.5l28 -41q-138 -120 -327 -120q-146 0 -221 92
t-85 248q-96 -340 -383 -340q-75 0 -130 20.5t-85 55t-43.5 73t-13.5 82.5q0 72 21.5 129t60.5 94t86.5 63t106.5 39.5t112 19t111 5.5q87 0 172 -10q3 12 11.5 48t12.5 52.5t11 47t10 49t5.5 41t2.5 38.5q0 76 -43 115t-123 39q-178 0 -367 -127l-22 45q206 133 401 133z
M369 29q81 0 144 35t107.5 102t74 150t50.5 192q-75 10 -157 10q-42 0 -77 -2t-81.5 -9t-83 -19t-74.5 -34.5t-63 -52.5t-41 -75t-16 -101q0 -82 53.5 -139t163.5 -57zM1212 985q-74 0 -141 -36.5t-116.5 -99t-85.5 -139t-56 -161.5q102 -8 178 -8q211 0 317.5 65t106.5 207
q0 82 -56 127t-147 45zM1139 1376l-361 -209l-22 41l346 226z" />
    <glyph glyph-name="Oslashacute" unicode="&#x1fe;" horiz-adv-x="1277" 
d="M532 -16q-198 0 -294 127l-189 -234l-37 27l201 246q-63 110 -63 294q0 128 23 259t76.5 261t130.5 230t195 162.5t261 62.5q202 0 299 -135l204 252l39 -27l-217 -268q60 -112 60 -285q0 -90 -12 -182.5t-38 -188.5t-64 -183t-95 -164t-125.5 -133t-159.5 -88.5
t-195 -32.5zM215 432q0 -142 39 -231l840 1034q-81 133 -271 133q-107 0 -199.5 -46t-157 -123.5t-114.5 -173.5t-79 -203t-43.5 -205t-14.5 -185zM545 31q92 0 174 34.5t142.5 92.5t110.5 136t83.5 163.5t56.5 177t33 174.5t10 158q0 133 -37 223l-842 -1032
q80 -127 269 -127zM1083 1704l-360 -209l-23 41l347 225z" />
    <glyph glyph-name="oslashacute" unicode="&#x1ff;" horiz-adv-x="1009" 
d="M401 -18q-141 0 -219 84l-127 -158l-35 29l134 165q-58 89 -58 238q0 90 18.5 183.5t60.5 186.5t102 165.5t150.5 117.5t197.5 45q138 0 219 -88l153 191l37 -29l-162 -201q56 -90 56 -229q0 -94 -19.5 -189.5t-61.5 -188t-102 -163.5t-149.5 -115t-194.5 -44zM160 326
q0 -110 35 -174l610 751q-65 82 -195 82q-90 0 -166 -41.5t-127 -109t-87.5 -154.5t-53 -177t-16.5 -177zM414 33q76 0 142.5 30t114 81t85 117t60.5 140.5t34.5 148t11.5 142.5q0 104 -31 170l-612 -751q65 -78 195 -78zM983 1376l-360 -209l-23 41l346 226z" />
    <glyph glyph-name="uni0218" unicode="&#x218;" horiz-adv-x="1052" 
d="M1030 1272q-132 98 -303 98q-104 0 -192.5 -36.5t-146.5 -115t-58 -186.5q0 -86 47.5 -139.5t154.5 -99.5l132 -58q245 -105 245 -301q0 -106 -43 -193t-116.5 -142.5t-168 -86t-198.5 -30.5q-206 0 -360 110l32 51q132 -108 340 -108q84 0 163.5 26.5t143 75t102 123.5
t38.5 164q0 95 -55.5 155.5t-165.5 106.5l-125 55q-116 49 -175 116.5t-59 162.5q0 102 40 181t108 126.5t151 71.5t176 24q196 0 328 -106zM317 -362l-26 34q49 40 75 75.5t27 80.5q-8 -2 -14 -2q-22 0 -36.5 16t-14.5 39q0 26 17 44t42 18q33 0 51.5 -24.5t18.5 -68.5
q0 -119 -140 -212z" />
    <glyph glyph-name="uni0219" unicode="&#x219;" horiz-adv-x="866" 
d="M303 -18q-175 0 -305 92l29 45q130 -88 290 -88q85 0 157 26.5t120.5 86t48.5 143.5q0 78 -35.5 120t-136.5 85l-113 47q-94 39 -141 90t-47 129q0 95 52 160t133 93.5t184 28.5q143 0 264 -79l-27 -46q-108 74 -244 74q-58 0 -108.5 -11.5t-94.5 -36t-70 -68.5t-26 -103
q0 -65 34.5 -102t119.5 -74l115 -49q118 -50 163.5 -105.5t45.5 -140.5q0 -152 -111.5 -234.5t-296.5 -82.5zM248 -362l-27 34q49 40 75.5 75.5t27.5 80.5l-5 -1q-5 -1 -10 -1q-22 0 -36.5 16t-14.5 39q0 26 17 44t42 18q33 0 51.5 -24.5t18.5 -68.5q0 -120 -139 -212z" />
    <glyph glyph-name="uni021A" unicode="&#x21a;" horiz-adv-x="858" 
d="M324 0l286 1350h-401l10 55h875l-17 -55h-405l-287 -1350h-61zM268 -362l-26 34q49 40 75 75.5t27 80.5q-8 -2 -14 -2q-22 0 -36.5 16t-14.5 39q0 26 17 44t42 18q33 0 51.5 -24.5t18.5 -68.5q0 -119 -140 -212z" />
    <glyph glyph-name="uni021B" unicode="&#x21b;" horiz-adv-x="532" 
d="M303 -20q-153 0 -153 149q0 63 18 145l149 699h-133l11 47h133q34 163 75 266l66 14q-41 -97 -80 -280h248l-29 -47h-231l-146 -690q-20 -98 -20 -148q0 -57 22.5 -80.5t81.5 -23.5q63 0 123 26v-49q-64 -28 -135 -28zM190 -362l-26 34q49 40 75 75.5t27 80.5l-4 -1
q-5 -1 -10 -1q-22 0 -36.5 16t-14.5 39q0 26 17 44t42 18q33 0 51.5 -24.5t18.5 -68.5q0 -119 -140 -212z" />
    <glyph glyph-name="uni0237" unicode="&#x237;" horiz-adv-x="405" 
d="M-113 -350l-22 41q104 44 148.5 114t76.5 224l211 993l66 12l-215 -1009q-17 -79 -32.5 -128t-44.5 -98.5t-74.5 -84.5t-113.5 -64z" />
    <glyph glyph-name="uni0259" unicode="&#x259;" horiz-adv-x="921" 
d="M543 528q92 0 186 -8q14 74 14 156q0 138 -66.5 223.5t-201.5 85.5q-154 0 -287 -111l-28 41q140 121 327 121q154 0 238 -99.5t84 -266.5q0 -93 -20 -188t-61.5 -184.5t-99.5 -159.5t-141 -112t-178 -42q-107 0 -179.5 59.5t-72.5 161.5q0 156 119 239.5t367 83.5z
M322 35q98 0 181.5 63.5t135.5 159.5t80 215q-74 6 -178 6q-422 0 -422 -272q0 -82 56 -127t147 -45z" />
    <glyph glyph-name="uni02BB" unicode="&#x2bb;" horiz-adv-x="331" 
d="M391 1425l27 -34q-49 -40 -75.5 -75.5t-27.5 -80.5l5 1q5 1 10 1q22 0 36.5 -16t14.5 -39q0 -26 -17 -44t-42 -18q-33 0 -51.5 24t-18.5 68q0 121 139 213z" />
    <glyph glyph-name="uni02BC" unicode="&#x2bc;" horiz-adv-x="331" 
d="M279 1120l-27 35q49 40 75 75.5t27 80.5l-4 -1q-5 -1 -10 -1q-22 0 -36.5 16t-14.5 39q0 26 17 43.5t42 17.5q33 0 51.5 -24t18.5 -68q0 -121 -139 -213z" />
    <glyph glyph-name="circumflex" unicode="&#x2c6;" horiz-adv-x="675" 
d="M225 1190l-22 41l332 215l262 -223l-31 -35l-238 182z" />
    <glyph glyph-name="caron" unicode="&#x2c7;" horiz-adv-x="677" 
d="M815 1417l21 -41l-332 -215l-260 221l28 39l240 -184z" />
    <glyph glyph-name="breve" unicode="&#x2d8;" horiz-adv-x="661" 
d="M489 1184q-46 0 -87.5 18t-72.5 48.5t-52 58.5t-37 59l30 33q99 -150 234 -150q78 0 157 47.5t134 104.5l22 -37q-64 -66 -152.5 -124t-175.5 -58z" />
    <glyph glyph-name="dotaccent" unicode="&#x2d9;" horiz-adv-x="202" 
d="M283 1212q-22 0 -38 15.5t-16 38.5t16 39t38 16q23 0 39 -16t16 -39t-16 -38.5t-39 -15.5z" />
    <glyph glyph-name="ring" unicode="&#x2da;" horiz-adv-x="417" 
d="M395 1167q-72 0 -118 49t-46 119q0 68 45 116t115 48q71 0 117.5 -48.5t46.5 -115.5q0 -70 -46 -119t-114 -49zM395 1208q51 0 86 37t35 90q0 52 -36 88.5t-89 36.5q-52 0 -85.5 -36.5t-33.5 -88.5q0 -54 34.5 -90.5t88.5 -36.5z" />
    <glyph glyph-name="ogonek" unicode="&#x2db;" horiz-adv-x="442" 
d="M53 -403q-69 0 -107 36t-38 93q0 39 14.5 76.5t35 66.5t52 59t57 49t58.5 41l35 -24q-199 -132 -199 -258q0 -92 105 -92q57 0 122 30l11 -39q-65 -38 -146 -38z" />
    <glyph glyph-name="tilde" unicode="&#x2dc;" horiz-adv-x="675" 
d="M406 1280q-77 0 -136 -59l-16 34q80 80 176 80q57 0 122 -36.5t114 -36.5q76 0 135 59l16 -35q-72 -80 -174 -80q-55 0 -119.5 37t-117.5 37z" />
    <glyph glyph-name="hungarumlaut" unicode="&#x2dd;" horiz-adv-x="626" 
d="M453 1143l-35 26l311 304l53 -39zM211 1139l-37 22l279 314l59 -31z" />
    <glyph glyph-name="gravecomb" unicode="&#x300;" horiz-adv-x="2" 
d="M-229 1167l-357 209l35 58l346 -224z" />
    <glyph glyph-name="acutecomb" unicode="&#x301;" horiz-adv-x="2" 
d="M-76 1376l-360 -209l-23 41l346 226z" />
    <glyph glyph-name="uni0302" unicode="&#x302;" horiz-adv-x="2" 
d="M-633 1190l-22 41l331 215l263 -223l-31 -35l-238 182z" />
    <glyph glyph-name="tildecomb" unicode="&#x303;" horiz-adv-x="2" 
d="M-459 1280q-76 0 -135 -59l-16 34q80 80 176 80q57 0 121.5 -36.5t113.5 -36.5q77 0 136 59l16 -35q-72 -80 -174 -80q-55 0 -120 37t-118 37z" />
    <glyph glyph-name="uni0304" unicode="&#x304;" horiz-adv-x="2" 
d="M-365 1243l11 45h532l-10 -45h-533z" />
    <glyph glyph-name="uni0306" unicode="&#x306;" horiz-adv-x="2" 
d="M-170 1161q-46 0 -87.5 18.5t-72.5 48.5t-52.5 58.5t-37.5 59.5l31 32q98 -149 233 -149q78 0 157.5 47.5t133.5 103.5l23 -37q-64 -66 -152.5 -124t-175.5 -58z" />
    <glyph glyph-name="uni0307" unicode="&#x307;" horiz-adv-x="2" 
d="M-18 1212q-22 0 -38 15.5t-16 38.5t16 39t38 16q23 0 39 -16t16 -39t-16 -38.5t-39 -15.5z" />
    <glyph glyph-name="uni0308" unicode="&#x308;" horiz-adv-x="2" 
d="M18 1208q-21 0 -35 14t-14 35q0 20 14.5 35t34.5 15t35 -15t15 -35q0 -21 -14.5 -35t-35.5 -14zM-264 1208q-21 0 -35 14t-14 35q0 20 14.5 35t34.5 15q21 0 35 -14.5t14 -35.5t-14 -35t-35 -14z" />
    <glyph glyph-name="uni030A" unicode="&#x30a;" horiz-adv-x="2" 
d="M-20 1167q-72 0 -118 49t-46 119q0 68 44.5 116t114.5 48q71 0 117.5 -48.5t46.5 -115.5q0 -70 -45.5 -119t-113.5 -49zM-20 1208q51 0 85.5 37t34.5 90q0 52 -36 88.5t-89 36.5q-52 0 -85 -36.5t-33 -88.5q0 -54 34.5 -90.5t88.5 -36.5z" />
    <glyph glyph-name="uni030B" unicode="&#x30b;" horiz-adv-x="2" 
d="M-172 1171l-35 27l311 303l54 -39zM-414 1167l-37 23l279 313l59 -30z" />
    <glyph glyph-name="uni030C" unicode="&#x30c;" horiz-adv-x="2" 
d="M2 1417l21 -41l-332 -215l-260 221l28 39l240 -184z" />
    <glyph glyph-name="uni0312" unicode="&#x312;" horiz-adv-x="2" 
d="M-250 1614l25 -37q-116 -77 -119 -168l4 1q5 1 10 1q22 0 36.5 -16t14.5 -39q0 -26 -17 -44t-42 -18q-33 0 -51.5 24t-18.5 68q0 77 41 130t117 98z" />
    <glyph glyph-name="uni0313" unicode="&#x313;" horiz-adv-x="2" 
d="M-383 1085l-25 37q116 77 119 168l-5 -1q-4 -1 -9 -1q-22 0 -36.5 16t-14.5 39q0 26 17 44t42 18q33 0 51.5 -24t18.5 -68q0 -77 -41 -130t-117 -98z" />
    <glyph glyph-name="uni0326" unicode="&#x326;" horiz-adv-x="2" 
d="M-348 -362l-27 34q49 40 75.5 75.5t27.5 80.5l-5 -1q-5 -1 -10 -1q-22 0 -36.5 16t-14.5 39q0 26 17 44t42 18q33 0 51.5 -24.5t18.5 -68.5q0 -120 -139 -212z" />
    <glyph glyph-name="uni0327" unicode="&#x327;" horiz-adv-x="2" 
d="M-428 -403q-86 0 -143 49l26 37q51 -39 123 -39q64 0 111 36t47 97q0 39 -28 58.5t-75 19.5q-22 0 -69 -7l84 160l45 -4l-60 -117q18 2 35 2q58 0 91.5 -32t33.5 -74q0 -84 -61 -135t-160 -51z" />
    <glyph glyph-name="uni0328" unicode="&#x328;" horiz-adv-x="2" 
d="M-387 -403q-69 0 -107 36t-38 93q0 39 14.5 76.5t35 66.5t52 59t57 49t58.5 41l34 -24q-198 -131 -198 -258q0 -92 104 -92q58 0 123 30l10 -39q-65 -38 -145 -38z" />
    <glyph glyph-name="uni037E" unicode="&#x37e;" horiz-adv-x="460" 
d="M281 610q-23 0 -40.5 17.5t-17.5 42.5t16.5 41t41.5 16t42 -16t17 -41q0 -24 -18 -42t-41 -18zM41 -217l-25 37q116 77 119 168q-6 -2 -14 -2q-22 0 -36.5 16t-14.5 39q0 26 17 43.5t42 17.5q33 0 51.5 -24t18.5 -68q0 -77 -41 -129.5t-117 -97.5z" />
    <glyph glyph-name="tonos" unicode="&#x384;" 
d="M664 1145h-58l135 313h60z" />
    <glyph glyph-name="dieresistonos" unicode="&#x385;" horiz-adv-x="593" 
d="M610 1208q-21 0 -35 14t-14 35q0 20 14.5 35t34.5 15t34.5 -15t14.5 -35q0 -21 -14 -35t-35 -14zM328 1208q-21 0 -35 14t-14 35q0 20 14.5 35t34.5 15q21 0 35 -14.5t14 -35.5t-14 -35t-35 -14zM614 1487l-170 -322l-38 19l145 325z" />
    <glyph glyph-name="Alphatonos" unicode="&#x386;" 
d="M352 1405l-170 -322l-39 19l146 325zM825 0l-55 479h-565l-256 -479h-70l762 1405h82l168 -1405h-66zM567 1153l-334 -621h531l-92 824q-47 -97 -105 -203z" />
    <glyph glyph-name="anoteleia" unicode="&#x387;" horiz-adv-x="333" 
d="M166 610q-23 0 -40 17.5t-17 42.5t16 41t41 16t42 -16t17 -41q0 -24 -17.5 -42t-41.5 -18z" />
    <glyph glyph-name="Epsilontonos" unicode="&#x388;" horiz-adv-x="956" 
d="M172 1405l-170 -322l-39 19l146 325zM84 0l297 1405h692l-20 -55h-621l-125 -590h500l-12 -55h-500l-137 -650h657l-12 -55h-719z" />
    <glyph glyph-name="Etatonos" unicode="&#x389;" horiz-adv-x="1189" 
d="M172 1405l-170 -322l-39 19l146 325zM84 0l297 1405h61l-133 -631h695l135 631h63l-297 -1405h-63l151 721h-696l-152 -721h-61z" />
    <glyph glyph-name="Iotatonos" unicode="&#x38a;" horiz-adv-x="430" 
d="M170 1405l-170 -322l-39 19l145 325zM84 0l297 1405h61l-297 -1405h-61z" />
    <glyph glyph-name="Omicrontonos" unicode="&#x38c;" horiz-adv-x="1277" 
d="M172 1405l-170 -322l-39 19l146 325zM545 31q92 0 174 34.5t142.5 92.5t110.5 136t83.5 163.5t56.5 177t33 174.5t10 158q0 401 -332 401q-107 0 -199.5 -46t-157 -123.5t-114.5 -173.5t-79 -203t-43.5 -205t-14.5 -185q0 -401 330 -401zM532 -16q-107 0 -184 37
t-119 103.5t-60.5 144.5t-18.5 175q0 128 23 259t76.5 261t130.5 230t195 162.5t261 62.5q107 0 184.5 -37.5t120 -104.5t61.5 -146t19 -175q0 -90 -12 -182.5t-38 -188.5t-64 -183t-95 -164t-125.5 -133t-159.5 -88.5t-195 -32.5z" />
    <glyph glyph-name="Upsilontonos" unicode="&#x38e;" horiz-adv-x="978" 
d="M29 1405l-170 -322l-39 19l145 325zM354 0l117 557l-272 848h69l203 -651q4 -15 19.5 -65.5t21.5 -74.5q36 50 106 146l478 645h78l-637 -852l-117 -553h-66z" />
    <glyph glyph-name="Omegatonos" unicode="&#x38f;" horiz-adv-x="1132" 
d="M131 1405l-170 -322l-39 19l146 325zM551 0l4 55q84 24 154.5 71.5t121 107t90.5 133t64.5 148t40.5 154.5t22.5 149.5t6.5 135.5t-9 123.5t-31.5 111.5t-58 92.5t-92.5 61.5t-131 23q-79 0 -150 -27t-125 -71t-101 -106t-79.5 -126t-58.5 -137q-78 -224 -78 -450
q0 -326 209 -398l-4 -51h-334l-2 55h226q-84 51 -122 156.5t-38 237.5q0 269 104 526q36 90 85 165t117.5 139.5t162 101t203.5 36.5q78 0 140.5 -24.5t105.5 -66.5t71.5 -101t41.5 -126.5t13 -144.5q0 -91 -11.5 -186t-42.5 -205.5t-77.5 -204.5t-123.5 -176t-175 -127h215
l-20 -55h-334z" />
    <glyph glyph-name="iotadieresistonos" unicode="&#x390;" horiz-adv-x="428" 
d="M111 190l176 834l65 10l-180 -844q-16 -74 -16 -106q0 -28 12 -39.5t41 -11.5q21 0 45 8l4 -45q-38 -12 -72 -12q-52 0 -72 24.5t-20 65.5q0 33 17 116zM537 1208q-21 0 -35.5 14t-14.5 35q0 20 15 35t35 15t34.5 -15t14.5 -35q0 -21 -14 -35t-35 -14zM254 1208
q-21 0 -35 14t-14 35q0 20 14.5 35t34.5 15q21 0 35 -14.5t14 -35.5t-14 -35t-35 -14zM541 1487l-170 -322l-39 19l145 325z" />
    <glyph glyph-name="Alpha" unicode="&#x391;" 
d="M825 0l-55 479h-565l-256 -479h-70l762 1405h82l168 -1405h-66zM567 1153l-334 -621h531l-92 824q-47 -97 -105 -203z" />
    <glyph glyph-name="Beta" unicode="&#x392;" horiz-adv-x="1091" 
d="M84 0l297 1405h295q389 0 389 -272q0 -91 -38.5 -171t-124 -140.5t-206.5 -78.5q130 -14 212.5 -87t82.5 -195q0 -233 -155.5 -347t-446.5 -114h-305zM307 770h285q71 0 140.5 22t129.5 64t97.5 112.5t37.5 157.5q0 65 -22.5 110t-65 69t-94.5 34.5t-121 10.5h-264z
M154 53h264q253 0 380.5 103.5t127.5 304.5q0 68 -30 118.5t-81.5 79.5t-112 42.5t-129.5 13.5h-276z" />
    <glyph glyph-name="Gamma" unicode="&#x393;" horiz-adv-x="741" 
d="M84 0l299 1405h594l-16 -55h-529l-287 -1350h-61z" />
    <glyph glyph-name="uni0394" unicode="&#x394;" 
d="M-121 0l762 1405h82l168 -1405h-1012zM672 1356l-695 -1303h842z" />
    <glyph glyph-name="Epsilon" unicode="&#x395;" horiz-adv-x="956" 
d="M84 0l297 1405h692l-20 -55h-621l-125 -590h500l-12 -55h-500l-137 -650h657l-12 -55h-719z" />
    <glyph glyph-name="Zeta" unicode="&#x396;" horiz-adv-x="1026" 
d="M10 0v49l924 1168q31 39 113 135q-33 -2 -132 -2h-579l20 55h756v-55l-932 -1178q-42 -52 -98 -119q31 2 127 2h606l-18 -55h-787z" />
    <glyph glyph-name="Eta" unicode="&#x397;" horiz-adv-x="1189" 
d="M84 0l297 1405h61l-133 -631h695l135 631h63l-297 -1405h-63l151 721h-696l-152 -721h-61z" />
    <glyph glyph-name="Theta" unicode="&#x398;" horiz-adv-x="1277" 
d="M373 721l12 53h653l-10 -53h-655zM545 31q92 0 174 34.5t142.5 92.5t110.5 136t83.5 163.5t56.5 177t33 174.5t10 158q0 401 -332 401q-107 0 -199.5 -46t-157 -123.5t-114.5 -173.5t-79 -203t-43.5 -205t-14.5 -185q0 -401 330 -401zM532 -16q-107 0 -184 37t-119 103.5
t-60.5 144.5t-18.5 175q0 128 23 259t76.5 261t130.5 230t195 162.5t261 62.5q107 0 184.5 -37.5t120 -104.5t61.5 -146t19 -175q0 -90 -12 -182.5t-38 -188.5t-64 -183t-95 -164t-125.5 -133t-159.5 -88.5t-195 -32.5z" />
    <glyph glyph-name="Iota" unicode="&#x399;" horiz-adv-x="430" 
d="M84 0l297 1405h61l-297 -1405h-61z" />
    <glyph glyph-name="Kappa" unicode="&#x39a;" horiz-adv-x="985" 
d="M846 14l-60 -26q-183 297 -458 753l753 680l45 -39l-725 -645zM84 0l297 1405h63l-297 -1405h-63z" />
    <glyph glyph-name="Lambda" unicode="&#x39b;" 
d="M825 0l-149 1356l-727 -1356h-70l762 1405h82l168 -1405h-66z" />
    <glyph glyph-name="Mu" unicode="&#x39c;" horiz-adv-x="1495" 
d="M43 0l420 1405h90l96 -1094q17 -189 17 -227q24 64 104 221l563 1100h92l-170 -1405h-61l139 1151q19 145 27 195q-75 -152 -82 -166l-602 -1180h-58l-102 1141q-14 157 -14 205l-396 -1346h-63z" />
    <glyph glyph-name="Nu" unicode="&#x39d;" horiz-adv-x="1214" 
d="M84 0l297 1405h76l360 -1106l72 -227q0 3 8.5 50.5t22 116t24.5 117.5l219 1049h62l-297 -1405h-70l-364 1094q-50 148 -72 239l-277 -1333h-61z" />
    <glyph glyph-name="Xi" unicode="&#x39e;" horiz-adv-x="1026" 
d="M264 721l12 53h613l-15 -53h-610zM10 0l17 55h788l-18 -55h-787zM1100 1350h-764l20 55h756z" />
    <glyph glyph-name="Omicron" unicode="&#x39f;" horiz-adv-x="1277" 
d="M545 31q92 0 174 34.5t142.5 92.5t110.5 136t83.5 163.5t56.5 177t33 174.5t10 158q0 401 -332 401q-107 0 -199.5 -46t-157 -123.5t-114.5 -173.5t-79 -203t-43.5 -205t-14.5 -185q0 -401 330 -401zM532 -16q-107 0 -184 37t-119 103.5t-60.5 144.5t-18.5 175
q0 128 23 259t76.5 261t130.5 230t195 162.5t261 62.5q107 0 184.5 -37.5t120 -104.5t61.5 -146t19 -175q0 -90 -12 -182.5t-38 -188.5t-64 -183t-95 -164t-125.5 -133t-159.5 -88.5t-195 -32.5z" />
    <glyph glyph-name="Pi" unicode="&#x3a0;" horiz-adv-x="1189" 
d="M842 0l284 1350h-696l-285 -1350h-61l297 1405h821l-297 -1405h-63z" />
    <glyph glyph-name="Rho" unicode="&#x3a1;" horiz-adv-x="1028" 
d="M84 0l297 1405h278q68 0 126.5 -9.5t113 -32.5t93.5 -59t62 -92.5t23 -128.5q0 -103 -29 -185.5t-78 -137.5t-116.5 -92t-143 -53.5t-159.5 -16.5h-281l-125 -598h-61zM283 651h276q71 0 135 14.5t122.5 46.5t101 80t67.5 120t25 161q0 83 -28 140t-81 85.5t-113 40
t-141 11.5h-217z" />
    <glyph glyph-name="Sigma" unicode="&#x3a3;" horiz-adv-x="1026" 
d="M1096 1350h-695l334 -650l-639 -647q14 2 72 2h647l-18 -55h-787v47l654 662l-328 641v55h776z" />
    <glyph glyph-name="Tau" unicode="&#x3a4;" horiz-adv-x="858" 
d="M324 0l286 1350h-401l10 55h875l-17 -55h-405l-287 -1350h-61z" />
    <glyph glyph-name="Upsilon" unicode="&#x3a5;" horiz-adv-x="978" 
d="M354 0l117 557l-272 848h69l203 -651q4 -15 19.5 -65.5t21.5 -74.5q36 50 106 146l478 645h78l-637 -852l-117 -553h-66z" />
    <glyph glyph-name="Phi" unicode="&#x3a6;" horiz-adv-x="1343" 
d="M879 1307l-250 -1182q105 6 193 39t152 87t112 123.5t77 152t43.5 169t14.5 178.5q0 400 -342 433zM618 78l-16 -78h-61l16 80q-201 29 -304 156t-103 335q0 129 28 247t84.5 217.5t136.5 172.5t190.5 113.5t239.5 38.5l23 117h61l-24 -119q107 -11 185.5 -52t124 -106.5
t66.5 -144.5t21 -176q0 -117 -23 -229t-75 -216.5t-127.5 -183t-189.5 -125.5t-253 -47zM567 129l250 1180q-120 -2 -220.5 -44t-170 -112t-118 -164t-71 -199.5t-22.5 -218.5q0 -110 28 -193t78 -133.5t111 -78.5t135 -37z" />
    <glyph glyph-name="Chi" unicode="&#x3a7;" horiz-adv-x="849" 
d="M1034 1405l-504 -649l301 -756h-73l-275 705l-538 -705h-78l586 762l-252 643h73l228 -590l454 590h78z" />
    <glyph glyph-name="Psi" unicode="&#x3a8;" horiz-adv-x="1130" 
d="M782 1405l-186 -875q84 2 149.5 21.5t125 62.5t102.5 122t67 192l101 477h61l-104 -492q-25 -121 -76 -207t-121.5 -132.5t-146.5 -67.5t-168 -23l-103 -483h-61l102 483q-173 12 -261.5 91.5t-88.5 220.5q0 64 14 129l101 481h61l-104 -496q-13 -57 -13 -110
q0 -255 302 -269l186 875h61z" />
    <glyph glyph-name="uni03A9" unicode="&#x3a9;" horiz-adv-x="1132" 
d="M551 0l4 55q84 24 154.5 71.5t121 107t90.5 133t64.5 148t40.5 154.5t22.5 149.5t6.5 135.5t-9 123.5t-31.5 111.5t-58 92.5t-92.5 61.5t-131 23q-79 0 -150 -27t-125 -71t-101 -106t-79.5 -126t-58.5 -137q-78 -224 -78 -450q0 -326 209 -398l-4 -51h-334l-2 55h226
q-84 51 -122 156.5t-38 237.5q0 269 104 526q36 90 85 165t117.5 139.5t162 101t203.5 36.5q78 0 140.5 -24.5t105.5 -66.5t71.5 -101t41.5 -126.5t13 -144.5q0 -91 -11.5 -186t-42.5 -205.5t-77.5 -204.5t-123.5 -176t-175 -127h215l-20 -55h-334z" />
    <glyph glyph-name="Iotadieresis" unicode="&#x3aa;" horiz-adv-x="430" 
d="M84 0l297 1405h61l-297 -1405h-61zM565 1536q-21 0 -35 14t-14 35q0 20 14.5 34.5t34.5 14.5t34.5 -14.5t14.5 -34.5q0 -21 -14 -35t-35 -14zM283 1536q-21 0 -35.5 14t-14.5 35q0 20 15 34.5t35 14.5q21 0 35 -14t14 -35t-14 -35t-35 -14z" />
    <glyph glyph-name="Upsilondieresis" unicode="&#x3ab;" horiz-adv-x="978" 
d="M354 0l117 557l-272 848h69l203 -651q4 -15 19.5 -65.5t21.5 -74.5q36 50 106 146l478 645h78l-637 -852l-117 -553h-66zM842 1536q-21 0 -35 14t-14 35q0 20 14.5 34.5t34.5 14.5t34.5 -14.5t14.5 -34.5q0 -21 -14 -35t-35 -14zM559 1536q-21 0 -35 14t-14 35
q0 20 14.5 34.5t34.5 14.5q21 0 35 -14t14 -35t-14 -35t-35 -14z" />
    <glyph glyph-name="alphatonos" unicode="&#x3ac;" 
d="M684 231q-64 -121 -151 -184t-189 -63q-132 0 -195 87t-63 232q0 156 47.5 293.5t126.5 232.5t183.5 150t215.5 55q132 0 238 -76q-33 -136 -39 -163l-123 -607q-14 -65 -14 -104q0 -28 12 -39.5t41 -11.5q21 0 45 8l4 -45q-37 -12 -71 -12q-93 0 -93 90q0 41 15 114z
M705 342l122 592q-77 49 -176 49q-95 0 -185.5 -51t-160.5 -139.5t-112.5 -218t-42.5 -275.5q0 -122 50 -193t158 -71q199 0 347 307zM664 1145h-58l135 313h60z" />
    <glyph glyph-name="epsilontonos" unicode="&#x3ad;" horiz-adv-x="815" 
d="M256 719q0 -74 54 -123t165 -49h129l-29 -47h-104q-167 0 -251.5 -77.5t-84.5 -193.5q0 -89 66.5 -140.5t179.5 -51.5q65 0 146.5 24t140.5 68l24 -45q-64 -48 -151.5 -74t-163.5 -26q-131 0 -219 64t-88 181q0 109 64 190t179 113q-60 26 -91.5 75.5t-31.5 111.5
q0 79 30.5 141.5t81 99.5t110.5 55.5t125 18.5q181 0 272 -121l-37 -34q-84 102 -237 102q-113 0 -196 -68t-83 -194zM565 1145h-57l135 313h59z" />
    <glyph glyph-name="etatonos" unicode="&#x3ae;" horiz-adv-x="1007" 
d="M707 190l116 547q15 73 15 101q0 143 -156 143q-53 0 -111.5 -29t-113 -78.5t-97.5 -98.5t-84 -105l-139 -670h-61l164 776q26 126 26 162q0 37 -10 68l59 24q13 -41 13 -78q0 -38 -19 -133l-14 -63q52 72 110 130t138.5 103t156.5 45q96 0 147.5 -52t51.5 -140
q0 -38 -12 -90l-119 -562q-16 -74 -16 -106q0 -28 12 -39.5t41 -11.5q21 0 45 8l4 -45q-37 -12 -72 -12q-52 0 -72 24.5t-20 65.5q0 33 17 116zM666 1145h-58l135 313h60z" />
    <glyph glyph-name="iotatonos" unicode="&#x3af;" horiz-adv-x="428" 
d="M111 190l176 834l65 10l-180 -844q-16 -74 -16 -106q0 -28 12 -39.5t41 -11.5q21 0 45 8l4 -45q-38 -12 -72 -12q-52 0 -72 24.5t-20 65.5q0 33 17 116zM360 1145h-57l135 313h60z" />
    <glyph glyph-name="upsilondieresistonos" unicode="&#x3b0;" horiz-adv-x="925" 
d="M276 788l-83 -397q-21 -99 -21 -178q0 -176 186 -176q86 0 152 33.5t123 111.5q50 69 85 167.5t50.5 204t21 188t5.5 165.5q0 68 -9 113h60q6 -50 6 -109q0 -552 -186 -780q-61 -74 -133.5 -110.5t-186.5 -36.5q-108 0 -172.5 56.5t-64.5 170.5q0 78 18 160l92 434
q21 100 21 143q0 29 -11 58l60 24q12 -34 12 -65q0 -59 -25 -177zM719 1208q-21 0 -35 14t-14 35q0 20 14.5 35t34.5 15t34.5 -15t14.5 -35q0 -21 -14 -35t-35 -14zM436 1208q-21 0 -35 14t-14 35q0 20 14.5 35t34.5 15q21 0 35 -14.5t14 -35.5t-14 -35t-35 -14zM723 1487
l-170 -322l-39 19l145 325z" />
    <glyph glyph-name="alpha" unicode="&#x3b1;" 
d="M684 231q-64 -121 -151 -184t-189 -63q-132 0 -195 87t-63 232q0 156 47.5 293.5t126.5 232.5t183.5 150t215.5 55q132 0 238 -76q-33 -136 -39 -163l-123 -607q-14 -65 -14 -104q0 -28 12 -39.5t41 -11.5q21 0 45 8l4 -45q-37 -12 -71 -12q-93 0 -93 90q0 41 15 114z
M705 342l122 592q-77 49 -176 49q-95 0 -185.5 -51t-160.5 -139.5t-112.5 -218t-42.5 -275.5q0 -122 50 -193t158 -71q199 0 347 307z" />
    <glyph glyph-name="beta" unicode="&#x3b2;" horiz-adv-x="1015" 
d="M166 72l-103 -475l-63 -13l313 1469q92 430 387 430q122 0 195.5 -69.5t73.5 -186.5q0 -89 -27.5 -163t-73 -122.5t-90 -79t-92.5 -49.5q107 -27 165 -109t58 -192q0 -74 -21 -149t-63 -143t-99.5 -121t-136 -84t-167.5 -31q-143 0 -256 88zM371 1051l-193 -924
q106 -90 248 -90q78 0 146.5 28.5t117.5 76.5t84.5 110t52.5 128.5t17 131.5q0 116 -64.5 189t-201.5 73h-123l10 47h47q39 0 86.5 12.5t102.5 43t99 75t73.5 116.5t29.5 159q0 94 -54.5 148.5t-154.5 54.5q-70 0 -126.5 -32.5t-94 -89.5t-62 -119.5t-40.5 -137.5z" />
    <glyph glyph-name="gamma" unicode="&#x3b3;" horiz-adv-x="790" 
d="M203 -403l-62 -13q97 525 97 854q0 187 -32.5 338.5t-92.5 235.5l57 20q61 -85 94 -242t33 -337q0 -163 -21 -371q162 199 287.5 447t177.5 491h68q-63 -267 -203.5 -535t-335.5 -481q-8 -47 -30.5 -190.5t-36.5 -216.5z" />
    <glyph glyph-name="delta" unicode="&#x3b4;" horiz-adv-x="1007" 
d="M829 526q0 204 -223 396q-195 -66 -323.5 -228.5t-128.5 -361.5q0 -60 16 -112t48 -93.5t86 -65.5t124 -24q114 0 207.5 71.5t143.5 183t50 234.5zM643 969q54 -50 87.5 -85t77 -93.5t65.5 -125t22 -139.5q0 -144 -63 -269t-172 -199t-236 -74q-84 0 -149.5 29.5
t-105.5 79t-60.5 110.5t-20.5 129q0 89 26.5 173t72 152t107.5 126t131.5 99.5t145.5 69.5q-89 80 -130.5 146t-41.5 133q0 119 87 185.5t235 66.5q119 0 293 -72l-31 -47q-151 66 -268 66q-125 0 -187.5 -52.5t-62.5 -144.5q0 -59 39 -116t139 -148z" />
    <glyph glyph-name="epsilon" unicode="&#x3b5;" horiz-adv-x="815" 
d="M256 719q0 -74 54 -123t165 -49h129l-29 -47h-104q-167 0 -251.5 -77.5t-84.5 -193.5q0 -89 66.5 -140.5t179.5 -51.5q65 0 146.5 24t140.5 68l24 -45q-64 -48 -151.5 -74t-163.5 -26q-131 0 -219 64t-88 181q0 109 64 190t179 113q-60 26 -91.5 75.5t-31.5 111.5
q0 79 30.5 141.5t81 99.5t110.5 55.5t125 18.5q181 0 272 -121l-37 -34q-84 102 -237 102q-113 0 -196 -68t-83 -194z" />
    <glyph glyph-name="zeta" unicode="&#x3b6;" horiz-adv-x="720" 
d="M418 1464h502l-9 -49q-166 -119 -291 -229.5t-224.5 -228.5t-158 -241.5t-75.5 -252.5q-10 -72 -10 -119q0 -39 5.5 -67t21.5 -51t33.5 -38t55 -31t70.5 -26.5t94 -28.5t86 -46.5t25 -73.5q0 -75 -55.5 -143t-141.5 -122l-37 39q75 47 121.5 104t46.5 113q0 30 -19.5 49
t-80.5 35q-80 21 -130.5 43t-88.5 56.5t-54 83t-16 118.5q0 45 10 113q42 252 220 477.5t513 466.5h-425z" />
    <glyph glyph-name="eta" unicode="&#x3b7;" horiz-adv-x="1007" 
d="M707 190l116 547q15 73 15 101q0 143 -156 143q-53 0 -111.5 -29t-113 -78.5t-97.5 -98.5t-84 -105l-139 -670h-61l164 776q26 126 26 162q0 37 -10 68l59 24q13 -41 13 -78q0 -38 -19 -133l-14 -63q52 72 110 130t138.5 103t156.5 45q96 0 147.5 -52t51.5 -140
q0 -38 -12 -90l-119 -562q-16 -74 -16 -106q0 -28 12 -39.5t41 -11.5q21 0 45 8l4 -45q-37 -12 -72 -12q-52 0 -72 24.5t-20 65.5q0 33 17 116z" />
    <glyph glyph-name="theta" unicode="&#x3b8;" horiz-adv-x="931" 
d="M104 354q0 178 52 404q88 382 207 553.5t299 171.5q138 0 201 -93.5t63 -271.5q0 -104 -60 -370q-85 -393 -203.5 -579.5t-308.5 -186.5q-118 0 -184 91.5t-66 280.5zM358 33q304 0 443 696h-584q-47 -192 -47 -389q0 -153 49 -230t139 -77zM657 1430q-69 0 -127 -31
t-101 -84t-81 -138t-66 -179.5t-57 -221.5h584q51 241 51 352q0 160 -47.5 231t-155.5 71z" />
    <glyph glyph-name="iota" unicode="&#x3b9;" horiz-adv-x="428" 
d="M111 190l176 834l65 10l-180 -844q-16 -74 -16 -106q0 -28 12 -39.5t41 -11.5q21 0 45 8l4 -45q-38 -12 -72 -12q-52 0 -72 24.5t-20 65.5q0 33 17 116z" />
    <glyph glyph-name="kappa" unicode="&#x3ba;" horiz-adv-x="798" 
d="M711 -16l-432 559l544 485l39 -35l-510 -454l414 -535zM291 735l-156 -735h-59l155 741q4 20 10.5 52t9 45t6 33t4.5 35t1 32q0 46 -10 66l59 24q15 -34 15 -82q0 -36 -35 -211z" />
    <glyph glyph-name="lambda" unicode="&#x3bb;" horiz-adv-x="899" 
d="M545 1006l28 -15l-32 320q-12 119 -95 119q-46 0 -96 -37l-22 47q61 43 123 43q131 0 147 -160l119 -1184q6 -61 17 -83.5t34 -22.5q26 0 66 14l2 -47q-37 -16 -72 -16q-49 0 -73.5 28t-31.5 107l-79 821h-5q-30 -76 -114 -231l-393 -725l-62 20l463 842q47 88 76 160z
" />
    <glyph glyph-name="uni03BC" unicode="&#x3bc;" horiz-adv-x="1007" 
d="M963 1034l-172 -839q-15 -69 -15 -111q0 -28 12 -39.5t41 -11.5q21 0 45 8l5 -45q-37 -12 -72 -12q-52 0 -72 24.5t-20 65.5q0 72 24 155q-57 -109 -150.5 -177t-207.5 -68q-134 0 -209 106q-18 -85 -55 -254.5t-51 -238.5l-64 -13l305 1440l60 10l-179 -864
q28 -57 78 -95t119 -38q68 0 137.5 37t119 89.5t83 106t41.5 90.5l137 664z" />
    <glyph glyph-name="nu" unicode="&#x3bd;" horiz-adv-x="821" 
d="M287 -10h-45l-101 1028l60 10l90 -954h4q164 199 298.5 450.5t188.5 495.5h58q-54 -258 -208.5 -537.5t-344.5 -492.5z" />
    <glyph glyph-name="xi" unicode="&#x3be;" horiz-adv-x="761" 
d="M893 1415h-160q-92 0 -166 -31t-119.5 -82.5t-69.5 -113.5t-24 -127q0 -105 44 -152t137 -47h176l-15 -49h-155q-189 0 -283 -103.5t-94 -301.5q0 -60 12.5 -105t32.5 -73.5t57.5 -51t73.5 -35.5t94 -28q80 -21 114 -49.5t34 -81.5q0 -75 -56 -144t-141 -123l-37 39
q168 109 168 217q0 37 -21.5 51.5t-86.5 34.5q-3 1 -10 3l-54 16.5t-49.5 17.5t-47.5 21t-40.5 25t-37 32.5t-28.5 40.5t-23 51.5t-12.5 63.5t-5.5 78q0 170 82.5 289t223.5 151q-115 51 -115 213q0 71 25 138t83 126.5t142 89.5h-209l12 49h563z" />
    <glyph glyph-name="omicron" unicode="&#x3bf;" horiz-adv-x="1009" 
d="M414 33q76 0 142.5 30t114 81t85 117t60.5 140.5t34.5 148t11.5 142.5q0 293 -252 293q-90 0 -166 -41.5t-127 -109t-87.5 -154.5t-53 -177t-16.5 -177q0 -293 254 -293zM401 -18q-82 0 -142.5 28.5t-95 79t-51 113t-16.5 137.5q0 90 18.5 183.5t60.5 186.5t102 165.5
t150.5 117.5t197.5 45q81 0 141 -28.5t94.5 -79.5t51 -112.5t16.5 -135.5q0 -94 -19.5 -189.5t-61.5 -188t-102 -163.5t-149.5 -115t-194.5 -44z" />
    <glyph glyph-name="pi" unicode="&#x3c0;" horiz-adv-x="1001" 
d="M723 0h-57q52 487 161 973h-405q-73 -349 -244 -887q-10 -26 -39 -86h-67q38 56 59 121q154 489 231 852h-32q-130 0 -211 -43v51q72 39 221 39h766l-29 -47h-190q-129 -618 -164 -973z" />
    <glyph glyph-name="rho" unicode="&#x3c1;" horiz-adv-x="999" 
d="M63 -403l-63 -13l231 1082q37 173 131 270.5t267 97.5q130 0 213.5 -84t83.5 -250q0 -104 -20.5 -206.5t-63 -194.5t-102 -162t-143 -111.5t-179.5 -41.5q-66 0 -135 24.5t-117 63.5zM623 981q-49 0 -96 -14.5t-95 -48t-86 -98.5t-57 -156l-111 -537q45 -41 112 -65.5
t132 -24.5q103 0 188.5 58.5t138.5 154t82 211t29 235.5q0 146 -64.5 215.5t-172.5 69.5z" />
    <glyph glyph-name="sigma1" unicode="&#x3c2;" horiz-adv-x="800" 
d="M584 981q-73 0 -142 -39t-120.5 -102t-90.5 -140.5t-59 -158t-20 -150.5q0 -118 63.5 -174.5t216.5 -91.5q105 -24 139.5 -59.5t34.5 -88.5q0 -68 -58.5 -141t-137.5 -119l-37 39q73 41 120.5 102t47.5 119q0 28 -25 49t-92 37q-86 19 -142 41.5t-103 60t-69 96
t-22 140.5q0 94 36.5 203t99 205.5t159 160.5t203.5 64q135 0 229 -82l-29 -49q-85 78 -202 78z" />
    <glyph glyph-name="sigma" unicode="&#x3c3;" horiz-adv-x="1013" 
d="M1036 973h-223q123 -108 123 -271q0 -92 -20 -189.5t-63.5 -192.5t-104.5 -169.5t-151 -120.5t-196 -46q-155 0 -229 97.5t-74 258.5q0 284 178 510q135 170 381 170h408zM754 973h-101q-207 0 -331 -160q-67 -81 -112.5 -211t-45.5 -262q0 -303 242 -303q104 0 193 59
t147 154t91 213t33 239q0 75 -28.5 147t-87.5 124z" />
    <glyph glyph-name="tau" unicode="&#x3c4;" horiz-adv-x="714" 
d="M238 279l147 694h-102q-130 0 -211 -43v51q68 39 221 39h526l-28 -47h-347l-147 -686q-21 -103 -21 -148q0 -56 24.5 -80t84.5 -24q63 0 123 26v-49q-64 -28 -135 -28q-154 0 -154 149q0 59 19 146z" />
    <glyph glyph-name="upsilon" unicode="&#x3c5;" horiz-adv-x="925" 
d="M276 788l-83 -397q-21 -99 -21 -178q0 -176 186 -176q86 0 152 33.5t123 111.5q50 69 85 167.5t50.5 204t21 188t5.5 165.5q0 68 -9 113h60q6 -50 6 -109q0 -552 -186 -780q-61 -74 -133.5 -110.5t-186.5 -36.5q-108 0 -172.5 56.5t-64.5 170.5q0 78 18 160l92 434
q21 100 21 143q0 29 -11 58l60 24q12 -34 12 -65q0 -59 -25 -177z" />
    <glyph glyph-name="phi" unicode="&#x3c6;" horiz-adv-x="1155" 
d="M518 -10l-84 -393l-63 -13l86 406q-79 6 -142.5 25.5t-117 57.5t-83.5 103t-30 152q0 197 96.5 396.5t255.5 315.5l29 -47q-137 -103 -227.5 -290.5t-90.5 -370.5q0 -271 322 -289l135 633q41 198 101 280t176 82q64 0 111.5 -31t73.5 -83.5t38 -112t12 -125.5
q0 -269 -125 -465q-83 -129 -197 -180t-276 -51zM657 655l-127 -612q49 1 89.5 6.5t90.5 20t90 38.5t80.5 66t69.5 98q101 194 101 410q0 48 -6.5 93t-23 96t-53.5 82.5t-91 31.5q-89 0 -136.5 -77t-83.5 -253z" />
    <glyph glyph-name="chi" unicode="&#x3c7;" horiz-adv-x="688" 
d="M793 1020l-392 -461l263 -559h-70l-236 512l-438 -512h-76l488 565l-211 455h74l182 -410l342 410h74z" />
    <glyph glyph-name="psi" unicode="&#x3c8;" horiz-adv-x="1134" 
d="M444 39l267 1245h59l-264 -1245q349 7 452 479q48 214 48 404q0 15 -3 49t-4 45l54 16q8 -51 8 -114q0 -190 -47 -404q-31 -148 -82.5 -252.5t-120 -163.5t-145 -85t-170.5 -27l-84 -389l-64 -13l86 402q-50 2 -93.5 10t-87 26.5t-74.5 47t-50.5 74t-19.5 104.5
q0 39 10 94l98 463q21 100 21 147q0 12 -11 54l60 24q12 -34 12 -67q0 -53 -25 -175l-98 -458q-8 -33 -8 -80q0 -203 276 -211z" />
    <glyph glyph-name="omega" unicode="&#x3c9;" horiz-adv-x="1155" 
d="M508 260l90 422h57l-75 -350q-21 -101 -21 -139q0 -79 28.5 -118.5t98.5 -39.5q78 0 140.5 59.5t98.5 146t60 193.5t32.5 191t8.5 149q0 112 -29 242l56 18q28 -115 28 -254q0 -42 -3.5 -93t-12 -117t-23.5 -131.5t-36 -132.5t-52 -124t-69 -102t-90.5 -70.5
t-112.5 -25.5q-75 0 -117 38.5t-53 100.5q-28 -64 -80.5 -101.5t-114.5 -37.5q-52 0 -92 17t-64.5 44t-40 64.5t-21 73.5t-5.5 77q0 190 67.5 391.5t184.5 382.5l55 -18q-109 -163 -180 -367.5t-71 -384.5q0 -42 6.5 -77.5t23 -72t51.5 -58t86 -21.5q76 0 123 63t68 162z
" />
    <glyph glyph-name="iotadieresis" unicode="&#x3ca;" horiz-adv-x="428" 
d="M111 190l176 834l65 10l-180 -844q-16 -74 -16 -106q0 -28 12 -39.5t41 -11.5q21 0 45 8l4 -45q-38 -12 -72 -12q-52 0 -72 24.5t-20 65.5q0 33 17 116zM500 1208q-21 0 -35 14t-14 35q0 20 14.5 35t34.5 15t34.5 -15t14.5 -35q0 -21 -14 -35t-35 -14zM217 1208
q-21 0 -35 14t-14 35q0 20 14.5 35t34.5 15q21 0 35 -14.5t14 -35.5t-14 -35t-35 -14z" />
    <glyph glyph-name="upsilondieresis" unicode="&#x3cb;" horiz-adv-x="925" 
d="M276 788l-83 -397q-21 -99 -21 -178q0 -176 186 -176q86 0 152 33.5t123 111.5q50 69 85 167.5t50.5 204t21 188t5.5 165.5q0 68 -9 113h60q6 -50 6 -109q0 -552 -186 -780q-61 -74 -133.5 -110.5t-186.5 -36.5q-108 0 -172.5 56.5t-64.5 170.5q0 78 18 160l92 434
q21 100 21 143q0 29 -11 58l60 24q12 -34 12 -65q0 -59 -25 -177zM719 1208q-21 0 -35 14t-14 35q0 20 14.5 35t34.5 15t34.5 -15t14.5 -35q0 -21 -14 -35t-35 -14zM436 1208q-21 0 -35 14t-14 35q0 20 14.5 35t34.5 15q21 0 35 -14.5t14 -35.5t-14 -35t-35 -14z" />
    <glyph glyph-name="omicrontonos" unicode="&#x3cc;" horiz-adv-x="1009" 
d="M414 33q76 0 142.5 30t114 81t85 117t60.5 140.5t34.5 148t11.5 142.5q0 293 -252 293q-90 0 -166 -41.5t-127 -109t-87.5 -154.5t-53 -177t-16.5 -177q0 -293 254 -293zM401 -18q-82 0 -142.5 28.5t-95 79t-51 113t-16.5 137.5q0 90 18.5 183.5t60.5 186.5t102 165.5
t150.5 117.5t197.5 45q81 0 141 -28.5t94.5 -79.5t51 -112.5t16.5 -135.5q0 -94 -19.5 -189.5t-61.5 -188t-102 -163.5t-149.5 -115t-194.5 -44zM659 1145h-57l135 313h60z" />
    <glyph glyph-name="upsilontonos" unicode="&#x3cd;" horiz-adv-x="925" 
d="M276 788l-83 -397q-21 -99 -21 -178q0 -176 186 -176q86 0 152 33.5t123 111.5q50 69 85 167.5t50.5 204t21 188t5.5 165.5q0 68 -9 113h60q6 -50 6 -109q0 -552 -186 -780q-61 -74 -133.5 -110.5t-186.5 -36.5q-108 0 -172.5 56.5t-64.5 170.5q0 78 18 160l92 434
q21 100 21 143q0 29 -11 58l60 24q12 -34 12 -65q0 -59 -25 -177zM575 1145h-57l135 313h60z" />
    <glyph glyph-name="omegatonos" unicode="&#x3ce;" horiz-adv-x="1155" 
d="M508 260l90 422h57l-75 -350q-21 -101 -21 -139q0 -79 28.5 -118.5t98.5 -39.5q78 0 140.5 59.5t98.5 146t60 193.5t32.5 191t8.5 149q0 112 -29 242l56 18q28 -115 28 -254q0 -42 -3.5 -93t-12 -117t-23.5 -131.5t-36 -132.5t-52 -124t-69 -102t-90.5 -70.5
t-112.5 -25.5q-75 0 -117 38.5t-53 100.5q-28 -64 -80.5 -101.5t-114.5 -37.5q-52 0 -92 17t-64.5 44t-40 64.5t-21 73.5t-5.5 77q0 190 67.5 391.5t184.5 382.5l55 -18q-109 -163 -180 -367.5t-71 -384.5q0 -42 6.5 -77.5t23 -72t51.5 -58t86 -21.5q76 0 123 63t68 162z
M727 1145h-57l135 313h59z" />
    <glyph glyph-name="uni03D0" unicode="&#x3d0;" horiz-adv-x="942" 
d="M96 729q15 63 31 120.5t44 135t59.5 141t77.5 129t97 110t119.5 73t143.5 28.5q102 0 164.5 -59.5t62.5 -159.5q0 -269 -307 -434q62 -8 108 -34.5t71.5 -67t37.5 -86.5t12 -101q0 -95 -32.5 -190.5t-90.5 -174t-149 -128t-197 -49.5q-147 0 -225 93t-78 275
q0 158 51 379zM160 721q-51 -232 -51 -393q0 -150 67 -222.5t180 -72.5q69 0 131.5 29t110 78t83 111.5t53.5 132.5t18 138q0 119 -59.5 181.5t-196.5 66.5q-67 -26 -129 -43l2 55q198 39 329 164.5t131 292.5q0 88 -40.5 131t-126.5 43q-84 0 -159 -48t-128 -120t-98 -169
t-71.5 -182t-45.5 -173z" />
    <glyph glyph-name="theta1" unicode="&#x3d1;" horiz-adv-x="1060" 
d="M141 401q19 88 19 134q0 24 -10 55l59 24q12 -44 12 -73q0 -16 -2.5 -34t-9 -56t-10.5 -60q-17 -107 -17 -164q0 -91 50.5 -142.5t158.5 -51.5q65 0 121 33.5t97.5 88.5t79.5 140.5t65 174.5t55 206q-59 11 -108 22.5t-107.5 31t-105 42.5t-91.5 56.5t-74.5 73t-48 92.5
t-18.5 114q0 166 98.5 270.5t253.5 104.5q88 0 151 -27t98 -78t51 -114.5t16 -145.5q0 -118 -23 -248q-20 -110 -38 -194t-44.5 -181t-54.5 -167.5t-67 -139t-83.5 -111.5t-102 -69t-124.5 -26q-133 0 -198.5 64.5t-65.5 178.5q0 95 18 176zM319 1108q0 -54 14 -99.5t36 -79
t60.5 -63t75.5 -49t94.5 -39.5t103 -32t114.5 -29q49 241 49 393q0 158 -61 239t-207 81q-128 0 -203.5 -90.5t-75.5 -231.5z" />
    <glyph glyph-name="Upsilon1" unicode="&#x3d2;" horiz-adv-x="948" 
d="M502 657l-140 -657h-61l119 537q47 209 47 317q0 170 -76.5 301.5t-216.5 222.5l29 52q314 -209 319 -547q158 341 545 544l25 -49q-233 -119 -386.5 -302t-203.5 -419z" />
    <glyph glyph-name="uni03D3" unicode="&#x3d3;" horiz-adv-x="948" 
d="M502 657l-140 -657h-61l119 537q47 209 47 317q0 170 -76.5 301.5t-216.5 222.5l29 52q314 -209 319 -547q158 341 545 544l25 -49q-233 -119 -386.5 -302t-203.5 -419zM-195 1180h-57l135 313h60z" />
    <glyph glyph-name="uni03D4" unicode="&#x3d4;" horiz-adv-x="948" 
d="M502 657l-140 -657h-61l119 537q47 209 47 317q0 170 -76.5 301.5t-216.5 222.5l29 52q314 -209 319 -547q158 341 545 544l25 -49q-233 -119 -386.5 -302t-203.5 -419zM801 1536q-21 0 -35 14t-14 35q0 20 14.5 34.5t34.5 14.5t34.5 -14.5t14.5 -34.5q0 -21 -14 -35
t-35 -14zM518 1536q-21 0 -35 14t-14 35q0 20 14.5 34.5t34.5 14.5q21 0 35 -14t14 -35t-14 -35t-35 -14z" />
    <glyph glyph-name="phi1" unicode="&#x3d5;" horiz-adv-x="1165" 
d="M446 37l199 944q-153 0 -266.5 -88t-169 -231t-55.5 -320q0 -146 68.5 -225t223.5 -80zM707 981l-199 -944q158 0 277 84t179 222t60 308q0 147 -79 238.5t-238 91.5zM772 1284l-51 -250q173 0 272 -109t99 -270q0 -135 -41 -256t-115.5 -213.5t-188 -147t-249.5 -54.5
l-84 -387l-64 -13l86 400q-169 0 -258.5 97t-89.5 257q0 198 70.5 356t201 249t299.5 91l52 250h61z" />
    <glyph glyph-name="uni0400" unicode="&#x400;" horiz-adv-x="956" 
d="M84 0l297 1405h692l-20 -55h-621l-125 -590h500l-12 -55h-500l-137 -650h657l-12 -55h-719zM858 1495l-356 209l35 57l346 -223z" />
    <glyph glyph-name="uni0401" unicode="&#x401;" horiz-adv-x="956" 
d="M84 0l297 1405h692l-20 -55h-621l-125 -590h500l-12 -55h-500l-137 -650h657l-12 -55h-719zM868 1536q-21 0 -35 14t-14 35q0 20 14.5 34.5t34.5 14.5t35 -14.5t15 -34.5q0 -21 -14.5 -35t-35.5 -14zM586 1536q-21 0 -35 14t-14 35q0 20 14.5 34.5t34.5 14.5q21 0 35 -14
t14 -35t-14 -35t-35 -14z" />
    <glyph glyph-name="uni0402" unicode="&#x402;" horiz-adv-x="1234" 
d="M311 0l287 1350h-379l10 55h867l-17 -55h-420l-120 -568q154 68 323 68q72 0 125.5 -17.5t84.5 -44.5t50 -66.5t25 -77.5t6 -83q0 -123 -43 -252.5t-117 -210.5q-107 -116 -284 -116q-127 0 -215 57l28 51l27 -16q70 -39 174 -39q73 0 134 30t101 80q62 73 95.5 193.5
t33.5 212.5q0 41 -3 69.5t-17.5 64.5t-40.5 57.5t-74.5 37t-117.5 15.5q-155 0 -308 -68l-153 -727h-62z" />
    <glyph glyph-name="uni0403" unicode="&#x403;" horiz-adv-x="741" 
d="M84 0l299 1405h594l-16 -55h-529l-287 -1350h-61zM877 1704l-361 -209l-22 41l346 225z" />
    <glyph glyph-name="uni0404" unicode="&#x404;" horiz-adv-x="1071" 
d="M565 -16q-407 0 -407 473q0 103 18.5 211t55 216t95.5 203.5t134 169.5t177 117t218 43q184 0 297 -104l-37 -41q-55 51 -117.5 72.5t-150.5 21.5q-92 0 -175 -34t-147 -91.5t-117.5 -136.5t-90 -165.5t-60.5 -182.5h576l-13 -51h-573q-27 -129 -27 -248q0 -420 365 -420
q166 0 319 100l25 -43q-171 -110 -365 -110z" />
    <glyph glyph-name="uni0405" unicode="&#x405;" horiz-adv-x="1052" 
d="M1030 1272q-132 98 -303 98q-104 0 -192.5 -36.5t-146.5 -115t-58 -186.5q0 -86 47.5 -139.5t154.5 -99.5l132 -58q245 -105 245 -301q0 -106 -43 -193t-116.5 -142.5t-168 -86t-198.5 -30.5q-206 0 -360 110l32 51q132 -108 340 -108q84 0 163.5 26.5t143 75t102 123.5
t38.5 164q0 95 -55.5 155.5t-165.5 106.5l-125 55q-116 49 -175 116.5t-59 162.5q0 102 40 181t108 126.5t151 71.5t176 24q196 0 328 -106z" />
    <glyph glyph-name="uni0406" unicode="&#x406;" horiz-adv-x="430" 
d="M84 0l297 1405h61l-297 -1405h-61z" />
    <glyph glyph-name="uni0407" unicode="&#x407;" horiz-adv-x="430" 
d="M84 0l297 1405h61l-297 -1405h-61zM565 1536q-21 0 -35 14t-14 35q0 20 14.5 34.5t34.5 14.5t34.5 -14.5t14.5 -34.5q0 -21 -14 -35t-35 -14zM283 1536q-21 0 -35.5 14t-14.5 35q0 20 15 34.5t35 14.5q21 0 35 -14t14 -35t-14 -35t-35 -14z" />
    <glyph glyph-name="uni0408" unicode="&#x408;" horiz-adv-x="477" 
d="M-127 -252l-25 43q160 58 226 146q32 42 55.5 116t60.5 246l236 1106h63l-247 -1169q-30 -143 -52.5 -209t-64.5 -119q-83 -103 -252 -160z" />
    <glyph glyph-name="uni0409" unicode="&#x409;" horiz-adv-x="1724" 
d="M1114 0h-340l285 1350h-490l-110 -418q-194 -752 -336 -879q-44 -42 -150 -59l-39 -6l-6 53l37 8q80 17 123 60q29 29 61.5 88.5t67 153.5t60.5 170t61.5 201t50.5 179t45 168l88 336h611l-127 -600h233q87 0 158 -16t131 -51.5t93.5 -100t33.5 -154.5q0 -127 -44.5 -223
t-121.5 -151t-171 -82t-204 -27zM1210 750h-217l-147 -695h276q93 0 173.5 23.5t147.5 71.5t105.5 131t38.5 192q0 83 -29 140t-84 85.5t-117.5 40t-146.5 11.5z" />
    <glyph glyph-name="uni040A" unicode="&#x40a;" horiz-adv-x="1787" 
d="M84 0l297 1405h61l-127 -600h693l127 600h61l-127 -600h234q69 0 127.5 -9.5t112.5 -32.5t92 -59t60.5 -92.5t22.5 -128.5q0 -103 -29.5 -185.5t-79.5 -137t-119.5 -91.5t-147 -53t-164.5 -16h-340l157 752h-692l-158 -752h-61zM1274 752h-217l-148 -697h277
q93 0 173.5 23.5t147.5 71.5t105.5 131t38.5 192q0 67 -20 117.5t-53 81t-83 49t-102.5 25t-118.5 6.5z" />
    <glyph glyph-name="uni040B" unicode="&#x40b;" horiz-adv-x="1306" 
d="M309 0l287 1350h-377l10 55h865l-17 -55h-420l-120 -572q157 68 323 68q63 0 116.5 -13t97.5 -40t69.5 -75.5t25.5 -113.5q0 -60 -16 -135l-100 -469h-62l99 465q14 65 14 121q0 205 -264 205q-156 0 -316 -68l-153 -723h-62z" />
    <glyph glyph-name="uni040C" unicode="&#x40c;" horiz-adv-x="1107" 
d="M1202 1419l4 -49l-59 -10q-39 -6 -65.5 -19t-47.5 -41t-33.5 -53t-35.5 -78l-91 -202q-20 -45 -35 -73.5t-39 -62t-55.5 -54t-70.5 -29.5l-2 -5q31 -12 51.5 -34.5t30.5 -54t14 -58.5t6 -64l14 -282q5 -100 17 -130q20 -51 93 -69q5 -1 9 -2l45 -8l-24 -53l-58 8
q-43 6 -72 20t-46 32t-26 51.5t-11.5 65.5t-3.5 87l-4 227q-1 29 -1.5 44t-2.5 42t-6.5 42t-12 36t-19.5 32.5t-28.5 23.5t-39.5 17t-52 5h-248l-152 -721h-61l297 1405h61l-133 -631h252q57 0 97.5 15t69.5 48.5t46.5 67t40.5 90.5l86 211q40 101 90 148.5t150 58.5z
M1006 1704l-361 -209l-22 41l346 225z" />
    <glyph glyph-name="uni040D" unicode="&#x40d;" horiz-adv-x="1212" 
d="M84 0l297 1405h57l-241 -1141q-41 -169 -45 -180h6q12 20 68 91t57 73l862 1157h80l-297 -1405h-60l242 1141q24 124 41 180h-6q-65 -91 -121 -164l-866 -1157h-74zM942 1495l-356 209l35 57l346 -223z" />
    <glyph glyph-name="uni040E" unicode="&#x40e;" horiz-adv-x="954" 
d="M317 1405l193 -961l528 961h70l-576 -1043q-9 -16 -27.5 -50t-27 -48.5t-24 -41.5t-23.5 -40t-21.5 -34t-23 -32.5t-22 -26t-24.5 -24.5t-24 -18q-59 -41 -186 -59l-31 -4l-4 53l39 6q111 23 152 53q36 26 70 75t85 142l52 97l-39 -9l-203 1004h67zM924 1737l39 -39
q-128 -176 -320 -176q-100 0 -161.5 49t-86.5 129l56 37q29 -68 75 -107t125 -39q149 0 273 146z" />
    <glyph glyph-name="uni040F" unicode="&#x40f;" horiz-adv-x="1177" 
d="M84 0l297 1405h61l-286 -1350h686l286 1350h62l-297 -1405h-373l-80 -373h-59l80 373h-377z" />
    <glyph glyph-name="uni0410" unicode="&#x410;" 
d="M825 0l-55 479h-565l-256 -479h-70l762 1405h82l168 -1405h-66zM567 1153l-334 -621h531l-92 824q-47 -97 -105 -203z" />
    <glyph glyph-name="uni0411" unicode="&#x411;" horiz-adv-x="1097" 
d="M424 0h-340l297 1405h647l-16 -55h-582l-115 -545h234q87 0 158 -16t131 -51.5t93.5 -100t33.5 -154.5q0 -127 -44.5 -223t-121.5 -151t-171 -82t-204 -27zM520 750h-217l-147 -695h276q93 0 173.5 23.5t147.5 71.5t105.5 131t38.5 192q0 83 -29 140t-84 85.5t-117.5 40
t-146.5 11.5z" />
    <glyph glyph-name="uni0412" unicode="&#x412;" horiz-adv-x="1091" 
d="M84 0l297 1405h295q389 0 389 -272q0 -91 -38.5 -171t-124 -140.5t-206.5 -78.5q130 -14 212.5 -87t82.5 -195q0 -233 -155.5 -347t-446.5 -114h-305zM307 770h285q71 0 140.5 22t129.5 64t97.5 112.5t37.5 157.5q0 65 -22.5 110t-65 69t-94.5 34.5t-121 10.5h-264z
M154 53h264q253 0 380.5 103.5t127.5 304.5q0 68 -30 118.5t-81.5 79.5t-112 42.5t-129.5 13.5h-276z" />
    <glyph glyph-name="uni0413" unicode="&#x413;" horiz-adv-x="741" 
d="M84 0l299 1405h594l-16 -55h-529l-287 -1350h-61z" />
    <glyph glyph-name="uni0414" unicode="&#x414;" horiz-adv-x="1171" 
d="M6 0l-78 -373h-61l90 428h76q109 185 188 359q154 337 268 778l56 213h624l-284 -1350h98l-90 -428h-62l78 373h-903zM98 55h725l273 1295h-502l-57 -217q-96 -361 -211 -633q-96 -226 -228 -445z" />
    <glyph glyph-name="uni0415" unicode="&#x415;" horiz-adv-x="956" 
d="M84 0l297 1405h692l-20 -55h-621l-125 -590h500l-12 -55h-500l-137 -650h657l-12 -55h-719z" />
    <glyph glyph-name="uni0416" unicode="&#x416;" horiz-adv-x="1712" 
d="M1806 1419l4 -49l-59 -10q-39 -6 -65.5 -19t-47.5 -41t-33.5 -53t-35.5 -78l-90 -202q-19 -44 -35 -73t-40 -62.5t-55.5 -54t-70.5 -29.5l-2 -5q31 -12 51.5 -34.5t30.5 -54t14 -58.5t6 -64l15 -282q5 -100 16 -129q20 -51 90 -69q6 -2 12 -3l45 -8l-24 -53l-57 8
q-43 6 -72 20t-46.5 32t-26.5 51t-11.5 66t-3.5 87l-4 227q-1 29 -1.5 44t-2.5 42t-6.5 42t-12 36t-19.5 32.5t-28.5 23.5t-39.5 17t-52 5h-213l-152 -721h-61l151 721h-206q-59 0 -103 -15.5t-75 -48.5t-51 -69t-42 -90l-96 -246q-27 -70 -46 -107.5t-49.5 -72t-72.5 -52
t-106 -26.5l-47 -6l-9 53l47 8q37 7 63.5 19t44.5 25t35 40t28 49.5t30 67.5l123 282q36 83 84 139.5t123 73.5l2 5q-111 41 -115 217l-6 211q-1 41 -2 60t-6.5 43t-16 35.5t-29.5 22t-48 17.5l-54 12l29 51l55 -8q85 -13 111.5 -58.5t26.5 -152.5l2 -205q0 -49 7.5 -86
t25.5 -69t53 -49t86 -17h217l133 631h61l-133 -631h217q57 0 97.5 15t69.5 48.5t46.5 67t40.5 90.5l86 211q40 101 90 148.5t150 58.5z" />
    <glyph glyph-name="uni0417" unicode="&#x417;" horiz-adv-x="950" 
d="M438 702h-94l12 54h76q177 0 297.5 104.5t120.5 253.5q0 112 -64.5 183t-193.5 71q-173 0 -338 -106l-21 45q173 112 369 112q150 0 235 -84t85 -211q0 -78 -29.5 -146t-79 -115.5t-109.5 -79.5t-126 -46l-3 -6q127 -21 200 -98.5t73 -198.5q0 -86 -30.5 -160.5
t-82 -126.5t-120 -89.5t-144.5 -55.5t-154 -18q-208 0 -350 108l37 45q129 -106 313 -106q122 0 225 45t169.5 138.5t66.5 219.5q0 133 -91.5 200.5t-248.5 67.5z" />
    <glyph glyph-name="uni0418" unicode="&#x418;" horiz-adv-x="1212" 
d="M84 0l297 1405h57l-241 -1141q-41 -169 -45 -180h6q12 20 68 91t57 73l862 1157h80l-297 -1405h-60l242 1141q24 124 41 180h-6q-65 -91 -121 -164l-866 -1157h-74z" />
    <glyph glyph-name="uni0419" unicode="&#x419;" horiz-adv-x="1212" 
d="M84 0l297 1405h57l-241 -1141q-41 -169 -45 -180h6q12 20 68 91t57 73l862 1157h80l-297 -1405h-60l242 1141q24 124 41 180h-6q-65 -91 -121 -164l-866 -1157h-74zM1057 1737l39 -39q-128 -176 -320 -176q-100 0 -161.5 49t-86.5 129l56 37q29 -68 75 -107t125 -39
q149 0 273 146z" />
    <glyph glyph-name="uni041A" unicode="&#x41a;" horiz-adv-x="1107" 
d="M1202 1419l4 -49l-59 -10q-39 -6 -65.5 -19t-47.5 -41t-33.5 -53t-35.5 -78l-91 -202q-20 -45 -35 -73.5t-39 -62t-55.5 -54t-70.5 -29.5l-2 -5q31 -12 51.5 -34.5t30.5 -54t14 -58.5t6 -64l14 -282q5 -100 17 -130q20 -51 93 -69q5 -1 9 -2l45 -8l-24 -53l-58 8
q-43 6 -72 20t-46 32t-26 51.5t-11.5 65.5t-3.5 87l-4 227q-1 29 -1.5 44t-2.5 42t-6.5 42t-12 36t-19.5 32.5t-28.5 23.5t-39.5 17t-52 5h-248l-152 -721h-61l297 1405h61l-133 -631h252q57 0 97.5 15t69.5 48.5t46.5 67t40.5 90.5l86 211q40 101 90 148.5t150 58.5z" />
    <glyph glyph-name="uni041B" unicode="&#x41b;" horiz-adv-x="1138" 
d="M1151 1405l-297 -1405h-61l284 1350h-508l-110 -418q-194 -752 -336 -879q-44 -42 -150 -59l-39 -6l-6 53l37 8q80 17 123 60q29 29 61.5 88.5t67 153.5t60.5 170t61.5 201t50.5 179t45 168l88 336h629z" />
    <glyph glyph-name="uni041C" unicode="&#x41c;" horiz-adv-x="1495" 
d="M43 0l420 1405h90l96 -1094q17 -189 17 -227q24 64 104 221l563 1100h92l-170 -1405h-61l139 1151q19 145 27 195q-75 -152 -82 -166l-602 -1180h-58l-102 1141q-14 157 -14 205l-396 -1346h-63z" />
    <glyph glyph-name="uni041D" unicode="&#x41d;" horiz-adv-x="1189" 
d="M84 0l297 1405h61l-133 -631h695l135 631h63l-297 -1405h-63l151 721h-696l-152 -721h-61z" />
    <glyph glyph-name="uni041E" unicode="&#x41e;" horiz-adv-x="1277" 
d="M545 31q92 0 174 34.5t142.5 92.5t110.5 136t83.5 163.5t56.5 177t33 174.5t10 158q0 401 -332 401q-107 0 -199.5 -46t-157 -123.5t-114.5 -173.5t-79 -203t-43.5 -205t-14.5 -185q0 -401 330 -401zM532 -16q-107 0 -184 37t-119 103.5t-60.5 144.5t-18.5 175
q0 128 23 259t76.5 261t130.5 230t195 162.5t261 62.5q107 0 184.5 -37.5t120 -104.5t61.5 -146t19 -175q0 -90 -12 -182.5t-38 -188.5t-64 -183t-95 -164t-125.5 -133t-159.5 -88.5t-195 -32.5z" />
    <glyph glyph-name="uni041F" unicode="&#x41f;" horiz-adv-x="1177" 
d="M1190 1405l-297 -1405h-62l285 1350h-684l-287 -1350h-61l297 1405h809z" />
    <glyph glyph-name="uni0420" unicode="&#x420;" horiz-adv-x="1028" 
d="M84 0l297 1405h278q68 0 126.5 -9.5t113 -32.5t93.5 -59t62 -92.5t23 -128.5q0 -103 -29 -185.5t-78 -137.5t-116.5 -92t-143 -53.5t-159.5 -16.5h-281l-125 -598h-61zM283 651h276q71 0 135 14.5t122.5 46.5t101 80t67.5 120t25 161q0 83 -28 140t-81 85.5t-113 40
t-141 11.5h-217z" />
    <glyph glyph-name="uni0421" unicode="&#x421;" horiz-adv-x="1050" 
d="M555 -16q-408 0 -408 473q0 103 19 211t55 216t95.5 203.5t134 169.5t177 117t218.5 43q184 0 297 -104l-37 -41q-55 51 -117.5 72.5t-150.5 21.5q-102 0 -192.5 -40.5t-158 -110.5t-121 -160.5t-87 -192.5t-51 -205t-17.5 -200q0 -420 364 -420q167 0 320 100l25 -43
q-171 -110 -365 -110z" />
    <glyph glyph-name="uni0422" unicode="&#x422;" horiz-adv-x="858" 
d="M324 0l286 1350h-401l10 55h875l-17 -55h-405l-287 -1350h-61z" />
    <glyph glyph-name="uni0423" unicode="&#x423;" horiz-adv-x="954" 
d="M317 1405l193 -961l528 961h70l-576 -1043q-9 -16 -27.5 -50t-27 -48.5t-24 -41.5t-23.5 -40t-21.5 -34t-23 -32.5t-22 -26t-24.5 -24.5t-24 -18q-59 -41 -186 -59l-31 -4l-4 53l39 6q111 23 152 53q36 26 70 75t85 142l52 97l-39 -9l-203 1004h67z" />
    <glyph glyph-name="uni0424" unicode="&#x424;" horiz-adv-x="1347" 
d="M535 0l45 225q-92 10 -168.5 42t-136 87t-92.5 139.5t-33 190.5q0 149 50.5 265.5t140 189.5t208 110t258.5 35l43 203h61l-43 -205q196 -19 313 -137.5t117 -325.5q0 -147 -49.5 -262t-138 -187.5t-207 -110t-260.5 -36.5l-47 -223h-61zM217 684q0 -183 101 -287
t274 -118l203 952q-260 3 -419 -139t-159 -408zM1231 819q0 184 -99.5 287.5t-275.5 122.5l-201 -953q261 0 418.5 140.5t157.5 402.5z" />
    <glyph glyph-name="uni0425" unicode="&#x425;" horiz-adv-x="849" 
d="M1034 1405l-504 -649l301 -756h-73l-275 705l-538 -705h-78l586 762l-252 643h73l228 -590l454 590h78z" />
    <glyph glyph-name="uni0426" unicode="&#x426;" horiz-adv-x="1191" 
d="M84 0l297 1405h61l-284 -1350h684l286 1350h62l-287 -1350h101l-91 -428h-61l78 373h-846z" />
    <glyph glyph-name="uni0427" unicode="&#x427;" horiz-adv-x="1064" 
d="M780 0h-61l143 672q-158 -70 -336 -70q-63 0 -117.5 13t-100.5 40.5t-72.5 76t-26.5 114.5t14 135l92 424h62l-90 -422q-15 -69 -15 -125q0 -101 73.5 -150t201.5 -49q167 0 327 68l142 678h61z" />
    <glyph glyph-name="uni0428" unicode="&#x428;" horiz-adv-x="1699" 
d="M84 0l297 1405h61l-286 -1350h573l287 1350h61l-284 -1350h573l285 1350h61l-297 -1405h-1331z" />
    <glyph glyph-name="uni0429" unicode="&#x429;" horiz-adv-x="1714" 
d="M84 0l297 1405h61l-286 -1350h573l287 1350h61l-284 -1350h573l285 1350h61l-287 -1350h91l-91 -428h-61l78 373h-1358z" />
    <glyph glyph-name="uni042A" unicode="&#x42a;" horiz-adv-x="1267" 
d="M657 0h-340l285 1350h-393l10 55h457l-127 -600h233q87 0 158 -16t131 -51.5t93.5 -100t33.5 -154.5q0 -127 -44.5 -223t-121.5 -151t-171 -82t-204 -27zM754 750h-217l-148 -695h277q93 0 173.5 23.5t147 71.5t105 131t38.5 192q0 67 -20 117t-53 80.5t-83 48.5
t-102 24.5t-118 6.5z" />
    <glyph glyph-name="uni042B" unicode="&#x42b;" horiz-adv-x="1445" 
d="M424 0h-340l297 1405h61l-127 -600h234q87 0 158 -16t131 -51.5t93.5 -100t33.5 -154.5q0 -127 -44.5 -223t-121.5 -151t-171 -82t-204 -27zM520 750h-217l-147 -695h276q93 0 173.5 23.5t147.5 71.5t105.5 131t38.5 192q0 83 -29 140t-84 85.5t-117.5 40t-146.5 11.5z
M1100 0l297 1405h61l-297 -1405h-61z" />
    <glyph glyph-name="uni042C" unicode="&#x42c;" horiz-adv-x="1034" 
d="M424 0h-340l297 1405h61l-127 -600h234q87 0 158 -16t131 -51.5t93.5 -100t33.5 -154.5q0 -127 -44.5 -223t-121.5 -151t-171 -82t-204 -27zM520 750h-217l-147 -695h276q93 0 173.5 23.5t147.5 71.5t105.5 131t38.5 192q0 83 -29 140t-84 85.5t-117.5 40t-146.5 11.5z
" />
    <glyph glyph-name="uni042D" unicode="&#x42d;" horiz-adv-x="1034" 
d="M229 1260l-22 47q174 112 348 112q108 0 190.5 -41t131 -112t72.5 -158t24 -188q0 -112 -18 -222t-53.5 -215.5t-93 -195t-131.5 -158t-174 -107t-216 -38.5q-199 0 -312 102l37 47q108 -96 289 -96q119 0 222.5 56t176 150.5t120 212.5t67.5 249h-572l13 51h567
q10 75 10 164q0 198 -94 321t-279 123q-148 0 -303 -104z" />
    <glyph glyph-name="uni042E" unicode="&#x42e;" horiz-adv-x="1560" 
d="M831 -16q-101 0 -174 37t-113 103.5t-57.5 145t-17.5 174.5q0 130 25 277h-197l-152 -721h-61l297 1405h61l-133 -631h197q23 103 59 194t91 175t123 144.5t159.5 96t196.5 35.5q84 0 148.5 -25.5t106 -67.5t68 -102.5t37 -126t10.5 -141.5q0 -105 -16.5 -214t-49.5 -219
t-88.5 -206t-127.5 -171t-173 -118.5t-219 -43.5zM844 31q90 0 170 34.5t139 92.5t108 136t82 163.5t55 177t32 174.5t10 158q0 401 -318 401q-104 0 -193 -46t-151.5 -123.5t-110.5 -173.5t-76 -203t-42 -205t-14 -185q0 -401 309 -401z" />
    <glyph glyph-name="uni042F" unicode="&#x42f;" horiz-adv-x="1112" 
d="M1124 1405l-299 -1405h-71l137 655h-209q-131 0 -204 -44.5t-122 -168.5l-75 -190q-53 -136 -105 -191q-52 -50 -160 -65l-53 -8l-8 51l49 10q80 18 115 53q37 37 86 148l98 227q80 182 215 203v6q-103 28 -162 113.5t-59 193.5q0 89 30 160t80 117.5t119 77t143.5 44
t157.5 13.5h297zM700 709h203l135 641h-223q-92 0 -171 -19.5t-143.5 -60.5t-101.5 -112.5t-37 -166.5q0 -135 95.5 -208.5t242.5 -73.5z" />
    <glyph glyph-name="uni0430" unicode="&#x430;" 
d="M659 1032q134 0 238 -74q-33 -136 -39 -163l-106 -510q-19 -90 -19 -135q0 -70 49 -127l-47 -37q-61 64 -61 166q0 38 8 79q-130 -245 -338 -245q-133 0 -195.5 86.5t-62.5 230.5q0 155 47.5 292.5t126.5 232.5t183.5 149.5t215.5 54.5zM702 342l125 592q-74 47 -176 47
q-95 0 -185.5 -51t-160.5 -139t-112.5 -217t-42.5 -275q0 -122 50 -192t158 -70q197 0 344 305z" />
    <glyph glyph-name="uni0431" unicode="&#x431;" horiz-adv-x="1048" 
d="M428 -18q-157 0 -232 103t-75 284q0 173 96 512q113 385 391 497l299 121q70 29 111 55l22 -55q-61 -37 -122 -61l-275 -111q-158 -63 -247 -190.5t-154 -366.5l6 -2q66 116 169 184t234 68q80 0 141 -28t97 -77t54 -111.5t18 -137.5q0 -90 -19 -182.5t-61 -183
t-102.5 -161t-151.5 -114t-199 -43.5zM442 33q91 0 167.5 42t127.5 109t87.5 153t52.5 172.5t16 168.5q0 44 -6.5 83t-23.5 78t-44.5 66.5t-73.5 44.5t-106 17q-90 0 -166 -39t-128 -102.5t-88.5 -145.5t-53.5 -168t-17 -170q0 -309 256 -309z" />
    <glyph glyph-name="uni0432" unicode="&#x432;" horiz-adv-x="954" 
d="M84 43l135 649q31 147 128.5 246.5t252.5 99.5q108 0 180 -58.5t72 -168.5q0 -106 -62.5 -183t-168.5 -100q77 -18 125.5 -76t48.5 -145q0 -84 -33 -148.5t-89.5 -102t-124 -56t-142.5 -18.5q-185 0 -322 61zM240 500l-88 -426q111 -41 258 -41q83 0 151.5 25.5t116 88
t47.5 154.5q0 86 -59.5 142.5t-159.5 56.5h-266zM252 551h254q48 0 95.5 15.5t89 45t67.5 78.5t26 109q0 87 -53 136.5t-141 49.5q-121 0 -200 -75.5t-101 -184.5z" />
    <glyph glyph-name="uni0433" unicode="&#x433;" horiz-adv-x="847" 
d="M233 922l-18 53q157 63 301 63q53 0 97.5 -11.5t82.5 -36.5t60 -69.5t22 -105.5q0 -40 -11.5 -75t-27.5 -60.5t-47 -51t-54 -41t-65 -35t-64.5 -28.5t-66.5 -26q-187 -69 -253 -124t-66 -155q0 -66 36 -109.5t89 -60t121 -16.5q143 0 303 78l18 -50q-151 -79 -338 -79
q-59 0 -110.5 12.5t-95.5 39t-69.5 73t-25.5 108.5q0 54 20.5 99t43.5 73t78.5 59.5t84.5 44t102 41.5q4 2 6 2.5t5 2t6 2.5q143 55 200 92q114 74 114 180q0 93 -59.5 133.5t-147.5 40.5q-123 0 -271 -63z" />
    <glyph glyph-name="uni0434" unicode="&#x434;" horiz-adv-x="1069" 
d="M598 1020q164 0 317 -109q5 87 5 93q0 107 -19.5 185.5t-63.5 137.5t-122 89t-189 30q-52 0 -106 -4l16 47q45 10 111 10q122 0 208 -36.5t134 -106t69 -156t21 -199.5q0 -87 -8.5 -178.5t-29 -192.5t-51 -193t-78.5 -176t-107 -145t-140.5 -97.5t-175.5 -36.5
q-145 0 -220 96t-75 260q0 95 21 191t64 184.5t102 156.5t141.5 109t175.5 41zM403 33q71 0 134.5 29t111 77t87.5 115.5t68 140t50 154.5t34.5 155t20.5 146q-61 49 -142 83t-161 34q-91 0 -167 -40t-126.5 -104.5t-86 -148.5t-51 -170.5t-15.5 -171.5q0 -61 12.5 -112
t39.5 -94.5t76 -68t115 -24.5z" />
    <glyph glyph-name="uni0435" unicode="&#x435;" horiz-adv-x="921" 
d="M379 492q-92 0 -186 8q-15 -80 -15 -156q0 -138 66.5 -223.5t201.5 -85.5q155 0 287 110l29 -41q-138 -120 -328 -120q-153 0 -237 99.5t-84 266.5q0 93 20 188t61.5 184.5t99 159.5t140.5 112t178 42q107 0 179.5 -59.5t72.5 -161.5q0 -323 -485 -323zM600 985
q-98 0 -181.5 -63.5t-135.5 -159.5t-80 -215q73 -6 178 -6q422 0 422 272q0 82 -56 127t-147 45z" />
    <glyph glyph-name="uni0436" unicode="&#x436;" horiz-adv-x="1615" 
d="M659 0l109 520h-190q-25 -144 -83 -265t-147.5 -197t-191.5 -76q-113 0 -191 90l33 41q76 -76 162 -76q99 0 185 98.5t134.5 251t48.5 313.5q0 132 -52 208.5t-148 76.5q-97 0 -187 -104l-26 43q53 61 107.5 87.5t121.5 26.5q87 0 145 -50t81.5 -124t23.5 -166
q0 -66 -6 -127h190l96 453l66 10l-98 -463h192q32 129 90 233t142 169t178 65q111 0 192 -90l-34 -41q-40 40 -77 59t-85 19q-99 0 -185.5 -99.5t-135 -252.5t-48.5 -314q0 -132 52.5 -209t148.5 -77q94 0 186 106l27 -43q-54 -60 -109 -87t-121 -27q-53 0 -95.5 19
t-71 50.5t-47.5 75.5t-27 92.5t-8 102.5q0 99 18 198h-195l-108 -520h-62z" />
    <glyph glyph-name="uni0437" unicode="&#x437;" horiz-adv-x="815" 
d="M287 565h53q42 0 84 8.5t82.5 27.5t71.5 46t50 68t19 90q0 63 -34 105t-82 58.5t-105 16.5q-125 0 -262 -67l-19 45q150 75 304 75q49 0 94.5 -13t84 -39t62 -70t23.5 -101q0 -111 -71 -180.5t-179 -91.5q93 -20 143.5 -84.5t50.5 -149.5q0 -90 -37 -156.5t-98 -102
t-128 -52t-140 -16.5q-173 0 -299 90l31 47q61 -49 136 -67.5t136 -18.5q42 0 84 7t88 27t80.5 50t57 81t22.5 115q0 55 -24.5 97t-64 64.5t-81.5 33t-84 10.5h-60z" />
    <glyph glyph-name="uni0438" unicode="&#x438;" horiz-adv-x="1046" 
d="M756 256q-36 -50 -75.5 -93t-91.5 -86.5t-113 -69t-122 -25.5q-105 0 -154.5 49.5t-49.5 136.5q0 44 12 96l157 752l64 12l-160 -749q-14 -68 -14 -107q0 -69 37.5 -105t124.5 -36q180 0 405 323l137 662l66 10l-160 -741q-18 -83 -18 -129q0 -43 10.5 -72t38.5 -61
l-47 -37q-60 63 -60 168q0 42 13 102z" />
    <glyph glyph-name="uni0439" unicode="&#x439;" horiz-adv-x="1046" 
d="M756 256q-36 -50 -75.5 -93t-91.5 -86.5t-113 -69t-122 -25.5q-105 0 -154.5 49.5t-49.5 136.5q0 44 12 96l157 752l64 12l-160 -749q-14 -68 -14 -107q0 -69 37.5 -105t124.5 -36q180 0 405 323l137 662l66 10l-160 -741q-18 -83 -18 -129q0 -43 10.5 -72t38.5 -61
l-47 -37q-60 63 -60 168q0 42 13 102zM905 1374l41 -35q-57 -75 -136 -121.5t-169 -46.5q-89 0 -147.5 47.5t-85.5 122.5l57 33q61 -137 188 -137q141 0 252 137z" />
    <glyph glyph-name="uni043A" unicode="&#x43a;" horiz-adv-x="942" 
d="M930 1034l18 -55q-164 -49 -292 -162.5t-238 -279.5h49q93 -5 132.5 -40.5t45.5 -119.5l17 -230q4 -58 22 -77t76 -33l33 -8l-19 -47l-39 4q-75 9 -105.5 44t-33.5 113l-10 201q-5 80 -34 108.5t-116 34.5h-51q-130 -210 -238 -487h-63l215 1024l66 12l-140 -661
q-17 -73 -37 -144h7q44 102 89.5 189.5t114.5 189.5t143.5 180t175.5 144.5t212 99.5z" />
    <glyph glyph-name="uni043B" unicode="&#x43b;" horiz-adv-x="980" 
d="M412 1020h487l-217 -1020h-61l204 971h-368l-62 -217q-55 -199 -119 -381q-68 -186 -99 -244q-57 -103 -141 -131q-28 -9 -61 -12l-24 -2l-4 49l30 4q25 3 47 14t39.5 25t36 42.5t31.5 52t32 70t32 80.5t36 97q57 161 117 375z" />
    <glyph glyph-name="uni043C" unicode="&#x43c;" horiz-adv-x="1323" 
d="M362 1020h95l98 -768q14 -137 14 -166h9q5 11 84 166l413 768h94l-108 -1020h-68l86 774q18 144 25 178h-8q-43 -96 -86 -174l-422 -778h-64l-98 772q-1 13 -5.5 52t-8 73.5t-4.5 54.5h-9q-22 -82 -51 -182l-229 -770h-66z" />
    <glyph glyph-name="uni043D" unicode="&#x43d;" horiz-adv-x="1042" 
d="M688 0l109 520h-545l-111 -520h-61l215 1024l65 10l-98 -463h545l96 453l66 10l-219 -1034h-62z" />
    <glyph glyph-name="uni043E" unicode="&#x43e;" horiz-adv-x="1009" 
d="M414 33q76 0 142.5 30t114 81t85 117t60.5 140.5t34.5 148t11.5 142.5q0 293 -252 293q-90 0 -166 -41.5t-127 -109t-87.5 -154.5t-53 -177t-16.5 -177q0 -293 254 -293zM401 -18q-82 0 -142.5 28.5t-95 79t-51 113t-16.5 137.5q0 90 18.5 183.5t60.5 186.5t102 165.5
t150.5 117.5t197.5 45q81 0 141 -28.5t94.5 -79.5t51 -112.5t16.5 -135.5q0 -94 -19.5 -189.5t-61.5 -188t-102 -163.5t-149.5 -115t-194.5 -44z" />
    <glyph glyph-name="uni043F" unicode="&#x43f;" horiz-adv-x="1024" 
d="M143 0h-61l164 776q26 126 26 162q0 37 -10 68l60 24q12 -38 12 -78q0 -38 -19 -133l-14 -63q52 71 110 129.5t139 103.5t157 45q96 0 147 -52t51 -140q0 -20 -12 -90l-158 -752h-61l155 737q15 73 15 101q0 143 -156 143q-53 0 -111.5 -29t-112.5 -78.5t-97 -98.5
t-84 -105z" />
    <glyph glyph-name="uni0440" unicode="&#x440;" horiz-adv-x="1044" 
d="M315 819l-10 -45q157 260 365 260q135 0 207.5 -88t72.5 -246q0 -97 -21 -196.5t-65.5 -193t-106 -166t-149.5 -116.5t-190 -44q-144 0 -260 88l-103 -475l-63 -13l254 1192q26 126 26 162q0 37 -10 68l60 24q12 -38 12 -78q0 -38 -19 -133zM651 981q-182 0 -368 -305
l-113 -549q45 -42 113 -66t137 -24q91 0 169 43t131 113t91.5 157.5t56 176.5t17.5 171q0 143 -57.5 213t-176.5 70z" />
    <glyph glyph-name="uni0441" unicode="&#x441;" horiz-adv-x="827" 
d="M408 -16q-76 0 -134.5 26.5t-94 73t-53 106t-17.5 129.5q0 177 66.5 341.5t187.5 270t264 105.5q126 0 219 -80l-29 -49q-84 76 -201 76q-119 0 -222.5 -97.5t-162.5 -250.5t-59 -316q0 -129 62.5 -206.5t185.5 -77.5q139 0 262 108l27 -43q-74 -61 -145 -88.5
t-156 -27.5z" />
    <glyph glyph-name="uni0442" unicode="&#x442;" horiz-adv-x="1533" 
d="M143 0h-61l164 776q26 126 26 162q0 37 -10 68l60 24q12 -38 12 -78q0 -38 -19 -133l-12 -61q78 115 177 195.5t206 80.5q89 0 133.5 -52t44.5 -138q0 -4 -10 -82q35 51 75.5 95.5t90 86t106 66t111.5 24.5q89 0 133.5 -52t44.5 -138q0 -34 -12 -92l-158 -752h-61
l155 737q17 87 17 105q0 139 -135 139q-51 0 -107 -28.5t-107 -77t-93 -99t-80 -106.5l-140 -670h-61l155 737q17 87 17 105q0 139 -135 139q-67 0 -143.5 -52t-133 -116.5t-108.5 -142.5z" />
    <glyph glyph-name="uni0443" unicode="&#x443;" horiz-adv-x="829" 
d="M2 -414l-14 47q96 27 161 100t170 269l-32 -4q0 58 -15 176l-114 842l61 18l96 -729q23 -170 23 -258h4q8 17 25 49.5t43 80.5t39 73l411 770h72l-574 -1057q-38 -69 -64 -112.5t-61 -92.5t-67.5 -79t-74 -55t-89.5 -38z" />
    <glyph glyph-name="uni0444" unicode="&#x444;" horiz-adv-x="1486" 
d="M586 -397l-68 -13l105 492q-113 -100 -263 -100q-71 0 -123.5 29.5t-81.5 79.5t-43 107t-14 121q0 76 12 156.5t36 161.5t63.5 152t89.5 126.5t118.5 88t147.5 32.5q63 0 124.5 -32.5t107.5 -94.5l123 574l67 14l-125 -586q49 47 122.5 86t158.5 39q71 0 122 -29.5
t78.5 -80.5t39.5 -107t12 -121q0 -96 -18 -194.5t-57.5 -192.5t-95 -167t-137 -117.5t-176.5 -44.5q-66 0 -124.5 29.5t-98.5 74.5zM379 41q149 0 258 109l145 690q-87 137 -217 137q-84 0 -154 -45t-115 -115t-76 -159.5t-44.5 -175t-13.5 -163.5q0 -56 11 -103.5t35.5 -88
t68 -63.5t102.5 -23zM1124 977q-82 0 -155.5 -43t-122.5 -96l-146 -686q82 -111 213 -111q72 0 134 31t106 84t79 119.5t55.5 141t31 145.5t10.5 136q0 45 -5.5 83.5t-20 75.5t-37 63t-59 41.5t-83.5 15.5z" />
    <glyph glyph-name="uni0445" unicode="&#x445;" horiz-adv-x="688" 
d="M793 1020l-392 -461l263 -559h-70l-236 512l-438 -512h-76l488 565l-211 455h74l182 -410l342 410h74z" />
    <glyph glyph-name="uni0446" unicode="&#x446;" horiz-adv-x="1099" 
d="M784 -293l62 293h-39q-64 31 -64 154q0 42 13 102q-36 -50 -75.5 -93t-91.5 -86.5t-113 -69t-122 -25.5q-105 0 -154.5 49.5t-49.5 136.5q0 44 12 96l157 752l64 12l-160 -749q-14 -68 -14 -107q0 -69 37.5 -105t124.5 -36q180 0 405 323l137 662l66 10l-160 -741
q-18 -83 -18 -129q0 -66 28 -99h97l-74 -350h-68z" />
    <glyph glyph-name="uni0447" unicode="&#x447;" horiz-adv-x="946" 
d="M301 1036l-74 -348q-6 -30 -6 -57q0 -85 61 -122.5t160 -37.5q128 0 252 53l107 500l63 12l-219 -1036h-61l100 467q-135 -49 -270 -49q-112 0 -184 49t-72 154q0 38 8 77l70 326z" />
    <glyph glyph-name="uni0448" unicode="&#x448;" horiz-adv-x="1554" 
d="M1260 248l2 8q-78 -115 -177 -195.5t-206 -80.5q-89 0 -134 52t-45 138q0 34 11 82q-35 -51 -75.5 -95.5t-90 -86t-106 -66t-111.5 -24.5q-89 0 -133.5 52t-44.5 138q0 34 12 92l160 762l63 10l-160 -758q-16 -74 -16 -104q0 -139 135 -139q51 0 107 28.5t107 77t93 99
t80 106.5l141 680l64 10l-160 -758q-16 -74 -16 -104q0 -139 135 -139q67 0 143.5 52t133 116.5t108.5 142.5l143 680l64 10l-154 -729q-22 -105 -22 -151q0 -66 49 -127l-47 -43q-66 69 -66 170q0 44 13 94z" />
    <glyph glyph-name="uni0449" unicode="&#x449;" horiz-adv-x="1607" 
d="M1292 -293l62 293h-23q-25 7 -43 25t-26 42.5t-11.5 45t-3.5 41.5q0 44 13 94l2 8q-78 -115 -177 -195.5t-206 -80.5q-89 0 -134 52t-45 138q0 34 11 82q-35 -51 -75.5 -95.5t-90 -86t-106 -66t-111.5 -24.5q-89 0 -133.5 52t-44.5 138q0 34 12 92l160 762l63 10
l-160 -758q-16 -74 -16 -104q0 -139 135 -139q51 0 107 28.5t107 77t93 99t80 106.5l141 680l64 10l-160 -758q-16 -74 -16 -104q0 -139 135 -139q67 0 143.5 52t133 116.5t108.5 142.5l143 680l64 10l-154 -729q-22 -105 -22 -151q0 -55 26 -97h97l-74 -350h-68z" />
    <glyph glyph-name="uni044A" unicode="&#x44a;" horiz-adv-x="1017" 
d="M489 1020l-94 -447q113 37 219 37q129 0 214 -64.5t85 -195.5q0 -179 -108 -273.5t-287 -94.5q-161 0 -295 63l193 926h-310l19 49h364zM383 522l-92 -448q106 -41 233 -41q152 0 237 84.5t85 228.5q0 105 -68 158t-178 53q-84 0 -217 -35z" />
    <glyph glyph-name="uni044B" unicode="&#x44b;" horiz-adv-x="1284" 
d="M928 0l217 1024l65 10l-219 -1034h-63zM369 1036l-99 -463q113 37 219 37q129 0 214 -64.5t85 -195.5q0 -179 -108 -273.5t-287 -94.5q-161 0 -295 63l205 979zM258 522l-92 -448q106 -41 233 -41q152 0 237 84.5t85 228.5q0 105 -68 158t-178 53q-84 0 -217 -35z" />
    <glyph glyph-name="uni044C" unicode="&#x44c;" horiz-adv-x="892" 
d="M369 1036l-99 -463q113 37 219 37q129 0 214 -64.5t85 -195.5q0 -179 -108 -273.5t-287 -94.5q-161 0 -295 63l205 979zM258 522l-92 -448q106 -41 233 -41q152 0 237 84.5t85 228.5q0 105 -68 158t-178 53q-84 0 -217 -35z" />
    <glyph glyph-name="uni044D" unicode="&#x44d;" horiz-adv-x="854" 
d="M246 -18q-192 0 -289 127l43 41q39 -54 107.5 -84.5t144.5 -30.5q187 0 301 160q87 121 129 292l6 27h-428l12 57h424q9 61 9 113q0 151 -74 225t-193 74q-131 0 -252 -92l-28 39q138 108 293 108q63 0 117.5 -20t99.5 -61.5t71.5 -113.5t26.5 -167q0 -166 -58.5 -324.5
t-164.5 -255.5q-120 -114 -297 -114z" />
    <glyph glyph-name="uni044E" unicode="&#x44e;" horiz-adv-x="1282" 
d="M682 -18q-151 0 -225 99t-74 261q0 95 16 176v2h-147l-111 -520h-61l215 1024l65 10l-98 -463h150l2 2q23 92 62.5 171t97.5 147t141 107.5t182 39.5q77 0 136 -28.5t94 -78.5t52 -113t17 -138q0 -92 -18.5 -186t-59.5 -187t-99 -164.5t-145.5 -116t-191.5 -44.5zM696 33
q87 0 161 42.5t123 111.5t84 156.5t50.5 175.5t15.5 171q0 46 -6 85.5t-23 79t-44 67.5t-71.5 45.5t-102.5 17.5q-72 0 -135.5 -29t-110 -78.5t-83.5 -114.5t-59.5 -139t-34 -149t-11.5 -147q0 -46 6 -85.5t23 -79t44 -67.5t71.5 -45.5t102.5 -17.5z" />
    <glyph glyph-name="uni044F" unicode="&#x44f;" horiz-adv-x="960" 
d="M881 1020l-215 -1020h-66l100 477h-202q-67 0 -111.5 -40t-85.5 -115l-94 -181q-44 -83 -83.5 -116t-113.5 -39l-24 -2l-11 49l29 4q48 7 76 36t67 97l101 178q22 37 38.5 61.5t49.5 54t67 36.5q-88 13 -143 77t-55 152q0 71 27 127t70 89.5t102 55t116.5 29.5t120.5 8
q110 0 240 -18zM713 528l92 441q-94 16 -182 16q-70 0 -129 -12t-112 -39.5t-83.5 -79.5t-30.5 -125q0 -83 63.5 -142t157.5 -59h224z" />
    <glyph glyph-name="uni0450" unicode="&#x450;" horiz-adv-x="921" 
d="M379 492q-92 0 -186 8q-15 -80 -15 -156q0 -138 66.5 -223.5t201.5 -85.5q155 0 287 110l29 -41q-138 -120 -328 -120q-153 0 -237 99.5t-84 266.5q0 93 20 188t61.5 184.5t99 159.5t140.5 112t178 42q107 0 179.5 -59.5t72.5 -161.5q0 -323 -485 -323zM600 985
q-98 0 -181.5 -63.5t-135.5 -159.5t-80 -215q73 -6 178 -6q422 0 422 272q0 82 -56 127t-147 45zM768 1167l-356 209l34 58l347 -224z" />
    <glyph glyph-name="uni0451" unicode="&#x451;" horiz-adv-x="921" 
d="M379 492q-92 0 -186 8q-15 -80 -15 -156q0 -138 66.5 -223.5t201.5 -85.5q155 0 287 110l29 -41q-138 -120 -328 -120q-153 0 -237 99.5t-84 266.5q0 93 20 188t61.5 184.5t99 159.5t140.5 112t178 42q107 0 179.5 -59.5t72.5 -161.5q0 -323 -485 -323zM600 985
q-98 0 -181.5 -63.5t-135.5 -159.5t-80 -215q73 -6 178 -6q422 0 422 272q0 82 -56 127t-147 45zM795 1208q-21 0 -35.5 14t-14.5 35q0 20 15 35t35 15t34.5 -15t14.5 -35q0 -21 -14 -35t-35 -14zM512 1208q-21 0 -35 14t-14 35q0 20 14.5 35t34.5 15q21 0 35 -14.5
t14 -35.5t-14 -35t-35 -14z" />
    <glyph glyph-name="uni0452" unicode="&#x452;" horiz-adv-x="1024" 
d="M741 1192h-344l-57 -268q-12 -59 -39 -170q38 52 80.5 97.5t95 88.5t112.5 68.5t118 25.5q96 0 147 -52t51 -140q0 -36 -12 -88l-154 -729q-13 -64 -24.5 -104t-31 -85t-45.5 -75t-66 -59t-95 -52l-22 41q104 44 148.5 114t76.5 224l149 708q15 73 15 101
q0 68 -39.5 105.5t-116.5 37.5q-172 0 -403 -309l-142 -672h-59l252 1192h-137l10 55h139q19 98 19 162q0 21 -9 66l62 20q8 -46 8 -82q0 -60 -20 -166h366z" />
    <glyph glyph-name="uni0453" unicode="&#x453;" horiz-adv-x="847" 
d="M233 922l-18 53q157 63 301 63q53 0 97.5 -11.5t82.5 -36.5t60 -69.5t22 -105.5q0 -40 -11.5 -75t-27.5 -60.5t-47 -51t-54 -41t-65 -35t-64.5 -28.5t-66.5 -26q-187 -69 -253 -124t-66 -155q0 -66 36 -109.5t89 -60t121 -16.5q143 0 303 78l18 -50q-151 -79 -338 -79
q-59 0 -110.5 12.5t-95.5 39t-69.5 73t-25.5 108.5q0 54 20.5 99t43.5 73t78.5 59.5t84.5 44t102 41.5q4 2 6 2.5t5 2t6 2.5q143 55 200 92q114 74 114 180q0 93 -59.5 133.5t-147.5 40.5q-123 0 -271 -63zM709 1376l-361 -209l-22 41l346 226z" />
    <glyph glyph-name="uni0454" unicode="&#x454;" horiz-adv-x="847" 
d="M414 -18q-78 0 -139 28.5t-97 77t-54 108t-18 126.5q0 129 37 256.5t102 230t163.5 166t212.5 63.5q155 0 243 -106l-41 -39q-80 88 -215 88q-137 0 -243 -116t-156 -296h418l-13 -53h-419q-25 -118 -25 -199q0 -130 67.5 -206t192.5 -76q142 0 266 112l31 -45
q-145 -120 -313 -120z" />
    <glyph glyph-name="uni0455" unicode="&#x455;" horiz-adv-x="866" 
d="M303 -18q-175 0 -305 92l29 45q130 -88 290 -88q85 0 157 26.5t120.5 86t48.5 143.5q0 78 -35.5 120t-136.5 85l-113 47q-94 39 -141 90t-47 129q0 95 52 160t133 93.5t184 28.5q143 0 264 -79l-27 -46q-108 74 -244 74q-58 0 -108.5 -11.5t-94.5 -36t-70 -68.5t-26 -103
q0 -65 34.5 -102t119.5 -74l115 -49q118 -50 163.5 -105.5t45.5 -140.5q0 -152 -111.5 -234.5t-296.5 -82.5z" />
    <glyph glyph-name="uni0456" unicode="&#x456;" horiz-adv-x="409" 
d="M84 0l215 1024l66 10l-220 -1034h-61zM389 1294q-22 0 -37.5 15.5t-15.5 38.5t15.5 39t37.5 16q23 0 39 -16t16 -39t-16 -38.5t-39 -15.5z" />
    <glyph glyph-name="uni0457" unicode="&#x457;" horiz-adv-x="409" 
d="M82 0l217 1024l66 10l-220 -1034h-63zM494 1208q-21 0 -35.5 14t-14.5 35q0 20 15 35t35 15t34.5 -15t14.5 -35q0 -21 -14 -35t-35 -14zM211 1208q-21 0 -35 14t-14 35q0 20 14.5 35t34.5 15q21 0 35 -14.5t14 -35.5t-14 -35t-35 -14z" />
    <glyph glyph-name="uni0458" unicode="&#x458;" horiz-adv-x="405" 
d="M-113 -350l-22 41q104 44 148.5 114t76.5 224l211 993l66 12l-215 -1009q-17 -79 -32.5 -128t-44.5 -98.5t-74.5 -84.5t-113.5 -64zM389 1294q-22 0 -37.5 15.5t-15.5 38.5t15.5 39t37.5 16q23 0 39 -16t16 -39t-16 -38.5t-39 -15.5z" />
    <glyph glyph-name="uni0459" unicode="&#x459;" horiz-adv-x="1423" 
d="M897 1020l-96 -447q113 37 219 37q129 0 214 -64.5t85 -195.5q0 -179 -108 -273.5t-287 -94.5q-161 0 -295 63l194 926h-366l-62 -217q-55 -199 -119 -381q-68 -186 -99 -244q-57 -103 -141 -131q-28 -9 -61 -12l-24 -2l-4 49l30 4q25 3 47 14t39.5 25t36 42.5t31.5 52
t32 70t32 80.5t36 97q57 161 117 375l64 227h485zM788 522l-92 -448q106 -41 234 -41q152 0 236.5 84.5t84.5 228.5q0 105 -67.5 158t-177.5 53q-85 0 -218 -35z" />
    <glyph glyph-name="uni045A" unicode="&#x45a;" horiz-adv-x="1501" 
d="M977 1036l-98 -463q113 37 219 37q129 0 214 -64.5t85 -195.5q0 -179 -108 -273.5t-288 -94.5q-160 0 -294 63l98 475h-535l-110 -520h-62l215 1024l66 10l-98 -463h534l96 453zM866 522l-92 -448q106 -41 234 -41q152 0 236.5 84.5t84.5 228.5q0 105 -68 158t-178 53
q-84 0 -217 -35z" />
    <glyph glyph-name="uni045B" unicode="&#x45b;" horiz-adv-x="1024" 
d="M741 1192h-344l-57 -268q-12 -59 -39 -170q38 52 80.5 97.5t95 88.5t112.5 68.5t118 25.5q96 0 147 -52t51 -140q0 -36 -12 -88l-158 -754h-61l155 737q15 73 15 101q0 68 -39.5 105.5t-116.5 37.5q-172 0 -403 -309l-142 -672h-59l252 1192h-137l10 55h139q19 98 19 162
q0 21 -9 66l62 20q8 -46 8 -82q0 -60 -20 -166h366z" />
    <glyph glyph-name="uni045C" unicode="&#x45c;" horiz-adv-x="942" 
d="M930 1034l18 -55q-164 -49 -292 -162.5t-238 -279.5h49q93 -5 132.5 -40.5t45.5 -119.5l17 -230q4 -58 22 -77t76 -33l33 -8l-19 -47l-39 4q-75 9 -105.5 44t-33.5 113l-10 201q-5 80 -34 108.5t-116 34.5h-51q-130 -210 -238 -487h-63l215 1024l66 12l-140 -661
q-17 -73 -37 -144h7q44 102 89.5 189.5t114.5 189.5t143.5 180t175.5 144.5t212 99.5zM846 1376l-361 -209l-22 41l346 226z" />
    <glyph glyph-name="uni045D" unicode="&#x45d;" horiz-adv-x="1046" 
d="M756 256q-36 -50 -75.5 -93t-91.5 -86.5t-113 -69t-122 -25.5q-105 0 -154.5 49.5t-49.5 136.5q0 44 12 96l157 752l64 12l-160 -749q-14 -68 -14 -107q0 -69 37.5 -105t124.5 -36q180 0 405 323l137 662l66 10l-160 -741q-18 -83 -18 -129q0 -43 10.5 -72t38.5 -61
l-47 -37q-60 63 -60 168q0 42 13 102zM823 1167l-356 209l35 58l346 -224z" />
    <glyph glyph-name="uni045E" unicode="&#x45e;" horiz-adv-x="829" 
d="M2 -414l-14 47q96 27 161 100t170 269l-32 -4q0 58 -15 176l-114 842l61 18l96 -729q23 -170 23 -258h4q8 17 25 49.5t43 80.5t39 73l411 770h72l-574 -1057q-38 -69 -64 -112.5t-61 -92.5t-67.5 -79t-74 -55t-89.5 -38zM780 1374l41 -35q-57 -75 -136 -121.5t-169 -46.5
q-89 0 -147.5 47.5t-85.5 122.5l57 33q61 -137 188 -137q141 0 252 137z" />
    <glyph glyph-name="uni045F" unicode="&#x45f;" horiz-adv-x="1046" 
d="M410 -358l63 303l74 28l-70 -331h-67zM756 256q-36 -50 -75.5 -93t-91.5 -86.5t-113 -69t-122 -25.5q-105 0 -154.5 49.5t-49.5 136.5q0 44 12 96l157 752l64 12l-160 -749q-14 -68 -14 -107q0 -69 37.5 -105t124.5 -36q180 0 405 323l137 662l66 10l-160 -741
q-18 -83 -18 -129q0 -43 10.5 -72t38.5 -61l-47 -37q-60 63 -60 168q0 42 13 102z" />
    <glyph glyph-name="uni0462" unicode="&#x462;" horiz-adv-x="1056" 
d="M465 0h-340l237 1122h-174l13 60h174l47 223h61l-47 -223h266l-14 -60h-264l-68 -317h234q87 0 158 -16t131 -51.5t93.5 -100t33.5 -154.5q0 -127 -44.5 -223t-121.5 -151t-171 -82t-204 -27zM561 750h-217l-147 -695h276q93 0 173.5 23.5t147.5 71.5t105.5 131t38.5 192
q0 83 -29 140t-84 85.5t-117.5 40t-146.5 11.5z" />
    <glyph glyph-name="uni0463" unicode="&#x463;" horiz-adv-x="901" 
d="M389 1036l-33 -155h234l-12 -58h-234l-53 -250q113 37 219 37q129 0 214 -64.5t85 -195.5q0 -179 -108 -273.5t-287 -94.5q-161 0 -295 63l162 778h-154l12 58h154l31 143zM279 522l-93 -448q106 -41 234 -41q152 0 236.5 84.5t84.5 228.5q0 105 -67.5 158t-177.5 53
q-84 0 -217 -35z" />
    <glyph glyph-name="uni0472" unicode="&#x472;" horiz-adv-x="1277" 
d="M532 -16q-107 0 -184 37t-119 103.5t-60.5 144.5t-18.5 175q0 128 23 259t76.5 261t130.5 230t195 162.5t261 62.5q107 0 184.5 -37.5t120 -104.5t61.5 -146t19 -175q0 -90 -12 -182.5t-38 -188.5t-64 -183t-95 -164t-125.5 -133t-159.5 -88.5t-195 -32.5zM545 31
q98 0 183.5 39t147.5 102.5t112.5 151t82.5 177.5t53 189h-882q-27 -141 -27 -258q0 -401 330 -401zM823 1368q-94 0 -177 -36.5t-144 -96t-111.5 -142t-83 -168t-55.5 -180.5h883q20 114 20 222q0 401 -332 401z" />
    </font>
</defs>
</svg>
