<?xml version="1.0" standalone="no"?>
<!DOCTYPE svg PUBLIC "-//W3C//DTD SVG 1.1//EN" "http://www.w3.org/Graphics/SVG/1.1/DTD/svg11.dtd" >
<svg xmlns="http://www.w3.org/2000/svg" xmlns:xlink="http://www.w3.org/1999/xlink" version="1.1">
<metadata>
Created by FontForge 20170731 at Wed Jul 27 20:33:04 2022
 By Aleksey,,,
Copyright (c) 1991-2018 Monotype GmbH. All rights reserved
</metadata>
<defs>
<font id="MetaPro-CondItalic" horiz-adv-x="1024" >
  <font-face 
    font-family="Meta Pro Cond"
    font-weight="400"
    font-style="italic"
    font-stretch="condensed"
    units-per-em="2048"
    panose-1="2 0 5 6 6 0 0 9 0 4"
    ascent="1563"
    descent="-485"
    x-height="1020"
    cap-height="1405"
    bbox="-707 -510 2157 2220"
    underline-thickness="200"
    underline-position="-454"
    slope="-12"
    unicode-range="U+000D-FEFF"
  />
<missing-glyph horiz-adv-x="978" 
d="M82 0v1446h815v-1446h-815zM203 121h573v1204h-573v-1204z" />
    <glyph glyph-name="IJ" unicode="IJ" horiz-adv-x="956" 
d="M524 1405l-299 -1405h-143l299 1405h143zM1010 1405l-248 -1165q-31 -139 -53 -204t-60 -120q-75 -109 -243 -170l-52 92q57 25 96 55.5t80 88.5q25 33 41 85t41 169l250 1169h148z" />
    <glyph glyph-name="ij" unicode="ij" horiz-adv-x="944" 
d="M449 1042l-222 -1042h-145l217 1022zM537 1321q0 -44 -32.5 -76.5t-76.5 -32.5t-76.5 32.5t-32.5 76.5t32.5 76.5t76.5 32.5t76.5 -32.5t32.5 -76.5zM922 1047l-222 -1033q-32 -155 -71 -225q-68 -121 -226 -195l-57 93q95 46 137 111.5t72 203.5l217 1016zM1006 1321
q0 -44 -32.5 -76.5t-76.5 -32.5t-76.5 32.5t-32.5 76.5t32.5 76.5t76.5 32.5t76.5 -32.5t32.5 -76.5z" />
    <glyph glyph-name="f_f" unicode="ff" 
d="M1329 1432l-55 -103q-50 37 -123 37q-133 0 -172 -199l-29 -151h246l-59 -109h-205l-189 -934q-30 -147 -68 -238t-93 -159l-107 59q88 124 131 340l185 932h-371l-189 -934q-30 -147 -68 -238t-93 -159l-107 59q88 124 131 340l185 932h-91l21 109h88l20 112
q37 197 140 275q74 59 186 59q99 0 170 -51l-55 -102q-50 37 -123 37q-133 0 -172 -199l-25 -131h371l25 133q37 197 139 274q75 60 186 60q99 0 170 -51z" />
    <glyph glyph-name="f_f_i" unicode="ffi" horiz-adv-x="1488" 
d="M1458 1016l-215 -1016h-145l192 907h-358l-189 -934q-30 -147 -68 -238t-93 -159l-107 59q88 124 131 340l185 932h-371l-189 -934q-30 -147 -68 -238t-93 -159l-107 59q88 124 131 340l185 932h-91l21 109h88l20 112q37 197 140 275q74 59 186 59q99 0 170 -51l-55 -102
q-50 37 -123 37q-133 0 -172 -199l-25 -131h371l25 133q37 197 139 274q75 60 186 60q99 0 170 -51l-55 -103q-50 37 -123 37q-133 0 -172 -199l-29 -151h508zM1552 1321q0 -44 -32 -76.5t-76 -32.5t-76.5 32.5t-32.5 76.5t32.5 76.5t76.5 32.5t76 -32.5t32 -76.5z" />
    <glyph glyph-name="f_i" unicode="fi" horiz-adv-x="976" 
d="M946 1016l-215 -1016h-145l192 907h-358l-189 -934q-30 -147 -68 -238t-93 -159l-107 59q88 124 131 340l185 932h-91l21 109h88l25 133q37 197 139 274q75 60 186 60q99 0 170 -51l-55 -103q-50 37 -123 37q-133 0 -172 -199l-29 -151h508zM1040 1321q0 -44 -32 -76.5
t-76 -32.5t-76.5 32.5t-32.5 76.5t32.5 76.5t76.5 32.5t76 -32.5t32 -76.5z" />
    <glyph glyph-name=".notdef" horiz-adv-x="978" 
d="M82 0v1446h815v-1446h-815zM203 121h573v1204h-573v-1204z" />
    <glyph glyph-name=".null" horiz-adv-x="0" 
 />
    <glyph glyph-name=".null" horiz-adv-x="0" 
 />
    <glyph glyph-name="nonmarkingreturn" horiz-adv-x="682" 
 />
    <glyph glyph-name="CR" unicode="&#xd;" horiz-adv-x="450" 
 />
    <glyph glyph-name="space" unicode=" " horiz-adv-x="450" 
 />
    <glyph glyph-name="exclam" unicode="!" horiz-adv-x="475" 
d="M545 1432l-254 -1026h-107l178 1003zM293 102q0 -47 -34 -80.5t-81 -33.5t-81 33.5t-34 80.5t34 81t81 34t81 -34t34 -81z" />
    <glyph glyph-name="quotedbl" unicode="&#x22;" horiz-adv-x="718" 
d="M518 1450l-104 -492h-129l104 492h129zM780 1450l-104 -492h-129l104 492h129z" />
    <glyph glyph-name="numbersign" unicode="#" horiz-adv-x="987" 
d="M1067 1004l-25 -121h-190l-107 -312h177l-25 -120h-192l-152 -451h-119l150 451h-224l-149 -451h-121l150 451h-174l24 120h193l102 312h-174l25 121h192l147 446h121l-149 -446h225l148 446h118l-147 -446h176zM731 883h-223l-107 -312h226z" />
    <glyph glyph-name="dollar" unicode="$" horiz-adv-x="1019" 
d="M1065 1313l-76 -107q-108 90 -233 101l-111 -525l64 -41q104 -67 153 -145.5t49 -181.5q0 -194 -121 -308.5t-317 -130.5l-41 -194h-104l41 194q-204 9 -324 115l82 113q112 -93 270 -99l121 570l-33 20q-113 70 -167 150.5t-54 195.5q0 165 121.5 277.5t294.5 118.5
l35 168h104l-37 -172q170 -15 283 -119zM743 387q0 72 -28.5 125t-96.5 94l-10 6l-106 -499q107 21 174 92t67 182zM651 1305q-97 -17 -160 -88.5t-63 -165.5q0 -60 28.5 -109.5t96.5 -97.5z" />
    <glyph glyph-name="percent" unicode="%" horiz-adv-x="1449" 
d="M793 1147q0 -115 -39.5 -211.5t-122 -158.5t-193.5 -62q-116 0 -180.5 70t-64.5 200q0 84 22.5 160.5t65.5 137t111.5 96.5t152.5 36q121 0 184.5 -69t63.5 -199zM1389 412q0 -115 -39.5 -211.5t-122 -158.5t-193.5 -62q-116 0 -181 70t-65 200q0 114 38.5 209.5
t120.5 158t194 62.5q121 0 184.5 -69t63.5 -199zM1298 1395l-888 -1395h-119l891 1395h116zM1272 412q0 168 -135 168q-76 0 -130 -52t-76 -122.5t-22 -147.5q0 -176 131 -176q57 0 103 31.5t73.5 81t41.5 106t14 111.5zM676 1147q0 168 -135 168q-76 0 -130 -52t-76 -122.5
t-22 -147.5q0 -176 131 -176q57 0 103 31.5t73.5 81t41.5 106t14 111.5z" />
    <glyph glyph-name="ampersand" unicode="&#x26;" horiz-adv-x="1200" 
d="M1087 0h-176l-96 141q-152 -172 -366 -172q-174 0 -271.5 78t-97.5 232q0 82 25.5 149.5t75 118.5t110.5 89t143 71l-49 71q-78 116 -78 228q0 142 104.5 239.5t245.5 97.5t226.5 -71.5t85.5 -188.5q0 -78 -28.5 -141.5t-83 -111t-105 -77.5t-123.5 -63l223 -325
q36 58 63 145.5t35 169.5h123q-22 -168 -61 -259t-97 -163zM758 233l-264 396q-115 -50 -184.5 -135.5t-69.5 -198.5q0 -98 55.5 -158.5t157.5 -60.5q85 0 169.5 46.5t135.5 110.5zM815 1079q0 73 -42.5 119.5t-113.5 46.5q-81 0 -138.5 -67.5t-57.5 -159.5q0 -100 57 -176
l51 -70q244 111 244 307z" />
    <glyph glyph-name="quotesingle" unicode="'" horiz-adv-x="454" 
d="M516 1450l-104 -492h-127l104 492h127z" />
    <glyph glyph-name="parenleft" unicode="(" horiz-adv-x="512" 
d="M797 1499q-91 -54 -164 -126.5t-123.5 -149t-91 -173.5t-66 -185.5t-49.5 -200.5q-63 -296 -63 -484q0 -141 39 -247t139 -179l-49 -69q-71 34 -122.5 95.5t-79.5 137t-41 152t-13 157.5q0 214 47 432q151 708 612 920z" />
    <glyph glyph-name="parenright" unicode=")" horiz-adv-x="512" 
d="M504 1036q0 -214 -47 -432q-150 -707 -613 -919l-24 79q112 67 196.5 158.5t140.5 204.5t91 222t65 251q64 301 64 483q0 141 -39 247t-139 179l49 70q71 -34 122.5 -95.5t79.5 -137.5t41 -152.5t13 -157.5z" />
    <glyph glyph-name="asterisk" unicode="*" horiz-adv-x="782" 
d="M889 1116l-250 -86l158 -211l-88 -67l-160 219l-156 -219l-88 67l156 211l-252 86l33 105l254 -86v264h106v-264l254 86z" />
    <glyph glyph-name="plus" unicode="+" horiz-adv-x="968" 
d="M907 575l-26 -126h-318l-67 -318h-129l67 318h-317l26 126h318l67 318h129l-67 -318h317z" />
    <glyph glyph-name="comma" unicode="," horiz-adv-x="520" 
d="M319 90q0 -117 -83.5 -209t-212.5 -151l-35 77q131 62 176 183q-109 13 -109 116q0 54 37 92t98 38q55 0 92 -38.5t37 -107.5z" />
    <glyph glyph-name="hyphen" unicode="-" horiz-adv-x="544" 
d="M492 614l-29 -135h-340l29 135h340z" />
    <glyph glyph-name="period" unicode="." horiz-adv-x="497" 
d="M315 102q0 -53 -36.5 -90t-88.5 -37t-89.5 37.5t-37.5 89.5t37 88.5t90 36.5q52 0 88.5 -36.5t36.5 -88.5z" />
    <glyph glyph-name="slash" unicode="/" horiz-adv-x="702" 
d="M889 1550l-856 -1853h-117l854 1853h119z" />
    <glyph glyph-name="zero" unicode="0" horiz-adv-x="1003" 
d="M948 643q0 -186 -62.5 -340.5t-178.5 -246t-263 -91.5q-156 0 -247 100.5t-91 303.5q0 186 65 340.5t179 243.5t252 89q172 0 259 -103.5t87 -295.5zM801 641q0 274 -211 274q-101 0 -180.5 -83t-119.5 -209t-40 -267q0 -130 49.5 -197t159.5 -67q66 0 123 33t96.5 88
t67.5 126.5t41.5 148.5t13.5 153z" />
    <glyph glyph-name="one" unicode="1" horiz-adv-x="741" 
d="M614 1038l-196 -925h164l-25 -113h-510l25 113h204l156 739q-98 -63 -262 -127l-29 72l365 241h108z" />
    <glyph glyph-name="two" unicode="2" horiz-adv-x="937" 
d="M885 805q0 -52 -11 -99t-36.5 -89t-49.5 -74t-67 -70.5t-70 -60t-78 -60.5q-227 -172 -364 -248q118 11 192 11h377l-53 -115h-680l25 113l389 309q49 38 74 59t65.5 61t61 72t37 77t16.5 91q0 73 -37.5 114.5t-108.5 41.5q-79 0 -153 -32.5t-168 -96.5l-43 76
q94 81 186.5 128.5t200.5 47.5q137 0 216 -65.5t79 -190.5z" />
    <glyph glyph-name="three" unicode="3" horiz-adv-x="905" 
d="M852 784q0 -137 -77 -233t-212 -137q89 -26 139 -93.5t50 -160.5q0 -130 -78.5 -244t-200.5 -186q-179 -105 -426 -105q-49 0 -96 6l-12 101q58 -6 118 -6q94 0 188.5 30t173 83.5t128 137.5t49.5 183q0 79 -31 126t-80 64q-45 15 -79.5 19t-141.5 4l21 104q23 0 71 1
t72 1q122 3 195 80t73 199q0 170 -174 170q-86 0 -152 -28.5t-159 -90.5l-43 76q105 83 195.5 126.5t197.5 43.5q133 0 212 -70t79 -201z" />
    <glyph glyph-name="four" unicode="4" horiz-adv-x="931" 
d="M813 117l-25 -117h-96q-31 0 -49 2q-6 -39 -10 -59l-66 -312l-147 -43l72 334q2 11 7.5 36.5t10.5 43.5q-33 -2 -72 -2h-458l24 117l582 927h168l-496 -765q-43 -68 -123 -170q53 6 82 6h318l14 67q16 81 45 185l80 286l119 35l-88 -407q-16 -77 -41 -168q54 4 63 4h86z
" />
    <glyph glyph-name="five" unicode="5" horiz-adv-x="876" 
d="M829 1020l-49 -123h-379l-118 -416q64 11 123 11q141 0 221 -83.5t80 -228.5q0 -125 -50.5 -231t-134.5 -176.5t-194 -110t-230 -39.5q-82 0 -149 21v112q22 -9 66.5 -17.5t80.5 -8.5q122 0 226 54.5t167.5 156.5t63.5 229q0 211 -219 211q-145 0 -236 -43l203 682h528z
" />
    <glyph glyph-name="six" unicode="6" horiz-adv-x="997" 
d="M991 1319q-150 -51 -282 -146t-215 -204q-84 -114 -146 -267q72 55 132.5 81t140.5 26q131 0 211.5 -82.5t80.5 -226.5q0 -141 -58.5 -262.5t-170.5 -197t-254 -75.5q-157 0 -240.5 95.5t-83.5 269.5q0 191 82.5 387.5t225.5 349.5q129 138 265.5 219.5t291.5 130.5z
M752 489q0 99 -43.5 153t-130.5 54q-126 0 -265 -108q-51 -162 -51 -279q0 -103 44 -167t140 -64q74 0 134.5 37.5t96.5 98.5t55.5 132t19.5 143z" />
    <glyph glyph-name="seven" unicode="7" horiz-adv-x="917" 
d="M973 1020l-43 -154q-247 -290 -451 -600q-81 -123 -173 -293t-142 -297l-180 -49q46 135 163 344t218 359q275 404 454 571q-102 -6 -162 -6h-462l59 125h719z" />
    <glyph glyph-name="eight" unicode="8" horiz-adv-x="1003" 
d="M1014 1106q0 -69 -28 -132.5t-75 -113t-103.5 -87t-119.5 -62.5q101 -59 157 -137t56 -191q0 -129 -66 -226t-170 -144.5t-227 -47.5q-173 0 -264.5 82.5t-91.5 218.5q0 160 97 272t259 175q-162 99 -162 276q0 88 35 160.5t94.5 118t134 70t156.5 24.5q139 0 228.5 -68
t89.5 -188zM750 369q0 47 -14.5 88t-34 67.5t-55 54.5t-60.5 42.5t-68 37.5l-8 5q-135 -61 -208 -150t-73 -221q0 -100 60.5 -159.5t165.5 -59.5q124 0 209.5 85t85.5 210zM874 1075q0 84 -53.5 133t-142.5 49q-116 0 -190 -69t-74 -184q0 -75 42 -133.5t150 -110.5
q53 27 94 53.5t84 65.5t66.5 89t23.5 107z" />
    <glyph glyph-name="nine" unicode="9" horiz-adv-x="991" 
d="M944 700q0 -220 -104.5 -424t-272.5 -374q-127 -128 -297.5 -219t-287.5 -107l-52 98q103 17 230 81.5t231 150.5q180 148 285 356q-120 -86 -248 -86q-134 0 -211.5 88t-77.5 232q0 106 34.5 205.5t96 177.5t155 125t202.5 47q145 0 231 -92t86 -259zM791 692
q0 116 -48 180t-135 64q-76 0 -137.5 -40t-98 -104t-56 -136.5t-19.5 -145.5q0 -103 42 -163t122 -60q125 0 262 112q68 164 68 293z" />
    <glyph glyph-name="colon" unicode=":" horiz-adv-x="495" 
d="M313 104q0 -54 -36.5 -90.5t-90.5 -36.5q-52 0 -87.5 36t-35.5 89q0 54 36.5 90.5t90.5 36.5q51 0 87 -36.5t36 -88.5zM451 745q0 -54 -36 -90.5t-89 -36.5t-89 35.5t-36 87.5q0 54 36.5 91.5t90.5 37.5q51 0 87 -36.5t36 -88.5z" />
    <glyph glyph-name="semicolon" unicode=";" horiz-adv-x="526" 
d="M330 90q0 -117 -84 -209t-213 -151l-35 77q131 62 176 183q-108 13 -108 116q0 54 37 92t98 38q55 0 92 -38.5t37 -107.5zM453 752q0 -54 -36.5 -91.5t-88.5 -37.5q-53 0 -90 39t-37 94q0 50 36.5 84t88.5 34q53 0 90 -35.5t37 -86.5z" />
    <glyph glyph-name="less" unicode="&#x3c;" horiz-adv-x="649" 
d="M711 1040l-422 -438l227 -434l-147 -80l-279 526l502 527z" />
    <glyph glyph-name="equal" unicode="=" horiz-adv-x="1073" 
d="M1067 840l-25 -119h-868l25 119h868zM999 520l-24 -119h-869l25 119h868z" />
    <glyph glyph-name="greater" unicode="&#x3e;" horiz-adv-x="651" 
d="M659 614l-501 -526l-119 100l418 449l-224 424l148 80z" />
    <glyph glyph-name="question" unicode="?" horiz-adv-x="765" 
d="M829 1186q0 -85 -29.5 -151t-81.5 -117t-147 -117q-84 -59 -118.5 -145.5t-36.5 -204.5h-121q0 123 42.5 235.5t129.5 183.5q18 15 52 40t52.5 39.5t43 39.5t37.5 48t22.5 56t9.5 72q0 58 -35 92.5t-94 34.5q-111 0 -256 -94l-47 100q158 127 338 127q104 0 171.5 -66
t67.5 -173zM412 102q0 -47 -34 -80.5t-81 -33.5t-81 33.5t-34 80.5t34 81t81 34t81 -34t34 -81z" />
    <glyph glyph-name="at" unicode="@" horiz-adv-x="1783" 
d="M1681 608q0 -284 -112.5 -460.5t-290.5 -176.5q-112 0 -162.5 55.5t-50.5 137.5q0 15 4 47q-49 -88 -140 -151.5t-190 -63.5q-91 0 -159 76.5t-68 216.5q0 122 40 238t110 204.5t172.5 142.5t218.5 54q130 0 252 -66q-36 -129 -48 -188l-77 -371q-15 -68 -15 -110
q0 -61 28.5 -87t90.5 -26q80 0 140 76.5t89 195t29 256.5q0 252 -154 406.5t-417 154.5q-149 0 -279.5 -69.5t-218 -181.5t-138 -254t-50.5 -287q0 -281 157.5 -441.5t409.5 -160.5q80 0 174 14.5t148 32.5l26 -111q-60 -20 -161.5 -34.5t-186.5 -14.5q-156 0 -284 44
t-223.5 130.5t-148.5 224t-53 316.5t64 344.5t173 288.5t263.5 196.5t327.5 73.5q327 0 518.5 -178.5t191.5 -493.5zM1147 797q-41 24 -109 24q-87 0 -162 -51.5t-123 -131.5t-75 -174t-27 -183q0 -87 33 -125.5t98 -38.5q37 0 79 18.5t82.5 52.5t73.5 91t48 127z" />
    <glyph glyph-name="A" unicode="A" horiz-adv-x="1003" 
d="M922 0h-154l-20 432h-457l-211 -432h-162l698 1405h207zM739 565l-26 490l-13 233l-112 -233l-234 -490h385z" />
    <glyph glyph-name="B" unicode="B" horiz-adv-x="1067" 
d="M1061 1092q0 -147 -91.5 -240.5t-224.5 -118.5q53 -14 91 -34.5t71.5 -54t50.5 -87t17 -125.5q0 -191 -150 -321q-76 -64 -174.5 -87.5t-253.5 -23.5h-315l299 1405h176q132 0 219 -11t152 -48q133 -77 133 -254zM811 430q0 129 -63.5 183.5t-188.5 54.5h-194l-115 -543
h239q147 0 234.5 86.5t87.5 218.5zM895 1075q0 109 -68 160q-58 41 -170 41h-163l-103 -481h191q135 0 224 76t89 204z" />
    <glyph glyph-name="C" unicode="C" horiz-adv-x="997" 
d="M1104 1296l-88 -92q-94 94 -228 94q-91 0 -173 -58t-140 -150t-101 -203t-64 -219t-21 -197q0 -159 72.5 -263t207.5 -104q123 0 256 84l45 -104q-150 -100 -335 -100q-192 0 -296 131.5t-104 361.5q0 97 21 204.5t59 213t97 201t130 168.5t163 116t192 43
q190 0 307 -127z" />
    <glyph glyph-name="D" unicode="D" horiz-adv-x="1110" 
d="M1108 930q0 -183 -54 -361t-141 -303q-93 -133 -217 -199.5t-295 -66.5h-319l299 1405h233q263 0 378.5 -114t115.5 -361zM944 928q0 169 -69 259.5t-228 90.5h-147l-246 -1151h156q118 0 217 57t168 160q70 106 109.5 263t39.5 321z" />
    <glyph glyph-name="E" unicode="E" horiz-adv-x="890" 
d="M1049 1405l-52 -127h-495l-103 -481h420l-28 -129h-420l-113 -537h539l-29 -131h-686l299 1405h668z" />
    <glyph glyph-name="F" unicode="F" horiz-adv-x="786" 
d="M1024 1405l-51 -127h-471l-103 -481h392l-27 -123h-391l-144 -674h-147l299 1405h643z" />
    <glyph glyph-name="G" unicode="G" horiz-adv-x="1116" 
d="M1145 1268l-88 -82q-106 112 -258 112q-105 0 -200 -71.5t-162 -189.5t-106.5 -273.5t-39.5 -319.5q0 -165 75 -253.5t197 -88.5q119 0 225 56l95 448h-246v127h410l-136 -641q-180 -115 -356 -115q-199 0 -308.5 123.5t-109.5 345.5q0 184 46.5 358.5t130 312t211 221
t276.5 83.5q115 0 203 -41t141 -112z" />
    <glyph glyph-name="H" unicode="H" horiz-adv-x="1130" 
d="M1184 1405l-299 -1405h-146l146 688h-514l-146 -688h-143l299 1405h143l-127 -596h514l127 596h146z" />
    <glyph glyph-name="I" unicode="I" horiz-adv-x="471" 
d="M524 1405l-299 -1405h-143l299 1405h143z" />
    <glyph glyph-name="J" unicode="J" horiz-adv-x="485" 
d="M539 1405l-248 -1165q-31 -139 -53 -204t-60 -120q-75 -109 -244 -170l-51 92q57 25 96 55.5t80 88.5q25 33 41 85t41 169l250 1169h148z" />
    <glyph glyph-name="K" unicode="K" horiz-adv-x="976" 
d="M1163 1364l-600 -627l334 -717l-152 -49l-342 779l646 696zM528 1405l-299 -1405h-147l299 1405h147z" />
    <glyph glyph-name="L" unicode="L" horiz-adv-x="813" 
d="M739 133l-49 -133h-608l299 1405h145l-270 -1272h483z" />
    <glyph glyph-name="M" unicode="M" horiz-adv-x="1433" 
d="M1423 1405l-194 -1405h-148l150 1030q5 36 15.5 94t19.5 106t10 56q-6 -18 -39 -99t-59 -138l-486 -1049h-121l-28 997q-5 207 2 295q-1 -4 -15.5 -60.5t-32.5 -126.5t-28 -106l-281 -999h-147l408 1405h208q3 -126 10 -353.5t12 -397t5 -234.5q0 -118 -10 -197
q20 67 98 240l430 942h221z" />
    <glyph glyph-name="N" unicode="N" horiz-adv-x="1140" 
d="M1194 1405l-299 -1405h-152l-204 864q-59 244 -72 348q-40 -273 -66 -397l-168 -815h-151l299 1405h168l217 -916q12 -48 20.5 -92.5t12 -70t9.5 -68t9 -65.5q1 3 8 52t16 106t23.5 139.5t28.5 150.5l156 764h145z" />
    <glyph glyph-name="O" unicode="O" horiz-adv-x="1185" 
d="M1182 956q0 -104 -17.5 -214.5t-51.5 -221.5t-89 -209t-124 -173.5t-162.5 -120t-198.5 -44.5q-400 0 -400 478q0 107 17.5 219t51.5 222t88.5 207t123.5 171t161 117t197 43q206 0 305 -119.5t99 -354.5zM1024 963q0 344 -250 344q-94 0 -174.5 -56t-135.5 -147
t-94 -206t-57 -233t-18 -229q0 -340 254 -340q94 0 175.5 64t135 162t92 217t55.5 228t17 196z" />
    <glyph glyph-name="P" unicode="P" horiz-adv-x="966" 
d="M1069 1061q0 -154 -68.5 -267.5t-184.5 -171t-265 -57.5h-205l-121 -565h-143l299 1405h289q399 0 399 -344zM901 1057q0 123 -69.5 171t-196.5 48h-139l-123 -586h164q364 0 364 367z" />
    <glyph glyph-name="Q" unicode="Q" horiz-adv-x="1185" 
d="M1182 956q0 -131 -28.5 -271.5t-81.5 -272.5t-141 -238.5t-196 -157.5q94 -41 150 -84q77 -57 141 -57q58 0 88 10l-29 -100q-53 -21 -118 -21q-54 0 -119 33.5t-115 73.5q-102 81 -231 104q-363 21 -363 476q0 107 17.5 219t51.5 222t88.5 207t123.5 171t161 117t197 43
q206 0 305 -119.5t99 -354.5zM1024 963q0 344 -250 344q-94 0 -174.5 -56t-135.5 -147t-94 -206t-57 -233t-18 -229q0 -340 254 -340q94 0 175.5 64t135 162t92 217t55.5 228t17 196z" />
    <glyph glyph-name="R" unicode="R" horiz-adv-x="980" 
d="M1024 1075q0 -118 -49.5 -216t-145.5 -158t-221 -60h-16q88 -91 184 -328q51 -128 96 -293l-141 -43q-79 234 -100 287q-84 221 -142 299q-29 40 -54.5 56t-69.5 22l-138 -641h-145l299 1405h285q77 0 139.5 -17t113 -54.5t78 -103t27.5 -155.5zM866 1061q0 217 -223 217
h-141l-115 -539h172q138 0 222.5 92t84.5 230z" />
    <glyph glyph-name="S" unicode="S" horiz-adv-x="1019" 
d="M1055 1313l-76 -107q-62 54 -126.5 78.5t-154.5 24.5q-112 0 -186 -76t-74 -182q0 -65 27 -116t100 -99l144 -95q101 -67 146.5 -145t45.5 -182q0 -209 -134 -325t-351 -116q-226 0 -361 117l82 113q117 -99 285 -99q133 0 222 75t89 208q0 74 -24.5 124.5t-90.5 94.5
l-133 88q-111 73 -161 152t-50 194q0 170 122 283t300 113q119 0 202.5 -28t156.5 -95z" />
    <glyph glyph-name="T" unicode="T" horiz-adv-x="829" 
d="M1067 1405l-33 -133h-336l-270 -1272h-141l270 1272h-328l29 133h809z" />
    <glyph glyph-name="U" unicode="U" horiz-adv-x="1118" 
d="M1182 1405l-217 -1016q-24 -113 -56.5 -187.5t-87 -127t-134 -76t-193.5 -23.5q-355 0 -355 281q0 58 15 125l217 1024h143l-213 -1004q-14 -72 -14 -110q0 -90 51 -139.5t168 -49.5q79 0 134.5 20t91 62.5t56 94.5t37.5 131l211 995h146z" />
    <glyph glyph-name="V" unicode="V" horiz-adv-x="974" 
d="M1192 1405l-711 -1405h-151l-113 1405h148l63 -911q8 -144 8 -218q0 -88 -4 -133q58 145 152 338l454 924h154z" />
    <glyph glyph-name="W" unicode="W" horiz-adv-x="1396" 
d="M1604 1405l-576 -1405h-197l23 780q6 212 31 441q-74 -225 -156 -428l-317 -793h-199l14 1405h156l-18 -758q-6 -249 -31 -524q69 198 182 489l318 793h165l-20 -873q-7 -233 -25 -411q69 215 170 469l326 815h154z" />
    <glyph glyph-name="X" unicode="X" horiz-adv-x="937" 
d="M1075 1405l-446 -645l227 -760h-158l-174 655l-434 -655h-172l526 760l-190 645h162l135 -535l354 535h170z" />
    <glyph glyph-name="Y" unicode="Y" horiz-adv-x="903" 
d="M1141 1405l-580 -858l-117 -547h-151l119 557l-215 848h168l116 -537q7 -34 14 -79t10.5 -74t4.5 -31q1 4 16 31.5t41.5 72t50.5 80.5l347 537h176z" />
    <glyph glyph-name="Z" unicode="Z" horiz-adv-x="880" 
d="M1032 1405v-125l-733 -1004q-59 -81 -121 -149q62 6 123 6h483l-51 -133h-731v121l743 1009q82 107 123 150q-67 -6 -137 -6h-455l52 131h704z" />
    <glyph glyph-name="bracketleft" unicode="[" horiz-adv-x="499" 
d="M696 1499l-24 -110h-166l-340 -1598h166l-23 -110h-295l387 1818h295z" />
    <glyph glyph-name="backslash" unicode="\" horiz-adv-x="688" 
d="M586 -37l-113 -47l-534 1571l110 45z" />
    <glyph glyph-name="bracketright" unicode="]" horiz-adv-x="499" 
d="M573 1499l-387 -1818h-295l23 110h166l340 1598h-166l25 110h294z" />
    <glyph glyph-name="asciicircum" unicode="^" horiz-adv-x="1146" 
d="M1061 563h-119l-166 735l-485 -735h-131l585 887h107z" />
    <glyph glyph-name="underscore" unicode="_" horiz-adv-x="890" 
d="M776 -154l-24 -120h-891l24 120h891z" />
    <glyph glyph-name="grave" unicode="`" horiz-adv-x="567" 
d="M696 1249l-49 -84l-399 199l80 141z" />
    <glyph glyph-name="a" unicode="a" horiz-adv-x="956" 
d="M924 975q-29 -102 -52 -213l-88 -410q-24 -112 -24 -184q0 -73 41 -135l-123 -68q-60 71 -60 148v39q-113 -168 -274 -168q-109 0 -174.5 83.5t-65.5 233.5q0 162 51.5 318.5t141.5 259.5q144 165 365 165q130 0 262 -69zM762 897q-57 25 -123 25q-74 0 -147 -43
t-127 -131q-55 -91 -86 -210.5t-31 -234.5q0 -194 129 -194q137 0 264 225z" />
    <glyph glyph-name="b" unicode="b" horiz-adv-x="997" 
d="M944 729q0 -156 -55 -324t-144 -270q-73 -85 -157.5 -122.5t-192.5 -37.5q-156 0 -313 70q33 115 53 213l187 875q20 90 20 190q0 84 -14 127l143 57q16 -59 16 -143q0 -104 -22 -209l-35 -166q-5 -22 -16 -60.5t-11 -39.5q49 71 120.5 112t158.5 41q126 0 194 -80.5
t68 -232.5zM801 721q0 190 -146 190q-88 0 -159 -64.5t-138 -189.5l-112 -524q71 -31 164 -31q74 0 146 43.5t118 120.5q57 94 92 217t35 238z" />
    <glyph glyph-name="c" unicode="c" horiz-adv-x="794" 
d="M834 950l-70 -92q-73 66 -168 66q-114 0 -199 -125q-65 -96 -105 -217t-40 -248q0 -114 43 -174t117 -60q111 0 204 99l68 -97q-74 -70 -143 -97.5t-156 -27.5q-142 0 -212.5 91t-70.5 254q0 160 61.5 334t174.5 278q121 113 270 113q129 0 226 -97z" />
    <glyph glyph-name="d" unicode="d" horiz-adv-x="999" 
d="M1067 1470l-240 -1118q-24 -112 -24 -184q0 -73 41 -135l-123 -68q-41 48 -52 93t-5 108q-49 -82 -130.5 -132t-175.5 -50q-117 0 -185.5 83.5t-68.5 233.5q0 159 54 312.5t145 258.5q78 90 169 127t210 37q73 0 147 -24l21 96l82 387zM803 893q-75 27 -133 27
q-190 0 -299 -179q-57 -94 -90 -210t-33 -228q0 -87 34.5 -139.5t104.5 -52.5q87 0 158.5 61.5t142.5 185.5z" />
    <glyph glyph-name="e" unicode="e" horiz-adv-x="854" 
d="M854 807q0 -55 -22 -115.5t-60 -101.5q-118 -125 -375 -125q-32 0 -118 4q-21 -82 -21 -135q0 -112 46.5 -176t146.5 -64q133 0 243 107l58 -80q-133 -144 -324 -144q-319 0 -319 361q0 153 54.5 311.5t149.5 259.5q132 138 289 138q122 0 187 -66.5t65 -173.5zM723 801
q0 59 -30.5 99t-102.5 40q-90 0 -167 -102t-124 -263q74 -4 102 -4q107 0 169 25t102 70q24 26 37.5 65t13.5 70z" />
    <glyph glyph-name="f" unicode="f" horiz-adv-x="512" 
d="M817 1432l-55 -103q-50 37 -123 37q-133 0 -172 -199l-29 -151h246l-59 -109h-205l-189 -934q-30 -147 -68 -238t-93 -159l-107 59q88 124 131 340l185 932h-91l21 109h88l25 133q37 197 139 274q75 60 186 60q99 0 170 -51z" />
    <glyph glyph-name="g" unicode="g" horiz-adv-x="995" 
d="M967 977q-36 -127 -54 -213l-104 -485q-9 -41 -29 -147.5t-28 -137.5q-53 -212 -152.5 -312t-284.5 -100q-162 0 -333 103l49 106q163 -90 299 -90q97 0 174 69.5t108 200.5l41 174q-51 -75 -125.5 -118t-162.5 -43q-117 0 -186.5 83.5t-69.5 233.5q0 161 52 317t142 259
q148 170 383 170q133 0 281 -70zM807 895q-67 29 -133 29q-194 0 -303 -179q-56 -92 -87.5 -210t-31.5 -232q0 -94 37 -148.5t108 -54.5q87 0 161 67.5t130 172.5z" />
    <glyph glyph-name="h" unicode="h" horiz-adv-x="999" 
d="M922 858q0 -54 -19 -149l-149 -709h-140l148 698q18 83 18 140q0 84 -98 84q-143 0 -313 -222l-148 -700h-139l242 1133q20 90 20 190q0 84 -14 127l143 57q16 -59 16 -143q0 -104 -22 -209l-35 -166q-15 -66 -35 -129q145 182 324 182q95 0 148 -48t53 -136z" />
    <glyph glyph-name="i" unicode="i" horiz-adv-x="473" 
d="M449 1042l-222 -1042h-145l217 1022zM537 1321q0 -44 -32.5 -76.5t-76.5 -32.5t-76.5 32.5t-32.5 76.5t32.5 76.5t76.5 32.5t76.5 -32.5t32.5 -76.5z" />
    <glyph glyph-name="j" unicode="j" horiz-adv-x="471" 
d="M449 1047l-222 -1033q-32 -155 -71 -225q-68 -121 -226 -195l-57 93q95 46 137 111.5t72 203.5l217 1016zM532 1321q0 -44 -32 -76.5t-76 -32.5t-76.5 32.5t-32.5 76.5t32.5 76.5t76.5 32.5t76 -32.5t32 -76.5z" />
    <glyph glyph-name="k" unicode="k" horiz-adv-x="901" 
d="M473 1507q16 -59 16 -143q0 -104 -22 -209l-246 -1155h-139l242 1133q20 90 20 190q0 84 -14 127zM924 977l-412 -404l289 -550l-135 -54l-310 621l469 471z" />
    <glyph glyph-name="l" unicode="l" horiz-adv-x="468" 
d="M473 1507q16 -63 16 -143q0 -99 -22 -209l-203 -958q-10 -50 -10 -62q0 -22 9.5 -31.5t31.5 -9.5q11 0 31 4l8 -96q-48 -22 -107 -22q-51 0 -83.5 29t-32.5 79q0 44 8 80l205 965q20 90 20 190q0 81 -14 127z" />
    <glyph glyph-name="m" unicode="m" horiz-adv-x="1423" 
d="M1348 858q0 -44 -21 -149l-149 -709h-138l148 698q20 93 20 140q0 84 -82 84q-108 0 -278 -211l-150 -711h-137l148 698q20 93 20 140q0 84 -82 84q-111 0 -276 -207l-152 -715h-137l158 741q16 71 16 133q0 53 -16 119l131 54q24 -70 24 -134q0 -27 -2 -43
q142 172 293 172q82 0 130 -44.5t52 -125.5q143 170 297 170q85 0 134 -48.5t49 -135.5z" />
    <glyph glyph-name="n" unicode="n" horiz-adv-x="978" 
d="M903 858q0 -49 -20 -149l-150 -709h-139l147 698q21 97 21 142q0 80 -80 80q-144 0 -317 -228l-148 -692h-135l158 741q16 71 16 133q0 53 -16 119l131 54q24 -70 24 -129q0 -30 -6 -68q148 192 332 192q85 0 133.5 -48.5t48.5 -135.5z" />
    <glyph glyph-name="o" unicode="o" horiz-adv-x="929" 
d="M897 715q0 -103 -18.5 -205.5t-59 -199.5t-98 -172t-141 -120t-181.5 -45q-161 0 -237 89t-76 272q0 138 36 267.5t100 229.5t159.5 160t206.5 60q152 0 230.5 -87t78.5 -249zM743 735q0 96 -42.5 148.5t-127.5 52.5q-92 0 -169.5 -83t-121.5 -222.5t-44 -302.5
q0 -124 39.5 -180t134.5 -56t172 95.5t118 242t41 305.5z" />
    <glyph glyph-name="p" unicode="p" horiz-adv-x="995" 
d="M946 729q0 -156 -54.5 -325t-143.5 -271q-74 -87 -153 -123.5t-185 -36.5q-89 0 -185 45l-20 -98l-68 -315l-145 -31l248 1157q18 85 18 152q0 51 -16 110l131 54q24 -74 24 -127q0 -14 -4 -50q49 79 124.5 125.5t166.5 46.5q126 0 194 -80.5t68 -232.5zM803 721
q0 190 -146 190q-88 0 -160 -65t-139 -191l-108 -514q81 -47 174 -47q73 0 141 43.5t115 122.5q56 92 89.5 218t33.5 243z" />
    <glyph glyph-name="q" unicode="q" horiz-adv-x="995" 
d="M967 977q-36 -127 -54 -213l-245 -1145l-140 -35l99 463l18 88q-111 -151 -283 -151q-117 0 -185 83.5t-68 233.5q0 161 52 317t142 259q148 170 383 170q133 0 281 -70zM807 895q-67 29 -133 29q-194 0 -303 -179q-56 -92 -87.5 -210t-31.5 -232q0 -94 36 -148.5
t107 -54.5q159 0 295 248z" />
    <glyph glyph-name="r" unicode="r" horiz-adv-x="600" 
d="M741 1034l-63 -160q-39 13 -64 13q-67 0 -129 -68.5t-131 -191.5l-133 -627h-139l158 741q16 71 16 133q0 53 -16 119l135 54q24 -70 24 -129q0 -32 -10 -84q129 213 285 213q34 0 67 -13z" />
    <glyph glyph-name="s" unicode="s" horiz-adv-x="835" 
d="M821 977l-63 -107q-63 39 -108.5 56.5t-106.5 17.5q-86 0 -138.5 -49t-52.5 -125q0 -62 25 -97.5t72 -60.5l86 -45q42 -22 72.5 -44t60.5 -54t45.5 -75t15.5 -95q0 -152 -104 -241t-269 -89q-99 0 -186 28.5t-145 76.5l65 106q118 -98 275 -98q90 0 151.5 54.5
t61.5 125.5q0 70 -31 110t-90 70l-84 43q-84 44 -129 104t-45 152q0 142 100.5 230t249.5 88q162 0 272 -82z" />
    <glyph glyph-name="t" unicode="t" horiz-adv-x="569" 
d="M657 1020l-49 -115h-196l-136 -635q-14 -68 -14 -114q0 -42 22 -60t66 -18q49 0 86 18l6 -88q-80 -41 -159 -41q-71 0 -117.5 37.5t-46.5 110.5q0 57 20 151l135 639h-116l22 115h119q23 105 70 262l143 33q-49 -167 -76 -295h221z" />
    <glyph glyph-name="u" unicode="u" horiz-adv-x="980" 
d="M956 1040l-157 -747q-19 -97 -19 -137q0 -63 43 -117l-98 -82q-85 81 -76 207q-154 -199 -338 -199q-92 0 -142 47t-50 135q0 62 18 152l152 719l143 22l-153 -731q-21 -97 -21 -147q0 -40 25 -62t67 -22q143 0 314 223l153 717z" />
    <glyph glyph-name="v" unicode="v" horiz-adv-x="792" 
d="M928 1020l-553 -1030h-142l-100 1030l141 27l54 -703q4 -66 4 -98q2 -37 2 -107q6 42 80 183l362 698h152z" />
    <glyph glyph-name="w" unicode="w" horiz-adv-x="1208" 
d="M1323 1020l-471 -1028h-127l-25 717q-4 87 0 133q-42 -106 -51 -125l-334 -723l-133 -2l-28 1028l141 27v-674q0 -50 -3 -119.5t-3 -71.5q3 12 71 168l297 670h150l14 -658l4 -190l62 162l291 686h145z" />
    <glyph glyph-name="x" unicode="x" horiz-adv-x="815" 
d="M874 1020l-360 -463l219 -557h-153l-119 342l-35 102l-78 -102l-262 -342h-168l453 571l-178 449h157l72 -232l37 -118l63 88l187 262h165z" />
    <glyph glyph-name="y" unicode="y" horiz-adv-x="763" 
d="M899 1020l-524 -1057q-80 -162 -165.5 -251t-203.5 -120l-20 97q90 31 148.5 97t123.5 214l-59 -8v49q0 201 -11 317l-57 654l137 39l47 -662q7 -82 7 -147q0 -68 -9 -133l9 18l102 223l317 670h158z" />
    <glyph glyph-name="z" unicode="z" horiz-adv-x="780" 
d="M799 1020v-123l-633 -782h496l-68 -115h-590v113l639 788h-434v119h590z" />
    <glyph glyph-name="braceleft" unicode="{" horiz-adv-x="546" 
d="M743 1499l-24 -110h-96q-53 0 -78 -35.5t-39 -104.5l-86 -405q-17 -78 -47.5 -131.5t-66.5 -81.5t-87 -49l-10 -4q54 -14 80 -67t26 -122q0 -30 -8 -76l-82 -383q-10 -57 -10 -71q0 -68 68 -68h96l-23 -110h-104q-82 0 -122 51.5t-40 130.5q0 41 8 74l78 358q10 45 10 90
q0 150 -114 150l24 110q68 0 124.5 63.5t80.5 174.5l76 360q53 256 241 256h125z" />
    <glyph glyph-name="bar" unicode="|" horiz-adv-x="444" 
d="M528 1548l-419 -1974h-117l420 1974h116z" />
    <glyph glyph-name="braceright" unicode="}" horiz-adv-x="546" 
d="M563 645l-24 -110q-68 0 -124.5 -63.5t-80.5 -174.5l-76 -360q-27 -130 -89.5 -193t-152.5 -63h-125l25 110h96q53 0 78 35t39 104l86 406q12 56 32 100t39 69.5t48 47t46 29.5t46 20l-6 2q-52 16 -76.5 68t-24.5 119q0 23 9 75l82 383q10 57 10 72q0 68 -68 68h-96
l23 110h104q82 0 122 -51.5t40 -130.5q0 -41 -8 -74l-78 -358q-10 -45 -10 -90q0 -150 114 -150z" />
    <glyph glyph-name="asciitilde" unicode="~" horiz-adv-x="1064" 
d="M958 741l43 -77q-67 -78 -125.5 -119t-134.5 -41q-46 0 -95.5 18.5t-86.5 41t-85.5 41t-92.5 18.5q-103 0 -176 -123l-41 78q65 78 122.5 118.5t133.5 40.5q46 0 96 -18.5t87 -41t85.5 -41t91.5 -18.5q101 0 178 123z" />
    <glyph glyph-name="uni00A0" unicode="&#xa0;" horiz-adv-x="450" 
 />
    <glyph glyph-name="exclamdown" unicode="&#xa1;" horiz-adv-x="475" 
d="M348 633l-178 -1004l-182 -22l254 1026h106zM469 936q0 -47 -34 -81t-81 -34t-80.5 34t-33.5 81t33.5 81t80.5 34t81 -34t34 -81z" />
    <glyph glyph-name="cent" unicode="&#xa2;" horiz-adv-x="792" 
d="M834 950l-70 -92q-54 51 -125 62l-174 -814q80 19 151 93l68 -97q-118 -110 -246 -122l-32 -154h-99l33 154q-120 13 -179 102t-59 240q0 160 61.5 334t174.5 278q106 98 229 110l33 156h98l-32 -158q95 -16 168 -92zM539 915q-81 -25 -142 -116q-65 -96 -105 -217
t-40 -248q0 -95 30.5 -154t84.5 -74z" />
    <glyph glyph-name="sterling" unicode="&#xa3;" horiz-adv-x="1003" 
d="M1167 1346l-106 -107q-71 100 -195 100q-52 0 -94.5 -18t-73.5 -49.5t-56 -79.5t-42 -101t-31 -120l-34 -166h288l-26 -123h-289l-115 -539h438l-30 -143h-781l31 143h193l114 539h-172l27 123h172l35 170q55 264 167 382t300 118q95 0 159.5 -30t120.5 -99z" />
    <glyph glyph-name="currency" unicode="&#xa4;" 
d="M928 152l-125 -105l-96 123q-116 -82 -250 -82q-141 0 -219 84l-150 -125l-82 105l164 137q-29 92 -4 219q27 124 102 225l-104 133l125 105l98 -123q115 78 248 78q132 0 213 -78l149 123l84 -105l-163 -135q31 -101 4 -223q-23 -120 -99 -221zM768 508
q26 117 -15.5 201t-146.5 84t-183 -83.5t-104 -201.5q-13 -76 -3.5 -140t54 -105.5t115.5 -41.5q105 0 181.5 84.5t101.5 202.5z" />
    <glyph glyph-name="yen" unicode="&#xa5;" horiz-adv-x="962" 
d="M1169 1405l-432 -645h246l-22 -109h-302l-69 -104l-23 -105h348l-22 -108h-348l-72 -334h-151l71 334h-323l22 108h324l24 115l-20 94h-283l23 109h227l-160 645h166l123 -547q17 -70 27 -178q5 12 43.5 80t58.5 98l356 547h168z" />
    <glyph glyph-name="brokenbar" unicode="&#xa6;" horiz-adv-x="442" 
d="M295 461l-189 -887h-114l188 887h115zM526 1548l-178 -837h-115l179 837h114z" />
    <glyph glyph-name="section" unicode="&#xa7;" horiz-adv-x="907" 
d="M985 1290l-133 -63q-7 65 -55 97t-121 32q-94 0 -152.5 -57t-58.5 -150q0 -86 51 -125l211 -150q145 -102 145 -260q0 -106 -63.5 -191t-161.5 -136q38 -35 62 -86t24 -105q0 -177 -117 -284t-288 -107q-133 0 -223.5 62.5t-106.5 187.5l141 57q4 -90 59.5 -133
t147.5 -43q91 0 155 64t64 159q0 61 -32.5 104t-104.5 89l-147 94q-56 36 -90.5 97t-34.5 139q0 122 71 209t193 133q-109 71 -109 209q0 163 107.5 258.5t269.5 95.5q113 0 195.5 -49.5t101.5 -147.5zM717 582q0 60 -22 97.5t-68 68.5l-142 98q-77 -29 -130.5 -85.5
t-53.5 -129.5q0 -65 26.5 -105t82.5 -75l145 -93q66 29 114 92.5t48 131.5z" />
    <glyph glyph-name="dieresis" unicode="&#xa8;" horiz-adv-x="806" 
d="M506 1272q0 -40 -28.5 -70.5t-67.5 -30.5q-40 0 -69.5 30.5t-29.5 70.5t28.5 68t68.5 28t69 -28t29 -68zM872 1272q0 -40 -28.5 -70.5t-67.5 -30.5t-68.5 30.5t-29.5 70.5t28 68t68 28t69 -28t29 -68z" />
    <glyph glyph-name="copyright" unicode="&#xa9;" horiz-adv-x="1605" 
d="M1657 725q0 -161 -52 -302t-143 -242t-222 -159.5t-284 -58.5q-204 0 -364.5 99.5t-248 273t-87.5 389.5t87.5 389.5t248 273t364.5 99.5q153 0 284 -58.5t222 -159.5t143 -242t52 -302zM1522 725q0 185 -68 332t-198 233t-300 86q-171 0 -300.5 -86t-197 -233
t-67.5 -332t67.5 -332t197 -233t300.5 -86q170 0 300 86t198 233t68 332zM1194 354q-100 -71 -227 -71q-165 0 -265 127q-92 122 -92 303q0 140 56 252q48 91 127.5 142.5t177.5 51.5q128 0 207 -67l-58 -78q-66 49 -149 49q-129 0 -189 -121q-41 -80 -41 -227
q0 -123 31 -199q30 -68 84.5 -102.5t124.5 -34.5q90 0 156 51z" />
    <glyph glyph-name="ordfeminine" unicode="&#xaa;" horiz-adv-x="733" 
d="M831 1378q-24 -87 -38 -159l-66 -308q-18 -81 -18 -139q0 -54 30 -100l-92 -51q-45 53 -45 110v29q-84 -125 -205 -125q-83 0 -131.5 62.5t-48.5 174.5q0 121 39 238.5t106 194.5q109 125 273 125q98 0 196 -52zM698 1313q-42 14 -80 14q-52 0 -104.5 -31t-91.5 -94
q-41 -67 -63.5 -154.5t-22.5 -173.5q0 -137 86 -137q94 0 188 164zM684 471l-20 -98h-558l21 98h557z" />
    <glyph glyph-name="guillemotleft" unicode="&#xab;" horiz-adv-x="899" 
d="M563 858l-297 -377l140 -383l-117 -45l-164 439l348 438zM895 858l-297 -377l139 -383l-116 -45l-164 439l348 438z" />
    <glyph glyph-name="logicalnot" unicode="&#xac;" horiz-adv-x="899" 
d="M840 590l-92 -432h-127l63 299h-567l28 133h695z" />
    <glyph glyph-name="uni00AD" unicode="&#xad;" horiz-adv-x="544" 
d="M492 614l-29 -135h-340l29 135h340z" />
    <glyph glyph-name="registered" unicode="&#xae;" horiz-adv-x="1605" 
d="M1657 725q0 -161 -52 -302t-143 -242t-222 -159.5t-284 -58.5q-204 0 -364.5 99.5t-248 273t-87.5 389.5t87.5 389.5t248 273t364.5 99.5q153 0 284 -58.5t222 -159.5t143 -242t52 -302zM1522 725q0 185 -68 332t-198 233t-300 86q-171 0 -300.5 -86t-197 -233
t-67.5 -332t67.5 -332t197 -233t300.5 -86q170 0 300 86t198 233t68 332zM1276 307h-143q-27 50 -70 125q-54 89 -79.5 126t-68.5 85q-34 37 -75 39v-375h-119v846h237q137 0 201 -61q76 -68 76 -174q0 -100 -59.5 -167t-159.5 -67h-8q41 -33 73 -78q28 -36 72 -104z
M1110 915q0 43 -22 77t-56 48q-43 17 -104 17h-88v-295h82q102 0 147 39q41 41 41 114z" />
    <glyph glyph-name="macron" unicode="&#xaf;" horiz-adv-x="571" 
d="M770 1509l-25 -110h-489l25 110h489z" />
    <glyph glyph-name="degree" unicode="&#xb0;" horiz-adv-x="692" 
d="M860 1071q0 -127 -80 -213t-205 -86t-204.5 85.5t-79.5 213.5t79.5 213.5t204.5 85.5t205 -86t80 -213zM741 1071q0 90 -42.5 148.5t-123.5 58.5t-123 -58.5t-42 -148.5t42 -148.5t123 -58.5t123.5 58.5t42.5 148.5z" />
    <glyph glyph-name="plusminus" unicode="&#xb1;" horiz-adv-x="866" 
d="M840 741l-29 -131h-268l-62 -295h-127l62 295h-266l28 131h266l60 279h127l-60 -279h269zM723 209l-29 -135h-653l29 135h653z" />
    <glyph glyph-name="twosuperior" unicode="&#xb2;" horiz-adv-x="604" 
d="M797 1565q0 -47 -16 -93.5t-36 -81.5t-58 -78.5t-62.5 -67t-69.5 -64.5q-80 -74 -174 -136q7 0 31 3.5t30 3.5h254l-51 -109h-444l18 82q71 48 199 170q11 10 44 41.5t48 47t42.5 45.5t41.5 52.5t30.5 52t23.5 59.5t7 62q0 97 -84 97q-15 0 -32.5 -4.5t-30 -8.5
t-35.5 -15.5t-31 -16t-34.5 -20t-30.5 -17.5l-39 63q154 127 266 127q83 0 138 -51t55 -143z" />
    <glyph glyph-name="threesuperior" unicode="&#xb3;" horiz-adv-x="614" 
d="M764 1579q0 -147 -154 -207q97 -44 97 -153t-99 -197q-63 -58 -152 -89.5t-180 -31.5q-22 0 -86 6l-14 92q89 -6 115 -6q106 0 194 62.5t88 156.5q0 60 -35.5 89.5t-99.5 29.5h-69l18 92h33q50 0 85 6t65.5 21t45.5 45.5t15 75.5q0 38 -21.5 60t-66.5 22
q-47 0 -83.5 -15.5t-109.5 -60.5l-45 68q75 60 136.5 87t127.5 27q89 0 142 -50.5t53 -129.5z" />
    <glyph glyph-name="acute" unicode="&#xb4;" horiz-adv-x="567" 
d="M690 1364l-399 -199l-45 84l368 256z" />
    <glyph glyph-name="mu" unicode="&#xb5;" horiz-adv-x="980" 
d="M956 1040l-157 -747q-19 -97 -19 -137q0 -63 43 -117l-98 -82q-41 39 -60 85t-16 122q-82 -106 -157 -152.5t-164 -46.5q-63 0 -109 27l-16 -78l-66 -309l-145 -31l297 1444l143 22l-153 -731q-21 -97 -21 -147q0 -40 25 -62t67 -22q143 0 314 223l153 717z" />
    <glyph glyph-name="paragraph" unicode="&#xb6;" horiz-adv-x="1044" 
d="M1098 1405l-299 -1405h-129l272 1280h-209l-272 -1280h-129l131 618q-137 12 -218 101.5t-81 220.5q0 211 142 338t360 127h432z" />
    <glyph glyph-name="periodcentered" unicode="&#xb7;" horiz-adv-x="479" 
d="M397 571q0 -47 -33.5 -81.5t-80.5 -34.5q-48 0 -83.5 34.5t-35.5 81.5q0 49 34.5 83t82.5 34t82 -34t34 -83z" />
    <glyph glyph-name="cedilla" unicode="&#xb8;" horiz-adv-x="452" 
d="M264 -217q0 -80 -56.5 -133t-148.5 -53q-81 0 -155 55l57 88q48 -35 109 -35q35 0 58.5 18t23.5 52q0 25 -18 42t-42 17q-37 0 -53 -4l-12 20l73 158h109l-47 -106q51 -9 76.5 -40.5t25.5 -78.5z" />
    <glyph glyph-name="onesuperior" unicode="&#xb9;" horiz-adv-x="546" 
d="M692 1745l-151 -705h108l-20 -98h-357l21 98h123l116 547q-67 -44 -163 -86l-29 72l258 172h94z" />
    <glyph glyph-name="ordmasculine" unicode="&#xba;" horiz-adv-x="737" 
d="M682 473l-20 -98h-560l21 98h559zM698 1194q0 141 -116 141q-65 0 -120 -59.5t-87.5 -162t-32.5 -224.5q0 -90 27 -128t92 -38t120.5 68t86 176t30.5 227zM823 1180q0 -97 -23 -192.5t-66.5 -178t-116.5 -133.5t-164 -51q-121 0 -178.5 67t-57.5 203q0 139 46 260.5
t133.5 198t197.5 76.5q114 0 171.5 -65t57.5 -185z" />
    <glyph glyph-name="guillemotright" unicode="&#xbb;" horiz-adv-x="899" 
d="M487 492l-348 -439l-90 72l295 381l-137 379l117 45zM819 492l-348 -439l-90 72l295 381l-137 379l116 45z" />
    <glyph glyph-name="onequarter" unicode="&#xbc;" horiz-adv-x="1544" 
d="M608 1335l-151 -704h108l-20 -99h-357l21 99h123l117 547q-65 -42 -164 -86l-29 71l258 172h94zM1538 1460l-1198 -1673h-109l1192 1673h115zM915 152l19 81l377 572h135l-334 -500q-20 -30 -47 -57q8 2 39 2h149l7 22q19 97 83 285l105 31l-55 -260q-3 -15 -7 -30.5
t-8.5 -30t-5.5 -19.5q3 0 9 1t8 1h73l-20 -98h-74l-14 2l-2 -19l-29 -139l-133 -37l35 164q0 2 1.5 7.5t3.5 13t3 10.5q-8 -2 -23 -2h-295z" />
    <glyph glyph-name="onehalf" unicode="&#xbd;" horiz-adv-x="1544" 
d="M608 1335l-151 -704h108l-20 -99h-357l21 99h123l117 547q-65 -42 -164 -86l-29 71l258 172h94zM1477 1460l-1198 -1673h-109l1192 1673h115zM1526 623q0 -47 -16 -93.5t-36 -81.5t-58 -78.5t-62.5 -67t-69.5 -64.5q-80 -74 -174 -136q7 0 31 3.5t30 3.5h254l-51 -109
h-444l18 82q71 48 199 170q11 10 44 41.5t48 47t42.5 45.5t41.5 52.5t30.5 52t23.5 59.5t7 62q0 97 -84 97q-15 0 -32.5 -4.5t-30 -8.5t-35.5 -15.5t-31 -16t-34.5 -20t-30.5 -17.5l-39 63q154 127 266 127q83 0 138 -51t55 -143z" />
    <glyph glyph-name="threequarters" unicode="&#xbe;" horiz-adv-x="1544" 
d="M676 1169q0 -146 -154 -206q96 -44 96 -154t-98 -197q-63 -57 -152 -88.5t-180 -31.5q-22 0 -86 6l-14 92q88 -6 115 -6q106 0 194 62.5t88 156.5q0 60 -35.5 89.5t-99.5 29.5h-69l18 92h33q39 0 68.5 3t57.5 12.5t46 25.5t28.5 42.5t10.5 63.5q0 38 -21.5 60t-66.5 22
q-47 0 -83.5 -15.5t-109.5 -60.5l-45 68q76 60 137 87.5t127 27.5q89 0 142 -50.5t53 -130.5zM1497 1460l-1198 -1673h-109l1192 1673h115zM915 152l19 81l377 572h135l-334 -500q-20 -30 -47 -57q8 2 39 2h149l7 22q19 97 83 285l105 31l-55 -260q-3 -15 -7 -30.5t-8.5 -30
t-5.5 -19.5q3 0 9 1t8 1h73l-20 -98h-74l-14 2l-2 -19l-29 -139l-133 -37l35 164q0 2 1.5 7.5t3.5 13t3 10.5q-8 -2 -23 -2h-295z" />
    <glyph glyph-name="questiondown" unicode="&#xbf;" horiz-adv-x="765" 
d="M528 588q0 -123 -42.5 -236t-129.5 -184q-18 -15 -52 -40t-52.5 -39.5t-43 -39.5t-37.5 -48t-22.5 -56t-9.5 -72q0 -58 35 -92.5t94 -34.5q111 0 256 94l47 -100q-158 -127 -338 -127q-104 0 -171.5 66.5t-67.5 173.5q0 85 29.5 151t81.5 117t147 117q84 60 119 146
t37 204h120zM641 936q0 -47 -34 -81t-81 -34t-80.5 34t-33.5 81t33.5 81t80.5 34t81 -34t34 -81z" />
    <glyph glyph-name="Agrave" unicode="&#xc0;" horiz-adv-x="1003" 
d="M922 0h-154l-20 432h-457l-211 -432h-162l698 1405h207zM739 565l-26 490l-13 233l-112 -233l-234 -490h385zM954 1597l-49 -84l-399 199l80 141z" />
    <glyph glyph-name="Aacute" unicode="&#xc1;" horiz-adv-x="1003" 
d="M922 0h-154l-20 432h-457l-211 -432h-162l698 1405h207zM739 565l-26 490l-13 233l-112 -233l-234 -490h385zM977 1712l-399 -199l-46 84l369 256z" />
    <glyph glyph-name="Acircumflex" unicode="&#xc2;" horiz-adv-x="1003" 
d="M922 0h-154l-20 432h-457l-211 -432h-162l698 1405h207zM739 565l-26 490l-13 233l-112 -233l-234 -490h385zM1042 1587l-73 -74l-207 168l-277 -176l-51 82l352 277z" />
    <glyph glyph-name="Atilde" unicode="&#xc3;" horiz-adv-x="1003" 
d="M922 0h-154l-20 432h-457l-211 -432h-162l698 1405h207zM739 565l-26 490l-13 233l-112 -233l-234 -490h385zM1057 1698q-60 -72 -104.5 -99.5t-118.5 -27.5q-57 0 -122.5 34.5t-109.5 34.5q-39 0 -69 -17t-70 -56l-37 69q55 67 102.5 97t120.5 30q55 0 118.5 -34.5
t113.5 -34.5q39 0 69 17t70 56z" />
    <glyph glyph-name="Adieresis" unicode="&#xc4;" horiz-adv-x="1003" 
d="M922 0h-154l-20 432h-457l-211 -432h-162l698 1405h207zM739 565l-26 490l-13 233l-112 -233l-234 -490h385zM651 1620q0 -40 -28.5 -70t-67.5 -30q-40 0 -69 30t-29 70t28 68t68 28t69 -28t29 -68zM1018 1620q0 -40 -28.5 -70t-67.5 -30q-40 0 -69.5 30t-29.5 70
t28.5 68t68.5 28t69 -28t29 -68z" />
    <glyph glyph-name="Aring" unicode="&#xc5;" horiz-adv-x="1003" 
d="M922 0h-154l-20 432h-457l-211 -432h-162l698 1405h207zM739 565l-26 490l-13 233l-112 -233l-234 -490h385zM922 1634q0 -77 -54.5 -132.5t-130.5 -55.5q-77 0 -133.5 56t-56.5 132q0 77 55 133t131 56q77 0 133 -56.5t56 -132.5zM842 1634q0 43 -33 75t-78 32
q-41 0 -71.5 -32t-30.5 -75t32.5 -74.5t75.5 -31.5q41 0 73 32t32 74z" />
    <glyph glyph-name="AE" unicode="&#xc6;" horiz-adv-x="1495" 
d="M1653 1405l-51 -127h-496l-102 -481h419l-28 -129h-420l-113 -537h539l-29 -131h-686l94 440h-397l-315 -440h-191l1028 1405h748zM950 1239l-481 -670h338z" />
    <glyph glyph-name="Ccedilla" unicode="&#xc7;" horiz-adv-x="997" 
d="M1104 1296l-88 -92q-94 94 -228 94q-91 0 -173 -58t-140 -150t-101 -203t-64 -219t-21 -197q0 -159 72.5 -263t207.5 -104q123 0 256 84l45 -104q-146 -94 -315 -100l-37 -82q51 -9 77 -40.5t26 -78.5q0 -80 -56.5 -133t-148.5 -53q-82 0 -156 55l57 88q48 -35 109 -35
q35 0 58.5 18t23.5 52q0 26 -17.5 42.5t-41.5 16.5q-38 0 -54 -4l-12 20l66 142q-152 29 -233 155.5t-81 329.5q0 97 21 204.5t59 213t97 201t130 168.5t163 116t192 43q190 0 307 -127z" />
    <glyph glyph-name="Egrave" unicode="&#xc8;" horiz-adv-x="890" 
d="M1049 1405l-52 -127h-495l-103 -481h420l-28 -129h-420l-113 -537h539l-29 -131h-686l299 1405h668zM922 1597l-50 -84l-399 199l80 141z" />
    <glyph glyph-name="Eacute" unicode="&#xc9;" horiz-adv-x="890" 
d="M1049 1405l-52 -127h-495l-103 -481h420l-28 -129h-420l-113 -537h539l-29 -131h-686l299 1405h668zM977 1712l-399 -199l-46 84l369 256z" />
    <glyph glyph-name="Ecircumflex" unicode="&#xca;" horiz-adv-x="890" 
d="M1049 1405l-52 -127h-495l-103 -481h420l-28 -129h-420l-113 -537h539l-29 -131h-686l299 1405h668zM1049 1587l-74 -74l-207 168l-276 -176l-52 82l353 277z" />
    <glyph glyph-name="Edieresis" unicode="&#xcb;" horiz-adv-x="890" 
d="M1049 1405l-52 -127h-495l-103 -481h420l-28 -129h-420l-113 -537h539l-29 -131h-686l299 1405h668zM643 1620q0 -40 -28.5 -70t-67.5 -30q-40 0 -69 30t-29 70t28 68t68 28t69 -28t29 -68zM1010 1620q0 -40 -29 -70t-68 -30q-40 0 -69 30t-29 70t28 68t68 28t69.5 -28.5
t29.5 -67.5z" />
    <glyph glyph-name="Igrave" unicode="&#xcc;" horiz-adv-x="471" 
d="M524 1405l-299 -1405h-143l299 1405h143zM725 1597l-49 -84l-400 199l80 141z" />
    <glyph glyph-name="Iacute" unicode="&#xcd;" horiz-adv-x="471" 
d="M524 1405l-299 -1405h-143l299 1405h143zM721 1712l-399 -199l-46 84l369 256z" />
    <glyph glyph-name="Icircumflex" unicode="&#xce;" horiz-adv-x="471" 
d="M524 1405l-299 -1405h-143l299 1405h143zM782 1587l-73 -74l-207 168l-277 -176l-51 82l352 277z" />
    <glyph glyph-name="Idieresis" unicode="&#xcf;" horiz-adv-x="471" 
d="M524 1405l-299 -1405h-143l299 1405h143zM420 1620q0 -40 -28.5 -70t-67.5 -30q-40 0 -69.5 30t-29.5 70t28.5 68t68.5 28t69 -28t29 -68zM745 1620q0 -40 -28.5 -70t-67.5 -30q-40 0 -69 30t-29 70t28 68t68 28t69 -28t29 -68z" />
    <glyph glyph-name="Eth" unicode="&#xd0;" horiz-adv-x="1110" 
d="M1108 930q0 -183 -54 -361t-141 -303q-93 -133 -217 -199.5t-295 -66.5h-319l137 649h-127l29 129h127l133 627h233q263 0 378.5 -114t115.5 -361zM944 928q0 169 -69 259.5t-228 90.5h-147l-107 -500h338l-49 -129h-317l-111 -522h156q118 0 217 57t168 160
q70 106 109.5 263t39.5 321z" />
    <glyph glyph-name="Ntilde" unicode="&#xd1;" horiz-adv-x="1140" 
d="M1194 1405l-299 -1405h-152l-204 864q-59 244 -72 348q-40 -273 -66 -397l-168 -815h-151l299 1405h168l217 -916q12 -48 20.5 -92.5t12 -70t9.5 -68t9 -65.5q1 3 8 52t16 106t23.5 139.5t28.5 150.5l156 764h145zM1108 1698q-60 -72 -104.5 -99.5t-118.5 -27.5
q-57 0 -122.5 34.5t-109.5 34.5q-39 0 -69 -17t-70 -56l-37 69q55 67 102.5 97t120.5 30q55 0 118.5 -34.5t113.5 -34.5q39 0 69 17t70 56z" />
    <glyph glyph-name="Ograve" unicode="&#xd2;" horiz-adv-x="1185" 
d="M1182 956q0 -104 -17.5 -214.5t-51.5 -221.5t-89 -209t-124 -173.5t-162.5 -120t-198.5 -44.5q-400 0 -400 478q0 107 17.5 219t51.5 222t88.5 207t123.5 171t161 117t197 43q206 0 305 -119.5t99 -354.5zM1024 963q0 344 -250 344q-94 0 -174.5 -56t-135.5 -147
t-94 -206t-57 -233t-18 -229q0 -340 254 -340q94 0 175.5 64t135 162t92 217t55.5 228t17 196zM1065 1597l-49 -84l-400 199l80 141z" />
    <glyph glyph-name="Oacute" unicode="&#xd3;" horiz-adv-x="1185" 
d="M1182 956q0 -104 -17.5 -214.5t-51.5 -221.5t-89 -209t-124 -173.5t-162.5 -120t-198.5 -44.5q-400 0 -400 478q0 107 17.5 219t51.5 222t88.5 207t123.5 171t161 117t197 43q206 0 305 -119.5t99 -354.5zM1024 963q0 344 -250 344q-94 0 -174.5 -56t-135.5 -147
t-94 -206t-57 -233t-18 -229q0 -340 254 -340q94 0 175.5 64t135 162t92 217t55.5 228t17 196zM1038 1712l-399 -199l-45 84l369 256z" />
    <glyph glyph-name="Ocircumflex" unicode="&#xd4;" horiz-adv-x="1185" 
d="M1182 956q0 -104 -17.5 -214.5t-51.5 -221.5t-89 -209t-124 -173.5t-162.5 -120t-198.5 -44.5q-400 0 -400 478q0 107 17.5 219t51.5 222t88.5 207t123.5 171t161 117t197 43q206 0 305 -119.5t99 -354.5zM1024 963q0 344 -250 344q-94 0 -174.5 -56t-135.5 -147
t-94 -206t-57 -233t-18 -229q0 -340 254 -340q94 0 175.5 64t135 162t92 217t55.5 228t17 196zM1090 1587l-74 -74l-207 168l-277 -176l-51 82l353 277z" />
    <glyph glyph-name="Otilde" unicode="&#xd5;" horiz-adv-x="1185" 
d="M1182 956q0 -104 -17.5 -214.5t-51.5 -221.5t-89 -209t-124 -173.5t-162.5 -120t-198.5 -44.5q-400 0 -400 478q0 107 17.5 219t51.5 222t88.5 207t123.5 171t161 117t197 43q206 0 305 -119.5t99 -354.5zM1024 963q0 344 -250 344q-94 0 -174.5 -56t-135.5 -147
t-94 -206t-57 -233t-18 -229q0 -340 254 -340q94 0 175.5 64t135 162t92 217t55.5 228t17 196zM1108 1698q-60 -72 -104.5 -99.5t-118.5 -27.5q-57 0 -122.5 34.5t-109.5 34.5q-39 0 -69 -17t-70 -56l-37 69q55 67 102.5 97t120.5 30q55 0 118.5 -34.5t113.5 -34.5
q39 0 69 17t70 56z" />
    <glyph glyph-name="Odieresis" unicode="&#xd6;" horiz-adv-x="1185" 
d="M1182 956q0 -104 -17.5 -214.5t-51.5 -221.5t-89 -209t-124 -173.5t-162.5 -120t-198.5 -44.5q-400 0 -400 478q0 107 17.5 219t51.5 222t88.5 207t123.5 171t161 117t197 43q206 0 305 -119.5t99 -354.5zM1024 963q0 344 -250 344q-94 0 -174.5 -56t-135.5 -147
t-94 -206t-57 -233t-18 -229q0 -340 254 -340q94 0 175.5 64t135 162t92 217t55.5 228t17 196zM717 1620q0 -40 -28.5 -70t-67.5 -30q-40 0 -69.5 30t-29.5 70t28 68t68 28t69.5 -28.5t29.5 -67.5zM1083 1620q0 -40 -28.5 -70t-67.5 -30q-40 0 -69 30t-29 70t28 68t68 28
t69 -28t29 -68z" />
    <glyph glyph-name="multiply" unicode="&#xd7;" horiz-adv-x="1093" 
d="M991 766l-313 -258l203 -258l-117 -94l-203 252l-317 -263l-88 115l313 258l-203 258l123 94l199 -254l317 263z" />
    <glyph glyph-name="Oslash" unicode="&#xd8;" horiz-adv-x="1185" 
d="M1307 1487l-181 -244q56 -112 56 -287q0 -104 -17.5 -214.5t-51.5 -221.5t-89 -209t-124 -173.5t-162.5 -120t-198.5 -44.5q-174 0 -277 95l-170 -234l-80 60l189 256q-62 115 -62 301q0 107 17.5 219t51.5 222t88.5 207t123.5 171t161 117t197 43q186 0 287 -101
l160 219zM973 1204q-61 103 -199 103q-94 0 -174.5 -56t-135.5 -147t-94 -206t-57 -233t-18 -229q0 -82 14 -139zM1014 1087l-660 -897q65 -94 195 -94q94 0 175.5 64t135 162t92 217t55.5 228t17 196q0 59 -10 124z" />
    <glyph glyph-name="Ugrave" unicode="&#xd9;" horiz-adv-x="1118" 
d="M1182 1405l-217 -1016q-24 -113 -56.5 -187.5t-87 -127t-134 -76t-193.5 -23.5q-355 0 -355 281q0 58 15 125l217 1024h143l-213 -1004q-14 -72 -14 -110q0 -90 51 -139.5t168 -49.5q79 0 134.5 20t91 62.5t56 94.5t37.5 131l211 995h146zM983 1597l-49 -84l-399 199
l79 141z" />
    <glyph glyph-name="Uacute" unicode="&#xda;" horiz-adv-x="1118" 
d="M1182 1405l-217 -1016q-24 -113 -56.5 -187.5t-87 -127t-134 -76t-193.5 -23.5q-355 0 -355 281q0 58 15 125l217 1024h143l-213 -1004q-14 -72 -14 -110q0 -90 51 -139.5t168 -49.5q79 0 134.5 20t91 62.5t56 94.5t37.5 131l211 995h146zM1038 1712l-399 -199l-45 84
l369 256z" />
    <glyph glyph-name="Ucircumflex" unicode="&#xdb;" horiz-adv-x="1118" 
d="M1182 1405l-217 -1016q-24 -113 -56.5 -187.5t-87 -127t-134 -76t-193.5 -23.5q-355 0 -355 281q0 58 15 125l217 1024h143l-213 -1004q-14 -72 -14 -110q0 -90 51 -139.5t168 -49.5q79 0 134.5 20t91 62.5t56 94.5t37.5 131l211 995h146zM1083 1587l-73 -74l-207 168
l-277 -176l-51 82l352 277z" />
    <glyph glyph-name="Udieresis" unicode="&#xdc;" horiz-adv-x="1118" 
d="M1182 1405l-217 -1016q-24 -113 -56.5 -187.5t-87 -127t-134 -76t-193.5 -23.5q-355 0 -355 281q0 58 15 125l217 1024h143l-213 -1004q-14 -72 -14 -110q0 -90 51 -139.5t168 -49.5q79 0 134.5 20t91 62.5t56 94.5t37.5 131l211 995h146zM700 1620q0 -40 -28.5 -70
t-67.5 -30q-40 0 -69 30t-29 70t28 68t68 28t69 -28t29 -68zM1067 1620q0 -40 -28.5 -70t-67.5 -30q-40 0 -69.5 30t-29.5 70t28.5 68t68.5 28t69 -28t29 -68z" />
    <glyph glyph-name="Yacute" unicode="&#xdd;" horiz-adv-x="903" 
d="M1141 1405l-580 -858l-117 -547h-151l119 557l-215 848h168l116 -537q7 -34 14 -79t10.5 -74t4.5 -31q1 4 16 31.5t41.5 72t50.5 80.5l347 537h176zM956 1712l-399 -199l-45 84l369 256z" />
    <glyph glyph-name="Thorn" unicode="&#xde;" horiz-adv-x="966" 
d="M1012 791q0 -154 -68.5 -267.5t-184.5 -171t-265 -57.5h-205l-64 -295h-143l299 1405h143l-57 -270h145q400 0 400 -344zM844 786q0 123 -69.5 171.5t-196.5 48.5h-140l-123 -586h164q365 0 365 366z" />
    <glyph glyph-name="germandbls" unicode="&#xdf;" horiz-adv-x="1015" 
d="M993 1194q0 -61 -19.5 -111.5t-50 -84t-68 -60t-75 -45t-68 -34t-50 -31t-19.5 -31.5t22 -35t55 -37.5t71.5 -48t71.5 -64t55 -88.5t22 -118q0 -116 -46 -212.5t-141 -157.5t-223 -61q-118 0 -180 41l51 95q56 -31 134 -31q108 0 180.5 92t72.5 201q0 65 -29 116
t-70 83.5t-82 61t-70 61.5t-29 71q0 40 18.5 72.5t48.5 55.5t66 43.5t72 43t66 49t48.5 66t18.5 88.5q0 75 -36.5 118.5t-109.5 43.5q-188 0 -249 -304l-213 -1069q-29 -146 -68 -237.5t-94 -159.5l-107 59q88 124 131 340l185 930h-133l22 109h133l2 10q18 97 46 169.5
t74 133.5t117.5 93t166.5 32q129 0 204.5 -68.5t75.5 -189.5z" />
    <glyph glyph-name="agrave" unicode="&#xe0;" horiz-adv-x="956" 
d="M924 975q-29 -102 -52 -213l-88 -410q-24 -112 -24 -184q0 -73 41 -135l-123 -68q-60 71 -60 148v39q-113 -168 -274 -168q-109 0 -174.5 83.5t-65.5 233.5q0 162 51.5 318.5t141.5 259.5q144 165 365 165q130 0 262 -69zM762 897q-57 25 -123 25q-74 0 -147 -43
t-127 -131q-55 -91 -86 -210.5t-31 -234.5q0 -194 129 -194q137 0 264 225zM899 1249l-49 -84l-399 199l79 141z" />
    <glyph glyph-name="aacute" unicode="&#xe1;" horiz-adv-x="956" 
d="M924 975q-29 -102 -52 -213l-88 -410q-24 -112 -24 -184q0 -73 41 -135l-123 -68q-60 71 -60 148v39q-113 -168 -274 -168q-109 0 -174.5 83.5t-65.5 233.5q0 162 51.5 318.5t141.5 259.5q144 165 365 165q130 0 262 -69zM762 897q-57 25 -123 25q-74 0 -147 -43
t-127 -131q-55 -91 -86 -210.5t-31 -234.5q0 -194 129 -194q137 0 264 225zM936 1364l-399 -199l-45 84l368 256z" />
    <glyph glyph-name="acircumflex" unicode="&#xe2;" horiz-adv-x="956" 
d="M924 975q-29 -102 -52 -213l-88 -410q-24 -112 -24 -184q0 -73 41 -135l-123 -68q-60 71 -60 148v39q-113 -168 -274 -168q-109 0 -174.5 83.5t-65.5 233.5q0 162 51.5 318.5t141.5 259.5q144 165 365 165q130 0 262 -69zM762 897q-57 25 -123 25q-74 0 -147 -43
t-127 -131q-55 -91 -86 -210.5t-31 -234.5q0 -194 129 -194q137 0 264 225zM954 1239l-73 -74l-207 168l-277 -176l-51 82l352 277z" />
    <glyph glyph-name="atilde" unicode="&#xe3;" horiz-adv-x="956" 
d="M924 975q-29 -102 -52 -213l-88 -410q-24 -112 -24 -184q0 -73 41 -135l-123 -68q-60 71 -60 148v39q-113 -168 -274 -168q-109 0 -174.5 83.5t-65.5 233.5q0 162 51.5 318.5t141.5 259.5q144 165 365 165q130 0 262 -69zM762 897q-57 25 -123 25q-74 0 -147 -43
t-127 -131q-55 -91 -86 -210.5t-31 -234.5q0 -194 129 -194q137 0 264 225zM985 1350q-60 -72 -104.5 -99.5t-118.5 -27.5q-57 0 -122.5 34.5t-109.5 34.5q-39 0 -69 -17t-70 -56l-37 69q55 67 103 97t121 30q55 0 118 -34.5t113 -34.5q39 0 69 17t70 56z" />
    <glyph glyph-name="adieresis" unicode="&#xe4;" horiz-adv-x="956" 
d="M924 975q-29 -102 -52 -213l-88 -410q-24 -112 -24 -184q0 -73 41 -135l-123 -68q-60 71 -60 148v39q-113 -168 -274 -168q-109 0 -174.5 83.5t-65.5 233.5q0 162 51.5 318.5t141.5 259.5q144 165 365 165q130 0 262 -69zM762 897q-57 25 -123 25q-74 0 -147 -43
t-127 -131q-55 -91 -86 -210.5t-31 -234.5q0 -194 129 -194q137 0 264 225zM567 1272q0 -40 -28.5 -70.5t-67.5 -30.5t-68.5 30.5t-29.5 70.5t28 68t68 28t69 -28t29 -68zM934 1272q0 -40 -28.5 -70.5t-67.5 -30.5q-40 0 -69.5 30.5t-29.5 70.5t28.5 68t68.5 28t69 -28
t29 -68z" />
    <glyph glyph-name="aring" unicode="&#xe5;" horiz-adv-x="956" 
d="M924 975q-29 -102 -52 -213l-88 -410q-24 -112 -24 -184q0 -73 41 -135l-123 -68q-60 71 -60 148v39q-113 -168 -274 -168q-109 0 -174.5 83.5t-65.5 233.5q0 162 51.5 318.5t141.5 259.5q144 165 365 165q130 0 262 -69zM762 897q-57 25 -123 25q-74 0 -147 -43
t-127 -131q-55 -91 -86 -210.5t-31 -234.5q0 -194 129 -194q137 0 264 225zM887 1350q0 -77 -54.5 -133t-130.5 -56q-77 0 -133.5 56.5t-56.5 132.5q0 77 55 132.5t131 55.5q77 0 133 -56t56 -132zM807 1350q0 43 -32.5 74.5t-78.5 31.5q-41 0 -71.5 -31.5t-30.5 -74.5
t32.5 -75t75.5 -32q41 0 73 32t32 75z" />
    <glyph glyph-name="ae" unicode="&#xe6;" horiz-adv-x="1343" 
d="M1343 807q0 -55 -21.5 -115.5t-59.5 -101.5q-118 -125 -375 -125q-33 0 -119 4q-20 -78 -20 -135q0 -240 192 -240q134 0 244 107l57 -80q-133 -144 -323 -144q-218 0 -285 181q-129 -185 -328 -185q-130 0 -197 66t-67 166q0 383 510 383q38 0 104 -4l37 178q6 24 6 49
q0 52 -29 82.5t-91 30.5q-125 0 -310 -121l-47 102q80 49 123 72.5t113 46.5t135 23q167 0 217 -134q131 134 283 134q122 0 186.5 -66.5t64.5 -173.5zM629 481q-99 6 -109 6q-149 0 -233 -65t-84 -195q0 -61 34.5 -102t94.5 -41q74 0 152.5 63.5t101.5 165.5zM1212 801
q0 59 -30.5 99t-102.5 40q-93 0 -173.5 -101.5t-117.5 -263.5q74 -4 103 -4q107 0 168.5 25t101.5 70q24 26 37.5 65t13.5 70z" />
    <glyph glyph-name="ccedilla" unicode="&#xe7;" horiz-adv-x="794" 
d="M834 950l-70 -92q-73 66 -168 66q-114 0 -199 -125q-65 -96 -105 -217t-40 -248q0 -114 43 -174t117 -60q111 0 204 99l68 -97q-65 -62 -126.5 -89.5t-135.5 -32.5l-35 -78q51 -9 76.5 -40.5t25.5 -78.5q0 -80 -56 -133t-148 -53q-82 0 -156 55l57 88q48 -35 109 -35
q35 0 58.5 18t23.5 52q0 25 -18 42t-42 17q-37 0 -53 -4l-12 20l61 134q-106 21 -158.5 108.5t-52.5 229.5q0 160 61.5 334t174.5 278q121 113 270 113q129 0 226 -97z" />
    <glyph glyph-name="egrave" unicode="&#xe8;" horiz-adv-x="854" 
d="M854 807q0 -55 -22 -115.5t-60 -101.5q-118 -125 -375 -125q-32 0 -118 4q-21 -82 -21 -135q0 -112 46.5 -176t146.5 -64q133 0 243 107l58 -80q-133 -144 -324 -144q-319 0 -319 361q0 153 54.5 311.5t149.5 259.5q132 138 289 138q122 0 187 -66.5t65 -173.5zM723 801
q0 59 -30.5 99t-102.5 40q-90 0 -167 -102t-124 -263q74 -4 102 -4q107 0 169 25t102 70q24 26 37.5 65t13.5 70zM819 1249l-49 -84l-399 199l80 141z" />
    <glyph glyph-name="eacute" unicode="&#xe9;" horiz-adv-x="854" 
d="M854 807q0 -55 -22 -115.5t-60 -101.5q-118 -125 -375 -125q-32 0 -118 4q-21 -82 -21 -135q0 -112 46.5 -176t146.5 -64q133 0 243 107l58 -80q-133 -144 -324 -144q-319 0 -319 361q0 153 54.5 311.5t149.5 259.5q132 138 289 138q122 0 187 -66.5t65 -173.5zM723 801
q0 59 -30.5 99t-102.5 40q-90 0 -167 -102t-124 -263q74 -4 102 -4q107 0 169 25t102 70q24 26 37.5 65t13.5 70zM915 1364l-399 -199l-45 84l369 256z" />
    <glyph glyph-name="ecircumflex" unicode="&#xea;" horiz-adv-x="854" 
d="M854 807q0 -55 -22 -115.5t-60 -101.5q-118 -125 -375 -125q-32 0 -118 4q-21 -82 -21 -135q0 -112 46.5 -176t146.5 -64q133 0 243 107l58 -80q-133 -144 -324 -144q-319 0 -319 361q0 153 54.5 311.5t149.5 259.5q132 138 289 138q122 0 187 -66.5t65 -173.5zM723 801
q0 59 -30.5 99t-102.5 40q-90 0 -167 -102t-124 -263q74 -4 102 -4q107 0 169 25t102 70q24 26 37.5 65t13.5 70zM913 1239l-73 -74l-207 168l-277 -176l-51 82l352 277z" />
    <glyph glyph-name="edieresis" unicode="&#xeb;" horiz-adv-x="854" 
d="M854 807q0 -55 -22 -115.5t-60 -101.5q-118 -125 -375 -125q-32 0 -118 4q-21 -82 -21 -135q0 -112 46.5 -176t146.5 -64q133 0 243 107l58 -80q-133 -144 -324 -144q-319 0 -319 361q0 153 54.5 311.5t149.5 259.5q132 138 289 138q122 0 187 -66.5t65 -173.5zM723 801
q0 59 -30.5 99t-102.5 40q-90 0 -167 -102t-124 -263q74 -4 102 -4q107 0 169 25t102 70q24 26 37.5 65t13.5 70zM547 1272q0 -40 -28.5 -70.5t-67.5 -30.5q-40 0 -69.5 30.5t-29.5 70.5t28.5 68t68.5 28t69 -28t29 -68zM913 1272q0 -40 -28.5 -70.5t-67.5 -30.5t-68.5 30.5
t-29.5 70.5t28 68t68 28t69 -28t29 -68z" />
    <glyph glyph-name="igrave" unicode="&#xec;" horiz-adv-x="473" 
d="M449 1042l-222 -1042h-145l217 1022zM635 1249l-49 -84l-400 199l80 141z" />
    <glyph glyph-name="iacute" unicode="&#xed;" horiz-adv-x="473" 
d="M449 1042l-222 -1042h-145l217 1022zM649 1364l-399 -199l-45 84l368 256z" />
    <glyph glyph-name="icircumflex" unicode="&#xee;" horiz-adv-x="473" 
d="M449 1042l-222 -1042h-145l217 1022zM723 1239l-74 -74l-207 168l-276 -176l-51 82l352 277z" />
    <glyph glyph-name="idieresis" unicode="&#xef;" horiz-adv-x="473" 
d="M449 1042l-222 -1042h-145l217 1022zM358 1272q0 -40 -28.5 -70.5t-67.5 -30.5t-68.5 30.5t-29.5 70.5t28 68t68 28t69 -28t29 -68zM664 1272q0 -40 -29 -70.5t-68 -30.5t-68.5 30.5t-29.5 70.5t28 68t68 28t69.5 -28.5t29.5 -67.5z" />
    <glyph glyph-name="eth" unicode="&#xf0;" horiz-adv-x="960" 
d="M903 662q0 -94 -15 -187t-51.5 -185t-90.5 -162t-138 -113.5t-188 -43.5q-159 0 -245.5 97t-86.5 258q0 132 56 249t163 191t242 74q52 0 112 -13.5t87 -42.5q-14 149 -113 293l-94 -86l-88 74l110 102q-129 132 -297 181l99 88q176 -44 305 -170l129 118l88 -73
l-144 -133q160 -220 160 -516zM745 657q-30 32 -91.5 50t-114.5 18q-75 0 -134 -37t-93.5 -97t-52 -128.5t-17.5 -138.5q0 -103 46.5 -169.5t145.5 -66.5q69 0 125 42t89.5 105.5t56.5 143t31.5 149t8.5 129.5z" />
    <glyph glyph-name="ntilde" unicode="&#xf1;" horiz-adv-x="978" 
d="M903 858q0 -49 -20 -149l-150 -709h-139l147 698q21 97 21 142q0 80 -80 80q-144 0 -317 -228l-148 -692h-135l158 741q16 71 16 133q0 53 -16 119l131 54q24 -70 24 -129q0 -30 -6 -68q148 192 332 192q85 0 133.5 -48.5t48.5 -135.5zM965 1350q-60 -72 -105 -99.5
t-119 -27.5q-57 0 -122 34.5t-109 34.5q-39 0 -69 -17t-70 -56l-37 69q55 67 102.5 97t120.5 30q55 0 118 -34.5t113 -34.5q40 0 70 17.5t70 55.5z" />
    <glyph glyph-name="ograve" unicode="&#xf2;" horiz-adv-x="929" 
d="M897 715q0 -103 -18.5 -205.5t-59 -199.5t-98 -172t-141 -120t-181.5 -45q-161 0 -237 89t-76 272q0 138 36 267.5t100 229.5t159.5 160t206.5 60q152 0 230.5 -87t78.5 -249zM743 735q0 96 -42.5 148.5t-127.5 52.5q-92 0 -169.5 -83t-121.5 -222.5t-44 -302.5
q0 -124 39.5 -180t134.5 -56t172 95.5t118 242t41 305.5zM846 1249l-49 -84l-400 199l80 141z" />
    <glyph glyph-name="oacute" unicode="&#xf3;" horiz-adv-x="929" 
d="M897 715q0 -103 -18.5 -205.5t-59 -199.5t-98 -172t-141 -120t-181.5 -45q-161 0 -237 89t-76 272q0 138 36 267.5t100 229.5t159.5 160t206.5 60q152 0 230.5 -87t78.5 -249zM743 735q0 96 -42.5 148.5t-127.5 52.5q-92 0 -169.5 -83t-121.5 -222.5t-44 -302.5
q0 -124 39.5 -180t134.5 -56t172 95.5t118 242t41 305.5zM915 1364l-399 -199l-45 84l369 256z" />
    <glyph glyph-name="ocircumflex" unicode="&#xf4;" horiz-adv-x="929" 
d="M897 715q0 -103 -18.5 -205.5t-59 -199.5t-98 -172t-141 -120t-181.5 -45q-161 0 -237 89t-76 272q0 138 36 267.5t100 229.5t159.5 160t206.5 60q152 0 230.5 -87t78.5 -249zM743 735q0 96 -42.5 148.5t-127.5 52.5q-92 0 -169.5 -83t-121.5 -222.5t-44 -302.5
q0 -124 39.5 -180t134.5 -56t172 95.5t118 242t41 305.5zM913 1239l-73 -74l-207 168l-277 -176l-51 82l352 277z" />
    <glyph glyph-name="otilde" unicode="&#xf5;" horiz-adv-x="929" 
d="M897 715q0 -103 -18.5 -205.5t-59 -199.5t-98 -172t-141 -120t-181.5 -45q-161 0 -237 89t-76 272q0 138 36 267.5t100 229.5t159.5 160t206.5 60q152 0 230.5 -87t78.5 -249zM743 735q0 96 -42.5 148.5t-127.5 52.5q-92 0 -169.5 -83t-121.5 -222.5t-44 -302.5
q0 -124 39.5 -180t134.5 -56t172 95.5t118 242t41 305.5zM924 1350q-60 -72 -105 -99.5t-119 -27.5q-57 0 -122 34.5t-109 34.5q-39 0 -69 -17t-70 -56l-37 69q55 67 102.5 97t120.5 30q55 0 118.5 -34.5t113.5 -34.5q39 0 69 17t70 56z" />
    <glyph glyph-name="odieresis" unicode="&#xf6;" horiz-adv-x="929" 
d="M897 715q0 -103 -18.5 -205.5t-59 -199.5t-98 -172t-141 -120t-181.5 -45q-161 0 -237 89t-76 272q0 138 36 267.5t100 229.5t159.5 160t206.5 60q152 0 230.5 -87t78.5 -249zM743 735q0 96 -42.5 148.5t-127.5 52.5q-92 0 -169.5 -83t-121.5 -222.5t-44 -302.5
q0 -124 39.5 -180t134.5 -56t172 95.5t118 242t41 305.5zM545 1272q0 -40 -28.5 -70.5t-67.5 -30.5q-40 0 -69.5 30.5t-29.5 70.5t28 68t68 28t69.5 -28.5t29.5 -67.5zM911 1272q0 -40 -28.5 -70.5t-67.5 -30.5t-68.5 30.5t-29.5 70.5t28 68t68 28t69 -28t29 -68z" />
    <glyph glyph-name="divide" unicode="&#xf7;" horiz-adv-x="1134" 
d="M1098 692l-29 -135h-930l29 135h930zM801 989q0 -47 -34 -82t-81 -35t-82 35t-35 82t35 81t82 34t81 -34t34 -81zM645 258q0 -47 -34 -82t-81 -35t-81.5 35t-34.5 82t34.5 81t81.5 34t81 -34t34 -81z" />
    <glyph glyph-name="oslash" unicode="&#xf8;" horiz-adv-x="929" 
d="M897 715q0 -103 -18.5 -205.5t-59 -199.5t-98 -172t-141 -120t-181.5 -45q-128 0 -202 56l-121 -164l-68 61l127 174q-49 85 -49 234q0 138 36 267.5t100 229.5t159.5 160t206.5 60q122 0 203 -62l122 168l70 -61l-131 -178q45 -76 45 -203zM238 328q0 -59 4 -84l465 633
q-44 59 -134 59q-92 0 -169.5 -83t-121.5 -222.5t-44 -302.5zM743 735q0 5 -1 16.5t-1 16.5l-460 -625q39 -51 131 -51q95 0 172 95.5t118 242t41 305.5z" />
    <glyph glyph-name="ugrave" unicode="&#xf9;" horiz-adv-x="980" 
d="M956 1040l-157 -747q-19 -97 -19 -137q0 -63 43 -117l-98 -82q-85 81 -76 207q-154 -199 -338 -199q-92 0 -142 47t-50 135q0 62 18 152l152 719l143 22l-153 -731q-21 -97 -21 -147q0 -40 25 -62t67 -22q143 0 314 223l153 717zM840 1249l-49 -84l-400 199l80 141z" />
    <glyph glyph-name="uacute" unicode="&#xfa;" horiz-adv-x="980" 
d="M956 1040l-157 -747q-19 -97 -19 -137q0 -63 43 -117l-98 -82q-85 81 -76 207q-154 -199 -338 -199q-92 0 -142 47t-50 135q0 62 18 152l152 719l143 22l-153 -731q-21 -97 -21 -147q0 -40 25 -62t67 -22q143 0 314 223l153 717zM915 1364l-399 -199l-45 84l369 256z" />
    <glyph glyph-name="ucircumflex" unicode="&#xfb;" horiz-adv-x="980" 
d="M956 1040l-157 -747q-19 -97 -19 -137q0 -63 43 -117l-98 -82q-85 81 -76 207q-154 -199 -338 -199q-92 0 -142 47t-50 135q0 62 18 152l152 719l143 22l-153 -731q-21 -97 -21 -147q0 -40 25 -62t67 -22q143 0 314 223l153 717zM954 1239l-73 -74l-207 168l-277 -176
l-51 82l352 277z" />
    <glyph glyph-name="udieresis" unicode="&#xfc;" horiz-adv-x="980" 
d="M956 1040l-157 -747q-19 -97 -19 -137q0 -63 43 -117l-98 -82q-85 81 -76 207q-154 -199 -338 -199q-92 0 -142 47t-50 135q0 62 18 152l152 719l143 22l-153 -731q-21 -97 -21 -147q0 -40 25 -62t67 -22q143 0 314 223l153 717zM569 1272q0 -40 -28.5 -70.5t-67.5 -30.5
t-68.5 30.5t-29.5 70.5t28 68t68 28t69 -28t29 -68zM936 1272q0 -40 -28.5 -70.5t-67.5 -30.5q-40 0 -69.5 30.5t-29.5 70.5t28.5 68t68.5 28t69 -28t29 -68z" />
    <glyph glyph-name="yacute" unicode="&#xfd;" horiz-adv-x="763" 
d="M899 1020l-524 -1057q-80 -162 -165.5 -251t-203.5 -120l-20 97q90 31 148.5 97t123.5 214l-59 -8v49q0 201 -11 317l-57 654l137 39l47 -662q7 -82 7 -147q0 -68 -9 -133l9 18l102 223l317 670h158zM813 1364l-399 -199l-45 84l368 256z" />
    <glyph glyph-name="thorn" unicode="&#xfe;" horiz-adv-x="995" 
d="M946 729q0 -156 -54.5 -325t-143.5 -271q-74 -87 -153 -123.5t-185 -36.5q-89 0 -185 45l-6 -28l-18 -88l-64 -297l-145 -31l332 1559q20 90 20 190q0 84 -14 127l143 57q16 -59 16 -143q0 -104 -22 -209l-31 -145q-18 -81 -43 -140q49 79 124.5 125.5t166.5 46.5
q126 0 194 -80.5t68 -232.5zM803 721q0 190 -146 190q-88 0 -160 -65t-139 -191l-108 -514q81 -47 174 -47q73 0 141 43.5t115 122.5q56 92 89.5 218t33.5 243z" />
    <glyph glyph-name="ydieresis" unicode="&#xff;" horiz-adv-x="763" 
d="M899 1020l-524 -1057q-80 -162 -165.5 -251t-203.5 -120l-20 97q90 31 148.5 97t123.5 214l-59 -8v49q0 201 -11 317l-57 654l137 39l47 -662q7 -82 7 -147q0 -68 -9 -133l9 18l102 223l317 670h158zM465 1272q0 -40 -28.5 -70.5t-67.5 -30.5q-40 0 -69.5 30.5
t-29.5 70.5t28.5 68t68.5 28t69 -28t29 -68zM831 1272q0 -40 -28.5 -70.5t-67.5 -30.5t-68.5 30.5t-29.5 70.5t28 68t68 28t69 -28t29 -68z" />
    <glyph glyph-name="Amacron" unicode="&#x100;" horiz-adv-x="1003" 
d="M922 0h-154l-20 432h-457l-211 -432h-162l698 1405h207zM739 565l-26 490l-13 233l-112 -233l-234 -490h385zM995 1630l-24 -110h-490l25 110h489z" />
    <glyph glyph-name="amacron" unicode="&#x101;" horiz-adv-x="956" 
d="M924 975q-29 -102 -52 -213l-88 -410q-24 -112 -24 -184q0 -73 41 -135l-123 -68q-60 71 -60 148v39q-113 -168 -274 -168q-109 0 -174.5 83.5t-65.5 233.5q0 162 51.5 318.5t141.5 259.5q144 165 365 165q130 0 262 -69zM762 897q-57 25 -123 25q-74 0 -147 -43
t-127 -131q-55 -91 -86 -210.5t-31 -234.5q0 -194 129 -194q137 0 264 225zM911 1282l-24 -111h-490l25 111h489z" />
    <glyph glyph-name="Abreve" unicode="&#x102;" horiz-adv-x="1003" 
d="M922 0h-154l-20 432h-457l-211 -432h-162l698 1405h207zM739 565l-26 490l-13 233l-112 -233l-234 -490h385zM1073 1778q-25 -32 -58.5 -67t-79.5 -74t-100 -64t-102 -25q-45 0 -87.5 20.5t-71.5 48.5t-54 63.5t-36.5 58t-18.5 39.5l82 82q91 -127 209 -127
q64 0 143 40.5t137 86.5z" />
    <glyph glyph-name="abreve" unicode="&#x103;" horiz-adv-x="956" 
d="M924 975q-29 -102 -52 -213l-88 -410q-24 -112 -24 -184q0 -73 41 -135l-123 -68q-60 71 -60 148v39q-113 -168 -274 -168q-109 0 -174.5 83.5t-65.5 233.5q0 162 51.5 318.5t141.5 259.5q144 165 365 165q130 0 262 -69zM762 897q-57 25 -123 25q-74 0 -147 -43
t-127 -131q-55 -91 -86 -210.5t-31 -234.5q0 -194 129 -194q137 0 264 225zM983 1430q-25 -32 -58.5 -67t-79.5 -74t-100 -64t-102 -25q-45 0 -87.5 20.5t-71.5 48.5t-54 63.5t-36.5 58t-18.5 39.5l82 81q91 -127 209 -127q64 0 143 40.5t137 86.5z" />
    <glyph glyph-name="Aogonek" unicode="&#x104;" horiz-adv-x="1003" 
d="M922 0q-72 -32 -130.5 -110t-58.5 -128q0 -24 13.5 -39.5t37.5 -15.5q52 0 113 29l18 -90q-83 -49 -149 -49q-70 0 -111 39t-41 98q0 67 44.5 137.5t109.5 128.5l-20 432h-457l-211 -432h-162l698 1405h207zM739 565l-26 490l-13 233l-112 -233l-234 -490h385z" />
    <glyph glyph-name="aogonek" unicode="&#x105;" horiz-adv-x="956" 
d="M924 975q-29 -102 -52 -213l-88 -410q-24 -112 -24 -184q0 -73 41 -135q-69 -43 -138 -129t-69 -142q0 -24 13.5 -39.5t37.5 -15.5q52 0 113 29l18 -90q-83 -49 -149 -49q-70 0 -111 39t-41 98q0 70 49.5 144.5t118.5 133.5q-25 46 -25 101v39q-113 -168 -274 -168
q-109 0 -174.5 83.5t-65.5 233.5q0 162 51.5 318.5t141.5 259.5q144 165 365 165q130 0 262 -69zM762 897q-57 25 -123 25q-74 0 -147 -43t-127 -131q-55 -91 -86 -210.5t-31 -234.5q0 -194 129 -194q137 0 264 225z" />
    <glyph glyph-name="Cacute" unicode="&#x106;" horiz-adv-x="997" 
d="M1104 1296l-88 -92q-94 94 -228 94q-91 0 -173 -58t-140 -150t-101 -203t-64 -219t-21 -197q0 -159 72.5 -263t207.5 -104q123 0 256 84l45 -104q-150 -100 -335 -100q-192 0 -296 131.5t-104 361.5q0 97 21 204.5t59 213t97 201t130 168.5t163 116t192 43
q190 0 307 -127zM1077 1712l-399 -199l-45 84l368 256z" />
    <glyph glyph-name="cacute" unicode="&#x107;" horiz-adv-x="794" 
d="M834 950l-70 -92q-73 66 -168 66q-114 0 -199 -125q-65 -96 -105 -217t-40 -248q0 -114 43 -174t117 -60q111 0 204 99l68 -97q-74 -70 -143 -97.5t-156 -27.5q-142 0 -212.5 91t-70.5 254q0 160 61.5 334t174.5 278q121 113 270 113q129 0 226 -97zM891 1364l-399 -199
l-46 84l369 256z" />
    <glyph glyph-name="Ccircumflex" unicode="&#x108;" horiz-adv-x="997" 
d="M1104 1296l-88 -92q-94 94 -228 94q-91 0 -173 -58t-140 -150t-101 -203t-64 -219t-21 -197q0 -159 72.5 -263t207.5 -104q123 0 256 84l45 -104q-150 -100 -335 -100q-192 0 -296 131.5t-104 361.5q0 97 21 204.5t59 213t97 201t130 168.5t163 116t192 43
q190 0 307 -127zM1137 1587l-74 -74l-207 168l-276 -176l-52 82l353 277z" />
    <glyph glyph-name="ccircumflex" unicode="&#x109;" horiz-adv-x="794" 
d="M834 950l-70 -92q-73 66 -168 66q-114 0 -199 -125q-65 -96 -105 -217t-40 -248q0 -114 43 -174t117 -60q111 0 204 99l68 -97q-74 -70 -143 -97.5t-156 -27.5q-142 0 -212.5 91t-70.5 254q0 160 61.5 334t174.5 278q121 113 270 113q129 0 226 -97zM944 1239l-74 -74
l-206 168l-277 -176l-51 82l352 277z" />
    <glyph glyph-name="Cdotaccent" unicode="&#x10a;" horiz-adv-x="997" 
d="M1104 1296l-88 -92q-94 94 -228 94q-91 0 -173 -58t-140 -150t-101 -203t-64 -219t-21 -197q0 -159 72.5 -263t207.5 -104q123 0 256 84l45 -104q-150 -100 -335 -100q-192 0 -296 131.5t-104 361.5q0 97 21 204.5t59 213t97 201t130 168.5t163 116t192 43
q190 0 307 -127zM971 1645q0 -53 -36.5 -89t-88.5 -36t-88.5 36t-36.5 89q0 52 36 88t89 36t89 -36t36 -88z" />
    <glyph glyph-name="cdotaccent" unicode="&#x10b;" horiz-adv-x="794" 
d="M834 950l-70 -92q-73 66 -168 66q-114 0 -199 -125q-65 -96 -105 -217t-40 -248q0 -114 43 -174t117 -60q111 0 204 99l68 -97q-74 -70 -143 -97.5t-156 -27.5q-142 0 -212.5 91t-70.5 254q0 160 61.5 334t174.5 278q121 113 270 113q129 0 226 -97zM784 1305
q0 -53 -36 -89t-89 -36q-52 0 -88 36t-36 89t36 89t88 36q53 0 89 -36t36 -89z" />
    <glyph glyph-name="Ccaron" unicode="&#x10c;" horiz-adv-x="997" 
d="M1104 1296l-88 -92q-94 94 -228 94q-91 0 -173 -58t-140 -150t-101 -203t-64 -219t-21 -197q0 -159 72.5 -263t207.5 -104q123 0 256 84l45 -104q-150 -100 -335 -100q-192 0 -296 131.5t-104 361.5q0 97 21 204.5t59 213t97 201t130 168.5t163 116t192 43
q190 0 307 -127zM1159 1778l-352 -277l-256 277l74 73l204 -168l279 177z" />
    <glyph glyph-name="ccaron" unicode="&#x10d;" horiz-adv-x="794" 
d="M834 950l-70 -92q-73 66 -168 66q-114 0 -199 -125q-65 -96 -105 -217t-40 -248q0 -114 43 -174t117 -60q111 0 204 99l68 -97q-74 -70 -143 -97.5t-156 -27.5q-142 0 -212.5 91t-70.5 254q0 160 61.5 334t174.5 278q121 113 270 113q129 0 226 -97zM985 1430l-352 -277
l-256 277l74 73l204 -168l279 176z" />
    <glyph glyph-name="Dcaron" unicode="&#x10e;" horiz-adv-x="1110" 
d="M1108 930q0 -183 -54 -361t-141 -303q-93 -133 -217 -199.5t-295 -66.5h-319l299 1405h233q263 0 378.5 -114t115.5 -361zM944 928q0 169 -69 259.5t-228 90.5h-147l-246 -1151h156q118 0 217 57t168 160q70 106 109.5 263t39.5 321zM1051 1778l-353 -277l-256 277l74 73
l205 -168l278 177z" />
    <glyph glyph-name="dcaron" unicode="&#x10f;" horiz-adv-x="1153" 
d="M1403 1331q0 -76 -64 -160q-45 -56 -139 -106l-47 68q47 22 76 57.5t35 79.5q-8 -2 -19 -2q-38 0 -64 29t-26 71q0 46 34 79.5t83 33.5q57 0 94 -42t37 -108zM1067 1470l-240 -1118q-24 -112 -24 -184q0 -73 41 -135l-123 -68q-41 48 -52 93t-5 108q-49 -82 -130.5 -132
t-175.5 -50q-117 0 -185.5 83.5t-68.5 233.5q0 159 54 312.5t145 258.5q78 90 169 127t210 37q73 0 147 -24l21 96l82 387zM803 893q-75 27 -133 27q-190 0 -299 -179q-57 -94 -90 -210t-33 -228q0 -87 34.5 -139.5t104.5 -52.5q87 0 158.5 61.5t142.5 185.5z" />
    <glyph glyph-name="Dcroat" unicode="&#x110;" horiz-adv-x="1110" 
d="M1108 930q0 -183 -54 -361t-141 -303q-93 -133 -217 -199.5t-295 -66.5h-319l137 649h-127l29 129h127l133 627h233q263 0 378.5 -114t115.5 -361zM944 928q0 169 -69 259.5t-228 90.5h-147l-107 -500h338l-49 -129h-317l-111 -522h156q118 0 217 57t168 160
q70 106 109.5 263t39.5 321z" />
    <glyph glyph-name="dcroat" unicode="&#x111;" horiz-adv-x="999" 
d="M1067 1470l-41 -188h141l-24 -111h-142l-174 -819q-24 -112 -24 -184q0 -73 41 -135l-123 -68q-41 52 -52 92.5t-5 108.5q-49 -82 -130.5 -132t-175.5 -50q-117 0 -185.5 83.5t-68.5 233.5q0 159 54 312.5t145 258.5q78 90 169 127t210 37q73 0 147 -24l33 159h-209
l25 111h209l45 213zM803 893q-75 27 -133 27q-190 0 -299 -179q-57 -94 -90 -210t-33 -228q0 -87 34.5 -139.5t104.5 -52.5q87 0 158.5 61.5t142.5 185.5z" />
    <glyph glyph-name="Emacron" unicode="&#x112;" horiz-adv-x="890" 
d="M1049 1405l-52 -127h-495l-103 -481h420l-28 -129h-420l-113 -537h539l-29 -131h-686l299 1405h668zM1004 1630l-25 -110h-490l25 110h490z" />
    <glyph glyph-name="emacron" unicode="&#x113;" horiz-adv-x="854" 
d="M854 807q0 -55 -22 -115.5t-60 -101.5q-118 -125 -375 -125q-32 0 -118 4q-21 -82 -21 -135q0 -112 46.5 -176t146.5 -64q133 0 243 107l58 -80q-133 -144 -324 -144q-319 0 -319 361q0 153 54.5 311.5t149.5 259.5q132 138 289 138q122 0 187 -66.5t65 -173.5zM723 801
q0 59 -30.5 99t-102.5 40q-90 0 -167 -102t-124 -263q74 -4 102 -4q107 0 169 25t102 70q24 26 37.5 65t13.5 70zM870 1282l-24 -111h-490l25 111h489z" />
    <glyph glyph-name="Ebreve" unicode="&#x114;" horiz-adv-x="890" 
d="M1049 1405l-52 -127h-495l-103 -481h420l-28 -129h-420l-113 -537h539l-29 -131h-686l299 1405h668zM1079 1778q-25 -32 -58.5 -67t-79.5 -74t-100 -64t-102 -25q-45 0 -87.5 20.5t-71.5 48.5t-54 63.5t-36.5 58t-18.5 39.5l82 82q91 -127 209 -127q64 0 143 40.5
t137 86.5z" />
    <glyph glyph-name="ebreve" unicode="&#x115;" horiz-adv-x="854" 
d="M854 807q0 -55 -22 -115.5t-60 -101.5q-118 -125 -375 -125q-32 0 -118 4q-21 -82 -21 -135q0 -112 46.5 -176t146.5 -64q133 0 243 107l58 -80q-133 -144 -324 -144q-319 0 -319 361q0 153 54.5 311.5t149.5 259.5q132 138 289 138q122 0 187 -66.5t65 -173.5zM723 801
q0 59 -30.5 99t-102.5 40q-90 0 -167 -102t-124 -263q74 -4 102 -4q107 0 169 25t102 70q24 26 37.5 65t13.5 70zM942 1430q-25 -32 -58.5 -67t-79.5 -74t-100 -64t-102 -25q-45 0 -87.5 20.5t-71.5 48.5t-54 63.5t-36.5 58t-18.5 39.5l82 81q91 -127 209 -127
q64 0 143 40.5t137 86.5z" />
    <glyph glyph-name="Edotaccent" unicode="&#x116;" horiz-adv-x="890" 
d="M1049 1405l-52 -127h-495l-103 -481h420l-28 -129h-420l-113 -537h539l-29 -131h-686l299 1405h668zM889 1645q0 -53 -36.5 -89t-88.5 -36t-88.5 36t-36.5 89q0 52 36 88t89 36t89 -36t36 -88z" />
    <glyph glyph-name="edotaccent" unicode="&#x117;" horiz-adv-x="854" 
d="M854 807q0 -55 -22 -115.5t-60 -101.5q-118 -125 -375 -125q-32 0 -118 4q-21 -82 -21 -135q0 -112 46.5 -176t146.5 -64q133 0 243 107l58 -80q-133 -144 -324 -144q-319 0 -319 361q0 153 54.5 311.5t149.5 259.5q132 138 289 138q122 0 187 -66.5t65 -173.5zM723 801
q0 59 -30.5 99t-102.5 40q-90 0 -167 -102t-124 -263q74 -4 102 -4q107 0 169 25t102 70q24 26 37.5 65t13.5 70zM752 1305q0 -53 -36 -89t-89 -36t-89 36t-36 89t36 89t89 36t89 -36t36 -89z" />
    <glyph glyph-name="Eogonek" unicode="&#x118;" horiz-adv-x="890" 
d="M768 0h-59q-68 -61 -114 -127t-46 -111q0 -24 13.5 -39.5t37.5 -15.5q52 0 113 29l18 -90q-83 -49 -149 -49q-70 0 -111 39t-41 98q0 67 44.5 137.5t109.5 128.5h-502l299 1405h668l-52 -127h-495l-103 -481h420l-28 -129h-420l-113 -537h539z" />
    <glyph glyph-name="eogonek" unicode="&#x119;" horiz-adv-x="854" 
d="M854 807q0 -55 -22 -115.5t-60 -101.5q-118 -125 -375 -125q-32 0 -118 4q-21 -82 -21 -135q0 -112 46.5 -176t146.5 -64q133 0 243 107l58 -80q-18 -15 -67.5 -52t-76.5 -59q-184 -148 -184 -248q0 -24 13.5 -39.5t37.5 -15.5q52 0 113 29l18 -90q-83 -49 -149 -49
q-70 0 -111 39t-41 98q0 112 131 243q-164 -2 -245.5 87.5t-81.5 273.5q0 153 54.5 311.5t149.5 259.5q132 138 289 138q122 0 187 -66.5t65 -173.5zM723 801q0 59 -30.5 99t-102.5 40q-90 0 -167 -102t-124 -263q74 -4 102 -4q107 0 169 25t102 70q24 26 37.5 65t13.5 70z
" />
    <glyph glyph-name="Ecaron" unicode="&#x11a;" horiz-adv-x="890" 
d="M1049 1405l-52 -127h-495l-103 -481h420l-28 -129h-420l-113 -537h539l-29 -131h-686l299 1405h668zM1081 1778l-352 -277l-256 277l74 73l205 -168l278 177z" />
    <glyph glyph-name="ecaron" unicode="&#x11b;" horiz-adv-x="854" 
d="M854 807q0 -55 -22 -115.5t-60 -101.5q-118 -125 -375 -125q-32 0 -118 4q-21 -82 -21 -135q0 -112 46.5 -176t146.5 -64q133 0 243 107l58 -80q-133 -144 -324 -144q-319 0 -319 361q0 153 54.5 311.5t149.5 259.5q132 138 289 138q122 0 187 -66.5t65 -173.5zM723 801
q0 59 -30.5 99t-102.5 40q-90 0 -167 -102t-124 -263q74 -4 102 -4q107 0 169 25t102 70q24 26 37.5 65t13.5 70zM946 1430l-352 -277l-256 277l74 73l204 -168l279 176z" />
    <glyph glyph-name="Gcircumflex" unicode="&#x11c;" horiz-adv-x="1116" 
d="M1145 1268l-88 -82q-106 112 -258 112q-105 0 -200 -71.5t-162 -189.5t-106.5 -273.5t-39.5 -319.5q0 -165 75 -253.5t197 -88.5q119 0 225 56l95 448h-246v127h410l-136 -641q-180 -115 -356 -115q-199 0 -308.5 123.5t-109.5 345.5q0 184 46.5 358.5t130 312t211 221
t276.5 83.5q115 0 203 -41t141 -112zM1141 1587l-74 -74l-207 168l-276 -176l-52 82l353 277z" />
    <glyph glyph-name="gcircumflex" unicode="&#x11d;" horiz-adv-x="995" 
d="M967 977q-36 -127 -54 -213l-104 -485q-9 -41 -29 -147.5t-28 -137.5q-53 -212 -152.5 -312t-284.5 -100q-162 0 -333 103l49 106q163 -90 299 -90q97 0 174 69.5t108 200.5l41 174q-51 -75 -125.5 -118t-162.5 -43q-117 0 -186.5 83.5t-69.5 233.5q0 161 52 317t142 259
q148 170 383 170q133 0 281 -70zM807 895q-67 29 -133 29q-194 0 -303 -179q-56 -92 -87.5 -210t-31.5 -232q0 -94 37 -148.5t108 -54.5q87 0 161 67.5t130 172.5zM1022 1239l-74 -74l-207 168l-276 -176l-51 82l352 277z" />
    <glyph glyph-name="Gbreve" unicode="&#x11e;" horiz-adv-x="1116" 
d="M1145 1268l-88 -82q-106 112 -258 112q-105 0 -200 -71.5t-162 -189.5t-106.5 -273.5t-39.5 -319.5q0 -165 75 -253.5t197 -88.5q119 0 225 56l95 448h-246v127h410l-136 -641q-180 -115 -356 -115q-199 0 -308.5 123.5t-109.5 345.5q0 184 46.5 358.5t130 312t211 221
t276.5 83.5q115 0 203 -41t141 -112zM1171 1778q-25 -32 -58.5 -67t-79.5 -74t-100 -64t-102 -25q-45 0 -87.5 20.5t-71.5 48.5t-54 63.5t-36.5 58t-18.5 39.5l82 82q91 -127 209 -127q64 0 143.5 40.5t137.5 86.5z" />
    <glyph glyph-name="gbreve" unicode="&#x11f;" horiz-adv-x="995" 
d="M967 977q-36 -127 -54 -213l-104 -485q-9 -41 -29 -147.5t-28 -137.5q-53 -212 -152.5 -312t-284.5 -100q-162 0 -333 103l49 106q163 -90 299 -90q97 0 174 69.5t108 200.5l41 174q-51 -75 -125.5 -118t-162.5 -43q-117 0 -186.5 83.5t-69.5 233.5q0 161 52 317t142 259
q148 170 383 170q133 0 281 -70zM807 895q-67 29 -133 29q-194 0 -303 -179q-56 -92 -87.5 -210t-31.5 -232q0 -94 37 -148.5t108 -54.5q87 0 161 67.5t130 172.5zM1057 1430q-25 -32 -58.5 -67t-79.5 -74t-100 -64t-102 -25q-45 0 -87.5 20.5t-71.5 48.5t-54 63.5t-36.5 58
t-18.5 39.5l81 81q91 -127 209 -127q64 0 143.5 40.5t137.5 86.5z" />
    <glyph glyph-name="Gdotaccent" unicode="&#x120;" horiz-adv-x="1116" 
d="M1145 1268l-88 -82q-106 112 -258 112q-105 0 -200 -71.5t-162 -189.5t-106.5 -273.5t-39.5 -319.5q0 -165 75 -253.5t197 -88.5q119 0 225 56l95 448h-246v127h410l-136 -641q-180 -115 -356 -115q-199 0 -308.5 123.5t-109.5 345.5q0 184 46.5 358.5t130 312t211 221
t276.5 83.5q115 0 203 -41t141 -112zM977 1645q0 -53 -36.5 -89t-88.5 -36t-88.5 36t-36.5 89q0 52 36 88t89 36t89 -36t36 -88z" />
    <glyph glyph-name="gdotaccent" unicode="&#x121;" horiz-adv-x="995" 
d="M967 977q-36 -127 -54 -213l-104 -485q-9 -41 -29 -147.5t-28 -137.5q-53 -212 -152.5 -312t-284.5 -100q-162 0 -333 103l49 106q163 -90 299 -90q97 0 174 69.5t108 200.5l41 174q-51 -75 -125.5 -118t-162.5 -43q-117 0 -186.5 83.5t-69.5 233.5q0 161 52 317t142 259
q148 170 383 170q133 0 281 -70zM807 895q-67 29 -133 29q-194 0 -303 -179q-56 -92 -87.5 -210t-31.5 -232q0 -94 37 -148.5t108 -54.5q87 0 161 67.5t130 172.5zM860 1305q0 -53 -36 -89t-89 -36t-89 36t-36 89t36 89t89 36t89 -36t36 -89z" />
    <glyph glyph-name="uni0122" unicode="&#x122;" horiz-adv-x="1116" 
d="M1145 1268l-88 -82q-106 112 -258 112q-105 0 -200 -71.5t-162 -189.5t-106.5 -273.5t-39.5 -319.5q0 -165 75 -253.5t197 -88.5q119 0 225 56l95 448h-246v127h410l-136 -641q-180 -115 -356 -115q-199 0 -308.5 123.5t-109.5 345.5q0 184 46.5 358.5t130 312t211 221
t276.5 83.5q115 0 203 -41t141 -112zM629 -244q0 -75 -64 -159q-47 -58 -139 -107l-47 68q98 45 110 137q-8 -2 -18 -2q-38 0 -64 29t-26 71q0 46 34 79.5t83 33.5q57 0 94 -42t37 -108z" />
    <glyph glyph-name="uni0123" unicode="&#x123;" horiz-adv-x="995" 
d="M967 977q-36 -127 -54 -213l-104 -485q-9 -41 -29 -147.5t-28 -137.5q-53 -212 -152.5 -312t-284.5 -100q-162 0 -333 103l49 106q163 -90 299 -90q97 0 174 69.5t108 200.5l41 174q-51 -75 -125.5 -118t-162.5 -43q-117 0 -186.5 83.5t-69.5 233.5q0 161 52 317t142 259
q148 170 383 170q133 0 281 -70zM807 895q-67 29 -133 29q-194 0 -303 -179q-56 -92 -87.5 -210t-31.5 -232q0 -94 37 -148.5t108 -54.5q87 0 161 67.5t130 172.5zM608 1343q0 76 64 160q47 58 139 107l47 -68q-98 -45 -110 -137q8 2 18 2q38 0 64 -29t26 -71
q0 -46 -34 -79.5t-83 -33.5q-57 0 -94 41.5t-37 107.5z" />
    <glyph glyph-name="Hcircumflex" unicode="&#x124;" horiz-adv-x="1130" 
d="M1184 1405l-299 -1405h-146l146 688h-514l-146 -688h-143l299 1405h143l-127 -596h514l127 596h146zM1120 1587l-73 -74l-207 168l-277 -176l-51 82l352 277z" />
    <glyph glyph-name="hcircumflex" unicode="&#x125;" horiz-adv-x="999" 
d="M922 858q0 -54 -19 -149l-149 -709h-140l148 698q18 83 18 140q0 84 -98 84q-143 0 -313 -222l-148 -700h-139l242 1133q20 90 20 190q0 84 -14 127l143 57q16 -59 16 -143q0 -104 -22 -209l-35 -166q-15 -66 -35 -129q145 182 324 182q95 0 148 -48t53 -136zM786 1595
l-73 -73l-207 168l-277 -177l-51 82l352 277z" />
    <glyph glyph-name="Hbar" unicode="&#x126;" horiz-adv-x="1130" 
d="M1184 1405l-49 -225h129l-29 -129h-127l-223 -1051h-146l146 688h-514l-146 -688h-143l223 1051h-127l29 129h125l49 225h143l-49 -225h514l49 225h146zM963 1051h-514l-52 -242h514z" />
    <glyph glyph-name="hbar" unicode="&#x127;" horiz-adv-x="999" 
d="M922 858q0 -54 -19 -149l-149 -709h-140l148 698q18 83 18 140q0 84 -98 84q-143 0 -313 -222l-148 -700h-139l250 1171h-131l24 111h117q2 14 2 41q0 84 -14 127l143 57q16 -59 16 -143q0 -20 -4 -82h332l-24 -111h-324l-37 -182q-7 -46 -35 -129q145 182 324 182
q95 0 148 -48t53 -136z" />
    <glyph glyph-name="Itilde" unicode="&#x128;" horiz-adv-x="471" 
d="M524 1405l-299 -1405h-143l299 1405h143zM813 1698q-60 -72 -104.5 -99.5t-118.5 -27.5q-57 0 -122.5 34.5t-109.5 34.5q-39 0 -69 -17t-70 -56l-37 69q55 67 103 97t121 30q55 0 118 -34.5t113 -34.5q39 0 69 17t70 56z" />
    <glyph glyph-name="itilde" unicode="&#x129;" horiz-adv-x="473" 
d="M449 1042l-222 -1042h-145l217 1022zM733 1350q-60 -72 -104.5 -99.5t-118.5 -27.5q-57 0 -122 34.5t-109 34.5q-40 0 -70 -17.5t-70 -55.5l-37 69q55 67 103 97t121 30q55 0 118 -34.5t113 -34.5q39 0 69 17t70 56z" />
    <glyph glyph-name="Imacron" unicode="&#x12a;" horiz-adv-x="471" 
d="M524 1405l-299 -1405h-143l299 1405h143zM733 1630l-24 -110h-490l25 110h489z" />
    <glyph glyph-name="imacron" unicode="&#x12b;" horiz-adv-x="473" 
d="M449 1042l-222 -1042h-145l217 1022zM676 1282l-25 -111h-489l24 111h490z" />
    <glyph glyph-name="Ibreve" unicode="&#x12c;" horiz-adv-x="471" 
d="M524 1405l-299 -1405h-143l299 1405h143zM813 1778q-25 -32 -58.5 -67t-79.5 -74t-100 -64t-102 -25q-45 0 -87.5 20.5t-71.5 48.5t-54 63.5t-36.5 58t-18.5 39.5l82 82q91 -127 209 -127q64 0 143 40.5t137 86.5z" />
    <glyph glyph-name="ibreve" unicode="&#x12d;" horiz-adv-x="473" 
d="M449 1042l-222 -1042h-145l217 1022zM750 1430q-25 -32 -58.5 -67t-79.5 -74t-100 -64t-102 -25q-45 0 -87.5 20.5t-71.5 48.5t-54.5 63.5t-37 58t-18.5 39.5l82 81q91 -127 209 -127q64 0 143.5 40.5t137.5 86.5z" />
    <glyph glyph-name="Iogonek" unicode="&#x12e;" horiz-adv-x="471" 
d="M225 0q-70 -45 -124 -116t-54 -122q0 -24 13.5 -39.5t37.5 -15.5q52 0 113 29l18 -90q-83 -49 -149 -49q-70 0 -111 39t-41 98q0 67 44.5 137.5t109.5 128.5l299 1405h143z" />
    <glyph glyph-name="iogonek" unicode="&#x12f;" horiz-adv-x="473" 
d="M449 1042l-222 -1042q-55 -23 -117.5 -106.5t-62.5 -131.5q0 -24 13.5 -39.5t37.5 -15.5q52 0 113 29l18 -90q-83 -49 -149 -49q-70 0 -111 39t-41 98q0 67 44.5 137.5t109.5 128.5l217 1022zM537 1321q0 -44 -32.5 -76.5t-76.5 -32.5t-76.5 32.5t-32.5 76.5t32.5 76.5
t76.5 32.5t76.5 -32.5t32.5 -76.5z" />
    <glyph glyph-name="Idotaccent" unicode="&#x130;" horiz-adv-x="471" 
d="M524 1405l-299 -1405h-143l299 1405h143zM618 1645q0 -53 -36 -89t-88 -36t-88.5 36t-36.5 89q0 52 36 88t89 36q52 0 88 -35.5t36 -88.5z" />
    <glyph glyph-name="dotlessi" unicode="&#x131;" horiz-adv-x="473" 
d="M449 1042l-222 -1042h-145l217 1022z" />
    <glyph glyph-name="Jcircumflex" unicode="&#x134;" horiz-adv-x="485" 
d="M539 1405l-248 -1165q-31 -139 -53 -204t-60 -120q-75 -109 -244 -170l-51 92q57 25 96 55.5t80 88.5q25 33 41 85t41 169l250 1169h148zM805 1587l-74 -74l-207 168l-276 -176l-51 82l352 277z" />
    <glyph glyph-name="jcircumflex" unicode="&#x135;" horiz-adv-x="471" 
d="M449 1047l-222 -1033q-32 -155 -71 -225q-68 -121 -226 -195l-57 93q95 46 137 111.5t72 203.5l217 1016zM717 1239l-74 -74l-207 168l-276 -176l-51 82l352 277z" />
    <glyph glyph-name="uni0136" unicode="&#x136;" horiz-adv-x="976" 
d="M1163 1364l-600 -627l334 -717l-152 -49l-342 779l646 696zM528 1405l-299 -1405h-147l299 1405h147zM551 -244q0 -75 -64 -159q-47 -58 -139 -107l-47 68q47 22 76 57.5t35 79.5q-8 -2 -19 -2q-38 0 -64 29t-26 71q0 46 34 79.5t83 33.5q57 0 94 -42t37 -108z" />
    <glyph glyph-name="uni0137" unicode="&#x137;" horiz-adv-x="901" 
d="M473 1507q16 -59 16 -143q0 -104 -22 -209l-246 -1155h-139l242 1133q20 90 20 190q0 84 -14 127zM924 977l-412 -404l289 -550l-135 -54l-310 621l469 471zM522 -244q0 -77 -63 -159q-46 -57 -140 -107l-47 68q47 22 76 57.5t35 79.5q-8 -2 -18 -2q-38 0 -64.5 29.5
t-26.5 70.5q0 46 34 79.5t83 33.5q57 0 94 -42t37 -108z" />
    <glyph glyph-name="kgreenlandic" unicode="&#x138;" horiz-adv-x="901" 
d="M924 977l-412 -404l289 -550l-135 -54l-310 621l469 471zM221 0h-139l160 743q20 90 20 191q0 84 -14 127l143 57q17 -63 17 -143q0 -100 -23 -209z" />
    <glyph glyph-name="Lacute" unicode="&#x139;" horiz-adv-x="813" 
d="M739 133l-49 -133h-608l299 1405h145l-270 -1272h483zM764 1712l-399 -199l-46 84l369 256z" />
    <glyph glyph-name="lacute" unicode="&#x13a;" horiz-adv-x="468" 
d="M473 1507q16 -63 16 -143q0 -99 -22 -209l-203 -958q-10 -50 -10 -62q0 -22 9.5 -31.5t31.5 -9.5q11 0 31 4l8 -96q-48 -22 -107 -22q-51 0 -83.5 29t-32.5 79q0 44 8 80l205 965q20 90 20 190q0 81 -14 127zM711 1712l-400 -199l-45 84l369 256z" />
    <glyph glyph-name="uni013B" unicode="&#x13b;" horiz-adv-x="813" 
d="M739 133l-49 -133h-608l299 1405h145l-270 -1272h483zM500 -244q0 -75 -64 -159q-47 -58 -139 -107l-47 68q98 45 110 137q-8 -2 -18 -2q-38 0 -64 29t-26 71q0 46 34 79.5t83 33.5q57 0 94 -42t37 -108z" />
    <glyph glyph-name="uni013C" unicode="&#x13c;" horiz-adv-x="468" 
d="M473 1507q16 -63 16 -143q0 -99 -22 -209l-203 -958q-10 -50 -10 -62q0 -22 9.5 -31.5t31.5 -9.5q11 0 31 4l8 -96q-48 -22 -107 -22q-51 0 -83.5 29t-32.5 79q0 44 8 80l205 965q20 90 20 190q0 81 -14 127zM299 -244q0 -77 -63 -159q-46 -57 -140 -107l-47 68
q47 22 76 57.5t35 79.5q-8 -2 -19 -2q-38 0 -64 29t-26 71q0 46 34 79.5t83 33.5q57 0 94 -42t37 -108z" />
    <glyph glyph-name="Lcaron" unicode="&#x13d;" horiz-adv-x="813" 
d="M922 1255q0 -75 -64 -159q-47 -58 -139 -107l-47 68q98 45 110 137q-8 -2 -18 -2q-38 0 -64 29t-26 71q0 46 34 79.5t83 33.5q57 0 94 -42t37 -108zM739 133l-49 -133h-608l299 1405h145l-270 -1272h483z" />
    <glyph glyph-name="lcaron" unicode="&#x13e;" horiz-adv-x="575" 
d="M829 1331q0 -78 -63 -160q-45 -56 -139 -106l-47 68q98 45 110 137q-8 -2 -18 -2q-38 0 -64 29t-26 71q0 46 33.5 79.5t82.5 33.5q57 0 94 -42t37 -108zM473 1507q16 -63 16 -143q0 -99 -22 -209l-203 -958q-10 -50 -10 -62q0 -22 9.5 -31.5t31.5 -9.5q11 0 31 4l8 -96
q-48 -22 -107 -22q-51 0 -83.5 29t-32.5 79q0 44 8 80l205 965q20 90 20 190q0 81 -14 127z" />
    <glyph glyph-name="Ldot" unicode="&#x13f;" horiz-adv-x="813" 
d="M739 133l-49 -133h-608l299 1405h145l-270 -1272h483zM805 713q0 -40 -28.5 -70.5t-67.5 -30.5q-40 0 -69.5 30.5t-29.5 70.5t28.5 68t68.5 28t69 -28t29 -68z" />
    <glyph glyph-name="ldot" unicode="&#x140;" horiz-adv-x="555" 
d="M473 1507q16 -63 16 -143q0 -99 -22 -209l-203 -958q-10 -50 -10 -62q0 -22 9.5 -31.5t31.5 -9.5q11 0 31 4l8 -96q-48 -22 -107 -22q-51 0 -83.5 29t-32.5 79q0 44 8 80l205 965q20 90 20 190q0 81 -14 127zM684 764q0 -40 -28.5 -70t-67.5 -30q-40 0 -69.5 30t-29.5 70
t28.5 68t68.5 28t69 -28t29 -68z" />
    <glyph glyph-name="Lslash" unicode="&#x141;" horiz-adv-x="813" 
d="M739 133l-49 -133h-608l139 651l-147 -45l26 127l148 45l133 627h145l-125 -582l197 60l-29 -127l-194 -60l-119 -563h483z" />
    <glyph glyph-name="lslash" unicode="&#x142;" horiz-adv-x="468" 
d="M530 868l-26 -127l-133 -43l-107 -501q-10 -45 -10 -62q0 -23 10 -32t31 -9q7 0 31 4l8 -96q-48 -22 -107 -22q-53 0 -84.5 30t-31.5 78q0 41 8 80l102 481l-133 -43l27 127l133 43l76 357q20 90 20 190q0 84 -14 127l143 57q16 -59 16 -143q0 -104 -22 -209l-70 -330z
" />
    <glyph glyph-name="Nacute" unicode="&#x143;" horiz-adv-x="1140" 
d="M1194 1405l-299 -1405h-152l-204 864q-59 244 -72 348q-40 -273 -66 -397l-168 -815h-151l299 1405h168l217 -916q12 -48 20.5 -92.5t12 -70t9.5 -68t9 -65.5q1 3 8 52t16 106t23.5 139.5t28.5 150.5l156 764h145zM1065 1712l-399 -199l-45 84l368 256z" />
    <glyph glyph-name="nacute" unicode="&#x144;" horiz-adv-x="978" 
d="M903 858q0 -49 -20 -149l-150 -709h-139l147 698q21 97 21 142q0 80 -80 80q-144 0 -317 -228l-148 -692h-135l158 741q16 71 16 133q0 53 -16 119l131 54q24 -70 24 -129q0 -30 -6 -68q148 192 332 192q85 0 133.5 -48.5t48.5 -135.5zM870 1364l-399 -199l-45 84
l369 256z" />
    <glyph glyph-name="uni0145" unicode="&#x145;" horiz-adv-x="1140" 
d="M1194 1405l-299 -1405h-152l-204 864q-59 244 -72 348q-40 -273 -66 -397l-168 -815h-151l299 1405h168l217 -916q12 -48 20.5 -92.5t12 -70t9.5 -68t9 -65.5q1 3 8 52t16 106t23.5 139.5t28.5 150.5l156 764h145zM586 -244q0 -75 -64 -159q-47 -58 -139 -107l-47 68
q98 45 110 137q-8 -2 -18 -2q-38 0 -64 29t-26 71q0 46 34 79.5t83 33.5q57 0 94 -42t37 -108z" />
    <glyph glyph-name="uni0146" unicode="&#x146;" horiz-adv-x="978" 
d="M903 858q0 -49 -20 -149l-150 -709h-139l147 698q21 97 21 142q0 80 -80 80q-144 0 -317 -228l-148 -692h-135l158 741q16 71 16 133q0 53 -16 119l131 54q24 -70 24 -129q0 -30 -6 -68q148 192 332 192q85 0 133.5 -48.5t48.5 -135.5zM494 -244q0 -75 -64 -159
q-47 -58 -139 -107l-47 68q98 45 110 137q-8 -2 -18 -2q-38 0 -64 29t-26 71q0 46 33.5 79.5t82.5 33.5q57 0 94.5 -42t37.5 -108z" />
    <glyph glyph-name="Ncaron" unicode="&#x147;" horiz-adv-x="1140" 
d="M1194 1405l-299 -1405h-152l-204 864q-59 244 -72 348q-40 -273 -66 -397l-168 -815h-151l299 1405h168l217 -916q12 -48 20.5 -92.5t12 -70t9.5 -68t9 -65.5q1 3 8 52t16 106t23.5 139.5t28.5 150.5l156 764h145zM1153 1778l-352 -277l-256 277l73 73l205 -168l279 177z
" />
    <glyph glyph-name="ncaron" unicode="&#x148;" horiz-adv-x="978" 
d="M903 858q0 -49 -20 -149l-150 -709h-139l147 698q21 97 21 142q0 80 -80 80q-144 0 -317 -228l-148 -692h-135l158 741q16 71 16 133q0 53 -16 119l131 54q24 -70 24 -129q0 -30 -6 -68q148 192 332 192q85 0 133.5 -48.5t48.5 -135.5zM1006 1430l-353 -277l-256 277
l74 73l205 -168l278 176z" />
    <glyph glyph-name="napostrophe" unicode="&#x149;" horiz-adv-x="1171" 
d="M489 1274q0 -78 -63 -160q-45 -56 -139 -106l-47 67q98 45 110 137q-8 -2 -18 -2q-38 0 -64 29.5t-26 71.5q0 46 33.5 79t82.5 33q57 0 94 -41.5t37 -107.5zM1096 858q0 -44 -21 -149l-149 -709h-140l148 698q20 93 20 142q0 80 -80 80q-144 0 -317 -228l-147 -692h-136
l158 741q17 75 17 133q0 49 -17 119l131 54q25 -73 25 -129q0 -30 -6 -68q148 192 331 192q85 0 134 -48.5t49 -135.5z" />
    <glyph glyph-name="Eng" unicode="&#x14a;" horiz-adv-x="1140" 
d="M1194 1405l-299 -1405q-31 -145 -94 -236q-75 -109 -244 -170l-49 93q57 25 96 55.5t80 87.5q39 54 61 170l-206 864q-59 244 -72 348q-40 -273 -66 -397l-168 -815h-151l299 1405h168l217 -916q33 -133 51 -296l5 31q4 31 11 75.5t16 100t21 120.5t23 121l156 764h145z
" />
    <glyph glyph-name="eng" unicode="&#x14b;" horiz-adv-x="978" 
d="M903 858q0 -49 -20 -149l-150 -709q-26 -132 -69 -211q-68 -121 -226 -195l-57 93q94 43 140 116.5t73 198.5l147 696q21 97 21 142q0 80 -80 80q-144 0 -317 -228l-148 -692h-135l158 741q16 71 16 133q0 53 -16 119l131 54q24 -70 24 -129q0 -30 -6 -68
q148 192 332 192q85 0 133.5 -48.5t48.5 -135.5z" />
    <glyph glyph-name="Omacron" unicode="&#x14c;" horiz-adv-x="1185" 
d="M1182 956q0 -104 -17.5 -214.5t-51.5 -221.5t-89 -209t-124 -173.5t-162.5 -120t-198.5 -44.5q-400 0 -400 478q0 107 17.5 219t51.5 222t88.5 207t123.5 171t161 117t197 43q206 0 305 -119.5t99 -354.5zM1024 963q0 344 -250 344q-94 0 -174.5 -56t-135.5 -147
t-94 -206t-57 -233t-18 -229q0 -340 254 -340q94 0 175.5 64t135 162t92 217t55.5 228t17 196zM1038 1630l-24 -110h-490l25 110h489z" />
    <glyph glyph-name="omacron" unicode="&#x14d;" horiz-adv-x="929" 
d="M897 715q0 -103 -18.5 -205.5t-59 -199.5t-98 -172t-141 -120t-181.5 -45q-161 0 -237 89t-76 272q0 138 36 267.5t100 229.5t159.5 160t206.5 60q152 0 230.5 -87t78.5 -249zM743 735q0 96 -42.5 148.5t-127.5 52.5q-92 0 -169.5 -83t-121.5 -222.5t-44 -302.5
q0 -124 39.5 -180t134.5 -56t172 95.5t118 242t41 305.5zM868 1282l-24 -111h-490l25 111h489z" />
    <glyph glyph-name="Obreve" unicode="&#x14e;" horiz-adv-x="1185" 
d="M1182 956q0 -104 -17.5 -214.5t-51.5 -221.5t-89 -209t-124 -173.5t-162.5 -120t-198.5 -44.5q-400 0 -400 478q0 107 17.5 219t51.5 222t88.5 207t123.5 171t161 117t197 43q206 0 305 -119.5t99 -354.5zM1024 963q0 344 -250 344q-94 0 -174.5 -56t-135.5 -147
t-94 -206t-57 -233t-18 -229q0 -340 254 -340q94 0 175.5 64t135 162t92 217t55.5 228t17 196zM1118 1778q-25 -32 -58.5 -67t-79.5 -74t-100 -64t-102 -25q-45 0 -87.5 20.5t-71.5 48.5t-54 63.5t-36.5 58t-18.5 39.5l82 82q91 -127 209 -127q64 0 143 40.5t137 86.5z" />
    <glyph glyph-name="obreve" unicode="&#x14f;" horiz-adv-x="929" 
d="M897 715q0 -103 -18.5 -205.5t-59 -199.5t-98 -172t-141 -120t-181.5 -45q-161 0 -237 89t-76 272q0 138 36 267.5t100 229.5t159.5 160t206.5 60q152 0 230.5 -87t78.5 -249zM743 735q0 96 -42.5 148.5t-127.5 52.5q-92 0 -169.5 -83t-121.5 -222.5t-44 -302.5
q0 -124 39.5 -180t134.5 -56t172 95.5t118 242t41 305.5zM940 1430q-25 -32 -58.5 -67t-79.5 -74t-100 -64t-102 -25q-45 0 -87.5 20.5t-71.5 48.5t-54 63.5t-36.5 58t-18.5 39.5l82 81q91 -127 209 -127q64 0 143 40.5t137 86.5z" />
    <glyph glyph-name="Ohungarumlaut" unicode="&#x150;" horiz-adv-x="1185" 
d="M1182 956q0 -104 -17.5 -214.5t-51.5 -221.5t-89 -209t-124 -173.5t-162.5 -120t-198.5 -44.5q-400 0 -400 478q0 107 17.5 219t51.5 222t88.5 207t123.5 171t161 117t197 43q206 0 305 -119.5t99 -354.5zM1024 963q0 344 -250 344q-94 0 -174.5 -56t-135.5 -147
t-94 -206t-57 -233t-18 -229q0 -340 254 -340q94 0 175.5 64t135 162t92 217t55.5 228t17 196zM936 1919l-295 -406l-80 43l244 431zM1268 1880l-348 -354l-68 63l303 387z" />
    <glyph glyph-name="ohungarumlaut" unicode="&#x151;" horiz-adv-x="929" 
d="M897 715q0 -103 -18.5 -205.5t-59 -199.5t-98 -172t-141 -120t-181.5 -45q-161 0 -237 89t-76 272q0 138 36 267.5t100 229.5t159.5 160t206.5 60q152 0 230.5 -87t78.5 -249zM743 735q0 96 -42.5 148.5t-127.5 52.5q-92 0 -169.5 -83t-121.5 -222.5t-44 -302.5
q0 -124 39.5 -180t134.5 -56t172 95.5t118 242t41 305.5zM772 1571l-295 -406l-80 43l244 430zM1104 1532l-348 -354l-68 63l303 387z" />
    <glyph glyph-name="OE" unicode="&#x152;" horiz-adv-x="1484" 
d="M1642 1405l-51 -127h-495l-103 -481h420l-29 -129h-419l-113 -537h539l-29 -131h-803q-204 0 -312 119t-108 352q0 107 18 216t53 213.5t90 195.5t124.5 160.5t162 109t197.5 39.5h858zM948 1282h-168q-94 0 -175 -51.5t-137 -135.5t-96 -192t-58.5 -222t-18.5 -224
q0 -156 69.5 -245t204.5 -89h133z" />
    <glyph glyph-name="oe" unicode="&#x153;" horiz-adv-x="1441" 
d="M1442 807q0 -55 -22 -115.5t-60 -101.5q-118 -125 -375 -125q-33 0 -119 4q-20 -78 -20 -135q0 -240 192 -240q134 0 244 107l57 -80q-133 -144 -323 -144q-220 0 -289 168q-132 -172 -328 -172q-161 0 -237 89t-76 272q0 138 36 267.5t100 229.5t159.5 160t206.5 60
q215 0 282 -177l31 35q132 138 289 138q122 0 187 -66.5t65 -173.5zM743 735q0 96 -42.5 148.5t-127.5 52.5q-92 0 -169.5 -83t-121.5 -222.5t-44 -302.5q0 -124 39.5 -180t134.5 -56t172 95.5t118 242t41 305.5zM1311 801q0 59 -30.5 99t-102.5 40q-90 0 -167 -102
t-124 -263q74 -4 102 -4q107 0 169 25t102 70q24 26 37.5 65t13.5 70z" />
    <glyph glyph-name="Racute" unicode="&#x154;" horiz-adv-x="980" 
d="M1024 1075q0 -118 -49.5 -216t-145.5 -158t-221 -60h-16q88 -91 184 -328q51 -128 96 -293l-141 -43q-79 234 -100 287q-84 221 -142 299q-29 40 -54.5 56t-69.5 22l-138 -641h-145l299 1405h285q77 0 139.5 -17t113 -54.5t78 -103t27.5 -155.5zM866 1061q0 217 -223 217
h-141l-115 -539h172q138 0 222.5 92t84.5 230zM981 1712l-399 -199l-45 84l368 256z" />
    <glyph glyph-name="racute" unicode="&#x155;" horiz-adv-x="600" 
d="M741 1034l-63 -160q-39 13 -64 13q-67 0 -129 -68.5t-131 -191.5l-133 -627h-139l158 741q16 71 16 133q0 53 -16 119l135 54q24 -70 24 -129q0 -32 -10 -84q129 213 285 213q34 0 67 -13zM688 1364l-399 -199l-45 84l368 256z" />
    <glyph glyph-name="uni0156" unicode="&#x156;" horiz-adv-x="980" 
d="M1024 1075q0 -118 -49.5 -216t-145.5 -158t-221 -60h-16q88 -91 184 -328q51 -128 96 -293l-141 -43q-79 234 -100 287q-84 221 -142 299q-29 40 -54.5 56t-69.5 22l-138 -641h-145l299 1405h285q77 0 139.5 -17t113 -54.5t78 -103t27.5 -155.5zM866 1061q0 217 -223 217
h-141l-115 -539h172q138 0 222.5 92t84.5 230zM549 -244q0 -75 -64 -159q-47 -58 -139 -107l-47 68q47 22 76 57.5t35 79.5q-8 -2 -19 -2q-38 0 -64 29t-26 71q0 46 34 79.5t83 33.5q57 0 94 -42t37 -108z" />
    <glyph glyph-name="uni0157" unicode="&#x157;" horiz-adv-x="600" 
d="M741 1034l-63 -160q-39 13 -64 13q-67 0 -129 -68.5t-131 -191.5l-133 -627h-139l158 741q16 71 16 133q0 53 -16 119l135 54q24 -70 24 -129q0 -32 -10 -84q129 213 285 213q34 0 67 -13zM250 -244q0 -75 -64 -159q-47 -58 -139 -107l-47 68q47 22 76 57.5t35 79.5
q-8 -2 -19 -2q-38 0 -64 29t-26 71q0 46 34 79.5t83 33.5q57 0 94 -42t37 -108z" />
    <glyph glyph-name="Rcaron" unicode="&#x158;" horiz-adv-x="980" 
d="M1024 1075q0 -118 -49.5 -216t-145.5 -158t-221 -60h-16q88 -91 184 -328q51 -128 96 -293l-141 -43q-79 234 -100 287q-84 221 -142 299q-29 40 -54.5 56t-69.5 22l-138 -641h-145l299 1405h285q77 0 139.5 -17t113 -54.5t78 -103t27.5 -155.5zM866 1061q0 217 -223 217
h-141l-115 -539h172q138 0 222.5 92t84.5 230zM1042 1778l-352 -277l-256 277l74 73l205 -168l278 177z" />
    <glyph glyph-name="rcaron" unicode="&#x159;" horiz-adv-x="600" 
d="M741 1034l-63 -160q-39 13 -64 13q-67 0 -129 -68.5t-131 -191.5l-133 -627h-139l158 741q16 71 16 133q0 53 -16 119l135 54q24 -70 24 -129q0 -32 -10 -84q129 213 285 213q34 0 67 -13zM825 1430l-352 -277l-256 277l74 73l205 -168l278 176z" />
    <glyph glyph-name="Sacute" unicode="&#x15a;" horiz-adv-x="1019" 
d="M1055 1313l-76 -107q-62 54 -126.5 78.5t-154.5 24.5q-112 0 -186 -76t-74 -182q0 -65 27 -116t100 -99l144 -95q101 -67 146.5 -145t45.5 -182q0 -209 -134 -325t-351 -116q-226 0 -361 117l82 113q117 -99 285 -99q133 0 222 75t89 208q0 74 -24.5 124.5t-90.5 94.5
l-133 88q-111 73 -161 152t-50 194q0 170 122 283t300 113q119 0 202.5 -28t156.5 -95zM971 1712l-400 -199l-45 84l369 256z" />
    <glyph glyph-name="sacute" unicode="&#x15b;" horiz-adv-x="835" 
d="M821 977l-63 -107q-63 39 -108.5 56.5t-106.5 17.5q-86 0 -138.5 -49t-52.5 -125q0 -62 25 -97.5t72 -60.5l86 -45q42 -22 72.5 -44t60.5 -54t45.5 -75t15.5 -95q0 -152 -104 -241t-269 -89q-99 0 -186 28.5t-145 76.5l65 106q118 -98 275 -98q90 0 151.5 54.5
t61.5 125.5q0 70 -31 110t-90 70l-84 43q-84 44 -129 104t-45 152q0 142 100.5 230t249.5 88q162 0 272 -82zM846 1364l-400 -199l-45 84l369 256z" />
    <glyph glyph-name="Scircumflex" unicode="&#x15c;" horiz-adv-x="1019" 
d="M1055 1313l-76 -107q-62 54 -126.5 78.5t-154.5 24.5q-112 0 -186 -76t-74 -182q0 -65 27 -116t100 -99l144 -95q101 -67 146.5 -145t45.5 -182q0 -209 -134 -325t-351 -116q-226 0 -361 117l82 113q117 -99 285 -99q133 0 222 75t89 208q0 74 -24.5 124.5t-90.5 94.5
l-133 88q-111 73 -161 152t-50 194q0 170 122 283t300 113q119 0 202.5 -28t156.5 -95zM1028 1587l-74 -74l-206 168l-277 -176l-51 82l352 277z" />
    <glyph glyph-name="scircumflex" unicode="&#x15d;" horiz-adv-x="835" 
d="M821 977l-63 -107q-63 39 -108.5 56.5t-106.5 17.5q-86 0 -138.5 -49t-52.5 -125q0 -62 25 -97.5t72 -60.5l86 -45q42 -22 72.5 -44t60.5 -54t45.5 -75t15.5 -95q0 -152 -104 -241t-269 -89q-99 0 -186 28.5t-145 76.5l65 106q118 -98 275 -98q90 0 151.5 54.5
t61.5 125.5q0 70 -31 110t-90 70l-84 43q-84 44 -129 104t-45 152q0 142 100.5 230t249.5 88q162 0 272 -82zM907 1239l-73 -74l-207 168l-277 -176l-51 82l352 277z" />
    <glyph glyph-name="Scedilla" unicode="&#x15e;" horiz-adv-x="1019" 
d="M1055 1313l-76 -107q-62 54 -126.5 78.5t-154.5 24.5q-112 0 -186 -76t-74 -182q0 -65 27 -116t100 -99l144 -95q101 -67 146.5 -145t45.5 -182q0 -196 -119.5 -310.5t-316.5 -128.5l-33 -73q51 -9 77 -40.5t26 -78.5q0 -80 -56.5 -133t-148.5 -53q-82 0 -156 55l57 88
q48 -35 109 -35q35 0 58.5 18t23.5 52q0 25 -18 42t-42 17q-37 0 -53 -4l-12 20l57 125q-185 15 -299 115l82 113q117 -99 285 -99q133 0 222 75t89 208q0 74 -24.5 124.5t-90.5 94.5l-133 88q-111 73 -161 152t-50 194q0 170 122 283t300 113q119 0 202.5 -28t156.5 -95z
" />
    <glyph glyph-name="scedilla" unicode="&#x15f;" horiz-adv-x="835" 
d="M479 -217q0 -80 -56.5 -133t-148.5 -53q-81 0 -155 55l57 88q48 -35 109 -35q35 0 58.5 18t23.5 52q0 25 -18 42t-42 17q-37 0 -53 -4l-12 20l57 123q-176 16 -274 101l65 106q118 -98 275 -98q90 0 151.5 54.5t61.5 125.5q0 70 -31 110t-90 70l-84 43q-84 44 -129 104
t-45 152q0 142 100.5 230t249.5 88q162 0 272 -82l-63 -107q-63 39 -108.5 56.5t-106.5 17.5q-86 0 -138.5 -49t-52.5 -125q0 -62 25 -97.5t72 -60.5l86 -45q42 -22 72.5 -44t60.5 -54t45.5 -75t15.5 -95q0 -139 -88.5 -225.5t-232.5 -100.5l-31 -71q51 -9 76.5 -40.5
t25.5 -78.5z" />
    <glyph glyph-name="Scaron" unicode="&#x160;" horiz-adv-x="1019" 
d="M1055 1313l-76 -107q-62 54 -126.5 78.5t-154.5 24.5q-112 0 -186 -76t-74 -182q0 -65 27 -116t100 -99l144 -95q101 -67 146.5 -145t45.5 -182q0 -209 -134 -325t-351 -116q-226 0 -361 117l82 113q117 -99 285 -99q133 0 222 75t89 208q0 74 -24.5 124.5t-90.5 94.5
l-133 88q-111 73 -161 152t-50 194q0 170 122 283t300 113q119 0 202.5 -28t156.5 -95zM1061 1778l-352 -277l-256 277l73 73l205 -168l279 177z" />
    <glyph glyph-name="scaron" unicode="&#x161;" horiz-adv-x="835" 
d="M821 977l-63 -107q-63 39 -108.5 56.5t-106.5 17.5q-86 0 -138.5 -49t-52.5 -125q0 -62 25 -97.5t72 -60.5l86 -45q42 -22 72.5 -44t60.5 -54t45.5 -75t15.5 -95q0 -152 -104 -241t-269 -89q-99 0 -186 28.5t-145 76.5l65 106q118 -98 275 -98q90 0 151.5 54.5
t61.5 125.5q0 70 -31 110t-90 70l-84 43q-84 44 -129 104t-45 152q0 142 100.5 230t249.5 88q162 0 272 -82zM938 1430l-352 -277l-256 277l73 73l205 -168l279 176z" />
    <glyph glyph-name="uni0162" unicode="&#x162;" horiz-adv-x="829" 
d="M471 -217q0 -80 -56.5 -133t-148.5 -53q-81 0 -155 55l57 88q48 -35 108 -35q35 0 58.5 18t23.5 52q0 26 -17.5 42.5t-41.5 16.5q-37 0 -53 -4l-13 20l70 150h-16l270 1272h-328l29 133h809l-33 -133h-336l-270 -1272h-16l-43 -98q51 -9 76.5 -40.5t25.5 -78.5z" />
    <glyph glyph-name="uni0163" unicode="&#x163;" horiz-adv-x="569" 
d="M381 -217q0 -80 -56.5 -133t-148.5 -53q-82 0 -156 55l58 88q48 -35 108 -35q35 0 58.5 18t23.5 52q0 26 -17.5 42.5t-41.5 16.5q-37 0 -53 -4l-13 20l62 132q-40 14 -63 48t-23 85q0 57 20 151l135 639h-116l22 115h119q23 105 70 262l143 33q-49 -167 -76 -295h221
l-49 -115h-196l-136 -635q-14 -68 -14 -114q0 -42 22 -60t66 -18q49 0 86 18l6 -88q-73 -34 -135 -39l-28 -67q51 -9 76.5 -40.5t25.5 -78.5z" />
    <glyph glyph-name="Tcaron" unicode="&#x164;" horiz-adv-x="829" 
d="M1067 1405l-33 -133h-336l-270 -1272h-141l270 1272h-328l29 133h809zM1022 1778l-352 -277l-256 277l73 73l205 -168l279 177z" />
    <glyph glyph-name="tcaron" unicode="&#x165;" horiz-adv-x="604" 
d="M854 1354q0 -78 -63 -160q-46 -57 -140 -107l-47 68q47 22 76 57.5t35 79.5q-8 -2 -19 -2q-38 0 -64 29.5t-26 71.5q0 46 34 79t83 33q57 0 94 -41.5t37 -107.5zM657 1020l-49 -115h-196l-136 -635q-14 -68 -14 -114q0 -42 22 -60t66 -18q49 0 86 18l6 -88
q-80 -41 -159 -41q-71 0 -117.5 37.5t-46.5 110.5q0 57 20 151l135 639h-116l22 115h119q23 105 70 262l143 33q-49 -167 -76 -295h221z" />
    <glyph glyph-name="Tbar" unicode="&#x166;" horiz-adv-x="829" 
d="M870 872l-24 -110h-256l-162 -762h-141l162 762h-256l24 110h254l86 400h-328l29 133h809l-33 -133h-336l-86 -400h258z" />
    <glyph glyph-name="tbar" unicode="&#x167;" horiz-adv-x="569" 
d="M657 1020l-49 -115h-196l-56 -260h222l-46 -110h-200l-56 -265q-14 -68 -14 -114q0 -42 22 -60t66 -18q49 0 86 18l6 -88q-80 -41 -159 -41q-71 0 -117.5 37.5t-46.5 110.5q0 57 20 151l56 269h-117l24 110h117l55 260h-116l22 115h119q20 94 70 262l143 33
q-56 -201 -76 -295h221z" />
    <glyph glyph-name="Utilde" unicode="&#x168;" horiz-adv-x="1118" 
d="M1182 1405l-217 -1016q-24 -113 -56.5 -187.5t-87 -127t-134 -76t-193.5 -23.5q-355 0 -355 281q0 58 15 125l217 1024h143l-213 -1004q-14 -72 -14 -110q0 -90 51 -139.5t168 -49.5q79 0 134.5 20t91 62.5t56 94.5t37.5 131l211 995h146zM1108 1698
q-60 -72 -104.5 -99.5t-118.5 -27.5q-57 0 -122.5 34.5t-109.5 34.5q-39 0 -69 -17t-70 -56l-37 69q55 67 102.5 97t120.5 30q55 0 118.5 -34.5t113.5 -34.5q39 0 69 17t70 56z" />
    <glyph glyph-name="utilde" unicode="&#x169;" horiz-adv-x="980" 
d="M956 1040l-157 -747q-19 -97 -19 -137q0 -63 43 -117l-98 -82q-85 81 -76 207q-154 -199 -338 -199q-92 0 -142 47t-50 135q0 62 18 152l152 719l143 22l-153 -731q-21 -97 -21 -147q0 -40 25 -62t67 -22q143 0 314 223l153 717zM1030 1350q-60 -72 -104.5 -99.5
t-118.5 -27.5q-57 0 -122.5 34.5t-109.5 34.5q-39 0 -69 -17t-70 -56l-37 69q55 67 103 97t121 30q55 0 118 -34.5t113 -34.5q39 0 69 17t70 56z" />
    <glyph glyph-name="Umacron" unicode="&#x16a;" horiz-adv-x="1118" 
d="M1182 1405l-217 -1016q-24 -113 -56.5 -187.5t-87 -127t-134 -76t-193.5 -23.5q-355 0 -355 281q0 58 15 125l217 1024h143l-213 -1004q-14 -72 -14 -110q0 -90 51 -139.5t168 -49.5q79 0 134.5 20t91 62.5t56 94.5t37.5 131l211 995h146zM1065 1630l-25 -110h-489
l24 110h490z" />
    <glyph glyph-name="umacron" unicode="&#x16b;" horiz-adv-x="980" 
d="M956 1040l-157 -747q-19 -97 -19 -137q0 -63 43 -117l-98 -82q-85 81 -76 207q-154 -199 -338 -199q-92 0 -142 47t-50 135q0 62 18 152l152 719l143 22l-153 -731q-21 -97 -21 -147q0 -40 25 -62t67 -22q143 0 314 223l153 717zM907 1282l-24 -111h-490l25 111h489z" />
    <glyph glyph-name="Ubreve" unicode="&#x16c;" horiz-adv-x="1118" 
d="M1182 1405l-217 -1016q-24 -113 -56.5 -187.5t-87 -127t-134 -76t-193.5 -23.5q-355 0 -355 281q0 58 15 125l217 1024h143l-213 -1004q-14 -72 -14 -110q0 -90 51 -139.5t168 -49.5q79 0 134.5 20t91 62.5t56 94.5t37.5 131l211 995h146zM1114 1778q-25 -32 -58.5 -67
t-79.5 -74t-100 -64t-102 -25q-45 0 -87.5 20.5t-71.5 48.5t-54 63.5t-36.5 58t-18.5 39.5l82 82q91 -127 209 -127q64 0 143 40.5t137 86.5z" />
    <glyph glyph-name="ubreve" unicode="&#x16d;" horiz-adv-x="980" 
d="M956 1040l-157 -747q-19 -97 -19 -137q0 -63 43 -117l-98 -82q-85 81 -76 207q-154 -199 -338 -199q-92 0 -142 47t-50 135q0 62 18 152l152 719l143 22l-153 -731q-21 -97 -21 -147q0 -40 25 -62t67 -22q143 0 314 223l153 717zM985 1430q-25 -32 -58.5 -67t-79.5 -74
t-100 -64t-102 -25q-45 0 -87.5 20.5t-71.5 48.5t-54 63.5t-36.5 58t-18.5 39.5l82 81q91 -127 209 -127q64 0 143 40.5t137 86.5z" />
    <glyph glyph-name="Uring" unicode="&#x16e;" horiz-adv-x="1118" 
d="M1182 1405l-217 -1016q-24 -113 -56.5 -187.5t-87 -127t-134 -76t-193.5 -23.5q-355 0 -355 281q0 58 15 125l217 1024h143l-213 -1004q-14 -72 -14 -110q0 -90 51 -139.5t168 -49.5q79 0 134.5 20t91 62.5t56 94.5t37.5 131l211 995h146zM981 1634q0 -77 -54 -132.5
t-130 -55.5q-77 0 -134 56t-57 132q0 77 55.5 133t131.5 56t132 -56t56 -133zM901 1634q0 43 -32.5 75t-77.5 32q-41 0 -72 -32t-31 -75q0 -42 33 -74t76 -32q41 0 72.5 31.5t31.5 74.5z" />
    <glyph glyph-name="uring" unicode="&#x16f;" horiz-adv-x="980" 
d="M956 1040l-157 -747q-19 -97 -19 -137q0 -63 43 -117l-98 -82q-85 81 -76 207q-154 -199 -338 -199q-92 0 -142 47t-50 135q0 62 18 152l152 719l143 22l-153 -731q-21 -97 -21 -147q0 -40 25 -62t67 -22q143 0 314 223l153 717zM864 1350q0 -77 -54 -133t-130 -56
q-77 0 -134 56.5t-57 132.5q0 77 55.5 132.5t131.5 55.5t132 -56t56 -132zM784 1350q0 43 -32.5 74.5t-77.5 31.5q-41 0 -72 -31.5t-31 -74.5t33 -75t76 -32q41 0 72.5 32t31.5 75z" />
    <glyph glyph-name="Uhungarumlaut" unicode="&#x170;" horiz-adv-x="1118" 
d="M1182 1405l-217 -1016q-24 -113 -56.5 -187.5t-87 -127t-134 -76t-193.5 -23.5q-355 0 -355 281q0 58 15 125l217 1024h143l-213 -1004q-14 -72 -14 -110q0 -90 51 -139.5t168 -49.5q79 0 134.5 20t91 62.5t56 94.5t37.5 131l211 995h146zM930 1919l-295 -406l-80 43
l244 431zM1262 1880l-349 -354l-67 63l303 387z" />
    <glyph glyph-name="uhungarumlaut" unicode="&#x171;" horiz-adv-x="980" 
d="M956 1040l-157 -747q-19 -97 -19 -137q0 -63 43 -117l-98 -82q-85 81 -76 207q-154 -199 -338 -199q-92 0 -142 47t-50 135q0 62 18 152l152 719l143 22l-153 -731q-21 -97 -21 -147q0 -40 25 -62t67 -22q143 0 314 223l153 717zM805 1571l-295 -406l-80 43l244 430z
M1137 1532l-349 -354l-67 63l303 387z" />
    <glyph glyph-name="Uogonek" unicode="&#x172;" horiz-adv-x="1118" 
d="M1182 1405l-217 -1016q-22 -105 -52 -176t-77.5 -124t-116 -79.5t-164.5 -32.5q-59 -57 -97 -115.5t-38 -99.5q0 -24 13.5 -39.5t37.5 -15.5q52 0 113 29l18 -90q-83 -49 -149 -49q-70 0 -111 39t-41 98q0 115 131 246q-293 21 -293 276q0 58 15 125l217 1024h143
l-213 -1004q-14 -72 -14 -110q0 -90 51 -139.5t168 -49.5q79 0 134.5 20t91 62.5t56 94.5t37.5 131l211 995h146z" />
    <glyph glyph-name="uogonek" unicode="&#x173;" horiz-adv-x="980" 
d="M956 1040l-157 -747q-19 -97 -19 -137q0 -63 43 -117q-93 -75 -150 -151t-57 -126q0 -24 14 -39.5t38 -15.5q51 0 112 29l19 -90q-83 -49 -150 -49q-70 0 -110.5 39t-40.5 98q0 73 52 149.5t126 136.5q-30 52 -27 144q-154 -199 -338 -199q-92 0 -142 47t-50 135
q0 62 18 152l152 719l143 22l-153 -731q-21 -97 -21 -147q0 -40 25 -62t67 -22q143 0 314 223l153 717z" />
    <glyph glyph-name="Wcircumflex" unicode="&#x174;" horiz-adv-x="1396" 
d="M1604 1405l-576 -1405h-197l23 780q6 212 31 441q-74 -225 -156 -428l-317 -793h-199l14 1405h156l-18 -758q-6 -249 -31 -524q69 198 182 489l318 793h165l-20 -873q-7 -233 -25 -411q69 215 170 469l326 815h154zM1251 1587l-73 -74l-207 168l-277 -176l-51 82l352 277
z" />
    <glyph glyph-name="wcircumflex" unicode="&#x175;" horiz-adv-x="1208" 
d="M1323 1020l-471 -1028h-127l-25 717q-4 87 0 133q-42 -106 -51 -125l-334 -723l-133 -2l-28 1028l141 27v-674q0 -50 -3 -119.5t-3 -71.5q3 12 71 168l297 670h150l14 -658l4 -190l62 162l291 686h145zM1083 1239l-73 -74l-207 168l-277 -176l-51 82l352 277z" />
    <glyph glyph-name="Ycircumflex" unicode="&#x176;" horiz-adv-x="903" 
d="M1141 1405l-580 -858l-117 -547h-151l119 557l-215 848h168l116 -537q7 -34 14 -79t10.5 -74t4.5 -31q1 4 16 31.5t41.5 72t50.5 80.5l347 537h176zM993 1587l-73 -74l-207 168l-277 -176l-51 82l352 277z" />
    <glyph glyph-name="ycircumflex" unicode="&#x177;" horiz-adv-x="763" 
d="M899 1020l-524 -1057q-80 -162 -165.5 -251t-203.5 -120l-20 97q90 31 148.5 97t123.5 214l-59 -8v49q0 201 -11 317l-57 654l137 39l47 -662q7 -82 7 -147q0 -68 -9 -133l9 18l102 223l317 670h158zM858 1239l-74 -74l-206 168l-277 -176l-51 82l352 277z" />
    <glyph glyph-name="Ydieresis" unicode="&#x178;" horiz-adv-x="903" 
d="M1141 1405l-580 -858l-117 -547h-151l119 557l-215 848h168l116 -537q7 -34 14 -79t10.5 -74t4.5 -31q1 4 16 31.5t41.5 72t50.5 80.5l347 537h176zM594 1620q0 -40 -28.5 -70t-67.5 -30q-40 0 -69.5 30t-29.5 70t28.5 68t68.5 28t69 -28t29 -68zM961 1620q0 -40 -29 -70
t-68 -30q-40 0 -69 30t-29 70t28 68t68 28t69.5 -28.5t29.5 -67.5z" />
    <glyph glyph-name="Zacute" unicode="&#x179;" horiz-adv-x="880" 
d="M1032 1405v-125l-733 -1004q-59 -81 -121 -149q62 6 123 6h483l-51 -133h-731v121l743 1009q82 107 123 150q-67 -6 -137 -6h-455l52 131h704zM958 1712l-399 -199l-45 84l369 256z" />
    <glyph glyph-name="zacute" unicode="&#x17a;" horiz-adv-x="780" 
d="M799 1020v-123l-633 -782h496l-68 -115h-590v113l639 788h-434v119h590zM786 1364l-399 -199l-45 84l369 256z" />
    <glyph glyph-name="Zdotaccent" unicode="&#x17b;" horiz-adv-x="880" 
d="M1032 1405v-125l-733 -1004q-59 -81 -121 -149q62 6 123 6h483l-51 -133h-731v121l743 1009q82 107 123 150q-67 -6 -137 -6h-455l52 131h704zM852 1645q0 -53 -36 -89t-89 -36t-89 36t-36 89q0 52 36 88t89 36t89 -36t36 -88z" />
    <glyph glyph-name="zdotaccent" unicode="&#x17c;" horiz-adv-x="780" 
d="M799 1020v-123l-633 -782h496l-68 -115h-590v113l639 788h-434v119h590zM684 1305q0 -53 -36 -89t-89 -36t-89 36t-36 89t36 89t89 36t89 -36t36 -89z" />
    <glyph glyph-name="Zcaron" unicode="&#x17d;" horiz-adv-x="880" 
d="M1032 1405v-125l-733 -1004q-59 -81 -121 -149q62 6 123 6h483l-51 -133h-731v121l743 1009q82 107 123 150q-67 -6 -137 -6h-455l52 131h704zM1047 1778l-353 -277l-256 277l74 73l205 -168l278 177z" />
    <glyph glyph-name="zcaron" unicode="&#x17e;" horiz-adv-x="780" 
d="M799 1020v-123l-633 -782h496l-68 -115h-590v113l639 788h-434v119h590zM883 1430l-353 -277l-256 277l74 73l205 -168l278 176z" />
    <glyph glyph-name="longs" unicode="&#x17f;" horiz-adv-x="512" 
d="M817 1432l-55 -103q-50 37 -123 37q-133 0 -172 -199l-236 -1194q-30 -147 -68 -238t-93 -159l-107 59q88 124 131 340l185 932h-91l21 109h88l25 133q37 197 139 274q75 60 186 60q99 0 170 -51z" />
    <glyph glyph-name="uni018F" unicode="&#x18f;" horiz-adv-x="1107" 
d="M737 768q81 0 211 -10q19 104 19 186q0 163 -68 258.5t-213 95.5q-216 0 -352 -172l-72 105q178 192 434 192q214 0 321 -119.5t107 -365.5q0 -100 -20.5 -209t-58.5 -215.5t-96.5 -202t-129.5 -168.5t-163.5 -116t-192.5 -43q-161 0 -250.5 90t-89.5 233
q0 97 34.5 175.5t92.5 130.5t137.5 88t166.5 51.5t183 15.5zM459 104q86 0 162 45t132.5 122.5t98 167.5t70.5 194q-105 10 -201 10q-65 0 -124.5 -8.5t-118.5 -31.5t-102 -57.5t-70 -91.5t-27 -130q0 -41 10.5 -79t31 -70.5t56.5 -51.5t82 -19z" />
    <glyph glyph-name="florin" unicode="&#x192;" horiz-adv-x="503" 
d="M768 1421l-74 -98q-53 43 -116 43q-120 0 -170 -188l-43 -164h239l-74 -109h-194l-223 -829q-17 -63 -25.5 -93t-23 -75t-25.5 -67t-29.5 -54.5t-37.5 -51.5t-47.5 -45t-62.5 -48t-79 -48l-45 105q36 22 63 42.5t46 37t35 41.5t25.5 40t20.5 49.5t16.5 53.5t18.5 68
l234 874h-82l22 109h88l45 166q84 303 318 303q56 0 105 -18.5t75 -43.5z" />
    <glyph glyph-name="uni01B5" unicode="&#x1b5;" horiz-adv-x="880" 
d="M858 659h-280l-279 -383q-59 -81 -121 -149q62 6 123 6h483l-51 -133h-731v121l395 538h-211l25 111h268l266 360q82 107 123 150q-67 -6 -137 -6h-455l52 131h704v-125l-373 -510h224z" />
    <glyph glyph-name="uni01B6" unicode="&#x1b6;" horiz-adv-x="780" 
d="M709 590l-25 -111h-223l-295 -364h496l-68 -115h-590v113l297 366h-154l25 111h219l252 311h-434v119h590v-123l-250 -307h160z" />
    <glyph glyph-name="uni01C4" unicode="&#x1c4;" horiz-adv-x="1990" 
d="M1108 930q0 -183 -54 -361t-141 -303q-93 -133 -217 -199.5t-295 -66.5h-319l299 1405h233q263 0 378.5 -114t115.5 -361zM944 928q0 169 -69 259.5t-228 90.5h-147l-246 -1151h156q118 0 217 57t168 160q70 106 109.5 263t39.5 321zM2142 1405v-125l-733 -1004
q-59 -81 -121 -149q62 6 123 6h483l-51 -133h-731v121l743 1009q82 107 123 150q-67 -6 -137 -6h-455l52 131h704zM2157 1778l-353 -277l-256 277l74 73l205 -168l278 177z" />
    <glyph glyph-name="uni01C5" unicode="&#x1c5;" horiz-adv-x="1890" 
d="M1108 930q0 -183 -54 -361t-141 -303q-93 -133 -217 -199.5t-295 -66.5h-319l299 1405h233q263 0 378.5 -114t115.5 -361zM944 928q0 169 -69 259.5t-228 90.5h-147l-246 -1151h156q118 0 217 57t168 160q70 106 109.5 263t39.5 321zM1909 1020v-123l-633 -782h496
l-68 -115h-590v113l639 788h-434v119h590zM1993 1430l-353 -277l-256 277l74 73l205 -168l279 176z" />
    <glyph glyph-name="uni01C6" unicode="&#x1c6;" horiz-adv-x="1779" 
d="M1067 1470l-240 -1118q-24 -112 -24 -184q0 -73 41 -135l-123 -68q-41 48 -52 93t-5 108q-49 -82 -130.5 -132t-175.5 -50q-117 0 -185.5 83.5t-68.5 233.5q0 159 54 312.5t145 258.5q78 90 169 127t210 37q73 0 147 -24l21 96l82 387zM803 893q-75 27 -133 27
q-190 0 -299 -179q-57 -94 -90 -210t-33 -228q0 -87 34.5 -139.5t104.5 -52.5q87 0 158.5 61.5t142.5 185.5zM1798 1020v-123l-633 -782h496l-68 -115h-589v113l638 788h-434v119h590zM1882 1430l-352 -277l-256 277l74 73l204 -168l279 176z" />
    <glyph glyph-name="uni01C7" unicode="&#x1c7;" horiz-adv-x="1277" 
d="M739 133l-49 -133h-608l299 1405h145l-270 -1272h483zM1331 1405l-248 -1165q-31 -141 -52.5 -205t-59.5 -119q-75 -109 -244 -170l-51 92q57 25 96 55.5t80 88.5q25 33 41 85t41 169l250 1169h147z" />
    <glyph glyph-name="uni01C8" unicode="&#x1c8;" horiz-adv-x="1284" 
d="M739 133l-49 -133h-608l299 1405h145l-270 -1272h483zM1262 1047l-222 -1033q-32 -155 -71 -225q-68 -121 -226 -195l-57 93q95 46 137 111.5t72 203.5l217 1016zM1346 1321q0 -44 -32.5 -76.5t-76.5 -32.5t-76.5 32.5t-32.5 76.5t32.5 76.5t76.5 32.5t76.5 -32.5
t32.5 -76.5z" />
    <glyph glyph-name="uni01C9" unicode="&#x1c9;" horiz-adv-x="940" 
d="M473 1507q16 -63 16 -143q0 -99 -22 -209l-203 -958q-10 -50 -10 -62q0 -22 9.5 -31.5t31.5 -9.5q11 0 31 4l8 -96q-48 -22 -107 -22q-51 0 -83.5 29t-32.5 79q0 44 8 80l205 965q20 90 20 190q0 81 -14 127zM918 1047l-222 -1033q-32 -155 -71 -225q-68 -121 -226 -195
l-57 93q95 46 137 111.5t72 203.5l217 1016zM1001 1321q0 -44 -32 -76.5t-76 -32.5t-76.5 32.5t-32.5 76.5t32.5 76.5t76.5 32.5t76 -32.5t32 -76.5z" />
    <glyph glyph-name="uni01CA" unicode="&#x1ca;" horiz-adv-x="1626" 
d="M1194 1405l-299 -1405h-152l-204 864q-59 244 -72 348q-40 -273 -66 -397l-168 -815h-151l299 1405h168l217 -916q12 -48 20.5 -92.5t12 -70t9.5 -68t9 -65.5q1 3 8 52t16 106t23.5 139.5t28.5 150.5l156 764h145zM1679 1405l-247 -1165q-31 -139 -53 -204t-60 -120
q-75 -109 -244 -170l-51 92q57 25 96 55.5t80 88.5q25 33 41 85t41 169l250 1169h147z" />
    <glyph glyph-name="uni01CB" unicode="&#x1cb;" horiz-adv-x="1611" 
d="M1194 1405l-299 -1405h-152l-204 864q-59 244 -72 348q-40 -273 -66 -397l-168 -815h-151l299 1405h168l217 -916q12 -48 20.5 -92.5t12 -70t9.5 -68t9 -65.5q1 3 8 52t16 106t23.5 139.5t28.5 150.5l156 764h145zM1589 1047l-221 -1033q-31 -153 -72 -225
q-69 -122 -225 -195l-57 93q95 46 137 111.5t72 203.5l217 1016zM1673 1321q0 -44 -32 -76.5t-76 -32.5t-76.5 32.5t-32.5 76.5t32.5 76.5t76.5 32.5t76 -32.5t32 -76.5z" />
    <glyph glyph-name="uni01CC" unicode="&#x1cc;" horiz-adv-x="1449" 
d="M903 858q0 -49 -20 -149l-150 -709h-139l147 698q21 97 21 142q0 80 -80 80q-144 0 -317 -228l-148 -692h-135l158 741q16 71 16 133q0 53 -16 119l131 54q24 -70 24 -129q0 -30 -6 -68q148 192 332 192q85 0 133.5 -48.5t48.5 -135.5zM1427 1047l-221 -1033
q-32 -155 -71 -225q-68 -121 -226 -195l-57 93q95 46 137 111.5t72 203.5l217 1016zM1511 1321q0 -44 -32 -76.5t-76 -32.5t-76.5 32.5t-32.5 76.5t32.5 76.5t76.5 32.5t76 -32.5t32 -76.5z" />
    <glyph glyph-name="uni01F1" unicode="&#x1f1;" horiz-adv-x="1990" 
d="M1108 930q0 -183 -54 -361t-141 -303q-93 -133 -217 -199.5t-295 -66.5h-319l299 1405h233q263 0 378.5 -114t115.5 -361zM944 928q0 169 -69 259.5t-228 90.5h-147l-246 -1151h156q118 0 217 57t168 160q70 106 109.5 263t39.5 321zM2040 1405v-125l-733 -1004
q-59 -81 -121 -149q62 6 123 6h483l-51 -133h-731v121l743 1009q82 107 123 150q-68 -6 -137 -6h-455l51 131h705z" />
    <glyph glyph-name="uni01F2" unicode="&#x1f2;" horiz-adv-x="1890" 
d="M1108 930q0 -183 -54 -361t-141 -303q-93 -133 -217 -199.5t-295 -66.5h-319l299 1405h233q263 0 378.5 -114t115.5 -361zM944 928q0 169 -69 259.5t-228 90.5h-147l-246 -1151h156q118 0 217 57t168 160q70 106 109.5 263t39.5 321zM1909 1020v-123l-633 -782h496
l-68 -115h-590v113l639 788h-434v119h590z" />
    <glyph glyph-name="uni01F3" unicode="&#x1f3;" horiz-adv-x="1779" 
d="M1067 1470l-240 -1118q-24 -112 -24 -184q0 -73 41 -135l-123 -68q-41 48 -52 93t-5 108q-49 -82 -130.5 -132t-175.5 -50q-117 0 -185.5 83.5t-68.5 233.5q0 159 54 312.5t145 258.5q78 90 169 127t210 37q73 0 147 -24l21 96l82 387zM803 893q-75 27 -133 27
q-190 0 -299 -179q-57 -94 -90 -210t-33 -228q0 -87 34.5 -139.5t104.5 -52.5q87 0 158.5 61.5t142.5 185.5zM1798 1020v-123l-633 -782h496l-68 -115h-589v113l638 788h-434v119h590z" />
    <glyph glyph-name="Aringacute" unicode="&#x1fa;" horiz-adv-x="1003" 
d="M922 0h-154l-20 432h-457l-211 -432h-162l698 1405h207zM739 565l-26 490l-13 233l-112 -233l-234 -490h385zM907 1675q0 -77 -54 -132.5t-130 -55.5q-77 0 -134 56t-57 132q0 77 55.5 133t131.5 56t132 -56t56 -133zM827 1675q0 43 -32.5 75t-77.5 32q-41 0 -72 -32
t-31 -75q0 -42 33 -74t76 -32q41 0 72.5 31.5t31.5 74.5zM987 2079l-399 -199l-45 84l368 256z" />
    <glyph glyph-name="aringacute" unicode="&#x1fb;" horiz-adv-x="956" 
d="M924 975q-29 -102 -52 -213l-88 -410q-24 -112 -24 -184q0 -73 41 -135l-123 -68q-60 71 -60 148v39q-113 -168 -274 -168q-109 0 -174.5 83.5t-65.5 233.5q0 162 51.5 318.5t141.5 259.5q144 165 365 165q130 0 262 -69zM762 897q-57 25 -123 25q-74 0 -147 -43
t-127 -131q-55 -91 -86 -210.5t-31 -234.5q0 -194 129 -194q137 0 264 225zM887 1350q0 -77 -54.5 -133t-130.5 -56q-77 0 -133.5 56.5t-56.5 132.5q0 77 55 132.5t131 55.5q77 0 133 -56t56 -132zM807 1350q0 43 -32.5 74.5t-78.5 31.5q-41 0 -71.5 -31.5t-30.5 -74.5
t32.5 -75t75.5 -32q41 0 73 32t32 75zM987 1772l-399 -199l-45 84l368 256z" />
    <glyph glyph-name="AEacute" unicode="&#x1fc;" horiz-adv-x="1495" 
d="M1653 1405l-51 -127h-496l-102 -481h419l-28 -129h-420l-113 -537h539l-29 -131h-686l94 440h-397l-315 -440h-191l1028 1405h748zM950 1239l-481 -670h338zM1477 1712l-400 -199l-45 84l369 256z" />
    <glyph glyph-name="aeacute" unicode="&#x1fd;" horiz-adv-x="1343" 
d="M1343 807q0 -55 -21.5 -115.5t-59.5 -101.5q-118 -125 -375 -125q-33 0 -119 4q-20 -78 -20 -135q0 -240 192 -240q134 0 244 107l57 -80q-133 -144 -323 -144q-218 0 -285 181q-129 -185 -328 -185q-130 0 -197 66t-67 166q0 383 510 383q38 0 104 -4l37 178q6 24 6 49
q0 52 -29 82.5t-91 30.5q-125 0 -310 -121l-47 102q80 49 123 72.5t113 46.5t135 23q167 0 217 -134q131 134 283 134q122 0 186.5 -66.5t64.5 -173.5zM629 481q-99 6 -109 6q-149 0 -233 -65t-84 -195q0 -61 34.5 -102t94.5 -41q74 0 152.5 63.5t101.5 165.5zM1212 801
q0 59 -30.5 99t-102.5 40q-93 0 -173.5 -101.5t-117.5 -263.5q74 -4 103 -4q107 0 168.5 25t101.5 70q24 26 37.5 65t13.5 70zM1120 1364l-399 -199l-45 84l368 256z" />
    <glyph glyph-name="Oslashacute" unicode="&#x1fe;" horiz-adv-x="1185" 
d="M1307 1487l-181 -244q56 -112 56 -287q0 -104 -17.5 -214.5t-51.5 -221.5t-89 -209t-124 -173.5t-162.5 -120t-198.5 -44.5q-174 0 -277 95l-170 -234l-80 60l189 256q-62 115 -62 301q0 107 17.5 219t51.5 222t88.5 207t123.5 171t161 117t197 43q186 0 287 -101
l160 219zM973 1204q-61 103 -199 103q-94 0 -174.5 -56t-135.5 -147t-94 -206t-57 -233t-18 -229q0 -82 14 -139zM1014 1087l-660 -897q65 -94 195 -94q94 0 175.5 64t135 162t92 217t55.5 228t17 196q0 59 -10 124zM1040 1712l-399 -199l-45 84l369 256z" />
    <glyph glyph-name="oslashacute" unicode="&#x1ff;" horiz-adv-x="929" 
d="M897 715q0 -103 -18.5 -205.5t-59 -199.5t-98 -172t-141 -120t-181.5 -45q-128 0 -202 56l-121 -164l-68 61l127 174q-49 85 -49 234q0 138 36 267.5t100 229.5t159.5 160t206.5 60q122 0 203 -62l122 168l70 -61l-131 -178q45 -76 45 -203zM238 328q0 -59 4 -84l465 633
q-44 59 -134 59q-92 0 -169.5 -83t-121.5 -222.5t-44 -302.5zM743 735q0 5 -1 16.5t-1 16.5l-460 -625q39 -51 131 -51q95 0 172 95.5t118 242t41 305.5zM913 1364l-399 -199l-45 84l369 256z" />
    <glyph glyph-name="uni0218" unicode="&#x218;" horiz-adv-x="1019" 
d="M1055 1313l-76 -107q-62 54 -126.5 78.5t-154.5 24.5q-112 0 -186 -76t-74 -182q0 -65 27 -116t100 -99l144 -95q101 -67 146.5 -145t45.5 -182q0 -209 -134 -325t-351 -116q-226 0 -361 117l82 113q117 -99 285 -99q133 0 222 75t89 208q0 74 -24.5 124.5t-90.5 94.5
l-133 88q-111 73 -161 152t-50 194q0 170 122 283t300 113q119 0 202.5 -28t156.5 -95zM492 -244q0 -75 -64 -159q-47 -58 -139 -107l-47 68q98 45 110 137q-8 -2 -18 -2q-38 0 -64 29t-26 71q0 46 33.5 79.5t82.5 33.5q57 0 94.5 -42t37.5 -108z" />
    <glyph glyph-name="uni0219" unicode="&#x219;" horiz-adv-x="835" 
d="M821 977l-63 -107q-63 39 -108.5 56.5t-106.5 17.5q-86 0 -138.5 -49t-52.5 -125q0 -62 25 -97.5t72 -60.5l86 -45q42 -22 72.5 -44t60.5 -54t45.5 -75t15.5 -95q0 -152 -104 -241t-269 -89q-99 0 -186 28.5t-145 76.5l65 106q118 -98 275 -98q90 0 151.5 54.5
t61.5 125.5q0 70 -31 110t-90 70l-84 43q-84 44 -129 104t-45 152q0 142 100.5 230t249.5 88q162 0 272 -82zM451 -244q0 -75 -64 -159q-47 -58 -139 -107l-47 68q98 45 110 137q-8 -2 -18 -2q-38 0 -64 29t-26 71q0 46 33.5 79.5t82.5 33.5q57 0 94.5 -42t37.5 -108z" />
    <glyph glyph-name="uni021A" unicode="&#x21a;" horiz-adv-x="829" 
d="M1067 1405l-33 -133h-336l-270 -1272h-141l270 1272h-328l29 133h809zM457 -244q0 -75 -64 -159q-47 -58 -139 -107l-47 68q98 45 110 137q-8 -2 -18 -2q-38 0 -64 29t-26 71q0 46 34 79.5t83 33.5q57 0 94 -42t37 -108z" />
    <glyph glyph-name="uni021B" unicode="&#x21b;" horiz-adv-x="569" 
d="M657 1020l-49 -115h-196l-136 -635q-14 -68 -14 -114q0 -42 22 -60t66 -18q49 0 86 18l6 -88q-80 -41 -159 -41q-71 0 -117.5 37.5t-46.5 110.5q0 57 20 151l135 639h-116l22 115h119q23 105 70 262l143 33q-49 -167 -76 -295h221zM317 -244q0 -77 -63 -159
q-47 -58 -139 -107l-47 68q98 45 110 137q-8 -2 -18 -2q-38 0 -64 29t-26 71q0 46 33.5 79.5t82.5 33.5q57 0 94 -42t37 -108z" />
    <glyph glyph-name="uni0237" unicode="&#x237;" horiz-adv-x="471" 
d="M449 1047l-222 -1033q-32 -155 -71 -225q-68 -121 -226 -195l-57 93q95 46 137 111.5t72 203.5l217 1016z" />
    <glyph glyph-name="uni0259" unicode="&#x259;" horiz-adv-x="854" 
d="M109 217q0 55 21.5 115.5t59.5 101.5q118 125 375 125q33 0 119 -4q21 82 21 135q0 112 -46.5 176t-146.5 64q-134 0 -244 -107l-57 80q133 144 324 144q319 0 319 -361q0 -153 -55 -311.5t-150 -259.5q-132 -138 -289 -138q-122 0 -186.5 66.5t-64.5 173.5zM240 223
q0 -59 30.5 -99t102.5 -40q90 0 167 102t124 263q-74 4 -103 4q-107 0 -168.5 -25t-101.5 -70q-24 -26 -37.5 -65t-13.5 -70z" />
    <glyph glyph-name="uni02BB" unicode="&#x2bb;" horiz-adv-x="497" 
d="M596 1370q-131 -62 -176 -182q108 -13 108 -117q0 -54 -37 -91.5t-98 -37.5q-55 0 -92 38t-37 107q0 117 84 209.5t213 151.5z" />
    <glyph glyph-name="uni02BC" unicode="&#x2bc;" horiz-adv-x="499" 
d="M569 1272q0 -117 -84 -209.5t-213 -151.5l-34 78q131 62 176 182q-109 13 -109 117q0 54 37 91.5t98 37.5q55 0 92 -38t37 -107z" />
    <glyph glyph-name="circumflex" unicode="&#x2c6;" horiz-adv-x="690" 
d="M831 1239l-73 -74l-207 168l-277 -176l-51 82l352 277z" />
    <glyph glyph-name="caron" unicode="&#x2c7;" horiz-adv-x="690" 
d="M862 1430l-352 -277l-256 277l74 73l204 -168l279 176z" />
    <glyph glyph-name="breve" unicode="&#x2d8;" horiz-adv-x="690" 
d="M868 1417q-25 -32 -58.5 -67t-79.5 -73.5t-100 -63.5t-102 -25q-56 0 -106 29t-83.5 72.5t-51 73.5t-27.5 54l82 82q91 -127 209 -127q64 0 143 40.5t137 86.5z" />
    <glyph glyph-name="dotaccent" unicode="&#x2d9;" horiz-adv-x="331" 
d="M494 1348q0 -52 -36 -88.5t-89 -36.5t-89 36.5t-36 88.5t36 88.5t89 36.5t89 -36.5t36 -88.5z" />
    <glyph glyph-name="ring" unicode="&#x2da;" horiz-adv-x="456" 
d="M621 1350q0 -77 -54.5 -133t-130.5 -56q-77 0 -133.5 56.5t-56.5 132.5q0 77 55 132.5t131 55.5q77 0 133 -56t56 -132zM541 1350q0 43 -32.5 74.5t-78.5 31.5q-41 0 -71.5 -31.5t-30.5 -74.5t32.5 -75t75.5 -32q41 0 73 32t32 75z" />
    <glyph glyph-name="ogonek" unicode="&#x2db;" horiz-adv-x="446" 
d="M215 8q-72 -64 -121 -131.5t-49 -114.5q0 -24 13.5 -39.5t37.5 -15.5q52 0 113 29l18 -90q-83 -49 -149 -49q-70 0 -111 39t-41 98q0 78 59.5 159.5t137.5 141.5z" />
    <glyph glyph-name="tilde" unicode="&#x2dc;" horiz-adv-x="696" 
d="M862 1350q-60 -72 -104.5 -99.5t-118.5 -27.5q-57 0 -122 34.5t-109 34.5q-40 0 -70 -17.5t-70 -55.5l-37 69q55 67 103 97t121 30q55 0 118 -34.5t113 -34.5q39 0 69 17t70 56z" />
    <glyph glyph-name="hungarumlaut" unicode="&#x2dd;" horiz-adv-x="720" 
d="M571 1479l-295 -406l-79 43l243 430zM903 1440l-348 -355l-68 64l304 387z" />
    <glyph glyph-name="gravecomb" unicode="&#x300;" horiz-adv-x="2" 
d="M-82 1249l-49 -84l-399 199l79 141z" />
    <glyph glyph-name="acutecomb" unicode="&#x301;" horiz-adv-x="2" 
d="M-12 1364l-400 -199l-45 84l369 256z" />
    <glyph glyph-name="uni0302" unicode="&#x302;" horiz-adv-x="2" 
d="M-14 1239l-74 -74l-207 168l-276 -176l-52 82l353 277z" />
    <glyph glyph-name="tildecomb" unicode="&#x303;" horiz-adv-x="2" 
d="M-4 1350q-60 -72 -104.5 -99.5t-118.5 -27.5q-57 0 -122.5 34.5t-109.5 34.5q-39 0 -69 -17t-70 -56l-37 69q55 67 102.5 97t120.5 30q55 0 118.5 -34.5t113.5 -34.5q39 0 69 17t70 56z" />
    <glyph glyph-name="uni0304" unicode="&#x304;" horiz-adv-x="2" 
d="M201 1376l-25 -110h-489l24 110h490z" />
    <glyph glyph-name="uni0306" unicode="&#x306;" horiz-adv-x="2" 
d="M180 1382q-25 -32 -58.5 -67t-79.5 -73.5t-100 -63.5t-102 -25q-56 0 -106 29t-83.5 72.5t-51 73.5t-27.5 54l82 82q91 -127 209 -127q64 0 143 40.5t137 86.5z" />
    <glyph glyph-name="uni0307" unicode="&#x307;" horiz-adv-x="2" 
d="M66 1321q0 -44 -32.5 -76.5t-76.5 -32.5t-76.5 32.5t-32.5 76.5t32.5 76.5t76.5 32.5t76.5 -32.5t32.5 -76.5z" />
    <glyph glyph-name="uni0308" unicode="&#x308;" horiz-adv-x="2" 
d="M-299 1272q0 -40 -28.5 -70.5t-67.5 -30.5q-40 0 -69.5 30.5t-29.5 70.5t28.5 68t68.5 28t69 -28t29 -68zM68 1272q0 -40 -29 -70.5t-68 -30.5t-68.5 30.5t-29.5 70.5t28 68t68 28t69.5 -28.5t29.5 -67.5z" />
    <glyph glyph-name="uni030A" unicode="&#x30a;" horiz-adv-x="2" 
d="M166 1350q0 -77 -54 -133t-130 -56q-77 0 -134 56.5t-57 132.5q0 77 55 132.5t131 55.5q77 0 133 -56t56 -132zM86 1350q0 43 -32.5 74.5t-78.5 31.5q-41 0 -71.5 -31.5t-30.5 -74.5t33 -75t76 -32q41 0 72.5 32t31.5 75z" />
    <glyph glyph-name="uni030B" unicode="&#x30b;" horiz-adv-x="2" 
d="M-147 1571l-295 -406l-80 43l243 430zM184 1532l-348 -354l-67 63l303 387z" />
    <glyph glyph-name="uni030C" unicode="&#x30c;" horiz-adv-x="2" 
d="M104 1430l-352 -277l-256 277l74 73l205 -168l278 176z" />
    <glyph glyph-name="uni0312" unicode="&#x312;" horiz-adv-x="2" 
d="M-530 1358q0 117 84 209t213 151l34 -78q-131 -62 -176 -182q109 -13 109 -117q0 -54 -37 -91.5t-98 -37.5q-55 0 -92 38.5t-37 107.5z" />
    <glyph glyph-name="uni0313" unicode="&#x313;" horiz-adv-x="2" 
d="M-199 1260q0 -117 -84 -209.5t-213 -151.5l-34 78q131 62 176 182q-109 13 -109 117q0 54 37 91.5t98 37.5q55 0 92 -38t37 -107z" />
    <glyph glyph-name="uni0326" unicode="&#x326;" horiz-adv-x="2" 
d="M-193 -244q0 -77 -63 -159q-47 -58 -139 -107l-47 68q98 45 110 137q-8 -2 -18 -2q-38 0 -64 29t-26 71q0 46 33.5 79.5t82.5 33.5q57 0 94 -42t37 -108z" />
    <glyph glyph-name="uni0327" unicode="&#x327;" horiz-adv-x="2" 
d="M-186 -217q0 -80 -56.5 -133t-148.5 -53q-82 0 -156 55l58 88q48 -35 108 -35q35 0 58.5 18t23.5 52q0 26 -17.5 42.5t-41.5 16.5q-38 0 -54 -4l-12 20l74 158h108l-47 -106q51 -9 77 -40.5t26 -78.5z" />
    <glyph glyph-name="uni0328" unicode="&#x328;" horiz-adv-x="2" 
d="M-229 8q-72 -64 -121 -131.5t-49 -114.5q0 -24 13.5 -39.5t37.5 -15.5q51 0 112 29l19 -90q-83 -49 -150 -49q-70 0 -110.5 39t-40.5 98q0 78 59.5 160t136.5 141z" />
    <glyph glyph-name="uni037E" unicode="&#x37e;" horiz-adv-x="526" 
d="M330 90q0 -117 -84 -209t-213 -151l-35 77q131 62 176 183q-108 13 -108 116q0 54 37 92t98 38q55 0 92 -38.5t37 -107.5zM453 752q0 -54 -36.5 -91.5t-88.5 -37.5q-53 0 -90 39t-37 94q0 50 36.5 84t88.5 34q53 0 90 -35.5t37 -86.5z" />
    <glyph glyph-name="tonos" unicode="&#x384;" horiz-adv-x="567" 
d="M391 1563l-182 -402l-66 29l121 428z" />
    <glyph glyph-name="dieresistonos" unicode="&#x385;" horiz-adv-x="847" 
d="M317 1272q0 -40 -28.5 -70.5t-67.5 -30.5t-68.5 30.5t-29.5 70.5t28 68t68 28t69 -28t29 -68zM606 1604l-182 -402l-66 29l121 428zM725 1272q0 -40 -28.5 -70.5t-67.5 -30.5q-40 0 -69.5 30.5t-29.5 70.5t28.5 68t68.5 28t69 -28t29 -68z" />
    <glyph glyph-name="Alphatonos" unicode="&#x386;" horiz-adv-x="1003" 
d="M922 0h-154l-20 432h-457l-211 -432h-162l698 1405h207zM739 565l-26 490l-13 233l-112 -233l-234 -490h385zM377 1374l-182 -401l-66 28l121 429z" />
    <glyph glyph-name="anoteleia" unicode="&#x387;" horiz-adv-x="479" 
d="M356 571q0 -47 -33.5 -81.5t-80.5 -34.5q-48 0 -83.5 34.5t-35.5 81.5q0 49 34.5 83t82.5 34t82 -34t34 -83z" />
    <glyph glyph-name="Epsilontonos" unicode="&#x388;" horiz-adv-x="890" 
d="M1049 1405l-52 -127h-495l-103 -481h420l-28 -129h-420l-113 -537h539l-29 -131h-686l299 1405h668zM242 1374l-183 -401l-65 28l121 429z" />
    <glyph glyph-name="Etatonos" unicode="&#x389;" horiz-adv-x="1130" 
d="M1184 1405l-299 -1405h-146l146 688h-514l-146 -688h-143l299 1405h143l-127 -596h514l127 596h146zM240 1374l-183 -401l-65 28l121 429z" />
    <glyph glyph-name="Iotatonos" unicode="&#x38a;" horiz-adv-x="471" 
d="M524 1405l-299 -1405h-143l299 1405h143zM238 1374l-183 -401l-65 28l121 429z" />
    <glyph glyph-name="Omicrontonos" unicode="&#x38c;" horiz-adv-x="1185" 
d="M1182 956q0 -104 -17.5 -214.5t-51.5 -221.5t-89 -209t-124 -173.5t-162.5 -120t-198.5 -44.5q-400 0 -400 478q0 107 17.5 219t51.5 222t88.5 207t123.5 171t161 117t197 43q206 0 305 -119.5t99 -354.5zM1024 963q0 344 -250 344q-94 0 -174.5 -56t-135.5 -147
t-94 -206t-57 -233t-18 -229q0 -340 254 -340q94 0 175.5 64t135 162t92 217t55.5 228t17 196zM238 1374l-183 -401l-65 28l121 429z" />
    <glyph glyph-name="Upsilontonos" unicode="&#x38e;" horiz-adv-x="903" 
d="M1141 1405l-580 -858l-117 -547h-151l119 557l-215 848h168l116 -537q7 -34 14 -79t10.5 -74t4.5 -31q1 4 16 31.5t41.5 72t50.5 80.5l347 537h176zM162 1374l-182 -401l-66 28l121 429z" />
    <glyph glyph-name="Omegatonos" unicode="&#x38f;" horiz-adv-x="1122" 
d="M1143 952q0 -145 -41.5 -301t-130 -301t-205.5 -219h217l-51 -131h-352l28 131q73 42 130 102t95.5 133.5t64 147t44.5 160.5q39 166 39 303q0 68 -12 123.5t-39 104t-77.5 75.5t-121.5 27q-93 0 -171.5 -46.5t-133.5 -126t-92.5 -170.5t-61.5 -196q-34 -144 -34 -295
q0 -228 124 -342l-28 -131h-379l49 131h197q-121 129 -121 381q0 115 27.5 240t85 246t136 217.5t190 155.5t237.5 59q83 0 149.5 -25.5t110 -69.5t73 -106t42 -130.5t12.5 -146.5zM166 1343l-182 -401l-66 29l121 428z" />
    <glyph glyph-name="iotadieresistonos" unicode="&#x390;" horiz-adv-x="468" 
d="M324 2q-48 -22 -101 -22q-64 0 -94 43q-23 30 -23 73q0 19 11 72l135 637q22 101 22 209l148 30q0 -107 -29 -241l-129 -606q-8 -36 -8 -64q0 -23 8 -31t29 -8q6 0 22 4zM303 1272q0 -40 -28.5 -70.5t-67.5 -30.5t-68.5 30.5t-29.5 70.5t28 68t68 28t69 -28t29 -68z
M592 1604l-182 -402l-66 29l121 428zM711 1272q0 -40 -29 -70.5t-68 -30.5t-68.5 30.5t-29.5 70.5t28 68t68 28t69.5 -28.5t29.5 -67.5z" />
    <glyph glyph-name="Alpha" unicode="&#x391;" horiz-adv-x="1003" 
d="M922 0h-154l-20 432h-457l-211 -432h-162l698 1405h207zM739 565l-26 490l-13 233l-112 -233l-234 -490h385z" />
    <glyph glyph-name="Beta" unicode="&#x392;" horiz-adv-x="1067" 
d="M1061 1092q0 -147 -91.5 -240.5t-224.5 -118.5q53 -14 91 -34.5t71.5 -54t50.5 -87t17 -125.5q0 -191 -150 -321q-76 -64 -174.5 -87.5t-253.5 -23.5h-315l299 1405h176q132 0 219 -11t152 -48q133 -77 133 -254zM811 430q0 129 -63.5 183.5t-188.5 54.5h-194l-115 -543
h239q147 0 234.5 86.5t87.5 218.5zM895 1075q0 109 -68 160q-58 41 -170 41h-163l-103 -481h191q135 0 224 76t89 204z" />
    <glyph glyph-name="Gamma" unicode="&#x393;" horiz-adv-x="786" 
d="M1024 1405l-51 -127h-471l-273 -1278h-147l299 1405h643z" />
    <glyph glyph-name="uni0394" unicode="&#x394;" horiz-adv-x="1034" 
d="M952 133l-55 -133h-979l23 115l684 1290h198zM786 133l-79 1000l-11 127l-2 28l-4 -6l-76 -149l-514 -1000h686z" />
    <glyph glyph-name="Epsilon" unicode="&#x395;" horiz-adv-x="890" 
d="M1049 1405l-52 -127h-495l-103 -481h420l-28 -129h-420l-113 -537h539l-29 -131h-686l299 1405h668z" />
    <glyph glyph-name="Zeta" unicode="&#x396;" horiz-adv-x="880" 
d="M1032 1405v-125l-733 -1004q-59 -81 -121 -149q62 6 123 6h483l-51 -133h-731v121l743 1009q82 107 123 150q-67 -6 -137 -6h-455l52 131h704z" />
    <glyph glyph-name="Eta" unicode="&#x397;" horiz-adv-x="1130" 
d="M1184 1405l-299 -1405h-146l146 688h-514l-146 -688h-143l299 1405h143l-127 -596h514l127 596h146z" />
    <glyph glyph-name="Theta" unicode="&#x398;" horiz-adv-x="1185" 
d="M1182 956q0 -104 -17.5 -214.5t-51.5 -221.5t-89 -209t-124 -173.5t-162.5 -120t-198.5 -44.5q-400 0 -400 478q0 107 17.5 219t51.5 222t88.5 207t123.5 171t161 117t197 43q206 0 305 -119.5t99 -354.5zM549 96q67 0 128.5 33.5t108.5 89t87 131t67.5 154.5t46.5 164
h-674q-18 -120 -18 -232q0 -340 254 -340zM1024 963q0 344 -250 344q-81 0 -152.5 -41.5t-124.5 -114.5t-92 -162t-65 -194h670q14 85 14 168z" />
    <glyph glyph-name="Iota" unicode="&#x399;" horiz-adv-x="471" 
d="M524 1405l-299 -1405h-143l299 1405h143z" />
    <glyph glyph-name="Kappa" unicode="&#x39a;" horiz-adv-x="976" 
d="M1163 1364l-600 -627l334 -717l-152 -49l-342 779l646 696zM528 1405l-299 -1405h-147l299 1405h147z" />
    <glyph glyph-name="Lambda" unicode="&#x39b;" horiz-adv-x="948" 
d="M866 0h-164l-8 1073l-2 193v24l-106 -219l-520 -1071h-148l705 1405h206z" />
    <glyph glyph-name="Mu" unicode="&#x39c;" horiz-adv-x="1433" 
d="M1423 1405l-194 -1405h-148l150 1030q5 36 15.5 94t19.5 106t10 56q-6 -18 -39 -99t-59 -138l-486 -1049h-121l-28 997q-5 207 2 295q-1 -4 -15.5 -60.5t-32.5 -126.5t-28 -106l-281 -999h-147l408 1405h208q3 -126 10 -353.5t12 -397t5 -234.5q0 -118 -10 -197
q20 67 98 240l430 942h221z" />
    <glyph glyph-name="Nu" unicode="&#x39d;" horiz-adv-x="1140" 
d="M1194 1405l-299 -1405h-152l-204 864q-59 244 -72 348q-40 -273 -66 -397l-168 -815h-151l299 1405h168l217 -916q12 -48 20.5 -92.5t12 -70t9.5 -68t9 -65.5q1 3 8 52t16 106t23.5 139.5t28.5 150.5l156 764h145z" />
    <glyph glyph-name="Xi" unicode="&#x39e;" horiz-adv-x="931" 
d="M1090 1405l-54 -143h-719l31 143h742zM874 809l-53 -145h-553l51 145h555zM809 0h-778l51 145h758z" />
    <glyph glyph-name="Omicron" unicode="&#x39f;" horiz-adv-x="1185" 
d="M1182 956q0 -104 -17.5 -214.5t-51.5 -221.5t-89 -209t-124 -173.5t-162.5 -120t-198.5 -44.5q-400 0 -400 478q0 107 17.5 219t51.5 222t88.5 207t123.5 171t161 117t197 43q206 0 305 -119.5t99 -354.5zM1024 963q0 344 -250 344q-94 0 -174.5 -56t-135.5 -147
t-94 -206t-57 -233t-18 -229q0 -340 254 -340q94 0 175.5 64t135 162t92 217t55.5 228t17 196z" />
    <glyph glyph-name="Pi" unicode="&#x3a0;" horiz-adv-x="1112" 
d="M1165 1405l-299 -1405h-143l272 1278h-495l-273 -1278h-145l299 1405h784z" />
    <glyph glyph-name="Rho" unicode="&#x3a1;" horiz-adv-x="966" 
d="M1069 1061q0 -154 -68.5 -267.5t-184.5 -171t-265 -57.5h-205l-121 -565h-143l299 1405h289q399 0 399 -344zM901 1057q0 123 -69.5 171t-196.5 48h-139l-123 -586h164q364 0 364 367z" />
    <glyph glyph-name="Sigma" unicode="&#x3a3;" horiz-adv-x="870" 
d="M1028 1405l-67 -131h-367q-72 0 -133 6q44 -85 65 -129l179 -369l-394 -506l-112 -149q65 6 120 6h435l-27 -133h-725l25 117l503 653l-241 506l67 129h672z" />
    <glyph glyph-name="Tau" unicode="&#x3a4;" horiz-adv-x="829" 
d="M1067 1405l-33 -133h-336l-270 -1272h-141l270 1272h-328l29 133h809z" />
    <glyph glyph-name="Upsilon" unicode="&#x3a5;" horiz-adv-x="903" 
d="M1141 1405l-580 -858l-117 -547h-151l119 557l-215 848h168l116 -537q7 -34 14 -79t10.5 -74t4.5 -31q1 4 16 31.5t41.5 72t50.5 80.5l347 537h176z" />
    <glyph glyph-name="Phi" unicode="&#x3a6;" horiz-adv-x="1298" 
d="M1294 879q0 -108 -23.5 -208.5t-74 -190t-122.5 -157t-175 -109t-225 -46.5l-37 -168h-143l36 168q-196 0 -293.5 103t-97.5 280q0 109 21 206.5t69 186.5t119.5 155t178 107.5t239.5 48.5l33 150h143l-33 -150q198 0 291.5 -100.5t93.5 -275.5zM698 283q85 2 155 33.5
t119.5 86t83 121.5t52.5 148q25 109 25 215q0 116 -56.5 181t-193.5 65zM555 283l184 850q-174 -3 -286 -111q-156 -153 -156 -483q0 -256 258 -256z" />
    <glyph glyph-name="Chi" unicode="&#x3a7;" horiz-adv-x="937" 
d="M1075 1405l-446 -645l227 -760h-158l-174 655l-434 -655h-172l526 760l-190 645h162l135 -535l354 535h170z" />
    <glyph glyph-name="Psi" unicode="&#x3a8;" horiz-adv-x="1300" 
d="M1364 1405l-119 -563q-51 -243 -204.5 -383.5t-376.5 -143.5l-68 -315h-143l67 315q-177 0 -279 86t-102 273q0 72 23 190l112 541h144l-109 -516q-22 -115 -22 -184q0 -262 258 -265l203 965h143l-203 -965q152 3 263 106t149 283l121 576h143z" />
    <glyph glyph-name="uni03A9" unicode="&#x3a9;" horiz-adv-x="1122" 
d="M1143 952q0 -145 -41.5 -301t-130 -301t-205.5 -219h217l-51 -131h-352l28 131q73 42 130 102t95.5 133.5t64 147t44.5 160.5q39 166 39 303q0 68 -12 123.5t-39 104t-77.5 75.5t-121.5 27q-93 0 -171.5 -46.5t-133.5 -126t-92.5 -170.5t-61.5 -196q-34 -144 -34 -295
q0 -228 124 -342l-28 -131h-379l49 131h197q-121 129 -121 381q0 115 27.5 240t85 246t136 217.5t190 155.5t237.5 59q83 0 149.5 -25.5t110 -69.5t73 -106t42 -130.5t12.5 -146.5z" />
    <glyph glyph-name="Iotadieresis" unicode="&#x3aa;" horiz-adv-x="471" 
d="M524 1405l-299 -1405h-143l299 1405h143zM395 1542q0 -40 -28.5 -70t-67.5 -30q-40 0 -69 30t-29 70t28 68t68 28t69 -28t29 -68zM762 1542q0 -40 -28.5 -70t-67.5 -30q-40 0 -69.5 30t-29.5 70t28.5 68t68.5 28t69 -28t29 -68z" />
    <glyph glyph-name="Upsilondieresis" unicode="&#x3ab;" horiz-adv-x="903" 
d="M623 1620q0 -40 -29 -70t-68 -30q-40 0 -69 30t-29 70t28 68t68 28t69.5 -28.5t29.5 -67.5zM989 1620q0 -40 -28.5 -70t-67.5 -30q-40 0 -69 30t-29 70t28 68t68 28t69 -28t29 -68zM1141 1405l-580 -858l-117 -547h-151l119 557l-215 848h168l116 -537q7 -34 14 -79
t10.5 -74t4.5 -31q1 4 16 31.5t41.5 72t50.5 80.5l347 537h176z" />
    <glyph glyph-name="alphatonos" unicode="&#x3ac;" horiz-adv-x="956" 
d="M868 1563l-182 -402l-65 29l120 428zM924 975q-29 -102 -52 -213l-88 -410q-24 -112 -24 -184q0 -73 41 -135l-123 -68q-60 71 -60 148v39q-113 -168 -274 -168q-109 0 -174.5 83.5t-65.5 233.5q0 162 51.5 318.5t141.5 259.5q144 165 365 165q130 0 262 -69zM762 897
q-57 25 -123 25q-74 0 -147 -43t-127 -131q-55 -91 -86 -210.5t-31 -234.5q0 -194 129 -194q137 0 264 225z" />
    <glyph glyph-name="epsilontonos" unicode="&#x3ad;" horiz-adv-x="860" 
d="M758 100q-161 -127 -393 -127q-39 0 -76 6t-76 21.5t-67.5 39.5t-47 64t-18.5 91q0 38 8 77q22 108 94 177.5t172 93.5q-137 43 -137 170q0 26 6 53q25 120 136 203.5t249 83.5q198 0 303 -142l-75 -86q-47 50 -112 81.5t-136 31.5q-81 0 -141 -47t-74 -115
q-6 -24 -6 -47q0 -69 47 -104t112 -35h105l-23 -103h-100q-57 0 -109 -18t-96.5 -65.5t-60.5 -118.5q-4 -16 -4 -45q0 -73 52 -109.5t124 -36.5q186 0 309 99zM831 1563l-182 -402l-65 29l121 428z" />
    <glyph glyph-name="etatonos" unicode="&#x3ae;" horiz-adv-x="978" 
d="M627 168l114 530q21 97 21 142q0 80 -80 80q-144 0 -317 -228l-148 -692h-135l158 741q16 71 16 133q0 53 -16 119l131 54q35 -95 18 -197q148 192 332 192q85 0 133.5 -48.5t48.5 -135.5q0 -49 -20 -149l-109 -512q-8 -36 -8 -64q0 -23 8 -31t29 -8q6 0 22 4l9 -96
q-48 -22 -101 -22q-64 0 -94 43q-23 30 -23 73q0 19 11 72zM879 1563l-183 -402l-65 29l121 428z" />
    <glyph glyph-name="iotatonos" unicode="&#x3af;" horiz-adv-x="468" 
d="M324 2q-48 -22 -101 -22q-64 0 -94 43q-23 30 -23 73q0 19 11 72l135 637q22 101 22 209l148 30q0 -107 -29 -241l-129 -606q-8 -36 -8 -64q0 -23 8 -31t29 -8q6 0 22 4zM596 1563l-182 -402l-66 29l121 428z" />
    <glyph glyph-name="upsilondieresistonos" unicode="&#x3b0;" horiz-adv-x="980" 
d="M958 1036l-151 -712q-33 -154 -147.5 -255.5t-272.5 -101.5q-132 0 -197 60.5t-65 169.5q0 45 12 100l154 723l143 22l-151 -714q-15 -77 -15 -109q0 -69 36 -105t116 -36q95 0 160 63.5t92 188.5l145 688zM547 1272q0 -40 -28.5 -70.5t-67.5 -30.5q-40 0 -69.5 30.5
t-29.5 70.5t28.5 68t68.5 28t69 -28t29 -68zM836 1604l-183 -402l-65 29l121 428zM954 1272q0 -40 -28.5 -70.5t-67.5 -30.5t-68.5 30.5t-29.5 70.5t28 68t68 28t69 -28t29 -68z" />
    <glyph glyph-name="alpha" unicode="&#x3b1;" horiz-adv-x="956" 
d="M924 975q-29 -102 -52 -213l-88 -410q-24 -112 -24 -184q0 -73 41 -135l-123 -68q-60 71 -60 148v39q-113 -168 -274 -168q-109 0 -174.5 83.5t-65.5 233.5q0 162 51.5 318.5t141.5 259.5q144 165 365 165q130 0 262 -69zM762 897q-57 25 -123 25q-74 0 -147 -43
t-127 -131q-55 -91 -86 -210.5t-31 -234.5q0 -194 129 -194q137 0 264 225z" />
    <glyph glyph-name="beta" unicode="&#x3b2;" horiz-adv-x="1015" 
d="M932 502q0 -88 -34 -181t-92.5 -170.5t-147 -127.5t-187.5 -50q-58 0 -116 32.5t-91 86.5l-96 -487l-143 -31l276 1425q82 431 436 431q124 0 192 -73.5t68 -193.5q0 -39 -6 -76q-18 -110 -85 -196t-171 -115q99 -28 148 -100t49 -174zM483 94q90 0 160 62.5t103.5 150
t33.5 178.5q0 220 -245 220h-25l47 104h4q111 0 183.5 64.5t97.5 185.5q8 54 8 78q0 83 -37.5 134.5t-114.5 51.5q-94 0 -159 -75t-95 -226l-155 -795q76 -133 194 -133z" />
    <glyph glyph-name="gamma" unicode="&#x3b3;" horiz-adv-x="763" 
d="M891 1020l-526 -1020l-86 -395l-146 -31l92 426l-55 831q-3 45 -11.5 64.5t-25.5 19.5q-27 0 -49 -14l-16 92q70 45 131 45q107 0 114 -141l23 -565q2 -33 2 -86q0 -43 2 -66q55 126 68 152l337 688h146z" />
    <glyph glyph-name="delta" unicode="&#x3b4;" horiz-adv-x="929" 
d="M893 676q0 -70 -14 -147.5t-40.5 -156.5t-70 -150.5t-98 -127t-129.5 -88.5t-160 -33q-293 0 -293 340q0 62 10 140q13 84 39 163t69.5 153t99 129t131.5 89.5t163 36.5q-109 160 -225 256l47 125h567l-45 -119h-366q32 -27 63.5 -63.5t51 -64t53 -76.5t49.5 -72
q98 -140 98 -334zM739 696q0 60 -14 103q-33 104 -156 104q-73 0 -130.5 -39.5t-94 -107t-58.5 -140.5t-34 -157q-12 -91 -12 -168q0 -100 39 -149.5t131 -49.5q66 0 120.5 34.5t89 92t59.5 123t37 137t17.5 124t5.5 93.5z" />
    <glyph glyph-name="epsilon" unicode="&#x3b5;" horiz-adv-x="860" 
d="M758 100q-161 -127 -393 -127q-39 0 -76 6t-76 21.5t-67.5 39.5t-47 64t-18.5 91q0 38 8 77q22 108 94 177.5t172 93.5q-137 43 -137 170q0 26 6 53q25 120 136 203.5t249 83.5q198 0 303 -142l-75 -86q-47 50 -112 81.5t-136 31.5q-81 0 -141 -47t-74 -115
q-6 -24 -6 -47q0 -69 47 -104t112 -35h105l-23 -103h-100q-57 0 -109 -18t-96.5 -65.5t-60.5 -118.5q-4 -16 -4 -45q0 -73 52 -109.5t124 -36.5q186 0 309 99z" />
    <glyph glyph-name="zeta" unicode="&#x3b6;" horiz-adv-x="833" 
d="M1004 1405l-46 -117q-262 -172 -449 -412t-241 -491q-10 -45 -10 -80q0 -158 172 -158h90q84 0 126 -43.5t42 -123.5q0 -34 -10 -86q-18 -83 -54 -136.5t-155 -183.5l-68 61q107 114 131 207q11 42 11 70q0 88 -82 88h-103q-131 0 -196.5 68.5t-65.5 183.5q0 56 10 100
q58 271 239 516t431 418h-442l43 119h627z" />
    <glyph glyph-name="eta" unicode="&#x3b7;" horiz-adv-x="978" 
d="M627 168l114 530q21 97 21 142q0 80 -80 80q-144 0 -317 -228l-148 -692h-135l158 741q16 71 16 133q0 53 -16 119l131 54q35 -95 18 -197q148 192 332 192q85 0 133.5 -48.5t48.5 -135.5q0 -49 -20 -149l-109 -512q-8 -36 -8 -64q0 -23 8 -31t29 -8q6 0 22 4l9 -96
q-48 -22 -101 -22q-64 0 -94 43q-23 30 -23 73q0 19 11 72z" />
    <glyph glyph-name="theta" unicode="&#x3b8;" horiz-adv-x="983" 
d="M932 694q-73 -346 -207 -530q-68 -91 -153.5 -141t-168.5 -50q-112 0 -180 84q-84 105 -84 297q0 131 47 353q74 349 207 532q68 92 152 141.5t166 49.5q85 0 147.5 -50t93.5 -145q25 -86 25 -184q0 -144 -45 -357zM799 805q30 150 30 262q0 45 -4.5 80t-17 75t-42 62.5
t-73.5 22.5q-113 0 -207 -144q-76 -120 -129 -358h443zM776 678h-446q-45 -218 -45 -342q0 -240 149 -240q108 0 199 144q42 65 72.5 163t70.5 275z" />
    <glyph glyph-name="iota" unicode="&#x3b9;" horiz-adv-x="468" 
d="M324 2q-48 -22 -101 -22q-64 0 -94 43q-23 30 -23 73q0 19 11 72l135 637q22 101 22 209l148 30q0 -107 -29 -241l-129 -606q-8 -36 -8 -64q0 -23 8 -31t29 -8q6 0 22 4z" />
    <glyph glyph-name="kappa" unicode="&#x3ba;" horiz-adv-x="901" 
d="M924 977l-412 -404l289 -550l-135 -54l-310 621l469 471zM369 690l-148 -690h-139l143 668q21 94 21 190q0 80 -15 127l144 57q16 -59 16 -143q0 -105 -22 -209z" />
    <glyph glyph-name="lambda" unicode="&#x3bb;" horiz-adv-x="813" 
d="M731 2q-48 -22 -94 -22q-64 0 -92 35t-31 104q-16 329 -22 499q-7 168 -7 291h-2q-66 -188 -112 -278l-328 -662l-125 54l330 639q114 222 168 366l55 -10l-8 141q-10 215 -129 215q-53 0 -94 -20l-2 88q77 41 153 41q46 0 79.5 -16t55.5 -44.5t36.5 -77.5t22.5 -105
t13 -136l68 -975q1 -18 10.5 -25.5t28.5 -7.5q12 0 18 2z" />
    <glyph glyph-name="uni03BC" unicode="&#x3bc;" horiz-adv-x="980" 
d="M956 1040l-157 -747q-19 -97 -19 -137q0 -63 43 -117l-98 -82q-41 39 -60 85t-16 122q-82 -106 -157 -152.5t-164 -46.5q-63 0 -109 27l-16 -78l-66 -309l-145 -31l297 1444l143 22l-153 -731q-21 -97 -21 -147q0 -40 25 -62t67 -22q143 0 314 223l153 717z" />
    <glyph glyph-name="nu" unicode="&#x3bd;" horiz-adv-x="792" 
d="M928 1020l-553 -1030h-142l-100 1030l141 27l54 -703q4 -66 4 -98q2 -37 2 -107q6 42 80 183l362 698h152z" />
    <glyph glyph-name="xi" unicode="&#x3be;" horiz-adv-x="903" 
d="M1053 1405l-45 -121h-263q-69 0 -133 -55t-99.5 -129t-35.5 -137q0 -74 45.5 -123t126.5 -49h176l-39 -103h-145q-132 0 -233.5 -86.5t-124.5 -216.5q-7 -35 -7 -66q0 -79 43.5 -130.5t137.5 -51.5h104q102 0 146 -65q26 -39 26 -103q0 -103 -50 -188.5t-167 -206.5
l-67 61q139 148 139 273q0 92 -84 92h-117q-125 0 -198.5 80t-73.5 201q0 23 4 55q19 130 113 243t225 164q-67 21 -101 76t-34 127q0 95 56 186t144 152h-174l45 121h660z" />
    <glyph glyph-name="omicron" unicode="&#x3bf;" horiz-adv-x="929" 
d="M897 715q0 -103 -18.5 -205.5t-59 -199.5t-98 -172t-141 -120t-181.5 -45q-161 0 -237 89t-76 272q0 138 36 267.5t100 229.5t159.5 160t206.5 60q152 0 230.5 -87t78.5 -249zM743 735q0 96 -42.5 148.5t-127.5 52.5q-92 0 -169.5 -83t-121.5 -222.5t-44 -302.5
q0 -124 39.5 -180t134.5 -56t172 95.5t118 242t41 305.5z" />
    <glyph glyph-name="pi" unicode="&#x3c0;" horiz-adv-x="952" 
d="M1022 1020l-59 -115h-84l-150 -708q-8 -36 -8 -64q0 -23 8 -31t29 -8q6 0 22 4l8 -96q-48 -22 -100 -22q-64 0 -94 43q-23 30 -23 73q0 19 11 72l157 737h-327l-193 -905h-135l192 905h-116l22 115h840z" />
    <glyph glyph-name="rho" unicode="&#x3c1;" horiz-adv-x="995" 
d="M922 512q-27 -125 -59 -205t-85 -149q-137 -185 -315 -185q-68 0 -127.5 32t-93.5 87l-13 -57l-20 -94l-72 -336l-143 -31l213 1001q47 225 164 348.5t301 123.5q137 0 205.5 -82.5t68.5 -239.5q0 -96 -24 -213zM770 492q27 138 27 221q0 223 -168 223q-93 0 -170 -91
t-109 -245l-80 -375q73 -133 191 -133q61 0 120.5 35t94.5 92q53 86 94 273z" />
    <glyph glyph-name="sigma1" unicode="&#x3c2;" horiz-adv-x="794" 
d="M635 -33q0 -100 -55.5 -195.5t-161.5 -197.5l-68 61q142 155 142 275q0 56 -34 80t-98 37q-129 27 -193.5 101t-64.5 206q0 67 19 160q33 157 88.5 259.5t132.5 174.5q128 119 270 119t222 -101l-93 -94q-36 40 -70.5 56t-88.5 16q-113 0 -195 -121q-34 -50 -55.5 -102
t-31 -91t-30.5 -135q-12 -61 -12 -108q0 -166 162 -207q43 -12 67.5 -20t56.5 -23.5t49 -34t29.5 -48t12.5 -67.5z" />
    <glyph glyph-name="sigma" unicode="&#x3c3;" horiz-adv-x="929" 
d="M1061 1020l-62 -115h-161q25 -39 36 -82q17 -66 17 -133q0 -72 -13.5 -150.5t-39.5 -160t-69 -153.5t-97.5 -129t-130.5 -90.5t-162 -33.5q-141 0 -216 90t-75 254q0 95 23 199q50 231 179 367.5t306 136.5h465zM633 242q40 76 72 219.5t32 236.5q0 207 -170 207
q-56 0 -102 -21t-76.5 -53.5t-55 -83t-38.5 -97t-27 -107.5q-30 -150 -30 -252q0 -63 12 -101q13 -45 56.5 -71.5t101.5 -26.5q70 0 128.5 38.5t96.5 111.5z" />
    <glyph glyph-name="tau" unicode="&#x3c4;" horiz-adv-x="548" 
d="M702 1020l-61 -121h-231l-144 -670q-8 -39 -8 -71q0 -43 21.5 -61.5t70.5 -18.5q45 0 82 18l8 -88q-84 -41 -166 -41q-52 0 -108 29q-53 27 -53 117q0 34 10 86l149 700h-235l24 121h641z" />
    <glyph glyph-name="upsilon" unicode="&#x3c5;" horiz-adv-x="980" 
d="M958 1036l-151 -712q-33 -154 -147.5 -255.5t-272.5 -101.5q-132 0 -197 60.5t-65 169.5q0 45 12 100l154 723l143 22l-151 -714q-15 -77 -15 -109q0 -69 36 -105t116 -36q95 0 160 63.5t92 188.5l145 688z" />
    <glyph glyph-name="phi" unicode="&#x3c6;" horiz-adv-x="1189" 
d="M1135 494q-51 -245 -200.5 -381.5t-352.5 -139.5l-80 -368l-146 -31l86 399q-175 0 -265.5 94.5t-90.5 268.5q0 86 20 180q46 214 160.5 349.5t278.5 170.5l-25 -121q-103 -33 -163 -123t-93 -249q-22 -110 -22 -197q0 -243 225 -254l203 955q70 4 127 4q228 0 319 -179
q41 -80 41 -194q0 -74 -22 -184zM891 256q49 76 79.5 209.5t30.5 228.5q0 63 -18 109t-50 73t-68.5 40.5t-80.5 17.5l-178 -842q89 0 163 44.5t122 119.5z" />
    <glyph glyph-name="chi" unicode="&#x3c7;" horiz-adv-x="815" 
d="M874 1020l-360 -463l219 -557h-153l-119 342l-35 102l-78 -102l-262 -342h-168l453 571l-178 449h157l72 -232l37 -118l63 88l187 262h165z" />
    <glyph glyph-name="psi" unicode="&#x3c8;" horiz-adv-x="1216" 
d="M1194 1042l-131 -630q-40 -195 -168 -311t-320 -128l-75 -368l-148 -31l84 399q-210 12 -278 144q-33 62 -33 159q0 29 6.5 73t37.5 201t95 462l144 30q-101 -490 -122.5 -600.5t-21.5 -138.5q0 -73 29 -121q46 -77 170 -86l244 1161q22 102 22 209l145 31
q0 -113 -28 -242l-244 -1159q134 8 212 82t110 225l127 609z" />
    <glyph glyph-name="omega" unicode="&#x3c9;" horiz-adv-x="1189" 
d="M1122 393q-42 -198 -142.5 -309t-244.5 -111q-66 0 -113 54.5t-53 146.5q-50 -93 -120 -147t-136 -54q-113 0 -171 69t-58 196q0 70 18 155q42 198 140 366.5t225 289.5l65 -45q-93 -115 -165.5 -262t-106.5 -304q-20 -94 -20 -172q0 -170 104 -170q62 0 115.5 72.5
t75.5 177.5l88 414h135l-88 -414q-13 -57 -13 -100q0 -69 25 -109.5t74 -40.5q75 0 135 90.5t94 251.5q23 106 23 217q0 180 -54 344l78 56q115 -185 115 -437q0 -103 -25 -225z" />
    <glyph glyph-name="iotadieresis" unicode="&#x3ca;" horiz-adv-x="468" 
d="M324 2q-48 -22 -101 -22q-64 0 -94 43q-23 30 -23 73q0 19 11 72l135 637q22 101 22 209l148 30q0 -107 -29 -241l-129 -606q-8 -36 -8 -64q0 -23 8 -31t29 -8q6 0 22 4zM313 1272q0 -40 -28.5 -70.5t-67.5 -30.5t-68.5 30.5t-29.5 70.5t28 68t68 28t69 -28t29 -68z
M680 1272q0 -40 -28.5 -70.5t-67.5 -30.5q-40 0 -69.5 30.5t-29.5 70.5t28.5 68t68.5 28t69 -28t29 -68z" />
    <glyph glyph-name="upsilondieresis" unicode="&#x3cb;" horiz-adv-x="980" 
d="M958 1036l-151 -712q-33 -154 -147.5 -255.5t-272.5 -101.5q-132 0 -197 60.5t-65 169.5q0 45 12 100l154 723l143 22l-151 -714q-15 -77 -15 -109q0 -69 36 -105t116 -36q95 0 160 63.5t92 188.5l145 688zM567 1272q0 -40 -28.5 -70.5t-67.5 -30.5t-68.5 30.5
t-29.5 70.5t28 68t68 28t69 -28t29 -68zM934 1272q0 -40 -28.5 -70.5t-67.5 -30.5q-40 0 -69.5 30.5t-29.5 70.5t28.5 68t68.5 28t69 -28t29 -68z" />
    <glyph glyph-name="omicrontonos" unicode="&#x3cc;" horiz-adv-x="929" 
d="M813 1563l-182 -402l-66 29l121 428zM897 715q0 -103 -18.5 -205.5t-59 -199.5t-98 -172t-141 -120t-181.5 -45q-161 0 -237 89t-76 272q0 138 36 267.5t100 229.5t159.5 160t206.5 60q152 0 230.5 -87t78.5 -249zM743 735q0 96 -42.5 148.5t-127.5 52.5
q-92 0 -169.5 -83t-121.5 -222.5t-44 -302.5q0 -124 39.5 -180t134.5 -56t172 95.5t118 242t41 305.5z" />
    <glyph glyph-name="upsilontonos" unicode="&#x3cd;" horiz-adv-x="980" 
d="M958 1036l-151 -712q-33 -154 -147.5 -255.5t-272.5 -101.5q-132 0 -197 60.5t-65 169.5q0 45 12 100l154 723l143 22l-151 -714q-15 -77 -15 -109q0 -69 36 -105t116 -36q95 0 160 63.5t92 188.5l145 688zM836 1563l-183 -402l-65 29l121 428z" />
    <glyph glyph-name="omegatonos" unicode="&#x3ce;" horiz-adv-x="1189" 
d="M1122 393q-42 -198 -142.5 -309t-244.5 -111q-66 0 -113 54.5t-53 146.5q-50 -93 -120 -147t-136 -54q-113 0 -171 69t-58 196q0 70 18 155q42 198 140 366.5t225 289.5l65 -45q-93 -115 -165.5 -262t-106.5 -304q-20 -94 -20 -172q0 -170 104 -170q62 0 115.5 72.5
t75.5 177.5l88 414h135l-88 -414q-13 -57 -13 -100q0 -69 25 -109.5t74 -40.5q75 0 135 90.5t94 251.5q23 106 23 217q0 180 -54 344l78 56q115 -185 115 -437q0 -103 -25 -225zM958 1563l-182 -402l-65 29l120 428z" />
    <glyph glyph-name="uni03D0" unicode="&#x3d0;" horiz-adv-x="1015" 
d="M932 510q0 -68 -21.5 -142t-63 -143.5t-96.5 -125.5t-128 -90t-152 -34q-158 0 -215 131l-10 -28q-21 -57 -37 -78h-139q39 62 80 254l157 745q92 431 445 431q121 0 187.5 -70t66.5 -186q0 -135 -71 -248t-198 -150q97 -27 146 -97t49 -169zM475 104q92 0 163 59
t105.5 146.5t34.5 184.5q0 211 -241 211h-25l47 104h6q136 3 214.5 95.5t78.5 242.5q0 79 -36.5 127.5t-110.5 48.5q-94 0 -161 -75t-99 -226l-170 -795q25 -54 78.5 -88.5t115.5 -34.5z" />
    <glyph glyph-name="theta1" unicode="&#x3d1;" horiz-adv-x="983" 
d="M225 362q19 104 19 187v22l139 29v-10q0 -95 -23 -230q-8 -39 -8 -79q0 -83 42.5 -127.5t121.5 -44.5q130 0 207 120.5t117 376.5q-85 14 -153 33t-138 54t-116 81t-75.5 117t-29.5 160q0 179 106.5 289t274.5 110q90 0 157.5 -36.5t106 -100.5t56.5 -142.5t18 -171.5
q0 -103 -29 -266q-38 -202 -83 -340.5t-107.5 -234t-145.5 -139.5t-193 -44q-136 0 -205 75.5t-69 205.5q0 60 10 106zM684 1331q-86 0 -144.5 -80t-58.5 -198q0 -82 25.5 -140t78 -95t116.5 -58.5t159 -38.5q33 169 33 293q0 63 -10 116t-32.5 100t-65 74t-101.5 27z" />
    <glyph glyph-name="Upsilon1" unicode="&#x3d2;" horiz-adv-x="962" 
d="M604 485l-90 -485h-154l91 485q22 129 22 244q0 182 -59 332.5t-183 249.5l109 121q242 -186 260 -578q161 390 475 578l70 -138q-218 -134 -356.5 -347.5t-184.5 -461.5z" />
    <glyph glyph-name="uni03D3" unicode="&#x3d3;" horiz-adv-x="962" 
d="M604 485l-90 -485h-154l91 485q22 129 22 244q0 182 -59 332.5t-183 249.5l109 121q242 -186 260 -578q161 390 475 578l70 -138q-218 -134 -356.5 -347.5t-184.5 -461.5zM135 1374l-182 -401l-66 28l121 429z" />
    <glyph glyph-name="uni03D4" unicode="&#x3d4;" horiz-adv-x="962" 
d="M604 485l-90 -485h-154l91 485q22 129 22 244q0 182 -59 332.5t-183 249.5l109 121q242 -186 260 -578q161 390 475 578l70 -138q-218 -134 -356.5 -347.5t-184.5 -461.5zM623 1620q0 -40 -29 -70t-68 -30q-40 0 -69 30t-29 70t28 68t68 28t69.5 -28.5t29.5 -67.5z
M989 1620q0 -40 -28.5 -70t-67.5 -30q-40 0 -69 30t-29 70t28 68t68 28t69 -28t29 -68z" />
    <glyph glyph-name="phi1" unicode="&#x3d5;" horiz-adv-x="1155" 
d="M1200 684q0 -100 -22.5 -199t-69 -189.5t-111.5 -160.5t-157.5 -113.5t-200.5 -48.5l-80 -368l-145 -31l86 401q-160 9 -245 104.5t-85 262.5q0 84 20 174q51 238 193.5 379.5t343.5 153.5l45 208q23 106 23 189v20l145 31v-10q0 -98 -29 -232l-43 -204
q158 -10 245 -109.5t87 -257.5zM664 94q85 4 156 47t114 113q50 81 81.5 210.5t31.5 229.5q0 107 -56 168t-149 70zM524 96l178 834q-73 -6 -137.5 -37.5t-101.5 -77.5q-80 -103 -115 -272q-22 -99 -22 -201q0 -118 46 -172.5t152 -73.5z" />
    <glyph glyph-name="uni0400" unicode="&#x400;" horiz-adv-x="890" 
d="M1049 1405l-52 -127h-495l-103 -481h420l-28 -129h-420l-113 -537h539l-29 -131h-686l299 1405h668zM922 1597l-50 -84l-399 199l80 141z" />
    <glyph glyph-name="uni0401" unicode="&#x401;" horiz-adv-x="890" 
d="M1049 1405l-52 -127h-495l-103 -481h420l-28 -129h-420l-113 -537h539l-29 -131h-686l299 1405h668zM643 1620q0 -40 -28.5 -70t-67.5 -30q-40 0 -69 30t-29 70t28 68t68 28t69 -28t29 -68zM1010 1620q0 -40 -29 -70t-68 -30q-40 0 -69 30t-29 70t28 68t68 28t69.5 -28.5
t29.5 -67.5z" />
    <glyph glyph-name="uni0402" unicode="&#x402;" horiz-adv-x="1140" 
d="M1067 1405l-37 -133h-346l-98 -461q143 76 266 76q129 0 195 -76q63 -72 63 -219q0 -118 -51.5 -275t-143.5 -245q-105 -97 -235 -97q-86 0 -160 52l60 118l18 -14q47 -33 102 -33q83 0 146 86q44 59 78 186t34 218q0 37 -6.5 65t-23 53t-49.5 38.5t-82 13.5
q-98 0 -238 -68l-145 -690h-144l271 1272h-312l29 133h809z" />
    <glyph glyph-name="uni0403" unicode="&#x403;" horiz-adv-x="786" 
d="M1024 1405l-33 -127h-489l-273 -1278h-147l299 1405h643zM958 1712l-399 -199l-45 84l369 256z" />
    <glyph glyph-name="uni0404" unicode="&#x404;" horiz-adv-x="1030" 
d="M805 788l-25 -116h-461l-8 -39q-24 -118 -24 -209q0 -133 47 -207q80 -121 223 -121t307 123l41 -119q-49 -37 -127 -71q-122 -54 -239 -54q-207 0 -316 152q-88 123 -88 365q0 221 91 443.5t229 348.5q88 80 178 113t194 33q196 0 310 -127l-84 -105q-62 62 -122.5 84.5
t-129.5 22.5q-157 0 -271 -117q-60 -63 -107 -161t-65 -189l-10 -50h457z" />
    <glyph glyph-name="uni0405" unicode="&#x405;" horiz-adv-x="1019" 
d="M1055 1313l-76 -107q-62 54 -126.5 78.5t-154.5 24.5q-112 0 -186 -76t-74 -182q0 -65 27 -116t100 -99l144 -95q101 -67 146.5 -145t45.5 -182q0 -209 -134 -325t-351 -116q-226 0 -361 117l82 113q117 -99 285 -99q133 0 222 75t89 208q0 74 -24.5 124.5t-90.5 94.5
l-133 88q-111 73 -161 152t-50 194q0 170 122 283t300 113q119 0 202.5 -28t156.5 -95z" />
    <glyph glyph-name="uni0406" unicode="&#x406;" horiz-adv-x="471" 
d="M524 1405l-299 -1405h-143l299 1405h143z" />
    <glyph glyph-name="uni0407" unicode="&#x407;" horiz-adv-x="471" 
d="M524 1405l-299 -1405h-143l299 1405h143zM420 1620q0 -40 -28.5 -70t-67.5 -30q-40 0 -69.5 30t-29.5 70t28.5 68t68.5 28t69 -28t29 -68zM745 1620q0 -40 -28.5 -70t-67.5 -30q-40 0 -69 30t-29 70t28 68t68 28t69 -28t29 -68z" />
    <glyph glyph-name="uni0408" unicode="&#x408;" horiz-adv-x="485" 
d="M539 1405l-248 -1165q-31 -139 -53 -204t-60 -120q-75 -109 -244 -170l-51 92q57 25 96 55.5t80 88.5q25 33 41 85t41 169l250 1169h148z" />
    <glyph glyph-name="uni0409" unicode="&#x409;" horiz-adv-x="1505" 
d="M612 0l271 1272h-305l-103 -400q-25 -101 -41.5 -163t-50 -175t-62.5 -187.5t-70 -151t-81 -115.5q-32 -31 -70.5 -50t-65 -25t-65.5 -11l-55 -8l-6 100l37 12q37 12 78 33q48 25 89.5 87.5t92.5 201.5q80 222 190 649l88 336h572l-125 -590h143q129 0 208.5 -28.5
t129.5 -90.5q74 -95 74 -229q0 -94 -43 -188.5t-101 -149.5q-78 -74 -169 -101.5t-224 -27.5h-336zM903 694l-121 -573h213q138 0 228 86q42 39 71 108.5t29 139.5q0 120 -51 174q-61 65 -180 65h-189z" />
    <glyph glyph-name="uni040A" unicode="&#x40a;" horiz-adv-x="1613" 
d="M1163 1405l-125 -590h136q125 0 205 -24.5t130 -81.5q84 -97 84 -240q0 -95 -42 -188.5t-101 -151.5q-77 -74 -170 -101.5t-227 -27.5h-332l147 694h-495l-148 -694h-143l299 1405h143l-125 -590h496l125 590h143zM1012 694l-121 -573h211q71 0 130 24t97 60
q45 42 74 113.5t29 138.5q0 114 -52 172q-27 29 -74.5 47t-105.5 18h-188z" />
    <glyph glyph-name="uni040B" unicode="&#x40b;" horiz-adv-x="1196" 
d="M1067 1405l-37 -133h-346l-98 -459q143 76 274 76q145 0 205 -76q51 -61 51 -147q0 -59 -10 -111l-117 -555h-145l119 563q6 35 6 58q0 28 -5.5 50t-20.5 44.5t-47.5 35.5t-80.5 13q-112 0 -254 -68l-147 -696h-144l271 1272h-312l29 133h809z" />
    <glyph glyph-name="uni040C" unicode="&#x40c;" horiz-adv-x="1067" 
d="M1178 1421l6 -106l-66 -17q-33 -8 -63 -30q-8 -7 -16.5 -17t-16.5 -23.5t-12.5 -22t-11.5 -23t-7 -15.5l-96 -200q-56 -114 -82 -144q-47 -56 -108 -73l-3 -9q46 -20 70 -63t29 -146l14 -305q2 -45 8 -63.5t27 -32.5q17 -14 63 -31l39 -12l-49 -102l-100 12
q-100 13 -129 76q-11 23 -14 57t-3 121v227q0 124 -22 158q-35 51 -111 51h-153l-146 -688h-143l299 1405h143l-127 -596h156q73 0 127 43q10 8 19 19.5t15.5 21t15 26.5t12.5 25.5t13.5 30t12.5 29.5l84 202q47 111 88 148q51 46 143 57zM1028 1712l-399 -199l-45 84
l368 256z" />
    <glyph glyph-name="uni040D" unicode="&#x40d;" horiz-adv-x="1175" 
d="M930 0h-144l207 975q18 80 70 264h-6q-67 -145 -113 -209l-700 -1030h-162l299 1405h143l-211 -993q-19 -94 -59 -215h6q48 96 107 182l700 1026h162zM1034 1597l-49 -84l-399 199l80 141z" />
    <glyph glyph-name="uni040E" unicode="&#x40e;" horiz-adv-x="925" 
d="M371 1405l116 -707q18 -109 25 -204h8q45 120 92 213l346 698h152l-530 -1038q-37 -76 -97 -187q-55 -101 -98 -137q-66 -54 -199 -74l-53 -8l-6 100l37 11q92 25 143 73q49 46 117 185l39 80l-74 -15l-33 191l-137 819h152zM895 1763l72 -61q-19 -26 -32 -41.5t-37 -38
t-54 -43.5q-39 -28 -94.5 -45.5t-110.5 -17.5q-114 0 -180 63q-52 49 -70 123l100 61q7 -23 27.5 -46.5t42.5 -37.5q42 -28 109 -28q66 0 120 28q59 29 107 84z" />
    <glyph glyph-name="uni040F" unicode="&#x40f;" horiz-adv-x="1085" 
d="M1139 1405l-299 -1405h-308l-79 -373h-144l80 373h-307l299 1405h143l-272 -1274h471l272 1274h144z" />
    <glyph glyph-name="uni0410" unicode="&#x410;" horiz-adv-x="1003" 
d="M922 0h-154l-20 432h-457l-211 -432h-162l698 1405h207zM739 565l-26 490l-13 233l-112 -233l-234 -490h385z" />
    <glyph glyph-name="uni0411" unicode="&#x411;" horiz-adv-x="1079" 
d="M496 1274l-99 -461h183q131 0 205 -25t128 -88q80 -96 80 -239q0 -97 -40 -185t-101 -149q-77 -73 -170.5 -100t-222.5 -27h-377l299 1405h678l-53 -131h-510zM252 121h256q141 0 223 78q47 44 73.5 112.5t26.5 143.5q0 125 -53 178q-59 59 -178 59h-227z" />
    <glyph glyph-name="uni0412" unicode="&#x412;" horiz-adv-x="1067" 
d="M1061 1092q0 -147 -91.5 -240.5t-224.5 -118.5q53 -14 91 -34.5t71.5 -54t50.5 -87t17 -125.5q0 -191 -150 -321q-76 -64 -174.5 -87.5t-253.5 -23.5h-315l299 1405h176q132 0 219 -11t152 -48q133 -77 133 -254zM811 430q0 129 -63.5 183.5t-188.5 54.5h-194l-115 -543
h239q147 0 234.5 86.5t87.5 218.5zM895 1075q0 109 -68 160q-58 41 -170 41h-163l-103 -481h191q135 0 224 76t89 204z" />
    <glyph glyph-name="uni0413" unicode="&#x413;" horiz-adv-x="786" 
d="M1024 1405l-33 -127h-489l-273 -1278h-147l299 1405h643z" />
    <glyph glyph-name="uni0414" unicode="&#x414;" horiz-adv-x="1107" 
d="M1137 1405l-273 -1278h129l-106 -500h-144l80 373h-723l-80 -373h-143l107 500h73q158 250 248 459q102 239 199 606l55 213h578zM668 1280l-54 -197q-90 -337 -196 -567q-109 -241 -209 -389h512l246 1153h-299z" />
    <glyph glyph-name="uni0415" unicode="&#x415;" horiz-adv-x="890" 
d="M1049 1405l-52 -127h-495l-103 -481h420l-28 -129h-420l-113 -537h539l-29 -131h-686l299 1405h668z" />
    <glyph glyph-name="uni0416" unicode="&#x416;" horiz-adv-x="1583" 
d="M1075 1405l-127 -598h125q74 0 127 49q35 32 84 148l84 202q47 111 88 148q51 46 143 57l95 10l6 -106l-66 -17q-41 -12 -63 -30q-8 -7 -16.5 -17t-16.5 -23.5t-12.5 -22t-11.5 -23t-7 -15.5l-96 -200q-51 -105 -80 -142q-43 -54 -110 -75l-2 -9q45 -19 69 -63t29 -146
l14 -301q3 -54 10 -71.5t31 -32.5q21 -13 58 -27l38 -12l-49 -102l-102 12q-97 11 -127 76q-11 25 -13.5 56.5t-2.5 121.5v227q0 122 -23 158q-34 49 -109 49h-120l-146 -686h-143l145 686h-121q-73 0 -133 -53q-41 -36 -88 -154l-88 -227q-33 -82 -50 -117t-40 -61
q-57 -61 -162 -76l-96 -12l-4 102l37 12q42 13 71 33q25 18 41.5 41.5t38.5 75.5l125 282q42 93 97 148q49 47 104 63l2 9q-57 24 -84 79q-25 49 -25 136v200q0 74 -24 103q-9 10 -49 30l-58 25l50 96l71 -10q85 -11 119 -57q27 -37 27 -148l-2 -202q0 -105 28 -148
q11 -18 40 -33.5t69 -15.5h131l127 598h143z" />
    <glyph glyph-name="uni0417" unicode="&#x417;" horiz-adv-x="942" 
d="M487 666h-161l24 122h96q45 0 70 2t61 14.5t70 37.5q125 94 125 256q0 91 -27 135q-46 74 -145 74q-155 0 -309 -121l-47 106q96 65 166 94q102 44 213 44q139 0 225 -80q88 -80 88 -236q0 -166 -131 -291q-70 -65 -168 -84v-6q46 -6 89 -31.5t69 -62.5q51 -69 51 -176
q0 -108 -49 -214.5t-148 -180.5q-77 -57 -158 -75t-174 -18q-99 0 -191.5 32.5t-156.5 96.5l88 111q111 -117 277 -117q161 0 256 101q94 104 94 252q0 94 -49 149q-60 66 -148 66z" />
    <glyph glyph-name="uni0418" unicode="&#x418;" horiz-adv-x="1175" 
d="M930 0h-144l207 975q18 80 70 264h-6q-67 -145 -113 -209l-700 -1030h-162l299 1405h143l-211 -993q-19 -94 -59 -215h6q48 96 107 182l700 1026h162z" />
    <glyph glyph-name="uni0419" unicode="&#x419;" horiz-adv-x="1175" 
d="M930 0h-144l207 975q18 80 70 264h-6q-67 -145 -113 -209l-700 -1030h-162l299 1405h143l-211 -993q-19 -94 -59 -215h6q48 96 107 182l700 1026h162zM1087 1763l72 -61q-19 -26 -32 -41.5t-37 -38t-54 -43.5q-39 -28 -94.5 -45.5t-110.5 -17.5q-114 0 -180 63
q-50 48 -69 123l100 61q7 -23 27.5 -46.5t42.5 -37.5q42 -28 108 -28q67 0 121 28q57 28 106 84z" />
    <glyph glyph-name="uni041A" unicode="&#x41a;" horiz-adv-x="1067" 
d="M1178 1421l6 -106l-66 -17q-33 -8 -63 -30q-8 -7 -16.5 -17t-16.5 -23.5t-12.5 -22t-11.5 -23t-7 -15.5l-96 -200q-56 -114 -82 -144q-47 -56 -108 -73l-3 -9q46 -20 70 -63t29 -146l14 -305q2 -45 8 -63.5t27 -32.5q17 -14 63 -31l39 -12l-49 -102l-100 12
q-100 13 -129 76q-11 23 -14 57t-3 121v227q0 124 -22 158q-35 51 -111 51h-153l-146 -688h-143l299 1405h143l-127 -596h156q73 0 127 43q10 8 19 19.5t15.5 21t15 26.5t12.5 25.5t13.5 30t12.5 29.5l84 202q47 111 88 148q51 46 143 57z" />
    <glyph glyph-name="uni041B" unicode="&#x41b;" horiz-adv-x="1013" 
d="M586 1278l-131 -485q-40 -151 -64 -233.5t-61 -190.5t-76.5 -177t-85.5 -114q-40 -39 -85 -56.5t-114 -27.5l-55 -8l-6 100l37 12q37 12 78 33q44 24 78 70t81 162.5t107 318.5q33 113 106 387l88 336h584l-299 -1405h-143l272 1278h-311z" />
    <glyph glyph-name="uni041C" unicode="&#x41c;" horiz-adv-x="1433" 
d="M1423 1405l-194 -1405h-148l150 1030q5 36 15.5 94t19.5 106t10 56q-6 -18 -39 -99t-59 -138l-486 -1049h-121l-28 997q-5 207 2 295q-1 -4 -15.5 -60.5t-32.5 -126.5t-28 -106l-281 -999h-147l408 1405h208q3 -126 10 -353.5t12 -397t5 -234.5q0 -118 -10 -197
q20 67 98 240l430 942h221z" />
    <glyph glyph-name="uni041D" unicode="&#x41d;" horiz-adv-x="1130" 
d="M1184 1405l-299 -1405h-146l146 688h-514l-146 -688h-143l299 1405h143l-127 -596h514l127 596h146z" />
    <glyph glyph-name="uni041E" unicode="&#x41e;" horiz-adv-x="1185" 
d="M1182 956q0 -104 -17.5 -214.5t-51.5 -221.5t-89 -209t-124 -173.5t-162.5 -120t-198.5 -44.5q-400 0 -400 478q0 107 17.5 219t51.5 222t88.5 207t123.5 171t161 117t197 43q206 0 305 -119.5t99 -354.5zM1024 963q0 344 -250 344q-94 0 -174.5 -56t-135.5 -147
t-94 -206t-57 -233t-18 -229q0 -340 254 -340q94 0 175.5 64t135 162t92 217t55.5 228t17 196z" />
    <glyph glyph-name="uni041F" unicode="&#x41f;" horiz-adv-x="1114" 
d="M1167 1405l-299 -1405h-143l270 1278h-497l-273 -1278h-143l299 1405h786z" />
    <glyph glyph-name="uni0420" unicode="&#x420;" horiz-adv-x="966" 
d="M1069 1061q0 -154 -68.5 -267.5t-184.5 -171t-265 -57.5h-205l-121 -565h-143l299 1405h289q399 0 399 -344zM901 1057q0 123 -69.5 171t-196.5 48h-139l-123 -586h164q364 0 364 367z" />
    <glyph glyph-name="uni0421" unicode="&#x421;" horiz-adv-x="997" 
d="M1104 1296l-88 -92q-94 94 -228 94q-91 0 -173 -58t-140 -150t-101 -203t-64 -219t-21 -197q0 -159 72.5 -263t207.5 -104q123 0 256 84l45 -104q-150 -100 -335 -100q-192 0 -296 131.5t-104 361.5q0 97 21 204.5t59 213t97 201t130 168.5t163 116t192 43
q190 0 307 -127z" />
    <glyph glyph-name="uni0422" unicode="&#x422;" horiz-adv-x="829" 
d="M1067 1405l-33 -133h-336l-270 -1272h-141l270 1272h-328l29 133h809z" />
    <glyph glyph-name="uni0423" unicode="&#x423;" horiz-adv-x="925" 
d="M371 1405l116 -707q18 -109 25 -204h8q45 120 92 213l346 698h152l-530 -1038q-37 -76 -97 -187q-55 -101 -98 -137q-66 -54 -199 -74l-53 -8l-6 100l37 11q92 25 143 73q49 46 117 185l39 80l-74 -15l-33 191l-137 819h152z" />
    <glyph glyph-name="uni0424" unicode="&#x424;" horiz-adv-x="1226" 
d="M598 0h-143l47 227h-27q-167 0 -258 113q-41 51 -58.5 124t-17.5 136q1 179 67.5 338t174.5 246q122 96 315 96h29l43 207h143l-43 -207h31q78 0 146 -26.5t112 -75.5q78 -89 78 -265q0 -160 -59 -327t-168 -258q-118 -101 -332 -101h-31zM848 1176l-180 -844h30
q66 0 125 20.5t95 53.5q82 73 128 230.5t46 291.5q0 114 -37 162q-33 45 -87 65.5t-96 20.5h-24zM705 1176h-29q-134 0 -217 -76q-82 -73 -129 -226.5t-47 -283.5q0 -111 39 -166q35 -50 84 -71t96 -21h22z" />
    <glyph glyph-name="uni0425" unicode="&#x425;" horiz-adv-x="937" 
d="M1075 1405l-446 -645l227 -760h-158l-174 655l-434 -655h-172l526 760l-190 645h162l135 -535l354 535h170z" />
    <glyph glyph-name="uni0426" unicode="&#x426;" horiz-adv-x="1128" 
d="M381 1405h143l-272 -1278h489l273 1278h143l-272 -1278h73l-106 -500h-143l79 373h-706z" />
    <glyph glyph-name="uni0427" unicode="&#x427;" horiz-adv-x="1003" 
d="M758 0h-144l136 633q-140 -70 -295 -70q-168 0 -232 99q-39 55 -39 149q0 23 13 94l106 500h143l-102 -481q-12 -54 -12 -84q0 -75 39 -113.5t135 -38.5q118 0 268 62l139 655h144z" />
    <glyph glyph-name="uni0428" unicode="&#x428;" horiz-adv-x="1503" 
d="M82 0l299 1405h143l-272 -1278h373l272 1278h143l-272 -1278h373l272 1278h143l-299 -1405h-1175z" />
    <glyph glyph-name="uni0429" unicode="&#x429;" horiz-adv-x="1527" 
d="M82 0l299 1405h143l-272 -1278h373l272 1278h143l-272 -1278h373l272 1278h143l-272 -1278h74l-107 -500h-143l80 373h-1106z" />
    <glyph glyph-name="uni042A" unicode="&#x42a;" horiz-adv-x="966" 
d="M946 524q0 -136 -63 -261.5t-176 -190.5q-69 -40 -153.5 -56t-225.5 -16h-246l268 1272h-319l28 133h463l-121 -569h103q242 0 338 -78q104 -84 104 -234zM604 164q85 45 132.5 143t47.5 207q0 93 -53 143q-63 58 -229 58h-125l-127 -594h125q145 0 229 43z" />
    <glyph glyph-name="uni042B" unicode="&#x42b;" horiz-adv-x="1429" 
d="M946 524q0 -136 -63 -261.5t-176 -190.5q-69 -40 -153.5 -56t-225.5 -16h-246l297 1405h143l-121 -569h103q242 0 338 -78q104 -84 104 -234zM604 164q85 45 132.5 143t47.5 207q0 93 -53 143q-63 58 -229 58h-125l-127 -594h125q145 0 229 43zM1483 1405l-299 -1405
h-144l299 1405h144z" />
    <glyph glyph-name="uni042C" unicode="&#x42c;" horiz-adv-x="966" 
d="M946 524q0 -136 -63 -261.5t-176 -190.5q-69 -40 -153.5 -56t-225.5 -16h-246l297 1405h143l-121 -569h103q242 0 338 -78q104 -84 104 -234zM604 164q85 45 132.5 143t47.5 207q0 93 -53 143q-63 58 -229 58h-125l-127 -594h125q145 0 229 43z" />
    <glyph glyph-name="uni042D" unicode="&#x42d;" horiz-adv-x="980" 
d="M350 788h455l8 37q14 68 14 164q0 121 -47 199q-73 115 -217 115q-137 0 -297 -111l-45 111q170 127 367 127q119 0 196 -49.5t117 -118.5q76 -128 76 -322q0 -100 -18 -219.5t-50 -216.5q-45 -133 -98 -222.5t-127 -154.5q-175 -152 -393 -152q-107 0 -189 45
q-67 37 -112 82l88 115q101 -117 246 -117q74 0 149 32.5t137 94.5q54 54 92 141.5t58 178.5l26 125h-458z" />
    <glyph glyph-name="uni042E" unicode="&#x42e;" horiz-adv-x="1587" 
d="M397 809h232q73 268 223 438q163 183 377 183q107 0 183.5 -50t117.5 -131q53 -104 53 -315q0 -217 -72.5 -428t-197.5 -348q-163 -183 -391 -183q-100 0 -169 47t-110 117q-63 108 -63 324q0 97 22 225h-231l-146 -688h-143l299 1405h143zM1202 1307q-160 0 -282 -170
q-81 -115 -137 -352t-56 -384q0 -127 49 -204q64 -99 172 -99q74 0 145 40t121 102q89 108 152.5 348t63.5 391q0 158 -54 240q-59 88 -174 88z" />
    <glyph glyph-name="uni042F" unicode="&#x42f;" horiz-adv-x="1058" 
d="M813 0h-143l135 637h-189q-63 0 -131 -57q-62 -55 -96 -144l-72 -184q-51 -134 -90 -178q-53 -59 -164 -76l-81 -12l-15 110l33 10q52 17 72 27q21 10 37 35.5t45 89.5l104 219q50 105 92 150q53 53 127 71l2 9q-103 32 -150.5 108.5t-47.5 179.5q0 102 50.5 186.5
t129.5 135.5q136 88 370 88h281zM942 1278h-168q-100 0 -172 -33q-164 -75 -164 -246q0 -115 61.5 -175t176.5 -60h155z" />
    <glyph glyph-name="uni0430" unicode="&#x430;" horiz-adv-x="956" 
d="M924 975q-29 -102 -52 -213l-88 -410q-24 -112 -24 -184q0 -73 41 -135l-123 -68q-60 71 -60 148v39q-113 -168 -274 -168q-109 0 -174.5 83.5t-65.5 233.5q0 162 51.5 318.5t141.5 259.5q144 165 365 165q130 0 262 -69zM762 897q-57 25 -123 25q-74 0 -147 -43
t-127 -131q-55 -91 -86 -210.5t-31 -234.5q0 -194 129 -194q137 0 264 225z" />
    <glyph glyph-name="uni0431" unicode="&#x431;" horiz-adv-x="946" 
d="M317 850h5q48 71 125.5 120.5t168.5 49.5q140 0 216.5 -92.5t76.5 -253.5q0 -75 -14 -154t-40 -157.5t-68.5 -148t-96 -123t-125.5 -85t-153 -31.5q-161 0 -237.5 91.5t-76.5 287.5q0 144 64 379q56 202 123 336q68 137 154.5 214.5t203.5 123.5l125 49q113 44 203 113
l51 -137q-85 -61 -211 -113l-190 -78q-82 -32 -156 -115q-78 -89 -117 -194zM756 694q0 90 -42 142.5t-128 52.5q-92 0 -169.5 -77t-122 -206t-44.5 -278q0 -117 41 -169.5t137 -52.5q70 0 132.5 54t104.5 139.5t66.5 189.5t24.5 205z" />
    <glyph glyph-name="uni0432" unicode="&#x432;" horiz-adv-x="886" 
d="M63 53l132 615q44 216 178 309q98 67 223 67q52 0 103.5 -17t84.5 -52q62 -62 62 -168q0 -110 -74 -197q-48 -54 -121 -80q58 -23 94.5 -78t36.5 -133q0 -70 -28 -137t-80 -116q-98 -91 -271 -91q-101 0 -186 21.5t-127 42.5zM289 469l-74 -348q92 -35 203 -35
q101 0 166 70q59 64 59 161q0 89 -55 127q-38 25 -94 25h-205zM313 580h187q73 0 133 47q31 26 54.5 69.5t23.5 98.5q0 64 -39 100q-36 33 -101 33q-78 0 -143 -56q-61 -51 -90 -174z" />
    <glyph glyph-name="uni0433" unicode="&#x433;" horiz-adv-x="788" 
d="M240 854l-33 111q158 79 299 79q108 0 170 -49q88 -68 88 -192q0 -114 -78 -189q-29 -29 -71 -55t-72 -40.5t-101 -45.5q-64 -28 -107.5 -53t-57 -36.5t-31.5 -29.5q-49 -49 -49 -118q0 -138 153 -138q44 0 101.5 15.5t99.5 36.5l65 32l37 -112l-20 -13
q-57 -34 -141.5 -58t-176.5 -24q-131 0 -202 62q-35 31 -53.5 82t-18.5 106q0 106 82 197q37 39 91.5 70t147.5 71q81 36 126.5 62.5t76.5 58.5q47 47 47 115q0 61 -36 93t-97 32q-94 0 -198 -50z" />
    <glyph glyph-name="uni0434" unicode="&#x434;" horiz-adv-x="954" 
d="M377 1370l45 113q55 16 121 16q82 0 143 -20q128 -41 186 -160q48 -98 48 -326q0 -112 -24.5 -267t-57.5 -269q-65 -230 -166 -340q-60 -66 -142 -104t-172 -38q-76 0 -128.5 32t-79.5 75q-64 97 -64 270q0 148 50 290t138 241q124 141 283 141q74 0 141 -29
q36 -13 84 -49q4 40 4 109q0 160 -32 219q-64 115 -246 115q-57 0 -131 -19zM236 340q0 -48 4.5 -84t17.5 -76.5t44 -63t77 -22.5q129 0 229 162q59 94 98.5 252t55.5 311q-101 80 -203 80q-116 0 -213 -139q-52 -76 -81 -188t-29 -232z" />
    <glyph glyph-name="uni0435" unicode="&#x435;" horiz-adv-x="854" 
d="M854 807q0 -55 -22 -115.5t-60 -101.5q-118 -125 -375 -125q-32 0 -118 4q-21 -82 -21 -135q0 -112 46.5 -176t146.5 -64q133 0 243 107l58 -80q-133 -144 -324 -144q-319 0 -319 361q0 153 54.5 311.5t149.5 259.5q132 138 289 138q122 0 187 -66.5t65 -173.5zM723 801
q0 59 -30.5 99t-102.5 40q-90 0 -167 -102t-124 -263q74 -4 102 -4q107 0 169 25t102 70q24 26 37.5 65t13.5 70z" />
    <glyph glyph-name="uni0436" unicode="&#x436;" horiz-adv-x="1544" 
d="M203 850l-51 86q37 48 94 78t121 30q104 0 163 -79q60 -79 60 -258q0 -57 -10 -107h149l88 416l146 26l-95 -442h156q57 190 164 315q112 129 242 129q95 0 153 -73l-74 -92q-39 53 -102 53q-83 0 -162 -141q-73 -131 -106 -265t-33 -241q0 -36 3 -63t13 -59.5
t33.5 -50.5t58.5 -18q75 0 136 82l55 -94q-35 -47 -91.5 -77t-117.5 -30q-101 0 -164 80q-61 83 -61 258q0 70 20 172h-145l-105 -485h-139l103 485h-150q-31 -120 -72 -212t-108 -169q-112 -129 -244 -129q-93 0 -151 74l79 98q37 -53 97 -53q35 0 68.5 23.5t51.5 48.5
t41 63q74 127 106 263.5t32 242.5q0 102 -35 154q-29 43 -80 43q-71 0 -137 -82z" />
    <glyph glyph-name="uni0437" unicode="&#x437;" horiz-adv-x="757" 
d="M281 596h63q53 0 94 11t78 46q59 56 59 138q0 59 -36.5 96t-106.5 37q-99 0 -229 -76l-39 108q83 44 131 60q89 28 166 28q129 0 196 -69q60 -64 60 -160q0 -110 -76 -192q-48 -50 -123 -76q35 -9 63.5 -31t43.5 -47q34 -53 34 -141q0 -56 -14.5 -105t-39.5 -83.5
t-49.5 -57.5t-51.5 -41q-105 -66 -238 -66q-163 0 -286 111l69 111q97 -101 223 -101q100 0 167 64.5t67 171.5q0 91 -49 125q-38 26 -119 26h-80z" />
    <glyph glyph-name="uni0438" unicode="&#x438;" horiz-adv-x="980" 
d="M956 1040l-157 -747q-19 -97 -19 -137q0 -63 43 -117l-98 -82q-85 81 -76 207q-154 -199 -338 -199q-92 0 -142 47t-50 135q0 62 18 152l152 719l143 22l-153 -731q-21 -97 -21 -147q0 -40 25 -62t67 -22q143 0 314 223l153 717z" />
    <glyph glyph-name="uni0439" unicode="&#x439;" horiz-adv-x="980" 
d="M956 1040l-157 -747q-19 -97 -19 -137q0 -63 43 -117l-98 -82q-85 81 -76 207q-154 -199 -338 -199q-92 0 -142 47t-50 135q0 62 18 152l152 719l143 22l-153 -731q-21 -97 -21 -147q0 -40 25 -62t67 -22q143 0 314 223l153 717zM846 1401l74 -62q-59 -78 -123 -122
q-92 -64 -207 -64q-54 0 -101.5 17.5t-76.5 46.5q-51 47 -70 122l98 62q21 -53 70 -84q44 -29 108 -29q65 0 121 29q28 14 58 37.5t49 46.5z" />
    <glyph glyph-name="uni043A" unicode="&#x43a;" horiz-adv-x="905" 
d="M293 1018l139 24l-96 -446q-11 -58 -47 -176h6q34 93 93.5 194t119.5 174q80 97 170.5 161t204.5 93l43 -118l-27 -9q-252 -76 -416 -358l39 -4q101 -10 137 -70q21 -35 25 -110l8 -193q3 -58 25 -80q13 -13 43 -22l31 -8l-35 -90l-72 10q-24 3 -35.5 5.5t-31 8.5t-32 18
t-20.5 29q-14 31 -14 131l2 158q0 73 -23 98q-23 27 -102 27q-127 -203 -217 -465h-133z" />
    <glyph glyph-name="uni043B" unicode="&#x43b;" horiz-adv-x="890" 
d="M844 1020l-217 -1020h-140l191 897h-205l-59 -199q-76 -249 -117 -364q-44 -123 -74 -182q-43 -76 -88 -111q-61 -44 -147 -53l-62 -6l-8 98l35 8q32 8 60.5 27t45.5 38t35 50.5t24.5 46.5t18.5 43q44 108 86 235q54 166 76 246l72 246h473z" />
    <glyph glyph-name="uni043C" unicode="&#x43c;" horiz-adv-x="1130" 
d="M315 1020h172l25 -596q4 -101 -2 -221h6q41 114 88 215l283 602h172l-137 -1020h-138l109 705q12 77 35 172h-6q-8 -27 -35 -89l-361 -788h-114l-23 727q-3 85 0 150h-6q-10 -59 -29 -129l-200 -748h-129z" />
    <glyph glyph-name="uni043D" unicode="&#x43d;" horiz-adv-x="980" 
d="M324 481l-103 -481h-139l215 1016l145 26l-92 -436h375l86 410l145 26l-221 -1042h-139l102 481h-374z" />
    <glyph glyph-name="uni043E" unicode="&#x43e;" horiz-adv-x="929" 
d="M897 715q0 -103 -18.5 -205.5t-59 -199.5t-98 -172t-141 -120t-181.5 -45q-161 0 -237 89t-76 272q0 138 36 267.5t100 229.5t159.5 160t206.5 60q152 0 230.5 -87t78.5 -249zM743 735q0 96 -42.5 148.5t-127.5 52.5q-92 0 -169.5 -83t-121.5 -222.5t-44 -302.5
q0 -124 39.5 -180t134.5 -56t172 95.5t118 242t41 305.5z" />
    <glyph glyph-name="uni043F" unicode="&#x43f;" horiz-adv-x="978" 
d="M903 858q0 -49 -20 -149l-150 -709h-139l147 698q21 97 21 142q0 80 -80 80q-144 0 -317 -228l-148 -692h-135l158 741q16 71 16 133q0 53 -16 119l131 54q24 -70 24 -129q0 -30 -6 -68q148 192 332 192q85 0 133.5 -48.5t48.5 -135.5z" />
    <glyph glyph-name="uni0440" unicode="&#x440;" horiz-adv-x="995" 
d="M946 729q0 -156 -54.5 -325t-143.5 -271q-74 -87 -153 -123.5t-185 -36.5q-89 0 -185 45l-20 -98l-68 -315l-145 -31l248 1157q18 85 18 152q0 51 -16 110l131 54q24 -74 24 -127q0 -14 -4 -50q49 79 124.5 125.5t166.5 46.5q126 0 194 -80.5t68 -232.5zM803 721
q0 190 -146 190q-88 0 -160 -65t-139 -191l-108 -514q81 -47 174 -47q73 0 141 43.5t115 122.5q56 92 89.5 218t33.5 243z" />
    <glyph glyph-name="uni0441" unicode="&#x441;" horiz-adv-x="794" 
d="M834 950l-70 -92q-73 66 -168 66q-114 0 -199 -125q-65 -96 -105 -217t-40 -248q0 -114 43 -174t117 -60q111 0 204 99l68 -97q-74 -70 -143 -97.5t-156 -27.5q-142 0 -212.5 91t-70.5 254q0 160 61.5 334t174.5 278q121 113 270 113q129 0 226 -97z" />
    <glyph glyph-name="uni0442" unicode="&#x442;" horiz-adv-x="1423" 
d="M1348 858q0 -44 -21 -149l-149 -709h-138l148 698q20 93 20 140q0 84 -82 84q-108 0 -278 -211l-150 -711h-137l148 698q20 93 20 140q0 84 -82 84q-111 0 -276 -207l-152 -715h-137l158 741q16 71 16 133q0 53 -16 119l131 54q24 -70 24 -134q0 -27 -2 -43
q142 172 293 172q82 0 130 -44.5t52 -125.5q143 170 297 170q85 0 134 -48.5t49 -135.5z" />
    <glyph glyph-name="uni0443" unicode="&#x443;" horiz-adv-x="763" 
d="M899 1020l-524 -1057q-80 -162 -165.5 -251t-203.5 -120l-20 97q90 31 148.5 97t123.5 214l-59 -8v49q0 201 -11 317l-57 654l137 39l47 -662q7 -82 7 -147q0 -68 -9 -133l9 18l102 223l317 670h158z" />
    <glyph glyph-name="uni0444" unicode="&#x444;" horiz-adv-x="1325" 
d="M559 -393l-145 -31l102 481q-74 -82 -188 -82q-40 0 -82 20t-72 56q-33 38 -53.5 107t-20.5 155q0 118 33.5 251t81.5 227q36 70 80 121.5t88.5 79t84.5 40t77 12.5q94 0 160 -104l112 528l144 27l-117 -555q39 46 95.5 75t104.5 29q98 0 158 -77q64 -85 64 -242
q0 -125 -32.5 -262t-92.5 -244q-68 -124 -161.5 -184t-180.5 -60q-41 0 -80 20.5t-64 61.5zM819 831l-139 -661q65 -76 133 -76q48 0 101 37.5t100 122.5q49 87 77.5 221.5t28.5 233.5q0 114 -28 165q-27 50 -99 50q-81 0 -174 -93zM541 170l141 661q-59 93 -131 93
q-39 0 -75 -18.5t-63 -50.5t-46 -64.5t-35 -69.5q-86 -209 -86 -381q0 -45 1 -71t7.5 -58.5t19.5 -56.5q32 -60 101 -60q38 0 75.5 17.5t90.5 58.5z" />
    <glyph glyph-name="uni0445" unicode="&#x445;" horiz-adv-x="815" 
d="M874 1020l-360 -463l219 -557h-153l-119 342l-35 102l-78 -102l-262 -342h-168l453 571l-178 449h157l72 -232l37 -118l63 88l187 262h165z" />
    <glyph glyph-name="uni0446" unicode="&#x446;" horiz-adv-x="1007" 
d="M956 1040l-157 -747q-25 -113 -17 -170h142l-103 -481h-131l74 358h-25q-101 16 -90 164q-154 -199 -338 -199q-92 0 -142 47t-50 135q0 62 18 152l152 719l143 22l-153 -731q-21 -97 -21 -147q0 -40 25 -62t67 -22q143 0 314 223l153 717z" />
    <glyph glyph-name="uni0447" unicode="&#x447;" horiz-adv-x="880" 
d="M358 1042l-82 -389q-6 -30 -6 -49q0 -58 37.5 -81t108.5 -23q87 0 180 41l100 475l144 26l-222 -1042h-137l90 430q-88 -49 -200 -49q-155 0 -213 94q-25 41 -25 111q0 38 12 96l70 334z" />
    <glyph glyph-name="uni0448" unicode="&#x448;" horiz-adv-x="1421" 
d="M1266 49l-99 -82q-84 80 -75 207q-154 -199 -318 -199t-164 199q-154 -199 -317 -199q-90 0 -131 46.5t-41 136.5q0 61 18 151l150 709l143 22l-151 -721q-21 -97 -21 -147q0 -43 16 -63.5t56 -20.5q53 0 128.5 53.5t164.5 169.5l149 707l144 22l-156 -737
q-19 -97 -19 -131q0 -43 16 -63.5t54 -20.5q53 0 128.5 53.5t164.5 169.5l151 707l140 22l-156 -737q-18 -91 -18 -137q0 -63 43 -117z" />
    <glyph glyph-name="uni0449" unicode="&#x449;" horiz-adv-x="1382" 
d="M1364 123l-102 -481h-132l74 358h-24q-93 16 -93 133q0 15 3 39q-152 -197 -316 -197t-164 199q-154 -199 -317 -199q-90 0 -131 46.5t-41 136.5q0 61 18 151l150 709l143 22l-151 -721q-21 -97 -21 -147q0 -43 16 -63.5t56 -20.5q53 0 128.5 53.5t164.5 169.5l149 707
l144 22l-156 -737q-19 -97 -19 -131q0 -43 16 -63.5t54 -20.5q53 0 128.5 53.5t164.5 169.5l151 707l140 22l-158 -747q-22 -98 -16 -170h141z" />
    <glyph glyph-name="uni044A" unicode="&#x44a;" horiz-adv-x="868" 
d="M37 901l47 119h387l-86 -406q79 27 166 27q71 0 122 -22t77 -50q77 -81 77 -215q0 -75 -28 -147t-80 -125q-46 -46 -118 -76.5t-161 -30.5q-153 0 -288 64l-27 12l180 850h-268zM360 496l-79 -375q80 -31 151 -31q115 0 180 70q28 30 47 79t19 103q0 91 -41 137
q-40 47 -133 47q-70 0 -144 -30z" />
    <glyph glyph-name="uni044B" unicode="&#x44b;" horiz-adv-x="1251" 
d="M82 51l205 965l145 26l-90 -428q79 27 166 27q71 0 122 -22t77 -50q77 -81 77 -215q0 -75 -28 -147t-80 -125q-46 -46 -118 -76.5t-161 -30.5q-153 0 -288 64zM317 496l-79 -375q80 -31 151 -31q115 0 180 70q28 30 47 79t19 103q0 91 -41 137q-40 47 -133 47
q-70 0 -144 -30zM1227 1042l-221 -1042h-146l217 1022z" />
    <glyph glyph-name="uni044C" unicode="&#x44c;" horiz-adv-x="825" 
d="M82 51l205 965l145 26l-90 -428q79 27 166 27q71 0 122 -22t77 -50q77 -81 77 -215q0 -75 -28 -147t-80 -125q-46 -46 -118 -76.5t-161 -30.5q-153 0 -288 64zM317 496l-79 -375q80 -31 151 -31q115 0 180 70q28 30 47 79t19 103q0 91 -41 137q-40 47 -133 47
q-70 0 -144 -30z" />
    <glyph glyph-name="uni044D" unicode="&#x44d;" horiz-adv-x="774" 
d="M-14 109l90 86q31 -49 67 -70q53 -31 115 -31q133 0 221 139q56 90 84 240h-303l23 115h301q12 70 12 110q0 94 -31 154q-41 78 -131 78q-97 0 -192 -82l-60 84q131 112 275 112q149 0 223 -108q61 -92 61 -260q0 -140 -49.5 -294.5t-124.5 -248.5q-126 -158 -329 -158
q-96 0 -164 48q-49 34 -88 86z" />
    <glyph glyph-name="uni044E" unicode="&#x44e;" horiz-adv-x="1265" 
d="M438 1042l-92 -436h141q52 197 168.5 321t274.5 124q147 0 225 -89t78 -257q0 -100 -17.5 -200.5t-55 -197t-91.5 -170.5t-133.5 -119t-173.5 -45q-152 0 -229.5 91.5t-77.5 269.5q0 65 10 147h-146l-102 -481h-139l217 1022zM1085 725q0 102 -43.5 156.5t-126.5 54.5
q-88 0 -160.5 -83t-113.5 -222t-41 -303q0 -123 40.5 -179.5t133.5 -56.5q90 0 163 95.5t110.5 239t37.5 298.5z" />
    <glyph glyph-name="uni044F" unicode="&#x44f;" horiz-adv-x="917" 
d="M610 442h-108q-63 0 -100 -34t-68 -99l-60 -123q-33 -70 -49 -98t-39 -49q-19 -18 -45 -29.5t-41.5 -14.5t-46.5 -7l-51 -6l-22 98l28 6q42 8 61.5 29.5t51.5 81.5l72 135q37 71 74.5 108.5t105.5 53.5q-81 21 -129.5 77t-48.5 144q0 71 32.5 141.5t104.5 120.5
q98 67 278 67q58 0 213 -18l49 -6l-217 -1020h-139zM635 557l74 352q-65 19 -121 19q-134 0 -193 -51q-21 -17 -42 -56t-21 -98q0 -84 53 -127q51 -39 137 -39h113z" />
    <glyph glyph-name="uni0450" unicode="&#x450;" horiz-adv-x="854" 
d="M854 807q0 -55 -22 -115.5t-60 -101.5q-118 -125 -375 -125q-32 0 -118 4q-21 -82 -21 -135q0 -112 46.5 -176t146.5 -64q133 0 243 107l58 -80q-133 -144 -324 -144q-319 0 -319 361q0 153 54.5 311.5t149.5 259.5q132 138 289 138q122 0 187 -66.5t65 -173.5zM723 801
q0 59 -30.5 99t-102.5 40q-90 0 -167 -102t-124 -263q74 -4 102 -4q107 0 169 25t102 70q24 26 37.5 65t13.5 70zM819 1249l-49 -84l-399 199l80 141z" />
    <glyph glyph-name="uni0451" unicode="&#x451;" horiz-adv-x="854" 
d="M854 807q0 -55 -22 -115.5t-60 -101.5q-118 -125 -375 -125q-32 0 -118 4q-21 -82 -21 -135q0 -112 46.5 -176t146.5 -64q133 0 243 107l58 -80q-133 -144 -324 -144q-319 0 -319 361q0 153 54.5 311.5t149.5 259.5q132 138 289 138q122 0 187 -66.5t65 -173.5zM723 801
q0 59 -30.5 99t-102.5 40q-90 0 -167 -102t-124 -263q74 -4 102 -4q107 0 169 25t102 70q24 26 37.5 65t13.5 70zM547 1272q0 -40 -28.5 -70.5t-67.5 -30.5q-40 0 -69.5 30.5t-29.5 70.5t28.5 68t68.5 28t69 -28t29 -68zM913 1272q0 -40 -28.5 -70.5t-67.5 -30.5t-68.5 30.5
t-29.5 70.5t28 68t68 28t69 -28t29 -68z" />
    <glyph glyph-name="uni0452" unicode="&#x452;" horiz-adv-x="1001" 
d="M918 846q0 -55 -19 -150l-145 -696q-33 -155 -105 -254.5t-194 -151.5l-52 95q81 31 132.5 111.5t82.5 222.5l140 663q18 83 18 139q0 84 -98 84q-144 0 -313 -221l-144 -688h-139l242 1139h-103l23 108h96q4 54 4 76q0 84 -14 127l143 57q16 -59 16 -143q0 -62 -8 -117
h301l-65 -108h-254l-35 -162q-15 -66 -35 -129q145 182 324 182q95 0 148 -48t53 -136z" />
    <glyph glyph-name="uni0453" unicode="&#x453;" horiz-adv-x="788" 
d="M240 854l-33 111q158 79 299 79q108 0 170 -49q88 -68 88 -192q0 -114 -78 -189q-29 -29 -71 -55t-72 -40.5t-101 -45.5q-64 -28 -107.5 -53t-57 -36.5t-31.5 -29.5q-49 -49 -49 -118q0 -138 153 -138q44 0 101.5 15.5t99.5 36.5l65 32l37 -112l-20 -13
q-57 -34 -141.5 -58t-176.5 -24q-131 0 -202 62q-35 31 -53.5 82t-18.5 106q0 106 82 197q37 39 91.5 70t147.5 71q81 36 126.5 62.5t76.5 58.5q47 47 47 115q0 61 -36 93t-97 32q-94 0 -198 -50zM809 1364l-399 -199l-45 84l368 256z" />
    <glyph glyph-name="uni0454" unicode="&#x454;" horiz-adv-x="808" 
d="M848 934l-96 -86q-69 86 -164 86q-94 0 -172 -78.5t-111 -202.5l-14 -55h305l-23 -115h-305l-14 -71q-12 -56 -12 -117q0 -93 38 -149t121 -56q137 0 234 105l57 -84q-137 -134 -307 -134q-142 0 -212.5 91t-70.5 254q0 162 59 335.5t171 276.5q121 113 276 113
q73 0 136 -30.5t104 -82.5z" />
    <glyph glyph-name="uni0455" unicode="&#x455;" horiz-adv-x="835" 
d="M821 977l-63 -107q-63 39 -108.5 56.5t-106.5 17.5q-86 0 -138.5 -49t-52.5 -125q0 -62 25 -97.5t72 -60.5l86 -45q42 -22 72.5 -44t60.5 -54t45.5 -75t15.5 -95q0 -152 -104 -241t-269 -89q-99 0 -186 28.5t-145 76.5l65 106q118 -98 275 -98q90 0 151.5 54.5
t61.5 125.5q0 70 -31 110t-90 70l-84 43q-84 44 -129 104t-45 152q0 142 100.5 230t249.5 88q162 0 272 -82z" />
    <glyph glyph-name="uni0456" unicode="&#x456;" horiz-adv-x="473" 
d="M449 1042l-222 -1042h-145l217 1022zM537 1321q0 -44 -32.5 -76.5t-76.5 -32.5t-76.5 32.5t-32.5 76.5t32.5 76.5t76.5 32.5t76.5 -32.5t32.5 -76.5z" />
    <glyph glyph-name="uni0457" unicode="&#x457;" horiz-adv-x="473" 
d="M449 1042l-222 -1042h-145l217 1022zM358 1272q0 -40 -28.5 -70.5t-67.5 -30.5t-68.5 30.5t-29.5 70.5t28 68t68 28t69 -28t29 -68zM664 1272q0 -40 -29 -70.5t-68 -30.5t-68.5 30.5t-29.5 70.5t28 68t68 28t69.5 -28.5t29.5 -67.5z" />
    <glyph glyph-name="uni0458" unicode="&#x458;" horiz-adv-x="471" 
d="M449 1047l-222 -1033q-32 -155 -71 -225q-68 -121 -226 -195l-57 93q95 46 137 111.5t72 203.5l217 1016zM532 1321q0 -44 -32 -76.5t-76 -32.5t-76.5 32.5t-32.5 76.5t32.5 76.5t76.5 32.5t76 -32.5t32 -76.5z" />
    <glyph glyph-name="uni0459" unicode="&#x459;" horiz-adv-x="1241" 
d="M1200 354q0 -75 -28 -147t-80 -125q-46 -46 -118 -76.5t-161 -30.5q-154 0 -289 64l-26 12l178 844h-205l-59 -197q-76 -249 -117 -364q-44 -123 -74 -182q-46 -81 -82 -111q-61 -44 -151 -53l-62 -6l-8 98l35 8q32 8 60.5 27t45.5 38t35 50.5t24.5 46.5t18.5 43
q44 108 86 235q54 166 76 246l72 246h473l-86 -406q79 27 166 27q71 0 121.5 -22t76.5 -50q78 -82 78 -215zM733 496l-80 -375q80 -31 152 -31q115 0 180 70q28 30 47 79t19 103q0 91 -41 137q-40 47 -133 47q-70 0 -144 -30z" />
    <glyph glyph-name="uni045A" unicode="&#x45a;" horiz-adv-x="1339" 
d="M596 51l90 430h-362l-103 -481h-139l215 1016l145 26l-92 -436h363l88 410l145 26l-90 -428q79 27 166 27q71 0 122 -22t77 -50q77 -81 77 -215q0 -75 -28 -147t-80 -125q-46 -46 -118 -76.5t-161 -30.5q-153 0 -288 64zM831 496l-79 -375q80 -31 151 -31q115 0 180 70
q28 30 47 79t19 103q0 91 -41 137q-40 47 -133 47q-70 0 -144 -30z" />
    <glyph glyph-name="uni045B" unicode="&#x45b;" horiz-adv-x="1001" 
d="M918 846q0 -55 -19 -150l-145 -696h-140l144 686q18 83 18 139q0 84 -98 84q-144 0 -313 -221l-144 -688h-139l242 1139h-103l23 108h96q4 54 4 76q0 84 -14 127l143 57q16 -59 16 -143q0 -62 -8 -117h301l-65 -108h-254l-35 -162q-15 -66 -35 -129q145 182 324 182
q95 0 148 -48t53 -136z" />
    <glyph glyph-name="uni045C" unicode="&#x45c;" horiz-adv-x="905" 
d="M293 1018l139 24l-96 -446q-11 -58 -47 -176h6q34 93 93.5 194t119.5 174q80 97 170.5 161t204.5 93l43 -118l-27 -9q-252 -76 -416 -358l39 -4q101 -10 137 -70q21 -35 25 -110l8 -193q3 -58 25 -80q13 -13 43 -22l31 -8l-35 -90l-72 10q-24 3 -35.5 5.5t-31 8.5t-32 18
t-20.5 29q-14 31 -14 131l2 158q0 73 -23 98q-23 27 -102 27q-127 -203 -217 -465h-133zM852 1364l-399 -199l-45 84l368 256z" />
    <glyph glyph-name="uni045D" unicode="&#x45d;" horiz-adv-x="980" 
d="M956 1040l-157 -747q-19 -97 -19 -137q0 -63 43 -117l-98 -82q-85 81 -76 207q-154 -199 -338 -199q-92 0 -142 47t-50 135q0 62 18 152l152 719l143 22l-153 -731q-21 -97 -21 -147q0 -40 25 -62t67 -22q143 0 314 223l153 717zM842 1249l-49 -84l-400 199l80 141z" />
    <glyph glyph-name="uni045E" unicode="&#x45e;" horiz-adv-x="763" 
d="M899 1020l-524 -1057q-80 -162 -165.5 -251t-203.5 -120l-20 97q90 31 148.5 97t123.5 214l-59 -8v49q0 201 -11 317l-57 654l137 39l47 -662q7 -82 7 -147q0 -68 -9 -133l9 18l102 223l317 670h158zM764 1401l74 -62q-59 -78 -123 -122q-92 -64 -207 -64
q-54 0 -101.5 17.5t-76.5 46.5q-51 47 -70 122l98 62q21 -53 70 -84q43 -29 109 -29q64 0 120 29q28 14 58 37.5t49 46.5z" />
    <glyph glyph-name="uni045F" unicode="&#x45f;" horiz-adv-x="980" 
d="M348 -358l60 278l145 55l-74 -333h-131zM956 1040l-157 -747q-19 -97 -19 -137q0 -63 43 -117l-98 -82q-85 81 -76 207q-154 -199 -338 -199q-92 0 -142 47t-50 135q0 62 18 152l152 719l143 22l-153 -731q-21 -97 -21 -147q0 -40 25 -62t67 -22q143 0 314 223l153 717z
" />
    <glyph glyph-name="uni0462" unicode="&#x462;" horiz-adv-x="966" 
d="M203 1098l22 110h113l41 197h143l-43 -197h236l-23 -110h-235l-56 -262h103q242 0 338 -78q104 -84 104 -234q0 -136 -63 -261.5t-176 -190.5q-69 -40 -153.5 -56t-225.5 -16h-246l231 1098h-110zM604 164q85 45 132.5 143t47.5 207q0 93 -53 143q-63 58 -229 58h-125
l-127 -594h125q145 0 229 43z" />
    <glyph glyph-name="uni0463" unicode="&#x463;" horiz-adv-x="833" 
d="M147 795l23 110h100l25 111l145 26l-28 -137h247l-22 -110h-250l-37 -181q79 27 166 27q71 0 122 -22t77 -50q78 -82 78 -215q0 -74 -28.5 -146.5t-80.5 -125.5q-46 -46 -117.5 -76.5t-160.5 -30.5q-154 0 -289 64l-27 12l158 744h-101zM326 496l-80 -375q80 -31 151 -31
q116 0 181 70q28 29 46.5 78.5t18.5 103.5q0 91 -41 137q-40 47 -133 47q-69 0 -143 -30z" />
    <glyph glyph-name="uni0472" unicode="&#x472;" horiz-adv-x="1198" 
d="M1194 956q0 -104 -18 -214.5t-52 -221.5t-89 -209t-124.5 -173.5t-164 -120t-201.5 -44.5q-406 0 -406 478q0 107 17.5 219t52 222t89.5 207t124 171t162.5 117t199.5 43q210 0 310 -119t100 -355zM555 96q86 0 161 50t129 135t92 181.5t62 205.5h-686q-18 -120 -18 -232
q0 -340 260 -340zM1036 963q0 344 -256 344q-85 0 -158.5 -42.5t-127 -117.5t-92 -164t-64.5 -195h682q16 98 16 175z" />
    <glyph glyph-name="uni0473" unicode="&#x473;" horiz-adv-x="942" 
d="M909 692q0 -102 -20 -203t-62.5 -194.5t-101.5 -165t-143 -114t-181 -42.5q-159 0 -237 94t-78 267q0 189 62.5 352t180 264t265.5 101q153 0 234 -93t81 -266zM418 92q101 0 182 104.5t123 268.5h-477q-8 -90 -8 -137q0 -122 43.5 -179t136.5 -57zM756 731
q0 95 -45.5 150t-130.5 55q-103 0 -187.5 -98t-124.5 -258h477q11 90 11 151z" />
    <glyph glyph-name="uni0474" unicode="&#x474;" horiz-adv-x="1128" 
d="M1231 1407l26 -117q-98 -20 -151 -72.5t-109 -164.5l-516 -1053h-151l-113 1405h148l63 -911q13 -210 6 -347h6q65 167 144 334l299 641q40 86 81 139.5t107 92t160 53.5z" />
    <glyph glyph-name="uni0475" unicode="&#x475;" horiz-adv-x="899" 
d="M770 741l-395 -751h-142l-100 1030l141 27l33 -422q9 -137 21 -281q8 -136 4 -203h6q33 98 90 209l227 455q48 96 110.5 155t156.5 87l36 -117q-67 -26 -108.5 -71t-79.5 -118z" />
    <glyph glyph-name="uni0490" unicode="&#x490;" horiz-adv-x="837" 
d="M936 1622h135l-74 -344h-495l-273 -1278h-147l299 1405h508z" />
    <glyph glyph-name="uni0491" unicode="&#x491;" horiz-adv-x="737" 
d="M412 895l-191 -895h-139l215 1020h385l39 184l149 19l-67 -328h-391z" />
    <glyph glyph-name="uni0492" unicode="&#x492;" horiz-adv-x="790" 
d="M1028 1405l-33 -127h-489l-96 -449h217l-27 -124h-217l-150 -705h-147l150 705h-154l27 124h153l123 576h643z" />
    <glyph glyph-name="uni0493" unicode="&#x493;" horiz-adv-x="800" 
d="M598 575h156l-41 -94h-283q-90 -40 -127 -67q-42 -26 -70 -68q-30 -52 -30 -110q0 -138 153 -138q92 0 199 52l68 32l36 -112l-20 -13q-57 -34 -141 -58t-176 -24q-129 0 -203 64q-72 64 -72 182q0 80 56.5 153t152.5 107h-162l19 94h313q35 16 78 43q34 22 63 54
q28 31 41 67q10 30 10 60q0 61 -36 93t-97 32q-94 0 -198 -50l-41 -20l-33 111q158 79 299 79q107 0 172 -49q86 -65 86 -184q0 -70 -51 -136t-121 -100z" />
    <glyph glyph-name="uni0496" unicode="&#x496;" horiz-adv-x="1583" 
d="M1075 1405l-127 -598h125q74 0 127 49q35 32 84 148l84 202q47 111 88 148q51 46 143 57l95 10l6 -106l-66 -17q-41 -12 -63 -30q-8 -7 -16.5 -17t-16.5 -23.5t-12.5 -22t-11.5 -23t-7 -15.5l-96 -200q-51 -105 -80 -142q-43 -54 -110 -75l-2 -9q45 -19 69 -63t29 -146
l14 -301q3 -54 10 -71.5t31 -32.5h141l-106 -500h-143l77 369l-24 2q-97 11 -127 76q-11 25 -13.5 56.5t-2.5 121.5v227q0 122 -23 158q-34 49 -109 49h-120l-146 -686h-143l145 686h-121q-73 0 -133 -53q-41 -36 -88 -154l-88 -227q-33 -82 -50 -117t-40 -61
q-57 -61 -162 -76l-96 -12l-4 102l37 12q42 13 71 33q25 18 41.5 41.5t38.5 75.5l125 282q42 93 97 148q49 47 104 63l2 9q-57 24 -84 79q-25 49 -25 136v200q0 74 -24 103q-9 10 -49 30l-58 25l50 96l71 -10q85 -11 119 -57q27 -37 27 -148l-2 -202q0 -105 28 -148
q11 -18 40 -33.5t69 -15.5h131l127 598h143z" />
    <glyph glyph-name="uni0497" unicode="&#x497;" horiz-adv-x="1544" 
d="M1229 -358l74 358q-55 -25 -111 -25q-97 0 -160 80q-61 83 -61 258q0 70 20 172h-145l-105 -485h-139l103 485h-150q-31 -120 -72 -212t-108 -169q-112 -129 -244 -129q-93 0 -151 74l79 98q37 -53 97 -53q35 0 68.5 23.5t51.5 48.5t41 63q74 127 106 263.5t32 242.5
q0 102 -35 154q-29 43 -80 43q-71 0 -137 -82l-51 86q37 48 94 78t121 30q104 0 163 -79q60 -79 60 -258q0 -57 -10 -107h149l88 416l146 26l-95 -442h156q57 190 164 315q112 129 242 129q95 0 153 -73l-74 -92q-39 53 -102 53q-83 0 -162 -141q-73 -131 -106 -265
t-33 -241q0 -36 3 -63t13 -59.5t33.5 -50.5t58.5 -18q52 0 89 29h159l-102 -481h-131z" />
    <glyph glyph-name="uni049A" unicode="&#x49a;" horiz-adv-x="1067" 
d="M1178 1421l6 -106l-66 -17q-33 -8 -63 -30q-8 -7 -16.5 -17t-16.5 -23.5t-12.5 -22t-11.5 -23t-7 -15.5l-96 -200q-56 -114 -82 -144q-47 -56 -108 -73l-3 -9q46 -20 70 -63t29 -146l14 -305q2 -47 9.5 -66t31.5 -34h141l-106 -500h-143l77 369l-22 2q-100 13 -129 76
q-11 23 -14 57t-3 121v227q0 124 -22 158q-35 51 -111 51h-153l-146 -688h-143l299 1405h143l-127 -596h156q73 0 127 43q10 8 19 19.5t15.5 21t15 26.5t12.5 25.5t13.5 30t12.5 29.5l84 202q47 111 88 148q51 46 143 57z" />
    <glyph glyph-name="uni049B" unicode="&#x49b;" horiz-adv-x="909" 
d="M612 -358l70 348q-29 4 -45.5 8t-37.5 17.5t-30 35.5q-14 31 -14 131l2 158q0 74 -22 98q-23 27 -103 27q-127 -203 -217 -465h-133l215 1018l139 24l-96 -446q-11 -58 -47 -176h6q34 93 93.5 194t119.5 174q80 97 170.5 161t204.5 93l43 -118l-27 -9q-252 -76 -416 -358
l39 -4q102 -10 138 -70q20 -33 24 -110l8 -193q2 -30 11 -57h139l-103 -481h-131z" />
    <glyph glyph-name="uni049C" unicode="&#x49c;" horiz-adv-x="1067" 
d="M524 395h-123l62 293h-92l-146 -688h-143l299 1405h143l-127 -596h92l58 268h123l-56 -260q38 10 66 35q10 8 19 19.5t15.5 21t15 26.5t12.5 25.5t13.5 30t12.5 29.5l84 202q47 111 88 148q51 46 143 57l95 10l6 -106l-66 -17q-33 -8 -63 -30q-8 -7 -16.5 -17
t-16.5 -23.5t-12.5 -22t-11.5 -23t-7 -15.5l-96 -200q-56 -114 -82 -144q-47 -56 -108 -73l-3 -9q46 -20 70 -63t29 -146l14 -305q2 -45 8 -63.5t27 -32.5q17 -14 63 -31l39 -12l-49 -102l-100 12q-100 13 -129 76q-11 23 -14 57t-3 121v227q0 124 -22 158q-23 30 -51 39z
" />
    <glyph glyph-name="uni049D" unicode="&#x49d;" horiz-adv-x="962" 
d="M467 825h106l-49 -237q37 3 68 30q31 31 61 101l66 155q31 75 63 107q41 41 117 49l78 8l6 -94l-51 -12q-29 -7 -49 -27q-23 -23 -39 -63l-70 -154q-28 -67 -63 -102q-36 -36 -82 -51l-2 -7q32 -18 47 -45q20 -37 24 -110l9 -201q4 -52 26 -74q11 -11 41 -20l31 -8
l-35 -90l-96 14q-72 9 -94 57q-15 33 -15 131l2 154q0 81 -16 106q-17 25 -51 29l-51 -244h-107l51 246h-78l-100 -473h-133l215 1018l139 24l-96 -454h78z" />
    <glyph glyph-name="uni04A2" unicode="&#x4a2;" horiz-adv-x="1155" 
d="M1184 1405l-273 -1278h74l-106 -500h-144l80 373h-76l146 688h-514l-146 -688h-143l299 1405h143l-127 -596h514l127 596h146z" />
    <glyph glyph-name="uni04A3" unicode="&#x4a3;" horiz-adv-x="942" 
d="M594 -358l72 358h-70l102 481h-374l-103 -481h-139l215 1016l145 26l-92 -436h375l86 410l145 26l-196 -919h67l-102 -481h-131z" />
    <glyph glyph-name="uni04AE" unicode="&#x4ae;" horiz-adv-x="903" 
d="M1141 1405l-580 -858l-117 -547h-151l119 557l-215 848h168l116 -537q7 -34 14 -79t10.5 -74t4.5 -31q1 4 16 31.5t41.5 72t50.5 80.5l347 537h176z" />
    <glyph glyph-name="uni04AF" unicode="&#x4af;" horiz-adv-x="753" 
d="M139 1014l144 28l49 -690q6 -105 4 -151h8q27 79 62 151l323 668h156l-520 -1020l-84 -399l-148 -27l90 426l-28 348z" />
    <glyph glyph-name="uni04B0" unicode="&#x4b0;" horiz-adv-x="903" 
d="M1141 1405l-525 -774h246l-26 -121h-283l-109 -510h-151l108 510h-264l27 121h229l-196 774h168l116 -537q7 -35 14.5 -79.5t11 -72.5t3.5 -32q1 4 16 31.5t41.5 72t50.5 80.5l347 537h176z" />
    <glyph glyph-name="uni04B1" unicode="&#x4b1;" horiz-adv-x="753" 
d="M139 1014l144 28l49 -690q6 -105 4 -151h8q27 79 62 151l323 668h156l-465 -911h229l-57 -109h-227l-84 -399l-148 -27l90 426h-221l21 109h190l-18 239z" />
    <glyph glyph-name="uni04B2" unicode="&#x4b2;" horiz-adv-x="937" 
d="M1075 1405l-446 -645l188 -633h115l-107 -500h-143l80 373h-64l-174 655l-434 -655h-172l526 760l-190 645h162l135 -535l354 535h170z" />
    <glyph glyph-name="uni04B3" unicode="&#x4b3;" horiz-adv-x="815" 
d="M571 -358l72 358h-63l-119 342l-35 102l-78 -102l-262 -342h-168l453 571l-178 449h157l72 -232l37 -118l63 88l187 262h165l-360 -463l170 -434h121l-103 -481h-131z" />
    <glyph glyph-name="uni04B6" unicode="&#x4b6;" horiz-adv-x="1003" 
d="M1057 1405l-273 -1278h74l-106 -500h-144l80 373h-74l136 633q-140 -70 -295 -70q-168 0 -232 99q-39 55 -39 149q0 23 13 94l106 500h143l-102 -481q-12 -54 -12 -84q0 -75 39 -113.5t135 -38.5q118 0 268 62l139 655h144z" />
    <glyph glyph-name="uni04B7" unicode="&#x4b7;" horiz-adv-x="880" 
d="M477 -358l72 358h-68l90 430q-88 -49 -200 -49q-155 0 -213 94q-25 41 -25 111q0 38 12 96l70 334l143 26l-82 -389q-6 -30 -6 -49q0 -58 37.5 -81t108.5 -23q87 0 180 41l100 475l144 26l-197 -919h68l-103 -481h-131z" />
    <glyph glyph-name="uni04B8" unicode="&#x4b8;" horiz-adv-x="1003" 
d="M758 0h-144l136 633q-86 -45 -189 -62l-59 -276h-127l57 268q-149 5 -209 99q-39 55 -39 149q0 23 13 94l106 500h143l-102 -481q-12 -54 -12 -84q0 -67 28.5 -104t98.5 -46l61 287h127l-59 -283q89 13 186 56l139 655h144z" />
    <glyph glyph-name="uni04B9" unicode="&#x4b9;" horiz-adv-x="880" 
d="M358 1042l-82 -389q-6 -30 -6 -49q0 -47 24.5 -70.5t70.5 -31.5l53 250h104l-53 -250q56 8 127 39l100 475l144 26l-222 -1042h-137l90 430q-61 -35 -127 -45l-49 -231h-104l47 227l-16 2q-116 15 -164 92q-25 41 -25 111q0 38 12 96l70 334z" />
    <glyph glyph-name="uni04BA" unicode="&#x4ba;" horiz-adv-x="1005" 
d="M381 1405h143l-135 -633q142 68 295 68q164 0 231 -99q39 -55 39 -147q0 -28 -12 -94l-106 -500h-144l101 475q12 54 12 84q0 75 -39 113.5t-135 38.5q-119 0 -269 -62l-137 -649h-143z" />
    <glyph glyph-name="uni04BB" unicode="&#x4bb;" horiz-adv-x="999" 
d="M922 858q0 -54 -19 -149l-149 -709h-140l148 698q18 83 18 140q0 84 -98 84q-143 0 -313 -222l-148 -700h-139l242 1133q20 90 20 190q0 84 -14 127l143 57q16 -59 16 -143q0 -104 -22 -209l-35 -166q-15 -66 -35 -129q145 182 324 182q95 0 148 -48t53 -136z" />
    <glyph glyph-name="uni04C0" unicode="&#x4c0;" horiz-adv-x="471" 
d="M524 1405l-299 -1405h-143l299 1405h143z" />
    <glyph glyph-name="uni04CF" unicode="&#x4cf;" horiz-adv-x="471" 
d="M475 1507q17 -63 17 -143q0 -100 -23 -209l-246 -1155h-139l242 1133q20 90 20 190q0 84 -14 127z" />
    <glyph glyph-name="uni04D8" unicode="&#x4d8;" horiz-adv-x="1107" 
d="M737 768q81 0 211 -10q19 104 19 186q0 163 -68 258.5t-213 95.5q-216 0 -352 -172l-72 105q178 192 434 192q214 0 321 -119.5t107 -365.5q0 -100 -20.5 -209t-58.5 -215.5t-96.5 -202t-129.5 -168.5t-163.5 -116t-192.5 -43q-161 0 -250.5 90t-89.5 233
q0 97 34.5 175.5t92.5 130.5t137.5 88t166.5 51.5t183 15.5zM459 104q86 0 162 45t132.5 122.5t98 167.5t70.5 194q-105 10 -201 10q-65 0 -124.5 -8.5t-118.5 -31.5t-102 -57.5t-70 -91.5t-27 -130q0 -41 10.5 -79t31 -70.5t56.5 -51.5t82 -19z" />
    <glyph glyph-name="uni04D9" unicode="&#x4d9;" horiz-adv-x="854" 
d="M109 217q0 55 21.5 115.5t59.5 101.5q118 125 375 125q33 0 119 -4q21 82 21 135q0 112 -46.5 176t-146.5 64q-134 0 -244 -107l-57 80q133 144 324 144q319 0 319 -361q0 -153 -55 -311.5t-150 -259.5q-132 -138 -289 -138q-122 0 -186.5 66.5t-64.5 173.5zM240 223
q0 -59 30.5 -99t102.5 -40q90 0 167 102t124 263q-74 4 -103 4q-107 0 -168.5 -25t-101.5 -70q-24 -26 -37.5 -65t-13.5 -70z" />
    <glyph glyph-name="uni04E2" unicode="&#x4e2;" horiz-adv-x="1175" 
d="M930 0h-144l207 975q18 80 70 264h-6q-67 -145 -113 -209l-700 -1030h-162l299 1405h143l-211 -993q-19 -94 -59 -215h6q48 96 107 182l700 1026h162zM1083 1651l-24 -111h-490l25 111h489z" />
    </font>
</defs>
</svg>
