<svg xmlns="http://www.w3.org/2000/svg">
	<defs>
		<symbol viewBox="0 0 34.33 22.88"  id="uc">
			<path d="M0,14.3V.44H5.56V15.09c0,1.07,.23,1.84,.69,2.33,.46,.48,1.14,.72,2.04,.72s1.69-.24,2.25-.71c.55-.47,.83-1.2,.83-2.18V.44h5.28V14.74c0,1.49-.17,2.77-.52,3.83-.35,1.07-.97,1.95-1.87,2.64-.67,.52-1.52,.93-2.56,1.23s-2.19,.44-3.47,.44c-2.68,0-4.68-.63-6-1.89-.92-.84-1.52-1.76-1.81-2.78C.14,17.19,0,15.89,0,14.3Zm28.28,8.45c-2.98,0-5.31-1.05-7.01-3.14-1.61-2.07-2.42-4.69-2.42-7.86,0-2.62,.48-4.82,1.45-6.6,.86-1.59,2.01-2.85,3.44-3.77,1.43-.92,3-1.38,4.7-1.38,1.05,0,2.05,.16,3,.47,.95,.31,1.76,.73,2.44,1.26l-1.73,2.42c-1.15-.86-2.39-1.29-3.71-1.29-.92,0-1.77,.24-2.53,.71-.77,.47-1.4,1.15-1.9,2.03-.78,1.38-1.16,3.29-1.16,5.72,0,1.3,.07,2.36,.22,3.17,.15,.82,.37,1.57,.66,2.26,.5,.99,1.19,1.73,2.06,2.25,.87,.51,1.85,.77,2.94,.77,.75,0,1.43-.09,2.03-.28s1.21-.52,1.84-1.01l1.73,2.42c-.86,.65-1.77,1.12-2.73,1.41-.96,.29-2.06,.44-3.3,.44h-.02Z"/>
		</symbol>

		<symbol viewBox="0 0 120.33 22.88"  id="ucuenca">
			<path d="M0,14.3V.44H5.56V15.09c0,1.07,.23,1.84,.69,2.33,.46,.48,1.14,.72,2.04,.72s1.69-.24,2.25-.71c.55-.47,.83-1.2,.83-2.18V.44h5.28V14.74c0,1.49-.17,2.77-.52,3.83-.35,1.07-.97,1.95-1.87,2.64-.67,.52-1.52,.93-2.56,1.23s-2.19,.44-3.47,.44c-2.68,0-4.68-.63-6-1.89-.92-.84-1.52-1.76-1.81-2.78C.14,17.19,0,15.89,0,14.3Zm28.28,8.45c-2.98,0-5.31-1.05-7.01-3.14-1.61-2.07-2.42-4.69-2.42-7.86,0-2.62,.48-4.82,1.45-6.6,.86-1.59,2.01-2.85,3.44-3.77,1.43-.92,3-1.38,4.7-1.38,1.05,0,2.05,.16,3,.47,.95,.31,1.76,.73,2.44,1.26l-1.73,2.42c-1.15-.86-2.39-1.29-3.71-1.29-.92,0-1.77,.24-2.53,.71-.77,.47-1.4,1.15-1.9,2.03-.78,1.38-1.16,3.29-1.16,5.72,0,1.3,.07,2.36,.22,3.17,.15,.82,.37,1.57,.66,2.26,.5,.99,1.19,1.73,2.06,2.25,.87,.51,1.85,.77,2.94,.77,.75,0,1.43-.09,2.03-.28s1.21-.52,1.84-1.01l1.73,2.42c-.86,.65-1.77,1.12-2.73,1.41-.96,.29-2.06,.44-3.3,.44h-.02Zm15.37,0c-2.74,0-4.7-.59-5.86-1.76s-1.74-2.72-1.74-4.65V.44h3.74V15.21c0,1.68,.29,2.83,.88,3.47s1.58,.96,2.99,.96c2.66,0,3.99-1.48,3.99-4.43V.44h3.58v15.78c0,2.07-.66,3.68-1.96,4.82s-3.18,1.71-5.61,1.71h-.01Zm10.22-.31V.44h12.07l-.31,3.14h-8.05v5.91h6.41v2.99h-6.41v6.82h8.36v3.14h-12.07Zm25.89,0l-8.14-16.91c.04,.52,.07,1.31,.08,2.36,.01,1.05,.02,2.42,.02,4.12v10.43h-3.55V.44l4.97,.06c1.7,3.29,3.09,6.13,4.18,8.53,1.09,2.4,1.89,4.5,2.39,6.3l.03-.09c-.06-.71-.09-1.75-.09-3.11V.44h3.46V22.44h-3.35Zm14.8,.31c-2.98,0-5.31-1.05-7.01-3.14-1.61-2.07-2.42-4.69-2.42-7.86,0-2.62,.48-4.82,1.45-6.6,.86-1.59,2.01-2.85,3.44-3.77,1.43-.92,3-1.38,4.7-1.38,1.05,0,2.05,.16,3,.47,.95,.31,1.76,.73,2.44,1.26l-1.73,2.42c-1.15-.86-2.39-1.29-3.71-1.29-.92,0-1.77,.24-2.53,.71-.77,.47-1.4,1.15-1.9,2.03-.78,1.38-1.16,3.29-1.16,5.72,0,1.3,.07,2.36,.22,3.17,.15,.82,.37,1.57,.66,2.26,.5,.99,1.19,1.73,2.06,2.25,.87,.51,1.85,.77,2.94,.77,.75,0,1.43-.09,2.03-.28s1.21-.52,1.84-1.01l1.73,2.42c-.86,.65-1.77,1.12-2.73,1.41-.96,.29-2.06,.44-3.3,.44h-.02Zm21.75-.31l-1.76-5.56h-7.17l-1.76,5.56h-3.71L109.08,.44h4.27l6.98,22h-4.02Zm-5.28-18.42c-.19,.88-.63,2.54-1.32,4.97-.69,2.43-1.16,3.97-1.41,4.62h5.47c-.13-.21-.67-2.11-1.63-5.69-.63-2.28-1-3.58-1.1-3.9h-.01Z"/>
		</symbol>
		<symbol viewBox="0 0 165 95.3" id="dec_1-1">
			<path class="st0" d="M81.2,28.3l28.5-14.8l28.5,14.8V14.8L109.7,0L81.2,14.8V28.3z M81.2,82.1l28.5-14.8l28.5,14.8V68.6l-28.5-14.8L81.2,68.6V82.1z M67.7,81.7H54.2H40.6H27.1H13.5H0v13.5h13.5h13.5h13.5h13.5h13.5h13.5V81.7H67.7z M67.7,28.3H54.2H40.6H27.1H13.5H0v13.5h13.5h13.5h13.5h13.5h13.5h13.5V28.3H67.7z M151.6,1.4H165v13.4h-13.4V1.4z M151.6,55.4H165v13.4h-13.4V55.4z"/>
		</symbol>
		<symbol viewBox="0 0 165 95.3" id="dec_1-2">
			<path class="st0" d="M81.2,55.3l28.5-14.8l28.5,14.8V41.8L109.7,27L81.2,41.8V55.3z M67.7,54.7H54.2H40.6H27.1H13.5H0v13.5h13.5h13.5h13.5h13.5h13.5h13.5V54.7H67.7z M151.6,28.5H165v13.4h-13.4V28.5z"/>
		</symbol>
	</defs>
</svg>