<?xml version="1.0" encoding="UTF-8"?>
<svg id="Layer_2" xmlns="http://www.w3.org/2000/svg" viewBox="0 0 49.4 32.9">
<defs>
</defs>
<g id="Layer_2-2">
<g id="Layer_1-2">
<path class="cls-1" d="M0,20.6V.6H8V21.7c0,1.5,.3,2.6,1,3.3s1.6,1,2.9,1,2.4-.3,3.2-1,1.2-1.7,1.2-3.1V.6h7.7V21.2c0,2.1-.2,4-.8,5.5-.5,1.5-1.4,2.8-2.7,3.8-1,.8-2.2,1.3-3.7,1.8-1.5,.4-3.2,.6-5,.6-3.9,0-6.7-.9-8.6-2.7-1.3-1.2-2.2-2.5-2.6-4s-.6-3.3-.6-5.6Zm40.7,12.1c-4.3,0-7.6-1.5-10.1-4.5-2.3-3-3.5-6.8-3.5-11.3,0-3.8,.7-6.9,2.1-9.5,1.2-2.3,2.9-4.1,5-5.4,2.1-1.3,4.3-2,6.8-2,1.5,0,2.9,.2,4.3,.7,1.4,.4,2.5,1,3.5,1.8l-2.6,3.5c-1.7-1.2-3.4-1.8-5.3-1.8-1.3,0-2.5,.3-3.6,1s-2,1.7-2.7,2.9c-1.1,2-1.7,4.7-1.7,8.2,0,1.9,.1,3.4,.3,4.6s.5,2.3,1,3.2c.7,1.4,1.7,2.5,3,3.2s2.7,1.1,4.2,1.1c1.1,0,2.1-.1,2.9-.4s1.7-.8,2.6-1.5l2.5,3.5c-1.2,.9-2.5,1.6-3.9,2-1.4,.5-3,.7-4.8,.7h0Z"/>
</g>
</g>
</svg>