<?xml version="1.0" encoding="utf-8"?>
<!-- Generator: Adobe Illustrator 26.3.1, SVG Export Plug-In . SVG Version: 6.00 Build 0)  -->
<svg version="1.1" id="Layer_2_00000069363264916218769440000004359561913891192457_"
	 xmlns="http://www.w3.org/2000/svg" xmlns:xlink="http://www.w3.org/1999/xlink" x="0px" y="0px" viewBox="0 0 49.3 32.9"
	 style="enable-background:new 0 0 49.3 32.9;" xml:space="preserve">
<style type="text/css">
	.st0{fill:#FFFFFF;}
</style>
<g id="Layer_1-2">
	<path class="st0" d="M0,20.6V0.6h8v21.1c0,1.5,0.3,2.6,1,3.3s1.6,1,2.9,1s2.4-0.3,3.2-1c0.8-0.7,1.2-1.7,1.2-3.1V0.6H24v20.6
		c0,2.1-0.2,4-0.8,5.5c-0.5,1.5-1.4,2.8-2.7,3.8c-1,0.8-2.2,1.3-3.7,1.8c-1.5,0.4-3.2,0.6-5,0.6c-3.9,0-6.7-0.9-8.6-2.7
		c-1.3-1.2-2.2-2.5-2.6-4S0,22.9,0,20.6z M40.7,32.7c-4.3,0-7.6-1.5-10.1-4.5c-2.3-3-3.5-6.8-3.5-11.3c0-3.8,0.7-6.9,2.1-9.5
		c1.2-2.3,2.9-4.1,5-5.4c2.1-1.3,4.3-2,6.8-2c1.5,0,2.9,0.2,4.3,0.7c1.4,0.4,2.5,1,3.5,1.8L46.2,6c-1.7-1.2-3.4-1.8-5.3-1.8
		c-1.3,0-2.5,0.3-3.6,1s-2,1.7-2.7,2.9c-1.1,2-1.7,4.7-1.7,8.2c0,1.9,0.1,3.4,0.3,4.6c0.2,1.2,0.5,2.3,1,3.2c0.7,1.4,1.7,2.5,3,3.2
		s2.7,1.1,4.2,1.1c1.1,0,2.1-0.1,2.9-0.4s1.7-0.8,2.6-1.5l2.5,3.5c-1.2,0.9-2.5,1.6-3.9,2C44.1,32.5,42.5,32.7,40.7,32.7L40.7,32.7z
		"/>
</g>
</svg>
